<svg width="23" height="17" viewBox="0 0 23 17" fill="none" xmlns="http://www.w3.org/2000/svg">
<path d="M0.649858 17V0.272727H7.05327C8.26207 0.272727 9.26669 0.463304 10.0671 0.844459C10.873 1.22017 11.4747 1.73473 11.8722 2.38814C12.2751 3.04155 12.4766 3.78208 12.4766 4.60973C12.4766 5.29036 12.3459 5.87299 12.0845 6.3576C11.8232 6.83677 11.4719 7.22609 11.0309 7.52557C10.5898 7.82505 10.0971 8.04013 9.55256 8.17081V8.33416C10.1461 8.36683 10.7151 8.54924 11.2596 8.88139C11.8095 9.2081 12.2588 9.67093 12.6072 10.2699C12.9557 10.8688 13.13 11.593 13.13 12.4425C13.13 13.3082 12.9203 14.0869 12.5011 14.7784C12.0818 15.4645 11.4502 16.0063 10.6062 16.4038C9.76219 16.8013 8.7004 17 7.42081 17H0.649858ZM3.68004 14.468H6.93892C8.03883 14.468 8.83108 14.2584 9.3157 13.8391C9.80575 13.4144 10.0508 12.8699 10.0508 12.2056C10.0508 11.7101 9.92827 11.2636 9.68324 10.8661C9.43821 10.4632 9.08973 10.1474 8.63778 9.91868C8.18584 9.68454 7.64678 9.56747 7.0206 9.56747H3.68004V14.468ZM3.68004 7.38672H6.67756C7.20028 7.38672 7.67128 7.29143 8.09055 7.10085C8.50983 6.90483 8.83925 6.62985 9.07884 6.27592C9.32386 5.91655 9.44638 5.49183 9.44638 5.00178C9.44638 4.35381 9.21768 3.82019 8.7603 3.40092C8.30836 2.98165 7.63589 2.77202 6.7429 2.77202H3.68004V7.38672ZM15.6354 17V4.45455H18.5022V6.54545H18.6329C18.8616 5.82126 19.2536 5.26314 19.809 4.87109C20.3699 4.4736 21.0097 4.27486 21.7284 4.27486C21.8918 4.27486 22.0742 4.28302 22.2757 4.29936C22.4826 4.31025 22.6541 4.32931 22.7902 4.35653V7.07635C22.665 7.03279 22.4662 6.99467 22.194 6.962C21.9272 6.92389 21.6685 6.90483 21.4181 6.90483C20.879 6.90483 20.3944 7.0219 19.9642 7.25604C19.5395 7.48473 19.2046 7.80327 18.9596 8.21165C18.7146 8.62003 18.5921 9.09103 18.5921 9.62464V17H15.6354Z" fill="#6D73FF"/>
</svg>
