<svg width="28" height="28" viewBox="0 0 28 28" fill="none" xmlns="http://www.w3.org/2000/svg">
<path d="M21.5472 21.7474C21.4814 21.4218 21.1552 21.2135 20.8254 21.2873C20.2904 21.4071 19.4533 21.5531 18.5524 21.5531C15.7121 21.5531 13.4521 19.8447 12.4747 17.357H18.1635C18.2999 17.357 18.4322 17.3114 18.5387 17.2278C18.6452 17.1442 18.7195 17.0275 18.7494 16.8969L19.0683 15.5042C19.1526 15.1358 18.8671 14.7857 18.4824 14.7857H11.7654C11.7049 14.0821 11.6947 13.3966 11.7723 12.7112H19.1075C19.2445 12.7112 19.3773 12.6653 19.484 12.581C19.5907 12.4967 19.6648 12.3792 19.6941 12.2479L20.02 10.7867C20.1019 10.4192 19.8168 10.0714 19.4334 10.0714H12.5142C13.5466 7.86205 15.6511 6.38692 18.3996 6.38692C19.1245 6.38692 19.8289 6.49741 20.2936 6.59047C20.6047 6.65274 20.9115 6.4678 20.9943 6.16702L21.5943 3.98823C21.6855 3.6572 21.4709 3.31959 21.1276 3.2557C20.522 3.143 19.5459 3 18.4913 3C13.6284 3 9.70434 5.9588 8.25548 10.0714H6.60046C6.26886 10.0714 6 10.3353 6 10.6607V12.1219C6 12.4473 6.26886 12.7112 6.60046 12.7112H7.67974C7.62925 13.3794 7.62064 14.1494 7.67068 14.7857H6.60046C6.26886 14.7857 6 15.0496 6 15.375V16.7677C6 17.0931 6.26886 17.357 6.60046 17.357H8.10731C9.35952 21.7929 13.2688 25 18.4913 25C19.8074 25 20.9213 24.7769 21.5487 24.6176C21.8573 24.5392 22.0504 24.239 21.9884 23.9322L21.5472 21.7474Z" fill="#6D73FF"/>
</svg>
