<svg width="28" height="28" viewBox="0 0 28 28" fill="none" xmlns="http://www.w3.org/2000/svg">
<path d="M5.60117 3C5.27057 3 5 3.26218 5 3.59409V6.22079C5 6.55366 5.27057 6.82609 5.60117 6.82609H23.41C23.7396 6.82609 24 6.55366 24 6.22079V3.59409C24 3.26218 23.7396 3 23.41 3H5.60117ZM5.60117 9.69565C5.27057 9.69565 5 9.96739 5 10.2897V12.9164C5 13.2493 5.27057 13.5217 5.60117 13.5217H12.6V24.4059C12.6 24.7378 12.8604 25 13.19 25H15.81C16.1396 25 16.4 24.7378 16.4 24.4059V13.5217H23.41C23.7396 13.5217 24 13.2493 24 12.9164V10.2897C24 9.96739 23.7396 9.69565 23.41 9.69565H5.60117Z" fill="#6D73FF"/>
</svg>
