<svg width="28" height="28" viewBox="0 0 28 28" fill="none" xmlns="http://www.w3.org/2000/svg">
<path d="M16.1429 17.08C17.9615 17.08 19.7056 16.3383 20.9916 15.018C22.2776 13.6978 23 11.9071 23 10.04C23 8.17288 22.2776 6.38222 20.9916 5.06197C19.7056 3.74171 17.9615 3 16.1429 3H9.71429C9.3733 3.00002 9.04628 3.13909 8.80517 3.38664C8.56405 3.63418 8.42859 3.96992 8.42857 4.32V14.44H6.28571C5.94472 14.44 5.6177 14.5791 5.37658 14.8266C5.13546 15.0742 5 15.4099 5 15.76C5 16.1101 5.13546 16.4458 5.37658 16.6934C5.6177 16.9409 5.94472 17.08 6.28571 17.08H8.42857V18.84H6.28571C5.94472 18.84 5.6177 18.9791 5.37658 19.2266C5.13546 19.4742 5 19.8099 5 20.16C5 20.5101 5.13546 20.8458 5.37658 21.0934C5.6177 21.3409 5.94472 21.48 6.28571 21.48H8.42857V23.68C8.42857 24.0301 8.56403 24.3658 8.80515 24.6134C9.04627 24.8609 9.37329 25 9.71429 25C10.0553 25 10.3823 24.8609 10.6234 24.6134C10.8645 24.3658 11 24.0301 11 23.68V21.48H15.7143C16.0553 21.48 16.3823 21.3409 16.6234 21.0934C16.8645 20.8458 17 20.5101 17 20.16C17 19.8099 16.8645 19.4742 16.6234 19.2266C16.3823 18.9791 16.0553 18.84 15.7143 18.84H11V17.08H16.1429ZM11 5.64H16.1429C17.2795 5.64 18.3696 6.10357 19.1733 6.92873C19.977 7.75389 20.4286 8.87305 20.4286 10.04C20.4286 11.207 19.977 12.3261 19.1733 13.1513C18.3696 13.9764 17.2795 14.44 16.1429 14.44H11V5.64Z" fill="#6D73FF"/>
</svg>
