<svg width="28" height="28" viewBox="0 0 28 28" fill="none" xmlns="http://www.w3.org/2000/svg">
<g clip-path="url(#clip0_2023_2)">
<path fill-rule="evenodd" clip-rule="evenodd" d="M15.1667 4.17895C15.1667 3.52784 14.6443 3 14 3C13.3556 3 12.8333 3.52784 12.8333 4.17895V4.83821C11.4683 5.00353 10.2123 5.45821 9.21216 6.15628C7.92811 7.05257 7 8.41169 7 10.0737C7 11.5757 7.57361 12.9705 8.84077 13.9555C9.84011 14.7323 11.1856 15.1885 12.8333 15.3306V21.1816C11.9188 21.0335 11.1305 20.7171 10.5383 20.3036C9.71108 19.7262 9.33333 19.0222 9.33333 18.3263C9.33333 17.6752 8.81099 17.1474 8.16667 17.1474C7.52234 17.1474 7 17.6752 7 18.3263C7 19.9883 7.92811 21.3475 9.21216 22.2437C10.2123 22.9418 11.4683 23.3965 12.8333 23.5618V24.2211C12.8333 24.8722 13.3556 25.4 14 25.4C14.6443 25.4 15.1667 24.8722 15.1667 24.2211V23.565C16.5226 23.4077 17.7772 22.9743 18.7803 22.2858C20.0809 21.3931 21 20.0282 21 18.3263C21 16.7859 20.4335 15.3815 19.1518 14.4018C18.1498 13.636 16.8046 13.2019 15.1667 13.067V7.21843C16.0812 7.36642 16.8695 7.68294 17.4617 8.09634C18.2889 8.67374 18.6667 9.37779 18.6667 10.0737C18.6667 10.7248 19.189 11.2526 19.8333 11.2526C20.4777 11.2526 21 10.7248 21 10.0737C21 8.41169 20.0719 7.05257 18.7879 6.15629C17.7878 5.4582 16.5318 5.00351 15.1667 4.83821V4.17895ZM12.8333 7.21844C11.9188 7.36643 11.1305 7.68296 10.5383 8.09635C9.71108 8.67374 9.33333 9.37779 9.33333 10.0737C9.33333 10.9296 9.63473 11.5979 10.2634 12.0866C10.7835 12.4909 11.6047 12.8305 12.8333 12.9623V7.21844ZM15.1667 15.4344V21.1868C16.0896 21.0454 16.8796 20.7401 17.4693 20.3352C18.2799 19.7789 18.6667 19.0806 18.6667 18.3263C18.6667 17.4105 18.3582 16.7517 17.7442 16.2824C17.2268 15.887 16.4052 15.5602 15.1667 15.4344Z" fill="#6D73FF"/>
</g>
<defs>
<clipPath id="clip0_2023_2">
<rect width="28" height="28" fill="white"/>
</clipPath>
</defs>
</svg>
