<svg width="25" height="24" viewBox="0 0 25 24" fill="none" xmlns="http://www.w3.org/2000/svg">
<g clip-path="url(#clip0_1507_10)">
<path d="M23.034 10.6927L13.5673 10.8895L13.3698 1.39047C13.3567 0.7607 12.8788 0.298105 12.2546 0.311082C11.6304 0.32406 11.1721 0.806121 11.1852 1.43589L11.3838 10.9874L1.96907 11.1831C1.3438 11.1436 0.885485 11.6257 0.898578 12.2555C0.911671 12.8852 1.38962 13.3478 2.0138 13.3349L11.4805 13.138L11.6791 22.6895C11.6922 23.3193 12.1701 23.7819 12.7943 23.7689C13.4185 23.756 13.8768 23.2739 13.8637 22.6441L13.6641 13.0401L23.1308 12.8433C23.7549 12.8303 24.2133 12.3483 24.2002 11.7185C24.1871 11.0887 23.6062 10.6808 23.034 10.6927Z" fill="#D3D3D3"/>
</g>
<defs>
<clipPath id="clip0_1507_10">
<rect width="24" height="24" fill="white" transform="matrix(1 0 0.0411957 0.999151 0 0)"/>
</clipPath>
</defs>
</svg>
