<svg width="48" height="48" viewBox="0 0 48 48" fill="none" xmlns="http://www.w3.org/2000/svg">
<circle cx="24" cy="24" r="24" fill="none"/>
<path d="M15.0019 22.9619H35.0002C35.2654 22.9619 35.5197 23.0668 35.7072 23.2535C35.8948 23.4403 36.0001 23.6935 36.0001 23.9576C36.0001 24.2216 35.8948 24.4749 35.7072 24.6616C35.5197 24.8483 35.2654 24.9532 35.0002 24.9532H15.0019C14.7367 24.9532 14.4823 24.8483 14.2948 24.6616C14.1073 24.4749 14.002 24.2216 14.002 23.9576C14.002 23.6935 14.1073 23.4403 14.2948 23.2535C14.4823 23.0668 14.7367 22.9619 15.0019 22.9619Z" fill="#ADADAD"/>
<path d="M15.4156 23.9577L23.7089 32.2136C23.8966 32.4005 24.0021 32.6541 24.0021 32.9185C24.0021 33.1829 23.8966 33.4364 23.7089 33.6234C23.5211 33.8104 23.2665 33.9154 23.001 33.9154C22.7354 33.9154 22.4808 33.8104 22.293 33.6234L13.2938 24.6626C13.2006 24.5701 13.1268 24.4602 13.0764 24.3393C13.0259 24.2183 13 24.0887 13 23.9577C13 23.8267 13.0259 23.6971 13.0764 23.5761C13.1268 23.4551 13.2006 23.3453 13.2938 23.2528L22.293 14.292C22.4808 14.105 22.7354 14 23.001 14C23.2665 14 23.5211 14.105 23.7089 14.292C23.8966 14.4789 24.0021 14.7325 24.0021 14.9969C24.0021 15.2613 23.8966 15.5149 23.7089 15.7018L15.4156 23.9577Z" fill="#ADADAD"/>
</svg>
