<svg width="22" height="23" viewBox="0 0 22 23" fill="none" xmlns="http://www.w3.org/2000/svg">
<path fill-rule="evenodd" clip-rule="evenodd" d="M1.66904 16.4835L1.21757 20.6109C1.17794 20.9733 1.48518 21.2792 1.84916 21.2398L5.99446 20.7903C6.38372 20.748 6.74684 20.5747 7.02371 20.299L19.6178 7.7594C20.2891 7.09109 20.2891 6.00755 19.6178 5.33925L17.1872 2.91909C16.5159 2.25078 15.4278 2.25078 14.7565 2.91909L2.16235 15.4587C1.88548 15.7344 1.71144 16.0959 1.66904 16.4835ZM18.4026 1.70901L20.8332 4.12917C22.1757 5.46578 22.1757 7.63286 20.8332 8.96948L8.23902 21.5091C7.6853 22.0605 6.95907 22.407 6.18054 22.4914L2.03524 22.9409C0.579369 23.0988 -0.649629 21.8751 -0.491069 20.4256L-0.039599 16.2982C0.0451927 15.5231 0.393262 14.8 0.947009 14.2486L13.5411 1.70901C14.8836 0.372387 17.0601 0.372387 18.4026 1.70901Z" fill="#D3D3D3"/>
<path fill-rule="evenodd" clip-rule="evenodd" d="M19.6185 5.33925L17.1879 2.91909C16.5167 2.25078 15.4285 2.25078 14.7572 2.91909L13.2988 4.37118L18.1601 9.21149L19.6185 7.7594C20.2898 7.09109 20.2898 6.00755 19.6185 5.33925ZM18.1601 11.6317L10.8682 4.37118L13.5419 1.70901C14.8843 0.372387 17.0608 0.372387 18.4033 1.70901L20.8339 4.12917C22.1764 5.46578 22.1764 7.63287 20.8339 8.96948L18.1601 11.6317Z" fill="#D3D3D3"/>
</svg>
