<svg width="25" height="24" viewBox="0 0 25 24" fill="none" xmlns="http://www.w3.org/2000/svg">
<g clip-path="url(#clip0_1511_233)">
<path d="M23.3535 9.82985H13.4454V-0.0237559C13.4454 -0.677034 12.9555 -1.16699 12.3022 -1.16699C11.6489 -1.16699 11.1589 -0.677034 11.1589 -0.0237559V9.88429H1.30535C0.652068 9.82985 0.162109 10.3198 0.162109 10.9731C0.162109 11.6264 0.652068 12.1163 1.30535 12.1163H11.2134V22.0244C11.2134 22.6776 11.7033 23.1676 12.3566 23.1676C13.0099 23.1676 13.4999 22.6776 13.4999 22.0244V12.0619H23.4079C24.0612 12.0619 24.5511 11.5719 24.5511 10.9186C24.5511 10.2654 23.9523 9.82985 23.3535 9.82985Z" fill="#6D73FF"/>
</g>
<defs>
<clipPath id="clip0_1511_233">
<rect width="24.3164" height="23.3345" fill="white"/>
</clipPath>
</defs>
</svg>
