<svg width="26" height="24" viewBox="0 0 26 24" fill="none" xmlns="http://www.w3.org/2000/svg">
<g clip-path="url(#clip0_1483_211)">
<path d="M23.7588 21.9405L17.9546 15.9701C20.8009 12.2387 20.5218 6.78496 17.1732 3.39792C15.4431 1.61829 13.0991 0.584961 10.5877 0.584961C8.07624 0.584961 5.78803 1.56089 4.05793 3.39792C2.27201 5.17755 1.32324 7.58866 1.32324 10.1146C1.32324 12.6405 2.27201 15.0516 4.05793 16.8887C5.78803 18.6683 8.13205 19.7016 10.6435 19.7016C12.7085 19.7016 14.7176 19.0127 16.3361 17.6924L22.1403 23.6627C22.3636 23.8924 22.6426 24.0072 22.9775 24.0072C23.3123 24.0072 23.5914 23.8924 23.8146 23.6627C24.2053 23.2035 24.2053 22.3998 23.7588 21.9405ZM5.67641 15.1664C4.39278 13.8461 3.66726 12.009 3.66726 10.1146C3.66726 8.22015 4.39278 6.44052 5.67641 5.06274C7.01585 3.74237 8.74595 2.99607 10.5877 2.99607C12.4294 2.99607 14.1595 3.74237 15.4989 5.06274C18.1778 7.8757 18.1778 12.3535 15.4989 15.1664C14.2153 16.4868 12.4294 17.2331 10.5877 17.2331C8.74595 17.2905 7.01585 16.5442 5.67641 15.1664Z" fill="#C4C4C4"/>
</g>
<defs>
<clipPath id="clip0_1483_211">
<rect width="26" height="24" fill="white"/>
</clipPath>
</defs>
</svg>
