<svg width="50" height="50" viewBox="0 0 50 50" fill="none" xmlns="http://www.w3.org/2000/svg">
<path d="M47.6562 50H36.7188C35.8547 50 35.1562 49.3 35.1562 48.4375V1.5625C35.1562 0.7 35.8547 0 36.7188 0H47.6562C48.5203 0 49.2188 0.7 49.2188 1.5625V48.4375C49.2188 49.3 48.5203 50 47.6562 50ZM46.0938 3.125H38.2812V46.875H46.0938V3.125ZM30.4688 50H19.5312C18.6688 50 17.9688 49.3 17.9688 48.4375V26.5625C17.9688 25.7 18.6688 25 19.5312 25H30.4688C31.3328 25 32.0312 25.7 32.0312 26.5625V48.4375C32.0312 49.3 31.3328 50 30.4688 50ZM28.9062 28.125H21.0938V46.875H28.9062V28.125ZM13.2812 50H2.34375C1.48125 50 0.78125 49.3 0.78125 48.4375V17.1875C0.78125 16.325 1.48125 15.625 2.34375 15.625H13.2812C14.1437 15.625 14.8438 16.325 14.8438 17.1875V48.4375C14.8438 49.3 14.1437 50 13.2812 50ZM11.7188 18.75H3.90625V46.875H11.7188V18.75Z" fill="#ADADAD"/>
</svg>
