<svg width="28" height="28" viewBox="0 0 28 28" fill="none" xmlns="http://www.w3.org/2000/svg">
<g clip-path="url(#clip0_1914_6)">
<path d="M22.4368 5.5615C21.3306 3.85607 19.8158 2.45404 18.0301 1.48279C16.2444 0.511536 14.2443 0.00183831 12.2115 0C8.97411 0.00324223 5.87021 1.29061 3.58087 3.57963C1.29152 5.86865 0.0037062 8.97236 0 12.2098C0.0014446 14.2433 0.511132 16.2442 1.48272 18.0306C2.45432 19.817 3.857 21.3322 5.56325 22.4385C6.66944 24.1439 8.18419 25.546 9.96991 26.5172C11.7556 27.4885 13.7557 27.9982 15.7885 28C19.0259 27.9968 22.1298 26.7094 24.4191 24.4204C26.7085 22.1314 27.9963 19.0276 28 15.7902C27.9986 13.7567 27.4889 11.7558 26.5173 9.96942C25.5457 8.18303 24.143 6.6678 22.4368 5.5615ZM22.6695 12.2115C22.6667 14.9846 21.5641 17.6434 19.6036 19.6046C17.643 21.5658 14.9846 22.6693 12.2115 22.673C9.43763 22.6698 6.77833 21.5663 4.81707 19.6047C2.85581 17.6431 1.75278 14.9836 1.75 12.2098C1.75324 9.43634 2.85653 6.77748 4.81779 4.81655C6.77905 2.85562 9.43809 1.75278 12.2115 1.75C14.9844 1.75324 17.6429 2.85635 19.6035 4.81728C21.5641 6.77821 22.6667 9.43856 22.6695 12.2115ZM15.7885 26.25C13.4959 26.2508 11.2673 25.4934 9.45 24.0958C10.3528 24.3084 11.277 24.4176 12.2045 24.4212C15.4416 24.4171 18.5448 23.1291 20.8335 20.8398C23.1221 18.5505 24.4093 15.4468 24.4125 12.2098C24.4124 11.2808 24.3061 10.3548 24.0958 9.45C25.4936 11.2679 26.251 13.497 26.25 15.7902C26.2468 18.5637 25.1435 21.2225 23.1822 23.1834C21.221 25.1444 18.5619 26.2472 15.7885 26.25ZM11.3365 4.375V5.25H10.5C9.57174 5.25 8.6815 5.61875 8.02513 6.27513C7.36875 6.9315 7 7.82174 7 8.75C7 9.67826 7.36875 10.5685 8.02513 11.2249C8.6815 11.8813 9.57174 12.25 10.5 12.25H11.3365V16.625H10.9375C10.3576 16.6241 9.80176 16.3933 9.39173 15.9833C8.98169 15.5732 8.75093 15.0174 8.75 14.4375C8.75 14.2054 8.65781 13.9829 8.49372 13.8188C8.32962 13.6547 8.10706 13.5625 7.875 13.5625C7.64294 13.5625 7.42038 13.6547 7.25628 13.8188C7.09219 13.9829 7 14.2054 7 14.4375C7.00139 15.4814 7.41668 16.4821 8.1548 17.2202C8.89293 17.9583 9.89364 18.3736 10.9375 18.375H11.3365V20.125C11.3365 20.3571 11.4287 20.5796 11.5928 20.7437C11.7569 20.9078 11.9794 21 12.2115 21C12.4436 21 12.6661 20.9078 12.8302 20.7437C12.9943 20.5796 13.0865 20.3571 13.0865 20.125V18.375H13.5625C14.6064 18.3736 15.6071 17.9583 16.3452 17.2202C17.0833 16.4821 17.4986 15.4814 17.5 14.4375C17.4986 13.3936 17.0833 12.3929 16.3452 11.6548C15.6071 10.9167 14.6064 10.5014 13.5625 10.5H13.0865V7H14C14.4641 7 14.9092 7.18437 15.2374 7.51256C15.5656 7.84075 15.75 8.28587 15.75 8.75V9.625C15.75 9.85706 15.8422 10.0796 16.0063 10.2437C16.1704 10.4078 16.3929 10.5 16.625 10.5C16.8571 10.5 17.0796 10.4078 17.2437 10.2437C17.4078 10.0796 17.5 9.85706 17.5 9.625V8.75C17.5 7.82174 17.1313 6.9315 16.4749 6.27513C15.8185 5.61875 14.9283 5.25 14 5.25H13.0865V4.375C13.0865 4.14294 12.9943 3.92038 12.8302 3.75628C12.6661 3.59219 12.4436 3.5 12.2115 3.5C11.9794 3.5 11.7569 3.59219 11.5928 3.75628C11.4287 3.92038 11.3365 4.14294 11.3365 4.375ZM15.75 14.4375C15.7491 15.0174 15.5183 15.5732 15.1083 15.9833C14.6982 16.3933 14.1424 16.6241 13.5625 16.625H13.0865V12.25H13.5625C14.1424 12.2509 14.6982 12.4817 15.1083 12.8917C15.5183 13.3018 15.7491 13.8576 15.75 14.4375ZM11.3365 10.5H10.5C10.0359 10.5 9.59075 10.3156 9.26256 9.98744C8.93437 9.65925 8.75 9.21413 8.75 8.75C8.75 8.28587 8.93437 7.84075 9.26256 7.51256C9.59075 7.18437 10.0359 7 10.5 7H11.3365V10.5Z" fill="#ADADAD"/>
</g>
<defs>
<clipPath id="clip0_1914_6">
<rect width="28" height="28" fill="white"/>
</clipPath>
</defs>
</svg>
