<svg width="25" height="25" viewBox="0 0 25 25" fill="none" xmlns="http://www.w3.org/2000/svg">
<g clip-path="url(#clip0_1483_432)">
<path d="M22.6563 7.8125H18.75V9.375H22.6563V14.0625H17.1875V15.625H19.5313V17.2984C18.7948 17.4886 18.153 17.9408 17.7261 18.5703C17.2992 19.1998 17.1166 19.9634 17.2124 20.718C17.3083 21.4725 17.676 22.1662 18.2467 22.669C18.8174 23.1718 19.5519 23.4492 20.3125 23.4492C21.0731 23.4492 21.8076 23.1718 22.3783 22.669C22.949 22.1662 23.3168 21.4725 23.4126 20.718C23.5084 19.9634 23.3258 19.1998 22.8989 18.5703C22.472 17.9408 21.8302 17.4886 21.0938 17.2984V15.625H22.6563C23.0705 15.6244 23.4676 15.4596 23.7605 15.1667C24.0534 14.8738 24.2182 14.4767 24.2188 14.0625V9.375C24.2183 8.96075 24.0535 8.56359 23.7606 8.27067C23.4677 7.97775 23.0705 7.81298 22.6563 7.8125ZM21.875 20.3125C21.875 20.6215 21.7834 20.9236 21.6117 21.1806C21.44 21.4375 21.196 21.6378 20.9105 21.7561C20.6249 21.8743 20.3108 21.9053 20.0077 21.845C19.7046 21.7847 19.4262 21.6359 19.2077 21.4174C18.9891 21.1988 18.8403 20.9204 18.78 20.6173C18.7197 20.3142 18.7507 20.0001 18.8689 19.7146C18.9872 19.429 19.1875 19.185 19.4444 19.0133C19.7014 18.8416 20.0035 18.75 20.3125 18.75C20.7267 18.7506 21.1238 18.9154 21.4167 19.2083C21.7097 19.5012 21.8744 19.8983 21.875 20.3125Z" fill="#ADADAD"/>
<path d="M14.8438 4.6875H10.9375V6.25H14.8438V10.9375H9.37501V12.5H11.7188V17.2984C10.9823 17.4886 10.3405 17.9408 9.9136 18.5703C9.48671 19.1998 9.30408 19.9634 9.39991 20.718C9.49575 21.4725 9.86349 22.1662 10.4342 22.669C11.0049 23.1718 11.7394 23.4492 12.5 23.4492C13.2606 23.4492 13.9951 23.1718 14.5658 22.669C15.1365 22.1662 15.5043 21.4725 15.6001 20.718C15.6959 19.9634 15.5133 19.1998 15.0864 18.5703C14.6595 17.9408 14.0177 17.4886 13.2813 17.2984V12.5H14.8438C15.258 12.4995 15.6552 12.3348 15.9481 12.0418C16.241 11.7489 16.4058 11.3518 16.4063 10.9375V6.25C16.4058 5.83575 16.241 5.43859 15.9481 5.14567C15.6552 4.85275 15.258 4.68798 14.8438 4.6875ZM14.0625 20.3125C14.0625 20.6215 13.9709 20.9236 13.7992 21.1806C13.6275 21.4375 13.3835 21.6378 13.098 21.7561C12.8124 21.8743 12.4983 21.9053 12.1952 21.845C11.8921 21.7847 11.6137 21.6359 11.3952 21.4174C11.1766 21.1988 11.0278 20.9204 10.9675 20.6173C10.9072 20.3142 10.9382 20.0001 11.0564 19.7146C11.1747 19.429 11.375 19.185 11.6319 19.0133C11.8889 18.8416 12.191 18.75 12.5 18.75C12.9142 18.7506 13.3113 18.9154 13.6042 19.2083C13.8972 19.5012 14.0619 19.8983 14.0625 20.3125Z" fill="#ADADAD"/>
<path d="M7.03125 1.5625H2.34375C1.92948 1.56291 1.53229 1.72767 1.23935 2.0206C0.946417 2.31354 0.781664 2.71073 0.78125 3.125V7.8125C0.781664 8.22677 0.946417 8.62396 1.23935 8.9169C1.53229 9.20983 1.92948 9.37459 2.34375 9.375H3.90625V17.2984C3.1698 17.4886 2.52798 17.9408 2.10109 18.5703C1.67421 19.1998 1.49157 19.9634 1.58741 20.718C1.68325 21.4725 2.05099 22.1662 2.62169 22.669C3.1924 23.1718 3.9269 23.4492 4.6875 23.4492C5.4481 23.4492 6.1826 23.1718 6.75331 22.669C7.32401 22.1662 7.69175 21.4725 7.78759 20.718C7.88343 19.9634 7.70079 19.1998 7.27391 18.5703C6.84702 17.9408 6.2052 17.4886 5.46875 17.2984V9.375H7.03125C7.44552 9.37459 7.84271 9.20983 8.13565 8.9169C8.42858 8.62396 8.59334 8.22677 8.59375 7.8125V3.125C8.59334 2.71073 8.42858 2.31354 8.13565 2.0206C7.84271 1.72767 7.44552 1.56291 7.03125 1.5625ZM6.25 20.3125C6.25 20.6215 6.15836 20.9236 5.98667 21.1806C5.81498 21.4375 5.57095 21.6378 5.28544 21.7561C4.99993 21.8743 4.68577 21.9053 4.38267 21.845C4.07958 21.7847 3.80117 21.6359 3.58265 21.4174C3.36413 21.1988 3.21531 20.9204 3.15502 20.6173C3.09473 20.3142 3.12568 20.0001 3.24394 19.7146C3.3622 19.429 3.56247 19.185 3.81942 19.0133C4.07637 18.8416 4.37847 18.75 4.6875 18.75C5.10175 18.7505 5.49891 18.9152 5.79183 19.2082C6.08475 19.5011 6.24952 19.8982 6.25 20.3125ZM2.34375 7.8125V3.125H7.03125L7.03242 7.8125H2.34375Z" fill="#ADADAD"/>
</g>
<defs>
<clipPath id="clip0_1483_432">
<rect width="25" height="25" fill="white"/>
</clipPath>
</defs>
</svg>
