<svg width="19" height="19" viewBox="0 0 19 19" fill="none" xmlns="http://www.w3.org/2000/svg">
<path d="M17.7785 14.7501L11.0369 2.55111C10.7231 1.98347 10.1486 1.64453 9.50001 1.64453C8.85139 1.64453 8.2769 1.98343 7.96316 2.55111L1.2215 14.7501C0.91776 15.2997 0.926882 15.9507 1.24593 16.4916C1.56498 17.0325 2.13039 17.3554 2.75832 17.3554H16.2417C16.8696 17.3554 17.435 17.0325 17.7541 16.4916C18.0731 15.9507 18.0823 15.2997 17.7785 14.7501ZM17.1821 16.1542C16.9837 16.4905 16.6322 16.6913 16.2417 16.6913H2.75832C2.36783 16.6913 2.01625 16.4905 1.81784 16.1542C1.61943 15.8178 1.61377 15.413 1.80264 15.0713L8.54429 2.87233C8.73938 2.51931 9.09666 2.30857 9.49998 2.30857C9.90333 2.30857 10.2606 2.51931 10.4557 2.87229L17.1974 15.0713C17.3862 15.413 17.3806 15.8178 17.1821 16.1542Z" fill="white"/>
<path d="M10.2576 9.61361H9.73559L10.9828 7.83892C11.2637 7.4391 11.1671 6.88523 10.7672 6.6042C10.5736 6.46811 10.3385 6.41569 10.1053 6.45623C9.872 6.49691 9.6686 6.62605 9.53247 6.81973L7.30422 9.99029C7.11333 10.262 7.08977 10.6138 7.24285 10.9085C7.39596 11.2031 7.69733 11.3862 8.02938 11.3862H8.67999L7.27238 13.6972C7.01816 14.1145 7.15093 14.661 7.56829 14.9151C7.70736 14.9998 7.86658 15.0446 8.02889 15.0446C8.34088 15.0445 8.62404 14.8855 8.78627 14.6192L11.0146 10.961C11.181 10.6877 11.1871 10.3447 11.0304 10.0658C10.8737 9.78688 10.5776 9.61361 10.2576 9.61361ZM10.4474 10.6155L8.21919 14.2738C8.17844 14.3406 8.10728 14.3805 8.02878 14.3805C7.98789 14.3805 7.94917 14.3696 7.9137 14.348C7.80902 14.2842 7.77572 14.1472 7.83946 14.0426L9.55442 11.2269C9.61687 11.1244 9.61914 10.9961 9.56036 10.8915C9.50157 10.7869 9.39089 10.7221 9.27088 10.7221H8.02927C7.94599 10.7221 7.87039 10.6762 7.83202 10.6023C7.79365 10.5284 7.79955 10.4402 7.84743 10.372L10.0757 7.20148C10.1184 7.14078 10.1878 7.108 10.2581 7.10779C10.3024 7.10765 10.347 7.12051 10.3854 7.14749C10.4857 7.21795 10.5099 7.35687 10.4395 7.45714L8.82478 9.75469C8.75356 9.85608 8.74465 9.98868 8.80179 10.0986C8.8589 10.2086 8.97248 10.2776 9.09641 10.2776H10.2576C10.3378 10.2776 10.4121 10.321 10.4514 10.391C10.4907 10.4609 10.4892 10.547 10.4474 10.6155Z" fill="white"/>
</svg>
