<svg width="19" height="19" viewBox="0 0 19 19" fill="none" xmlns="http://www.w3.org/2000/svg">
<path d="M3.93652 2.45018C3.93652 2.60226 4.05978 2.72556 4.2119 2.72556H5.09311C5.24523 2.72556 5.36849 2.60226 5.36849 2.45018C5.36849 2.2981 5.24523 2.1748 5.09311 2.1748H4.2119C4.05978 2.1748 3.93652 2.2981 3.93652 2.45018Z" fill="white"/>
<path d="M5.36849 3.62548C5.36849 3.4734 5.24523 3.3501 5.09311 3.3501H4.2119C4.05978 3.3501 3.93652 3.4734 3.93652 3.62548C3.93652 3.77756 4.05978 3.90086 4.2119 3.90086H5.09311C5.24523 3.90086 5.36849 3.77756 5.36849 3.62548Z" fill="white"/>
<path d="M5.36849 4.80028C5.36849 4.64819 5.24523 4.5249 5.09311 4.5249H4.2119C4.05978 4.5249 3.93652 4.64819 3.93652 4.80028C3.93652 4.95236 4.05978 5.07565 4.2119 5.07565H5.09311C5.24523 5.07565 5.36849 4.95236 5.36849 4.80028Z" fill="white"/>
<path d="M5.36849 5.97509C5.36849 5.82301 5.24523 5.69971 5.09311 5.69971H4.2119C4.05978 5.69971 3.93652 5.82301 3.93652 5.97509C3.93652 6.12717 4.05978 6.25047 4.2119 6.25047H5.09311C5.24523 6.25047 5.36849 6.12717 5.36849 5.97509Z" fill="white"/>
<path d="M5.36849 9.49999C5.36849 9.34791 5.24523 9.22461 5.09311 9.22461H4.2119C4.05978 9.22461 3.93652 9.34791 3.93652 9.49999C3.93652 9.65207 4.05978 9.77537 4.2119 9.77537H5.09311C5.24523 9.77537 5.36849 9.65207 5.36849 9.49999Z" fill="white"/>
<path d="M5.36849 8.32518C5.36849 8.1731 5.24523 8.0498 5.09311 8.0498H4.2119C4.05978 8.0498 3.93652 8.1731 3.93652 8.32518C3.93652 8.47726 4.05978 8.60056 4.2119 8.60056H5.09311C5.24523 8.60056 5.36849 8.47726 5.36849 8.32518Z" fill="white"/>
<path d="M3.93652 7.14989C3.93652 7.30197 4.05978 7.42526 4.2119 7.42526H5.09311C5.24523 7.42526 5.36849 7.30197 5.36849 7.14989C5.36849 6.9978 5.24523 6.87451 5.09311 6.87451H4.2119C4.05978 6.87451 3.93652 6.9978 3.93652 7.14989Z" fill="white"/>
<path d="M13.6309 7.14989C13.6309 7.30197 13.7541 7.42526 13.9062 7.42526H14.7875C14.9396 7.42526 15.0628 7.30197 15.0628 7.14989C15.0628 6.9978 14.9396 6.87451 14.7875 6.87451H13.9062C13.7541 6.87451 13.6309 6.9978 13.6309 7.14989Z" fill="white"/>
<path d="M5.36849 10.6748C5.36849 10.5227 5.24523 10.3994 5.09311 10.3994H4.2119C4.05978 10.3994 3.93652 10.5227 3.93652 10.6748C3.93652 10.8269 4.05978 10.9502 4.2119 10.9502H5.09311C5.24523 10.9502 5.36849 10.8269 5.36849 10.6748Z" fill="white"/>
<path d="M5.36849 11.8501C5.36849 11.698 5.24523 11.5747 5.09311 11.5747H4.2119C4.05978 11.5747 3.93652 11.698 3.93652 11.8501C3.93652 12.0022 4.05978 12.1255 4.2119 12.1255H5.09311C5.24523 12.1255 5.36849 12.0022 5.36849 11.8501Z" fill="white"/>
<path d="M5.36849 14.1997C5.36849 14.0476 5.24523 13.9243 5.09311 13.9243H4.2119C4.05978 13.9243 3.93652 14.0476 3.93652 14.1997C3.93652 14.3518 4.05978 14.4751 4.2119 14.4751H5.09311C5.24523 14.4751 5.36849 14.3518 5.36849 14.1997Z" fill="white"/>
<path d="M5.36849 13.0249C5.36849 12.8728 5.24523 12.7495 5.09311 12.7495H4.2119C4.05978 12.7495 3.93652 12.8728 3.93652 13.0249C3.93652 13.177 4.05978 13.3003 4.2119 13.3003H5.09311C5.24523 13.3003 5.36849 13.177 5.36849 13.0249Z" fill="white"/>
<path d="M13.6309 9.49999C13.6309 9.65207 13.7541 9.77537 13.9062 9.77537H14.7875C14.9396 9.77537 15.0628 9.65207 15.0628 9.49999C15.0628 9.34791 14.9396 9.22461 14.7875 9.22461H13.9062C13.7541 9.22461 13.6309 9.34791 13.6309 9.49999Z" fill="white"/>
<path d="M13.6309 8.32518C13.6309 8.47726 13.7541 8.60056 13.9062 8.60056H14.7875C14.9396 8.60056 15.0628 8.47726 15.0628 8.32518C15.0628 8.1731 14.9396 8.0498 14.7875 8.0498H13.9062C13.7541 8.0498 13.6309 8.1731 13.6309 8.32518Z" fill="white"/>
<path d="M13.6309 10.6748C13.6309 10.8269 13.7541 10.9502 13.9062 10.9502H14.7875C14.9396 10.9502 15.0628 10.8269 15.0628 10.6748C15.0628 10.5227 14.9396 10.3994 14.7875 10.3994H13.9062C13.7541 10.3994 13.6309 10.5227 13.6309 10.6748Z" fill="white"/>
<path d="M13.6309 11.8501C13.6309 12.0022 13.7541 12.1255 13.9062 12.1255H14.7875C14.9396 12.1255 15.0628 12.0022 15.0628 11.8501C15.0628 11.698 14.9396 11.5747 14.7875 11.5747H13.9062C13.7541 11.5747 13.6309 11.698 13.6309 11.8501Z" fill="white"/>
<path d="M13.6309 14.1997C13.6309 14.3518 13.7541 14.4751 13.9062 14.4751H14.7875C14.9396 14.4751 15.0628 14.3518 15.0628 14.1997C15.0628 14.0476 14.9396 13.9243 14.7875 13.9243H13.9062C13.7541 13.9243 13.6309 14.0476 13.6309 14.1997Z" fill="white"/>
<path d="M13.6309 13.0249C13.6309 13.177 13.7541 13.3003 13.9062 13.3003H14.7875C14.9396 13.3003 15.0628 13.177 15.0628 13.0249C15.0628 12.8728 14.9396 12.7495 14.7875 12.7495H13.9062C13.7541 12.7495 13.6309 12.8728 13.6309 13.0249Z" fill="white"/>
<path d="M13.6309 2.45018C13.6309 2.60226 13.7541 2.72556 13.9062 2.72556H14.7875C14.9396 2.72556 15.0628 2.60226 15.0628 2.45018C15.0628 2.2981 14.9396 2.1748 14.7875 2.1748H13.9062C13.7541 2.1748 13.6309 2.2981 13.6309 2.45018Z" fill="white"/>
<path d="M5.36849 16.5498C5.36849 16.3977 5.24523 16.2744 5.09311 16.2744H4.2119C4.05978 16.2744 3.93652 16.3977 3.93652 16.5498C3.93652 16.7019 4.05978 16.8252 4.2119 16.8252H5.09311C5.24523 16.8252 5.36849 16.7019 5.36849 16.5498Z" fill="white"/>
<path d="M5.36849 15.3745C5.36849 15.2224 5.24523 15.0991 5.09311 15.0991H4.2119C4.05978 15.0991 3.93652 15.2224 3.93652 15.3745C3.93652 15.5266 4.05978 15.6499 4.2119 15.6499H5.09311C5.24523 15.6499 5.36849 15.5266 5.36849 15.3745Z" fill="white"/>
<path d="M13.6309 16.5498C13.6309 16.7019 13.7541 16.8252 13.9062 16.8252H14.7875C14.9396 16.8252 15.0628 16.7019 15.0628 16.5498C15.0628 16.3977 14.9396 16.2744 14.7875 16.2744H13.9062C13.7541 16.2744 13.6309 16.3977 13.6309 16.5498Z" fill="white"/>
<path d="M13.6309 15.3745C13.6309 15.5266 13.7541 15.6499 13.9062 15.6499H14.7875C14.9396 15.6499 15.0628 15.5266 15.0628 15.3745C15.0628 15.2224 14.9396 15.0991 14.7875 15.0991H13.9062C13.7541 15.0991 13.6309 15.2224 13.6309 15.3745Z" fill="white"/>
<path d="M13.6309 3.62548C13.6309 3.77756 13.7541 3.90086 13.9062 3.90086H14.7875C14.9396 3.90086 15.0628 3.77756 15.0628 3.62548C15.0628 3.4734 14.9396 3.3501 14.7875 3.3501H13.9062C13.7541 3.3501 13.6309 3.4734 13.6309 3.62548Z" fill="white"/>
<path d="M13.6309 4.80028C13.6309 4.95236 13.7541 5.07565 13.9062 5.07565H14.7875C14.9396 5.07565 15.0628 4.95236 15.0628 4.80028C15.0628 4.64819 14.9396 4.5249 14.7875 4.5249H13.9062C13.7541 4.5249 13.6309 4.64819 13.6309 4.80028Z" fill="white"/>
<path d="M13.6309 5.97509C13.6309 6.12717 13.7541 6.25047 13.9062 6.25047H14.7875C14.9396 6.25047 15.0628 6.12717 15.0628 5.97509C15.0628 5.82301 14.9396 5.69971 14.7875 5.69971H13.9062C13.7541 5.69971 13.6309 5.82301 13.6309 5.97509Z" fill="white"/>
<path d="M2.7627 1.56911V17.4309C2.7627 17.7447 3.01799 18 3.33181 18H15.6688C15.9826 18 16.2379 17.7447 16.2379 17.4309V1.56911C16.2379 1.25529 15.9826 1 15.6688 1H3.33181C3.01799 1 2.7627 1.25529 2.7627 1.56911ZM15.6688 1.55076C15.6789 1.55076 15.6871 1.55898 15.6871 1.56911V17.4309C15.6871 17.441 15.6789 17.4492 15.6688 17.4492H3.33181C3.32171 17.4492 3.31345 17.441 3.31345 17.4309V1.56911C3.31345 1.55898 3.32171 1.55076 3.33181 1.55076H15.6688Z" fill="white"/>
<path d="M5.99316 7.44411V16.2562C5.99316 16.57 6.24846 16.8253 6.56228 16.8253H12.437C12.7508 16.8253 13.0061 16.57 13.0061 16.2562V7.44411C13.0061 7.13029 12.7508 6.875 12.437 6.875H6.56228C6.24846 6.875 5.99316 7.13029 5.99316 7.44411ZM12.437 7.42576C12.4471 7.42576 12.4554 7.43398 12.4554 7.44411V16.2562C12.4554 16.2663 12.4471 16.2745 12.437 16.2745H6.56228C6.55218 16.2745 6.54392 16.2663 6.54392 16.2562V7.44411C6.54392 7.43398 6.55218 7.42576 6.56228 7.42576H12.437Z" fill="white"/>
<path d="M5.99316 2.74392V5.68128C5.99316 5.9951 6.24846 6.2504 6.56228 6.2504H12.437C12.7508 6.2504 13.0061 5.9951 13.0061 5.68128V2.74392C13.0061 2.4301 12.7508 2.1748 12.437 2.1748H6.56228C6.24846 2.1748 5.99316 2.4301 5.99316 2.74392ZM12.437 2.72556C12.4471 2.72556 12.4554 2.73379 12.4554 2.74392V5.68128C12.4554 5.69142 12.4471 5.69964 12.437 5.69964H6.56228C6.55218 5.69964 6.54392 5.69142 6.54392 5.68128V2.74392C6.54392 2.73379 6.55218 2.72556 6.56228 2.72556H12.437Z" fill="white"/>
</svg>
