<svg width="17" height="17" viewBox="0 0 17 17" fill="none" xmlns="http://www.w3.org/2000/svg">
<path d="M16.7249 4.03867H13.3936C13.4334 4.00404 13.4726 3.96845 13.5102 3.9308C13.9346 3.50649 14.1682 2.94234 14.1682 2.34229C14.1682 1.74221 13.9346 1.17806 13.5102 0.753723C13.0859 0.329387 12.5217 0.0957031 11.9216 0.0957031C11.3234 0.0957031 10.7607 0.328059 10.3369 0.750037C9.84247 1.21116 8.96879 2.70142 8.49997 3.6488C8.03111 2.70142 7.15746 1.2112 6.66307 0.750037C6.23917 0.328025 5.67657 0.0957031 5.07822 0.0957031C4.47814 0.0957031 3.91398 0.329387 3.48965 0.753723C3.06531 1.17806 2.83163 1.74221 2.83163 2.34229C2.83163 2.94234 3.06535 3.50653 3.48968 3.9308C3.52733 3.96845 3.56648 4.00408 3.60626 4.03867H0.275055C0.12315 4.03867 0 4.16182 0 4.31373V7.41507C0 7.56697 0.12315 7.69012 0.275055 7.69012H1.12894V16.6292C1.12894 16.7811 1.25209 16.9043 1.40399 16.9043H15.5959C15.7478 16.9043 15.871 16.7811 15.871 16.6292V7.69012H16.725C16.8769 7.69012 17 7.56697 17 7.41507V4.31373C17 4.16182 16.8769 4.03867 16.7249 4.03867ZM13.4754 3.02448C13.3917 3.21494 13.2728 3.39025 13.1212 3.54176C12.8012 3.86183 12.3756 4.03828 11.9231 4.03857C11.9227 4.03857 11.9222 4.03864 11.9217 4.03864H10.2843C10.6114 3.3787 11.2262 2.34525 11.5115 2.08122C11.5141 2.07879 11.5167 2.07634 11.5192 2.07381C11.968 1.62507 12.6981 1.62507 13.1468 2.07381C13.3993 2.32622 13.5177 2.67117 13.4754 3.02448ZM3.52454 3.02455C3.48221 2.6712 3.60068 2.32622 3.85302 2.07385C4.30176 1.62511 5.03197 1.62514 5.48067 2.07385C5.48316 2.07637 5.48572 2.07883 5.48838 2.08125C5.77372 2.34528 6.38848 3.3787 6.71563 4.03867H5.07815C5.07769 4.03867 5.07722 4.03861 5.07676 4.03861C4.62423 4.03828 4.19873 3.86183 3.87866 3.54179C3.72712 3.39025 3.60825 3.21497 3.52454 3.02455ZM1.67905 16.3542V7.69012H6.86674V16.3542H1.67905ZM6.86677 7.14001H0.550109V4.58878H6.8668L6.86677 7.14001ZM5.866 1.68122C5.23016 1.04913 4.2153 1.02433 3.54918 1.60591C3.63103 1.43631 3.74153 1.27976 3.87862 1.14266C4.19907 0.822254 4.62506 0.645779 5.07819 0.645779C5.53128 0.645779 5.9573 0.822254 6.27772 1.14266C6.28021 1.14519 6.28283 1.14764 6.28542 1.15007C6.7408 1.57138 7.6577 3.15849 8.07819 4.03867H7.32378C7.03129 3.39181 6.27439 2.06325 5.866 1.68122ZM9.58305 16.3542H7.41685V7.69012H9.58305V16.3542ZM9.58305 7.14001H7.41685V4.58878H9.58305V7.14001ZM8.92165 4.03867C9.34213 3.15853 10.259 1.57138 10.7144 1.15007C10.717 1.14764 10.7196 1.14519 10.7221 1.14266C11.0425 0.822254 11.4685 0.645779 11.9216 0.645779C12.3748 0.645779 12.8008 0.822254 13.1212 1.14266C13.2583 1.27976 13.3688 1.43631 13.4507 1.60591C12.7845 1.02433 11.7697 1.04913 11.1338 1.68125C10.7254 2.06332 9.96854 3.39184 9.67605 4.03867H8.92165ZM10.1331 16.3542V7.69012H15.3208V16.3542H10.1331ZM10.1331 7.14001V4.58878H16.4499V7.14001H10.1331Z" fill="white"/>
</svg>
