<svg width="19" height="19" viewBox="0 0 19 19" fill="none" xmlns="http://www.w3.org/2000/svg">
<path d="M9.73526 6.21575C9.73526 6.08551 9.62967 5.97995 9.49947 5.97995C9.36926 5.97995 9.26367 6.08551 9.26367 6.21575C9.26367 6.46822 9.40719 6.87636 10.2963 6.94425V7.51611C10.2963 7.66292 10.4151 7.78174 10.562 7.78174C10.7088 7.78174 10.8276 7.66292 10.8276 7.51611V6.93857C11.4869 6.86095 11.8603 6.48591 11.8603 5.88034C11.8603 5.43385 11.6713 4.911 10.8276 4.8209V3.78591C11.026 3.81609 11.1195 3.87716 11.1604 3.91822C11.2078 3.96572 11.2118 4.01031 11.212 4.01966C11.2037 4.14546 11.2963 4.2565 11.4229 4.26972C11.5549 4.28165 11.6683 4.18905 11.6818 4.05961C11.6844 4.03496 11.7015 3.8137 11.5189 3.61111C11.3705 3.44658 11.1367 3.34832 10.8276 3.31284V2.73486C10.8276 2.58803 10.7088 2.46924 10.562 2.46924C10.4151 2.46924 10.2963 2.58803 10.2963 2.73486V3.30896C9.39003 3.39287 9.26367 3.91211 9.26367 4.37064C9.26367 4.90645 9.61212 5.20549 10.2963 5.26497V6.47117C10.0002 6.4441 9.73526 6.36811 9.73526 6.21575ZM11.3887 5.88034C11.3887 6.02529 11.3882 6.38089 10.8276 6.46512V5.29413C11.2245 5.34351 11.3887 5.51928 11.3887 5.88034ZM9.73526 4.37064C9.73526 4.11016 9.73571 3.84204 10.2963 3.78071V4.79396C9.73571 4.73884 9.73526 4.50416 9.73526 4.37064Z" fill="white"/>
<path d="M17.1995 11.3776C16.9656 11.0362 16.5417 10.6754 16.1134 10.7857C15.6465 10.9055 15.2279 11.375 14.743 11.9185C14.1687 12.5623 13.5181 13.292 12.7021 13.5288C11.114 13.9895 9.11485 13.6544 8.49254 13.5293C8.42614 13.4232 8.44013 13.0801 8.5011 13.0142C8.63651 12.9649 8.95584 13.0017 9.29252 13.0409C9.87177 13.1078 10.6655 13.1996 11.5685 13.0256C11.7716 12.9867 11.9859 12.7924 11.9791 12.3636C11.9698 11.7945 11.5407 10.927 10.6155 10.7805C10.1747 10.7107 9.00435 10.525 7.4399 10.435C6.81475 10.3963 5.78468 11.1862 5.43942 11.4622H1.79667C1.64752 11.4622 1.52637 11.5833 1.52637 11.7325V15.1584C1.52637 15.3075 1.64752 15.4287 1.79667 15.4287H4.49728C4.90116 15.7428 6.78649 17.1744 7.98852 17.4761C8.77634 17.6737 9.77293 17.881 10.7709 17.881C11.5052 17.881 12.2404 17.7687 12.8935 17.4579C14.452 16.7161 16.1498 14.2845 17.0618 12.9781C17.1697 12.824 17.2646 12.6876 17.3453 12.575C17.5993 12.2199 17.4366 11.7236 17.1995 11.3776ZM2.06697 12.0028H4.1624V14.8881H2.06697V12.0028ZM16.9059 12.2606C16.8242 12.3747 16.728 12.5127 16.619 12.6689C15.7983 13.844 14.0906 16.2896 12.6613 16.9703C11.2777 17.6276 9.40693 17.2748 8.12006 16.9521C6.90995 16.6484 4.78001 14.9638 4.75876 14.9469C4.75414 14.9433 4.74827 14.9419 4.74346 14.9385V12.0028H5.53513C5.59765 12.0028 5.65835 11.981 5.70659 11.9413C6.20931 11.5283 7.07026 10.9667 7.40877 10.9745C8.94623 11.063 10.0974 11.2456 10.5309 11.3143C11.0214 11.3919 11.2497 11.7563 11.342 11.9667C11.4541 12.222 11.4489 12.4285 11.425 12.5026C10.6201 12.651 9.91977 12.5693 9.35452 12.5042C8.90006 12.4518 8.57244 12.4137 8.31667 12.5063C8.00201 12.6207 7.88787 13.0354 7.91436 13.396C7.94105 13.7566 8.10579 14.0022 8.35505 14.0531C8.97218 14.1789 11.1205 14.5503 12.8525 14.0476C13.818 13.7677 14.5544 12.9418 15.1461 12.2782C15.5544 11.8204 15.9402 11.388 16.2475 11.3091C16.3383 11.2866 16.5627 11.4038 16.7536 11.6829C16.9269 11.9359 16.9669 12.1753 16.9059 12.2606Z" fill="white"/>
<path d="M10.5625 9.08789C12.763 9.08789 14.5469 7.30403 14.5469 5.10352C14.5469 2.90302 12.763 1.11914 10.5625 1.11914C8.36198 1.11914 6.57812 2.90302 6.57812 5.10352C6.57812 7.30403 8.36198 9.08789 10.5625 9.08789ZM10.5625 1.65039C12.4666 1.65039 14.0156 3.19946 14.0156 5.10352C14.0156 7.00759 12.4666 8.55664 10.5625 8.55664C8.65845 8.55664 7.10938 7.00759 7.10938 5.10352C7.10938 3.19946 8.65845 1.65039 10.5625 1.65039Z" fill="white"/>
</svg>
