<svg width="19" height="19" viewBox="0 0 19 19" fill="none" xmlns="http://www.w3.org/2000/svg">
<path d="M9.50021 6.11084C7.94445 6.11084 6.67871 7.37654 6.67871 8.93234C6.67871 10.4881 7.94445 11.7538 9.50021 11.7538C11.056 11.7538 12.3217 10.4881 12.3217 8.93234C12.3217 7.37654 11.056 6.11084 9.50021 6.11084ZM9.50021 11.2215C8.238 11.2215 7.21106 10.1946 7.21106 8.93231C7.21106 7.67006 8.23796 6.64315 9.50021 6.64315C10.7625 6.64315 11.7894 7.67006 11.7894 8.93231C11.7894 10.1946 10.7624 11.2215 9.50021 11.2215Z" fill="white"/>
<path d="M9.50008 8.66602C9.33373 8.66602 9.19839 8.53069 9.19839 8.36434C9.19839 8.19799 9.33373 8.06265 9.50008 8.06265H10.0679C10.2149 8.06265 10.3341 7.94352 10.3341 7.79646C10.3341 7.64944 10.2149 7.53028 10.0679 7.53028H9.76622V7.22859C9.76622 7.08157 9.64707 6.9624 9.50004 6.9624C9.35302 6.9624 9.23386 7.08154 9.23386 7.22859V7.57407C8.90415 7.68543 8.66602 7.99748 8.66602 8.3643C8.66602 8.8242 9.04015 9.19833 9.50004 9.19833C9.66639 9.19833 9.80173 9.33367 9.80173 9.50002C9.80173 9.66636 9.66639 9.8017 9.50004 9.8017H8.93221C8.78521 9.8017 8.66602 9.92083 8.66602 10.0679C8.66602 10.2149 8.78518 10.3341 8.93221 10.3341H9.23388V10.6358C9.23388 10.7828 9.35305 10.902 9.50008 10.902C9.6471 10.902 9.76626 10.7828 9.76626 10.6358V10.2903C10.096 10.1789 10.3341 9.86688 10.3341 9.50005C10.3341 9.04015 9.95997 8.66602 9.50008 8.66602Z" fill="white"/>
<path d="M17.8947 7.30036L16.8643 6.51873V4.38928C16.8643 4.24226 16.7452 4.12309 16.5981 4.12309H13.7065L10.0041 1.31437C9.70732 1.08922 9.29275 1.08922 8.99598 1.31437L5.29356 4.12312H2.4019C2.25491 4.12312 2.13571 4.24226 2.13571 4.38931V6.51876L1.10529 7.30036C1.03971 7.35023 1 7.43005 1 7.51246V17.7337C1 17.8808 1.11917 17.9999 1.26619 17.9999H12.6232C12.7702 17.9999 12.8894 17.8808 12.8894 17.7337C12.8894 17.5867 12.7702 17.4676 12.6232 17.4676H1.53235V7.99095L16.8002 17.4676H14.0428C13.8958 17.4676 13.7766 17.5867 13.7766 17.7338C13.7766 17.8808 13.8958 18 14.0428 18H17.733C17.8364 18 17.9321 17.9386 17.9755 17.845C17.9914 17.8104 18 17.7719 18 17.7338V7.51246C18 7.43005 17.9603 7.35023 17.8947 7.30036ZM2.13571 7.73888L1.73555 7.49048L2.13571 7.18694V7.73888ZM16.8643 7.18694L17.2645 7.49048L16.8643 7.73888V7.18694ZM3.27139 6.94462V8.44381L2.66806 8.06931V4.65547H8.08037C8.22736 4.65547 8.34656 4.53634 8.34656 4.38928C8.34656 4.24222 8.22739 4.12309 8.08037 4.12309H6.17438L9.31768 1.73854C9.42503 1.65709 9.57494 1.65709 9.68232 1.73854L12.8256 4.12309H9.5C9.35301 4.12309 9.23381 4.24222 9.23381 4.38928C9.23381 4.53634 9.35298 4.65547 9.5 4.65547H16.3319V8.06931L15.7286 8.44381V6.94462C15.7286 6.7976 15.6094 6.67843 15.4624 6.67843C14.8264 6.67843 14.309 6.16103 14.309 5.52499C14.309 5.37797 14.1898 5.2588 14.0428 5.2588H4.95721C4.81022 5.2588 4.69103 5.37793 4.69103 5.52499C4.69103 6.16103 4.17359 6.67843 3.53758 6.67843C3.39059 6.67843 3.27139 6.79757 3.27139 6.94462ZM3.80377 8.77425V7.18976C4.52056 7.07558 5.0882 6.50794 5.20242 5.79115H13.7976C13.9118 6.50794 14.4794 7.07558 15.1963 7.18976V8.77425L9.50003 12.3099L3.80377 8.77425ZM17.4677 17.2553L10.0047 12.6231L17.4677 7.99095V17.2553Z" fill="white"/>
<path d="M13.4752 1.56784H13.1735V1.26619C13.1735 1.11917 13.0543 1 12.9073 1C12.7603 1 12.6411 1.11913 12.6411 1.26619V1.56787H12.3394C12.1924 1.56787 12.0732 1.68701 12.0732 1.83406C12.0732 1.98109 12.1924 2.10025 12.3394 2.10025H12.6411V2.40194C12.6411 2.54896 12.7603 2.66813 12.9073 2.66813C13.0543 2.66813 13.1735 2.54899 13.1735 2.40194V2.10025H13.4752C13.6222 2.10025 13.7414 1.98112 13.7414 1.83406C13.7414 1.68701 13.6222 1.56784 13.4752 1.56784Z" fill="white"/>
<path d="M4.38924 2.41944H4.08756V2.11775C4.08756 1.97073 3.96839 1.85156 3.82137 1.85156C3.67434 1.85156 3.55518 1.9707 3.55518 2.11775V2.41944H3.25349C3.1065 2.41944 2.9873 2.53857 2.9873 2.68562C2.9873 2.83265 3.10647 2.95181 3.25349 2.95181H3.55518V3.2535C3.55518 3.40052 3.67434 3.51969 3.82137 3.51969C3.96839 3.51969 4.08756 3.40055 4.08756 3.2535V2.95181H4.38924C4.53623 2.95181 4.65543 2.83268 4.65543 2.68562C4.65543 2.53857 4.53626 2.41944 4.38924 2.41944Z" fill="white"/>
<path d="M15.7457 2.41944H15.444V2.11775C15.444 1.97073 15.3248 1.85156 15.1778 1.85156C15.0308 1.85156 14.9116 1.9707 14.9116 2.11775V2.41944H14.61C14.463 2.41944 14.3438 2.53857 14.3438 2.68562C14.3438 2.83265 14.463 2.95181 14.61 2.95181H14.9116V3.2535C14.9116 3.40052 15.0308 3.51969 15.1778 3.51969C15.3248 3.51969 15.444 3.40055 15.444 3.2535V2.95181H15.7457C15.8927 2.95181 16.0119 2.83268 16.0119 2.68562C16.0119 2.53857 15.8927 2.41944 15.7457 2.41944Z" fill="white"/>
<path d="M6.66072 1.56784H6.35904V1.26619C6.35904 1.11917 6.23987 1 6.09285 1C5.94583 1 5.82666 1.11913 5.82666 1.26619V1.56787H5.52498C5.37799 1.56787 5.25879 1.68701 5.25879 1.83406C5.25879 1.98109 5.37796 2.10025 5.52498 2.10025H5.82666V2.40194C5.82666 2.54896 5.94583 2.66813 6.09285 2.66813C6.23987 2.66813 6.35904 2.54899 6.35904 2.40194V2.10025H6.66072C6.80771 2.10025 6.92691 1.98112 6.92691 1.83406C6.92688 1.68701 6.80771 1.56784 6.66072 1.56784Z" fill="white"/>
</svg>
