<svg width="19" height="19" viewBox="0 0 19 19" fill="none" xmlns="http://www.w3.org/2000/svg">
<path d="M15.0564 13.9452L10.8015 13.0053C10.8 12.9433 10.7969 13.0043 10.7969 13.0043C9.68107 12.6203 8.91189 11.6457 8.36071 10.999C8.21573 10.8293 8.02901 10.6208 7.92203 10.5128C7.6513 10.2401 7.19537 10.1971 6.90141 10.4083C6.61844 10.6116 6.53896 11.093 6.70368 11.4224C6.70968 11.4344 6.77815 11.4457 6.78591 11.4564C6.83867 11.5299 8.09501 13.2652 9.63259 14.0339C9.75633 14.0959 9.90631 14.0454 9.96806 13.9222C10.0298 13.7987 9.97957 13.5867 9.85607 13.525C8.50848 12.8513 7.33862 11.24 7.20463 11.0588C7.14189 10.9163 7.21787 10.9025 7.25487 10.8763C7.32562 10.8253 7.44935 10.8085 7.56708 10.9268C7.66082 11.0213 7.78031 11.1613 7.91854 11.3235C8.47398 11.9751 9.40363 13.0658 10.665 13.4875C10.6812 13.493 10.6977 13.4967 10.7145 13.4987L14.9387 14.4929C16.0034 14.7588 16.4991 15.176 16.4991 15.9384V16.4384H8.40449L8.15477 16.0002H15.7491C15.8874 16.0002 15.9991 15.8265 15.9991 15.6885C15.9991 15.5505 15.8874 15.4385 15.7491 15.4385H2.56239V12.1561C3.24156 12.4496 4.6779 12.8793 6.36347 11.9689C6.48495 11.9034 6.53021 11.69 6.46471 11.5685C6.39921 11.4472 6.2475 11.4012 6.12599 11.4672C4.13998 12.5396 2.45368 11.5205 2.38343 11.4772C2.30668 11.4287 2.20896 11.426 2.12972 11.4702C2.05022 11.5142 2.00098 11.598 2.00098 11.6889V16.7501C2.00098 16.8881 2.1127 17.0001 2.2507 17.0001H7.25013C7.34486 17.0001 7.4316 16.9466 7.47384 16.8618L7.75005 16.3091L8.02626 16.8618C8.06876 16.9466 8.15524 17.0001 8.24997 17.0001H16.749C16.8872 17.0001 16.9989 16.8881 16.9989 16.7501V15.9384C16.999 14.938 16.3468 14.2679 15.0564 13.9452ZM7.09563 16.4384H2.56239V16.0001H7.34559L7.09563 16.4384Z" fill="white"/>
<path d="M5.25035 8.49925H10.7497C13.2746 8.49925 15.002 7.96505 15.0882 7.93758C16.3563 7.45464 16.999 6.55024 16.999 5.24964C16.999 3.93779 16.3556 3.03315 15.0737 2.55669C15.0007 2.53393 13.2587 2 10.7497 2H5.25035C3.45856 2 2.00098 3.45758 2.00098 5.24961C2.00098 7.0414 3.45856 8.49925 5.25035 8.49925ZM5.25035 2.56168H10.7497C13.1777 2.56168 14.908 3.09037 14.9122 3.02964C15.9801 3.42709 16.4373 4.15301 16.4373 5.24964C16.4373 6.33675 15.9793 7.06293 14.9245 7.46537C14.9075 7.40914 13.1927 7.93757 10.7497 7.93757H5.25035C3.73427 7.93757 2.56239 6.76569 2.56239 5.24961C2.56239 3.73356 3.73427 2.56168 5.25035 2.56168Z" fill="white"/>
<path d="M5.25071 7.49944H11.25C11.3883 7.49944 11.5 7.38745 11.5 7.24948C11.5 7.11151 11.3883 6.93779 11.25 6.93779H9.00027C8.72457 6.93779 8.50032 6.71358 8.50032 6.43784V4.0616C8.50032 3.78589 8.72454 3.56165 9.00027 3.56165H11.25C11.3883 3.56165 11.5 3.38793 11.5 3.24996C11.5 3.11199 11.3883 3 11.25 3H5.25071C3.98937 3 3.00098 3.98813 3.00098 5.24974C3.00098 6.51135 3.98937 7.49944 5.25071 7.49944ZM5.25071 3.56165H8.13963C8.05339 3.70938 8.0004 3.87861 8.0004 4.0616V6.43784C8.0004 6.62081 8.05339 6.79004 8.13963 6.93779H5.25071C4.39081 6.93779 3.56266 6.34511 3.56266 5.24974C3.56266 4.26858 4.26959 3.56165 5.25071 3.56165Z" fill="white"/>
<path d="M12.2768 6.99957C12.4304 6.99957 12.5546 6.88758 12.5546 6.74961V3.74996C12.5546 3.61199 12.4304 3.5 12.2768 3.5C12.1235 3.5 11.999 3.61199 11.999 3.74996V6.74961C11.999 6.88758 12.1235 6.99957 12.2768 6.99957Z" fill="white"/>
<path d="M9.5 4.24996V6.24974C9.5 6.38771 9.62445 6.4997 9.77778 6.4997C9.9314 6.4997 10.0556 6.38771 10.0556 6.24974V4.24996C10.0556 4.11199 9.9314 4 9.77778 4C9.62445 4 9.5 4.11199 9.5 4.24996Z" fill="white"/>
<path d="M10.499 4.24996V6.24974C10.499 6.38771 10.6235 6.4997 10.7768 6.4997C10.9304 6.4997 11.0546 6.38771 11.0546 6.24974V4.24996C11.0546 4.11199 10.9304 4 10.7768 4C10.6235 4 10.499 4.11199 10.499 4.24996Z" fill="white"/>
</svg>
