<svg width="19" height="19" viewBox="0 0 19 19" fill="none" xmlns="http://www.w3.org/2000/svg">
<path d="M13.1926 17.1051C13.9525 17.1051 14.5642 16.8425 15.0615 16.3019C15.0646 16.2989 15.0708 16.2927 15.0739 16.2896C15.2499 16.0764 15.4507 15.8849 15.6608 15.681C15.8029 15.542 15.9511 15.3999 16.0902 15.2548C16.7419 14.5752 16.7389 13.7133 16.084 13.0553L14.2522 11.2235C13.9402 10.8992 13.5664 10.7262 13.1741 10.7262C12.7818 10.7262 12.408 10.8961 12.0867 11.2174L10.9963 12.3078C10.8974 12.2491 10.7955 12.1997 10.6967 12.1502C10.5762 12.0885 10.4619 12.0329 10.3599 11.968C9.36526 11.3378 8.46326 10.513 7.60141 9.4535C7.16585 8.90365 6.87548 8.44029 6.6716 7.96766C6.9558 7.70818 7.22454 7.43943 7.48094 7.17686C7.57361 7.0811 7.66628 6.98843 7.76204 6.89267C8.09257 6.56214 8.26865 6.1791 8.26865 5.78988C8.26865 5.40065 8.09257 5.0207 7.76204 4.68708L6.85386 3.7789C6.74883 3.67387 6.6438 3.56884 6.54186 3.46381C6.34107 3.25685 6.13102 3.0437 5.92405 2.85218C5.61206 2.54018 5.24137 2.37646 4.85215 2.37646C4.46293 2.37646 4.08915 2.54018 3.7648 2.85218L2.62185 3.99204C2.20791 4.40598 1.97314 4.91258 1.92063 5.49641C1.86194 6.22543 1.99477 7.00079 2.34383 7.93986C2.87824 9.38863 3.68448 10.7324 4.87995 12.1688C6.33181 13.9048 8.08021 15.2733 10.0758 16.2371C10.8357 16.5985 11.852 17.0217 12.9826 17.0958C13.0536 17.102 13.1247 17.1051 13.1926 17.1051ZM5.46069 11.6838C4.32392 10.3153 3.55783 9.03957 3.05431 7.6742C2.74232 6.83398 2.62494 6.1791 2.67436 5.5582C2.70834 5.15353 2.86588 4.81373 3.15625 4.52645L4.28994 3.39277C4.46601 3.22287 4.66063 3.13328 4.84906 3.13328C5.0344 3.13328 5.21975 3.21978 5.39582 3.39585C5.5997 3.58738 5.79431 3.78508 5.99819 3.99513C6.10322 4.10325 6.20824 4.21137 6.31636 4.31639L7.22454 5.22458C7.41298 5.41301 7.50874 5.60453 7.50874 5.78988C7.50874 5.97522 7.41298 6.16674 7.22454 6.35517C7.12878 6.45093 7.03302 6.54669 6.94035 6.64246C6.65925 6.92974 6.3905 7.19849 6.10013 7.46106C6.09395 7.46723 6.09086 7.47032 6.08468 7.4765C5.83138 7.7298 5.86845 7.97384 5.93023 8.15918C5.93332 8.16845 5.93641 8.17463 5.9395 8.1839C6.17426 8.74919 6.5017 9.2867 7.00831 9.92614C7.92576 11.0536 8.88646 11.9309 9.94909 12.6043C10.0819 12.6877 10.2179 12.7588 10.3538 12.8237C10.4742 12.8854 10.5885 12.941 10.6905 13.0059C10.7028 13.0121 10.7121 13.0183 10.7245 13.0245C10.8264 13.0739 10.9222 13.0986 11.021 13.0986C11.2681 13.0986 11.4257 12.941 11.4782 12.8885L12.6181 11.7487C12.7941 11.5726 12.9856 11.4799 13.171 11.4799C13.4027 11.4799 13.588 11.622 13.7085 11.7487L15.5465 13.5867C15.911 13.9512 15.9079 14.3435 15.5372 14.7296C15.4075 14.8655 15.2746 14.9953 15.1325 15.1343C14.9194 15.3412 14.697 15.5544 14.4962 15.7953C14.1471 16.1722 13.7301 16.3483 13.1895 16.3483C13.137 16.3483 13.0814 16.3452 13.0289 16.3421C12.028 16.2772 11.0982 15.888 10.4032 15.5544C8.50959 14.64 6.84459 13.3364 5.46069 11.6838Z" fill="white"/>
</svg>
