<svg width="22" height="22" viewBox="0 0 22 22" fill="none" xmlns="http://www.w3.org/2000/svg">
<path fill-rule="evenodd" clip-rule="evenodd" d="M17.1875 17.875H5.5C5.5 17.875 1.34887 17.4487 1.375 13.75C1.38944 11.66 3.223 9.74875 5.5 9.625C5.5 6.77875 7.32187 4.125 10.3125 4.125C12.6727 4.125 14.2471 5.56876 14.8074 7.56938C18.2139 7.42501 20.5177 10.12 20.625 12.375C20.7178 14.3206 19.03 16.83 17.1875 17.875ZM15.8586 6.20815C14.8493 4.1594 12.7483 2.75 10.3125 2.75C7.04756 2.75 4.37937 5.27998 4.14768 8.48373C1.74762 9.17123 0 11.2681 0 13.75C0 16.6788 2.43375 19.0644 5.5 19.2362L17.1875 19.25C19.5504 18.2256 22 15.3656 22 12.7187C22 9.24 19.2837 6.40752 15.8586 6.20815ZM11.5342 7.06752C11.3905 6.92315 11.1994 6.86125 11.011 6.875C10.8219 6.86125 10.6315 6.92315 10.4871 7.06752L6.40268 11.1306C6.13318 11.4056 6.13318 11.8387 6.40268 12.1069C6.67355 12.375 7.11149 12.375 7.38099 12.1069L10.3125 9.19187V15.8056C10.3125 16.1837 10.6198 16.4931 11 16.4931C11.3802 16.4931 11.6875 16.1837 11.6875 15.8056V9.17123L14.6403 12.1069C14.9105 12.375 15.3484 12.375 15.6186 12.1069C15.8881 11.8387 15.8881 11.4056 15.6186 11.1306L11.5342 7.06752Z" fill="#5F5C5C"/>
</svg>
