<svg width="22" height="22" viewBox="0 0 22 22" fill="none" xmlns="http://www.w3.org/2000/svg">
<path d="M12.0803 10.0656V5.44509C12.829 5.59742 13.5434 5.88592 14.1879 6.29623C14.2883 6.36269 14.401 6.40815 14.5194 6.42987C14.6378 6.45159 14.7593 6.44912 14.8767 6.42262C14.9941 6.39611 15.1049 6.34611 15.2025 6.27563C15.3 6.20515 15.3823 6.11565 15.4444 6.01252C15.5286 5.93274 15.5926 5.83403 15.631 5.72458C15.6695 5.61512 15.6812 5.49808 15.6654 5.38316C15.6495 5.26824 15.6065 5.15876 15.5399 5.06379C15.4732 4.96883 15.3849 4.89113 15.2822 4.83713C14.3256 4.19909 13.2253 3.80909 12.0803 3.70228V2.81061C12.0803 2.59562 11.9949 2.38944 11.8429 2.23742C11.6909 2.0854 11.4847 2 11.2697 2C11.0547 2 10.8486 2.0854 10.6965 2.23742C10.5445 2.38944 10.4591 2.59562 10.4591 2.81061V3.62122C7.90569 3.82387 6.08182 5.40456 6.08182 7.55268C6.08182 9.98451 7.82463 10.9572 10.4591 11.6057V16.4289C9.38629 16.2537 8.37143 15.8227 7.50039 15.1724C7.41332 15.0952 7.31064 15.0376 7.19934 15.0036C7.08803 14.9696 6.97071 14.9599 6.85534 14.9753C6.73998 14.9907 6.62928 15.0308 6.53077 15.0927C6.43227 15.1547 6.34826 15.2372 6.28447 15.3345C5.87917 15.8614 5.9197 16.2667 6.325 16.5504C7.52762 17.4544 8.96015 18.0022 10.4591 18.1311V19.0228C10.4591 19.2378 10.5445 19.444 10.6965 19.596C10.8486 19.748 11.0547 19.8334 11.2697 19.8334C11.4847 19.8334 11.6909 19.748 11.8429 19.596C11.9949 19.444 12.0803 19.2378 12.0803 19.0228V18.1717C14.7148 17.969 16.5387 16.3883 16.5387 14.1186C16.5387 12.011 15.2012 10.7951 12.0803 10.0656ZM8.02728 7.47162C8.02728 6.33676 9.00001 5.52615 10.4591 5.40456V9.70079C8.43259 9.13337 8.02728 8.44435 8.02728 7.47162ZM14.5932 14.2807C14.5932 15.4561 13.58 16.3073 12.0803 16.4694V12.011C14.1474 12.5785 14.5932 13.2675 14.5932 14.2402V14.2807Z" fill="#989393"/>
</svg>
