<svg width="22" height="22" viewBox="0 0 22 22" fill="none" xmlns="http://www.w3.org/2000/svg">
<g clip-path="url(#clip0_2207_843)">
<path d="M19.5554 7.94434H14.6666C14.3424 7.94434 14.0315 8.07311 13.8023 8.30232C13.5731 8.53153 13.4443 8.8424 13.4443 9.16656V18.3332C13.4443 18.6574 13.5731 18.9683 13.8023 19.1975C14.0315 19.4267 14.3424 19.5554 14.6666 19.5554H19.5554C19.8796 19.5554 20.1905 19.4267 20.4197 19.1975C20.6489 18.9683 20.7777 18.6574 20.7777 18.3332V9.16656C20.7777 8.8424 20.6489 8.53153 20.4197 8.30232C20.1905 8.07311 19.8796 7.94434 19.5554 7.94434ZM19.5554 9.16656V15.8888H14.6666V9.16656H19.5554ZM14.6666 18.3332V16.8666H19.5554V18.3332H14.6666Z" fill="#727272"/>
<path d="M12.2227 13.4443H2.44488V3.66656H17.1115V6.72211H18.3338V3.66656C18.3338 3.3424 18.205 3.03153 17.9758 2.80232C17.7466 2.57311 17.4357 2.44434 17.1115 2.44434H2.44488C2.12072 2.44434 1.80985 2.57311 1.58064 2.80232C1.35143 3.03153 1.22266 3.3424 1.22266 3.66656V13.4443C1.22266 13.7685 1.35143 14.0794 1.58064 14.3086C1.80985 14.5378 2.12072 14.6666 2.44488 14.6666H12.2227V13.4443Z" fill="#727272"/>
<path d="M12.222 15.8889H5.49978C5.33771 15.8889 5.18227 15.9533 5.06766 16.0679C4.95306 16.1825 4.88867 16.338 4.88867 16.5C4.88867 16.6621 4.95306 16.8175 5.06766 16.9321C5.18227 17.0468 5.33771 17.1111 5.49978 17.1111H12.222V15.8889Z" fill="#727272"/>
</g>
<defs>
<clipPath id="clip0_2207_843">
<rect width="22" height="22" fill="white"/>
</clipPath>
</defs>
</svg>
