<svg width="23" height="23" viewBox="0 0 23 23" fill="none" xmlns="http://www.w3.org/2000/svg">
<path d="M3.67923 5.61332C6.49769 1.86087 12.3326 0.768957 16.4863 3.35154C20.5878 5.90168 22.0962 10.8046 20.4164 15.4048C18.8301 19.7486 14.6507 21.4696 11.6383 19.2846C10.5099 18.4661 10.0725 17.44 9.86107 15.7734L9.76008 14.8266L9.71655 14.4458C9.59904 13.5506 9.41846 13.1496 9.04158 12.9395C8.5283 12.6534 8.18653 12.6467 7.51257 12.9079L7.17609 13.0475L7.0048 13.1222C6.03327 13.5441 5.38698 13.6924 4.56952 13.5211L4.37762 13.4758L4.2209 13.4312C1.54814 12.603 1.15226 8.97768 3.67923 5.61332ZM4.62244 12.0499L4.74022 12.0848L4.86859 12.1144C5.28937 12.1977 5.64898 12.1282 6.24573 11.8826L6.82282 11.6361C7.97487 11.1637 8.72534 11.1175 9.74144 11.6839C10.6208 12.174 10.9635 12.9274 11.1383 14.2327L11.1893 14.6727L11.2413 15.1823L11.2864 15.5871C11.4514 16.8917 11.7511 17.5905 12.4824 18.121C14.6629 19.7026 17.7862 18.4165 19.0661 14.9118C20.5192 10.9326 19.2329 6.75199 15.7273 4.57231C12.2062 2.38304 7.19961 3.31993 4.82862 6.47663C2.84028 9.12387 3.08415 11.5362 4.62244 12.0499ZM15.3792 10.1386C15.208 9.4996 15.5872 8.84274 16.2263 8.67151C16.8653 8.50027 17.5222 8.87951 17.6934 9.51856C17.8647 10.1576 17.4854 10.8145 16.8464 10.9857C16.2073 11.1569 15.5505 10.7777 15.3792 10.1386ZM15.8532 13.482C15.682 12.8429 16.0612 12.186 16.7003 12.0148C17.3393 11.8436 17.9962 12.2228 18.1674 12.8619C18.3386 13.5009 17.9594 14.1578 17.3204 14.329C16.6813 14.5002 16.0245 14.121 15.8532 13.482ZM13.4832 7.26108C13.3119 6.62203 13.6912 5.96517 14.3302 5.79393C14.9693 5.6227 15.6261 6.00194 15.7974 6.64099C15.9686 7.28004 15.5894 7.9369 14.9503 8.10813C14.3113 8.27936 13.6544 7.90012 13.4832 7.26108ZM13.4559 15.8845C13.2846 15.2455 13.6639 14.5886 14.3029 14.4174C14.942 14.2462 15.5988 14.6254 15.7701 15.2644C15.9413 15.9035 15.5621 16.5603 14.923 16.7316C14.284 16.9028 13.6271 16.5236 13.4559 15.8845ZM10.1047 6.32997C9.93342 5.69092 10.3127 5.03406 10.9517 4.86282C11.5908 4.69159 12.2476 5.07083 12.4189 5.70988C12.5901 6.34893 12.2108 7.00579 11.5718 7.17702C10.9327 7.34825 10.2759 6.96901 10.1047 6.32997Z" fill="#727272"/>
</svg>
