<svg width="23" height="23" viewBox="0 0 23 23" fill="none" xmlns="http://www.w3.org/2000/svg">
<g clip-path="url(#clip0_2490_12)">
<path d="M11.5 4.76837e-07C5.175 4.76837e-07 0 5.175 0 11.5C0 17.825 5.175 23 11.5 23C17.825 23 23 17.825 23 11.5C23 5.175 17.825 4.76837e-07 11.5 4.76837e-07ZM9.10417 6.70833C9.67917 3.7375 10.7333 1.91667 11.5 1.91667C12.2667 1.91667 13.3208 3.7375 13.8958 6.70833H9.10417ZM15.9083 6.70833C15.6208 5.07917 15.1417 3.54583 14.5667 2.39583C16.7708 3.1625 18.6875 4.69583 19.8375 6.70833H15.9083ZM3.1625 6.70833C4.3125 4.69583 6.22917 3.1625 8.43333 2.39583C7.85833 3.54583 7.37917 5.07917 7.09167 6.70833H3.1625ZM16.1958 8.625H20.7C20.8917 9.4875 21.0833 10.5417 21.0833 11.5C21.0833 12.4583 20.8917 13.5125 20.6042 14.375H16.1C16.2917 13.4167 16.2917 12.4583 16.2917 11.5C16.2917 10.5417 16.2917 9.58333 16.1958 8.625ZM8.81667 8.625H14.2792C14.375 9.4875 14.4708 10.4458 14.4708 11.5C14.4708 12.5542 14.375 13.5125 14.2792 14.375H8.81667C8.72083 13.5125 8.625 12.5542 8.625 11.5C8.625 10.4458 8.72083 9.4875 8.81667 8.625ZM2.39583 8.625H6.9C6.80417 9.58333 6.80417 10.5417 6.80417 11.5C6.80417 12.4583 6.80417 13.4167 6.9 14.375H2.39583C2.10833 13.5125 1.91667 12.4583 1.91667 11.5C1.91667 10.5417 2.10833 9.4875 2.39583 8.625ZM15.9083 16.2917H19.8375C18.6875 18.3042 16.7708 19.8375 14.5667 20.6042C15.1417 19.4542 15.6208 17.9208 15.9083 16.2917ZM9.10417 16.2917H13.9917C13.4167 19.2625 12.3625 21.0833 11.5958 21.0833C10.8292 21.0833 9.67917 19.2625 9.10417 16.2917ZM3.1625 16.2917H7.09167C7.37917 17.9208 7.85833 19.4542 8.43333 20.6042C6.22917 19.8375 4.40833 18.3042 3.1625 16.2917Z" fill="black"/>
</g>
<defs>
<clipPath id="clip0_2490_12">
<rect width="23" height="23" fill="white" transform="matrix(1 0 0 -1 0 23)"/>
</clipPath>
</defs>
</svg>
