<svg width="23" height="23" viewBox="0 0 23 23" fill="none" xmlns="http://www.w3.org/2000/svg">
<path d="M11.5003 21.0834C16.7931 21.0834 21.0837 16.7928 21.0837 11.5001C21.0837 6.20735 16.7931 1.91675 11.5003 1.91675C6.2076 1.91675 1.91699 6.20735 1.91699 11.5001C1.91699 16.7928 6.2076 21.0834 11.5003 21.0834Z" stroke="#727272" stroke-linecap="square"/>
<path d="M11.5003 21.0834C14.0559 18.7602 15.3337 15.5657 15.3337 11.5001C15.3337 7.43443 14.0559 4.23998 11.5003 1.91675C8.94477 4.23998 7.66699 7.43443 7.66699 11.5001C7.66699 15.5657 8.94477 18.7602 11.5003 21.0834Z" stroke="#727272" stroke-linecap="round"/>
<path d="M2.39551 8.625H20.6038M2.39551 14.375H20.6038" stroke="#727272" stroke-linecap="round"/>
</svg>
