<svg width="22" height="22" viewBox="0 0 22 22" fill="none" xmlns="http://www.w3.org/2000/svg">
<g clip-path="url(#clip0_2207_886)">
<path d="M18.6728 15.9498L16.8441 12.9523V8.7036C16.9091 7.5739 16.6531 6.44887 16.1056 5.45856C15.5582 4.46824 14.7416 3.65309 13.7503 3.10735C13.7638 2.93345 13.7638 2.75875 13.7503 2.58485C13.7397 2.2345 13.66 1.88968 13.516 1.57011C13.372 1.25055 13.1664 0.962493 12.9111 0.722421C12.6557 0.482349 12.3555 0.294966 12.0276 0.170982C11.6997 0.046999 11.3507 -0.0111532 11.0003 -0.000150169C10.65 -0.0111532 10.3009 0.046999 9.97304 0.170982C9.64519 0.294966 9.34498 0.482349 9.08959 0.722421C8.83419 0.962493 8.62861 1.25055 8.48461 1.57011C8.3406 1.88968 8.26099 2.2345 8.25032 2.58485C8.23007 2.75843 8.23007 2.93377 8.25032 3.10735C7.25906 3.65309 6.44249 4.46824 5.89502 5.45856C5.34755 6.44887 5.09153 7.5739 5.15657 8.7036V12.9523L3.32782 15.9498C3.16963 16.2097 3.08324 16.5068 3.07746 16.811C3.07168 17.1151 3.14673 17.4154 3.29493 17.681C3.44314 17.9467 3.6592 18.1682 3.92104 18.3231C4.18288 18.4779 4.48113 18.5605 4.78532 18.5623H7.21907C7.28268 19.513 7.71204 20.4021 8.41705 21.043C9.12206 21.6839 10.0479 22.0269 11.0003 21.9998C11.9527 22.0269 12.8786 21.6839 13.5836 21.043C14.2886 20.4021 14.718 19.513 14.7816 18.5623H17.2153C17.5195 18.5605 17.8178 18.4779 18.0796 18.3231C18.3414 18.1682 18.5575 17.9467 18.7057 17.681C18.8539 17.4154 18.929 17.1151 18.9232 16.811C18.9174 16.5068 18.831 16.2097 18.6728 15.9498ZM9.96907 2.58485C9.99352 2.33427 10.1152 2.10325 10.308 1.94131C10.5007 1.77938 10.7493 1.69943 11.0003 1.7186C11.2514 1.69943 11.4999 1.77938 11.6927 1.94131C11.8855 2.10325 12.0071 2.33427 12.0316 2.58485C11.6882 2.56334 11.3437 2.56334 11.0003 2.58485C10.6569 2.56298 10.3125 2.56298 9.96907 2.58485ZM11.0003 20.2811C10.5035 20.3061 10.0154 20.1431 9.63328 19.8247C9.25111 19.5062 9.00283 19.0555 8.93782 18.5623H13.0628C12.9978 19.0555 12.7495 19.5062 12.3674 19.8247C11.9852 20.1431 11.4972 20.3061 11.0003 20.2811ZM4.78532 16.8436L6.62782 13.8598L6.87532 13.4336V8.7036C6.87202 7.67386 7.15786 6.66388 7.70032 5.7886C8.07462 5.27562 8.57514 4.86806 9.15332 4.60547C9.73151 4.34288 10.3677 4.23416 11.0003 4.28985C11.6329 4.23416 12.2691 4.34288 12.8473 4.60547C13.4255 4.86806 13.926 5.27562 14.3003 5.7886C14.8428 6.66388 15.1286 7.67386 15.1253 8.7036V13.4336L15.3728 13.8598L17.2153 16.8436H4.78532Z" fill="#727272"/>
</g>
<defs>
<clipPath id="clip0_2207_886">
<rect width="22" height="22" fill="white"/>
</clipPath>
</defs>
</svg>
