<svg width="22" height="22" viewBox="0 0 22 22" fill="none" xmlns="http://www.w3.org/2000/svg">
<path d="M17.875 22H4.125C2.98787 22 2.0625 21.0746 2.0625 19.9375V9.625C2.0625 8.48787 2.98787 7.5625 4.125 7.5625H5.5V5.5C5.5 2.46744 7.96744 0 11 0C14.0326 0 16.5 2.46744 16.5 5.5V7.5625H17.875C19.0121 7.5625 19.9375 8.48787 19.9375 9.625V19.9375C19.9375 21.0746 19.0121 22 17.875 22ZM15.125 5.5C15.125 3.22506 13.2749 1.375 11 1.375C8.72506 1.375 6.875 3.22506 6.875 5.5V7.5625H15.125V5.5ZM18.5625 9.625C18.5625 9.2455 18.2545 8.9375 17.875 8.9375H4.125C3.7455 8.9375 3.4375 9.2455 3.4375 9.625V19.9375C3.4375 20.317 3.7455 20.625 4.125 20.625H17.875C18.2545 20.625 18.5625 20.317 18.5625 19.9375V9.625ZM11.6875 14.2464V16.5C11.6875 16.8802 11.3802 17.1875 11 17.1875C10.6198 17.1875 10.3125 16.8802 10.3125 16.5V14.2464C9.90344 14.0078 9.625 13.5692 9.625 13.0625C9.625 12.3049 10.2417 11.6875 11 11.6875C11.7576 11.6875 12.375 12.3049 12.375 13.0625C12.375 13.5692 12.0966 14.0078 11.6875 14.2464Z" fill="#727272"/>
</svg>
