<svg width="23" height="23" viewBox="0 0 23 23" fill="none" xmlns="http://www.w3.org/2000/svg">
<path fill-rule="evenodd" clip-rule="evenodd" d="M3.11426 5.74984C3.11426 4.27238 4.29329 3.12829 5.75709 2.39639C7.26388 1.643 9.29519 1.19775 11.4997 1.19775C13.7041 1.19775 15.7355 1.643 17.2423 2.39639C18.7061 3.12829 19.8851 4.27238 19.8851 5.74984V17.2498C19.8851 18.7273 18.7061 19.8714 17.2423 20.6032C15.7355 21.3567 13.7041 21.8019 11.4997 21.8019C9.29519 21.8019 7.26388 21.3567 5.75709 20.6032C4.29329 19.8714 3.11426 18.7273 3.11426 17.2498V5.74984ZM4.55176 5.74984C4.55176 5.1102 5.08897 4.33763 6.39996 3.68213C7.66795 3.04813 9.46997 2.63525 11.4997 2.63525C13.5294 2.63525 15.3314 3.04813 16.5993 3.68213C17.9103 4.33763 18.4476 5.1102 18.4476 5.74984C18.4476 6.38948 17.9103 7.16205 16.5993 7.81755C15.3314 8.45154 13.5294 8.86442 11.4997 8.86442C9.46997 8.86442 7.66795 8.45154 6.39996 7.81755C5.08897 7.16205 4.55176 6.38948 4.55176 5.74984ZM4.55176 17.2498C4.55176 17.8894 5.08897 18.662 6.39996 19.3175C7.66795 19.9516 9.46997 20.3644 11.4997 20.3644C13.5294 20.3644 15.3314 19.9516 16.5993 19.3175C17.9103 18.662 18.4476 17.8894 18.4476 17.2498V14.0942C18.0866 14.3822 17.677 14.6359 17.2423 14.8532C15.7355 15.6067 13.7041 16.0519 11.4997 16.0519C9.29519 16.0519 7.26388 15.6067 5.75709 14.8532C5.32239 14.6359 4.91281 14.3822 4.55176 14.0942V17.2498ZM18.4476 8.34426V11.4998C18.4476 12.1394 17.9103 12.912 16.5993 13.5675C15.3314 14.2016 13.5294 14.6144 11.4997 14.6144C9.46997 14.6144 7.66795 14.2016 6.39996 13.5675C5.08897 12.912 4.55176 12.1394 4.55176 11.4998V8.34426C4.91281 8.63224 5.32239 8.88594 5.75709 9.10329C7.26388 9.85668 9.29519 10.3019 11.4997 10.3019C13.7041 10.3019 15.7355 9.85668 17.2423 9.10329C17.677 8.88594 18.0866 8.63224 18.4476 8.34426Z" fill="#727272"/>
</svg>
