<svg width="88" height="88" viewBox="0 0 88 88" fill="none" xmlns="http://www.w3.org/2000/svg">
<path d="M34.4937 17.3684C34.4937 17.3684 31.8761 18.3928 30.7118 19.1614C29.7674 19.7849 28.9273 20.5709 28.1689 21.4108C27.3443 22.3241 26.5848 23.3184 26.0171 24.4101C25.3797 25.6359 24.9419 26.9723 24.6478 28.3222C24.3969 29.4738 24.2799 30.6652 24.3218 31.8431C24.3598 32.9107 24.5586 33.9757 24.8435 35.0053C25.0958 35.9175 25.4371 36.8132 25.8867 37.646C26.4424 38.6754 27.9081 40.5149 27.9081 40.5149C27.9081 40.5149 30.1126 41.2211 31.2374 41.4889C32.8827 41.8806 34.5474 42.2092 36.2265 42.4113C38.9253 42.7361 41.6499 42.8696 44.3682 42.874C47.4411 42.879 50.5422 42.883 53.5738 42.3807C55.6765 42.0323 59.7277 40.6453 59.7277 40.6453C59.7277 40.6453 61.6796 38.2401 62.2707 36.831C63.0093 35.07 63.4032 33.1328 63.4443 31.2237C63.4847 29.3518 63.1439 27.4508 62.5315 25.6815C62.0892 24.4038 61.407 23.1942 60.5754 22.1281C59.6626 20.9579 58.5374 19.9379 57.3151 19.0962C56.1183 18.272 53.4029 17.1727 53.4029 17.1727C53.4029 17.1727 50.5638 16.2724 49.0994 16.0317C47.6485 15.7933 46.1683 15.7588 44.6981 15.7383C43.0126 15.7148 41.3103 15.6735 39.6448 15.9339C37.8838 16.2093 34.4937 17.3684 34.4937 17.3684Z" fill="white"/>
<path d="M24.3633 32.2707C24.3633 32.2707 25.082 33.9463 25.6292 34.6641C26.3082 35.5548 27.129 36.3696 28.0773 36.9656C28.9111 37.4898 29.8861 37.7616 30.8343 38.028C32.3132 38.4434 33.8447 38.6569 35.3683 38.8524C37.1175 39.0769 38.8828 39.1585 40.6439 39.2509C42.1635 39.3306 43.6853 39.3995 45.2069 39.3852C47.0613 39.3678 48.9186 39.3028 50.7637 39.1172C52.2128 38.9714 53.6647 38.7876 55.0824 38.4541C56.2296 38.1843 57.3728 37.855 58.4499 37.3766C59.1753 37.0545 59.889 36.6764 60.5088 36.1806C61.1595 35.6602 61.7181 35.0215 62.2087 34.348C62.6921 33.6845 63.414 32.2002 63.414 32.2002C63.3394 32.9157 62.9994 34.8609 62.5466 36.1203C62.2148 37.0432 61.7363 37.9142 61.2076 38.7402C60.8143 39.3548 60.4124 39.9905 59.8549 40.4612C59.5107 40.7519 59.0858 40.9399 58.6672 41.1066C57.3943 41.6135 56.0406 41.9054 54.6951 42.1643C52.6389 42.5599 50.5481 42.7804 48.4586 42.9157C46.9733 43.0119 45.4817 42.9904 43.9937 42.9579C41.9713 42.9137 39.9472 42.8302 37.9337 42.6358C36.1297 42.4617 34.3273 42.2322 32.5494 41.8804C31.7582 41.7239 30.9784 41.5103 30.2058 41.2788C29.5234 41.0743 28.7947 40.9522 28.1847 40.5843C27.7439 40.3185 27.3915 39.9203 27.0595 39.527C26.6317 39.0202 26.281 38.4491 25.9598 37.8689C25.5397 37.1097 25.1361 36.3286 24.8856 35.4979C24.5709 34.4546 24.3633 32.2707 24.3633 32.2707Z" fill="#F3F1EC"/>
<path d="M36.11 16.9097C36.11 16.9097 34.3497 14.0753 33.0659 13.0621C32.0328 12.2468 30.7969 11.2944 29.485 11.399C28.6137 11.4686 27.8518 12.1792 27.312 12.8667C26.4031 14.0244 26.0477 15.5605 25.7793 17.0077C25.4126 18.9848 25.465 21.0432 25.7055 23.0395C25.7585 23.4796 26.0371 24.3275 26.0371 24.3275C26.0371 24.3275 26.9837 22.7228 28.295 21.2666C29.0653 20.4112 29.9212 19.6952 30.8607 19.078C31.7061 18.5226 32.6482 18.123 33.5849 17.7411C34.4055 17.4065 36.11 16.9097 36.11 16.9097Z" fill="white"/>
<path d="M35.0355 17.2496C35.0355 17.2496 33.4397 14.8343 32.2801 14.0258C31.4886 13.4738 30.524 12.9143 29.565 13.0216C28.9645 13.0889 28.4347 13.5483 28.0459 14.0109C27.3531 14.8351 26.995 15.9266 26.7751 16.9807C26.4313 18.6291 26.4882 20.3672 26.7404 22.0321C26.7908 22.3653 27.0464 22.9958 27.0464 22.9958C27.0464 22.9958 28.1202 21.3055 28.8165 20.5961C29.4219 19.9794 30.1337 19.4644 30.8741 19.0186C31.7188 18.5101 32.6509 18.1606 33.563 17.7861C34.0463 17.5877 35.0355 17.2496 35.0355 17.2496Z" fill="#F3F1EC"/>
<path d="M27.7832 21.8486C27.7832 21.6872 27.6825 21.0645 27.6679 20.258C27.6126 18.2679 28.1435 14.5697 29.7658 14.2068C30.1722 14.1447 30.5913 14.3456 30.953 14.5411C31.8539 15.0278 32.5989 15.7846 33.2698 16.5581C33.5475 16.8782 33.9606 17.6251 33.9606 17.6251C33.9606 17.6251 32.7074 18.1068 32.1057 18.4023C31.5466 18.6768 30.9945 18.9727 30.4804 19.3244C29.9485 19.6883 29.4511 20.1043 28.982 20.5462C28.5524 20.9507 27.7832 21.8486 27.7832 21.8486Z" fill="#FF8080"/>
<path d="M51.4111 16.5835C51.4111 16.5835 53.2552 13.7009 54.5805 12.6709C55.6273 11.8573 56.8698 10.9032 58.1936 11.0079C59.0727 11.0774 59.8414 11.7881 60.386 12.4755C61.3032 13.6331 61.6618 15.1692 61.9326 16.6163C62.3025 18.5933 62.2506 20.652 62.007 22.6478C61.9587 23.0437 61.705 23.8054 61.705 23.8054C61.705 23.8054 61.3531 22.9505 60.03 21.4945C59.2528 20.6391 58.3079 19.7315 57.2945 19.0451C56.272 18.3525 55.1203 17.8614 53.9753 17.3986C53.1438 17.0625 51.4111 16.5835 51.4111 16.5835Z" fill="white"/>
<path d="M52.6729 16.943C52.6729 16.943 54.1998 14.4936 55.3302 13.66C56.1018 13.091 57.0447 12.5105 57.9966 12.597C58.5926 12.6511 59.1273 13.0989 59.5224 13.5529C60.2266 14.3619 60.6052 15.4453 60.846 16.4943C61.2227 18.1348 61.2046 19.8738 60.9915 21.5438C60.9489 21.878 60.7096 22.5139 60.7096 22.5139C60.7096 22.5139 59.6092 20.8473 58.9042 20.1533C58.2912 19.5499 57.5751 19.0506 56.8322 18.621C55.9846 18.131 55.054 17.8019 54.1426 17.4474C53.6598 17.2595 52.6729 16.943 52.6729 16.943Z" fill="#F3F1EC"/>
<path d="M59.9991 21.4539C59.9991 21.2925 60.1079 20.7942 60.1225 19.988C60.1779 17.9991 59.647 14.2894 58.0247 13.8915C57.6183 13.8206 57.1992 14.0125 56.8375 14.2002C55.9366 14.6675 55.1956 15.4118 54.5206 16.1672C54.2195 16.5043 53.7646 17.2927 53.7646 17.2927C53.7646 17.2927 55.055 17.8596 55.6848 18.1751C56.2057 18.436 56.7331 18.6907 57.2204 19.01C57.7818 19.3778 58.307 19.8018 58.8085 20.2478C59.2306 20.6233 59.9991 21.4539 59.9991 21.4539Z" fill="#FF8080"/>
<path d="M43.9688 30.4089C43.9688 30.4089 42.2577 29.5908 42.2432 28.8059C42.2387 28.56 42.5372 28.3772 42.7648 28.2843C43.4665 27.9978 44.3314 28.0344 45.0384 28.3073C45.2826 28.4016 45.6206 28.5673 45.6252 28.829C45.6387 29.5919 43.9688 30.4089 43.9688 30.4089Z" fill="#FF8080"/>
<path d="M43.9686 30.4087C43.9686 30.4087 44.1122 31.6549 44.4695 32.1365C44.8985 32.7148 45.5739 33.176 46.2806 33.3139C46.9358 33.4418 47.6791 33.2848 48.2471 32.9339C48.6116 32.7087 48.8811 32.3359 49.03 31.9145L49.4657 31.9471C49.3735 32.4867 49.0503 32.9297 48.6637 33.2716C48.3007 33.5926 47.8165 33.7938 47.3375 33.8667C46.7242 33.96 46.0632 33.8808 45.4897 33.6441C44.9168 33.4076 44.0244 32.4994 44.0244 32.4994C44.0244 32.4994 43.2713 33.3408 42.7719 33.569C42.3065 33.7817 41.7627 33.8556 41.2542 33.7992C40.5363 33.7195 39.7565 33.5124 39.2351 33.0125C38.9031 32.694 38.7811 32.341 38.6807 31.7487L39.1681 31.765C39.1296 31.9323 39.2517 32.2048 39.3739 32.3852C39.5586 32.6579 39.8248 32.8966 40.1293 33.0223C40.8047 33.3012 41.6167 33.4213 42.3141 33.2029C42.8413 33.0377 43.3055 32.6201 43.5929 32.1482C43.9014 31.6415 43.9686 30.4087 43.9686 30.4087Z" fill="#FF8080"/>
<path d="M30.4512 26.095C30.4512 26.095 31.1745 24.6541 31.6984 24.0526C32.1504 23.5336 32.6742 23.0398 33.296 22.7447C33.9618 22.4288 34.7259 22.2912 35.4627 22.3052C36.1564 22.3183 36.8675 22.4806 37.4856 22.796C38.0718 23.0951 38.5654 23.5722 38.9885 24.0763C39.4903 24.6742 40.1747 26.095 40.1747 26.095H39.5892C39.5892 26.095 39.0021 24.9778 38.6037 24.4941C38.2433 24.0564 37.8527 23.6094 37.3532 23.3412C36.7802 23.0335 36.1088 22.8821 35.4585 22.8758C34.7735 22.8691 34.0626 23.0134 33.4535 23.3268C32.8568 23.6339 32.3785 24.1498 31.9524 24.6681C31.5998 25.0971 31.1039 26.1017 31.1039 26.1017L30.4512 26.095Z" fill="black"/>
<path d="M47.2002 26.3665C47.2002 26.3665 47.9235 24.9256 48.4474 24.3241C48.8994 23.8051 49.4233 23.3112 50.0451 23.0162C50.7108 22.7002 51.4749 22.5627 52.2117 22.5766C52.9054 22.5898 53.6165 22.7521 54.2346 23.0675C54.8208 23.3666 55.3145 23.8437 55.7376 24.3478C56.2393 24.9456 56.9238 26.3665 56.9238 26.3665L56.3382 26.3665C56.3382 26.3665 55.7511 25.2493 55.3527 24.7656C54.9923 24.3279 54.6017 23.8809 54.1022 23.6126C53.5293 23.305 52.8578 23.1536 52.2075 23.1473C51.5225 23.1406 50.8116 23.2849 50.2025 23.5983C49.6058 23.9054 49.1275 24.4212 48.7014 24.9396C48.3488 25.3686 47.8529 26.3732 47.8529 26.3732L47.2002 26.3665Z" fill="black"/>
<path d="M27.9392 43.873C27.9392 43.873 25.6037 47.0928 24.7116 48.8609C23.9061 50.4574 23.282 52.1536 22.8207 53.8814C22.2981 55.8387 21.9507 57.8569 21.8427 59.8799C21.737 61.8579 21.8614 63.8565 22.1687 65.8132C22.4144 67.3782 22.8368 68.9201 23.3749 70.41C23.925 71.9326 25.4289 74.8111 25.4289 74.8111L63.074 75.1371C63.074 75.1371 64.1692 71.92 64.65 70.2907C65.2434 68.2795 66.0006 66.2909 66.2638 64.2106C66.5291 62.1137 66.4496 59.9704 66.2149 57.8698C66.0111 56.0459 65.5801 54.245 65.0412 52.4907C64.6338 51.1645 64.1417 49.8537 63.4926 48.6275C62.5682 46.8812 61.7017 45.1276 60.1827 43.71C60.1827 43.71 58.4164 44.3699 57.5093 44.6228C56.3308 44.9514 55.1294 45.2004 53.9231 45.4052C52.6412 45.6228 51.347 45.7726 50.051 45.8779C48.1839 46.0296 46.3091 46.1171 44.4359 46.1061C42.6701 46.0958 40.9049 45.9804 39.1456 45.829C37.6 45.696 36.0552 45.5289 34.5249 45.2748C32.3108 44.9071 27.9392 43.873 27.9392 43.873Z" fill="white"/>
<path d="M27.9075 40.5151C27.9075 40.5151 27.7576 41.5888 27.7608 42.1289C27.7642 42.7133 27.9401 43.873 27.9401 43.873C27.9401 43.873 32.7693 45.0563 35.2267 45.4052C38.2478 45.8342 41.3039 46.0877 44.3553 46.0899C47.6134 46.0923 50.8922 45.9244 54.1033 45.3726C56.1741 45.0168 58.1779 44.497 60.1836 43.71C60.1836 43.71 60.2302 42.6446 60.151 42.1207C60.0745 41.6149 59.7271 40.6455 59.7271 40.6455C59.7271 40.6455 55.396 42.0766 53.1546 42.4442C50.2476 42.9208 47.2776 42.9892 44.332 42.9558C40.8999 42.917 37.4524 42.702 34.0685 42.1272C31.9757 41.7718 27.9075 40.5151 27.9075 40.5151Z" fill="#FF8080"/>
<path d="M43.7699 55.6081C46.9317 55.6081 49.4949 53.0451 49.4949 49.8834C49.4949 46.7217 46.9317 44.1587 43.7699 44.1587C40.6081 44.1587 38.0449 46.7217 38.0449 49.8834C38.0449 53.0451 40.6081 55.6081 43.7699 55.6081Z" fill="#FFE680"/>
<path d="M38.2197 50.9669L49.3312 51.036L49.7001 51.013C49.7001 51.013 50.1137 50.2026 50.092 49.7682C50.0715 49.359 49.6079 48.6386 49.6079 48.6386L37.9892 48.4312C37.9892 48.4312 37.4719 49.2153 37.4359 49.6644C37.4003 50.1085 37.7817 50.9554 37.7817 50.9554L38.2197 50.9669Z" fill="#FFD42A"/>
<path d="M27.5473 71.2574C26.8523 71.5941 26.2564 72.2985 26.0802 73.0504C25.9248 73.7133 26.1473 74.4828 26.5366 75.0414C26.8785 75.5318 27.4783 75.8125 28.0382 76.0222C29.8173 76.6885 31.7837 76.8192 33.6834 76.8064C35.6556 76.7932 37.7039 76.6529 39.5323 75.9137C40.0836 75.6908 40.6538 75.3739 40.9873 74.8816C41.3598 74.3317 41.6094 73.5907 41.4549 72.9447C41.2614 72.1356 40.5934 71.388 39.835 71.0459C36.1007 69.362 31.234 69.4714 27.5473 71.2574Z" fill="white"/>
<path d="M27.0754 71.5116C27.0754 71.5116 26.6269 72.4459 26.6605 72.9409C26.6913 73.3939 26.9 73.8574 27.2138 74.1857C27.6055 74.5956 28.1969 74.7684 28.7353 74.9464C29.5725 75.2233 30.463 75.318 31.3403 75.4075C32.4263 75.5182 33.5235 75.5532 34.6138 75.4997C35.6505 75.4488 36.6966 75.362 37.703 75.1078C38.4058 74.9302 39.1344 74.7349 39.7316 74.324C40.0812 74.0835 40.3978 73.7599 40.5846 73.3789C40.7186 73.1055 40.7639 72.7838 40.746 72.4798C40.7242 72.111 40.4232 71.4194 40.4232 71.4194C40.4232 71.4194 41.1892 72.1222 41.3453 72.5951C41.5213 73.128 41.4875 73.7493 41.2992 74.2779C41.143 74.7166 40.8156 75.1007 40.4463 75.3844C39.799 75.8818 38.9749 76.1158 38.1871 76.3295C37.1843 76.6015 36.1339 76.6663 35.0979 76.7445C34.2013 76.8121 33.2982 76.8459 32.4007 76.7906C31.1924 76.7162 29.9701 76.6101 28.8044 76.2834C28.168 76.1051 27.4988 75.9131 26.9832 75.4997C26.5839 75.1795 26.2309 74.7452 26.0841 74.2549C25.9342 73.7538 25.9717 73.1778 26.1533 72.6873C26.3262 72.2202 27.0754 71.5116 27.0754 71.5116Z" fill="#F3F1EC"/>
<path d="M48.5268 71.649C47.8318 71.9857 47.2359 72.6901 47.0597 73.442C46.9043 74.1049 47.1268 74.8744 47.5161 75.433C47.858 75.9234 48.4578 76.2041 49.0177 76.4138C50.7968 77.0801 52.7631 77.2108 54.6629 77.198C56.6351 77.1848 58.6834 77.0445 60.5118 76.3053C61.0631 76.0824 61.6333 75.7655 61.9668 75.2732C62.3393 74.7233 62.5889 73.9823 62.4344 73.3363C62.2409 72.5272 61.5729 71.7796 60.8145 71.4375C57.0801 69.7536 52.2134 69.863 48.5268 71.649Z" fill="white"/>
<path d="M48.0862 71.9208C48.0862 71.9208 47.6376 72.8551 47.6712 73.3501C47.702 73.8031 47.9108 74.2666 48.2245 74.5949C48.6162 75.0048 49.2077 75.1776 49.746 75.3556C50.5832 75.6325 51.4737 75.7271 52.351 75.8166C53.437 75.9274 54.5343 75.9623 55.6246 75.9088C56.6613 75.858 57.7073 75.7712 58.7137 75.517C59.4166 75.3394 60.1451 75.1441 60.7424 74.7332C61.092 74.4926 61.4085 74.1691 61.5953 73.788C61.7294 73.5147 61.7746 73.193 61.7567 72.889C61.735 72.5202 61.434 71.8286 61.434 71.8286C61.434 71.8286 62.2 72.5313 62.3561 73.0043C62.532 73.5371 62.4982 74.1584 62.31 74.6871C62.1538 75.1258 61.8263 75.5098 61.457 75.7936C60.8097 76.2909 59.9856 76.525 59.1978 76.7387C58.1951 77.0107 57.1447 77.0755 56.1087 77.1537C55.212 77.2213 54.309 77.255 53.4115 77.1998C52.2031 77.1254 50.9809 77.0193 49.8152 76.6926C49.1788 76.5143 48.5096 76.3223 47.994 75.9089C47.5946 75.5887 47.2416 75.1544 47.0949 74.664C46.945 74.163 46.9824 73.587 47.164 73.0965C47.337 72.6294 48.0862 71.9208 48.0862 71.9208Z" fill="#F3F1EC"/>
<path d="M17.0269 27.0511C17.4764 27.0391 17.9301 26.907 18.374 26.9788C18.9519 27.0722 19.5083 27.317 20.0088 27.6207C20.4126 27.8657 20.8155 28.1583 21.0772 28.5515C21.3634 28.9814 21.4586 29.5166 21.5653 30.0218C21.6442 30.3956 21.6487 30.7815 21.6749 31.1626C21.7045 31.5939 21.7073 32.0267 21.7284 32.4585C21.7483 32.866 21.7695 33.2734 21.7972 33.6805C21.8253 34.0934 21.8606 34.5058 21.896 34.9181C21.9852 35.9584 22.1821 38.0374 22.1821 38.0374C22.1821 38.0374 22.3001 39.5271 22.5409 40.226C22.7181 40.7401 23.0023 41.2186 23.3246 41.6566C23.6631 42.1167 24.0547 42.551 24.5146 42.8899C24.9615 43.2192 25.4703 43.4789 26.0017 43.6394C26.6249 43.8277 27.3471 43.799 27.9408 43.8731C27.9408 43.8731 26.6937 45.6165 26.1162 46.5188C25.5949 47.3333 25.0617 48.1457 24.6372 49.0146C23.977 50.3659 23.4317 51.7773 22.9892 53.2147C22.6849 54.2031 22.3019 56.2402 22.3019 56.2402C21.2802 56.2165 20.3376 55.9578 19.4274 55.5879C18.4313 55.183 17.4405 54.6606 16.6756 53.9049C15.6136 52.8556 14.8403 51.5014 14.2929 50.1125C13.9417 49.2213 13.8777 48.24 13.7506 47.2906C13.6234 46.3412 13.5915 45.3814 13.5314 44.4255C13.3437 41.4434 13.089 35.4724 13.089 35.4724C13.089 35.4724 12.8825 32.2674 13.1402 30.6962C13.2378 30.1015 13.3784 29.4869 13.6994 28.9768C14.0143 28.4764 14.4776 28.0595 14.9828 27.7524C15.5983 27.3782 16.3177 27.1776 17.0269 27.0511Z" fill="#F3F1EC"/>
<path d="M13.1066 30.3764C13.3533 31.0231 13.9095 31.5615 14.5085 31.9086C15.2601 32.3442 16.1843 32.427 17.0514 32.4791C17.6457 32.5148 18.247 32.4282 18.8283 32.2998C19.3618 32.1819 19.9257 32.0703 20.3769 31.7619C20.8955 31.4073 21.423 30.9304 21.5994 30.3275C21.7226 29.9063 21.603 29.4223 21.4201 29.0234C21.1635 28.4635 20.706 27.9856 20.1975 27.6379C19.6768 27.2818 19.0409 27.1015 18.4207 26.9859C17.7875 26.8678 17.1295 26.8883 16.4887 26.9532C16.0153 27.0012 15.5376 27.0876 15.0953 27.263C14.6899 27.4237 14.2964 27.6414 13.9705 27.9313C13.623 28.2405 13.2747 28.6001 13.1229 29.0397C12.9774 29.4609 12.9478 29.96 13.1066 30.3764Z" fill="white"/>
<path d="M59.6293 74.6713C59.6293 74.6713 60.0074 73.663 59.9001 73.1198C59.8449 72.84 59.4469 72.3306 59.4469 72.3306L59.0488 72.8893L59.6293 74.6713Z" fill="#DEAA87"/>
<path d="M53.4731 75.1341C53.4731 75.1341 54.0894 74.2173 54.093 73.7125C54.0951 73.415 53.7394 72.8755 53.7394 72.8755L53.2148 73.4427L53.4731 75.1341Z" fill="#DEAA87"/>
<path d="M56.4986 75.0777C56.4986 75.0777 56.9305 74.0716 56.836 73.5664C56.7832 73.2839 56.3494 72.8184 56.3494 72.8184L55.9326 73.436L56.4986 75.0777Z" fill="#DEAA87"/>
<path d="M50.3796 74.8725C50.3796 74.8725 51.0554 73.7855 51.0506 73.2288C51.0482 72.9622 50.7164 72.5249 50.7164 72.5249L50.1836 73.1694L50.3796 74.8725Z" fill="#DEAA87"/>
<path d="M20.2412 31.4746C20.2412 31.4746 20.3508 30.4733 20.1726 30.0227C20.0808 29.7907 19.687 29.4531 19.687 29.4531L19.4824 30.0619L20.2412 31.4746Z" fill="#DEAA87"/>
<path d="M16.1069 31.6752C16.1069 31.6752 16.6337 30.86 16.6589 30.3963C16.6738 30.1231 16.4174 29.6118 16.4174 29.6118L15.9785 30.1099L16.1069 31.6752Z" fill="#DEAA87"/>
<path d="M18.0588 31.7141C18.0588 31.7141 18.4441 30.8088 18.3921 30.3405C18.363 30.0786 18.0416 29.6318 18.0416 29.6318L17.6855 30.181L18.0588 31.7141Z" fill="#DEAA87"/>
<path d="M14.2148 31.2449C14.2148 31.2449 14.9541 30.4854 15.0681 29.9936C15.1227 29.758 14.9647 29.2754 14.9647 29.2754L14.4268 29.6869L14.2148 31.2449Z" fill="#DEAA87"/>
<path d="M58.0333 27.446L72.8284 34.0252C72.8284 34.0252 74.0261 34.7232 74.4651 35.2423C75.0471 35.9304 75.5149 36.7667 75.6956 37.6496C75.8553 38.4303 75.531 40.0346 75.531 40.0346L61.086 72.335C61.086 72.335 60.2602 73.4507 59.6715 73.7779C58.8896 74.2125 57.9457 74.3239 57.0519 74.3614C56.2134 74.3965 54.5572 74.0216 54.5572 74.0216L40.1809 67.6619C40.1809 67.6619 38.5753 66.5801 37.991 65.8285C37.4577 65.1426 37.0566 64.3259 36.8622 63.4791C36.7 62.773 36.8546 61.3057 36.8546 61.3057L51.2307 29.3068C51.2307 29.3068 52.488 27.8559 53.3237 27.4339C54.1141 27.0347 55.0393 26.8694 55.9245 26.8922C56.6511 26.9109 58.0333 27.446 58.0333 27.446Z" fill="#D4AA00"/>
<path d="M58.3978 29.0545L71.4429 34.8531C71.4429 34.8531 72.4955 35.476 72.8758 35.9487C73.3799 36.5754 73.7793 37.342 73.9218 38.1578C74.0478 38.8792 73.7254 40.3752 73.7254 40.3752L60.1801 70.6617C60.1801 70.6617 59.421 71.7147 58.8896 72.0307C58.1839 72.4505 57.3406 72.5737 56.5434 72.6271C55.7955 72.6773 54.3276 72.3638 54.3276 72.3638L41.6511 66.7603C41.6511 66.7603 40.2432 65.7896 39.7382 65.1041C39.2774 64.4785 38.9371 63.7287 38.7815 62.9466C38.6518 62.2946 38.8201 60.9293 38.8201 60.9293L52.2977 30.924C52.2977 30.924 53.4483 29.5509 54.2017 29.1417C54.9143 28.7546 55.7421 28.5818 56.5304 28.5845C57.1773 28.5867 58.3978 29.0545 58.3978 29.0545Z" fill="url(#paint0_linear_2307_2)"/>
<path d="M62.8669 35.8753C63.24 35.8673 63.6853 36.0137 63.8925 36.324C64.0558 36.5685 63.9093 37.2061 63.9093 37.2061L50.7841 65.1899C50.7841 65.1899 50.2613 65.6227 49.947 65.6238C49.5839 65.6249 49.1806 65.4296 48.9764 65.1294C48.8195 64.8988 48.8971 64.2964 48.8971 64.2964L62.1648 36.2192C62.1648 36.2192 62.6064 35.8809 62.8669 35.8753Z" fill="#FFEEAA"/>
<path d="M57.1895 40.5081C57.6292 40.4018 58.0964 40.3741 58.5447 40.4349C59.0398 40.502 59.4999 40.7309 59.9658 40.9114C60.5876 41.1524 61.2259 41.3735 61.796 41.7195C62.2537 41.9974 62.7105 42.3096 63.0497 42.7239C63.4458 43.2077 63.7593 43.7837 63.9104 44.3903C64.0374 44.8998 63.9884 45.4436 63.9288 45.9652C63.8703 46.4771 63.5625 47.4668 63.5625 47.4668L63.4228 48.0399C63.4228 48.0399 63.4877 48.7577 63.7273 48.9868C63.8782 49.131 64.1236 49.169 64.3317 49.1516C64.6006 49.1291 65.0664 48.8117 65.0664 48.8117L65.577 47.7415C65.577 47.7415 66.0856 46.4347 66.1447 45.7455C66.194 45.1705 66.0914 44.5863 65.9615 44.0241C65.8286 43.4484 65.6208 42.8865 65.3572 42.3577C65.1525 41.947 64.8998 41.5567 64.6064 41.204C64.2778 40.809 63.8955 40.4564 63.4893 40.1419C63.2569 39.962 62.9991 39.8164 62.7413 39.6754C62.1659 39.3607 61.5793 39.0582 60.9639 38.8313C60.382 38.6168 59.7795 38.447 59.1673 38.3472C58.5638 38.2489 57.9455 38.1877 57.336 38.2374C56.6748 38.2913 55.999 38.4027 55.3948 38.6769C54.6866 38.9983 54.0302 39.4734 53.5086 40.0503C53.0297 40.5799 52.696 41.238 52.4281 41.8999C52.1781 42.5174 52.0096 43.1772 51.9519 43.841C51.8969 44.4749 51.9666 45.1194 52.0801 45.7455C52.1938 46.3725 52.3683 46.9954 52.6295 47.5767C52.8295 48.0217 53.118 48.4229 53.3987 48.8219C53.6636 49.1986 53.9547 49.5571 54.2594 49.9024C54.5504 50.2321 54.8725 50.5329 55.181 50.8463C55.6709 51.3441 56.1906 51.8135 56.6568 52.3336C56.9619 52.674 57.2545 53.0273 57.5192 53.4001C57.8143 53.8158 58.1148 54.2357 58.3249 54.7002C58.5589 55.2175 58.765 55.7649 58.8194 56.33C58.8764 56.9225 58.7885 57.5309 58.6363 58.1063C58.5083 58.5899 58.3232 59.0732 58.0319 59.4798C57.8004 59.8029 57.5032 60.0978 57.1529 60.2855C56.7262 60.5142 56.2234 60.575 55.7428 60.6335C55.3671 60.6791 54.9821 60.6866 54.6073 60.6335C54.0758 60.5581 53.5575 60.3881 53.0602 60.1859C52.4159 59.9239 51.7953 59.5933 51.2199 59.2027C50.7831 58.9061 50.3383 58.5937 50.0107 58.1796C49.7347 57.8306 49.5568 57.4081 49.4064 56.9893C49.2267 56.4889 49.1058 55.9623 49.0585 55.4327C49.0193 54.9946 49.052 54.5498 49.1134 54.1142C49.1747 53.6788 49.3504 53.2658 49.4247 52.8324C49.4756 52.5361 49.5162 51.9351 49.5162 51.9351C49.5162 51.9351 49.2721 51.3745 49.0218 51.2392C48.7424 51.0881 48.3439 51.0425 48.0695 51.2026C47.8738 51.3168 47.7581 51.8069 47.7581 51.8069C47.7581 51.8069 47.3439 52.7309 47.2088 53.2169C47.0645 53.7362 46.9801 54.2732 46.9341 54.8101C46.8805 55.4366 46.8219 56.0777 46.9341 56.6963C47.0551 57.3634 47.3235 58.0057 47.6483 58.6008C47.849 58.9683 48.1253 59.2912 48.3992 59.608C48.6928 59.9475 49.009 60.27 49.3515 60.5602C49.6652 60.8261 50.0008 61.069 50.3552 61.2777C50.9371 61.6205 51.5596 61.8924 52.1847 62.1478C52.6407 62.3342 53.1036 62.5113 53.5818 62.6295C53.9715 62.7259 54.371 62.7974 54.7722 62.8126C55.2494 62.8307 55.7304 62.786 56.2006 62.7028C56.7125 62.6122 57.2249 62.4873 57.7023 62.2816C58.0618 62.1266 58.3945 61.9097 58.7095 61.6773C59.0921 61.395 59.4751 61.0967 59.7717 60.725C60.0853 60.332 60.3104 59.8704 60.5042 59.4065C60.6636 59.0251 60.7497 58.6167 60.8522 58.2162C60.9296 57.9135 61.0237 57.6117 61.0536 57.3006C61.1003 56.8144 61.0998 56.317 61.017 55.8356C60.9103 55.2154 60.679 54.6193 60.431 54.041C60.2232 53.5566 59.9502 53.1019 59.6801 52.6493C59.4294 52.2291 59.1763 51.8073 58.8743 51.4223C58.5481 51.0064 58.1552 50.6474 57.7941 50.2613C57.2862 49.7182 56.7634 49.1889 56.2663 48.636C55.912 48.2418 55.5283 47.8682 55.23 47.4302C54.8842 46.9224 54.5234 46.3951 54.3693 45.8004C54.2253 45.2448 54.258 44.6481 54.3327 44.079C54.4154 43.4489 54.565 42.8088 54.8637 42.2478C55.0919 41.8194 55.4106 41.4235 55.7977 41.1307C56.2031 40.8242 56.6955 40.6276 57.1895 40.5081Z" fill="#FFEEAA"/>
<path d="M74.1593 44.1124C73.6348 43.8739 72.9803 43.9505 72.4306 44.1235C71.6334 44.3746 70.9209 44.9215 70.3663 45.5468C69.617 46.3918 69.1523 47.4763 68.7903 48.5461C68.4383 49.5862 68.0893 50.7054 68.2369 51.7935C68.3137 52.3603 68.5002 53.0141 68.9652 53.3472C69.4453 53.691 70.1406 53.6217 70.7258 53.5428C71.4829 53.4407 72.3012 53.2213 72.8552 52.6952C74.3087 51.315 75.0631 49.2124 75.3648 47.2309C75.4671 46.5594 75.3808 45.8301 75.104 45.2097C74.9074 44.7689 74.5987 44.3122 74.1593 44.1124Z" fill="white"/>
<path d="M68.2592 50.6785C68.2592 50.6785 68.4699 51.5793 68.7894 51.8772C69.1121 52.1781 69.5935 52.3074 70.0343 52.3267C70.6339 52.353 71.2434 52.1446 71.7748 51.8657C72.4553 51.5086 73.0392 50.9612 73.5268 50.3673C74.005 49.785 74.3675 49.1013 74.6334 48.3963C74.8677 47.7752 75.0082 47.1111 75.0484 46.4484C75.0824 45.8863 74.8985 44.7656 74.8985 44.7656C74.8985 44.7656 75.2628 45.5369 75.325 45.9528C75.4553 46.824 75.3764 47.7297 75.1982 48.5923C75.0612 49.2555 74.7973 49.8939 74.4836 50.4941C74.1074 51.2138 73.6874 51.9385 73.1004 52.4996C72.6549 52.9254 72.1195 53.2911 71.5328 53.4794C70.9463 53.6675 70.2881 53.7355 69.6885 53.5946C69.2997 53.5033 68.9074 53.3015 68.6511 52.9953C68.368 52.6569 68.2659 52.1869 68.2016 51.7504C68.1494 51.3964 68.2592 50.6785 68.2592 50.6785Z" fill="#F3F1EC"/>
<path d="M68.958 50.3066C68.958 50.3066 69.7964 50.865 70.2784 50.9143C70.5266 50.9397 71.0077 50.7456 71.0077 50.7456L70.5615 50.2837L68.958 50.3066Z" fill="#DEAA87"/>
<path d="M70.6836 46.5444C70.6836 46.5444 71.1647 47.3875 71.5646 47.6234C71.8003 47.7624 72.3723 47.7703 72.3723 47.7703L72.1323 47.1514L70.6836 46.5444Z" fill="#DEAA87"/>
<path d="M69.75 48.2588C69.75 48.2588 70.3762 49.0177 70.8159 49.1872C71.0617 49.2821 71.6063 49.2025 71.6063 49.2025L71.2828 48.6336L69.75 48.2588Z" fill="#DEAA87"/>
<path d="M71.9375 45.0635C71.9375 45.0635 72.2712 46.0694 72.6553 46.3971C72.8393 46.5541 73.3405 46.6361 73.3405 46.6361L73.2229 45.9691L71.9375 45.0635Z" fill="#DEAA87"/>
<path d="M38.3781 74.4543C38.3781 74.4543 38.7799 73.4551 38.6855 72.9095C38.6368 72.6286 38.251 72.1099 38.251 72.1099L37.8398 72.6591L38.3781 74.4543Z" fill="#DEAA87"/>
<path d="M32.2114 74.7717C32.2114 74.7717 32.8492 73.8697 32.8647 73.3651C32.8738 73.0678 32.531 72.52 32.531 72.52L31.9932 73.0746L32.2114 74.7717Z" fill="#DEAA87"/>
<path d="M35.238 74.7866C35.238 74.7866 35.6935 73.791 35.611 73.2837C35.5649 73 35.1422 72.5244 35.1422 72.5244L34.7109 73.132L35.238 74.7866Z" fill="#DEAA87"/>
<path d="M29.1255 74.4377C29.1255 74.4377 29.8268 73.3669 29.8351 72.8103C29.8391 72.5436 29.5176 72.0986 29.5176 72.0986L28.9697 72.7303L29.1255 74.4377Z" fill="#DEAA87"/>
<defs>
<linearGradient id="paint0_linear_2307_2" x1="38.7324" y1="50.6085" x2="73.951" y2="50.6085" gradientUnits="userSpaceOnUse">
<stop stop-color="#FFDD55"/>
<stop offset="1" stop-color="#FFDD55" stop-opacity="0"/>
</linearGradient>
</defs>
</svg>
