<svg width="27" height="27" viewBox="0 0 27 27" fill="none" xmlns="http://www.w3.org/2000/svg">
<path fill-rule="evenodd" clip-rule="evenodd" d="M4.17385 17.9957L3.72239 22.1804C3.68276 22.5477 3.98999 22.858 4.35395 22.8179L8.4991 22.3622C8.88835 22.3194 9.25145 22.1437 9.52831 21.8641L22.122 9.15066C22.7932 8.47308 22.7932 7.37451 22.122 6.69694L19.6914 4.24323C19.0202 3.56565 17.932 3.56565 17.2608 4.24323L4.66713 16.9568C4.39027 17.2362 4.21624 17.6028 4.17385 17.9957ZM20.9067 3.01637L23.3373 5.47008C24.6797 6.82523 24.6797 9.02236 23.3373 10.3775L10.7436 23.091C10.1899 23.6501 9.46367 24.0014 8.68518 24.087L4.54003 24.5427C3.08421 24.7028 1.85526 23.4621 2.01381 21.9925L2.46527 17.8078C2.55005 17.022 2.89811 16.2889 3.45184 15.7298L16.0455 3.01637C17.3879 1.66121 19.5643 1.66121 20.9067 3.01637Z" fill="#D3D3D3"/>
<path fill-rule="evenodd" clip-rule="evenodd" d="M22.1221 6.69694L19.6916 4.24323C19.0204 3.56565 17.9322 3.56565 17.261 4.24323L15.8026 5.71545L20.6638 10.6229L22.1221 9.15066C22.7933 8.47308 22.7933 7.37451 22.1221 6.69694ZM20.6638 13.0766L13.3721 5.71545L16.0457 3.01637C17.3881 1.66121 19.5645 1.66121 20.9069 3.01637L23.3375 5.47008C24.6799 6.82523 24.6799 9.02237 23.3375 10.3775L20.6638 13.0766Z" fill="#D3D3D3"/>
</svg>
