<svg width="25" height="25" viewBox="0 0 25 25" fill="none" xmlns="http://www.w3.org/2000/svg">
<rect width="25" height="25" rx="5" fill="url(#paint0_linear_1688_104)"/>
<g clip-path="url(#clip0_1688_104)">
<path d="M13.4383 19.5674C13.5427 19.5674 13.6471 19.5404 13.7254 19.4863C13.882 19.3782 13.9864 19.189 13.9864 18.9998V13.108L18.8671 7.37838C18.9976 7.21622 19.0498 6.97298 18.9454 6.78379C18.841 6.59461 18.6583 6.45947 18.4495 6.45947H5.53004C5.32124 6.45947 5.11244 6.59461 5.03414 6.78379C4.95584 7.00001 4.98194 7.21622 5.11244 7.4054L10.2019 13.3513V17.6215C10.2019 17.8377 10.3324 18.0269 10.5151 18.135L13.1773 19.4863C13.2295 19.5404 13.3339 19.5674 13.4383 19.5674ZM17.2489 7.56756L13.0207 12.5134C12.9424 12.6215 12.8902 12.7567 12.8902 12.8918V18.0539L11.3242 17.2431V13.1351C11.3242 12.9999 11.272 12.8648 11.1937 12.7567L6.75674 7.56756C6.73064 7.56756 17.2489 7.56756 17.2489 7.56756Z" fill="white"/>
</g>
<defs>
<linearGradient id="paint0_linear_1688_104" x1="0" y1="0" x2="25" y2="25" gradientUnits="userSpaceOnUse">
<stop stop-color="#D38BFF"/>
<stop offset="1" stop-color="#6D73FF"/>
</linearGradient>
<clipPath id="clip0_1688_104">
<rect width="14" height="14" fill="white" transform="matrix(-1 0 0 1 19 6)"/>
</clipPath>
</defs>
</svg>
