<svg viewBox="0 0 19 19" fill="none" xmlns="http://www.w3.org/2000/svg">
<path d="M13.9225 6.04697C13.6967 7.76689 12.7271 8.45752 12.1229 8.88252C11.6646 9.21455 11.067 9.69932 10.5689 10.1509C10.2436 10.4431 10.0178 10.6688 9.8584 10.8481C9.70566 10.6755 9.47988 10.4563 9.15449 10.1642C8.64316 9.70596 8.04551 9.22119 7.60059 8.90244C6.98965 8.4708 6.02012 7.77353 5.80098 6.04033H13.9225M13.4045 1.28564H6.30566C6.30566 1.28564 5.07715 3.17822 5.07715 5.28994C5.07715 7.89307 6.41191 8.88252 7.20215 9.44697C8.11855 10.0978 9.51309 11.3396 9.51309 11.5321V16.7517H6.39199V17.6415H13.2252V16.7517H10.1904V11.5321C10.1904 11.3196 11.585 10.0845 12.5014 9.42705C13.2982 8.8626 14.633 7.87314 14.633 5.27002C14.633 3.16494 13.4045 1.28564 13.4045 1.28564ZM5.75449 5.38291C5.75449 5.34971 5.75449 5.3165 5.75449 5.28994C5.75449 3.88877 6.46504 2.52744 6.78379 1.96963H12.9264C13.2451 1.96963 13.949 3.86885 13.949 5.27002C13.949 5.30986 13.949 5.34971 13.949 5.38291H5.75449Z" fill="white"/>
</svg>
