<svg viewBox="0 0 19 19" fill="none" xmlns="http://www.w3.org/2000/svg">
<path fill-rule="evenodd" clip-rule="evenodd" d="M17.2488 2.78262C16.9584 2.54959 16.7655 2.66052 16.3934 2.67424C15.7191 2.69745 15.0554 3.04657 14.4377 3.31817C14.3739 2.80466 14.1249 1.87684 13.7375 1.53386C13.35 1.19088 12.8507 1.00105 12.3333 1H6.66659C6.14914 1.00105 5.64985 1.19088 5.2624 1.53386C4.87494 1.87684 4.62595 2.80466 4.56213 3.31817C3.94448 3.04657 3.28075 2.89512 2.60643 2.87192C2.23434 2.85819 2.04146 2.89303 1.75106 3.0402C0.695643 3.90437 1.49004 5.77568 3.08379 7.71652C3.65709 8.43601 3.82346 8.76685 4.62588 9.2168C4.79725 10.0628 5.21939 11.2199 5.83733 11.8225C6.45526 12.4252 7.24035 12.8278 8.09034 12.9779C8.0845 12.9986 8.37862 13.0202 8.37977 13.0417V14.2312H7.47376C7.2102 14.2313 7.14958 14.305 6.92559 14.4439C6.70161 14.5828 6.61964 14.5967 6.50236 14.8328L5.87988 15.9529C5.77117 16.168 5.4234 16.4076 5.43457 16.6484C5.44574 16.8892 5.4331 17.1229 5.56126 17.3271C5.68801 17.5326 5.86516 17.7022 6.07591 17.82C6.28666 17.9378 6.42517 17.815 6.66659 17.8153H12.3333C12.5747 17.815 12.7132 17.9378 12.9239 17.82C13.1347 17.7022 13.3118 17.5326 13.4386 17.3271C13.5668 17.1229 13.5541 16.8892 13.5653 16.6484C13.5765 16.4076 13.2287 16.168 13.12 15.9529L12.5105 14.8328C12.3932 14.5967 12.4101 14.5828 12.1861 14.4439C11.9621 14.305 11.8885 14.2313 11.6249 14.2312H10.6201V13.0417C10.6212 13.0202 10.6188 12.9986 10.613 12.9779C11.463 12.8278 12.5446 12.4252 13.1625 11.8225C13.7805 11.2199 14.2026 9.9769 14.374 9.13094C15.1764 8.68099 15.5874 8.00671 16.1607 7.28722C17.7544 5.34639 18.3042 3.64679 17.2488 2.78262ZM4.54159 7.8425C4.534 7.83137 4.52439 8.67235 4.51326 8.36825C4.06399 8.10007 3.79053 7.45866 3.52311 7.1394C3.02761 6.54786 2.48509 5.89737 2.25466 5.18559C2.19091 4.98017 1.57934 3.81686 2.29008 3.62858C3.00164 3.65718 3.98244 3.81123 4.54159 4.25224V7.8425ZM11.7238 14.969L12.7286 17.0775H6.09953L7.27609 14.969H11.7238ZM13.7075 8.76333C13.7075 9.51741 13.1394 10.8211 12.6088 11.3569C12.0783 11.8928 10.9623 12.2834 10.2083 12.2909H8.79159C8.03755 12.2834 6.90861 11.9657 6.37805 11.4298C5.8475 10.894 5.29232 9.51741 5.29236 8.76333V5.94417V3.125C5.29528 2.93805 5.52958 2.20549 5.66179 2.07328C5.794 1.94107 6.18313 1.75368 6.37008 1.75076H12.6298C12.8167 1.75368 13.3646 2.12576 13.4968 2.25797C13.629 2.39018 13.7046 2.93805 13.7075 3.125V5.94417V8.76333ZM17.0893 4.73034C16.8589 5.44212 16.1472 6.35917 15.6621 6.92875C15.3947 7.248 14.8044 7.8407 14.4873 8.11068C14.4762 8.41478 14.4666 8.12788 14.459 8.13901V4.25224C15.0183 3.81109 15.9994 3.45936 16.7112 3.4309C17.2588 4.06395 17.1517 4.52492 17.0893 4.73034Z" fill="white"/>
</svg>
