<svg viewBox="0 0 19 19" fill="none" xmlns="http://www.w3.org/2000/svg">
<path d="M16.7758 5.09077L13.5485 2.06161C13.4352 1.94839 13.2937 1.83513 13.1521 1.7502C12.8973 1.58034 12.6142 1.43878 12.3311 1.38218C11.9853 1.31012 11.6526 1.24978 11.3286 1.20094C11.2885 1.15539 11.2297 1.12739 11.1704 1.12739C10.0097 0.957536 8.93398 0.957536 7.80157 1.12739C7.74375 1.12739 7.69916 1.15407 7.65865 1.19763C7.3471 1.24646 7.02812 1.3077 6.69749 1.38218C6.41441 1.43881 6.13129 1.55204 5.8482 1.7502C5.70664 1.83513 5.59341 1.92005 5.48018 2.03328L2.22458 5.06243C2.16795 5.11906 2.13965 5.17566 2.13965 5.26059C2.13965 5.34552 2.16795 5.40215 2.22458 5.45875L3.66837 6.87425C3.7816 6.95917 3.95146 6.95917 4.06472 6.87425L5.53682 5.60031V16.4429C5.53682 17.2922 6.24455 18 7.09384 18C7.94313 18 8.65086 17.2922 8.65086 16.4429V13.1873C8.65086 12.7061 9.01888 12.338 9.50015 12.338C9.98143 12.338 10.3494 12.7061 10.3494 13.1873V16.4429C10.3494 17.2922 11.0572 18 11.9065 18C12.7558 18 13.4635 17.2922 13.4635 16.4429V5.60034L14.9639 6.93091C15.0771 7.01584 15.247 7.01584 15.3603 6.90261L16.7758 5.48711C16.8324 5.43048 16.8607 5.37389 16.8607 5.28896C16.8607 5.20403 16.8324 5.14736 16.7758 5.09077ZM10.7458 1.66527L10.1796 2.88257C10.0097 3.16566 9.72664 3.27892 9.50015 3.27892C9.18874 3.27892 8.96228 3.13736 8.84902 2.88257L8.28285 1.66527C9.10384 1.55204 9.8965 1.55204 10.7458 1.66527ZM15.1621 6.27977L13.3786 4.75105C13.2937 4.69442 13.1804 4.66612 13.0672 4.72275C12.954 4.77938 12.8973 4.86431 12.8973 4.97754V16.443C12.8973 16.9808 12.4444 17.4338 11.9065 17.4338C11.3686 17.4338 10.9156 16.9809 10.9156 16.443V13.1873C10.9156 12.3947 10.2928 11.7718 9.50012 11.7718C8.70743 11.7718 8.08462 12.3946 8.11296 13.1873V16.4146C8.11296 16.9525 7.66001 17.4055 7.1221 17.4055C6.5842 17.4055 6.13125 16.9526 6.13125 16.4146V4.94921C6.13125 4.83598 6.07462 4.75105 5.96139 4.69442C5.84817 4.66612 5.73491 4.66612 5.64998 4.75105L3.89476 6.27977L2.84731 5.26062L5.87647 2.40133C5.96139 2.3164 6.04632 2.23147 6.15955 2.17484C6.35771 2.03328 6.5842 1.94835 6.81069 1.89176C7.1151 1.82461 7.40887 1.76814 7.69551 1.72223L8.33941 3.10906C8.53757 3.56201 8.99055 3.84513 9.50012 3.84513C10.0097 3.84513 10.4626 3.56204 10.6325 3.08076L11.276 1.71958C11.5712 1.76599 11.8744 1.82325 12.1895 1.89176C12.416 1.94839 12.6425 2.03332 12.8407 2.17484C12.9539 2.25977 13.0671 2.3447 13.1521 2.42963L16.1812 5.26059L15.1621 6.27977Z" fill="white"/>
<path d="M12.0478 5.82666H6.95204C6.78218 5.82666 6.66895 5.93989 6.66895 6.10975V8.37454C6.66895 8.85581 7.03697 9.22383 7.51824 9.22383H11.4816C11.9629 9.22383 12.3309 8.85581 12.3309 8.37454V6.10975C12.3309 5.93992 12.2176 5.82666 12.0478 5.82666ZM11.7647 8.37454C11.7647 8.54439 11.6515 8.65762 11.4816 8.65762H7.51824C7.34839 8.65762 7.23516 8.54439 7.23516 8.37454V6.39287H11.7647V8.37454Z" fill="white"/>
<path d="M8.36707 7.52516H9.78257V7.80824C9.78257 7.9781 9.89579 8.09133 10.0656 8.09133C10.2355 8.09133 10.3487 7.9781 10.3487 7.80824V7.52516H10.6318C10.8017 7.52516 10.9149 7.41193 10.9149 7.24207C10.9149 7.07221 10.8017 6.95898 10.6318 6.95898H8.36707C8.19721 6.95898 8.08398 7.07221 8.08398 7.24207C8.08398 7.41193 8.19721 7.52516 8.36707 7.52516Z" fill="white"/>
</svg>
