<svg viewBox="0 0 19 19" fill="none" xmlns="http://www.w3.org/2000/svg">
<path d="M5.15229 14.0928C4.34675 14.0928 3.69141 14.7481 3.69141 15.5536C3.69141 16.3592 4.34678 17.0145 5.15229 17.0145C5.9578 17.0145 6.61316 16.3592 6.61316 15.5536C6.61316 14.7481 5.9578 14.0928 5.15229 14.0928ZM5.15229 16.4171C4.67615 16.4171 4.28884 16.0298 4.28884 15.5537C4.28884 15.0776 4.67619 14.6902 5.15229 14.6902C5.62839 14.6902 6.01574 15.0776 6.01574 15.5537C6.01574 16.0298 5.62839 16.4171 5.15229 16.4171Z" fill="white"/>
<path d="M13.6581 14.0928C12.8526 14.0928 12.1973 14.7481 12.1973 15.5536C12.1973 16.3592 12.8526 17.0145 13.6581 17.0145C14.4637 17.0145 15.119 16.3592 15.119 15.5536C15.119 14.7481 14.4636 14.0928 13.6581 14.0928ZM13.6581 16.4171C13.182 16.4171 12.7947 16.0297 12.7947 15.5536C12.7947 15.0775 13.182 14.6902 13.6581 14.6902C14.1343 14.6902 14.5216 15.0775 14.5216 15.5536C14.5216 16.0297 14.1342 16.4171 13.6581 16.4171Z" fill="white"/>
<path d="M17.9948 4.42979H17.0085C16.9115 4.42979 16.8205 4.4769 16.7645 4.55616L15.6097 6.19102H9.54735L11.2335 1.39784C11.2656 1.30643 11.2514 1.20513 11.1954 1.12607C11.1394 1.04698 11.0485 1 10.9516 1H7.42821C4.87177 1 2.79195 3.07981 2.79195 5.63629V7.10899C2.79195 9.39582 4.41698 11.3101 6.5729 11.7581L8.7345 12.7719L6.75429 13.7066C6.32474 13.3335 5.76477 13.1069 5.15257 13.1069C3.80352 13.1069 2.70605 14.2045 2.70605 15.5535C2.70605 16.9025 3.80359 18 5.15257 18C6.50154 18 7.59908 16.9024 7.59908 15.5535C7.59908 15.3606 7.57593 15.1731 7.53357 14.993H11.2769C11.2346 15.1731 11.2114 15.3606 11.2114 15.5535C11.2114 16.9025 12.3089 18 13.6579 18C15.0069 18 16.1044 16.9024 16.1044 15.5535C16.1044 14.2044 15.0069 13.1069 13.6579 13.1069C13.0587 13.1069 12.5094 13.3239 12.0835 13.6829L10.1378 12.7702L12.2824 11.7579C14.4381 11.3098 16.063 9.39559 16.063 7.10889V6.58481L17.1633 5.02718H17.9948C18.1597 5.02718 18.2935 4.89344 18.2935 4.72849C18.2935 4.56353 18.1597 4.42979 17.9948 4.42979ZM9.42422 1.59739H10.53L9.42422 4.74064V1.59739ZM3.38934 5.63629C3.38934 3.40922 5.20118 1.59742 7.42821 1.59742H8.82681V6.19102H3.38934V5.63629ZM5.15253 17.4026C4.13293 17.4026 3.30345 16.5731 3.30345 15.5536C3.30345 14.534 4.13296 13.7045 5.15253 13.7045C6.1721 13.7045 7.00162 14.534 7.00162 15.5536C7.00165 16.5731 6.17215 17.4026 5.15253 17.4026ZM13.6579 13.7044C14.6775 13.7044 15.507 14.5339 15.507 15.5535C15.507 16.5731 14.6775 17.4025 13.6579 17.4025C12.6383 17.4025 11.8088 16.573 11.8088 15.5535C11.8088 14.5339 12.6383 13.7044 13.6579 13.7044ZM11.66 14.1441C11.603 14.2246 11.5504 14.3084 11.5033 14.3957H7.30712C7.26528 14.3182 7.2193 14.2433 7.16966 14.1711L9.43647 13.1012L11.66 14.1441ZM9.43569 12.441L8.19116 11.8573H10.6724L9.43569 12.441ZM11.3147 11.2599H7.54024C5.25144 11.2599 3.38938 9.39778 3.38938 7.10899V6.78841H8.82693V6.95008C8.82693 7.61793 9.37031 8.1613 10.0381 8.1613H15.3303C14.8632 9.94218 13.24 11.2599 11.3147 11.2599ZM15.4405 7.56384H10.0381C9.69965 7.56384 9.42426 7.28848 9.42426 6.95001V6.78834H15.4655V7.10892C15.4655 7.26269 15.4569 7.41442 15.4405 7.56384Z" fill="white"/>
</svg>
