<svg width="19" height="19" viewBox="0 0 19 19" fill="none" xmlns="http://www.w3.org/2000/svg">
<path d="M16.3165 7.45243C15.405 4.93852 13.4901 3.1795 10.7433 2.55142C10.6993 2.53529 10.6521 2.52295 10.5987 2.51992C10.5656 2.85537 10.5298 2.51847 10.4963 2.51698C10.1683 2.47309 9.8523 2.45508 9.51554 2.45508C6.3118 2.45508 3.37302 4.51365 2.45824 7.45243C1.11672 7.46813 0.265625 8.45789 0.265625 9.8038C0.265625 11.1491 1.34319 11.8598 2.68501 11.8754C3.73637 14.7746 6.33535 16.7894 9.50037 16.7894C10.7324 16.7894 11.7901 16.4625 12.8397 15.9222C12.5989 15.7116 12.4914 15.7181 12.284 15.4697C11.428 15.8642 10.4822 16.0871 9.50037 16.0871C6.61054 16.0871 4.01666 14.1979 3.19207 11.4932L3.07649 11.1142L2.68501 11.1729C2.59699 11.1861 2.52453 11.1917 2.45824 11.1917C1.60985 11.1917 0.919864 10.5017 0.919864 9.65329C0.919864 8.80519 1.60985 8.11477 2.45824 8.11477C2.52453 8.11477 2.59699 8.12108 2.68559 8.1337L2.91534 8.11477L3.07678 7.45243C3.63578 5.61882 5.30804 4.1704 7.03445 3.42135C6.64898 4.27499 7.30827 5.66457 8.11842 6.04603C9.17065 6.54145 10.5565 6.60439 11.2981 5.49199C11.6325 4.99062 11.341 4.36567 10.9368 4.02261C10.19 3.73355 9.93767 3.61127 9.26512 3.87808C8.72082 4.0941 8.71335 4.901 9.26512 4.68228C9.66499 4.52402 10.2151 4.47179 10.5987 4.68228C11.125 4.97167 10.2447 5.60299 9.87687 5.70879C9.19131 5.90593 8.19685 5.46738 7.66074 4.98614C6.98425 4.37878 7.57923 3.47849 8.11842 3.28988C8.70338 3.08498 9.79376 3.13303 10.4124 3.15543C12.9135 3.51145 15.0745 5.40382 15.809 7.81328L15.9246 8.19185L16.3159 8.13409C16.4039 8.12113 16.4766 8.11515 16.543 8.11515C17.3913 8.11515 18.0814 8.80528 18.0814 9.65396C18.0814 10.5018 17.3914 11.1923 16.543 11.1923C16.4766 11.1923 16.4039 11.1862 16.3165 11.1732L15.9246 11.1148L15.809 11.4938C15.7679 11.6282 15.7193 11.7599 15.6696 11.8904C15.809 11.8576 15.9539 11.8388 16.1029 11.8388C16.4303 11.8388 16.7372 11.7305 17.007 11.8754C18.14 11.6572 18.7173 10.8498 18.7173 9.65329C18.717 8.30723 17.6586 7.46784 16.3165 7.45243Z" fill="white"/>
<path d="M7.55854 9.18066C6.76825 9.18066 6.76825 10.4063 7.55854 10.4063C8.34883 10.4063 8.34912 9.18066 7.55854 9.18066Z" fill="white"/>
<path d="M11.4406 9.104C10.65 9.104 10.65 10.3299 11.4406 10.3299C12.2309 10.3296 12.2312 9.104 11.4406 9.104Z" fill="white"/>
<path d="M9.49992 13.4836C10.4965 13.4836 11.3078 12.6725 11.3078 11.676C11.3078 11.4213 11.1017 11.2163 10.8479 11.2163C10.5944 11.2163 10.6472 11.4216 10.6472 11.676C10.6472 12.1659 9.98954 12.7906 9.49992 12.7906C9.0103 12.7906 8.35886 12.1659 8.35886 11.676C8.35886 11.4213 8.40588 11.2163 8.15208 11.2163C7.89814 11.2163 7.69238 11.4216 7.69238 11.676C7.69214 12.6725 8.50324 13.4836 9.49992 13.4836Z" fill="white"/>
<path d="M14.7803 13.0797C13.2 11.8752 11.7065 13.8987 14.7803 16.2834C18.0177 13.8505 16.3074 11.8993 14.7803 13.0797ZM14.7803 15.6089C13.2687 14.6213 13.465 12.9351 14.1154 13.2248C14.4765 13.3694 14.5113 13.4677 14.7803 13.7227C15.0487 13.4684 15.227 13.3212 15.5885 13.2248C16.2833 12.9351 16.4298 14.4527 14.7803 15.6089Z" fill="white"/>
</svg>
