<svg viewBox="0 0 19 19" fill="none" xmlns="http://www.w3.org/2000/svg">
<path d="M16.2057 6.70589C16.2057 4.73 15.5244 3.03488 14.2355 1.80381C13.0176 0.640582 11.3358 0 9.49983 0C7.66388 0 5.98205 0.640582 4.76416 1.80381C3.47524 3.03488 2.79395 4.73 2.79395 6.70589C2.79395 10.4981 5.30877 13.8479 8.49528 14.4373L8.03973 15.5004C7.99045 15.6154 8.00221 15.7402 8.07116 15.8449C8.14011 15.9493 8.25692 16.005 8.38216 16.005H9.13768V18.6275C9.13768 18.8332 9.30448 19 9.51021 19C9.71595 19 9.88276 18.8332 9.88276 18.6275V16.005H10.6175C10.7427 16.005 10.8595 15.9493 10.9285 15.8449C10.9974 15.7402 11.0092 15.6118 10.9599 15.4967L10.5043 14.4355C13.6909 13.8461 16.2057 10.4981 16.2057 6.70589ZM9.93575 13.7644C9.817 13.7752 9.71064 13.8422 9.6496 13.9447C9.58855 14.0471 9.58024 14.1653 9.62718 14.2748L10.0525 15.2599H8.94713L9.37244 14.2748C9.41938 14.1653 9.41107 14.0434 9.35002 13.941C9.28898 13.8386 9.18262 13.7734 9.06387 13.7626C6.01745 13.4844 3.53903 10.3189 3.53903 6.70496C3.53903 3.1953 5.99021 0.744637 9.49979 0.744637C13.0094 0.744637 15.4606 3.19604 15.4606 6.70559C15.4606 10.3195 12.9822 13.4863 9.93575 13.7644Z" fill="white"/>
</svg>
