<svg width="19" height="19" viewBox="0 0 19 19" fill="none" xmlns="http://www.w3.org/2000/svg">
<path d="M16.9375 15.6094H16.6719V14.8126C16.6719 14.7421 16.6439 14.6745 16.5941 14.6247C16.5443 14.5749 16.4767 14.5469 16.4062 14.5469H16.1406V8.17193H16.4062C16.4767 8.17193 16.5443 8.14394 16.5941 8.09413C16.6439 8.04431 16.6719 7.97675 16.6719 7.9063V6.8438C16.6731 6.83588 16.6731 6.82782 16.6719 6.8199C16.6741 6.80226 16.6741 6.78441 16.6719 6.76677L16.6559 6.72161L16.6267 6.68177C16.6164 6.66666 16.6039 6.65322 16.5895 6.64193L16.5736 6.62599L9.66734 1.84474C9.62288 1.81389 9.57004 1.79736 9.51593 1.79736C9.46181 1.79736 9.40899 1.81389 9.36452 1.84474L2.45828 6.62599L2.44233 6.64193C2.42797 6.65322 2.41542 6.66666 2.40515 6.68177L2.37594 6.72161L2.35999 6.76677C2.35774 6.78441 2.35774 6.80226 2.35999 6.8199C2.34745 6.82493 2.33646 6.83318 2.32811 6.8438V7.9063C2.32811 7.97675 2.35611 8.04431 2.40592 8.09413C2.45574 8.14394 2.52329 8.17193 2.59374 8.17193H2.85938V14.5469H2.59374C2.52329 14.5469 2.45574 14.5749 2.40592 14.6247C2.35611 14.6745 2.32811 14.7421 2.32811 14.8126V15.6094H2.06249C1.99204 15.6094 1.92449 15.6374 1.87467 15.6872C1.82486 15.737 1.79688 15.8046 1.79688 15.8751V16.9376C1.79688 17.008 1.82486 17.0756 1.87467 17.1254C1.92449 17.1752 1.99204 17.2032 2.06249 17.2032H16.9375C17.0079 17.2032 17.0755 17.1752 17.1253 17.1254C17.1751 17.0756 17.2031 17.008 17.2031 16.9376V15.8751C17.2031 15.8046 17.1751 15.737 17.1253 15.6872C17.0755 15.6374 17.0079 15.6094 16.9375 15.6094ZM15.6094 14.5469H15.0781V8.17193H15.6094V14.5469ZM12.4219 14.5469V8.17193H14.5469V14.5469H12.4219ZM8.17188 14.5469V8.17193H10.8281V14.5469H8.17188ZM4.45312 14.5469V8.17193H6.57812V14.5469H4.45312ZM7.10938 8.17193H7.64062V14.5469H7.10938V8.17193ZM11.3594 8.17193H11.8906V14.5469H11.3594V8.17193ZM16.1406 7.64068H2.85938V7.10943H16.1406V7.64068ZM9.5 2.38661L15.5562 6.57818H3.44374L9.5 2.38661ZM3.39061 8.17193H3.92188V14.5469H3.39061V8.17193ZM2.85938 15.0782H16.1406V15.6094H2.85938V15.0782ZM16.6719 16.6719H2.32811V16.1407H16.6719V16.6719Z" fill="white"/>
<path d="M8.17188 5.78142H10.8281C10.8986 5.78142 10.9661 5.75343 11.016 5.70362C11.0658 5.6538 11.0938 5.58624 11.0938 5.51579C11.0938 5.44534 11.0658 5.37778 11.016 5.32797C10.9661 5.27815 10.8986 5.25017 10.8281 5.25017H10.5253C10.4641 5.02509 10.3306 4.82638 10.1453 4.68472C9.96001 4.54306 9.73325 4.46631 9.5 4.46631C9.26675 4.46631 9.03999 4.54306 8.85469 4.68472C8.66939 4.82638 8.53586 5.02509 8.47469 5.25017H8.17188C8.10143 5.25017 8.03386 5.27815 7.98405 5.32797C7.93424 5.37778 7.90625 5.44534 7.90625 5.51579C7.90625 5.58624 7.93424 5.6538 7.98405 5.70362C8.03386 5.75343 8.10143 5.78142 8.17188 5.78142ZM9.5 4.98454C9.59271 4.9851 9.68366 5.00991 9.76381 5.05651C9.84396 5.10311 9.91052 5.16988 9.95688 5.25017H9.04313C9.08948 5.16988 9.15604 5.10311 9.23619 5.05651C9.31634 5.00991 9.40729 4.9851 9.5 4.98454Z" fill="white"/>
</svg>
