<svg viewBox="0 0 19 19" fill="none" xmlns="http://www.w3.org/2000/svg">
<path d="M14.0807 4.17028L14.4632 3.7878C14.5215 3.72742 14.5538 3.64654 14.553 3.56259C14.5523 3.47864 14.5186 3.39834 14.4593 3.33897C14.3999 3.27961 14.3196 3.24594 14.2356 3.24521C14.1517 3.24448 14.0708 3.27675 14.0104 3.33507L13.5465 3.79894C13.3994 3.70536 13.2502 3.61491 13.0966 3.53128L13.8569 2.46679C13.9039 2.39763 13.922 2.31282 13.9073 2.23049C13.8926 2.14817 13.8463 2.07487 13.7782 2.02626C13.7102 1.97765 13.6258 1.95759 13.5432 1.97038C13.4605 1.98317 13.3862 2.02778 13.336 2.09468L12.5131 3.2468C12.3813 3.18898 12.248 3.13391 12.1125 3.08332L12.2822 2.74413C12.3201 2.66817 12.3264 2.58023 12.2995 2.49967C12.2727 2.4191 12.2149 2.3525 12.139 2.31451C12.063 2.27653 11.9751 2.27028 11.8945 2.29713C11.8139 2.32398 11.7473 2.38174 11.7094 2.4577L11.4961 2.88411C11.2736 2.82206 11.0472 2.77 10.817 2.72792L11.3325 1.43902C11.3481 1.39998 11.3559 1.35824 11.3554 1.31619C11.3548 1.27414 11.346 1.23261 11.3294 1.19397C11.3129 1.15532 11.2888 1.12032 11.2587 1.09096C11.2286 1.06161 11.193 1.03846 11.154 1.02286C11.1149 1.00726 11.0732 0.999494 11.0312 1.00003C10.9891 1.00055 10.9476 1.00936 10.9089 1.02594C10.8703 1.04251 10.8353 1.06654 10.8059 1.09665C10.7766 1.12675 10.7534 1.16234 10.7378 1.20139L10.1638 2.63648C10.009 2.62179 9.85273 2.61279 9.69543 2.60767L9.74822 2.34368C9.76403 2.26077 9.74645 2.17498 9.69932 2.10496C9.65219 2.03494 9.57932 1.98637 9.49656 1.9698C9.4138 1.95323 9.32785 1.97001 9.2574 2.01649C9.18695 2.06296 9.1377 2.13538 9.12036 2.21798L9.04176 2.61096C8.74399 2.62662 8.44739 2.65961 8.15346 2.70977V1.64038C8.15346 1.55547 8.11973 1.47403 8.05968 1.41399C7.99964 1.35394 7.9182 1.32021 7.83329 1.32021C7.74837 1.32021 7.66693 1.35394 7.60689 1.41399C7.54684 1.47403 7.51311 1.55547 7.51311 1.64038V2.84424C7.29603 2.90031 7.08331 2.96706 6.87407 3.04125L6.54022 1.87286C6.52937 1.83167 6.51041 1.79307 6.48444 1.7593C6.45848 1.72553 6.42604 1.69728 6.38903 1.67621C6.35201 1.65513 6.31116 1.64166 6.26887 1.63657C6.22658 1.63148 6.1837 1.63488 6.14274 1.64657C6.10178 1.65826 6.06357 1.678 6.03034 1.70465C5.9971 1.73129 5.96952 1.7643 5.94921 1.80174C5.92889 1.83918 5.91625 1.88029 5.91202 1.92268C5.9078 1.96506 5.91207 2.00786 5.92459 2.04858L6.2771 3.28237C6.07112 3.37563 5.87012 3.4774 5.67408 3.58769L5.53827 3.384C5.51513 3.34859 5.48521 3.31813 5.45023 3.29435C5.41525 3.27058 5.37591 3.25397 5.33447 3.24549C5.29304 3.23701 5.25034 3.23682 5.20883 3.24493C5.16732 3.25304 5.12783 3.2693 5.09264 3.29276C5.05745 3.31622 5.02726 3.34642 5.00381 3.38162C4.98036 3.41681 4.96411 3.4563 4.95601 3.49781C4.94791 3.53932 4.94811 3.58203 4.9566 3.62346C4.96509 3.66489 4.98171 3.70423 5.00549 3.7392L5.12863 3.92391C3.78049 4.83519 2.75638 6.15085 2.20379 7.68139C1.6512 9.21193 1.59866 10.8784 2.05373 12.4407C2.5088 14.003 3.44799 15.3806 4.73605 16.375C6.0241 17.3694 7.59453 17.9293 9.22115 17.9741C10.8478 18.0189 12.4466 17.5462 13.7875 16.6242C15.1283 15.7022 16.1419 14.3784 16.6823 12.8435C17.2226 11.3086 17.2619 9.64184 16.7944 8.0832C16.3268 6.52457 15.3767 5.15438 14.0807 4.17028ZM9.43416 17.329C7.927 17.3294 6.45946 16.8463 5.24732 15.9506C4.03517 15.0549 3.14238 13.794 2.7002 12.3531C2.25802 10.9123 2.2898 9.36759 2.79085 7.94615C3.2919 6.52471 4.23579 5.30154 5.48374 4.45646L5.64584 4.69957C5.69331 4.76937 5.76642 4.8176 5.84926 4.83377C5.9321 4.84994 6.01798 4.83275 6.08821 4.78592C6.15844 4.7391 6.20734 4.66644 6.22427 4.58375C6.2412 4.50105 6.2248 4.41502 6.17862 4.34436L6.02983 4.1212C6.16868 4.04419 6.31036 3.97192 6.45486 3.90441L6.56494 4.28965C6.58404 4.35656 6.62441 4.41543 6.67995 4.45735C6.73549 4.49927 6.80317 4.52195 6.87276 4.52197C6.90257 4.52189 6.93223 4.51778 6.96093 4.50977C7.04255 4.48638 7.11154 4.43156 7.15275 4.35734C7.19396 4.28312 7.20403 4.19557 7.18074 4.11393L7.05014 3.65749C7.64965 3.44179 8.27582 3.309 8.91129 3.26281L8.80022 3.81876C8.78355 3.90202 8.80064 3.98849 8.84773 4.05915C8.89481 4.12981 8.96804 4.17887 9.0513 4.19555C9.07208 4.19982 9.09325 4.20196 9.11447 4.20195C9.18842 4.20187 9.26006 4.1762 9.31723 4.12929C9.3744 4.08238 9.41357 4.01713 9.42808 3.94462L9.56803 3.24482C10.4489 3.26013 11.319 3.4416 12.1326 3.7797L11.7352 4.33607C11.7096 4.37021 11.6911 4.40912 11.6808 4.45052C11.6704 4.49192 11.6684 4.53497 11.675 4.57714C11.6815 4.61931 11.6964 4.65975 11.7188 4.69608C11.7411 4.73242 11.7705 4.76391 11.8053 4.78872C11.84 4.81352 11.8793 4.83113 11.9209 4.84052C11.9626 4.8499 12.0057 4.85087 12.0477 4.84337C12.0897 4.83587 12.1298 4.82004 12.1656 4.79683C12.2014 4.77361 12.2322 4.74347 12.2562 4.70818L12.7207 4.05777C12.8436 4.12283 12.965 4.19029 13.0835 4.2623L13.05 4.29576C13.0195 4.3253 12.9951 4.36063 12.9783 4.39969C12.9615 4.43875 12.9527 4.48076 12.9523 4.52328C12.9519 4.56579 12.96 4.60795 12.9761 4.6473C12.9922 4.68665 13.016 4.7224 13.0461 4.75246C13.0761 4.78252 13.1119 4.80629 13.1512 4.82239C13.1906 4.83849 13.2327 4.84659 13.2752 4.84622C13.3178 4.84585 13.3598 4.83702 13.3988 4.82024C13.4379 4.80346 13.4732 4.77907 13.5028 4.74849L13.6242 4.62708C14.8157 5.50845 15.6986 6.74328 16.1474 8.15572C16.5961 9.56815 16.5878 11.0862 16.1235 12.4936C15.6592 13.901 14.7627 15.126 13.5616 15.9942C12.3606 16.8624 10.9162 17.3295 9.43416 17.329Z" fill="white"/>
<path d="M11.9951 6.12305C11.5519 6.12305 11.1185 6.25449 10.75 6.50076C10.3814 6.74703 10.0941 7.09706 9.92451 7.5066C9.75488 7.91613 9.71049 8.36676 9.79697 8.80152C9.88345 9.23628 10.0969 9.63563 10.4103 9.94907C10.7238 10.2625 11.1231 10.476 11.5579 10.5624C11.9926 10.6489 12.4433 10.6045 12.8528 10.4349C13.2623 10.2653 13.6124 9.97801 13.8586 9.60944C14.1049 9.24087 14.2364 8.80755 14.2364 8.36428C14.2356 7.77009 13.9993 7.20044 13.5791 6.78028C13.159 6.36013 12.5893 6.12377 11.9951 6.12305ZM11.9951 9.96516C11.6263 9.96465 11.2689 9.837 10.9831 9.60371C10.6974 9.37042 10.5009 9.04576 10.4266 8.68445H11.3548C11.3548 8.85428 11.4222 9.01716 11.5423 9.13725C11.6624 9.25734 11.8253 9.3248 11.9951 9.3248C12.165 9.3248 12.3278 9.25734 12.4479 9.13725C12.568 9.01716 12.6355 8.85428 12.6355 8.68445H13.5636C13.4894 9.04576 13.2928 9.37042 13.0071 9.60371C12.7214 9.837 12.364 9.96465 11.9951 9.96516Z" fill="white"/>
<path d="M6.87307 10.6055C7.31634 10.6055 7.74966 10.4741 8.11823 10.2278C8.4868 9.98152 8.77406 9.63149 8.9437 9.22196C9.11333 8.81243 9.15771 8.36179 9.07123 7.92704C8.98476 7.49228 8.7713 7.09293 8.45786 6.77949C8.14442 6.46605 7.74507 6.25259 7.31031 6.16611C6.87555 6.07963 6.42492 6.12402 6.01539 6.29365C5.60586 6.46328 5.25582 6.75055 5.00955 7.11912C4.76328 7.48769 4.63184 7.921 4.63184 8.36428C4.63252 8.95848 4.86887 9.52815 5.28904 9.94831C5.7092 10.3685 6.27887 10.6048 6.87307 10.6055ZM6.87307 9.96516C6.50421 9.96465 6.1468 9.837 5.86109 9.60371C5.57537 9.37042 5.37882 9.04576 5.30456 8.68445H6.23272C6.23272 8.85429 6.30018 9.01716 6.42027 9.13725C6.54036 9.25734 6.70324 9.32481 6.87307 9.32481C7.0429 9.32481 7.20578 9.25734 7.32586 9.13725C7.44595 9.01716 7.51342 8.85429 7.51342 8.68445H8.44158C8.36732 9.04576 8.17076 9.37042 7.88505 9.60371C7.59933 9.837 7.24193 9.96465 6.87307 9.96516Z" fill="white"/>
<path d="M7.30092 13.1621C7.235 13.2156 7.19305 13.2932 7.18431 13.3777C7.17558 13.4622 7.20077 13.5467 7.25433 13.6126C7.3079 13.6785 7.38547 13.7205 7.46996 13.7292C7.55446 13.738 7.63896 13.7128 7.70489 13.6592C8.44356 13.0586 9.28543 13.0886 10.2081 13.7474C10.2624 13.7862 10.3274 13.8071 10.3942 13.8071C10.4279 13.807 10.4613 13.8017 10.4934 13.7915C10.541 13.776 10.5843 13.7495 10.6198 13.7142C10.6554 13.6789 10.6821 13.6357 10.6979 13.5882L11.0181 12.6277C11.0422 12.5479 11.0342 12.4619 10.9959 12.3879C10.9576 12.3139 10.892 12.2577 10.8129 12.2313C10.7339 12.2049 10.6476 12.2104 10.5726 12.2466C10.4975 12.2828 10.4395 12.3468 10.4109 12.4251L10.2208 12.995C8.84583 12.2084 7.81416 12.7449 7.30092 13.1621Z" fill="white"/>
<path d="M15.1971 12.2063C15.374 12.2063 15.5173 12.0629 15.5173 11.8861C15.5173 11.7093 15.374 11.5659 15.1971 11.5659C15.0203 11.5659 14.877 11.7093 14.877 11.8861C14.877 12.0629 15.0203 12.2063 15.1971 12.2063Z" fill="white"/>
<path d="M14.8768 11.2458C15.0536 11.2458 15.197 11.1025 15.197 10.9256C15.197 10.7488 15.0536 10.6055 14.8768 10.6055C14.7 10.6055 14.5566 10.7488 14.5566 10.9256C14.5566 11.1025 14.7 11.2458 14.8768 11.2458Z" fill="white"/>
<path d="M15.1971 13.1667C15.374 13.1667 15.5173 13.0234 15.5173 12.8465C15.5173 12.6697 15.374 12.5264 15.1971 12.5264C15.0203 12.5264 14.877 12.6697 14.877 12.8465C14.877 13.0234 15.0203 13.1667 15.1971 13.1667Z" fill="white"/>
<path d="M12.6356 15.0876C12.8124 15.0876 12.9558 14.9443 12.9558 14.7674C12.9558 14.5906 12.8124 14.4473 12.6356 14.4473C12.4588 14.4473 12.3154 14.5906 12.3154 14.7674C12.3154 14.9443 12.4588 15.0876 12.6356 15.0876Z" fill="white"/>
<path d="M6.23229 15.7282C6.40911 15.7282 6.55246 15.5849 6.55246 15.4081C6.55246 15.2312 6.40911 15.0879 6.23229 15.0879C6.05546 15.0879 5.91211 15.2312 5.91211 15.4081C5.91211 15.5849 6.05546 15.7282 6.23229 15.7282Z" fill="white"/>
<path d="M6.8729 14.7678C7.04973 14.7678 7.19308 14.6244 7.19308 14.4476C7.19308 14.2708 7.04973 14.1274 6.8729 14.1274C6.69607 14.1274 6.55273 14.2708 6.55273 14.4476C6.55273 14.6244 6.69607 14.7678 6.8729 14.7678Z" fill="white"/>
<path d="M8.4735 16.6887C8.65032 16.6887 8.79367 16.5453 8.79367 16.3685C8.79367 16.1917 8.65032 16.0483 8.4735 16.0483C8.29667 16.0483 8.15332 16.1917 8.15332 16.3685C8.15332 16.5453 8.29667 16.6887 8.4735 16.6887Z" fill="white"/>
<path d="M11.3553 15.0876C11.5322 15.0876 11.6755 14.9443 11.6755 14.7674C11.6755 14.5906 11.5322 14.4473 11.3553 14.4473C11.1785 14.4473 11.0352 14.5906 11.0352 14.7674C11.0352 14.9443 11.1785 15.0876 11.3553 15.0876Z" fill="white"/>
<path d="M8.4735 15.4079C8.65032 15.4079 8.79367 15.2646 8.79367 15.0878C8.79367 14.9109 8.65032 14.7676 8.4735 14.7676C8.29667 14.7676 8.15332 14.9109 8.15332 15.0878C8.15332 15.2646 8.29667 15.4079 8.4735 15.4079Z" fill="white"/>
<path d="M13.9169 13.487C14.0937 13.487 14.237 13.3437 14.237 13.1669C14.237 12.99 14.0937 12.8467 13.9169 12.8467C13.74 12.8467 13.5967 12.99 13.5967 13.1669C13.5967 13.3437 13.74 13.487 13.9169 13.487Z" fill="white"/>
<path d="M3.67076 11.5656C3.84759 11.5656 3.99094 11.4223 3.99094 11.2455C3.99094 11.0686 3.84759 10.9253 3.67076 10.9253C3.49393 10.9253 3.35059 11.0686 3.35059 11.2455C3.35059 11.4223 3.49393 11.5656 3.67076 11.5656Z" fill="white"/>
<path d="M6.23229 13.8069C6.40911 13.8069 6.55246 13.6635 6.55246 13.4867C6.55246 13.3099 6.40911 13.1665 6.23229 13.1665C6.05546 13.1665 5.91211 13.3099 5.91211 13.4867C5.91211 13.6635 6.05546 13.8069 6.23229 13.8069Z" fill="white"/>
<path d="M10.7147 16.3684C10.8915 16.3684 11.0349 16.225 11.0349 16.0482C11.0349 15.8714 10.8915 15.728 10.7147 15.728C10.5379 15.728 10.3945 15.8714 10.3945 16.0482C10.3945 16.225 10.5379 16.3684 10.7147 16.3684Z" fill="white"/>
<path d="M12.6356 13.8069C12.8124 13.8069 12.9558 13.6635 12.9558 13.4867C12.9558 13.3099 12.8124 13.1665 12.6356 13.1665C12.4588 13.1665 12.3154 13.3099 12.3154 13.4867C12.3154 13.6635 12.4588 13.8069 12.6356 13.8069Z" fill="white"/>
<path d="M13.9169 14.7678C14.0937 14.7678 14.237 14.6244 14.237 14.4476C14.237 14.2708 14.0937 14.1274 13.9169 14.1274C13.74 14.1274 13.5967 14.2708 13.5967 14.4476C13.5967 14.6244 13.74 14.7678 13.9169 14.7678Z" fill="white"/>
<path d="M5.59166 14.7678C5.76849 14.7678 5.91183 14.6244 5.91183 14.4476C5.91183 14.2708 5.76849 14.1274 5.59166 14.1274C5.41483 14.1274 5.27148 14.2708 5.27148 14.4476C5.27148 14.6244 5.41483 14.7678 5.59166 14.7678Z" fill="white"/>
<path d="M13.9169 12.2063C14.0937 12.2063 14.237 12.0629 14.237 11.8861C14.237 11.7093 14.0937 11.5659 13.9169 11.5659C13.74 11.5659 13.5967 11.7093 13.5967 11.8861C13.5967 12.0629 13.74 12.2063 13.9169 12.2063Z" fill="white"/>
<path d="M3.03111 10.6052C3.20794 10.6052 3.35129 10.4618 3.35129 10.285C3.35129 10.1082 3.20794 9.96484 3.03111 9.96484C2.85429 9.96484 2.71094 10.1082 2.71094 10.285C2.71094 10.4618 2.85429 10.6052 3.03111 10.6052Z" fill="white"/>
<path d="M3.67076 12.8464C3.84759 12.8464 3.99094 12.7031 3.99094 12.5262C3.99094 12.3494 3.84759 12.2061 3.67076 12.2061C3.49393 12.2061 3.35059 12.3494 3.35059 12.5262C3.35059 12.7031 3.49393 12.8464 3.67076 12.8464Z" fill="white"/>
<path d="M9.43346 16.3684C9.61028 16.3684 9.75363 16.225 9.75363 16.0482C9.75363 15.8714 9.61028 15.728 9.43346 15.728C9.25663 15.728 9.11328 15.8714 9.11328 16.0482C9.11328 16.225 9.25663 16.3684 9.43346 16.3684Z" fill="white"/>
<path d="M12.9559 12.5261C13.1327 12.5261 13.2761 12.3827 13.2761 12.2059C13.2761 12.0291 13.1327 11.8857 12.9559 11.8857C12.7791 11.8857 12.6357 12.0291 12.6357 12.2059C12.6357 12.3827 12.7791 12.5261 12.9559 12.5261Z" fill="white"/>
<path d="M4.63169 12.5261C4.80852 12.5261 4.95187 12.3827 4.95187 12.2059C4.95187 12.0291 4.80852 11.8857 4.63169 11.8857C4.45486 11.8857 4.31152 12.0291 4.31152 12.2059C4.31152 12.3827 4.45486 12.5261 4.63169 12.5261Z" fill="white"/>
<path d="M5.59166 12.5261C5.76849 12.5261 5.91183 12.3827 5.91183 12.2059C5.91183 12.0291 5.76849 11.8857 5.59166 11.8857C5.41483 11.8857 5.27148 12.0291 5.27148 12.2059C5.27148 12.3827 5.41483 12.5261 5.59166 12.5261Z" fill="white"/>
<path d="M4.31139 14.1272C4.48821 14.1272 4.63156 13.9838 4.63156 13.807C4.63156 13.6302 4.48821 13.4868 4.31139 13.4868C4.13456 13.4868 3.99121 13.6302 3.99121 13.807C3.99121 13.9838 4.13456 14.1272 4.31139 14.1272Z" fill="white"/>
<path d="M5.27135 13.487C5.44817 13.487 5.59152 13.3437 5.59152 13.1669C5.59152 12.99 5.44817 12.8467 5.27135 12.8467C5.09452 12.8467 4.95117 12.99 4.95117 13.1669C4.95117 13.3437 5.09452 13.487 5.27135 13.487Z" fill="white"/>
<path d="M10.0741 15.0876C10.2509 15.0876 10.3942 14.9443 10.3942 14.7674C10.3942 14.5906 10.2509 14.4473 10.0741 14.4473C9.89726 14.4473 9.75391 14.5906 9.75391 14.7674C9.75391 14.9443 9.89726 15.0876 10.0741 15.0876Z" fill="white"/>
<path d="M8.79381 14.4475C8.97064 14.4475 9.11398 14.3041 9.11398 14.1273C9.11398 13.9505 8.97064 13.8071 8.79381 13.8071C8.61698 13.8071 8.47363 13.9505 8.47363 14.1273C8.47363 14.3041 8.61698 14.4475 8.79381 14.4475Z" fill="white"/>
<path d="M11.996 16.3684C12.1728 16.3684 12.3161 16.225 12.3161 16.0482C12.3161 15.8714 12.1728 15.728 11.996 15.728C11.8191 15.728 11.6758 15.8714 11.6758 16.0482C11.6758 16.225 11.8191 16.3684 11.996 16.3684Z" fill="white"/>
<path d="M15.8378 10.9255C16.0146 10.9255 16.1579 10.7822 16.1579 10.6053C16.1579 10.4285 16.0146 10.2852 15.8378 10.2852C15.6609 10.2852 15.5176 10.4285 15.5176 10.6053C15.5176 10.7822 15.6609 10.9255 15.8378 10.9255Z" fill="white"/>
<path d="M7.51256 15.7282C7.68939 15.7282 7.83273 15.5849 7.83273 15.4081C7.83273 15.2312 7.68939 15.0879 7.51256 15.0879C7.33573 15.0879 7.19238 15.2312 7.19238 15.4081C7.19238 15.5849 7.33573 15.7282 7.51256 15.7282Z" fill="white"/>
</svg>
