<svg viewBox="0 0 19 19" fill="none" xmlns="http://www.w3.org/2000/svg">
<path d="M11.871 12.1047L10.4205 11.894L9.77176 10.5798C9.66976 10.3725 9.32946 10.3725 9.22746 10.5798L8.57872 11.894L7.12826 12.1047C7.01381 12.1214 6.9191 12.2015 6.88297 12.3114C6.84745 12.4213 6.8769 12.5418 6.95978 12.6226L8.00953 13.6456L7.76181 15.0903C7.74238 15.2041 7.78913 15.3192 7.88233 15.3872C7.97644 15.4552 8.10029 15.464 8.20229 15.4103L9.49976 14.7281L10.7969 15.4103C10.8412 15.4336 10.8901 15.4452 10.9384 15.4452C11.0012 15.4452 11.0641 15.4257 11.1169 15.3872C11.2104 15.3192 11.2571 15.2041 11.2374 15.0903L10.9897 13.6456L12.0394 12.6226C12.122 12.5418 12.1518 12.4213 12.1162 12.3114C12.0804 12.2012 11.9854 12.1211 11.871 12.1047ZM10.4515 13.322C10.3801 13.3918 10.3473 13.4923 10.3643 13.5906L10.5352 14.5864L9.64122 14.1161C9.5969 14.0927 9.54833 14.0812 9.49976 14.0812C9.45119 14.0812 9.40292 14.0927 9.35829 14.1161L8.46428 14.5864L8.63519 13.5906C8.65219 13.4923 8.6194 13.3918 8.54806 13.322L7.82435 12.6168L8.82431 12.4714C8.92328 12.4571 9.00858 12.3949 9.0529 12.3053L9.49976 11.3998L9.94692 12.3053C9.99124 12.3949 10.0765 12.4571 10.1755 12.4714L11.1755 12.6168L10.4515 13.322Z" fill="white"/>
<path d="M15.8132 9.22493C15.3621 7.95934 15.1017 6.66067 15.0401 5.36533C14.9299 3.0597 14.2083 1.58495 12.953 1.10045C12.5599 0.948968 12.1185 0.970218 11.7424 1.15904C11.3817 1.34058 11.1249 1.65052 11.0189 2.03181L11.0095 2.06642C10.9971 2.11499 10.9901 2.16477 10.9831 2.21425H10.4112C10.2433 2.21425 10.1076 2.35025 10.1076 2.51783C10.1076 2.6854 10.2433 2.8214 10.4112 2.8214H11.0335C11.1152 3.08672 11.2715 3.33352 11.4937 3.52386C11.6917 3.69417 11.9011 3.97072 12.0614 4.19293C12.2642 4.47404 12.3981 4.76304 12.4591 5.05234C12.4685 5.09697 12.4773 5.1422 12.4849 5.18713C12.6358 6.0945 12.3996 7.02708 11.8368 7.74563C11.3119 8.41561 10.5684 8.81936 9.74302 8.88342C8.88726 8.9499 8.06701 8.66636 7.43922 8.08533C6.81963 7.51218 6.46476 6.69983 6.46476 5.84193C6.46718 5.0487 6.79322 4.25517 7.35908 3.66563C7.41068 3.61159 7.4626 3.56211 7.51633 3.51688C7.74158 3.32563 7.89761 3.08247 7.97776 2.8214H8.89333C9.0612 2.8214 9.1969 2.6854 9.1969 2.51783C9.1969 2.35025 9.0612 2.21425 8.89333 2.21425H8.01965C8.0154 2.18967 8.01418 2.16447 8.00842 2.13988C8.00022 2.10224 7.99111 2.0655 7.9817 2.03181C7.87576 1.65022 7.61893 1.34027 7.25829 1.15904C6.88247 0.969611 6.44108 0.948664 6.04765 1.10015C4.79147 1.58525 4.06958 3.06183 3.96029 5.37079C3.89411 6.77329 3.65885 7.98849 3.24052 9.0859C2.90477 9.96686 2.76999 10.884 2.84042 11.812C3.09451 15.1701 5.92167 17.8864 9.27765 17.996C9.35263 17.9988 9.42761 18 9.5026 18C11.2463 18 12.8874 17.3373 14.1445 16.1206C15.4566 14.8507 16.1791 13.1465 16.1791 11.3214C16.1791 10.6113 16.0558 9.90615 15.8132 9.22493ZM13.7226 15.6843C12.5304 16.8382 10.957 17.4447 9.29708 17.3895C6.24679 17.2899 3.67645 14.8198 3.44543 11.7664C3.38199 10.9283 3.50372 10.0992 3.8076 9.30234C4.24899 8.14392 4.49701 6.8674 4.56652 5.39963C4.63422 3.96981 4.98424 2.16143 6.26622 1.66692C6.36974 1.62654 6.47842 1.60711 6.5871 1.60711C6.72431 1.60711 6.86092 1.63868 6.98538 1.70122C7.1912 1.80474 7.33722 1.97959 7.39702 2.19574C7.39854 2.2015 7.40006 2.20818 7.40158 2.21425H6.46476C6.29688 2.21425 6.16118 2.35025 6.16118 2.51783C6.16118 2.6854 6.29688 2.8214 6.46476 2.8214H7.31385C7.26376 2.90518 7.20395 2.98533 7.12411 3.05302C7.0552 3.11131 6.98811 3.17536 6.92102 3.24518C6.24801 3.94643 5.86035 4.89236 5.85761 5.85711C5.85761 6.86892 6.28352 7.84338 7.02667 8.53097C7.77952 9.22797 8.75885 9.56767 9.78977 9.48874C10.787 9.41163 11.6838 8.92561 12.3146 8.11993C12.9818 7.26781 13.2623 6.1625 13.0835 5.08725C13.0747 5.03322 13.0644 4.97949 13.0529 4.92667C12.9742 4.55418 12.8061 4.18777 12.5532 3.83745C12.3735 3.58822 12.1355 3.27493 11.889 3.06304C11.8073 2.99352 11.7421 2.91065 11.6914 2.8214H12.8398C13.0076 2.8214 13.1433 2.6854 13.1433 2.51783C13.1433 2.35025 13.0076 2.21425 12.8398 2.21425H11.6009C11.6024 2.20758 11.6027 2.20059 11.6045 2.19392C11.6637 1.97959 11.8101 1.80474 12.0156 1.70122C12.2378 1.5892 12.5001 1.57615 12.7344 1.66692C14.0155 2.16113 14.3655 3.96677 14.4338 5.39447C14.4985 6.74961 14.7702 8.10688 15.2413 9.42893C15.4605 10.0443 15.5719 10.6812 15.5719 11.3214C15.5719 12.9804 14.915 14.5298 13.7226 15.6843Z" fill="white"/>
</svg>
