<svg viewBox="0 0 19 19" fill="none" xmlns="http://www.w3.org/2000/svg">
<path d="M15.6241 9.19096C15.5462 9.19096 15.4683 9.19506 15.3903 9.19916L14.2459 4.21535L15.657 3.54264C15.8087 3.46881 15.8744 3.28422 15.8005 3.13245C15.7267 2.98068 15.5421 2.91505 15.3903 2.98889L13.7578 3.76825C13.6265 3.82977 13.5568 3.97334 13.5896 4.11281L14.1146 6.39346L8.15458 6.78725L7.49007 5.43772L8.52375 5.28185C8.69193 5.25724 8.80678 5.10136 8.78217 4.93319C8.75756 4.76501 8.60168 4.65016 8.43351 4.67477L6.03389 5.03984C5.86572 5.06445 5.75086 5.22032 5.77547 5.3885C5.80009 5.54027 5.93135 5.65102 6.07902 5.65102C6.09542 5.65102 6.11183 5.65102 6.12414 5.64692L6.85017 5.53617L7.59672 7.05797L5.20121 9.74061C4.67206 9.39195 4.04447 9.19096 3.37176 9.19096C1.5136 9.19096 0 10.7292 0 12.616C0 14.5029 1.5136 16.0411 3.37176 16.0411C5.22992 16.0411 6.74352 14.5029 6.74352 12.616C6.74352 12.5299 6.73942 12.4479 6.73532 12.3617L10.4886 12.1402C10.5788 12.1361 10.6649 12.091 10.7183 12.0172L14.291 7.15231L14.7832 9.29761C13.3312 9.67909 12.2565 11.0204 12.2565 12.616C12.2565 14.5029 13.7701 16.0411 15.6282 16.0411C17.4864 16.0411 19 14.5029 19 12.616C19 10.7292 17.4823 9.19096 15.6241 9.19096ZM5.27914 10.5856C5.6114 10.9138 5.86572 11.3239 6.00928 11.7916L4.1019 11.9023L5.27914 10.5856ZM3.37176 15.4258C1.85406 15.4258 0.615285 14.1666 0.615285 12.616C0.615285 11.0655 1.84996 9.80624 3.37176 9.80624C3.8886 9.80624 4.37262 9.95391 4.78692 10.2082L3.14206 12.05C3.06002 12.1443 3.03951 12.2756 3.09283 12.3904C3.14616 12.4971 3.25281 12.5627 3.37176 12.5627C3.37586 12.5627 3.38407 12.5627 3.38817 12.5627L6.11593 12.4027C6.12414 12.4725 6.12824 12.5422 6.12824 12.616C6.12824 14.1666 4.89357 15.4258 3.37176 15.4258ZM6.63687 11.7506C6.4728 11.123 6.14054 10.561 5.68523 10.1262L7.89205 7.65279L9.81585 11.566L6.63687 11.7506ZM10.4147 11.3896L8.44581 7.38202L13.606 7.04156L10.4147 11.3896ZM15.6241 15.4258C14.1064 15.4258 12.8677 14.1666 12.8677 12.616C12.8677 11.3157 13.7373 10.2205 14.9186 9.90059L15.6282 12.9975C15.6611 13.1411 15.7882 13.2354 15.9277 13.2354C15.9523 13.2354 15.9728 13.2313 15.9974 13.2272C16.1615 13.1903 16.2681 13.0221 16.2271 12.8581L15.5257 9.80624C15.5585 9.80624 15.5872 9.80214 15.62 9.80214C17.1377 9.80214 18.3765 11.0614 18.3765 12.6119C18.3765 14.1625 17.1459 15.4258 15.6241 15.4258Z" fill="white"/>
</svg>
