<svg viewBox="0 0 19 19" fill="none" xmlns="http://www.w3.org/2000/svg">
<path d="M17.7337 11.4851H17.2139C16.5889 10.1453 16.5888 8.83755 17.2139 7.48855H17.7337C17.8805 7.48855 17.9993 7.3696 17.9993 7.22292C17.9993 7.07622 17.8805 6.9573 17.7337 6.9573H7.8786V6.75988H16.3534C16.5002 6.75988 16.6191 6.64096 16.6191 6.49426C16.6191 6.34758 16.5002 6.22863 16.3534 6.22863H15.8337C15.2086 4.8889 15.2088 3.58128 15.8337 2.23193H16.3534C16.5002 2.23193 16.6191 2.11301 16.6191 1.96631C16.6191 1.81963 16.5002 1.70068 16.3534 1.70068H2.39256C2.29606 1.70068 2.2071 1.75309 2.16014 1.83753C1.19518 3.57873 1.19932 5.19533 2.17207 6.6425C2.22137 6.71592 2.30411 6.75988 2.39256 6.75988H5.08332V6.9573H3.77283C3.67633 6.9573 3.58737 7.00968 3.54041 7.09412C2.57518 8.83521 2.57932 10.4518 3.55233 11.899C3.60163 11.9724 3.68438 12.0164 3.77283 12.0164H17.7337C17.8805 12.0164 17.9993 11.8974 17.9993 11.7507C17.9993 11.604 17.8805 11.4851 17.7337 11.4851ZM5.61457 4.09261H7.34735V8.69746L6.59069 8.3544C6.52064 8.32277 6.44127 8.32277 6.37123 8.3544L5.61457 8.69746V4.09261ZM2.5368 6.22863C1.77312 5.01297 1.7778 3.70286 2.55106 2.23193H15.2537C14.6999 3.56317 14.6996 4.90524 15.2529 6.22863H7.8786V4.09261H12.1408C12.2876 4.09261 12.4064 3.97369 12.4064 3.82698C12.4064 3.68031 12.2876 3.56136 12.1408 3.56136H4.21693C4.07009 3.56136 3.9513 3.68031 3.9513 3.82698C3.9513 3.97369 4.07009 4.09261 4.21693 4.09261H5.08332V6.22863H2.5368ZM3.93133 7.48855H5.08332V9.10952C5.08332 9.19981 5.12922 9.28385 5.20498 9.33273C5.28097 9.38176 5.3767 9.38891 5.45867 9.35143L6.48096 8.88799L7.50324 9.35143C7.53828 9.36736 7.57562 9.37515 7.61297 9.37515C7.66331 9.37515 7.71338 9.36088 7.75694 9.33273C7.8327 9.28385 7.8786 9.19981 7.8786 9.10952V7.48855H16.6339C16.0799 8.81951 16.0798 10.1615 16.6333 11.4851H3.9168C3.15313 10.2694 3.15781 8.95947 3.93133 7.48855Z" fill="white"/>
<path d="M15.3946 12.771H15.9144C16.0612 12.771 16.18 12.652 16.18 12.5054C16.18 12.3587 16.0612 12.2397 15.9144 12.2397H1.95349C1.85699 12.2397 1.76803 12.2921 1.72107 12.3766C0.755601 14.1177 0.759745 15.7342 1.73299 17.1814C1.78256 17.2549 1.86504 17.2988 1.95349 17.2988H15.9144C16.0612 17.2988 16.18 17.1799 16.18 17.0332C16.18 16.8865 16.0612 16.7676 15.9144 16.7676H15.3946C14.7696 15.4276 14.7695 14.12 15.3946 12.771ZM2.09746 16.7676C1.33352 15.5519 1.3382 14.2418 2.11199 12.771H14.8146C14.2606 14.102 14.2605 15.4439 14.8139 16.7676H2.09746Z" fill="white"/>
</svg>
