<svg viewBox="0 0 19 19" fill="none" xmlns="http://www.w3.org/2000/svg">
<path d="M15.3083 2.94824H13.6083C13.1005 2.94824 12.6875 3.3612 12.6875 3.86908V5.56908C12.6875 6.07695 13.1005 6.48991 13.6083 6.48991H15.3083C15.8162 6.48991 16.2292 6.07695 16.2292 5.56908V3.86908C16.2292 3.3612 15.8162 2.94824 15.3083 2.94824ZM15.5208 5.56908C15.5208 5.6863 15.4256 5.78158 15.3083 5.78158H13.6083C13.4911 5.78158 13.3958 5.6863 13.3958 5.56908V3.86908C13.3958 3.75185 13.4911 3.65658 13.6083 3.65658H15.3083C15.4256 3.65658 15.5208 3.75185 15.5208 3.86908V5.56908Z" fill="white"/>
<path d="M14.3875 1.17725H4.6125C2.62067 1.17725 1 2.80252 1 4.80072V7.19808V7.90641V14.2C1 16.1978 2.62067 17.8231 4.6125 17.8231H14.3875C16.3793 17.8231 18 16.1978 18 14.2V7.90641V7.19808V4.80072C18 2.80252 16.3793 1.17725 14.3875 1.17725ZM17.2917 14.2C17.2917 15.8072 15.9887 17.1147 14.3875 17.1147H4.6125C3.01096 17.1147 1.70833 15.8072 1.70833 14.2V7.90641H6.0366C5.11542 8.80706 4.54167 10.0612 4.54167 11.4481C4.54167 14.1822 6.76583 16.4064 9.5 16.4064C12.2342 16.4064 14.4583 14.1822 14.4583 11.4481C14.4583 10.0612 13.8846 8.80706 12.9634 7.90641H17.2917V14.2ZM13.75 11.4481C13.75 13.7916 11.8435 15.6981 9.5 15.6981C7.15648 15.6981 5.25 13.7916 5.25 11.4481C5.25 9.10456 7.15648 7.19808 9.5 7.19808C11.8435 7.19808 13.75 9.10456 13.75 11.4481ZM12.0408 7.19808C11.2967 6.75147 10.4293 6.48975 9.5 6.48975C8.57067 6.48975 7.70331 6.75147 6.95921 7.19808H1.70833V4.80072C1.70833 3.19316 3.01131 1.88558 4.6125 1.88558H14.3875C15.9887 1.88558 17.2917 3.19316 17.2917 4.80072V7.19808H12.0408Z" fill="white"/>
<path d="M6.3125 11.4482C6.3125 13.2056 7.74227 14.6357 9.5 14.6357C11.2577 14.6357 12.6875 13.2056 12.6875 11.4482C12.6875 9.69087 11.2577 8.26074 9.5 8.26074C7.74227 8.26074 6.3125 9.69087 6.3125 11.4482ZM11.9792 11.4482C11.9792 12.8153 10.8667 13.9274 9.5 13.9274C8.13327 13.9274 7.02083 12.8153 7.02083 11.4482C7.02083 10.0812 8.13327 8.96908 9.5 8.96908C10.8667 8.96908 11.9792 10.0812 11.9792 11.4482Z" fill="white"/>
</svg>
