<svg viewBox="0 0 19 19" fill="none" xmlns="http://www.w3.org/2000/svg">
<path d="M3.80624 12.0371C3.45733 12.0371 3.17188 12.3226 3.17188 12.6715C3.17188 13.0204 3.45733 13.3058 3.80624 13.3058C4.15514 13.3058 4.44059 13.0204 4.44059 12.6715C4.44059 12.3226 4.15514 12.0371 3.80624 12.0371Z" fill="white"/>
<path d="M15.2242 12.0371C14.8753 12.0371 14.5898 12.3226 14.5898 12.6715C14.5898 13.0204 14.8753 13.3058 15.2242 13.3058C15.5731 13.3058 15.8586 13.0204 15.8586 12.6715C15.8586 12.3226 15.5731 12.0371 15.2242 12.0371Z" fill="white"/>
<path d="M18.9987 11.7201V9.02412C18.9987 8.58006 18.6498 8.2312 18.2058 8.2312H16.9054C15.9856 8.2312 15.0975 7.72373 14.59 6.93077L13.5117 5.15458C13.131 4.52022 12.4015 4.10791 11.6403 4.10791H5.16996C4.40874 4.10791 3.71097 4.52022 3.29862 5.15458L1.71274 7.72369C1.52244 8.04085 1.17353 8.23116 0.792923 8.23116C0.570913 8.23116 0.380609 8.32631 0.222009 8.45317C0.0951522 8.61181 0 8.80211 0 9.02412V11.8787C0 12.4813 0.507466 12.9888 1.11012 12.9888H1.6083C1.75976 14.0725 2.67701 14.8919 3.80613 14.8919C4.93524 14.8919 5.85249 14.0725 6.00396 12.9888H13.0266C13.178 14.0725 14.0953 14.8919 15.2244 14.8919C16.3535 14.8919 17.2708 14.0725 17.4222 12.9888H17.7618C18.4595 12.9888 19.0304 12.4179 18.9987 11.7201ZM5.07477 7.27967V6.01099H9.19802V7.27967H5.07477ZM9.83238 6.01099H13.2381L14.031 7.27967H9.83238V6.01099ZM3.80609 14.2575C2.91801 14.2575 2.22021 13.5597 2.22021 12.6716C2.22021 11.7835 2.91798 11.0857 3.80609 11.0857C4.69416 11.0857 5.39197 11.7835 5.39197 12.6716C5.39197 13.5597 4.69416 14.2575 3.80609 14.2575ZM15.2244 14.2575C14.3363 14.2575 13.6385 13.5597 13.6385 12.6716C13.6385 11.7835 14.3362 11.0857 15.2244 11.0857C16.1124 11.0857 16.8102 11.7835 16.8102 12.6716C16.8102 13.5597 16.1124 14.2575 15.2244 14.2575ZM17.73 12.3544H17.4221C17.2707 11.2708 16.3534 10.4514 15.2243 10.4514C15.2192 10.4514 15.2141 10.4517 15.209 10.4518C15.2035 10.4517 15.1981 10.4514 15.1926 10.4514C14.0825 10.4514 13.1627 11.2761 13.0041 12.3544H6.00392C5.8619 11.3383 5.04641 10.5549 4.01435 10.4612C4.0068 10.4605 3.99914 10.4601 3.99156 10.4595C3.96558 10.4574 3.93964 10.4553 3.91339 10.454C3.87782 10.4523 3.84207 10.4514 3.80609 10.4514C3.77011 10.4514 3.73435 10.4523 3.69878 10.454C3.67254 10.4553 3.6466 10.4574 3.62062 10.4595C3.61303 10.4601 3.60538 10.4605 3.59783 10.4612C2.56576 10.5549 1.75028 11.3383 1.60826 12.3544H1.11012C0.85637 12.3544 0.63436 12.1324 0.63436 11.8787V10.4514H1.58588C1.77619 10.4514 1.90304 10.3245 1.90304 10.1342C1.90304 9.94394 1.77619 9.81708 1.58588 9.81708H0.63436V9.02412C0.63436 8.99241 0.63436 8.96067 0.697808 8.92897C0.729513 8.89726 0.761255 8.86552 0.824665 8.86552C1.39558 8.86552 1.96649 8.54836 2.25195 8.0726L3.83783 5.50349C4.12329 5.02773 4.63075 4.74227 5.16996 4.74227H11.6403C12.1203 4.74227 12.5746 4.96896 12.8477 5.37663H5.01136C4.6942 5.37663 4.44045 5.63038 4.44045 5.94754V7.34312C4.44045 7.66028 4.6942 7.91403 5.01136 7.91403H14.5252C15.1433 8.5349 15.9956 8.89726 16.9054 8.89726H18.2058C18.301 8.89726 18.3644 8.96071 18.3644 9.05586V9.81708H17.4446C17.2543 9.81708 17.1274 9.94394 17.1274 10.1342C17.1274 10.3245 17.2543 10.4514 17.4446 10.4514H18.3644V11.7201C18.3644 12.069 18.0789 12.3544 17.73 12.3544Z" fill="white"/>
<path d="M11.1013 8.86572H9.5154C9.3251 8.86572 9.19824 8.99258 9.19824 9.18288C9.19824 9.37319 9.3251 9.50005 9.5154 9.50005H10.7841V9.81721C10.7841 10.0075 10.9109 10.1344 11.1012 10.1344C11.2916 10.1344 11.4184 10.0075 11.4184 9.81721V9.18285C11.4184 8.99258 11.2916 8.86572 11.1013 8.86572Z" fill="white"/>
</svg>
