<svg viewBox="0 0 19 19" fill="none" xmlns="http://www.w3.org/2000/svg">
<path d="M8.18184 2.5075C4.6623 3.01883 2.05918 6.00711 2.05918 9.60633C2.05918 13.5641 5.27988 16.7848 9.2377 16.7848C10.9643 16.7848 12.6145 16.1673 13.9193 15.0417L8.49063 9.61297C8.29141 9.41375 8.18184 9.14813 8.18184 8.8659V2.5075ZM9.23438 17.4755C4.89473 17.4755 1.36523 13.946 1.36523 9.60633C1.36523 5.52235 4.42988 2.15223 8.49395 1.77371C8.59023 1.76375 8.68652 1.79695 8.75957 1.86336C8.83262 1.92977 8.87246 2.02274 8.87246 2.11902V8.86922C8.87246 8.96551 8.90898 9.05848 8.97871 9.12488L14.6631 14.8093C14.7295 14.8757 14.766 14.9653 14.766 15.0583C14.766 15.1513 14.7262 15.2409 14.6598 15.304C13.1855 16.7052 11.2598 17.4755 9.23438 17.4755Z" fill="white"/>
<path d="M10.5056 1.52476C10.4059 1.5148 10.1602 1.55464 10.127 1.87007V8.32476C10.127 8.41773 10.1636 8.50406 10.23 8.57046L15.6354 13.9759C15.8811 14.1884 16.1036 14.0158 16.16 13.9328C17.1229 12.588 17.6343 11.0043 17.6343 9.35738C17.6343 5.27339 14.5696 1.9066 10.5056 1.52476ZM15.828 13.1923L10.8177 8.18199V2.26187C14.3339 2.77652 16.9403 5.76148 16.9403 9.3607C16.9403 10.7253 16.5585 12.0402 15.828 13.1923Z" fill="white"/>
<path d="M8.97871 9.12474C8.90898 9.05501 8.87246 8.96536 8.87246 8.86907V2.11556C8.8459 1.80677 8.59023 1.76029 8.49394 1.77025C4.42988 2.15208 1.36523 5.51888 1.36523 9.60618C1.36523 13.9458 4.89473 17.4753 9.23437 17.4753C11.2564 17.4753 13.1822 16.7017 14.6564 15.3005C14.7228 15.2374 14.8557 15.0316 14.6631 14.8058L8.97871 9.12474ZM9.23437 16.7847C5.27656 16.7847 2.05586 13.564 2.05586 9.60618C2.05586 6.00697 4.6623 3.022 8.17851 2.50736V8.86575C8.17851 9.14798 8.28808 9.41361 8.4873 9.61282L13.916 15.0382C12.6111 16.1671 10.9609 16.7847 9.23437 16.7847Z" fill="white"/>
</svg>
