<svg viewBox="0 0 18 19" fill="none" xmlns="http://www.w3.org/2000/svg">
<path d="M16.6667 17.6543H15.3333V16.9871C15.3333 16.6192 15.0343 16.3199 14.6667 16.3199H14.3333V8.64381C14.7072 8.60628 15 8.28961 15 7.90579C15 7.61984 14.833 7.35641 14.5744 7.23465L9.33333 4.7664V1.35999H9.66667C9.85077 1.35999 9.92308 1.26197 9.92308 1.07773C9.92308 0.893493 9.85077 0.846789 9.66667 0.846789H9.33333V0.333584C9.33333 0.149346 9.1841 0 9 0C8.8159 0 8.66667 0.149346 8.66667 0.333584V0.846789H8.33333C8.14923 0.846789 8.07692 0.893493 8.07692 1.07773C8.07692 1.26197 8.14923 1.35999 8.33333 1.35999H8.66667V4.7664L3.42557 7.23465C3.16703 7.35641 3 7.61984 3 7.90579C3 8.28961 3.29283 8.60631 3.66667 8.64381V16.3199H3.33333C2.96573 16.3199 2.66667 16.6192 2.66667 16.9871V17.6543H1.33333C1.14923 17.6543 1 17.8036 1 17.9878C1 18.1721 1.14923 18.3214 1.33333 18.3214H16.6667C16.8508 18.3214 17 18.1721 17 17.9878C17 17.8036 16.8508 17.6543 16.6667 17.6543ZM3.70943 7.8383L9 5.34677L14.2905 7.8383C14.3165 7.85054 14.3333 7.87703 14.3333 7.90579C14.3333 7.94688 14.2999 7.98034 14.2588 7.98034H14C13.8159 7.98034 13.6667 8.12969 13.6667 8.31393V16.3199H12.6667V15.6528C12.6667 15.2849 12.3676 14.9856 12 14.9856V10.9826C12 10.6147 11.7009 10.3154 11.3333 10.3154H6.66667C6.29907 10.3154 6 10.6147 6 10.9826V14.9856C5.6324 14.9856 5.33333 15.2849 5.33333 15.6528V16.3199H4.33333V8.31393C4.33333 8.12969 4.1841 7.98034 4 7.98034H3.74117C3.7001 7.98034 3.66667 7.94688 3.66667 7.90579C3.66667 7.87703 3.68347 7.85054 3.70943 7.8383ZM11.3333 10.9826V14.9856H9.33333V10.9826H11.3333ZM8.66667 10.9826V14.9856H6.66667V10.9826H8.66667ZM14.6667 17.6543H3.33333V16.9871H5.66667C5.85077 16.9871 6 16.8377 6 16.6535V15.6528H12V16.6535C12 16.8377 12.1492 16.9871 12.3333 16.9871H14.6667V17.6543Z" fill="white"/>
</svg>
