<svg viewBox="0 0 19 19" fill="none" xmlns="http://www.w3.org/2000/svg">
<path d="M11.875 11.8748H15.4375V11.1992H11.875V11.8748Z" fill="white"/>
<path d="M14.25 16.6248H17.8125V15.9492H14.25V16.6248Z" fill="white"/>
<path d="M13.0625 14.2498H16.625V13.5742H13.0625V14.2498Z" fill="white"/>
<path d="M9.88053 11.8749C9.8763 11.3739 9.71443 10.8825 9.46429 10.4483C9.21415 10.0142 8.84601 9.65214 8.41468 9.39722L10.612 5.50473L12.8093 1.61224L12.223 1.21875L7.70014 9.03047C7.14799 8.90707 6.41038 8.87458 5.86651 9.03047C5.32264 9.18636 4.82654 9.47614 4.42359 9.87329C2.20083 12.0174 2.37296 16.8865 2.38109 17.099C2.38723 17.2523 2.45249 17.3973 2.56318 17.5036C2.67387 17.6098 2.8214 17.6691 2.97484 17.669H11.8759C12.0005 17.669 11.9658 17.6298 12.0669 17.5569C12.168 17.484 12.2436 17.3812 12.283 17.263C12.3224 17.1448 12.2392 17.0888 12.202 16.9699C12.1649 16.8509 11.9478 16.675 11.8481 16.6002C9.74644 15.0232 9.88053 11.9068 9.88053 11.8749ZM7.12516 9.7044C7.60038 9.70961 8.14158 9.94736 8.48155 10.2795C8.82151 10.6115 9.13309 11.3999 9.14943 11.8749C9.14943 11.8975 9.15056 11.9984 9.1594 12.1532L4.90453 10.52C5.13525 10.3298 5.56694 9.87529 5.85321 9.78885C6.13948 9.7024 6.8277 9.67364 7.12516 9.7044ZM9.02984 16.7938C8.55538 16.3105 8.25299 15.5157 8.16926 14.8436H7.43744C7.48002 15.4756 7.67749 16.2562 8.01243 16.7938H6.23666C5.99246 16.0232 5.84388 15.0567 5.79426 14.2499H5.06244C5.10077 15.0543 5.23333 16.0203 5.4574 16.7938H3.10698C3.12538 15.7034 3.42256 12.7425 4.32072 11.1627L9.34632 13.0801C9.56144 14.1959 10.2349 15.8752 10.9039 16.7938H9.02984Z" fill="white"/>
</svg>
