<svg viewBox="0 0 19 19" fill="none" xmlns="http://www.w3.org/2000/svg">
<path d="M13.6192 3.76318C11.1625 3.76318 9.23798 4.78299 9.23798 6.08485V6.48269C8.70252 6.51447 8.19264 6.64275 7.72554 6.85053C7.05155 6.62817 6.24967 6.5006 5.38105 6.5006C2.92439 6.5006 1 7.52037 1 8.82218V10.1779V11.5595V12.9153C1 14.2171 2.92439 15.2369 5.3811 15.2369C6.26425 15.2369 7.07856 15.1051 7.7595 14.8759C8.29334 15.1079 8.88196 15.2369 9.50021 15.2369C10.1185 15.2369 10.707 15.1079 11.2409 14.8759C11.9218 15.1051 12.7361 15.2369 13.6192 15.2369C16.0757 15.2369 18 14.2171 18 12.9153V11.5595V10.1779V8.82218V7.44053V6.08485C18 4.78299 16.0757 3.76318 13.6192 3.76318ZM10.8238 4.86293C11.566 4.49185 12.5588 4.28745 13.6192 4.28745C14.6795 4.28745 15.6721 4.49185 16.4143 4.86293C17.0889 5.20023 17.4757 5.64561 17.4757 6.08485C17.4757 6.52395 17.0889 6.96928 16.4143 7.30658C15.672 7.67775 14.6794 7.88215 13.6192 7.88215C13.2914 7.88215 12.97 7.86258 12.6605 7.82456C11.9428 7.07665 10.963 6.58225 9.87038 6.49036C9.79936 6.3568 9.76225 6.22051 9.76225 6.0848C9.76225 5.64556 10.1492 5.20023 10.8238 4.86293ZM9.50017 14.7126C9.14505 14.7126 8.80108 14.6641 8.47435 14.5739C8.23394 14.5075 8.00301 14.4183 7.78375 14.3089C7.47617 14.1554 7.19184 13.9621 6.93756 13.7355C6.77985 13.5951 6.6338 13.4419 6.5009 13.2777C6.3034 13.0336 6.13502 12.765 6.00116 12.4773C5.92438 12.3122 5.85893 12.1408 5.80581 11.9641C5.72641 11.6999 5.67448 11.4239 5.65372 11.1394C5.6469 11.0457 5.64328 10.9512 5.64328 10.8557C5.64328 10.7749 5.64609 10.6946 5.651 10.615C5.73741 9.21854 6.57011 8.02086 7.75431 7.41714C7.97233 7.30601 8.20222 7.21498 8.44158 7.14653C8.69728 7.07346 8.9638 7.0264 9.23803 7.00791C9.32473 7.0021 9.41209 6.99886 9.50021 6.99886C9.52675 6.99886 9.55318 6.99934 9.57962 6.99986C9.64088 7.0011 9.70176 7.00386 9.7623 7.00796C10.0235 7.02559 10.2777 7.06931 10.5223 7.13657C10.8931 7.23861 11.2417 7.39466 11.5591 7.59582C11.8742 7.79555 12.1586 8.03959 12.4032 8.3193C12.6376 8.58729 12.8356 8.88786 12.9894 9.2133C13.0711 9.38617 13.1403 9.56609 13.1959 9.75181C13.2785 10.028 13.3309 10.317 13.3494 10.6151C13.3543 10.6947 13.3572 10.7749 13.3572 10.8558C13.3572 10.9513 13.3536 11.0458 13.3467 11.1395C13.3259 11.424 13.274 11.7 13.1946 11.9642C13.1415 12.1409 13.0761 12.3123 12.9992 12.4774C12.8653 12.7651 12.697 13.0337 12.4995 13.2778C12.3666 13.442 12.2205 13.5952 12.0629 13.7356C11.8086 13.9621 11.5243 14.1555 11.2166 14.309C10.9974 14.4184 10.7664 14.5076 10.526 14.574C10.1992 14.6642 9.85524 14.7126 9.50017 14.7126ZM2.58576 7.6003C3.328 7.22922 4.32075 7.02487 5.3811 7.02487C5.97654 7.02487 6.55068 7.08932 7.07108 7.2115C5.95753 7.95622 5.20276 9.19706 5.12569 10.6155C4.16213 10.5853 3.26817 10.3852 2.58585 10.044C1.91125 9.70666 1.52431 9.26132 1.52431 8.82222C1.52427 8.38294 1.9112 7.9376 2.58576 7.6003ZM5.12845 11.1401C5.14693 11.4265 5.1929 11.7054 5.26397 11.9744C4.24787 11.9599 3.30071 11.7571 2.58581 11.3997C1.9112 11.0624 1.52427 10.617 1.52427 10.1779V9.9404C2.22164 10.6267 3.55165 11.0947 5.12845 11.1401ZM5.3811 12.4996C5.40054 12.4996 5.41983 12.4993 5.43917 12.4992C5.5603 12.7974 5.71331 13.0792 5.89398 13.3407C5.72536 13.3514 5.55416 13.3569 5.3811 13.3569C4.32085 13.3569 3.3281 13.1525 2.58581 12.7813C1.9112 12.444 1.52427 11.9986 1.52427 11.5595V11.2961C2.2586 12.0187 3.69436 12.4996 5.3811 12.4996ZM5.3811 14.7126C4.32085 14.7126 3.3281 14.5082 2.58581 14.137C1.9112 13.7997 1.52427 13.3544 1.52427 12.9153V12.6778C2.2586 13.4005 3.69436 13.8813 5.3811 13.8813C5.69349 13.8813 5.99716 13.8647 6.2894 13.8332C6.53048 14.093 6.80257 14.3236 7.09986 14.519C6.57178 14.6457 5.98754 14.7126 5.3811 14.7126ZM17.4757 12.9153C17.4757 13.3544 17.0889 13.7997 16.4143 14.137C15.672 14.5082 14.6794 14.7126 13.6192 14.7126C13.0128 14.7126 12.4285 14.6457 11.9005 14.519C12.1977 14.3235 12.4698 14.093 12.711 13.8332C13.0032 13.8647 13.3069 13.8813 13.6192 13.8813C15.3058 13.8813 16.7415 13.4005 17.4757 12.6778V12.9153ZM17.4757 11.5595C17.4757 11.9987 17.0889 12.444 16.4143 12.7813C15.672 13.1525 14.6794 13.3569 13.6192 13.3569C13.4462 13.3569 13.275 13.3514 13.1063 13.3407C13.287 13.0792 13.4401 12.7974 13.5612 12.4992C13.5805 12.4993 13.5998 12.4996 13.6192 12.4996C15.3058 12.4996 16.7415 12.0188 17.4757 11.2961V11.5595ZM17.4757 10.1779C17.4757 10.617 17.0889 11.0623 16.4143 11.3997C15.6995 11.7571 14.7524 11.9599 13.7364 11.9744C13.8075 11.7054 13.8535 11.4264 13.8719 11.14C15.4485 11.0947 16.7785 10.6267 17.4757 9.9403V10.1779ZM17.4757 8.82218C17.4757 9.26132 17.0889 9.70661 16.4143 10.044C15.7321 10.3851 14.8381 10.5853 13.8747 10.6154C13.8588 10.3222 13.8141 10.0365 13.7429 9.7612C15.3759 9.73833 16.7595 9.26365 17.4757 8.55871V8.82218ZM17.4757 7.44053C17.4757 7.87968 17.0889 8.32496 16.4143 8.66231C15.672 9.03348 14.6794 9.23793 13.6192 9.23793C13.6033 9.23793 13.5874 9.23769 13.5715 9.2376C13.4521 8.93817 13.3006 8.65498 13.1211 8.39213C13.2844 8.40147 13.4505 8.40647 13.6192 8.40647C15.3058 8.40647 16.7415 7.92574 17.4757 7.20303V7.44053Z" fill="white"/>
<path d="M11.2311 12.0305C11.2311 11.8567 11.1937 11.6899 11.1253 11.5355C10.9266 11.0868 10.4656 10.7428 9.89756 10.6315C9.85307 10.6227 9.80815 10.6151 9.76237 10.6093V10.1777V9.94018V8.822V8.78937C10.302 8.88016 10.7068 9.24504 10.7068 9.68038C10.7068 9.82514 10.8242 9.94251 10.9689 9.94251C11.1137 9.94251 11.231 9.82514 11.231 9.68038C11.231 9.57906 11.2182 9.48017 11.194 9.38466C11.047 8.80323 10.4757 8.34994 9.76237 8.25963V7.9179C9.76237 7.77313 9.64505 7.65576 9.50029 7.65576C9.4154 7.65576 9.34019 7.6963 9.29227 7.75884C9.2885 7.76375 9.28484 7.76866 9.28136 7.77375C9.25411 7.81515 9.23811 7.86459 9.23811 7.91785V8.25958C9.17547 8.26749 9.11397 8.27844 9.05362 8.29188C8.31509 8.45583 7.76953 9.01606 7.76953 9.68033C7.76953 9.85558 7.80764 10.0235 7.87714 10.1789C7.94954 10.3407 8.05629 10.4886 8.18967 10.617C8.3551 10.7763 8.5617 10.9051 8.79577 10.992C8.93463 11.0436 9.08291 11.0808 9.23816 11.1005V11.2958V11.5593V12.6775V12.873V12.915V12.9207C9.16328 12.908 9.09077 12.8902 9.02185 12.8677C8.82712 12.8037 8.65877 12.7023 8.53321 12.5752C8.38292 12.423 8.29385 12.2344 8.29385 12.0303C8.29385 11.9963 8.28713 11.9639 8.27536 11.9342C8.23697 11.837 8.14246 11.7682 8.03167 11.7682C7.8869 11.7682 7.76958 11.8855 7.76958 12.0303C7.76958 12.0649 7.77153 12.099 7.77449 12.133C7.79664 12.3914 7.90086 12.6311 8.06639 12.8339C8.18381 12.9777 8.332 13.1028 8.50272 13.2031C8.67187 13.3025 8.86303 13.3777 9.06934 13.4217C9.12459 13.4336 9.18099 13.4431 9.2382 13.4504V13.7929C9.2382 13.8593 9.26307 13.9197 9.30375 13.9659C9.35181 14.0204 9.42193 14.055 9.50038 14.055C9.57879 14.055 9.64896 14.0204 9.69697 13.9659C9.73765 13.9197 9.76247 13.8593 9.76247 13.7929V13.4504C9.81977 13.4432 9.87608 13.4336 9.93138 13.4217C10.1376 13.3777 10.3289 13.3025 10.498 13.2031C10.6688 13.1028 10.817 12.9778 10.9343 12.8339C11.0999 12.6311 11.2041 12.3914 11.2262 12.1331C11.2291 12.0993 11.2311 12.0651 11.2311 12.0305ZM9.14584 10.5526C8.97583 10.513 8.82173 10.4457 8.69279 10.3577C8.53416 10.2494 8.41365 10.1099 8.34839 9.95204C8.3129 9.8662 8.29385 9.77498 8.29385 9.68047C8.29385 9.24543 8.69817 8.88074 9.23735 8.78961C9.23707 8.78961 9.23763 8.78956 9.23735 8.78961L9.2382 8.8221V9.94027V10.1778V10.5709C9.20695 10.5657 9.17614 10.5597 9.14584 10.5526ZM10.7068 12.0305C10.7068 12.2345 10.6177 12.4232 10.4675 12.5754C10.3419 12.7025 10.1736 12.804 9.97883 12.8679C9.9098 12.8905 9.83749 12.9083 9.76261 12.9209C9.76271 12.9209 9.76257 12.9209 9.76261 12.9209L9.76242 12.9152V12.8732V12.6777V11.5595V11.296V11.1391C10.2563 11.2223 10.6369 11.5352 10.698 11.9216C10.7036 11.9573 10.7068 11.9936 10.7068 12.0305Z" fill="white"/>
</svg>
