<svg width="19" height="19" viewBox="0 0 19 19" fill="none" xmlns="http://www.w3.org/2000/svg">
<path d="M5.93365 8.84525H5.74742V7.33517C5.74742 7.15619 5.60237 7.01109 5.42335 7.01109H5.39552V3.92161C5.39552 3.7989 5.32622 3.68668 5.21638 3.63177L2.7085 2.37748C2.60808 2.32727 2.48878 2.33259 2.3932 2.39165C2.29762 2.45068 2.23946 2.55498 2.23946 2.66733V7.01109H2.21163C2.03261 7.01109 1.88756 7.15619 1.88756 7.33517V8.84525H1.70102C1.52201 8.84525 1.37695 8.99035 1.37695 9.16932V17.6759C1.37695 17.8549 1.52201 18 1.70102 18H5.93357C6.11259 18 6.25764 17.8549 6.25764 17.6759V9.16932C6.25773 8.99035 6.11267 8.84525 5.93365 8.84525ZM2.88769 3.19176L4.74742 4.12189V7.01109H2.88769V3.19176ZM2.53583 7.65924H5.09932V8.84525H2.53583V7.65924ZM5.60958 17.3519H2.02518V9.49339H5.60958V17.3519Z" fill="white"/>
<path d="M17.2983 14.1475H6.77231C6.59329 14.1475 6.44824 14.2926 6.44824 14.4715C6.44824 14.6505 6.59329 14.7956 6.77231 14.7956H16.7827L16.7086 14.9496C16.3015 15.7955 15.4319 16.3421 14.4932 16.3421H6.77231C6.59329 16.3421 6.44824 16.4872 6.44824 16.6662C6.44824 16.8452 6.59329 16.9903 6.77231 16.9903H14.4932C15.6794 16.9903 16.7783 16.2996 17.2926 15.2307L17.5903 14.6121C17.6387 14.5116 17.632 14.3934 17.5727 14.2991C17.5134 14.2048 17.4097 14.1475 17.2983 14.1475Z" fill="white"/>
<path d="M6.02471 3.38296C7.23307 2.26427 8.80607 1.64814 10.454 1.64814C14.0497 1.64814 16.9749 4.57343 16.9749 8.16906C16.9749 10.1076 16.1207 11.9329 14.6314 13.1769C14.494 13.2917 14.4757 13.496 14.5905 13.6334C14.6546 13.7101 14.7466 13.7497 14.8394 13.7497C14.9126 13.7497 14.9863 13.725 15.0469 13.6743C16.6842 12.3068 17.6231 10.3002 17.6231 8.16902C17.6231 4.21604 14.4071 1 10.454 1C8.6423 1 6.91293 1.6774 5.58436 2.9074C5.45305 3.02899 5.44514 3.23402 5.56673 3.36537C5.68828 3.49664 5.89331 3.50455 6.02471 3.38296Z" fill="white"/>
<path d="M10.4537 2.9958C13.3062 2.9958 15.6269 5.31649 15.6269 8.16901C15.6269 11.0215 13.3062 13.3422 10.4537 13.3422C9.17125 13.3422 7.94116 12.8696 6.98986 12.0115C6.85703 11.8916 6.65209 11.9021 6.53214 12.0351C6.41228 12.1679 6.42282 12.3729 6.55573 12.4927C7.62629 13.4585 9.01059 13.9904 10.4537 13.9904C13.6636 13.9904 16.275 11.3789 16.275 8.16901C16.275 4.95911 13.6636 2.34766 10.4537 2.34766C8.61013 2.34766 6.85634 3.23518 5.76232 4.7218C5.6562 4.86595 5.68709 5.06882 5.83124 5.1749C5.97538 5.28093 6.17817 5.25012 6.28433 5.10598C7.25672 3.78467 8.81537 2.9958 10.4537 2.9958Z" fill="white"/>
<path d="M14.0187 5.6164L8.10469 11.5304C7.97813 11.657 7.97813 11.8622 8.10469 11.9887C8.16799 12.0519 8.25095 12.0836 8.33387 12.0836C8.41679 12.0836 8.49975 12.052 8.56305 11.9887L14.477 6.07468C14.6036 5.94812 14.6036 5.74292 14.477 5.6164C14.3504 5.48984 14.1452 5.48984 14.0187 5.6164Z" fill="white"/>
<path d="M9.90547 11.5703C9.7789 11.6968 9.7789 11.902 9.90547 12.0286C9.96877 12.0918 10.0517 12.1235 10.1346 12.1235C10.2176 12.1235 10.3005 12.0919 10.3638 12.0286L14.804 7.58836C14.9306 7.4618 14.9306 7.25659 14.804 7.13008C14.6774 7.00352 14.4723 7.00352 14.3457 7.13008L9.90547 11.5703Z" fill="white"/>
</svg>
