<svg width="19" height="19" viewBox="0 0 19 19" fill="none" xmlns="http://www.w3.org/2000/svg">
<path d="M14.4486 2.57275C14.7492 2.57275 14.9976 2.79613 15.0369 3.08594L15.0423 3.1665V15.8332C15.0423 16.1611 14.9389 16.4269 14.6109 16.4269C14.3103 16.4269 14.3118 16.2035 14.2725 15.9137L14.2671 15.8332V11.8748H12.0736C11.773 11.8748 11.5246 11.6515 11.4853 11.3617L11.4798 11.2811V5.5415C11.4798 3.90191 12.809 2.57275 14.4486 2.57275ZM9.611 2.57275C9.91159 2.57275 9.9849 2.79613 10.0242 3.08594L10.0297 3.1665V6.33317C10.0297 7.87896 8.84725 9.16607 7.38239 9.44417L7.38192 15.8332C7.38192 16.1611 7.27845 16.4269 6.95053 16.4269C6.64994 16.4269 6.65143 16.2035 6.61212 15.9137L6.6067 15.8332L6.60701 9.44432C5.19409 9.17645 4.03857 7.9699 3.96318 6.4978L3.95898 6.33317V3.1665C3.95898 2.83858 4.13725 2.57275 4.46517 2.57275C4.76576 2.57275 4.68946 2.79613 4.72878 3.08594L4.7342 3.1665L4.82175 6.33317C4.82175 7.21949 5.80389 8.30722 6.60703 8.55931L6.6067 3.1665C6.6067 2.83858 6.71017 2.57275 7.03809 2.57275C7.33868 2.57275 7.33718 2.79613 7.3765 3.08594L7.38192 3.25406L7.38237 8.55906C8.14051 8.32074 9.18904 7.30101 9.24909 6.47952L9.25442 6.33317V3.1665C9.25442 2.83858 9.28308 2.57275 9.611 2.57275ZM14.2671 11.0996V3.26146C13.616 3.49161 12.314 4.68975 12.2601 5.4059L12.2551 5.5415V11.0996H14.2671Z" fill="white"/>
</svg>
