<svg viewBox="0 0 19 19" fill="none" xmlns="http://www.w3.org/2000/svg">
<path d="M12.7565 6.875C11.527 6.875 10.3951 7.3006 9.5 8.01191C8.60488 7.30056 7.47302 6.875 6.24347 6.875C3.35218 6.875 1 9.22721 1 12.1185C1 15.0097 3.35218 17.3619 6.24347 17.3619C7.47302 17.3619 8.60488 16.9363 9.5 16.225C10.3951 16.9364 11.527 17.3619 12.7565 17.3619C15.6478 17.3619 18 15.0097 18 12.1185C18 9.22721 15.6478 6.875 12.7565 6.875ZM6.2435 16.4721C3.96354 16.4721 1.8898 14.3984 1.8898 12.1184C1.8898 9.83854 3.96355 7.76483 6.24347 7.76483C7.16383 7.76483 8.23371 8.14021 8.92151 8.65067C8.17852 9.55573 7.51309 10.8588 7.51309 12.1184C7.51309 13.3781 8.03263 14.6812 8.77562 15.5862C8.08785 16.0967 7.16386 16.4721 6.2435 16.4721ZM8.47585 12.1185C8.47585 11.1595 8.95002 9.98385 9.5 9.28167C10.0499 9.98385 10.5971 11.1594 10.5971 12.1185C10.5971 13.0775 10.0499 14.3261 9.5 15.0282C8.95006 14.326 8.47585 13.0774 8.47585 12.1185ZM12.7565 16.4721C11.8362 16.4721 10.8392 16.0238 10.1515 15.5133C10.8944 14.6082 11.4869 13.3781 11.4869 12.1184C11.4869 10.8588 10.9674 9.55569 10.2244 8.65067C10.9122 8.14018 11.8362 7.7648 12.7566 7.7648C15.0365 7.7648 17.1102 9.83854 17.1102 12.1184C17.1102 14.3984 15.0365 16.4721 12.7565 16.4721Z" fill="white"/>
<path d="M8.35185 5.6966C8.70071 5.96644 9.17738 6.34929 9.1975 6.36234L9.49932 6.55824L9.80113 6.36234C9.82125 6.34926 10.2978 6.0394 10.6468 5.76956C11.4504 5.14803 12.1539 4.52469 12.1539 3.52006C12.1539 2.48259 11.5288 1.85742 10.4913 1.85742C10.1377 1.85742 9.79446 2.10339 9.49935 2.2865C9.20424 2.10335 8.86105 1.85742 8.50737 1.85742C7.46991 1.85742 6.84473 2.48259 6.84473 3.52006C6.84467 4.52469 7.54823 5.07507 8.35185 5.6966ZM8.50734 2.74722C8.72764 2.74722 8.93822 2.84195 9.08504 3.00707L9.49932 3.47308L9.91359 3.0071C10.0604 2.84199 10.271 2.74726 10.4913 2.74726C10.9174 2.74726 11.2641 3.09393 11.2641 3.52009C11.2641 3.91113 10.9011 4.44656 10.0414 5.11149C9.89591 5.22401 9.64661 5.42122 9.49932 5.52216C9.35199 5.42125 9.10269 5.22404 8.95719 5.11149C8.09747 4.44656 7.7345 3.91113 7.7345 3.52009C7.7345 3.09393 8.08118 2.74722 8.50734 2.74722Z" fill="white"/>
</svg>
