<svg viewBox="0 0 19 19" fill="none" xmlns="http://www.w3.org/2000/svg">
<path d="M13.1007 8.35432C12.9244 8.25252 12.6987 8.46826 12.5969 8.64454C12.088 9.52595 11.2217 10.0731 10.2201 10.2803C10.0205 10.3216 9.89221 10.3615 9.93351 10.561C9.96967 10.7354 10.1231 10.8553 10.2942 10.8553C10.3189 10.8553 10.3444 10.8527 10.3694 10.8476C11.5769 10.5975 12.6217 9.84407 13.2357 8.78048C13.3375 8.60377 13.2773 8.45612 13.1007 8.35432Z" fill="white"/>
<path d="M17.3843 12.0855C17.3165 11.9888 17.2069 11.9306 17.0889 11.9283C15.3567 11.8963 13.6879 12.4063 12.2644 13.4032C11.3133 14.0692 10.4516 15.0672 9.86814 16.0419V12.1375C11.7224 12.0139 13.495 10.9691 14.4307 9.34827C15.4279 7.62121 15.4282 5.47484 14.4314 3.74632C14.3658 3.632 14.2437 3.56154 14.112 3.56154C13.515 3.56191 12.93 3.73688 12.3769 3.91797C11.8226 2.72233 10.9032 1.6346 9.75734 0.971869C9.64302 0.905861 9.50214 0.905861 9.38819 0.971869C8.24345 1.63347 7.32478 2.71938 6.77013 3.91356C6.21179 3.73174 5.63203 3.56191 5.04234 3.56154C4.91069 3.56154 4.78824 3.63197 4.7226 3.74595C3.72574 5.4745 3.72611 7.62125 4.72333 9.3483C5.65822 10.9681 7.43007 12.0132 9.28585 12.1371V16.0419C8.70241 15.0672 7.84073 14.0692 6.88963 13.4032C5.46608 12.4063 3.79915 11.8959 2.06506 11.9284C1.94705 11.9306 1.83752 11.9889 1.76965 12.0855C1.70215 12.1821 1.68481 12.3053 1.72316 12.4167C2.28596 14.0556 3.3359 15.4489 4.75945 16.4457C6.14133 17.4134 7.75367 17.9224 9.43169 17.9224H9.72231C11.4003 17.9224 13.0127 17.4134 14.3945 16.4457C15.1063 15.9471 15.7248 15.3497 16.2355 14.6718C16.7463 13.994 17.1494 13.2361 17.4308 12.4166C17.4692 12.3053 17.4518 12.1821 17.3843 12.0855ZM5.18246 15.9969C4.03403 15.1926 2.99774 13.8725 2.45599 12.5972C3.8397 12.6698 5.31819 13.0481 6.46662 13.852C7.61505 14.6564 8.57372 15.8992 9.11509 17.1745C7.73172 17.1014 6.33089 16.8008 5.18246 15.9969ZM9.04204 11.5275C7.54731 11.3364 5.96944 10.3785 5.2068 9.05711C4.37702 7.61992 4.26473 5.69262 5.02482 4.2263C5.56583 4.25064 6.32866 4.36423 6.83577 4.56524C7.80238 4.94767 8.67698 5.60931 9.22941 6.48444C8.44608 7.97915 8.38376 9.98703 9.04204 11.5275ZM7.30228 4.10956C7.764 3.13336 8.65649 2.14428 9.57257 1.56674C10.4909 2.14574 11.3844 3.13741 11.8462 4.1162C11.0149 4.51523 10.1291 5.11674 9.57811 5.87533C9.02897 5.11415 8.15234 4.51304 7.30228 4.10956ZM9.74443 6.73207C10.5738 5.29487 12.3239 4.30154 13.9739 4.22667C14.734 5.69298 14.777 7.54229 13.9472 8.97949C13.1178 10.4163 11.3677 11.5653 9.7177 11.6401C8.95762 10.1739 8.91465 8.16923 9.74443 6.73207ZM14.0492 15.9193C12.9007 16.7233 11.345 17.1791 9.96128 17.2521C10.5026 15.9768 11.4613 14.6564 12.6097 13.852C13.7582 13.048 15.3143 12.6698 16.698 12.5972C16.1563 13.8725 15.1976 15.1149 14.0492 15.9193Z" fill="white"/>
</svg>
