<svg viewBox="0 0 19 19" fill="none" xmlns="http://www.w3.org/2000/svg">
<path d="M2.98332 17.4287H1.28332C1.12694 17.4287 1 17.5556 1 17.712C1 17.8684 1.12694 17.9954 1.28332 17.9954H2.98332C3.13971 17.9954 3.26664 17.8684 3.26664 17.712C3.26664 17.5556 3.13974 17.4287 2.98332 17.4287Z" fill="white"/>
<path d="M7.48864 6.70637C7.35632 6.6225 7.18151 6.66131 7.09734 6.79336L5.29421 9.62668C5.24547 9.70348 5.2364 9.79924 5.27014 9.88394C5.30384 9.96837 5.37639 10.0316 5.46451 10.0536C5.51239 10.0655 6.66444 10.3455 9.50002 10.3455C9.99727 10.3455 10.4778 10.3367 10.9278 10.3191C11.0839 10.3132 11.2057 10.1814 11.1998 10.0253C11.1938 9.8689 11.0683 9.74054 10.9056 9.75299C10.4631 9.76999 9.9899 9.77875 9.50002 9.77875C7.65807 9.77875 6.54002 9.65663 5.99888 9.57505L7.57563 7.0976C7.6595 6.96562 7.62065 6.7905 7.48864 6.70637Z" fill="white"/>
<path d="M17.7172 17.4287H17.1505C16.9941 17.4287 16.8672 17.5556 16.8672 17.712C16.8672 17.8684 16.9941 17.9954 17.1505 17.9954H17.7172C17.8736 17.9954 18.0005 17.8684 18.0005 17.712C18.0005 17.5556 17.8736 17.4287 17.7172 17.4287Z" fill="white"/>
<path d="M16.0167 17.4289H13.75V15.4325C15.962 15.3149 17.7084 14.8894 17.7844 14.8707C17.8751 14.8483 17.9487 14.7831 17.9816 14.6958C18.0147 14.6086 18.0025 14.5108 17.9496 14.4343L15.6138 11.0601C16.3039 10.9862 16.6332 10.9083 16.6496 10.9043C16.7386 10.8831 16.8117 10.8199 16.846 10.7352C16.8803 10.6502 16.8715 10.5541 16.8225 10.4768L14.6759 7.10371C15.2366 7.02495 15.5203 6.9371 15.5347 6.93258C15.6186 6.90622 15.6855 6.84277 15.7158 6.76059C15.7461 6.67814 15.7367 6.58634 15.6903 6.5121L12.8569 1.97871C12.8054 1.89626 12.715 1.84583 12.6175 1.84553C12.5207 1.84553 12.4293 1.8951 12.3775 1.97698L11.6579 3.11034C11.574 3.24235 11.6131 3.41746 11.7451 3.50134C11.8774 3.58547 12.0526 3.54609 12.1361 3.41408L12.6147 2.6604L14.9995 6.47604C14.8017 6.51399 14.5244 6.55792 14.1668 6.59361C14.0687 6.60324 13.9832 6.66304 13.9401 6.75172C13.8971 6.84011 13.903 6.94467 13.956 7.02767L16.1175 10.4246C15.8815 10.4602 15.5381 10.5039 15.0822 10.541C14.9814 10.5492 14.8924 10.6107 14.8491 10.7022C14.806 10.7937 14.8148 10.9014 14.8723 10.9847L17.2435 14.4096C16.5658 14.5496 15.1137 14.8117 13.4551 14.8791C13.3032 14.8854 13.1834 15.01 13.1834 15.1622V17.4289H12.05V15.3039C12.05 15.1475 11.9231 15.0206 11.7667 15.0206C11.6103 15.0206 11.4834 15.1475 11.4834 15.3039V17.4289H10.6334V14.5757C13.4927 14.4774 14.6522 14.03 14.7054 14.0088C14.7853 13.9765 14.8465 13.9099 14.8712 13.8271C14.8961 13.7447 14.8822 13.6552 14.8329 13.5843L12.4971 10.2101C13.1873 10.1362 13.5165 10.0583 13.533 10.0543C13.6219 10.0331 13.695 9.96987 13.7293 9.88517C13.7636 9.80017 13.7548 9.70411 13.7058 9.62678L11.5593 6.25364C12.12 6.17488 12.4039 6.08703 12.4181 6.08251C12.5019 6.05615 12.5688 5.9927 12.5991 5.91052C12.6294 5.82808 12.6201 5.73627 12.5736 5.66203L9.74025 1.12871C9.63656 0.962956 9.36343 0.962956 9.2597 1.12871L6.42638 5.66206C6.38049 5.73574 6.37057 5.82638 6.40002 5.908C6.4295 5.98988 6.49465 6.05363 6.57709 6.08112C6.61338 6.09327 7.49373 6.37888 9.5 6.37888C9.70343 6.37888 9.89524 6.37606 10.0754 6.37039C10.2318 6.36557 10.3548 6.23495 10.3497 6.07856C10.3449 5.92188 10.2143 5.79239 10.0579 5.80401C9.88306 5.80939 9.69719 5.81221 9.5 5.81221C8.30319 5.81221 7.528 5.70626 7.11631 5.62747L9.5 1.81352L11.8828 5.62607C11.6851 5.66402 11.4077 5.70795 11.0501 5.74364C10.9524 5.75327 10.8665 5.81307 10.8234 5.90176C10.7804 5.99014 10.7863 6.0947 10.8393 6.17774L13.0009 9.57462C12.7649 9.61031 12.4214 9.65394 11.9656 9.69106C11.8647 9.69926 11.7757 9.76076 11.7324 9.85226C11.6893 9.94377 11.6981 10.0514 11.7556 10.1348L14.1455 13.5869C13.5321 13.7458 12.0769 14.0289 9.5 14.0289C6.9228 14.0289 5.46731 13.7458 4.85418 13.5869L6.59442 11.0734C6.68367 10.9448 6.65137 10.7683 6.52274 10.6793C6.39381 10.5901 6.2176 10.6224 6.12862 10.751L4.16711 13.5843C4.1178 13.6552 4.10392 13.7447 4.12856 13.8271C4.15349 13.9099 4.21469 13.9765 4.29457 14.0088C4.34783 14.03 5.50725 14.4774 8.36664 14.5757V17.4289H7.51664V15.3039C7.51664 15.1475 7.3897 15.0206 7.23332 15.0206C7.07693 15.0206 6.95 15.1475 6.95 15.3039V17.4289H5.81667V15.1622C5.81667 15.0101 5.69681 14.8854 5.54467 14.8792C3.8883 14.8117 2.43454 14.5496 1.75649 14.4097L4.1277 10.9847C4.1852 10.9014 4.194 10.7938 4.15094 10.7022C4.10757 10.6107 4.01862 10.5492 3.91775 10.541C3.46187 10.5039 3.11875 10.4603 2.88245 10.4246L5.044 7.02771C5.09699 6.9447 5.10294 6.84014 5.05987 6.75176C5.01681 6.66307 4.93095 6.6033 4.8332 6.59364C4.47563 6.55795 4.19795 6.51402 4.00049 6.47607L6.38531 2.66043L6.86387 3.41411C6.94774 3.54616 7.12225 3.58554 7.25487 3.50137C7.38692 3.4175 7.42599 3.24242 7.34212 3.11037L6.62245 1.97705C6.57032 1.89487 6.46832 1.84985 6.38245 1.8456C6.285 1.84589 6.19459 1.8963 6.14303 1.97877L3.30974 6.51206C3.26329 6.5863 3.25392 6.67811 3.28424 6.76055C3.31455 6.84273 3.38142 6.90618 3.46529 6.93255C3.47947 6.93706 3.76336 7.02492 4.32409 7.10368L2.17754 10.4767C2.12854 10.5541 2.11974 10.6501 2.15404 10.7351C2.18833 10.8198 2.26141 10.883 2.3504 10.9043C2.36683 10.9083 2.69608 10.9862 3.38627 11.0601L1.05043 14.4343C0.997438 14.5108 0.985253 14.6086 1.01842 14.6958C1.05129 14.7831 1.12494 14.8483 1.21562 14.8707C1.29155 14.8893 3.038 15.3149 5.24999 15.4325V17.4289H4.11667C3.96029 17.4289 3.83335 17.5558 3.83335 17.7122C3.83335 17.8686 3.96029 17.9955 4.11667 17.9955H16.0167C16.1731 17.9955 16.3 17.8686 16.3 17.7122C16.3 17.5558 16.1731 17.4289 16.0167 17.4289ZM10.0667 17.4289H8.93335V14.5902C9.11696 14.5933 9.30367 14.5956 9.50003 14.5956C9.69639 14.5956 9.88309 14.5933 10.0667 14.5902V17.4289Z" fill="white"/>
</svg>
