<svg width="19" height="19" viewBox="0 0 19 19" fill="none" xmlns="http://www.w3.org/2000/svg">
<path d="M11.5335 4.74633C11.5335 4.48379 11.3089 4.271 11.0318 4.271H6.01443C5.73732 4.271 5.5127 4.48379 5.5127 4.74633V8.54896C5.5127 8.81149 5.73732 9.02429 6.01443 9.02429H11.0318C11.3089 9.02429 11.5335 8.81149 11.5335 8.54896V4.74633ZM10.7988 8.32822H8.52311H6.24743V4.96706H10.7988V8.32822Z" fill="white"/>
<path d="M17.0964 5.265L15.2877 4.4965C15.0393 4.37859 14.7415 4.2923 14.6175 4.52693C14.4935 4.7618 14.5955 4.97487 14.8434 5.0923L15.778 5.45293C15.7577 5.50462 15.7313 5.63172 15.7313 5.69021C15.7313 6.30909 16.1253 6.64961 16.627 6.84643V12.8201C16.627 13.0822 16.3254 13.2955 16.0488 13.2955C15.7722 13.2955 15.5471 13.0822 15.5471 12.8201V9.01751C15.5471 7.86986 14.5436 6.90976 13.5401 6.68891V3.7889C13.5401 2.74053 12.6638 1.89453 11.5572 1.89453H5.53633C4.42972 1.89453 3.50543 2.74053 3.50543 3.7889V14.4276L2.77929 14.7716C2.60926 14.8521 2.50195 15.0167 2.50195 15.1968V16.6228C2.50195 16.8853 2.75056 17.1051 3.02765 17.1051H14.0658C14.3429 17.1051 14.5436 16.8853 14.5436 16.6228V15.1968C14.5436 15.0167 14.4363 14.8521 14.2663 14.7716L13.5401 14.4276V7.42454C14.0419 7.62136 14.8124 8.39864 14.8124 9.01751V12.8201C14.8124 13.6065 15.2188 13.9915 16.0488 13.9915C16.8789 13.9915 17.3618 13.6065 17.3618 12.8201V5.69021C17.3618 5.51009 17.2664 5.34554 17.0964 5.265ZM14.0012 16.409L8.52279 16.3366L3.04441 16.409V15.3084L3.6744 14.9831C3.84443 14.9026 4.18308 14.9016 4.18308 14.7214V9.27209V3.7889C4.18308 3.26461 4.98288 2.55075 5.53633 2.55075H11.5572C12.1106 2.55075 12.7964 3.26458 12.7964 3.7889L12.8905 9.27209V14.7214C12.8905 14.9016 13.2973 14.9751 13.4673 15.0556L14.0012 15.3084V16.409Z" fill="white"/>
</svg>
