<svg viewBox="0 0 19 19" fill="none" xmlns="http://www.w3.org/2000/svg">
<path d="M17.9323 14.8226C17.8572 14.4984 17.7884 14.1732 17.7278 13.8558C17.7004 13.7125 17.562 13.6187 17.4188 13.6459C17.2755 13.6733 17.1815 13.8116 17.2089 13.9549C17.2708 14.279 17.341 14.611 17.4176 14.9417C17.454 15.0987 17.4724 15.2626 17.4724 15.429C17.4724 15.9892 17.2564 16.515 16.9087 16.8012C16.9066 16.803 16.9045 16.8048 16.9024 16.8066C16.9001 16.8083 16.8979 16.81 16.8958 16.8117C16.7286 16.9452 16.5397 17.0157 16.3494 17.0157C16.1592 17.0157 15.9702 16.9452 15.8031 16.8117C15.801 16.81 15.7988 16.8084 15.7966 16.8067C15.7944 16.8048 15.7923 16.803 15.7901 16.8012C15.4425 16.515 15.2265 15.9892 15.2265 15.429C15.2265 15.2627 15.2449 15.0987 15.2813 14.9418C15.6411 13.3879 15.8423 11.8775 15.8793 10.4527C15.8811 10.3814 15.8542 10.3125 15.8044 10.2615C15.7547 10.2105 15.6865 10.1817 15.6152 10.1817H12.0887V9.4648H15.2722C15.4181 9.4648 15.5363 9.34661 15.5363 9.20068C15.5363 9.05478 15.4181 8.93657 15.2722 8.93657H12.0887V8.17911H15.2722C15.4181 8.17911 15.5363 8.06091 15.5363 7.91498C15.5363 7.76908 15.4181 7.65088 15.2722 7.65088H12.0887V6.89342H15.2722C15.4181 6.89342 15.5363 6.77522 15.5363 6.62929C15.5363 6.4834 15.4181 6.36519 15.2722 6.36519H12.0887V5.60773H15.2722C15.4181 5.60773 15.5363 5.48953 15.5363 5.3436C15.5363 5.19771 15.4181 5.0795 15.2722 5.0795H12.0887V4.32211H15.2722C15.4181 4.32211 15.5363 4.20391 15.5363 4.05798C15.5363 3.91208 15.4181 3.79385 15.2722 3.79385H12.0887V3.03649H13.5489C13.6948 3.03649 13.8131 2.91828 13.8131 2.77239C13.8131 2.6265 13.6948 2.50826 13.5489 2.50826H12.0887V1.98428H15.5825C16.2607 1.98428 16.8125 2.53608 16.8125 3.21432V9.96079C16.8125 10.9641 16.8951 12.0131 17.058 13.0786C17.0801 13.2228 17.2148 13.3217 17.359 13.2998C17.5032 13.2777 17.6023 13.1429 17.5802 12.9987C17.4213 11.9596 17.3408 10.9375 17.3408 9.96079V3.21432C17.3408 2.24483 16.552 1.45605 15.5825 1.45605H11.8246C11.6787 1.45605 11.5605 1.57429 11.5605 1.72015V10.4458C11.5605 10.5917 11.6787 10.7099 11.8246 10.7099H15.3422C15.289 12.0195 15.0957 13.4016 14.7666 14.8226C14.7212 15.0186 14.6982 15.2226 14.6982 15.429C14.6982 16.1268 14.9602 16.7695 15.4021 17.1642C15.4316 17.2086 15.4742 17.2435 15.5243 17.2635C15.7741 17.4472 16.058 17.544 16.3494 17.544C16.6407 17.544 16.9246 17.4472 17.1744 17.2635C17.2245 17.2435 17.2671 17.2086 17.2966 17.1642C17.7386 16.7695 18.0005 16.1268 18.0005 15.429C18.0006 15.2226 17.9776 15.0186 17.9323 14.8226Z" fill="white"/>
<path d="M15.2716 2.5083H14.4135C14.2677 2.5083 14.1494 2.6265 14.1494 2.77243C14.1494 2.91833 14.2677 3.03653 14.4135 3.03653H15.2716C15.4175 3.03653 15.5357 2.91833 15.5357 2.77243C15.5358 2.6265 15.4175 2.5083 15.2716 2.5083Z" fill="white"/>
<path d="M10.1006 13.5918C9.24064 13.5918 8.54102 14.2914 8.54102 15.1514C8.54105 16.0113 9.24064 16.7109 10.1006 16.7109C10.9605 16.7109 11.6601 16.0113 11.6601 15.1514C11.6601 14.2914 10.9605 13.5918 10.1006 13.5918ZM10.1006 16.1827C9.53189 16.1827 9.06923 15.72 9.06923 15.1513C9.06927 14.5826 9.53189 14.12 10.1006 14.12C10.6693 14.12 11.1319 14.5826 11.1319 15.1513C11.1319 15.72 10.6693 16.1827 10.1006 16.1827Z" fill="white"/>
<path d="M12.6375 15.0612C12.5932 13.7894 11.565 12.7174 10.2967 12.6206C10.0731 12.6037 9.84915 12.6158 9.63018 12.6569L9.31548 12.6055C8.90745 12.5388 8.52555 12.3424 8.23366 12.0502L8.01933 11.3578L9.58516 2.77486C9.67932 2.25865 9.49312 1.72259 9.09916 1.37591C9.03193 1.31675 8.93939 1.29563 8.8531 1.32C8.7669 1.34427 8.6989 1.41054 8.6724 1.49611L6.81967 7.48189L4.96694 1.49617C4.94045 1.41061 4.87241 1.3443 4.78625 1.32007C4.70006 1.29573 4.60742 1.31681 4.54018 1.37598C4.14623 1.72265 3.95999 2.25868 4.05416 2.77489L4.63252 5.94529C4.65872 6.08879 4.79628 6.18385 4.93978 6.15772C5.08329 6.13155 5.17838 5.99399 5.15222 5.85049L4.57385 2.6801C4.54188 2.50492 4.55971 2.32615 4.62054 2.16336L6.56736 8.45318L7.49559 11.4522L7.7477 12.2667C7.75955 12.3051 7.78004 12.3402 7.80753 12.3695C8.18336 12.7694 8.68864 13.0384 9.23028 13.1269L9.58107 13.1841C9.6156 13.1912 9.65189 13.1915 9.68799 13.1839C9.87412 13.1451 10.0654 13.1327 10.2565 13.1474C11.2437 13.2227 12.0751 14.0895 12.1096 15.0795C12.1288 15.6308 11.929 16.1523 11.5468 16.548C11.1644 16.9439 10.6508 17.162 10.1005 17.162C9.18702 17.162 8.38742 16.5456 8.15603 15.6631C8.15414 15.6558 8.15191 15.6486 8.14946 15.6416L7.23235 11.7389C7.21227 11.6534 7.15107 11.5836 7.06906 11.5524L6.91374 11.4934C6.91387 11.4934 6.91364 11.4933 6.91374 11.4934L6.21564 11.2281L6.12699 11.1944L5.3101 6.71629C5.2839 6.57279 5.14631 6.47763 5.00284 6.50386C4.85933 6.53002 4.76424 6.66758 4.7904 6.81109L5.61988 11.3579L5.40556 12.0503C5.1137 12.3425 4.7318 12.5389 4.32373 12.6056L4.009 12.657C3.79029 12.6159 3.56531 12.6037 3.34242 12.6207C2.07419 12.7174 1.04599 13.7894 1.0016 15.0612C0.97733 15.7569 1.22977 16.4152 1.71235 16.915C2.19515 17.4149 2.84367 17.6902 3.53855 17.6902C4.68004 17.6902 5.68081 16.9278 5.98468 15.8317C5.98943 15.8198 5.99335 15.8074 5.99634 15.7945L6.81954 12.2915L7.64274 15.7945C7.64573 15.8073 7.64968 15.8197 7.6544 15.8317C7.95827 16.9278 8.95901 17.6903 10.1005 17.6903C10.7953 17.6903 11.4439 17.4149 11.9267 16.915C12.4093 16.4153 12.6618 15.7569 12.6375 15.0612ZM7.68153 10.2664L7.09616 8.37508L9.01884 2.16339C9.07971 2.32615 9.09747 2.50488 9.06553 2.6801L7.68153 10.2664ZM5.48979 15.6416C5.48733 15.6486 5.48511 15.6558 5.48322 15.6631C5.25182 16.5456 4.45223 17.1619 3.53871 17.1619C2.98847 17.1619 2.47485 16.9439 2.09249 16.548C1.71035 16.1522 1.51047 15.6307 1.52973 15.0795C1.56426 14.0894 2.39556 13.2227 3.38282 13.1473C3.43459 13.1434 3.48702 13.1414 3.53868 13.1414C3.6771 13.1414 3.81596 13.1557 3.95133 13.1839C3.98732 13.1914 4.02341 13.1912 4.05774 13.1842L4.40906 13.1269C4.95071 13.0384 5.45599 12.7694 5.83182 12.3695C5.85931 12.3403 5.87979 12.3051 5.89165 12.2667L6.0569 11.7328L6.19632 11.7857L6.37953 11.8554L5.48979 15.6416Z" fill="white"/>
<path d="M3.5381 13.5918C2.67815 13.5918 1.97852 14.2914 1.97852 15.1514C1.97852 16.0113 2.67815 16.7109 3.5381 16.7109C4.39806 16.7109 5.09769 16.0113 5.09769 15.1514C5.09769 14.2914 4.39806 13.5918 3.5381 13.5918ZM3.5381 16.1827C2.9694 16.1827 2.50675 15.72 2.50675 15.1513C2.50675 14.5826 2.9694 14.12 3.5381 14.12C4.10681 14.12 4.56946 14.5826 4.56946 15.1513C4.56946 15.72 4.10681 16.1827 3.5381 16.1827Z" fill="white"/>
</svg>
