<svg viewBox="0 0 19 19" fill="none" xmlns="http://www.w3.org/2000/svg">
<path d="M17.9074 2.84398L16.1563 1.09292C16.033 0.969678 15.8333 0.969678 15.71 1.09292L13.3893 3.41367C13.2874 3.5155 13.27 3.66955 13.3364 3.78955L10.4961 6.62992C9.3405 5.61589 7.57484 5.6594 6.47245 6.76179C6.3248 6.90944 6.19289 7.07253 6.08045 7.24653C5.97185 7.4145 5.8797 7.5959 5.80623 7.78617C5.60359 8.31416 5.08532 8.68163 4.51668 8.70048C3.59127 8.73128 2.72093 9.10897 2.066 9.76391C1.37857 10.4513 1 11.3653 1 12.3375C0.999664 13.3095 1.37824 14.2235 2.06595 14.9112L4.08921 16.9344C4.77668 17.6219 5.69069 18.0005 6.66289 18.0005C7.63506 18.0005 8.54911 17.6219 9.23657 16.9344C9.56865 16.6024 9.82949 16.2167 10.012 15.7879C10.1879 15.3737 10.2848 14.9349 10.3 14.4837C10.3189 13.9151 10.6863 13.3968 11.2143 13.1942C11.5994 13.0463 11.944 12.8221 12.2383 12.5276C12.7942 11.9718 13.1007 11.2323 13.1014 10.4448C13.1011 9.72292 12.8425 9.04131 12.3706 8.50431L15.211 5.66394C15.2583 5.69012 15.3109 5.70345 15.3635 5.70345C15.4442 5.70345 15.525 5.67265 15.5867 5.61101L17.9074 3.29026C18.0306 3.16706 18.0306 2.96719 17.9074 2.84398ZM9.46169 10.5207C9.36386 10.3076 9.22811 10.1125 9.05804 9.94244C8.88792 9.77236 8.69285 9.63662 8.47981 9.53883L13.7739 4.24466L14.7558 5.22655L9.46169 10.5207ZM12.4703 10.4447C12.4697 11.0634 12.2289 11.6446 11.7921 12.0814C11.5606 12.3129 11.2901 12.4891 10.9881 12.605C10.2145 12.902 9.69682 13.6312 9.66917 14.4626C9.65663 14.8358 9.57652 15.1987 9.43122 15.541C9.28059 15.8948 9.06494 16.2135 8.7903 16.4881C8.22208 17.0563 7.46653 17.3693 6.66294 17.3693C5.85929 17.3693 5.10379 17.0563 4.53557 16.4881L2.51231 14.4649C1.94384 13.8964 1.63091 13.1409 1.63121 12.3375C1.63121 11.5339 1.94414 10.7784 2.51231 10.2101C3.0536 9.66885 3.77288 9.35672 4.53768 9.33126C5.3693 9.30362 6.09855 8.78589 6.39528 8.0128C6.45297 7.86334 6.52534 7.72083 6.61042 7.58916C6.69883 7.4525 6.80251 7.32429 6.91877 7.20802C7.35591 6.77088 7.93705 6.53015 8.55521 6.53015C9.10836 6.53015 9.63151 6.72346 10.0488 7.07721L7.65963 9.46633C7.57509 9.55091 7.5456 9.67596 7.58343 9.7894C7.6213 9.90285 7.72005 9.98511 7.83846 10.0019C8.13313 10.0438 8.40053 10.1775 8.61172 10.3887C8.82299 10.5999 8.95671 10.8673 8.9985 11.162C9.01529 11.2804 9.09755 11.3791 9.21103 11.417C9.24377 11.4279 9.27747 11.4332 9.31092 11.4332C9.39331 11.4332 9.47397 11.4009 9.53415 11.3408L11.9232 8.95168C12.2767 9.36871 12.47 9.89178 12.4703 10.4447ZM15.3635 4.94155L14.0587 3.63681L15.9332 1.76234L17.238 3.06712L15.3635 4.94155Z" fill="white"/>
<path d="M5.6637 10.7365C4.94674 11.4534 4.94674 12.62 5.6637 13.337C6.02224 13.6955 6.49309 13.8747 6.96398 13.8747C7.43487 13.8747 7.90576 13.6955 8.26427 13.337C8.98123 12.62 8.98123 11.4534 8.26427 10.7365C7.54722 10.0195 6.38074 10.0195 5.6637 10.7365ZM7.81795 12.8907C7.34714 13.3615 6.58087 13.3615 6.11002 12.8907C5.63913 12.4198 5.63913 11.6537 6.11002 11.1828C6.34544 10.9473 6.65471 10.8296 6.96398 10.8296C7.27325 10.8296 7.58252 10.9473 7.81795 11.1828C8.28884 11.6536 8.28884 12.4198 7.81795 12.8907Z" fill="white"/>
<path d="M4.10418 13.2003C3.98089 13.0771 3.78111 13.0771 3.65786 13.2003C3.53462 13.3236 3.53462 13.5234 3.65786 13.6466L5.35385 15.3426C5.41549 15.4042 5.49628 15.435 5.57703 15.435C5.65777 15.435 5.73856 15.4042 5.8002 15.3426C5.92345 15.2193 5.92345 15.0195 5.8002 14.8963L4.10418 13.2003Z" fill="white"/>
</svg>
