<svg viewBox="0 0 19 19" fill="none" xmlns="http://www.w3.org/2000/svg">
<path d="M13.5635 2.35449C11.7701 2.35449 10.1924 3.43525 9.5 5.00885C8.80758 3.43522 7.2299 2.35449 5.43647 2.35449C2.9902 2.35449 1 4.34465 1 6.79093C1 9.2025 3.73527 11.5504 5.04979 12.6787L5.06157 12.6888C6.18686 13.6547 9.2372 16.5245 9.26788 16.5534C9.33309 16.6147 9.41653 16.6454 9.5 16.6454C9.58344 16.6454 9.66688 16.6147 9.73212 16.5534C9.7628 16.5245 12.8131 13.6548 13.9384 12.6888L13.9502 12.6787C15.2647 11.5504 18 9.20247 18 6.79093C18 4.34465 16.0098 2.35449 13.5635 2.35449ZM13.509 12.1648L13.4973 12.1749C12.5443 12.9929 10.2393 15.1488 9.5 15.8423C8.76067 15.1488 6.45567 12.9929 5.50274 12.1749L5.49096 12.1648C4.34976 11.1852 1.67728 8.89126 1.67728 6.79093C1.67728 4.71812 3.36363 3.03177 5.43644 3.03177C7.31995 3.03177 8.92253 4.43799 9.16415 6.30278C9.18603 6.47158 9.32977 6.59792 9.5 6.59792C9.6702 6.59792 9.81397 6.47158 9.83585 6.30278C10.0775 4.43799 11.6801 3.03177 13.5636 3.03177C15.6364 3.03177 17.3227 4.71812 17.3227 6.79093C17.3227 8.89126 14.6502 11.1852 13.509 12.1648Z" fill="white"/>
</svg>
