<svg viewBox="0 0 19 19" fill="none" xmlns="http://www.w3.org/2000/svg">
<path d="M17.8029 12.4811L17.7051 12.199C17.6388 12.0077 17.5622 11.8202 17.4757 11.6373L16.5267 9.63081L15.2176 6.863C15.1338 6.68578 15.0431 6.51176 14.9449 6.34208C14.91 6.28169 14.8785 6.22905 14.8613 6.2045C13.5538 4.34247 11.0464 3.2574 7.92597 3.21599C7.89519 3.21553 7.86497 3.21533 7.83429 3.21533C4.09774 3.21533 1.03199 6.21234 1.00025 9.89615C0.981819 12.0333 1.9936 14.0743 3.7067 15.3558C4.07678 15.6327 4.53903 15.7851 5.00838 15.7851H16.3376C17.0333 15.7851 17.6568 15.319 17.8537 14.6517C18.0647 13.9364 18.0472 13.1858 17.8029 12.4811ZM16.9044 11.8983H15.9054L13.6975 7.4559H14.8057C14.8066 7.45803 14.8077 7.46061 14.8086 7.46264L14.8129 7.47281L16.9044 11.8983ZM9.78232 7.47327L11.7786 11.4889C11.3811 11.2944 11.014 11.0341 10.6921 10.7119C9.92709 9.94698 9.50574 8.92994 9.50574 7.8482C9.50574 7.67205 9.62237 7.52272 9.78232 7.47327ZM12.6682 11.8001L10.5086 7.45596H11.6719L13.8803 11.8983H13.5558C13.2533 11.8983 12.9563 11.8642 12.6682 11.8001ZM14.6151 11.8983L12.4067 7.4559H12.9627L15.1706 11.8983H14.6151ZM17.2225 14.4655C17.1075 14.8551 16.7436 15.1271 16.3375 15.1271H5.00838C4.68021 15.1271 4.35792 15.0212 4.10088 14.8289C2.55481 13.6722 1.64164 11.8304 1.6583 9.90177C1.6869 6.57776 4.45744 3.87338 7.83429 3.87338C7.86203 3.87338 7.88937 3.87358 7.91721 3.87394C10.9351 3.91398 13.3175 4.97374 14.4553 6.78196C14.458 6.78682 14.4612 6.79254 14.4641 6.79785H9.89758C9.3187 6.79785 8.84774 7.26907 8.84774 7.8482C8.84774 9.10574 9.33748 10.288 10.2267 11.1772C11.1155 12.0666 12.2978 12.5563 13.5558 12.5563H17.1326L17.1812 12.6966C17.3802 13.2709 17.3945 13.8826 17.2225 14.4655Z" fill="white"/>
<path d="M7.51014 7.86084C6.9101 7.86084 6.42188 8.34906 6.42188 8.9491C6.42188 9.54914 6.9101 10.0374 7.51014 10.0374C8.11023 10.0374 8.59845 9.54914 8.59845 8.9491C8.59845 8.34906 8.11023 7.86084 7.51014 7.86084ZM7.51014 9.37931C7.27289 9.37931 7.07993 9.1863 7.07993 8.9491C7.07993 8.7119 7.27294 8.51889 7.51014 8.51889C7.74734 8.51889 7.94039 8.7119 7.94039 8.9491C7.94039 9.1863 7.74739 9.37931 7.51014 9.37931Z" fill="white"/>
</svg>
