<svg viewBox="0 0 19 19" fill="none" xmlns="http://www.w3.org/2000/svg">
<path d="M17.9602 8.56668L15.4157 6.21875V2.37224H12.4846V3.51431L9.55357 0.80957L1.14727 8.56668C1.02886 8.6762 1.02182 8.86058 1.13203 8.97854C1.24194 9.09621 1.42748 9.10291 1.54648 8.99369L2.5193 8.09599V17.8096H7.20901H11.8987H16.5884V8.0957L17.5612 8.9934C17.6175 9.04553 17.6893 9.07117 17.7609 9.07117C17.8397 9.07117 17.918 9.04 17.9754 8.97825C18.0856 8.86058 18.0786 8.6762 17.9602 8.56668ZM13.0709 2.95478H14.8295V5.67786L13.0709 4.0552V2.95478ZM7.79493 17.227V11.092C7.79493 10.9414 7.91803 10.8191 8.06957 10.8191H11.0376C11.1891 10.8191 11.3122 10.9414 11.3122 11.092V17.227H7.79493ZM16.0019 17.227H11.8984V11.092C11.8984 10.6201 11.5124 10.2365 11.0376 10.2365H8.06957C7.59473 10.2365 7.20871 10.6201 7.20871 11.092V17.227H3.10522V7.55481L9.55357 1.60445L13.7391 5.46669L15.4157 7.01363L16.0019 7.55452V17.227Z" fill="white"/>
</svg>
