<svg viewBox="0 0 19 19" fill="none" xmlns="http://www.w3.org/2000/svg">
<path d="M9.50029 3.51855C6.54922 3.51855 4.14844 5.91933 4.14844 8.87041C4.14844 11.1094 5.53079 13.0927 7.6114 13.876V16.7408C7.6114 16.9149 7.75212 17.0556 7.92622 17.0556H8.24103V17.6852C8.24103 17.8593 8.38175 18 8.55585 18H10.4447C10.6188 18 10.7596 17.8593 10.7596 17.6852V17.0556H11.0744C11.2485 17.0556 11.3892 16.9149 11.3892 16.7408V13.876C13.4698 13.0927 14.8522 11.1094 14.8522 8.87041C14.8522 5.91933 12.4514 3.51855 9.50029 3.51855ZM10.4447 16.426C10.2707 16.426 10.1299 16.5667 10.1299 16.7408V17.3704H8.87066V16.7408C8.87066 16.5667 8.72994 16.426 8.55585 16.426H8.24103V14.8519H10.7596V16.426H10.4447ZM10.9762 13.354C10.8468 13.3965 10.7596 13.5174 10.7596 13.6531V14.2223H8.24103V13.6531C8.24103 13.5171 8.15383 13.3965 8.02444 13.354C6.08298 12.7156 4.77807 10.9136 4.77807 8.87041C4.77807 6.26657 6.89646 4.14818 9.50029 4.14818C12.1041 4.14818 14.2225 6.26657 14.2225 8.87041C14.2225 10.9136 12.9176 12.7156 10.9762 13.354Z" fill="white"/>
<path d="M9.50036 2.88889C9.67446 2.88889 9.81518 2.74817 9.81518 2.57407V1.31481C9.81518 1.14072 9.67446 1 9.50036 1C9.32627 1 9.18555 1.14072 9.18555 1.31481V2.57407C9.18555 2.74817 9.32627 2.88889 9.50036 2.88889Z" fill="white"/>
<path d="M17.0555 8.55566H15.7963C15.6222 8.55566 15.4814 8.69639 15.4814 8.87048C15.4814 9.04457 15.6222 9.18529 15.7963 9.18529H17.0555C17.2296 9.18529 17.3703 9.04457 17.3703 8.87048C17.3703 8.69639 17.2296 8.55566 17.0555 8.55566Z" fill="white"/>
<path d="M3.20299 8.55566H1.94373C1.76964 8.55566 1.62891 8.69639 1.62891 8.87048C1.62891 9.04457 1.76964 9.18529 1.94373 9.18529H3.20299C3.37708 9.18529 3.5178 9.04457 3.5178 8.87048C3.5178 8.69639 3.37708 8.55566 3.20299 8.55566Z" fill="white"/>
<path d="M14.6193 3.30509L13.729 4.19539C13.6059 4.31848 13.6059 4.51744 13.729 4.64054C13.7904 4.70193 13.871 4.73278 13.9516 4.73278C14.0322 4.73278 14.1128 4.70193 14.1742 4.64054L15.0645 3.75024C15.1876 3.62715 15.1876 3.42818 15.0645 3.30509C14.9414 3.182 14.7421 3.18231 14.6193 3.30509Z" fill="white"/>
<path d="M4.82441 13.1001L3.93411 13.9904C3.81102 14.1135 3.81102 14.3125 3.93411 14.4356C3.9955 14.497 4.0761 14.5278 4.15669 14.5278C4.23728 14.5278 4.31787 14.497 4.37926 14.4356L5.26956 13.5453C5.39265 13.4222 5.39265 13.2232 5.26956 13.1001C5.14647 12.977 4.9475 12.977 4.82441 13.1001Z" fill="white"/>
<path d="M14.1742 13.1001C14.0511 12.977 13.8521 12.977 13.729 13.1001C13.6059 13.2232 13.6059 13.4222 13.729 13.5453L14.6193 14.4356C14.6807 14.497 14.7613 14.5278 14.8419 14.5278C14.9225 14.5278 15.0031 14.497 15.0645 14.4356C15.1876 14.3125 15.1876 14.1135 15.0645 13.9904L14.1742 13.1001Z" fill="white"/>
<path d="M4.82441 4.64065C4.8858 4.70204 4.96639 4.7329 5.04699 4.7329C5.12758 4.7329 5.20817 4.70204 5.26956 4.64065C5.39265 4.51756 5.39265 4.3186 5.26956 4.19551L4.37926 3.30521C4.25617 3.18212 4.05721 3.18212 3.93411 3.30521C3.81102 3.4283 3.81102 3.62727 3.93411 3.75036L4.82441 4.64065Z" fill="white"/>
<path d="M9.50044 5.09277C7.41731 5.09277 5.72266 6.78742 5.72266 8.87055C5.72266 9.04464 5.86338 9.18537 6.03747 9.18537C6.21157 9.18537 6.35229 9.04464 6.35229 8.87055C6.35229 7.13466 7.76455 5.7224 9.50044 5.7224C9.67453 5.7224 9.81525 5.58168 9.81525 5.40759C9.81525 5.2335 9.67453 5.09277 9.50044 5.09277Z" fill="white"/>
</svg>
