<svg width="19" height="19" viewBox="0 0 19 19" fill="none" xmlns="http://www.w3.org/2000/svg">
<path d="M13.229 12.7151L13.674 10.2683C14.5021 10.5127 15.1475 12.0826 15.3388 12.7183C15.3643 12.8032 15.4306 12.87 15.5152 12.8963C15.6003 12.9235 15.6924 12.9057 15.7618 12.8502C16.217 12.4858 16.6173 11.7404 15.938 10.2583C15.7443 9.83608 15.5087 9.45295 15.3221 9.1758C15.9844 9.35171 16.7178 10.0778 16.9931 10.4074C17.0599 10.4872 17.1682 10.5211 17.2682 10.494C17.3689 10.4666 17.4446 10.383 17.4618 10.28C17.6993 8.85586 16.4965 8.01472 15.9529 7.71251L16.3683 6.88153C16.4197 6.7787 16.3996 6.65442 16.3182 6.57304C16.2368 6.4913 16.1126 6.47177 16.0097 6.52294L14.5592 7.24819L13.3566 6.28597C13.2856 6.22932 13.1893 6.21232 13.1042 6.24154C13.0178 6.27049 12.9523 6.34148 12.9304 6.43004L12.725 7.25128C11.9371 7.19673 10.4054 7.67572 9.89807 7.84475C9.789 7.88108 9.71539 7.98315 9.71539 8.09823C9.71539 8.21331 9.789 8.31538 9.89807 8.35163L11.0808 8.74592C10.5059 9.44823 10.1335 10.7059 10.0213 11.1229C9.99619 11.1851 9.98264 11.2462 9.98264 11.3052C9.98264 11.44 10.0834 11.5539 10.2173 11.5703C10.3488 11.5857 10.4761 11.5011 10.509 11.3701C10.5171 11.338 10.5262 11.3025 10.5367 11.2646C10.6586 11.0519 11.2734 10.6132 12.0154 10.2004L11.5913 12.3217C11.5811 12.3726 11.5868 12.4227 11.6038 12.4679C10.999 12.4065 10.3671 12.3741 9.71532 12.3741C9.46009 12.3741 9.20811 12.3793 8.95939 12.3891C8.91098 12.2126 8.84241 11.9739 8.75987 11.6872C7.15954 6.12626 7.27307 5.03613 7.47846 4.8832C8.13771 4.72007 9.18135 6.16534 9.58537 6.89189C9.63471 6.98064 9.72811 7.02968 9.83276 7.02899C9.93456 7.02351 10.0243 6.96089 10.0645 6.86712C10.7514 5.26444 9.39146 3.88864 8.71315 3.32979C9.25363 3.12493 9.71243 3.26717 9.73438 3.27401C9.84687 3.31186 9.97056 3.27063 10.0382 3.17354C10.106 3.07612 10.1016 2.94623 10.0277 2.85349C9.10306 1.69813 7.17439 1.80122 6.37788 1.90196C6.48227 1.40139 6.7978 1.07464 6.80092 1.07152C6.88602 0.986782 6.90375 0.855497 6.84451 0.75084C6.78528 0.64645 6.66366 0.593723 6.54725 0.623473C5.67819 0.840622 4.98447 1.37874 4.69611 1.63026L3.25748 0.91078C3.16119 0.861905 3.04452 0.876846 2.96284 0.947835C2.88116 1.01882 2.85034 1.13181 2.88454 1.23431L3.31934 2.53929C1.02766 3.02134 1 5.665 1 5.69299C1 5.83025 1.10413 5.94537 1.24089 5.95895C1.3745 5.96904 1.5024 5.88013 1.52926 5.74545C1.64487 5.16732 2.31272 4.79966 2.95188 4.5867C1.89466 6.08628 2.83992 8.60215 2.88846 8.72872C2.937 8.85469 3.07194 8.92498 3.20296 8.89185C3.33398 8.85898 3.41984 8.7337 3.40314 8.59956C3.20714 7.03048 4.98547 5.72766 5.67394 5.28642C6.34474 7.29259 6.59572 12.3069 6.61159 12.6363C3.54698 13.1804 1.43088 14.5168 1.43088 16.1166C1.43088 16.2643 1.55041 16.385 1.69813 16.385H17.7327C17.8805 16.385 18 16.2643 18 16.1166C18 14.5892 16.0708 13.3018 13.229 12.7151ZM10.8625 10.2756C11.09 9.68959 11.3975 9.07974 11.7344 8.85496C11.8192 8.79838 11.8646 8.69844 11.851 8.59717C11.8375 8.49583 11.7675 8.41137 11.6707 8.37919L10.8617 8.10942C11.7501 7.86225 12.6022 7.70274 12.8029 7.80269C12.8754 7.83904 12.9605 7.84054 13.0341 7.80634C13.1077 7.77274 13.162 7.70716 13.1816 7.6284L13.3478 6.96334L14.3588 7.77244C14.4405 7.83742 14.5522 7.84884 14.6454 7.80265L15.5317 7.35952L15.3558 7.71134C15.3229 7.77712 15.3184 7.85365 15.3438 7.92281C15.3691 7.99198 15.4218 8.04756 15.4896 8.07655C15.5035 8.08249 16.6494 8.58545 16.906 9.54638C16.3788 9.05836 15.523 8.44105 14.7284 8.64077C14.6399 8.66261 14.5692 8.72819 14.5399 8.81432C14.5107 8.90038 14.5277 8.99571 14.5843 9.0667C14.6018 9.08854 16.1223 11.042 15.6869 12.0899C15.3704 11.2621 14.6195 9.70167 13.4568 9.70167C13.3277 9.70167 13.217 9.79398 13.194 9.92115L12.704 12.6164C12.4985 12.5815 12.2888 12.5502 12.0754 12.5225C12.0944 12.4942 12.1083 12.4619 12.1154 12.4265L12.6499 9.75407C12.67 9.65386 12.6311 9.5513 12.5502 9.48911C12.4691 9.42725 12.3597 9.41742 12.2683 9.46254C11.8589 9.66747 11.3163 9.95949 10.8625 10.2756ZM6.05597 4.78608C6.02649 4.71685 5.96908 4.66343 5.89783 4.63863C5.82657 4.61436 5.74854 4.6203 5.68254 4.65662C5.5826 4.71118 3.71525 5.74725 3.07012 7.3066C2.90151 6.28016 2.92293 4.89665 4.05924 4.32848C4.17512 4.27054 4.23279 4.13802 4.196 4.01381C4.15921 3.88953 4.03732 3.80965 3.91022 3.82376C3.83611 3.83212 2.598 3.97799 1.75374 4.5785C1.77201 4.52892 1.79209 4.47879 1.81351 4.42842C2.17184 3.5925 2.80731 3.11836 3.70197 3.01895C3.78209 3.01008 3.85414 2.96519 3.8977 2.89732C3.94103 2.82922 3.95146 2.74535 3.92589 2.66872L3.59549 1.67721L4.62193 2.19056C4.72476 2.24179 4.84871 2.2222 4.93039 2.14046C4.93587 2.13505 5.35293 1.72263 5.97091 1.40999C5.8793 1.63683 5.8104 1.91003 5.8104 2.21875C5.8104 2.29887 5.84643 2.37457 5.90829 2.42551C5.97014 2.47614 6.05156 2.49623 6.13012 2.48086C6.15073 2.47641 7.86773 2.14464 8.99986 2.70836C8.71617 2.74837 8.39178 2.84911 8.06738 3.06546C7.99301 3.11504 7.94838 3.19857 7.94838 3.28776C7.94838 3.37701 7.99301 3.46051 8.06738 3.51012C8.08694 3.52317 9.7883 4.67651 9.71104 6.07692C9.2097 5.326 8.25452 4.13729 7.34917 4.3649C7.24843 4.38997 7.10645 4.458 7.00206 4.63893C6.54456 5.43308 7.16858 8.08986 8.24642 11.8349C8.31193 12.0629 8.36834 12.2594 8.413 12.4182C7.97644 12.4481 7.55227 12.4931 7.14268 12.5515C7.10695 11.8205 6.82665 6.58397 6.05597 4.78608ZM1.9933 15.8505C2.33413 14.247 5.73158 12.9108 9.71546 12.9108C13.6993 12.9108 17.0968 14.247 17.4376 15.8505H1.9933Z" fill="white"/>
</svg>
