<svg viewBox="0 0 19 19" fill="none" xmlns="http://www.w3.org/2000/svg">
<path d="M9.5 0.999023C7.81886 0.999023 6.17548 1.49754 4.77766 2.43153C3.37984 3.36552 2.29037 4.69304 1.64703 6.24621C1.00368 7.79939 0.835355 9.50845 1.16333 11.1573C1.4913 12.8061 2.30085 14.3207 3.4896 15.5094C4.67834 16.6982 6.1929 17.5077 7.84174 17.8357C9.49057 18.1637 11.1996 17.9953 12.7528 17.352C14.306 16.7087 15.6335 15.6192 16.5675 14.2214C17.5015 12.8236 18 11.1802 18 9.49902C17.9974 7.24547 17.1011 5.08495 15.5076 3.49144C13.9141 1.89794 11.7536 1.00159 9.5 0.999023ZM17.2999 9.15311H13.8233C13.7997 7.88805 13.5623 6.63608 13.1211 5.45021C13.8563 5.10338 14.5378 4.65261 15.1447 4.11174C16.4513 5.47509 17.2174 7.26653 17.2999 9.15311ZM9.84568 1.9925C10.3696 2.42491 10.8392 2.91914 11.2443 3.4644C11.6203 3.96951 11.9428 4.51229 12.2067 5.08402C11.449 5.36362 10.6525 5.52385 9.84568 5.55898V1.9925ZM10.6601 1.77702C12.1391 1.9996 13.5227 2.64377 14.6451 3.6324C14.1052 4.10607 13.5025 4.50282 12.854 4.81139C12.331 3.66474 11.5853 2.63283 10.6601 1.77702ZM7.79097 3.46486C8.18707 2.93194 8.64469 2.44764 9.15433 2.022V5.55944C8.35808 5.52503 7.57184 5.36857 6.82307 5.09554C7.08805 4.51977 7.41245 3.97324 7.79097 3.46486ZM6.17481 4.82591C5.5151 4.5154 4.90226 4.11379 4.35424 3.63286C5.4872 2.63516 6.88597 1.98866 8.38001 1.77219C7.44856 2.63286 6.69877 3.671 6.17481 4.82591ZM9.15433 6.2508V9.15449H5.90357C5.92975 7.98628 6.15055 6.83062 6.5569 5.73505C7.39038 6.04188 8.26685 6.21577 9.15433 6.2508ZM9.15433 9.84585V12.7002C8.28764 12.7343 7.43131 12.9011 6.6152 13.1948C6.18257 12.1289 5.94165 10.9951 5.90357 9.84539L9.15433 9.84585ZM9.15433 13.3916V16.9064C8.22616 16.0214 7.46215 14.979 6.89774 13.8274C7.62424 13.5712 8.3847 13.4247 9.15433 13.3916ZM8.49523 17.242C6.94699 17.0415 5.49488 16.3799 4.32773 15.3431C4.90077 14.8343 5.54577 14.413 6.24187 14.0926C6.80591 15.2643 7.56825 16.3301 8.49523 17.242ZM9.84568 16.9394V13.3904C10.626 13.424 11.3968 13.5747 12.1322 13.8375C11.5612 14.9995 10.7868 16.0503 9.84568 16.9394ZM12.7867 14.1062C13.4718 14.425 14.107 14.8416 14.6723 15.3431C13.5155 16.3706 12.0785 17.0299 10.5451 17.2367C11.4664 16.3294 12.2247 15.2707 12.7867 14.1062ZM9.84568 12.7005V9.84539H13.1312C13.0932 10.9991 12.8509 12.1368 12.4155 13.2058C11.5902 12.9052 10.7233 12.7351 9.84568 12.7005ZM9.84568 9.15472V6.25102C10.7438 6.21535 11.6306 6.03714 12.4728 5.72306C12.8821 6.82197 13.1044 7.98167 13.1305 9.15404L9.84568 9.15472ZM3.85531 4.11266C4.47038 4.66102 5.1621 5.1168 5.90864 5.46565C5.47108 6.6473 5.23565 7.89419 5.21221 9.15404H1.70012C1.78291 7.26772 2.54892 5.47589 3.85531 4.11266ZM1.70012 9.84539H5.21221C5.24749 11.0849 5.50151 12.3084 5.96256 13.4596C5.18494 13.8164 4.46579 14.2888 3.8295 14.8607C2.53828 13.5003 1.78206 11.7192 1.70012 9.84539ZM15.1694 14.861C14.5416 14.2963 13.8331 13.8285 13.0672 13.4732C13.5315 12.3181 13.7874 11.0898 13.8228 9.84539H17.2999C17.2176 11.7194 16.461 13.5006 15.1694 14.861Z" fill="white"/>
</svg>
