<svg viewBox="0 0 19 19" fill="none" xmlns="http://www.w3.org/2000/svg">
<path d="M17.9965 9.13109C17.9965 7.82713 16.9353 6.76246 15.6279 6.76246H11.9657V4.12333C11.9657 3.00665 11.6397 2.20208 10.9947 1.73043C9.97511 0.98135 8.57405 1.40791 8.5151 1.42872C8.33823 1.48421 8.21685 1.6472 8.21685 1.83447V4.79959C8.21685 7.13353 5.50836 7.9277 5.39392 7.96238C5.35924 7.97278 5.32803 7.98319 5.30029 8.00053C5.09914 7.59824 4.68299 7.3208 4.20441 7.3208H2.22073C1.54794 7.3208 1 7.86874 1 8.54153V15.7514C1 16.4242 1.54794 16.9722 2.22073 16.9722H3.36863C3.60445 16.9722 3.79519 16.7814 3.79519 16.5456C3.79519 16.3098 3.60098 16.3053 3.36863 16.3053H2.22073C2.01612 16.3053 1.66686 15.9561 1.66686 15.7514V8.54153C1.66686 8.33692 2.01612 7.98766 2.22073 7.98766H4.20787C4.41248 7.98766 4.57895 8.33692 4.57895 8.54153V15.3422C4.57895 16.6462 5.64015 17.7108 6.94757 17.7108H14.2026C15.8117 17.7108 16.8348 16.8681 17.0151 15.4116L17.9931 9.27327C17.9965 9.25246 18 9.22819 18 9.20738V9.13109H17.9965ZM17.3297 9.16923L16.3552 15.2902C16.2269 16.3306 15.3817 17.044 14.2026 17.044H13.9321H6.94757C6.11179 17.044 5.24581 16.1815 5.24581 15.3422V8.78429C5.30823 8.79816 5.37412 8.79469 5.44001 8.77735C5.5822 8.7392 8.88371 7.78204 8.88371 4.79612V2.08293C9.24438 2.02745 10.0445 1.90484 10.4918 2.23083C10.9045 2.53601 11.2989 3.29102 11.2989 4.12333V7.18902C11.2989 7.42484 11.4896 7.34139 11.7254 7.43279H15.6314C16.4672 7.43279 17.3331 8.2953 17.3331 9.13455V9.16923H17.3297Z" fill="white"/>
</svg>
