<svg width="19" height="19" viewBox="0 0 19 19" fill="none" xmlns="http://www.w3.org/2000/svg">
<path d="M17.245 1.37813L1.35531 7.48923C1.14745 7.56916 1.00762 7.42571 1.0003 7.64828C0.99295 7.87084 1.11948 8.07619 1.32157 8.16968L7.96551 11.389L10.8299 17.678C10.9208 17.8745 11.1174 17.9996 11.3329 17.9996C11.339 17.9996 11.3451 17.9995 11.3513 17.9993C11.5738 17.9919 11.4304 17.8521 11.5103 17.6443C11.5382 17.5717 17.6038 1.80039 17.6222 1.75202C17.7955 1.29444 17.6813 1.21037 17.245 1.37813ZM2.18079 7.84731L15.7572 2.77092L8.08357 10.6806L2.18079 7.84731ZM11.153 16.9376L8.56572 11.2177L16.4655 2.87001L11.153 16.9376Z" fill="white"/>
</svg>
