<svg viewBox="0 0 19 19" fill="none" xmlns="http://www.w3.org/2000/svg">
<path d="M2.96245 6.1846L7.13796 9.56375L3.53113 12.8879C3.30133 13.0874 2.92689 13.3624 3.12636 13.5923C3.32584 13.8221 3.52789 13.7737 3.75768 13.5743L7.69573 9.93753L9.35806 11.3266C9.46165 11.4165 9.51745 11.4615 9.64622 11.4615C9.77499 11.4615 9.75785 11.4165 9.86145 11.3266L11.3049 10.0105L15.4618 13.5013C15.6916 13.7007 15.8937 13.7491 16.0931 13.5193C16.2926 13.2895 15.9182 13.0145 15.6884 12.815L11.8627 9.49379L16.0382 5.96572C16.268 5.76624 16.2896 5.77707 16.0901 5.54724C15.8907 5.31741 15.7525 5.43876 15.5228 5.6382C15.2024 5.91628 9.84146 10.3835 9.50031 10.6796C9.15905 10.3834 3.65223 5.98617 3.33193 5.70816C3.10213 5.50872 2.964 5.39045 2.76456 5.6202C2.56509 5.85003 2.73266 5.98513 2.96245 6.1846Z" fill="white"/>
<path d="M17.4491 3.35498H1.55095C1.24669 3.35498 1 3.6017 1 3.90597V15.0937C1 15.398 1.24669 15.6447 1.55095 15.6447H17.449C17.7534 15.6447 18 15.398 18 15.0937V3.90597C18 3.6017 17.7534 3.35498 17.4491 3.35498ZM17.3969 15.0414H1.60322V3.9582H17.3969V15.0414Z" fill="white"/>
</svg>
