<svg width="19" height="19" viewBox="0 0 19 19" fill="none" xmlns="http://www.w3.org/2000/svg">
<path d="M15.3216 5.8905C15.0789 5.11213 14.5698 4.69122 14.3121 4.52053C14.3143 4.48593 14.3158 4.45117 14.3158 4.41607C14.4807 1.43461 12.7501 1.02293 12.6764 1.00676C12.5945 0.988327 12.509 1.00818 12.443 1.05918C12.3766 1.11045 12.3364 1.18811 12.333 1.27168C12.3305 1.33005 12.2514 2.70022 10.3494 2.70022H6.38281C5.44527 2.70022 4.68283 3.46266 4.68283 4.4002C4.68283 4.44051 4.68476 4.48035 4.68752 4.51996C4.43003 4.69033 3.92014 5.11134 3.67726 5.8905C3.36067 6.90564 3.60461 8.14566 4.40091 9.5759C4.39474 9.74709 4.39165 9.92134 4.39165 10.0987C4.39165 12.0342 4.58177 14.0053 5.96044 15.3143C6.1827 15.5251 6.42176 15.7137 6.66613 15.8909V17.7167C6.66613 17.8733 6.79306 18 6.94945 18C7.10583 18 7.23277 17.8733 7.23277 17.7167V16.2822C7.26189 16.3017 7.2911 16.3214 7.32012 16.3407L7.53209 16.4829L7.59262 16.5236C7.62721 16.547 7.66121 16.5715 7.69538 16.5958C7.73287 16.6225 7.77032 16.6491 7.80747 16.6764C7.8414 16.7012 7.87537 16.7261 7.90911 16.7511C8.00941 16.8252 8.11048 16.8999 8.21417 16.9714C8.43932 17.1265 8.67708 17.2656 8.94659 17.3498C9.11443 17.4022 9.29455 17.4333 9.49181 17.4333C9.79143 17.4333 10.0517 17.3617 10.2891 17.2521C10.3501 17.224 10.4096 17.1934 10.4678 17.1608C10.682 17.0411 10.8796 16.8952 11.0742 16.7514C11.1225 16.7155 11.1709 16.6798 11.2196 16.6444C11.2762 16.6033 11.3332 16.5627 11.3908 16.5235L11.6628 16.341C11.6971 16.3181 11.7316 16.2949 11.7661 16.2718V17.7167C11.7661 17.8733 11.893 18 12.0494 18C12.2058 18 12.3327 17.8733 12.3327 17.7167V15.8797C12.5716 15.7059 12.8052 15.5207 13.0227 15.3142C14.4014 14.0053 14.5915 12.0342 14.5915 10.0987C14.5915 9.9305 14.5886 9.76522 14.583 9.60259C15.3913 8.1611 15.6401 6.91198 15.3216 5.8905ZM14.7807 6.05881C14.9915 6.73564 14.8959 7.55359 14.4975 8.49814C14.364 7.424 14.088 6.49831 13.672 5.73226C13.8805 5.56741 14.0491 5.35544 14.1614 5.11336C14.362 5.28256 14.6326 5.58381 14.7807 6.05881ZM6.38281 3.26689H10.3494C12.1024 3.26689 12.6523 2.25853 12.8232 1.68422C13.2065 1.92534 13.8486 2.60052 13.7494 4.40023C13.7494 4.80859 13.5324 5.16702 13.2076 5.3665C13.1895 5.37201 13.1717 5.37931 13.1545 5.38871C12.9797 5.48477 12.7984 5.53351 12.6162 5.53351H6.38291C6.19621 5.53351 6.01204 5.48307 5.83523 5.3839C5.81813 5.37427 5.80044 5.36666 5.78247 5.36089C5.46267 5.16034 5.2495 4.80487 5.2495 4.40023C5.2495 3.77519 5.7578 3.26689 6.38281 3.26689ZM4.21418 6.07186C4.36183 5.58779 4.63642 5.28223 4.83939 5.11163C4.94985 5.35039 5.11394 5.55931 5.31638 5.72283C4.90134 6.48377 4.62483 7.40285 4.4893 8.46912C4.10378 7.543 4.01088 6.7392 4.21418 6.07186ZM12.6326 14.9032C12.4012 15.1228 12.143 15.3209 11.8776 15.5086C11.8459 15.5311 11.814 15.5533 11.7821 15.5755C11.7636 15.5884 11.745 15.6013 11.7264 15.6141C11.6943 15.6362 11.6621 15.6583 11.6299 15.6802C11.6183 15.6881 11.6067 15.6959 11.5951 15.7037C11.5135 15.759 11.4316 15.8138 11.3496 15.8685L11.1856 15.9788L11.0729 16.0543C11.0222 16.0887 10.9721 16.1242 10.9222 16.1601C10.8602 16.2047 10.7987 16.2501 10.7373 16.2955C10.5635 16.4239 10.394 16.5492 10.2188 16.6496C9.9932 16.7787 9.75793 16.8666 9.49161 16.8666C9.29236 16.8666 9.11051 16.817 8.93696 16.738C8.69866 16.6296 8.47614 16.4655 8.24631 16.2955C8.16981 16.2389 8.09295 16.1823 8.01535 16.1273C7.98062 16.1026 7.94579 16.0781 7.91067 16.0543L7.83603 16.0042L7.64255 15.8741C7.46492 15.7554 7.28725 15.6364 7.113 15.5135L7.10929 15.5112C6.84254 15.3227 6.58299 15.1238 6.35067 14.9031C5.06606 13.6837 4.95838 11.7839 4.95838 10.0987C4.95838 8.41713 5.24492 7.04021 5.8101 6.0006C5.9453 6.04911 6.08837 6.08072 6.23685 6.09344L6.24203 6.09384C6.26348 6.0956 6.28493 6.09722 6.30661 6.09819C6.3253 6.09908 6.3441 6.09938 6.36286 6.09961C6.36956 6.09968 6.37617 6.10011 6.38291 6.10011H12.6161C12.6215 6.10011 12.6268 6.09975 12.6322 6.09971C12.6521 6.09951 12.6719 6.09912 12.6916 6.09822C12.7114 6.09736 12.7311 6.09586 12.7506 6.09433C12.7536 6.09407 12.7567 6.0939 12.7596 6.09364C12.9042 6.08148 13.0437 6.0513 13.1758 6.00522C13.7395 7.04453 14.0249 8.41972 14.0249 10.0987C14.0249 11.784 13.9172 13.6837 12.6326 14.9032Z" fill="white"/>
</svg>
