<svg viewBox="0 0 19 19" fill="none" xmlns="http://www.w3.org/2000/svg">
<path d="M18.3727 5.04329C17.8882 3.28757 16.5333 1.93264 14.8138 1.45704L14.7782 1.44873C14.3916 1.35432 13.9475 1.30029 13.4903 1.30029C11.9323 1.30029 10.5216 1.93086 9.49913 2.95032C8.57407 2.05673 7.31295 1.50573 5.92298 1.50573C5.46579 1.50573 5.02285 1.56511 4.60129 1.67673L4.63691 1.66842C2.79391 2.19211 1.37188 3.61414 0.857695 5.41914L0.848195 5.45773C0.746664 5.84248 0.688477 6.28482 0.688477 6.74023C0.688477 8.27686 1.3517 9.65851 2.40798 10.6144L2.41273 10.6186L9.1702 18.1111C9.25213 18.202 9.36969 18.2584 9.50091 18.2584C9.63213 18.2584 9.74969 18.202 9.83104 18.1117L9.83163 18.1111L16.582 10.6269C17.7707 9.5647 18.5152 8.02689 18.5152 6.3157C18.5152 5.86504 18.4636 5.42626 18.3656 5.0047L18.3733 5.04389L18.3727 5.04329ZM15.9271 10.0219L9.50032 17.1481L3.05754 10.0053C3.03795 9.98567 3.0231 9.96489 3.0041 9.94529H4.75032C4.91479 9.94529 5.05907 9.85564 5.13566 9.72323L5.13685 9.72085L6.98698 6.48254L9.07223 13.7779C9.12507 13.9614 9.28835 14.0944 9.4837 14.1015H9.49973C9.69091 14.1015 9.85419 13.9804 9.91713 13.8112L9.91832 13.8082L11.9394 8.25014L12.6644 9.69889C12.7386 9.84613 12.8889 9.94529 13.0622 9.94529H15.9959C15.9769 9.96489 15.9615 9.98567 15.9419 10.0053L15.9271 10.0219ZM16.7322 9.05467H13.3371L12.2725 6.92607C12.1983 6.77882 12.0475 6.67967 11.8741 6.67967C11.6829 6.67967 11.5197 6.80079 11.4567 6.97001L11.4555 6.97298L9.55019 12.2134L7.55223 5.22142C7.49701 5.03379 7.3266 4.89842 7.12413 4.89842C6.95966 4.89842 6.81598 4.98748 6.73879 5.12048L6.7376 5.12286L4.49085 9.05467H2.28685C1.83916 8.4057 1.57198 7.60176 1.57198 6.73607C1.57198 6.3632 1.62126 6.0022 1.71448 5.65901L1.70795 5.6881C2.14495 4.15148 3.33066 2.96576 4.83523 2.53707L4.86729 2.52936C5.18198 2.44089 5.54298 2.38982 5.91585 2.38923C7.21023 2.42782 8.36626 2.99189 9.18207 3.87539L9.18504 3.87836C9.26698 3.95614 9.37801 4.00364 9.49973 4.00364C9.62144 4.00364 9.73248 3.95614 9.81501 3.87836C10.7098 2.84404 12.0249 2.19329 13.4915 2.19329C13.8656 2.19329 14.2301 2.23545 14.5799 2.31561L14.5472 2.30907C15.9954 2.70926 17.1128 3.82611 17.5053 5.24457L17.5124 5.27426C17.5949 5.59667 17.643 5.96657 17.643 6.34717C17.643 7.3696 17.301 8.31189 16.7245 9.06595L16.7322 9.05526V9.05467Z" fill="white"/>
</svg>
