<svg viewBox="0 0 19 19" fill="none" xmlns="http://www.w3.org/2000/svg">
<path d="M9.5 1.4165C4.8131 1.4165 1 4.53957 1 8.37835C1 10.6404 2.40228 12.7278 4.62656 14.0346C4.31796 15.4773 3.62636 16.4897 3.61879 16.5006L3.03797 17.496L4.08645 17.3279C4.23751 17.3085 7.75567 16.6669 10.2633 15.0494C12.3225 14.8995 14.2351 14.3193 15.664 13.0884C17.1704 11.7907 18 10.1745 18 8.37843C18 4.53957 14.1869 1.4165 9.5 1.4165ZM10.0372 14.2411L9.87722 14.2503L9.65656 14.3397C8.19835 15.3192 5.80807 16.1255 4.58 16.3913C4.83762 15.8154 5.37124 14.6993 5.50638 13.8154L5.56953 13.4899L5.19942 13.2959C3.13853 12.2159 1.90812 10.3228 1.90812 8.37835C1.90812 5.18534 5.45879 2.32462 9.5 2.32462C13.5412 2.32462 17.0919 5.18526 17.0919 8.37835C17.0919 11.3981 13.8457 14.0225 10.0372 14.2411Z" fill="white"/>
</svg>
