<svg width="19" height="19" viewBox="0 0 19 19" fill="none" xmlns="http://www.w3.org/2000/svg">
<path d="M10.1125 10.0331V9.6298L10.2389 9.62805C10.669 9.62805 10.972 9.55054 11.1457 9.39727C11.3188 9.244 11.4044 8.97593 11.4044 8.5948C11.4044 8.24106 11.3246 7.99804 11.1667 7.86517C11.0082 7.73171 10.7022 7.65246 10.25 7.62798L10.1154 7.62274V6.71944L10.2104 6.72002C10.5437 6.72002 10.711 6.85348 10.711 7.12097L10.7133 7.18566H11.303V7.10349C11.303 6.74916 11.2185 6.50615 11.0513 6.37619C10.8823 6.24507 10.5705 6.18038 10.1131 6.18038V5.82955H9.70338V6.18096C9.22552 6.18096 8.89802 6.24915 8.72145 6.38551C8.54545 6.5213 8.45746 6.77481 8.45746 7.1437C8.45746 7.52483 8.54487 7.78533 8.72028 7.92403C8.89627 8.06215 9.22319 8.1315 9.70338 8.13208V9.1088L9.61305 9.10705C9.36771 9.10705 9.20862 9.07442 9.13869 9.00973C9.0676 8.94504 9.03147 8.80226 9.03147 8.58081V8.51729H8.42249L8.42016 8.64025C8.42016 9.00449 8.50699 9.25974 8.68182 9.4066C8.85664 9.55346 9.15851 9.62747 9.588 9.62747L9.70338 9.6298V10.0331H10.1125ZM10.1125 8.15306C10.3893 8.15306 10.5699 8.1822 10.6579 8.24047C10.7442 8.29933 10.7885 8.41997 10.7885 8.60354C10.7885 8.94038 10.5938 9.10764 10.2022 9.10822L10.1136 9.10764L10.1125 8.15306ZM9.61131 7.59593C9.25233 7.59593 9.07226 7.44616 9.07226 7.14661C9.07226 6.86164 9.25291 6.71828 9.61422 6.71828L9.70105 6.71536L9.70163 7.60059C9.64569 7.5971 9.61538 7.59535 9.61131 7.59593ZM7.76399 11.9894H18V3.73099H17.1818V2.85742H1.00058L1 11.1153H1.81935V11.9889H6.61946L4.25524 15.4919L5.22145 16.1434L7.74009 12.4108L7.55944 12.289L7.76399 11.9894ZM1.58333 10.5325L1.58392 3.44019H16.6002V3.73099H1.81993V10.5325H1.58333ZM2.4021 4.31377H17.4172L17.4184 11.4067H8.15676L8.62296 10.7155C9.0169 10.8944 9.44988 10.9976 9.90967 10.9976C11.641 10.9976 13.049 9.58959 13.049 7.85876C13.049 7.02073 12.722 6.23225 12.1305 5.64015C11.5373 5.04747 10.7488 4.72112 9.90967 4.72112C8.1789 4.72112 6.77098 6.1291 6.77098 7.85934C6.77098 8.92173 7.3042 9.85941 8.11422 10.427L7.45338 11.4061H2.4021V4.31377ZM7.35373 7.85992C7.35373 6.45079 8.50058 5.30448 9.91084 5.30448C11.3199 5.30448 12.4662 6.45079 12.4662 7.85934C12.4662 9.26848 11.3199 10.4154 9.90967 10.4154C8.50058 10.4148 7.35373 9.26965 7.35373 7.85992Z" fill="white"/>
</svg>
