<svg width="19" height="19" viewBox="0 0 19 19" fill="none" xmlns="http://www.w3.org/2000/svg">
<path d="M18.8417 8.11474L9.65835 3.07974C9.56335 3.01639 9.43669 3.01639 9.34169 3.07974L0.158346 8.11474C0.0633457 8.17804 0 8.27304 0 8.39974C0 8.49474 0.0633457 8.62139 0.19 8.65308L1.26665 9.17658V12.1432L0.411654 14.0364C0.253309 14.3848 0.285 14.7964 0.506654 15.1448C0.728309 15.4931 1.07665 15.6831 1.48831 15.6831H1.70996C2.08996 15.6831 2.43831 15.5248 2.65996 15.1765C2.88162 14.8282 2.91331 14.4165 2.75496 14.0681L1.89996 12.1444V9.48452L3.48331 10.2544V12.7381C3.48331 13.5298 3.95831 14.2898 4.71831 14.6698L5.35165 14.9864C6.65 15.6514 8.075 15.968 9.5 15.968C10.925 15.968 12.35 15.6514 13.68 15.018L14.3133 14.7014C15.0733 14.3214 15.5483 13.5614 15.5483 12.7697V10.2706L18.81 8.68474C18.9367 8.62139 19 8.52639 19 8.39974C19 8.27308 18.9367 8.17804 18.8417 8.11474ZM2.15335 14.7964C2.05835 14.9547 1.9 15.0497 1.71 15.0497H1.48835C1.29835 15.0497 1.10835 14.9547 1.01335 14.7964C0.918346 14.638 0.918346 14.448 0.981691 14.2897L1.58335 12.9597L2.185 14.2897C2.28 14.448 2.24835 14.638 2.15335 14.7964ZM14.915 10.5847V12.7697C14.915 13.3397 14.5667 13.8781 14.0283 14.1314L13.395 14.448C10.9567 15.6514 8.075 15.6514 5.63665 14.448L5.00331 14.1314C4.46496 13.8464 4.11665 13.308 4.11665 12.7697V10.5847L9.37331 13.1181C9.40496 13.1497 9.46831 13.1497 9.49996 13.1497C9.53162 13.1497 9.59496 13.1497 9.62662 13.1497L13.4605 11.2857L14.915 10.5847ZM9.5 12.4847L3.95835 9.76139C3.92335 9.74974 3.88405 9.74246 3.84368 9.74098L2.7065 9.18935L7.98564 8.55411C8.1821 9.20442 8.77804 9.66639 9.50004 9.66639C10.3867 9.66639 11.0834 8.96974 11.0834 8.08304C11.0834 7.19639 10.3867 6.4997 9.50004 6.4997C8.66853 6.4997 8.00412 7.11241 7.92467 7.91995L1.64346 8.67371L1.01335 8.36804L9.5 3.68139L17.9867 8.36804L9.5 12.4847ZM9.81665 8.01974C9.785 7.82974 9.62665 7.70308 9.46831 7.73474L8.57895 7.84146C8.68148 7.42632 9.0456 7.13308 9.49996 7.13308C10.0383 7.13308 10.45 7.54474 10.45 8.08308C10.45 8.62143 10.0383 9.03308 9.49996 9.03308C9.10334 9.03308 8.7757 8.80946 8.63056 8.47651L9.53162 8.36808C9.72165 8.33639 9.84835 8.17804 9.81665 8.01974Z" fill="white"/>
</svg>
