<svg viewBox="0 0 19 19" fill="none" xmlns="http://www.w3.org/2000/svg">
<path d="M15.5057 3.49426C13.8963 1.88484 11.7643 1 9.5 1C7.23566 1 5.10369 1.88484 3.49426 3.49426C1.88484 5.10369 1 7.23566 1 9.5C1 11.7643 1.88484 13.8963 3.49426 15.5057C5.10369 17.1152 7.23566 18 9.5 18C11.7643 18 13.8963 17.1152 15.5057 15.5057C17.1152 13.8963 18 11.7643 18 9.5C18 7.23566 17.1152 5.10369 15.5057 3.49426ZM9.5 1.60677C13.3633 1.60677 16.6686 4.60839 17.2852 8.29753L14.7115 5.72377C14.6418 5.6541 14.5477 5.61926 14.4502 5.62275C14.3527 5.62623 14.2621 5.67152 14.1994 5.74816L12.0465 8.31557L9.76127 5.7377C9.69508 5.66455 9.60102 5.61926 9.5 5.61926C9.39898 5.61926 9.30492 5.66107 9.23873 5.7377L6.88729 8.38873L4.44529 5.73422C4.3791 5.66107 4.28504 5.61926 4.1875 5.62275C4.08996 5.62275 3.9959 5.66455 3.92971 5.74119L1.73218 8.20695C2.3871 4.55962 5.67152 1.60677 9.5 1.60677ZM14.9373 6.84549L14.4607 7.41207L14.0398 6.91168L14.4885 6.39325L14.9373 6.84549ZM11.6836 8.85205L10.8865 9.78851L9.74734 8.62847C9.68115 8.56228 9.59057 8.52396 9.5 8.52396C9.40943 8.52396 9.31537 8.56228 9.25266 8.62847L8.10307 9.79896L7.27112 8.9043L9.5 6.4037L11.6836 8.85205ZM4.64671 6.88381L4.1875 7.41903L3.74223 6.89775L4.19447 6.40022L4.64671 6.88381ZM1.59981 9.5C1.60677 9.43033 1.60677 9.36414 1.61026 9.29447C1.61723 9.2875 1.62071 9.19407 1.62419 9.1871L3.36885 7.23343L3.94713 7.9707C4.01332 8.03688 4.10041 8.06824 4.1875 8.06824C4.27459 8.06824 4.36168 8.03688 4.42787 7.9707L5.02357 7.21601L6.5969 8.91127L2.52993 13.2791C1.93772 12.1783 1.59981 10.8342 1.59981 9.5ZM9.5 17.3932C6.79324 17.3932 4.31354 15.9168 2.91313 13.8162L6.89775 9.43033L7.83832 10.4545C7.90451 10.5242 7.99508 10.566 8.08914 10.566C8.1832 10.566 8.27725 10.5311 8.34344 10.4615L9.50348 9.28053L10.6635 10.4615C10.7297 10.5277 10.8203 10.566 10.9109 10.566C10.9143 10.566 10.9213 10.566 10.9248 10.566C11.0223 10.5625 11.1164 10.5172 11.1791 10.4406L12.0674 9.38156L16.0938 13.8162C14.6865 15.9168 12.2068 17.3932 9.5 17.3932ZM16.4631 13.369L12.3334 8.83811L13.6803 7.26478L14.2238 7.96721C14.29 8.0334 14.377 8.06475 14.4641 8.06475C14.5547 8.06475 14.6418 8.02992 14.7115 7.96373L15.342 7.1533L17.3897 9.20104C17.3932 9.26722 17.3932 9.42684 17.3932 9.49303C17.3932 10.8342 17.0553 12.2717 16.4631 13.369Z" fill="white"/>
</svg>
