<svg viewBox="0 0 19 19" fill="none" xmlns="http://www.w3.org/2000/svg">
<path d="M16.9991 12.3288V2.72746C16.9991 2.64109 16.9617 2.55891 16.8966 2.50219C16.8315 2.44545 16.745 2.41975 16.6594 2.4315L7.66272 3.67589C7.51494 3.69633 7.40488 3.82263 7.40488 3.97184V12.1878C7.12401 11.9118 6.7563 11.7065 6.32127 11.5901C5.61747 11.4018 4.81793 11.4688 4.06987 11.7786C3.32183 12.0885 2.70911 12.6065 2.34457 13.2373C1.96518 13.8938 1.89654 14.5941 2.1513 15.2091C2.40607 15.8242 2.94976 16.2708 3.68227 16.4668C3.94421 16.5368 4.2194 16.5715 4.50027 16.5715C4.97406 16.5715 5.46405 16.4727 5.93367 16.2782C6.68171 15.9684 7.29443 15.4503 7.65897 14.8195C7.89964 14.4031 8.01507 13.969 8.00242 13.5503V6.36918L16.4016 5.20744V10.9661C16.1207 10.6901 15.753 10.4847 15.318 10.3684C14.6142 10.1801 13.8147 10.2471 13.0666 10.5569C12.3185 10.8668 11.7058 11.3848 11.3413 12.0156C10.9619 12.6721 10.8932 13.3724 11.148 13.9874C11.4028 14.6024 11.9465 15.0491 12.679 15.245C12.9409 15.315 13.2161 15.3498 13.497 15.3498C13.9708 15.3498 14.4607 15.251 14.9304 15.0564C15.6784 14.7466 16.2911 14.2286 16.6557 13.5977C16.8962 13.1814 17.0117 12.7474 16.9991 12.3288ZM5.70498 15.7261C5.07771 15.986 4.41419 16.044 3.83666 15.8895C3.28784 15.7427 2.88533 15.4198 2.70334 14.9805C2.52132 14.5411 2.57766 14.0282 2.86193 13.5363C3.16105 13.0187 3.67125 12.5905 4.29853 12.3307C4.70517 12.1623 5.1199 12.0823 5.50852 12.0823C6.33117 12.0823 7.03682 12.4406 7.30014 13.0764C7.68794 14.0125 6.97234 15.2012 5.70498 15.7261ZM16.4015 4.60419L8.00239 5.76592V4.23215L16.4015 3.07041V4.60419ZM16.1383 13.2988C15.8392 13.8164 15.329 14.2445 14.7017 14.5044C13.4343 15.0293 12.0878 14.6948 11.7001 13.7587C11.3123 12.8225 12.0279 11.6339 13.2953 11.1089C13.6924 10.9444 14.104 10.8608 14.4992 10.8608C14.7282 10.8608 14.9517 10.8889 15.1636 10.9456C15.7124 11.0924 16.1149 11.4152 16.2969 11.8546C16.4789 12.294 16.4225 12.8069 16.1383 13.2988Z" fill="white"/>
</svg>
