<svg viewBox="0 0 19 19" fill="none" xmlns="http://www.w3.org/2000/svg">
<path d="M3.20312 1V18H15.797V1H3.20312ZM15.2766 17.4796H3.72353V16.3H15.2766V17.4796ZM15.2766 15.7796H3.72353V1.52039H15.2766V15.7796Z" fill="white"/>
<path d="M4.24316 2.04102V5.12877H14.7554V2.04102H4.24316ZM14.235 4.60835H4.76356V2.56141H14.235V4.60835Z" fill="white"/>
<path d="M5.28516 8.32031V13.3509H13.7158V8.32031H5.28516ZM13.1954 12.8305H5.80555V12.3101H13.1953L13.1954 12.8305ZM13.1954 11.7897H5.80555V8.84074H13.1953L13.1954 11.7897Z" fill="white"/>
<path d="M6.16986 2.7002C5.68204 2.7002 5.28516 3.09707 5.28516 3.58489C5.28516 4.07271 5.68204 4.46959 6.16986 4.46959C6.65768 4.46959 7.05455 4.07271 7.05455 3.58489C7.05455 3.09707 6.65768 2.7002 6.16986 2.7002ZM6.16986 3.94916C5.96898 3.94916 5.80558 3.78577 5.80558 3.58489C5.80558 3.38401 5.96898 3.22062 6.16986 3.22062C6.37073 3.22062 6.53413 3.38401 6.53413 3.58489C6.53413 3.78577 6.37073 3.94916 6.16986 3.94916Z" fill="white"/>
<path d="M8.38958 2.7002C7.90176 2.7002 7.50488 3.09707 7.50488 3.58489C7.50488 4.07271 7.90176 4.46959 8.38958 4.46959C8.8774 4.46959 9.27428 4.07271 9.27428 3.58489C9.27428 3.09707 8.87743 2.7002 8.38958 2.7002ZM8.38958 3.94916C8.1887 3.94916 8.02531 3.78577 8.02531 3.58489C8.02531 3.38401 8.1887 3.22062 8.38958 3.22062C8.59046 3.22062 8.75385 3.38401 8.75385 3.58489C8.75385 3.78577 8.59046 3.94916 8.38958 3.94916Z" fill="white"/>
<path d="M10.6103 2.7002C10.1225 2.7002 9.72559 3.09707 9.72559 3.58489C9.72559 4.07271 10.1225 4.46959 10.6103 4.46959C11.0981 4.46959 11.495 4.07271 11.495 3.58489C11.495 3.09707 11.0981 2.7002 10.6103 2.7002ZM10.6103 3.94916C10.4094 3.94916 10.246 3.78577 10.246 3.58489C10.246 3.38401 10.4094 3.22062 10.6103 3.22062C10.8112 3.22062 10.9746 3.38401 10.9746 3.58489C10.9746 3.78577 10.8112 3.94916 10.6103 3.94916Z" fill="white"/>
<path d="M12.83 2.7002C12.3422 2.7002 11.9453 3.09707 11.9453 3.58489C11.9453 4.07271 12.3422 4.46959 12.83 4.46959C13.3178 4.46959 13.7147 4.07271 13.7147 3.58489C13.7147 3.09707 13.3178 2.7002 12.83 2.7002ZM12.83 3.94916C12.6291 3.94916 12.4657 3.78577 12.4657 3.58489C12.4657 3.38401 12.6291 3.22062 12.83 3.22062C13.0309 3.22062 13.1943 3.38401 13.1943 3.58489C13.1943 3.78577 13.0309 3.94916 12.83 3.94916Z" fill="white"/>
</svg>
