<svg viewBox="0 0 19 19" fill="none" xmlns="http://www.w3.org/2000/svg">
<path d="M15.9865 7.90684C16.6401 7.25337 17 6.38445 17 5.46017C17 4.53594 16.6401 3.66702 15.9865 3.0135C15.333 2.35997 14.4641 2 13.5399 2C12.6157 2 11.7467 2.35997 11.0933 3.0135C10.3938 3.71293 10.1033 4.48681 9.79584 5.30604C9.70203 5.55605 9.60723 5.8083 9.49944 6.06389C7.75481 4.70773 6.0435 3.90667 4.86919 3.90667C4.3502 3.90667 3.93808 4.05562 3.64437 4.34938C3.02331 4.97044 3.05984 6.13528 3.74715 7.62948C3.92492 8.01579 4.14102 8.41461 4.39086 8.81967C3.97493 9.02659 3.597 9.2987 3.26419 9.63148C2.44897 10.4467 2 11.5307 2 12.6836C2 13.8366 2.44897 14.9205 3.26419 15.7357C4.07943 16.551 5.16339 16.9999 6.31631 16.9999C7.46929 16.9999 8.55318 16.5509 9.36843 15.7357C9.70104 15.4031 9.9727 15.0257 10.1795 14.6106C11.4046 15.3673 12.5465 15.7984 13.4253 15.7984C13.4252 15.7984 13.4254 15.7984 13.4253 15.7984C13.9444 15.7984 14.3569 15.6494 14.6506 15.3557C15.1777 14.8286 15.2358 13.9239 14.8185 12.7394C14.4762 11.768 13.8131 10.6291 12.9361 9.50064C13.1918 9.39286 13.444 9.29809 13.694 9.20425C14.5133 8.89669 15.2871 8.60627 15.9865 7.90684ZM8.92648 15.2937C8.22928 15.991 7.30232 16.3749 6.31631 16.3749C5.33035 16.3749 4.40334 15.991 3.70616 15.2937C3.00898 14.5965 2.62505 13.6696 2.62505 12.6836C2.62505 11.6976 3.00901 10.7706 3.70622 10.0734C4.00789 9.77179 4.35283 9.52859 4.73363 9.34815C4.85097 9.52077 4.9739 9.69397 5.10219 9.86741C4.74652 10.0203 4.42546 10.2379 4.14808 10.5153C2.95253 11.7109 2.95253 13.6564 4.14811 14.852C4.74588 15.4497 5.53112 15.7486 6.31637 15.7486C7.10161 15.7486 7.88691 15.4497 8.48475 14.852C8.76216 14.5744 8.97916 14.2532 9.13168 13.8984C9.3057 14.0272 9.47905 14.1504 9.65129 14.2676C9.471 14.6478 9.22804 14.9922 8.92648 15.2937ZM5.36601 10.4339C5.40714 10.4166 5.45618 10.4022 5.5042 10.39C5.94649 10.9432 6.43962 11.4938 6.97291 12.0271C7.51145 12.5656 8.06331 13.0593 8.61362 13.4995C8.59798 13.5463 8.58468 13.5858 8.57943 13.6012C8.45706 13.904 8.27645 14.1761 8.04263 14.41C7.56664 14.8859 6.94156 15.1239 6.31631 15.1238C5.69117 15.1238 5.06586 14.8858 4.58999 14.41C3.63813 13.4582 3.63813 11.9092 4.58999 10.9573C4.81563 10.7316 5.07682 10.5555 5.36601 10.4339ZM14.229 12.9471C14.5559 13.8752 14.5487 14.5736 14.2087 14.9137C14.0364 15.086 13.773 15.1733 13.4256 15.1734C13.4257 15.1734 13.4255 15.1734 13.4256 15.1734C12.5994 15.1734 11.4585 14.7043 10.2329 13.9032C10.2195 13.8929 10.2054 13.8835 10.1903 13.8754C9.2794 13.2753 8.32309 12.4933 7.41491 11.5851C6.8561 11.0263 6.34364 10.4492 5.89065 9.87198C5.88254 9.85971 5.87337 9.84837 5.86367 9.83744C5.59438 9.49238 5.34644 9.14747 5.12272 8.80646C5.11517 8.79269 5.10655 8.77974 5.0973 8.76746C4.78604 8.28945 4.52255 7.81953 4.31504 7.3683C3.75321 6.14706 3.66992 5.20786 4.08641 4.79141C4.25867 4.61908 4.52202 4.53175 4.86928 4.53175C5.91808 4.53175 7.57347 5.33721 9.22851 6.64552C8.93747 7.20945 8.58802 7.70501 8.14892 8.1766C8.13356 8.19307 8.11763 8.20965 8.10198 8.22611C8.08587 8.24313 8.07002 8.26019 8.05364 8.27709C8.02098 8.31096 7.98767 8.34485 7.95368 8.3789C7.8974 8.43512 7.86632 8.50871 7.86254 8.58409C7.85955 8.64274 7.87303 8.70251 7.90396 8.75609C8.09744 9.09134 8.33527 9.41935 8.60357 9.72708C9.0788 10.2721 9.65026 10.7534 10.2441 11.0962C10.2556 11.1029 10.2675 11.1084 10.2795 11.1135C10.2808 11.114 10.282 11.1146 10.2833 11.1151C10.2954 11.12 10.3077 11.1242 10.3202 11.1275C10.32 11.1275 10.3205 11.1276 10.3202 11.1275C10.3329 11.1309 10.3464 11.1335 10.3593 11.1352C10.3597 11.1353 10.3601 11.1353 10.3605 11.1354C10.3733 11.1371 10.3862 11.1378 10.3991 11.1378C10.3995 11.1379 10.3999 11.1379 10.4002 11.1379C10.401 11.1379 10.4017 11.1378 10.4025 11.1378C10.411 11.1378 10.4196 11.1373 10.4282 11.1366C10.4295 11.1365 10.4309 11.1363 10.4323 11.1361C10.4413 11.1352 10.4504 11.1339 10.4594 11.1322C10.4599 11.1321 10.4603 11.1321 10.4608 11.132C10.4804 11.1281 10.4996 11.1224 10.5182 11.1148C10.5187 11.1146 10.5191 11.1144 10.5196 11.1142C10.5279 11.1107 10.5361 11.1069 10.5442 11.1027C10.5458 11.1019 10.5474 11.1009 10.549 11.1001C10.5561 11.0963 10.5629 11.0922 10.5697 11.0878C10.5714 11.0867 10.5731 11.0856 10.5748 11.0845C10.5818 11.0798 10.5886 11.0748 10.5952 11.0695C10.5964 11.0686 10.5975 11.0678 10.5986 11.0669C10.6065 11.0604 10.614 11.0537 10.6213 11.0465C11.1542 10.5136 11.7099 10.1043 12.3547 9.77164C13.235 10.8848 13.8971 12.0054 14.229 12.9471ZM11.1625 9.7673C11.158 9.7705 11.1536 9.77372 11.1492 9.77688C11.1179 9.79936 11.0866 9.82218 11.0552 9.84547C11.0435 9.85405 11.0319 9.86281 11.0203 9.87154C10.9966 9.88936 10.9729 9.90734 10.9491 9.92568C10.9336 9.93772 10.918 9.94974 10.9025 9.96186C10.883 9.97719 10.8634 9.99274 10.8437 10.0084C10.8257 10.0228 10.8077 10.0372 10.7897 10.0519C10.7727 10.0658 10.7557 10.08 10.7386 10.0941C10.7189 10.1104 10.6992 10.1267 10.6795 10.1434C10.6637 10.1567 10.6479 10.1705 10.6321 10.1841C10.6118 10.2016 10.5914 10.2189 10.5712 10.2367C10.5532 10.2526 10.535 10.269 10.5169 10.2852C10.4993 10.3011 10.4815 10.3166 10.4639 10.3327C10.428 10.3653 10.3921 10.3987 10.3561 10.4326C9.99351 10.2003 9.64458 9.91309 9.33014 9.5931C9.08987 9.34871 8.87006 9.08513 8.67995 8.8117C8.64134 8.75615 8.60349 8.70031 8.56739 8.64403C8.62906 8.57879 8.68883 8.51305 8.74733 8.44681C8.75182 8.4418 8.75642 8.43673 8.76084 8.43175C8.7846 8.40477 8.8078 8.3777 8.83104 8.35051C8.83865 8.3416 8.84647 8.3327 8.85397 8.32379C8.87454 8.29956 8.89473 8.27513 8.91488 8.25072C8.92496 8.23851 8.93516 8.22632 8.94515 8.2141C8.96278 8.19257 8.9801 8.17083 8.99738 8.14915C9.00998 8.13333 9.02261 8.1176 9.03491 8.10178C9.04944 8.08329 9.06386 8.06466 9.07815 8.04605C9.09389 8.02561 9.10941 8.00521 9.12474 7.98482C9.13561 7.97035 9.14642 7.95588 9.15717 7.94141C9.17785 7.91349 9.19813 7.88562 9.21811 7.85785C9.22361 7.85023 9.22918 7.84259 9.2346 7.83497C9.82414 7.00874 10.1155 6.23319 10.381 5.52562C10.6764 4.73876 10.9314 4.05922 11.5353 3.45544C12.0707 2.91992 12.7826 2.62496 13.5399 2.62496C14.2972 2.62496 15.0091 2.91992 15.5446 3.45538C16.0801 3.99087 16.375 4.70284 16.375 5.46005C16.375 6.21734 16.08 6.92932 15.5445 7.46472C14.9408 8.0685 14.2612 8.32358 13.4744 8.6189C12.766 8.88485 11.9896 9.1765 11.1625 9.7673Z" fill="white"/>
<path d="M14.6403 3.54309C13.7771 3.0463 12.6816 3.19194 11.9762 3.89735C11.9433 3.93031 11.9109 3.96432 11.88 3.99842C11.7639 4.12619 11.7735 4.32382 11.9012 4.43987C11.9611 4.49424 12.0363 4.52105 12.1112 4.52105C12.1963 4.52105 12.281 4.48651 12.3427 4.41863C12.3671 4.39173 12.3927 4.3649 12.4184 4.33909C12.9242 3.83331 13.7097 3.72877 14.3286 4.08479C14.4782 4.17098 14.6692 4.11939 14.7553 3.96977C14.8414 3.82015 14.7898 3.62916 14.6403 3.54309Z" fill="white"/>
<path d="M11.7825 4.66402C11.6309 4.58149 11.4411 4.63771 11.3587 4.78935C11.356 4.79422 11.3531 4.79999 11.3514 4.80356C11.2743 4.95793 11.3368 5.14566 11.4912 5.22283C11.5361 5.2453 11.5837 5.25593 11.6307 5.25593C11.7454 5.25593 11.8557 5.19265 11.9105 5.08308L11.9119 5.08027C11.9884 4.92992 11.9317 4.74506 11.7825 4.66402Z" fill="white"/>
<path d="M11.2796 13.0839C11.1315 12.9953 10.9395 13.0436 10.851 13.1917C10.7624 13.3398 10.8107 13.5317 10.9588 13.6203C11.1594 13.7403 11.3598 13.8518 11.5545 13.952C11.7099 14.032 12.1144 14.2217 12.5335 14.3669C12.5674 14.3787 12.6019 14.3843 12.6359 14.3843C12.7653 14.3843 12.8864 14.3032 12.9311 14.174C12.9877 14.0109 12.9012 13.8329 12.7381 13.7764C12.3522 13.6426 11.9823 13.4693 11.8405 13.3962C11.6575 13.3021 11.4688 13.1971 11.2796 13.0839Z" fill="white"/>
<path d="M13.5045 14.5521C13.5187 14.5521 13.5331 14.5511 13.5476 14.5491C13.5616 14.5472 13.5757 14.5448 13.5891 14.5422C13.7585 14.5091 13.8689 14.3449 13.8359 14.1756C13.8028 14.0062 13.6387 13.8955 13.4693 13.9287C13.467 13.9292 13.4646 13.9296 13.4623 13.93C13.2913 13.9535 13.1718 14.1112 13.1953 14.2822C13.2169 14.4387 13.3509 14.5521 13.5045 14.5521Z" fill="white"/>
</svg>
