<svg viewBox="0 0 19 19" fill="none" xmlns="http://www.w3.org/2000/svg">
<path d="M15.711 1.81654C14.3055 1.60571 12.378 1.50531 10.3868 1.54547C8.72362 1.57894 7.21772 1.71614 6.17697 1.92028C5.65492 1.17067 5.01575 1 4.54724 1C4.03858 1 3.48976 1.18406 2.87402 1.5622C2.52933 1.68937 2.04075 1.59232 1.8065 1.35472C1.67264 1.21752 1.4685 1.17736 1.29114 1.25098C1.11713 1.32126 1 1.49528 1 1.68602C1 3.45965 2.49587 5.01575 4.19921 5.01575C4.54055 5.01575 5.60472 5.01575 6.19705 4.05532C7.2378 4.25945 8.73701 4.39665 10.3868 4.42677C13.0138 4.47028 13.8906 4.46024 15.711 4.15571C17.3307 3.8813 18 3.57008 18 2.98445C18 2.39882 17.3374 2.06083 15.711 1.81654ZM5.67854 3.40945C5.33051 4.04862 4.43012 4.26299 4.19921 4.26299C3.29232 4.26299 2.25473 3.29892 1.91005 2.42215C2.73662 2.55601 3.31575 2.20788 3.33917 2.19115C3.80768 1.89666 4.21595 1.74942 4.54724 1.74942C4.79154 1.74942 5.34055 2.01398 5.67854 2.58287V3.40945ZM10.4069 3.67736C8.83406 3.64389 7.41181 3.32913 6.42795 3.14173V2.82717C7.41181 2.63976 8.83071 2.32166 10.4069 2.29154C10.688 2.28485 14.9716 2.21476 16.9193 2.98445C15.0453 3.74075 10.688 3.6807 10.4069 3.67736Z" fill="white"/>
<path d="M16.2969 6.67885C15.728 6.02964 15.0789 5.84912 14.1787 5.84912C12.9673 5.84912 12.1008 6.31743 11.6724 7.3448C11.1972 8.47924 9.87186 9.2692 8.51989 9.07511C7.74351 8.96467 6.93013 8.44243 6.53525 7.93712C5.96635 7.20759 5.27717 6.98357 4.3067 6.98357C1.66635 6.98357 1.53602 9.27905 1.47913 9.60365C1.18799 11.2735 1.61299 12.9936 2.67047 14.4527C3.99902 16.2832 6.03347 17.8056 9.93209 17.8056C14.0683 17.8056 17.3108 15.5001 17.9099 12.0566C18.2378 10.1558 17.6656 8.24834 16.2969 6.67885ZM17.1738 11.8926C16.6551 14.8844 13.6098 17.0562 9.93209 17.0562C6.57225 17.0562 4.41713 15.5235 3.23918 13.8972C2.33229 12.6489 1.96753 11.1798 2.21516 9.76428C2.26201 9.48987 2.49292 7.73298 4.3067 7.73298C4.98268 7.73298 5.59509 8.02078 5.98662 8.5194C6.53544 9.22216 7.36536 9.67058 8.38603 9.81783C10.173 10.0755 11.7024 9.25228 12.3482 7.71291C12.6327 7.03692 13.3488 6.60188 14.1787 6.60188C14.8079 6.60188 15.3935 6.85621 15.7817 7.30129C16.9597 8.64991 17.4516 10.283 17.1738 11.8926Z" fill="white"/>
<path d="M14.3557 8.04785C13.5559 8.04785 12.9033 8.70041 12.9033 9.50021C12.9033 10.3 13.5559 10.9526 14.3557 10.9526C15.1555 10.9526 15.808 10.3 15.808 9.50021C15.808 8.70041 15.1555 8.04785 14.3557 8.04785ZM14.3557 10.3003C14.0171 10.3003 13.5556 9.93735 13.5556 9.50021C13.5556 8.96592 14.0746 8.70012 14.3557 8.70012C14.6368 8.70012 15.1558 8.96592 15.1558 9.50021C15.1558 10.0345 14.6368 10.3003 14.3557 10.3003Z" fill="white"/>
<path d="M12.3977 11.9766C11.5979 11.9766 10.9453 12.6291 10.9453 13.4289C10.9453 14.2287 11.5979 14.8813 12.3977 14.8813C13.1975 14.8813 13.85 14.2287 13.85 13.4289C13.8467 12.6258 13.1975 11.9766 12.3977 11.9766ZM12.3977 14.2257C12.1166 14.2257 11.5976 13.9202 11.5976 13.4256C11.5976 12.931 12.1166 12.6255 12.3977 12.6255C12.8025 12.6255 13.1978 12.931 13.1978 13.4256C13.1978 13.9202 12.6754 14.2257 12.3977 14.2257Z" fill="white"/>
<path d="M7.83029 12.4414C7.03049 12.4414 6.37793 13.094 6.37793 13.8938C6.37793 14.6936 7.03049 15.3461 7.83029 15.3461C8.6301 15.3461 9.28265 14.6936 9.28265 13.8938C9.27931 13.0906 8.6301 12.4414 7.83029 12.4414ZM7.83029 14.6905C7.54919 14.6905 7.0302 14.4438 7.0302 13.8904C7.0302 13.337 7.54919 13.0903 7.83029 13.0903C8.11139 13.0903 8.63639 13.3856 8.63038 13.8904C8.62437 14.3952 8.11139 14.6905 7.83029 14.6905Z" fill="white"/>
<path d="M4.20627 9.83105C3.40647 9.83105 2.75391 10.4836 2.75391 11.2834C2.75391 12.0832 3.40647 12.7358 4.20627 12.7358C5.00607 12.7358 5.65863 12.0832 5.65863 11.2834C5.65863 10.4836 5.00942 9.83105 4.20627 9.83105ZM4.20627 12.0835C3.91464 12.0835 3.40618 11.7826 3.40618 11.2834C3.40618 10.7842 3.76933 10.4833 4.20627 10.4833C4.64321 10.4833 5.00636 10.8112 5.00636 11.2834C5.00636 11.7557 4.4979 12.0835 4.20627 12.0835Z" fill="white"/>
</svg>
