<svg width="19" height="19" viewBox="0 0 19 19" fill="none" xmlns="http://www.w3.org/2000/svg">
<path d="M16.3968 15.986L11.1126 5.76403L11.1111 5.76104L10.911 5.37392C11.5187 4.93488 11.9154 4.22071 11.9154 3.41537C11.9154 2.08352 10.8318 1 9.4999 1C8.16808 1 7.08453 2.08352 7.08453 3.41537C7.08453 4.22071 7.48117 4.93481 8.08889 5.37392L7.9087 5.72259L7.90717 5.72558L2.60313 15.986C2.51617 16.1541 2.57676 16.3608 2.74066 16.4554C4.44089 17.437 6.90656 18 9.50531 18C10.3299 18 11.1412 17.9428 11.9191 17.8334C11.9351 17.8323 11.9509 17.8299 11.9665 17.8266C13.615 17.59 15.1109 17.1184 16.2592 16.4554C16.4231 16.3608 16.4837 16.1541 16.3968 15.986ZM7.71733 3.41533C7.71733 2.47416 8.55868 1.6328 9.4999 1.6328C10.4412 1.6328 11.2825 2.47416 11.2825 3.41537C11.2825 4.09079 10.8125 4.75141 10.242 5.02796C10.2401 5.02893 10.2382 4.9543 10.2363 4.95516C10.1144 5.01367 9.9844 5.05816 9.84863 5.08645C9.84581 5.08701 9.84302 5.08761 9.84026 5.08824C9.81652 5.09302 9.79252 5.09724 9.76848 5.10103C9.76127 5.10219 9.75403 5.10325 9.74676 5.10428C9.72535 5.1074 9.7038 5.11022 9.68208 5.11248C9.67089 5.11364 9.6595 5.11451 9.64825 5.11547C9.62945 5.11713 9.61059 5.11879 9.59157 5.11982C9.57357 5.12072 9.55541 5.12098 9.53722 5.12141C9.52476 5.12161 9.51245 5.12231 9.49993 5.12231C9.48748 5.12231 9.47509 5.12161 9.46271 5.12141C9.44451 5.12098 9.42632 5.12075 9.40825 5.11982C9.3893 5.11879 9.3705 5.11713 9.35174 5.11547C9.34042 5.11451 9.32903 5.11368 9.31778 5.11248C9.29613 5.11022 9.27461 5.10733 9.25323 5.10428C9.24589 5.10325 9.23855 5.10219 9.23125 5.10103C9.20731 5.09724 9.18344 5.09299 9.15976 5.08824C9.15687 5.08761 9.15388 5.08701 9.15096 5.08635C9.01546 5.05806 8.88574 5.0137 8.76398 4.95533C8.76175 4.9543 8.75963 5.02883 8.75741 5.0277C8.18704 4.75108 7.71733 4.09065 7.71733 3.41533ZM8.42213 6.05015C8.58609 5.9358 8.82159 5.81776 8.97542 5.6972C9.14439 5.73486 9.3198 5.75524 9.49993 5.75524C9.72544 5.75524 9.94362 5.7235 10.1509 5.66546C10.1679 5.66068 10.185 5.656 10.202 5.65089C10.2152 5.64687 10.2282 5.64268 10.2412 5.63843C10.255 5.63399 10.2688 5.62997 10.2826 5.62525L10.4485 5.95118C9.64594 6.86875 8.44194 7.62734 7.30543 8.2152L8.42213 6.05015ZM4.85523 13.1718C6.45453 12.9036 8.70003 12.2414 10.6542 10.6176C10.8046 10.4926 10.8253 10.2693 10.7003 10.1188C10.5753 9.96835 10.352 10.0233 10.2015 10.1483C8.57336 11.5012 6.64527 12.1441 5.19259 12.4487L6.8487 9.16951C8.34341 8.54001 9.76876 7.58424 10.796 6.47233L12.6649 10.0925C11.3809 11.9699 9.36287 13.296 6.96095 14.0355C5.80036 14.3928 4.70474 14.5215 4.09712 14.5677L4.85523 13.1718ZM12.0738 17.2151C11.3442 17.3149 10.2806 17.3672 9.50534 17.3672C7.17647 17.3672 4.89705 16.9006 3.31555 16.0797L3.71933 15.2232C4.2213 15.2078 5.58899 15.1204 7.14572 14.6443C8.30133 14.2908 9.36263 13.795 10.3002 13.1707C11.3078 12.4997 12.1729 11.678 12.8791 10.7239L14.0072 12.7599C12.843 14.3149 11.2589 15.3474 10.1805 15.8815C10.0052 15.9682 9.93343 16.1052 10.0203 16.2805C10.082 16.4053 10.2075 16.4776 10.3379 16.4776C10.3907 16.4776 10.4443 16.4657 10.4948 16.4407C11.5802 15.9033 13.0758 14.9615 14.29 13.4531L14.8403 14.447C14.0664 15.5519 13.2872 16.4821 12.0738 17.2151ZM13.4657 16.8821C14.0914 16.3657 14.7232 15.7122 15.2044 15.0757L15.6843 16.0797C15.0571 16.4053 14.2567 16.6749 13.4657 16.8821Z" fill="white"/>
<path d="M11.2115 9.97379C11.3059 9.97379 11.3999 9.93627 11.4697 9.86216L11.487 9.84417C11.6225 9.70305 11.6179 9.47886 11.4768 9.3433C11.3357 9.20786 11.1115 9.21241 10.976 9.35352L10.9536 9.37696C10.8196 9.51944 10.8265 9.74369 10.9691 9.8776C11.0374 9.94198 11.1246 9.97379 11.2115 9.97379Z" fill="white"/>
<path d="M9.20094 16.2198L9.1775 16.2288C8.99432 16.2973 8.90129 16.5013 8.96978 16.6846C9.02298 16.827 9.15801 16.9149 9.30155 16.9149C9.34279 16.9149 9.38472 16.9076 9.42553 16.8923L9.45196 16.8823C9.63494 16.813 9.72702 16.6085 9.65772 16.4256C9.58829 16.2427 9.38383 16.1505 9.20094 16.2198Z" fill="white"/>
</svg>
