<svg viewBox="0 0 19 19" fill="none" xmlns="http://www.w3.org/2000/svg">
<path fill-rule="evenodd" clip-rule="evenodd" d="M9.49927 2.771C8.6662 2.77074 7.85499 3.03754 7.18469 3.53222C6.5144 4.02691 6.02033 4.72343 5.775 5.51956C5.52967 6.31569 5.54601 7.16949 5.8216 7.95565C6.0972 8.74182 6.69447 9.41893 7.38319 9.88762C6.18788 10.326 5.07419 11.1121 4.3294 12.1447C3.58461 13.1773 3.16588 14.4092 3.1271 15.6818C3.12288 15.8227 3.09787 15.9595 3.19451 16.0621C3.29115 16.1647 3.34767 16.2247 3.48857 16.229C3.62947 16.2332 3.76627 16.1813 3.86889 16.0846C3.97151 15.988 4.03153 15.8546 4.03576 15.7137C4.07794 14.3334 4.65588 13.0239 5.64709 12.0625C6.63831 11.1011 8.11876 10.4096 9.49962 10.4096C10.8805 10.4096 12.3609 11.1011 13.3521 12.0625C14.3434 13.0239 14.9213 14.3334 14.9635 15.7137C14.964 15.7844 14.9787 15.8543 15.0066 15.9193C15.0345 15.9843 15.0751 16.0431 15.1261 16.0921C15.177 16.1412 15.2372 16.1797 15.3032 16.2052C15.3692 16.2307 15.3627 16.2427 15.4334 16.2406C15.5041 16.2386 15.4967 16.2224 15.5611 16.1931C15.6255 16.1637 15.6834 16.1219 15.7313 16.0699C15.7793 16.0179 15.8164 15.9568 15.8404 15.8903C15.8645 15.8238 15.875 15.7531 15.8714 15.6825C15.8328 14.4098 15.4141 13.1778 14.6693 12.145C13.9245 11.1123 12.8108 10.3261 11.6153 9.88762C12.3041 9.41893 12.9013 8.74182 13.1769 7.95565C13.4525 7.16949 13.4689 6.31569 13.2235 5.51956C12.9782 4.72343 12.4841 4.02691 11.8138 3.53222C11.1435 3.03754 10.3323 2.77074 9.49927 2.771ZM6.51209 6.66683C6.51209 5.91538 6.8106 5.19471 7.34195 4.66336C7.87331 4.13201 8.74782 3.67965 9.49927 3.67965C10.2507 3.67965 11.1252 4.05508 11.6566 4.58644C12.1879 5.11779 12.4864 5.91538 12.4864 6.66683C12.4864 7.41828 12.111 8.29279 11.5797 8.82414C11.0483 9.3555 10.2507 9.65401 9.49927 9.65401C8.74782 9.65401 7.87331 9.27857 7.34195 8.74722C6.8106 8.21587 6.51209 7.41828 6.51209 6.66683Z" fill="white"/>
</svg>
