<svg viewBox="0 0 19 19" fill="none" xmlns="http://www.w3.org/2000/svg">
<path d="M7.10199 7.55008C7.1775 7.55008 7.25399 7.54475 7.32913 7.53433C7.92446 7.45232 8.43532 7.06269 8.76758 6.43721C9.08391 5.84176 9.20055 5.09793 9.09605 4.34288C8.89372 2.88046 7.86617 1.73486 6.75679 1.73486C6.68128 1.73486 6.60473 1.7402 6.52934 1.75068C5.94873 1.8314 5.44528 2.20981 5.11185 2.81605C4.78026 3.41817 4.65633 4.17359 4.76273 4.94305C4.96536 6.40491 5.99286 7.55008 7.10199 7.55008ZM5.60304 3.08634C5.84919 2.63891 6.20554 2.36175 6.60669 2.30598C6.65658 2.29905 6.70715 2.2955 6.75685 2.2955C7.57841 2.2955 8.37869 3.2484 8.54074 4.41974C8.62919 5.05895 8.53394 5.68204 8.27247 6.17421C8.02694 6.63641 7.66476 6.92221 7.25233 6.97903C7.20238 6.98595 7.15182 6.98951 7.10199 6.98951C6.28062 6.98951 5.48034 6.03698 5.31816 4.86619C5.22812 4.21551 5.32931 3.58348 5.60304 3.08634Z" fill="white"/>
<path d="M2.55632 5.646C2.44091 5.646 2.32488 5.66034 2.20953 5.68915C1.7385 5.81013 1.36677 6.16035 1.16279 6.67526C0.971012 7.15941 0.947905 7.74676 1.09758 8.32903C1.37241 9.40127 2.15357 10.1501 2.997 10.1501C3.11199 10.1501 3.22789 10.1358 3.34355 10.107C4.28474 9.86487 4.77317 8.70542 4.45556 7.46752C4.18085 6.39504 3.39981 5.646 2.55632 5.646ZM3.20601 9.5635C3.13675 9.58073 3.06639 9.58949 2.997 9.58949C2.40965 9.58949 1.85189 9.0139 1.64062 8.18966C1.52012 7.72108 1.53557 7.25655 1.68402 6.88176C1.82014 6.53803 2.0563 6.30733 2.34707 6.23262C2.41614 6.21539 2.48651 6.20669 2.55626 6.20669C3.14361 6.20669 3.70124 6.7824 3.91251 7.60677C4.1521 8.54049 3.8408 9.40016 3.20601 9.5635Z" fill="white"/>
<path d="M12.4724 1.75074C12.3972 1.7402 12.3205 1.73486 12.2446 1.73486C11.1352 1.73486 10.1077 2.88046 9.90534 4.34294C9.80108 5.09805 9.91784 5.84182 10.2342 6.43721C10.5666 7.06275 11.0774 7.45238 11.6725 7.53433C11.7471 7.54463 11.823 7.54984 11.8984 7.54984C13.0083 7.54984 14.0366 6.40436 14.2391 4.94219C14.3453 4.17347 14.2212 3.41836 13.8898 2.81611C13.5557 2.20859 13.052 1.83017 12.4724 1.75074ZM13.6837 4.86539C13.5187 6.05634 12.7345 6.98926 11.8983 6.98926C11.8485 6.98926 11.7983 6.98577 11.749 6.97903C11.337 6.92227 10.9748 6.63647 10.7292 6.17427C10.4678 5.6821 10.3724 5.05901 10.4606 4.4198C10.6228 3.24852 11.423 2.29556 12.2445 2.29556C12.2946 2.29556 12.3451 2.29905 12.3954 2.3061C12.7957 2.36102 13.152 2.63812 13.3985 3.0864C13.6723 3.58366 13.7735 4.21545 13.6837 4.86539Z" fill="white"/>
<path d="M16.789 5.68865C16.6755 5.66034 16.5596 5.646 16.4443 5.646C15.6007 5.646 14.8196 6.39504 14.5448 7.46752C14.2275 8.70561 14.716 9.865 15.6588 10.1075C15.7723 10.1358 15.8882 10.1501 16.003 10.1501H16.0046C16.8473 10.1501 17.6279 9.40127 17.9028 8.32897C18.2202 7.09058 17.7318 5.931 16.789 5.68865ZM17.3598 8.18978C17.1484 9.0139 16.5912 9.58949 16.0046 9.58943H16.0033C15.9339 9.58943 15.8636 9.58067 15.7965 9.56399C15.1599 9.40022 14.8487 8.54043 15.0879 7.60659C15.2991 6.78228 15.8569 6.20657 16.4443 6.20657C16.5139 6.20657 16.5842 6.21533 16.6513 6.23207C17.2879 6.39578 17.5991 7.2557 17.3598 8.18978Z" fill="white"/>
<path d="M11.5641 8.70264C10.7672 8.70264 10.0466 9.08865 9.50032 9.79908C8.9544 9.08871 8.23404 8.70264 7.43731 8.70264C6.2344 8.70264 5.16983 9.58291 4.84848 10.8432C4.67631 11.5183 4.64303 12.5971 5.46195 13.903C6.21975 15.1113 7.53323 16.231 9.36603 17.2306C9.40789 17.2535 9.45405 17.2649 9.50026 17.2649C9.54641 17.2649 9.59263 17.2535 9.63449 17.2306C11.4677 16.2309 12.7816 15.1113 13.5397 13.9029C14.3589 12.597 14.3258 11.5182 14.1536 10.8432C13.8322 9.58291 12.7674 8.70264 11.5641 8.70264ZM9.5002 16.6645C4.98687 14.1525 5.21267 11.6839 5.39171 10.9818C5.64968 9.97002 6.49091 9.26333 7.43725 9.26333C8.15313 9.26333 8.80056 9.68158 9.26037 10.441C9.31118 10.5249 9.40207 10.5761 9.50014 10.5761C9.5982 10.5761 9.68916 10.525 9.73997 10.441C10.2002 9.68152 10.848 9.26327 11.5641 9.26327C12.511 9.26327 13.3524 9.9699 13.6104 10.9817C13.7893 11.6838 14.0148 14.1523 9.5002 16.6645Z" fill="white"/>
</svg>
