<svg viewBox="0 0 19 19" fill="none" xmlns="http://www.w3.org/2000/svg">
<path d="M17.3881 4.07696C17.0003 3.6891 16.476 3.48292 15.9444 3.48292C15.7734 3.48292 15.6023 3.50557 15.4341 3.54857C15.613 2.8593 15.4193 2.10809 14.9052 1.5945C14.509 1.19786 13.9871 1 13.4661 1C12.9451 1 12.4246 1.19786 12.0266 1.5945C11.3017 2.32074 11.2472 3.45935 11.8472 4.25586L4.27223 11.865C3.90934 11.589 3.47479 11.4531 3.04117 11.4531C2.52295 11.4531 2.00612 11.6482 1.61225 12.0439C0.818052 12.8381 0.818052 14.1288 1.61225 14.923C2.00011 15.3114 2.52434 15.5171 3.0555 15.5171C3.22655 15.5171 3.39759 15.4944 3.56586 15.4514C3.38742 16.1402 3.58066 16.8919 4.09425 17.4055C4.49089 17.8021 5.01235 18 5.5338 18C6.05433 18 6.57579 17.8021 6.97381 17.4055C7.69867 16.6793 7.75322 15.5411 7.15318 14.7437L14.7286 7.13496C15.091 7.41094 15.5261 7.54685 15.9601 7.54685C16.4779 7.54685 16.9947 7.35177 17.3891 6.95606C18.1823 6.16185 18.1823 4.87116 17.3881 4.07696ZM16.9896 6.55942C16.703 6.84742 16.324 6.99951 15.9477 6.9898C15.1488 6.97039 14.7762 6.35047 14.749 6.31579L6.37007 14.7344C6.42046 14.776 6.5291 14.875 6.57579 14.923C7.15133 15.4977 7.15133 16.4338 6.57579 17.0089C6.28732 17.2959 5.91103 17.4388 5.5338 17.4388C5.15565 17.4388 4.77797 17.2959 4.49089 17.0089C4.05958 16.5757 3.94031 15.9142 4.19133 15.3576L3.64954 14.8306C3.46 14.9156 3.25706 14.9549 3.05504 14.9549C2.67042 14.9549 2.28996 14.8075 2.00797 14.5246C1.43335 13.9513 1.43335 13.0152 2.00982 12.441C2.29643 12.153 2.6755 12.001 3.05134 12.0102C3.85017 12.0296 4.22323 12.65 4.24958 12.6847L12.6294 4.26603C12.5795 4.22489 12.4708 4.1255 12.4237 4.07696C11.8491 3.50234 11.8491 2.56668 12.4237 1.99114C12.7121 1.70406 13.0884 1.56167 13.4661 1.56167C13.8438 1.56167 14.2215 1.70452 14.509 1.99114C14.9403 2.42429 15.0591 3.08628 14.8086 3.64287L15.3504 4.16988C15.5399 4.08528 15.7429 4.04552 15.9444 4.04552C16.329 4.04552 16.7095 4.19345 16.9915 4.47591C17.5656 5.04914 17.5656 5.9848 16.9896 6.55942Z" fill="white"/>
</svg>
