<svg viewBox="0 0 19 19" fill="none" xmlns="http://www.w3.org/2000/svg">
<path d="M16.9829 5.816L13.0443 1.87741C12.8531 1.68586 12.6194 1.6077 12.4033 1.66275C12.187 1.71787 12.0192 1.89859 11.9429 2.1587L11.7643 2.76865C11.6732 3.07953 11.402 3.53653 11.1719 3.7666L7.97263 6.96639C7.74197 7.19728 7.2839 7.47778 6.97236 7.57898L5.12434 8.1791C4.86804 8.26217 4.69104 8.43516 4.63864 8.65367C4.58628 8.87215 4.6657 9.10656 4.85625 9.29651L6.61559 11.0562L3.96093 13.7102C3.95469 13.7164 3.94878 13.723 3.9432 13.7298L2.38706 16.1898L1.82042 16.9926C1.91694 17.0891 1.73454 17.1029 1.80281 17.1029C1.86224 17.1029 2.46199 16.5606 2.51113 16.6148L5.13081 14.9166C5.13765 14.9111 5.14416 14.9052 5.1504 14.8989L7.80423 12.2451L9.56339 14.0046C9.7149 14.1564 9.89466 14.2375 10.0721 14.2375C10.117 14.2375 10.1616 14.2323 10.2057 14.2218C10.4245 14.1696 10.598 13.9927 10.6818 13.7359L11.2809 11.8878C11.3819 11.577 11.6624 11.1189 11.8933 10.8875L15.0932 7.68789C15.3226 7.45872 15.7798 7.18788 16.0916 7.09644L16.7016 6.91754C16.9617 6.84121 17.1426 6.67327 17.1977 6.45672C17.2527 6.24046 17.1743 6.00681 16.9829 5.816ZM4.7841 14.5139L2.8889 15.9695L4.34586 14.0765L6.99115 11.4319L7.4286 11.8694L4.7841 14.5139ZM16.6828 6.32573C16.678 6.34472 16.6391 6.38228 16.552 6.40784L15.942 6.58674C15.752 6.64249 15.5291 6.74529 15.3164 6.8691L15.0405 6.59328C14.9368 6.48955 14.7686 6.48955 14.6649 6.59331C14.5612 6.69704 14.5612 6.86522 14.665 6.96894L14.871 7.17493C14.815 7.22079 14.7631 7.26681 14.7176 7.31216L11.5175 10.5121C11.4873 10.5423 11.4568 10.5756 11.4262 10.6106L11.2247 10.4091C11.121 10.3054 10.9528 10.3054 10.8491 10.4092C10.7454 10.5129 10.7454 10.6811 10.8491 10.7848L11.1084 11.044C10.9651 11.2727 10.8424 11.518 10.7755 11.7237L10.1766 13.5715C10.1495 13.6547 10.1097 13.6985 10.0823 13.705C10.0553 13.7115 10.0006 13.6906 9.93922 13.6291L7.99807 11.6876C7.99611 11.6855 7.99438 11.6833 7.99236 11.6813C7.99033 11.6792 7.98814 11.6775 7.98608 11.6756L5.23162 8.92052C5.16992 8.859 5.14881 8.80431 5.15525 8.77738C5.16172 8.75042 5.20532 8.71118 5.28826 8.68428L7.13641 8.08414C7.3423 8.01726 7.58748 7.89478 7.81585 7.75167L10.103 10.0386C10.1549 10.0905 10.2228 10.1164 10.2908 10.1164C10.3588 10.1164 10.4268 10.0905 10.4787 10.0386C10.5824 9.93488 10.5824 9.7667 10.4787 9.66298L8.24935 7.43385C8.28457 7.40297 8.31808 7.37219 8.34839 7.34185L11.5476 4.14213C11.593 4.09674 11.639 4.04484 11.6849 3.98899L13.9189 6.2228C13.9708 6.27466 14.0387 6.3006 14.1067 6.3006C14.1747 6.3006 14.2427 6.27466 14.2945 6.2228C14.3983 6.11904 14.3983 5.95087 14.2945 5.84714L11.9912 3.54397C12.1154 3.33104 12.2185 3.10795 12.2742 2.91789L12.4528 2.30805C12.4783 2.22106 12.5157 2.18231 12.5345 2.1775C12.5366 2.17697 12.539 2.1767 12.5417 2.1767C12.5646 2.1767 12.6115 2.19566 12.6685 2.25284L16.6076 6.19189C16.6715 6.2557 16.6876 6.3069 16.6828 6.32573Z" fill="white"/>
</svg>
