<svg viewBox="0 0 19 19" fill="none" xmlns="http://www.w3.org/2000/svg">
<path d="M18.7056 16.0917H16.5197C17.0865 15.6217 17.4481 14.9127 17.4481 14.1207C17.4481 12.7092 16.2998 11.5609 14.8884 11.5609H14.7526C15.0654 11.1303 15.2369 10.6098 15.2369 10.0609C15.2369 10.0314 15.2364 10.002 15.2354 9.97266C15.2299 9.81016 15.0921 9.68273 14.9313 9.68844C14.7687 9.69393 14.6415 9.83013 14.647 9.99263C14.6478 10.0153 14.6482 10.038 14.6482 10.0609C14.6482 10.6763 14.368 11.2453 13.8795 11.6222C13.7797 11.6991 13.74 11.8311 13.7806 11.9503C13.8213 12.0695 13.9333 12.1497 14.0593 12.1497H14.8884C15.9752 12.1497 16.8593 13.0339 16.8593 14.1207C16.8593 15.2075 15.9752 16.0917 14.8884 16.0917H4.11168C3.02486 16.0917 2.14065 15.2075 2.14065 14.1207C2.14065 13.0339 3.02486 12.1497 4.11168 12.1497H4.94071H6.85536C7.01798 12.1497 7.14975 12.0179 7.14975 11.8553C7.14975 11.6927 7.01798 11.5609 6.85536 11.5609H5.04554C4.60364 11.1851 4.35182 10.6439 4.35182 10.0609C4.35182 8.97409 5.23602 8.08996 6.32284 8.08996H7.0058C7.1086 8.08996 7.20401 8.03633 7.25737 7.94849C7.31077 7.86066 7.31444 7.7513 7.26709 7.66004C7.0257 7.19462 6.90327 6.69108 6.90327 6.16331C6.90327 4.56868 8.07474 3.22314 9.60186 2.95621C9.41461 3.41525 9.31709 3.9091 9.31709 4.40934C9.31709 5.24344 9.57979 6.03692 10.0769 6.70396C10.3059 7.01126 10.5749 7.27837 10.8757 7.50118H10.0495C9.88687 7.50118 9.75509 7.63299 9.75509 7.79557C9.75509 7.95814 9.88687 8.08996 10.0495 8.08996H12.0933H12.6771C13.4134 8.08996 14.083 8.4956 14.4247 9.14861C14.5002 9.29267 14.6781 9.34837 14.8221 9.27297C14.9661 9.1976 15.0218 9.01973 14.9464 8.87567C14.5028 8.02787 13.6332 7.50118 12.6771 7.50118H12.1396C10.8016 7.05991 9.90587 5.82306 9.90587 4.40934C9.90587 3.82973 10.0602 3.26054 10.3523 2.76331C10.4062 2.67154 10.4064 2.5578 10.3527 2.46584C10.2991 2.37392 10.2018 2.3183 10.0936 2.31986C9.0804 2.33674 8.13063 2.74402 7.41913 3.46665C6.70678 4.19017 6.31446 5.14785 6.31446 6.16327C6.31446 6.61994 6.39665 7.07494 6.55433 7.50114H6.32277C4.91128 7.50114 3.76296 8.64945 3.76296 10.0609C3.76296 10.6098 3.93448 11.1303 4.24732 11.5609H4.11157C2.70008 11.5609 1.55177 12.7092 1.55177 14.1206C1.55177 14.9127 1.91343 15.6217 2.48017 16.0916H0.294389C0.131812 16.0916 0 16.2234 0 16.386C0 16.5486 0.131812 16.6804 0.294389 16.6804H4.11168H14.8884H18.7056C18.8682 16.6804 19 16.5486 19 16.386C19 16.2235 18.8682 16.0917 18.7056 16.0917Z" fill="white"/>
<path d="M8.42084 11.5605H7.81978C7.65717 11.5605 7.52539 11.6924 7.52539 11.8549C7.52539 12.0175 7.65717 12.1493 7.81978 12.1493H8.42084C8.58345 12.1493 8.71523 12.0175 8.71523 11.8549C8.71523 11.6924 8.58345 11.5605 8.42084 11.5605Z" fill="white"/>
</svg>
