<svg width="19" height="19" viewBox="0 0 19 19" fill="none" xmlns="http://www.w3.org/2000/svg">
<path d="M7.31382 7.86914C7.15668 7.86914 7.0293 8.03317 7.0293 8.23552V8.85664C7.0293 9.05899 7.15668 9.22302 7.31382 9.22302C7.47096 9.22302 7.59834 9.05899 7.59834 8.85664V8.23552C7.59834 8.03317 7.47096 7.86914 7.31382 7.86914Z" fill="white"/>
<path d="M11.64 7.86914C11.4828 7.86914 11.3555 8.03317 11.3555 8.23552V8.85664C11.3555 9.05899 11.4828 9.22302 11.64 9.22302C11.7971 9.22302 11.9245 9.05899 11.9245 8.85664V8.23552C11.9245 8.03317 11.7971 7.86914 11.64 7.86914Z" fill="white"/>
<path d="M17.4267 7.13209C17.4267 6.26864 16.8757 5.53164 16.1069 5.2537C16.0448 3.98775 15.5572 2.94353 14.6871 2.22155C13.8537 1.52997 12.71 1.16 11.3771 1.14948C11.0475 1.05104 10.7031 1 10.351 1H8.76687C7.99583 1 7.26042 1.24214 6.64025 1.70026C6.08138 2.11306 5.66323 2.66714 5.42002 3.31185C5.37137 3.32079 5.32271 3.32951 5.27406 3.33878C4.72482 3.44349 4.31909 3.90861 4.28744 4.46987C4.24757 5.17617 4.22566 5.89131 4.22229 6.59538C4.22123 6.81371 4.2778 7.0235 4.3827 7.20727L3.68057 10.8976C3.34621 12.655 3.80862 14.4533 4.94923 15.8315C6.08988 17.2096 7.77005 18 9.55901 18C11.348 18 13.0282 17.2096 14.1688 15.8315C15.3094 14.4533 15.7718 12.655 15.4374 10.8976L15.0955 9.10061C15.2056 9.11922 15.3175 9.12886 15.4299 9.12886C16.5309 9.12886 17.4267 8.23313 17.4267 7.13209ZM15.5078 5.13653C15.3369 5.14195 15.0267 5.16907 14.8651 5.21666C14.8556 4.96726 14.8446 4.71798 14.8306 4.46987C14.799 3.90861 14.3932 3.44349 13.8439 3.33882C13.7953 3.32955 13.7466 3.32083 13.6979 3.31185C13.528 2.86154 13.0592 2.31344 12.7301 1.9689C13.2192 2.12094 13.8624 2.34707 14.2193 2.64322C14.9018 3.20957 15.4285 4.14159 15.5078 5.13653ZM8.76687 1.5905H10.351C11.3957 1.5905 12.4689 2.29039 12.9663 3.16812C10.7955 2.8541 8.32245 2.8541 6.15162 3.16812C6.64898 2.29039 7.72214 1.5905 8.76687 1.5905ZM4.87676 4.51112C4.88944 4.28628 5.05076 3.95793 5.26901 3.91635C6.64513 3.65406 8.17319 3.52293 9.55899 3.52293C10.9448 3.52293 12.4729 3.65406 13.849 3.91635C14.0673 3.95793 14.2286 4.28628 14.2412 4.51112C14.2804 5.20501 14.3019 5.90743 14.3052 6.5989C14.3059 6.74842 14.0975 7.03056 13.9813 7.1249C13.867 7.21774 13.5771 7.25339 13.4341 7.22276C10.7684 6.65132 8.34963 6.65132 5.68392 7.22276C5.54092 7.25347 5.25105 7.21778 5.1367 7.1249C5.02056 7.03056 4.81211 6.74842 4.8128 6.5989C4.8161 5.90732 4.83763 5.2049 4.87676 4.51112ZM6.5332 11.3152C6.8962 10.9404 7.27153 10.5527 7.82993 10.3228C8.2468 10.1512 8.60716 10.2926 8.90099 10.4626C9.12361 10.5914 9.30802 10.8622 9.24771 11.1211C9.086 11.8152 8.65846 12.4086 8.11721 12.6041C7.56903 12.8023 6.94805 12.7102 6.52363 12.598C6.25259 12.5264 5.83917 12.2834 5.586 12.1623C5.88808 11.9767 6.28406 11.5724 6.5332 11.3152ZM8.79176 9.64179C8.79176 9.25793 9.17516 9.08793 9.55901 9.08793C9.94287 9.08793 10.3263 9.25793 10.3263 9.64179C10.3263 9.64831 10.3257 9.65472 10.3255 9.66117C10.184 9.69887 10.0621 9.8933 9.96073 9.94841C9.8355 10.0165 9.65355 10.1028 9.5592 10.2029C9.47464 10.1131 9.30645 10.0341 9.1969 9.97064C9.08611 9.90653 8.95104 9.70341 8.79254 9.66106C8.79236 9.65465 8.79176 9.64827 8.79176 9.64179ZM9.55905 12.0036C9.66684 12.1889 9.93012 12.4867 10.0577 12.6166C9.94639 12.6636 9.68347 12.8307 9.55901 12.8307C9.43448 12.8307 9.1715 12.6636 9.06012 12.6165C9.18777 12.4865 9.45119 12.189 9.55905 12.0036ZM9.87038 11.1217C9.80824 10.8553 10.0019 10.4368 10.2395 10.3077C10.3797 10.2315 10.5348 10.1934 10.7037 10.1934C10.8833 10.1934 11.0786 10.2365 11.288 10.3228C11.8464 10.5527 12.364 11.0826 12.727 11.4574C12.9761 11.7147 13.301 11.9767 13.6031 12.1622C13.3499 12.2834 12.8655 12.5263 12.5944 12.598C12.17 12.7101 11.5491 12.8023 11.0008 12.6042C10.4598 12.4087 10.0322 11.8155 9.87038 11.1217ZM12.5642 10.498C12.3058 10.2824 11.936 10.0816 11.5671 9.92976C11.3587 9.84395 11.1654 9.79262 10.9875 9.76668C10.9781 8.98681 10.3411 8.49743 9.55901 8.49743C8.77701 8.49743 8.14006 8.9867 8.13057 9.7665C7.9524 9.79251 7.75921 9.84395 7.55089 9.92972C7.18205 10.0816 6.81225 10.2824 6.55384 10.498C6.13265 10.0362 5.82624 9.29344 5.82624 8.65513V7.74068C8.21027 7.26637 10.9078 7.26637 13.2918 7.74068V8.65513C13.2918 9.29344 12.9854 10.0362 12.5642 10.498ZM13.7466 15.3643C12.7456 16.5736 11.1289 17.4095 9.55899 17.4095C7.98912 17.4095 6.37243 16.5736 5.37145 15.3643C4.37046 14.1549 3.9647 12.5768 4.25813 11.0346L4.88295 7.75061C4.95139 7.77564 5.16404 7.79454 5.23574 7.80681V8.65509C5.23574 9.48344 5.54298 10.2623 6.09248 10.8594C6.06364 10.889 6.03503 10.9185 6.00678 10.9476C5.54954 11.4198 5.26989 11.687 4.83984 11.687C4.68248 11.687 4.54266 11.7875 4.49254 11.9367C4.44241 12.0859 4.49316 12.2504 4.61857 12.3454C5.33429 12.8877 6.40412 13.3092 7.39682 13.3092C7.73455 13.3092 8.06339 13.2604 8.36624 13.151C8.42563 13.1295 8.487 13.1045 8.5495 13.0757C8.83718 13.2994 9.18861 13.4211 9.55895 13.4211C9.92932 13.4211 10.2808 13.2994 10.5685 13.0756C10.6311 13.1045 10.6925 13.1296 10.7519 13.151C11.0548 13.2605 11.3833 13.3092 11.7211 13.3092C12.7137 13.3092 13.7837 12.8875 14.4994 12.3454C14.6248 12.2503 14.6756 12.0858 14.6254 11.9366C14.5753 11.7875 14.4355 11.687 14.2781 11.687C13.8481 11.687 13.5685 11.4198 13.1112 10.9476C13.083 10.9184 13.0544 10.889 13.0255 10.8593C13.575 10.2623 13.8823 9.4834 13.8823 8.65506V7.80652C13.9539 7.79425 14.1666 7.77571 14.235 7.75065L14.8598 11.0345C15.1533 12.5768 14.7475 14.1549 13.7466 15.3643ZM14.7353 7.20727C14.8402 7.0235 14.8967 6.81371 14.8957 6.59538C14.8947 6.39435 14.8918 6.05003 14.8878 5.84764C15.0562 5.76763 15.2405 5.72582 15.4299 5.72582C16.1269 5.72582 16.8362 6.43513 16.8362 7.13209C16.8362 7.82905 16.1269 8.53836 15.4299 8.53836C15.2619 8.53836 15.0963 8.50498 14.943 8.44119L14.7353 7.20727Z" fill="white"/>
<path d="M13.5876 5.1397C13.3855 5.15051 13.3016 5.32307 13.3125 5.52513L13.3675 6.55198C13.3779 6.74737 13.4685 6.89876 13.6619 6.89876C13.6685 6.89876 13.6751 6.89858 13.6818 6.89821C13.8838 6.8874 13.9677 6.71484 13.9569 6.51278L13.9019 5.48593C13.8911 5.28387 13.7891 5.12882 13.5876 5.1397Z" fill="white"/>
<path d="M13.2684 4.71749C13.2789 4.91288 13.3695 5.06427 13.5628 5.06427C13.5694 5.06427 13.5761 5.06409 13.5828 5.06372C13.7848 5.05288 13.8687 4.88031 13.8579 4.67826L13.8463 4.46103C13.8354 4.25897 13.7342 4.10388 13.5319 4.1148C13.3299 4.12565 13.246 4.29821 13.2568 4.50027L13.2684 4.71749Z" fill="white"/>
</svg>
