<svg viewBox="0 0 19 19" fill="none" xmlns="http://www.w3.org/2000/svg">
<path d="M13.4889 0H5.51211C4.74324 0 4.11719 0.62605 4.11719 1.39492V17.6048C4.11719 18.374 4.74324 19 5.51211 19H13.4886C14.2578 19 14.8839 18.374 14.8839 17.6051V1.39492C14.8839 0.62605 14.2578 0 13.4889 0ZM4.75052 2.53333H14.2505V14.5667H4.75052V2.53333ZM5.51211 0.633333H13.4886C13.9088 0.633333 14.2505 0.975017 14.2505 1.39492V1.9H4.75052V1.39492C4.75052 0.975017 5.09221 0.633333 5.51211 0.633333ZM13.4889 18.3667H5.51211C5.09221 18.3667 4.75052 18.025 4.75052 17.6051V15.2H14.2505V17.6051C14.2505 18.025 13.9088 18.3667 13.4889 18.3667Z" fill="white"/>
<path d="M9.50007 15.5166C8.8015 15.5166 8.2334 16.0847 8.2334 16.7833C8.2334 17.4818 8.8015 18.0499 9.50007 18.0499C10.1986 18.0499 10.7667 17.4818 10.7667 16.7833C10.7667 16.0847 10.1986 15.5166 9.50007 15.5166ZM9.50007 17.4166C9.15078 17.4166 8.86673 17.1326 8.86673 16.7833C8.86673 16.434 9.15078 16.1499 9.50007 16.1499C9.84935 16.1499 10.1334 16.434 10.1334 16.7833C10.1334 17.1326 9.84935 17.4166 9.50007 17.4166Z" fill="white"/>
<path d="M8.23269 1.58353H9.49936C9.67447 1.58353 9.81602 1.44198 9.81602 1.26686C9.81602 1.09175 9.67447 0.950195 9.49936 0.950195H8.23269C8.05757 0.950195 7.91602 1.09175 7.91602 1.26686C7.91602 1.44198 8.05757 1.58353 8.23269 1.58353Z" fill="white"/>
<path d="M10.4495 1.58353H10.7661C10.9413 1.58353 11.0828 1.44198 11.0828 1.26686C11.0828 1.09175 10.9413 0.950195 10.7661 0.950195H10.4495C10.2744 0.950195 10.1328 1.09175 10.1328 1.26686C10.1328 1.44198 10.2744 1.58353 10.4495 1.58353Z" fill="white"/>
</svg>
