<svg viewBox="0 0 19 19" fill="none" xmlns="http://www.w3.org/2000/svg">
<path d="M12.2443 9.59927C10.5672 10.2676 8.69775 10.2676 7.02071 9.59927C6.98272 9.58239 6.94176 9.57324 6.9002 9.57234C6.85864 9.57144 6.81732 9.57882 6.77864 9.59405C6.73996 9.60928 6.7047 9.63205 6.6749 9.66104C6.64511 9.69003 6.62138 9.72466 6.6051 9.7629C6.58882 9.80115 6.58032 9.84226 6.58008 9.88382C6.57984 9.92539 6.58787 9.96659 6.6037 10.005C6.61954 10.0435 6.64287 10.0784 6.67232 10.1077C6.70178 10.137 6.73678 10.1602 6.77528 10.1759C7.68082 10.5513 8.65222 10.742 9.63247 10.7368C10.6127 10.742 11.5841 10.5513 12.4897 10.1759C12.5282 10.1602 12.5632 10.137 12.5926 10.1077C12.6221 10.0784 12.6454 10.0435 12.6613 10.005C12.6771 9.96659 12.6851 9.92539 12.6849 9.88382C12.6847 9.84226 12.6761 9.80115 12.6599 9.7629C12.6436 9.72466 12.6199 9.69003 12.5901 9.66104C12.5603 9.63205 12.525 9.60928 12.4863 9.59405C12.4476 9.57882 12.4063 9.57144 12.3648 9.57234C12.3232 9.57324 12.2822 9.58239 12.2443 9.59927Z" fill="white"/>
<path d="M7.43826 8.23003C7.78439 8.23003 8.06499 7.94944 8.06499 7.6033C8.06499 7.25716 7.78439 6.97656 7.43826 6.97656C7.09212 6.97656 6.81152 7.25716 6.81152 7.6033C6.81152 7.94944 7.09212 8.23003 7.43826 8.23003Z" fill="white"/>
<path d="M11.826 8.23003C12.1721 8.23003 12.4527 7.94944 12.4527 7.6033C12.4527 7.25716 12.1721 6.97656 11.826 6.97656C11.4798 6.97656 11.1992 7.25716 11.1992 7.6033C11.1992 7.94944 11.4798 8.23003 11.826 8.23003Z" fill="white"/>
<path d="M14.0807 4.17028L14.4632 3.7878C14.5215 3.72742 14.5538 3.64654 14.553 3.56259C14.5523 3.47864 14.5186 3.39834 14.4593 3.33897C14.3999 3.27961 14.3196 3.24594 14.2356 3.24521C14.1517 3.24448 14.0708 3.27675 14.0104 3.33507L13.5465 3.79894C13.3994 3.70536 13.2502 3.61491 13.0966 3.53128L13.8569 2.46679C13.9039 2.39763 13.922 2.31282 13.9073 2.23049C13.8926 2.14817 13.8463 2.07487 13.7782 2.02626C13.7102 1.97765 13.6258 1.95759 13.5432 1.97038C13.4605 1.98317 13.3862 2.02778 13.336 2.09468L12.5131 3.2468C12.3813 3.18898 12.248 3.13391 12.1125 3.08332L12.2822 2.74413C12.3201 2.66817 12.3264 2.58023 12.2995 2.49967C12.2727 2.4191 12.2149 2.3525 12.139 2.31451C12.063 2.27653 11.9751 2.27028 11.8945 2.29713C11.8139 2.32398 11.7473 2.38174 11.7094 2.4577L11.4961 2.88411C11.2736 2.82206 11.0472 2.77 10.817 2.72792L11.3325 1.43902C11.3481 1.39998 11.3559 1.35824 11.3554 1.31619C11.3548 1.27414 11.346 1.23261 11.3294 1.19397C11.3129 1.15532 11.2888 1.12032 11.2587 1.09096C11.2286 1.06161 11.193 1.03846 11.154 1.02286C11.1149 1.00726 11.0732 0.999494 11.0312 1.00003C10.9891 1.00055 10.9476 1.00936 10.9089 1.02594C10.8703 1.04251 10.8353 1.06654 10.8059 1.09665C10.7766 1.12675 10.7534 1.16234 10.7378 1.20139L10.1638 2.63648C10.009 2.62179 9.85273 2.61279 9.69543 2.60767L9.74822 2.34368C9.76403 2.26077 9.74645 2.17498 9.69932 2.10496C9.65219 2.03494 9.57932 1.98637 9.49656 1.9698C9.4138 1.95323 9.32785 1.97001 9.2574 2.01649C9.18695 2.06296 9.1377 2.13538 9.12036 2.21798L9.04176 2.61096C8.74399 2.62662 8.44739 2.65961 8.15346 2.70977V1.64038C8.15346 1.55547 8.11973 1.47403 8.05968 1.41399C7.99964 1.35394 7.9182 1.32021 7.83329 1.32021C7.74837 1.32021 7.66693 1.35394 7.60689 1.41399C7.54684 1.47403 7.51311 1.55547 7.51311 1.64038V2.84424C7.29603 2.90031 7.08331 2.96706 6.87407 3.04125L6.54022 1.87286C6.52937 1.83167 6.51041 1.79307 6.48444 1.7593C6.45848 1.72553 6.42604 1.69728 6.38903 1.67621C6.35201 1.65513 6.31116 1.64166 6.26887 1.63657C6.22658 1.63148 6.1837 1.63488 6.14274 1.64657C6.10178 1.65826 6.06357 1.678 6.03034 1.70465C5.9971 1.73129 5.96952 1.7643 5.94921 1.80174C5.92889 1.83918 5.91625 1.88029 5.91202 1.92268C5.9078 1.96506 5.91207 2.00786 5.92459 2.04858L6.2771 3.28237C6.07112 3.37563 5.87012 3.4774 5.67408 3.58769L5.53827 3.384C5.51513 3.34859 5.48521 3.31813 5.45023 3.29435C5.41525 3.27058 5.37591 3.25397 5.33447 3.24549C5.29304 3.23701 5.25034 3.23682 5.20883 3.24493C5.16732 3.25304 5.12783 3.2693 5.09264 3.29276C5.05745 3.31622 5.02726 3.34642 5.00381 3.38162C4.98036 3.41681 4.96411 3.4563 4.95601 3.49781C4.94791 3.53932 4.94811 3.58203 4.9566 3.62346C4.96509 3.66489 4.98171 3.70423 5.00549 3.7392L5.12863 3.92391C3.78049 4.83519 2.75638 6.15085 2.20379 7.68139C1.6512 9.21193 1.59866 10.8784 2.05373 12.4407C2.5088 14.003 3.44799 15.3806 4.73605 16.375C6.0241 17.3694 7.59453 17.9293 9.22115 17.9741C10.8478 18.0189 12.4466 17.5462 13.7875 16.6242C15.1283 15.7022 16.1419 14.3784 16.6823 12.8435C17.2226 11.3086 17.2619 9.64184 16.7944 8.0832C16.3268 6.52457 15.3767 5.15438 14.0807 4.17028ZM9.43416 17.329C7.927 17.3294 6.45946 16.8463 5.24732 15.9506C4.03517 15.0549 3.14238 13.794 2.7002 12.3531C2.25802 10.9123 2.2898 9.36759 2.79085 7.94615C3.2919 6.52471 4.23579 5.30154 5.48374 4.45646L5.64584 4.69957C5.69331 4.76937 5.76642 4.8176 5.84926 4.83377C5.9321 4.84994 6.01798 4.83275 6.08821 4.78592C6.15844 4.7391 6.20734 4.66644 6.22427 4.58375C6.2412 4.50105 6.2248 4.41502 6.17862 4.34436L6.02983 4.1212C6.16868 4.04419 6.31036 3.97192 6.45486 3.90441L6.56494 4.28965C6.58404 4.35656 6.62441 4.41543 6.67995 4.45735C6.73549 4.49927 6.80317 4.52195 6.87276 4.52197C6.90257 4.52189 6.93223 4.51778 6.96093 4.50977C7.04255 4.48638 7.11154 4.43156 7.15275 4.35734C7.19396 4.28312 7.20403 4.19557 7.18074 4.11393L7.05014 3.65749C7.64965 3.44179 8.27582 3.309 8.91129 3.26281L8.80022 3.81876C8.78355 3.90202 8.80064 3.98849 8.84773 4.05915C8.89481 4.12981 8.96804 4.17887 9.0513 4.19555C9.07208 4.19982 9.09325 4.20196 9.11447 4.20195C9.18842 4.20187 9.26006 4.1762 9.31723 4.12929C9.3744 4.08238 9.41357 4.01713 9.42808 3.94462L9.56803 3.24482C10.4489 3.26013 11.319 3.4416 12.1326 3.7797L11.7352 4.33607C11.7096 4.37021 11.6911 4.40912 11.6808 4.45052C11.6704 4.49192 11.6684 4.53497 11.675 4.57714C11.6815 4.61931 11.6964 4.65975 11.7188 4.69608C11.7411 4.73242 11.7705 4.76391 11.8053 4.78872C11.84 4.81352 11.8793 4.83113 11.9209 4.84052C11.9626 4.8499 12.0057 4.85087 12.0477 4.84337C12.0897 4.83587 12.1298 4.82004 12.1656 4.79683C12.2014 4.77361 12.2322 4.74347 12.2562 4.70818L12.7207 4.05777C12.8436 4.12283 12.965 4.19029 13.0835 4.2623L13.05 4.29576C13.0195 4.3253 12.9951 4.36063 12.9783 4.39969C12.9615 4.43875 12.9527 4.48076 12.9523 4.52328C12.9519 4.56579 12.96 4.60795 12.9761 4.6473C12.9922 4.68665 13.016 4.7224 13.0461 4.75246C13.0761 4.78252 13.1119 4.80629 13.1512 4.82239C13.1906 4.83849 13.2327 4.84659 13.2752 4.84622C13.3178 4.84585 13.3598 4.83702 13.3988 4.82024C13.4379 4.80346 13.4732 4.77907 13.5028 4.74849L13.6242 4.62708C14.8157 5.50845 15.6986 6.74328 16.1474 8.15572C16.5961 9.56815 16.5878 11.0862 16.1235 12.4936C15.6592 13.901 14.7627 15.126 13.5616 15.9942C12.3606 16.8624 10.9162 17.3295 9.43416 17.329Z" fill="white"/>

</svg>
