<svg viewBox="0 0 19 19" fill="none" xmlns="http://www.w3.org/2000/svg">
<path d="M1.53125 8.96875V12.9531H12.9531V8.96875H1.53125ZM12.2952 12.2952H2.18921V9.62671H12.2952V12.2952Z" fill="white"/>
<path d="M14.697 8.96875H13.9736V12.9531H14.697V8.96875Z" fill="white"/>
<path d="M16.5564 8.96875H15.833V12.9531H16.5564V8.96875Z" fill="white"/>
<path d="M13.6164 6.7541C13.489 6.56194 13.4276 6.33354 13.4415 6.10342C13.4554 5.87329 13.5438 5.65394 13.6934 5.4785C14.0026 5.1189 14.182 4.66588 14.203 4.1921C14.2239 3.71832 14.0852 3.25123 13.8089 2.86575L13.6147 2.59375H12.5811L12.6697 2.63691L13.4234 3.48326C13.5612 3.67561 13.6305 3.90868 13.62 4.14509C13.6096 4.3815 13.52 4.60755 13.3658 4.78698C13.066 5.1386 12.8889 5.57819 12.861 6.03937C12.8332 6.50055 12.9562 6.95827 13.2114 7.34339L13.4096 7.64062H14.2075L13.6164 6.7541Z" fill="white"/>
<path d="M16.0073 6.7541C15.8799 6.56194 15.8185 6.33354 15.8324 6.10342C15.8463 5.87329 15.9347 5.65394 16.0843 5.4785C16.3935 5.1189 16.573 4.66588 16.5939 4.1921C16.6149 3.71832 16.4761 3.25123 16.1998 2.86575L16.0056 2.59375H15.1211L15.2098 2.63691L15.8143 3.48326C15.9522 3.67561 16.0214 3.90868 16.011 4.14509C16.0005 4.3815 15.911 4.60755 15.7567 4.78698C15.457 5.1386 15.2798 5.57819 15.2519 6.03937C15.2241 6.50055 15.3471 6.95827 15.6023 7.34339L15.8005 7.64062H16.5984L16.0073 6.7541Z" fill="white"/>
</svg>
