<svg viewBox="0 0 19 19" fill="none" xmlns="http://www.w3.org/2000/svg">
<path d="M15.6548 8.62071C16.3014 8.62071 16.8272 8.09488 16.8272 7.44829C16.8272 6.80171 16.3014 6.27588 15.6548 6.27588C15.0082 6.27588 14.4824 6.80171 14.4824 7.44829C14.4824 8.09488 15.0082 8.62071 15.6548 8.62071ZM15.6548 6.86209C15.9781 6.86209 16.241 7.125 16.241 7.44829C16.241 7.77159 15.9781 8.0345 15.6548 8.0345C15.3315 8.0345 15.0686 7.77159 15.0686 7.44829C15.0686 7.125 15.3315 6.86209 15.6548 6.86209Z" fill="white"/>
<path d="M17.3898 9.02055C17.7676 8.60405 18 8.0536 18 7.44834C18 6.15546 16.9481 5.10352 15.6552 5.10352C14.5821 5.10352 13.6773 5.82895 13.3997 6.81436L12.1696 10.0951C11.8879 10.1121 11.6177 10.1892 11.3721 10.324L5.37222 7.86514C5.21688 6.78886 4.29184 5.98283 3.19828 5.98283C1.986 5.98283 1 6.96883 1 8.1811C1 9.39338 1.986 10.3794 3.19828 10.3794C3.63617 10.3794 4.05179 10.2469 4.4129 10.006L10.4485 12.4798C10.4502 12.4897 10.4479 12.4994 10.4508 12.5094C10.6809 13.3262 11.4351 13.8966 12.2845 13.8966C13.335 13.8966 14.1897 13.0419 14.1897 11.9914C14.1897 11.9402 14.1858 11.8894 14.182 11.839L17.3124 9.13574C17.3493 9.1035 17.3731 9.06334 17.3898 9.02055ZM15.6552 5.68972C16.6251 5.68972 17.4138 6.47846 17.4138 7.44834C17.4138 8.41822 16.6251 9.20696 15.6552 9.20696C14.6853 9.20696 13.8966 8.41822 13.8966 7.44834C13.8966 7.29271 13.9188 7.14234 13.9569 6.99843L14.0243 6.81846C14.0299 6.80352 14.0284 6.78827 14.0317 6.77303C14.2972 6.13758 14.9245 5.68972 15.6552 5.68972ZM2.82926 8.72364C2.53029 8.60112 2.38667 8.25789 2.5089 7.95922C2.632 7.66055 2.97522 7.51634 3.2739 7.63886L11.1637 10.8724C11.2193 10.9269 11.2906 10.9553 11.3659 10.9553L12.2133 11.3027C12.3583 11.3622 12.4715 11.4744 12.5319 11.6189C12.5922 11.7634 12.5928 11.9226 12.5333 12.0677C12.4111 12.3669 12.0691 12.5108 11.7689 12.3877L2.82926 8.72364ZM3.19828 9.79317C2.30959 9.79317 1.58621 9.06979 1.58621 8.1811C1.58621 7.29241 2.30959 6.56903 3.19828 6.56903C3.87036 6.56903 4.451 6.9867 4.68988 7.58522L3.49607 7.09603C2.89814 6.85129 2.21198 7.13883 1.96636 7.73646C1.72162 8.33439 2.00886 9.02055 2.60679 9.26588L3.6986 9.71345C3.53886 9.76562 3.37091 9.79317 3.19828 9.79317ZM12.2845 13.3104C11.8759 13.3104 11.5025 13.117 11.2572 12.8113L11.5467 12.93C11.6901 12.9886 11.8407 13.0179 11.9914 13.0179C12.1447 13.0179 12.2983 12.9874 12.4442 12.9262C12.7329 12.8054 12.9574 12.5791 13.0759 12.2895C13.3212 11.6913 13.0339 11.0052 12.4357 10.7595L12.2323 10.676C12.2499 10.6757 12.2669 10.6725 12.2845 10.6725C13.0117 10.6725 13.6034 11.2643 13.6034 11.9914C13.6034 12.7186 13.0117 13.3104 12.2845 13.3104ZM12.7743 10.1525L13.471 8.29483C13.8113 9.16974 14.6604 9.79288 15.6543 9.79317L14.0182 11.2062C13.7843 10.6918 13.3291 10.3005 12.7743 10.1525Z" fill="white"/>
</svg>
