<svg viewBox="0 0 19 19" fill="none" xmlns="http://www.w3.org/2000/svg">
<path d="M17.7654 6.91513L15.2343 2.48319H12.7501V1H6.25125V2.48319H3.76697L1.22962 6.92677C0.931781 7.49784 0.935442 8.18084 1.23925 8.75361C1.46671 9.18321 1.83243 9.4894 2.26856 9.63326V18H4.33045H8.93671H16.7331V9.63288C17.1695 9.48892 17.5349 9.18286 17.7621 8.75357C18.0659 8.18084 18.0696 7.49784 17.7654 6.91513ZM6.93124 1.67999H12.0701V2.48319H6.93124V1.67999ZM8.25672 17.32H5.01044V12.0636H8.25672V17.32ZM16.0531 17.32H8.93671V11.3836H4.33045V17.32H2.94851V9.72311C3.60146 9.69331 4.1744 9.35155 4.51799 8.84125C4.87756 9.37548 5.48773 9.72777 6.17884 9.72777C6.86995 9.72777 7.48011 9.37548 7.83969 8.84125C8.19936 9.37548 8.8097 9.72777 9.50081 9.72777C10.1919 9.72777 10.802 9.37555 11.1616 8.84132C11.5212 9.37555 12.1314 9.72777 12.8224 9.72777C13.5136 9.72777 14.1239 9.37548 14.4836 8.84125C14.8271 9.35165 15.4 9.69348 16.0531 9.72311V17.32ZM17.1615 8.43516C16.9805 8.77616 16.6664 8.99595 16.2975 9.0388C16.2474 9.04512 16.1963 9.04778 16.1445 9.04778C15.4163 9.04778 14.8236 8.45512 14.8236 7.72696H14.1436C14.1436 8.45512 13.551 9.04778 12.8225 9.04778C12.0943 9.04778 11.5017 8.45512 11.5017 7.72696H10.8216C10.8216 8.45512 10.229 9.04778 9.50081 9.04778C8.77234 9.04778 8.17965 8.45512 8.17965 7.72696H7.49966C7.49966 8.45512 6.90696 9.04778 6.17884 9.04778C5.45068 9.04778 4.85802 8.45512 4.85802 7.72696H4.17803C4.17803 8.45512 3.58537 9.04778 2.85686 9.04778C2.80507 9.04778 2.75393 9.04512 2.70248 9.0388C2.33493 8.99598 2.02083 8.77616 1.83985 8.43516C1.64095 8.05998 1.63829 7.61373 1.82625 7.25247L4.16142 3.16317H6.25121H12.7501H14.8399L17.1687 7.24083C17.363 7.61373 17.3603 8.05998 17.1615 8.43516Z" fill="white"/>
<path d="M10.1436 11.3838V14.7755H14.7784V11.3838H10.1436ZM14.0984 14.0955H10.8235V12.0638H14.0984V14.0955Z" fill="white"/>
</svg>
