<svg viewBox="0 0 19 19" fill="none" xmlns="http://www.w3.org/2000/svg">
<path d="M16.9375 14.8127H15.875C15.4627 14.8164 15.0554 14.7227 14.6861 14.5392C14.3169 14.3558 13.9961 13.9507 13.75 13.6199C13.5013 13.9479 13.1801 14.3511 12.8114 14.5342C12.4427 14.7174 12.0367 14.8127 11.625 14.8127C11.2133 14.8127 10.8073 14.7174 10.4386 14.5342C10.0699 14.3511 9.74867 13.9479 9.5 13.6199C9.25133 13.9479 8.93008 14.3511 8.56141 14.5342C8.19274 14.7174 7.78666 14.8127 7.375 14.8127C6.96334 14.8127 6.55726 14.7174 6.18859 14.5342C5.81992 14.3511 5.49867 13.9479 5.25 13.6199C5.00386 13.9507 4.68312 14.3558 4.31387 14.5392C3.94462 14.7227 3.53729 14.8164 3.125 14.8127H2.0625V13.8873H3.125C3.48726 13.866 3.90353 13.7374 4.19239 13.5177C4.48126 13.2981 4.6982 12.9974 4.81556 12.654C4.84916 12.5476 4.84779 12.455 4.93847 12.39C5.02916 12.325 5.13846 12.2912 5.25 12.2936C5.36137 12.2941 5.46979 12.3294 5.56014 12.3945C5.65049 12.4597 5.64971 12.5514 5.68545 12.6568C5.80309 12.9996 6.02004 13.2997 6.30869 13.5188C6.59735 13.7379 7.01322 13.8662 7.375 13.8873C7.73726 13.866 8.15352 13.7374 8.44239 13.5177C8.73126 13.2981 8.9482 12.9974 9.06556 12.654C9.10054 12.5485 9.16806 12.4568 9.25843 12.392C9.3488 12.3272 9.38882 12.2928 9.5 12.2936C9.61137 12.2941 9.71979 12.3294 9.81014 12.3945C9.90049 12.4597 9.89971 12.5514 9.93545 12.6568C10.0531 12.9996 10.3386 13.2997 10.6272 13.5188C10.9159 13.7379 11.2632 13.8662 11.625 13.8873C11.9873 13.866 12.4035 13.7374 12.6924 13.5177C12.9813 13.2981 13.1982 12.9974 13.3156 12.654C13.3513 12.5487 13.4193 12.4573 13.5098 12.3926C13.6003 12.328 13.6403 12.2933 13.7515 12.2937C13.8628 12.294 13.9711 12.3292 14.0612 12.3943C14.1514 12.4595 14.2188 12.5513 14.254 12.6568C14.3716 12.9996 14.52 13.2997 14.8087 13.5188C15.0974 13.7379 15.5132 13.8662 15.875 13.8873H16.9375V14.8127Z" fill="white"/>
<path d="M13.2188 10.3425L8.59316 5.71692C8.44552 5.5684 8.26988 5.45065 8.0764 5.3705C7.88293 5.29035 7.67547 5.24939 7.46606 5.25001H3.125V6.17541H7.46606C7.53589 6.17519 7.60507 6.18884 7.66959 6.21556C7.73411 6.24228 7.86123 6.28154 7.91046 6.33107L9.34856 7.76916L6.4496 11.0109L7.06374 11.625L10.0312 8.3833L12.6046 10.8881L13.2188 10.3425Z" fill="white"/>
<path d="M11.7617 6.31261C11.7617 5.89233 11.8178 5.55003 12.0513 5.20057C12.2848 4.85112 12.5481 4.6473 12.9364 4.48646C13.3247 4.32563 13.752 4.28355 14.1642 4.36554C14.5764 4.44753 14.8179 4.51282 15.1151 4.81001C15.4123 5.1072 15.6147 5.48583 15.6967 5.89804C15.7787 6.31025 15.7366 6.66897 15.5758 7.05727C15.4149 7.44556 15.2797 7.70889 14.9302 7.94239C14.5807 8.17589 14.1699 8.30051 13.7496 8.30051C13.1862 8.29992 12.7146 8.07585 12.3162 7.67746C11.9178 7.27908 11.7623 6.87602 11.7617 6.31261ZM12.6871 6.31261C12.6871 6.52275 12.7494 6.72818 12.8662 6.9029C12.9829 7.07763 13.1489 7.21382 13.343 7.29423C13.5372 7.37465 13.7508 7.39569 13.9569 7.3547C14.163 7.3137 14.3523 7.21251 14.5009 7.06391C14.6495 6.91532 14.7507 6.726 14.7917 6.51989C14.8327 6.31379 14.8117 6.10016 14.7312 5.90601C14.6508 5.71186 14.5146 5.54592 14.3399 5.42917C14.1652 5.31243 13.9598 5.25011 13.7496 5.25011C13.4679 5.25043 13.1979 5.36248 12.9987 5.56167C12.7995 5.76085 12.6874 6.03092 12.6871 6.31261Z" fill="white"/>
</svg>
