<svg viewBox="0 0 19 19" fill="none" xmlns="http://www.w3.org/2000/svg">
<path fill-rule="evenodd" clip-rule="evenodd" d="M18.0007 9.86269V9.86897C17.9999 9.92495 17.9861 9.97997 17.9605 10.0297C17.9348 10.0795 17.898 10.1226 17.8529 10.1558L10.8538 17.1567C10.7854 17.2209 10.6947 17.256 10.6009 17.2545C10.5071 17.2531 10.4176 17.2151 10.3513 17.1488C10.285 17.0825 10.2471 16.993 10.2456 16.8992C10.2441 16.8054 10.2792 16.7147 10.3434 16.6464L17.2616 9.72964V7.2819C17.2616 7.18389 17.3005 7.08988 17.3698 7.02057C17.4391 6.95126 17.5331 6.91232 17.6311 6.91232C17.7292 6.91232 17.8232 6.95126 17.8925 7.02057C17.9618 7.08988 18.0007 7.18389 18.0007 7.2819V9.85899V9.86269ZM7.95033 17.8427C7.94045 17.8616 7.92869 17.8794 7.91522 17.8959C7.84342 17.9627 7.74901 17.9998 7.65097 17.9998C7.55293 17.9998 7.45852 17.9627 7.38672 17.8959C7.37337 17.8793 7.36162 17.8615 7.35161 17.8427L1.15706 11.6478C1.13823 11.6378 1.12041 11.626 1.10384 11.6127C1.0371 11.5409 1 11.4466 1 11.3486C1 11.2506 1.0371 11.1563 1.10384 11.0845C1.1205 11.0713 1.13831 11.0595 1.15706 11.0494L9.58351 2.62296C9.61687 2.57833 9.66006 2.54198 9.70973 2.51673C9.7594 2.49148 9.81422 2.478 9.86993 2.47735H11.369C11.4018 1.96353 11.6213 1.47944 11.9862 1.11618L11.9921 1.12283C12.0278 1.08408 12.0711 1.05309 12.1193 1.03179C12.1675 1.01049 12.2195 0.999336 12.2722 0.999023C12.3807 1.00259 12.4834 1.04908 12.5577 1.12828C12.632 1.20748 12.6718 1.31292 12.6684 1.42145C12.6683 1.48564 12.6536 1.54895 12.6253 1.60658C12.5971 1.66422 12.5561 1.71466 12.5054 1.75408C12.3109 1.94868 12.1886 2.20382 12.1588 2.47735H13.9353C13.9911 2.47791 14.046 2.49138 14.0957 2.51671C14.1454 2.54203 14.1885 2.57853 14.2218 2.62333L16.3764 4.77799C16.4211 4.81135 16.4575 4.85453 16.4828 4.9042C16.5081 4.95386 16.5216 5.00868 16.5224 5.06442V9.12981C16.5216 9.18574 16.5078 9.24071 16.4822 9.29041C16.4565 9.34012 16.4197 9.38319 16.3746 9.41624L7.95033 17.8427ZM15.7832 5.20671L13.793 3.21651H12.2353C12.2932 3.37027 12.3848 3.50916 12.5032 3.62305C12.5197 3.63311 12.5354 3.64448 12.5501 3.65705L12.5568 3.6504C12.7647 3.85553 12.9286 4.10085 13.0385 4.37141C13.1484 4.64198 13.2021 4.9321 13.1962 5.22408C13.1962 5.2396 13.1925 5.25327 13.1917 5.26843C13.4995 5.44589 13.733 5.72846 13.8492 6.06422C13.9654 6.39998 13.9566 6.76639 13.8243 7.09617C13.6921 7.42594 13.4453 7.69693 13.1293 7.85937C12.8133 8.02181 12.4493 8.06479 12.1042 7.98042C11.759 7.89604 11.4559 7.68998 11.2505 7.40007C11.0451 7.11017 10.9512 6.75589 10.986 6.40229C11.0208 6.0487 11.182 5.71954 11.44 5.47526C11.698 5.23098 12.0355 5.08799 12.3905 5.07255C12.3709 4.77742 12.2461 4.49912 12.0386 4.2883C12.022 4.27806 12.0061 4.2667 11.991 4.25429L11.985 4.26095C11.6943 3.97746 11.4946 3.61389 11.4111 3.21651H10.0093L1.87848 11.3473L7.65245 17.1213L15.7832 8.99048V5.20671ZM12.0383 6.15875C12.134 6.06516 12.2113 5.95447 12.2663 5.83241C12.1114 5.87279 11.9738 5.96221 11.8739 6.08729C11.7741 6.21238 11.7174 6.36641 11.7124 6.52638C11.7073 6.68635 11.7542 6.84366 11.8459 6.9748C11.9376 7.10594 12.0694 7.20386 12.2214 7.25395C12.3734 7.30403 12.5375 7.30357 12.6893 7.25265C12.841 7.20173 12.9722 7.10307 13.0632 6.97143C13.1542 6.83978 13.2002 6.68222 13.1942 6.52228C13.1883 6.36234 13.1308 6.20862 13.0302 6.08409C12.9499 6.36471 12.7814 6.61206 12.5498 6.78962C12.5144 6.82798 12.4715 6.85866 12.4237 6.87977C12.376 6.90087 12.3244 6.91195 12.2722 6.91232C12.1638 6.90866 12.0612 6.86212 11.9871 6.78292C11.913 6.70371 11.8733 6.59833 11.8768 6.48989C11.8769 6.42608 11.8915 6.36312 11.9195 6.30577C11.9474 6.24841 11.9881 6.19814 12.0383 6.15875ZM5.1696 10.7149C5.23731 10.6473 5.32909 10.6093 5.4248 10.6093C5.5205 10.6093 5.61229 10.6473 5.67999 10.7149L8.28517 13.3201C8.34937 13.3885 8.38444 13.4792 8.38296 13.573C8.38148 13.6667 8.34357 13.7563 8.27725 13.8226C8.21093 13.8889 8.1214 13.9268 8.02762 13.9283C7.93384 13.9298 7.84316 13.8947 7.77478 13.8305L5.1696 11.2253C5.10196 11.1576 5.06397 11.0658 5.06397 10.9701C5.06397 10.8744 5.10196 10.7826 5.1696 10.7149ZM6.64792 9.23662C6.71563 9.16898 6.80742 9.13099 6.90312 9.13099C6.99882 9.13099 7.09061 9.16898 7.15832 9.23662L9.7635 11.8418C9.82769 11.9102 9.86277 12.0009 9.86129 12.0946C9.85981 12.1884 9.8219 12.2779 9.75557 12.3443C9.68925 12.4106 9.59972 12.4485 9.50594 12.45C9.41216 12.4515 9.32148 12.4164 9.2531 12.3522L6.64792 9.74701C6.58029 9.67931 6.54229 9.58752 6.54229 9.49182C6.54229 9.39611 6.58029 9.30433 6.64792 9.23662Z" fill="white"/>
</svg>
