<svg viewBox="0 0 19 19" fill="none" xmlns="http://www.w3.org/2000/svg">
<path d="M9.88357 6.68351C9.75108 6.81607 9.75108 7.03092 9.88364 7.16348C10.0162 7.29604 10.1477 7.296 10.2802 7.16341L10.4771 6.88309C10.5779 6.78227 10.605 6.62921 10.5448 6.49995C10.3578 6.09814 10.3636 5.29303 10.3636 4.87496C10.3636 4.02386 10.9668 3.36167 11.5917 2.80782L11.4261 5.27935C11.4262 5.39063 11.4808 5.49485 11.5723 5.55821L13.1824 6.67316C13.2986 6.75359 13.4525 6.75366 13.5687 6.67323L15.1794 5.55885C15.2711 5.49546 15.3258 5.39117 15.3258 5.27972L15.3255 2.89167C15.9504 3.445 16.4875 4.41264 16.4877 5.26303C16.4877 6.05002 16.098 6.87327 15.5416 7.4298C14.9856 7.98592 14.1633 8.29206 13.3771 8.29206H13.3748C13.1043 8.29186 12.5733 8.1609 12.3915 8.11043C12.2736 8.07765 12.1471 8.11094 12.0606 8.19741L11.1122 9.22919C10.9797 9.36171 10.8964 9.49327 11.0289 9.62582C11.0952 9.69207 11.182 9.72522 11.2689 9.72522C11.3557 9.72522 11.4426 9.69207 11.5088 9.62582L12.4032 8.73145C12.6525 8.79312 13.0811 8.88726 13.3742 8.88746H13.3771C14.3444 8.88743 15.254 8.51063 15.9382 7.82633C16.6227 7.14162 16.9997 6.23131 16.9997 5.26296C16.9994 3.95864 16.2917 2.74914 15.1528 2.10641C15.0477 2.04712 15.0024 2.04804 14.8982 2.10889C14.794 2.16973 14.8133 2.28132 14.8133 2.402L14.8136 5.1019L13.3756 6.14806L11.9382 5.18465L12.1035 2.40122C12.1034 2.28057 12.0393 2.16902 11.9351 2.10824C11.831 2.04743 11.7023 2.04658 11.5972 2.1059C10.4584 2.7492 9.75098 3.95945 9.75098 5.26435C9.75098 5.70512 9.83514 6.14175 10.0015 6.56558L9.88357 6.68351Z" fill="white"/>
<path d="M9.06845 11.1901L6.63123 13.7107L4.19402 16.0647C4.01711 16.2417 3.86526 16.2559 3.61515 16.2561C3.61535 16.2561 3.61498 16.2561 3.61515 16.2561C3.3651 16.2561 3.12938 16.2419 2.9525 16.0651C2.77566 15.888 2.59506 15.5692 2.59537 15.3186C2.59564 15.0687 2.69307 14.6675 2.87015 14.4909L4.81146 12.5494L6.83611 10.5246C6.96863 10.3921 7.13529 10.1772 7.00277 10.0447C6.87025 9.9122 6.65536 9.91217 6.52284 10.0447L2.47399 14.094C2.16884 14.3981 2.00051 14.8031 2 15.2344C1.99949 15.6665 2.16724 16.0727 2.47247 16.3782C2.77769 16.6834 3.1833 16.8515 3.61464 16.8515C3.61437 16.8515 3.61494 16.8515 3.61464 16.8515C4.04601 16.8513 4.45243 16.683 4.75739 16.3779L9.46505 11.6701C9.59757 11.5376 9.59757 11.3227 9.46505 11.1901C9.33249 11.0576 9.20097 11.0576 9.06845 11.1901Z" fill="white"/>
<path d="M3.60957 14.8228C3.49778 14.8228 3.39278 14.8665 3.31527 14.9444C3.15213 15.1065 3.15132 15.3714 3.31344 15.5348C3.31384 15.5353 3.31425 15.5357 3.31466 15.5361C3.39594 15.6172 3.50263 15.6578 3.6095 15.6578C3.7166 15.6578 3.82388 15.617 3.90577 15.5353C4.06819 15.3721 4.06771 15.1071 3.90539 14.9453C3.82649 14.8663 3.72129 14.8228 3.60957 14.8228C3.60967 14.8228 3.6095 14.8228 3.60957 14.8228Z" fill="white"/>
<path d="M14.7053 13.1024C14.6702 13.0673 14.6278 13.0403 14.5811 13.0234L13.6079 12.6705L10.0924 9.155L10.6606 8.58683C10.7932 8.45431 10.7932 8.23942 10.6606 8.10686C10.5601 8.00634 10.4121 7.98204 10.2886 8.0341L4.97133 2.71745C4.64975 2.39482 4.22147 2.21685 3.76539 2.21631H3.76342C3.30735 2.21631 2.87866 2.39366 2.55609 2.71586C2.23312 3.03883 2.05539 3.46806 2.05566 3.92451C2.0559 4.38058 2.23376 4.80941 2.5564 5.13187L7.87373 10.449C7.82167 10.5724 7.8459 10.7204 7.94649 10.821C8.07905 10.9535 8.29393 10.9535 8.42642 10.821L8.99449 10.2529L12.51 13.7683L12.8629 14.7416C12.8798 14.7883 12.9068 14.8307 12.9419 14.8659L14.9145 16.8384C14.9807 16.9046 15.0676 16.9378 15.1544 16.9378C15.2413 16.9378 15.3282 16.9046 15.3944 16.8384L16.6778 15.5549C16.7415 15.4912 16.7772 15.4049 16.7772 15.3149C16.7772 15.2249 16.7415 15.1386 16.6778 15.075L14.7053 13.1024ZM9.37247 8.99836L9.45364 9.00057L8.33608 10.1181L5.68617 7.46833L2.95293 4.65187C2.75841 4.45745 2.73453 4.11569 2.7344 3.84084C2.73426 3.56581 2.84137 3.30715 3.03589 3.11262C3.23018 2.91854 3.4885 2.81174 3.76342 2.81174H3.76461C4.03926 2.81205 4.38038 3.00249 4.57429 3.19701L7.14099 5.76343L9.95768 8.49652L9.45801 8.99619L9.37247 8.99836ZM15.0711 16.2851L13.3086 14.5226L12.9557 13.466C12.9387 13.4193 12.9118 13.4602 12.8766 13.4251L9.39112 9.85632L9.69584 9.63496L13.2646 13.1204C13.2998 13.1556 13.3422 13.1825 13.3889 13.1995L14.3621 13.5524L16.2079 15.2316L15.0711 16.2851Z" fill="white"/>
</svg>
