<svg viewBox="0 0 19 19" fill="none" xmlns="http://www.w3.org/2000/svg">
<path d="M9.49174 2.36133C5.59867 2.36133 2.43276 5.4841 2.36137 9.36388C2.35951 9.43852 2.41952 9.50002 2.49418 9.5H3.35642C3.38761 7.98696 3.95609 6.3037 5.02736 5.23475C5.56691 4.6952 6.30601 4.13634 7.00493 3.84083C7.72876 3.53536 8.60895 3.26775 9.40085 3.26775C10.1944 3.26775 11.1861 3.46677 11.9083 3.7739C12.6072 4.06941 13.3686 4.6952 13.9082 5.23475C14.0742 5.40077 14.1617 5.55275 14.3045 5.73371L13.2736 6.51671C13.1856 6.5848 13.2153 6.72443 13.3234 6.75079L15.9265 7.38661C16.0095 7.40653 16.0909 7.34346 16.0909 7.25879L16.1042 4.57764C16.1042 4.46641 15.9763 4.40331 15.89 4.47303L14.9179 5.18318C13.6164 3.51804 11.7678 2.36133 9.49174 2.36133ZM15.8221 9.5C15.8238 9.42861 15.7508 9.5 15.8221 9.5C15.791 11.013 15.0647 12.6517 13.9934 13.7206C13.4588 14.2575 12.6689 14.8639 11.9712 15.1592C11.2474 15.4646 10.3225 15.7769 9.53065 15.7769C8.73876 15.7769 7.74535 15.4663 7.02319 15.1592C6.32549 14.8639 5.75869 14.3913 5.22409 13.8545C5.05808 13.6885 4.88137 13.4473 4.73859 13.2663L5.72319 12.4833C5.81119 12.4152 5.78148 12.2756 5.67338 12.2492L3.07024 11.6134C2.98724 11.5935 2.90591 11.6565 2.90591 11.7412L2.89262 14.4257C2.89262 14.5369 3.02046 14.6 3.10679 14.5303L3.92263 13.8201C5.22751 15.4819 7.23227 16.6387 9.50834 16.6387C13.4014 16.6387 16.5673 13.5159 16.6387 9.63612C16.6406 9.56148 16.5806 9.49998 16.5059 9.5H15.8221Z" fill="white"/>
</svg>
