<svg viewBox="0 0 19 19" fill="none" xmlns="http://www.w3.org/2000/svg">
<path d="M15.2949 2.54544H12.5903V2.15909C12.5904 1.52006 12.0703 1 11.4313 1H9.49945H7.56762C6.92856 1 6.40854 1.52006 6.40854 2.15909V2.54544H3.70401C3.06495 2.54544 2.54492 3.0655 2.54492 3.70453V4.47726C2.54492 5.11632 3.06498 5.63635 3.70401 5.63635H15.2949C15.934 5.63635 16.454 5.11629 16.454 4.47726V3.70456C16.454 3.0655 15.9339 2.54544 15.2949 2.54544ZM15.8387 4.47726C15.8387 4.69053 15.5078 5.02102 15.2949 5.02102H3.70401C3.49111 5.02102 3.16025 4.69053 3.16025 4.47726V3.70456C3.16025 3.4913 3.49114 3.1608 3.70401 3.1608H10.6586C10.8718 3.1608 11.0449 3.14552 11.0449 2.93186C11.0449 2.7182 10.8718 2.54551 10.6586 2.54551H7.10257V2.15909C7.10257 1.94582 7.35476 1.69403 7.56762 1.69403L9.49945 1.65468L11.4313 1.69403C11.6442 1.69403 11.8963 1.94582 11.8963 2.15909V2.85312C11.8963 3.06678 12.0694 3.16077 12.2827 3.16077H15.2949C15.5078 3.16077 15.8386 3.49126 15.8386 3.70453L15.8387 4.47726Z" fill="white"/>
<path d="M9.50003 8.72705C9.28677 8.72705 9.27109 8.89974 9.19238 9.1134V15.2952C9.19238 15.5089 9.28677 15.6816 9.50003 15.6816C9.71329 15.6816 9.88638 15.5089 9.88638 15.2952V9.11344C9.88638 8.89977 9.71329 8.72705 9.50003 8.72705Z" fill="white"/>
<path d="M12.2046 8.72705C11.9913 8.72705 11.8969 8.89974 11.8969 9.1134V11.2195C11.8969 12.3651 11.8015 13.518 11.6133 14.6473L11.516 15.2319C11.4808 15.4424 11.5443 15.6414 11.7549 15.6762C11.7761 15.6801 11.7978 15.6816 11.8186 15.6816C12.0041 15.6816 12.1679 15.5475 12.1992 15.3586L12.2965 14.774C12.4916 13.6034 12.591 12.4072 12.591 11.2195V9.1134C12.5909 8.89977 12.4178 8.72705 12.2046 8.72705Z" fill="white"/>
<path d="M7.48412 15.2319L7.38677 14.6473C7.19861 13.518 7.10318 12.3651 7.10318 11.2195V9.1134C7.10318 8.89974 7.00879 8.72705 6.79553 8.72705C6.58227 8.72705 6.40918 8.89974 6.40918 9.1134V11.2195C6.40918 12.4072 6.50809 13.6033 6.70359 14.774L6.80094 15.3586C6.83225 15.5475 6.99604 15.6816 7.18152 15.6816C7.20237 15.6816 7.22402 15.6801 7.24527 15.6762C7.45581 15.641 7.51928 15.4424 7.48412 15.2319Z" fill="white"/>
<path d="M15.3743 6.40918C15.161 6.40918 14.9879 6.58187 14.9879 6.79553V9.85088C14.9879 11.9044 14.8168 13.973 14.4791 15.9979L14.328 16.9048C14.2967 17.0914 14.0577 17.3061 13.8684 17.3061H5.13191C4.94222 17.3061 4.70315 17.0914 4.67227 16.9048L4.5212 15.9979C4.18352 13.973 4.01236 11.9048 4.01236 9.85088V7.10318H13.7501C13.9634 7.10318 14.1365 7.00919 14.1365 6.79553C14.1365 6.58187 13.9634 6.40918 13.7501 6.40918H3.70471C3.49145 6.40918 3.31836 6.58187 3.31836 6.79553V9.85088C3.31836 11.9473 3.49301 14.058 3.83762 16.1246L3.9887 17.0315C4.08256 17.5929 4.56321 18.0001 5.13191 18.0001H13.868C14.4371 18.0001 14.9177 17.5929 15.0112 17.0315L15.1623 16.1247C15.5073 14.058 15.682 11.9473 15.682 9.85092V6.79556C15.682 6.5819 15.5876 6.40918 15.3743 6.40918Z" fill="white"/>
</svg>
