<svg width="19" height="19" viewBox="0 0 19 19" fill="none" xmlns="http://www.w3.org/2000/svg">
<g clip-path="url(#clip0_1633_519)">
<path d="M6.29584 5.82478L6.07955 5.25195C5.61158 5.37704 5.14615 5.53214 4.69629 5.71283L5.00846 6.25367C5.42747 6.08546 5.86042 5.94125 6.29584 5.82478Z" fill="white"/>
<path d="M3.70358 6.9131L3.37937 6.33643C2.95485 6.56956 2.53976 6.83106 2.14551 7.11378L2.4762 7.63668C2.84334 7.37353 3.30851 7.13008 3.70358 6.9131Z" fill="white"/>
<path d="M0 9.08325L0.479077 9.4698C0.772247 9.12679 1.08961 8.79815 1.42198 8.49307L1.01327 8.03369C0.656007 8.3615 0.315083 8.71453 0 9.08325Z" fill="white"/>
<path d="M18.079 8.74609L17.541 9.15506C17.8465 9.48762 18.1346 9.8421 18.3978 10.2084L18.9996 9.87773C18.7167 9.48393 18.4072 9.10317 18.079 8.74609Z" fill="white"/>
<path d="M15.4805 7.39494C15.8562 7.64416 16.2999 7.99818 16.6433 8.29135L17.0295 7.73318C16.6605 7.41797 16.2685 7.12227 15.8643 6.85449L15.4805 7.39494Z" fill="white"/>
<path d="M14.6005 6.12359C14.1677 5.90731 13.7165 5.71497 13.2587 5.55176L12.9775 6.18315C13.4035 6.3349 13.9023 6.51388 14.3049 6.71521L14.6005 6.12359Z" fill="white"/>
<path d="M7.02417 6.68821L7.51463 6.60963L7.91035 5.96881L9.13948 5.97508L8.56416 7.95868V8.00561C8.56416 8.25609 8.61029 8.46002 8.86077 8.46002H9.52845L10.8382 6.03094L12.0082 6.06444C12.5322 6.06444 12.9585 5.65328 12.9585 5.1482C12.9588 4.89999 12.8576 4.6675 12.6737 4.49371C12.4953 4.32505 12.2592 4.23195 11.9983 4.23195L10.9872 4.26571L9.68638 1.85328L8.85963 1.85303C8.60972 1.85372 8.40648 2.05772 8.40648 2.30757V2.35431L8.97718 4.32208L7.9807 4.33006L7.43554 3.70343L7.02429 3.62471C6.79059 3.62471 6.60059 3.81471 6.60059 4.04829V6.2647C6.60059 6.49834 6.7904 6.68821 7.02417 6.68821ZM7.10171 4.15762L7.70722 4.83472L9.61625 4.81616L8.90216 2.35459H9.45051L10.7588 4.78057L12.0086 4.73351C12.0897 4.73351 12.3228 4.84142 12.3786 4.89405C12.4293 4.94193 12.4571 5.16174 12.4571 5.22691C12.4571 5.3689 12.1688 5.56307 12.0192 5.5632L10.6098 5.51658L9.37154 7.87981L9.05971 7.95865L9.77855 5.47991L7.71482 5.46497L7.10171 6.15505V4.15762Z" fill="white"/>
<path d="M10.8491 10.077C10.3008 9.95207 9.7403 9.88867 9.18284 9.88867C5.67658 9.88867 2.84043 12.1222 2.06041 15.5459C1.93926 16.0781 1.87865 16.6141 1.87402 17.1471H2.55412C2.55773 16.8138 2.58579 16.3215 2.64025 15.9876C3.11133 16.1084 3.75426 16.3021 3.91019 16.4293C3.90291 16.4834 3.89455 16.6958 3.88606 16.7509C3.86719 16.8731 3.84686 17.0082 3.83843 17.1471H4.52119C4.52999 17.0522 4.54494 16.9521 4.55621 16.8785C4.57173 16.7776 4.58706 16.6771 4.59668 16.5799C4.64874 16.0539 4.05221 15.6332 2.82588 15.3285C3.50045 13.0276 5.32419 11.316 7.58602 10.7617C7.46138 11.0027 7.36099 11.3008 7.31907 11.6781C7.29868 11.8629 7.27214 12.0299 7.24883 12.1769C7.15503 12.7697 7.05801 13.3827 7.85962 13.7395C8.30916 13.9403 8.62367 13.9735 8.87624 13.9999C8.99911 14.0127 9.10741 14.0242 9.22249 14.0536C9.26308 14.1897 9.24257 14.5223 9.23433 14.6552C9.22388 14.824 9.21324 14.9963 9.26479 15.137C9.31603 15.4246 9.52864 16.3355 10.2341 17.1468H11.3371C10.1253 16.3557 9.93223 15.0031 9.92424 14.9436L9.90708 14.8057C9.90873 14.773 9.91088 14.7373 9.91278 14.7067C9.9397 14.2707 10.1477 13.5376 9.52611 13.3477C9.31141 13.2822 9.12685 13.3418 8.96402 13.3246C8.73058 13.3001 8.45028 13.2788 8.12196 13.1324C7.90707 13.0367 7.82823 12.879 7.9186 12.308C7.9433 12.1517 7.97136 11.9745 7.99384 11.7701C8.05781 11.1934 8.30082 10.8279 8.52033 10.5884C8.68715 10.576 9.01304 10.5685 9.18284 10.5685C9.67773 10.5685 10.1757 10.6247 10.6631 10.7357C12.3916 11.1295 13.8634 12.1727 14.807 13.673C15.4466 14.6899 15.7907 15.8344 15.8241 17.0046C15.7544 17.0503 15.6677 17.0984 15.5745 17.1469H16.5045C16.4967 15.7709 16.1093 14.421 15.3584 13.2272C14.2956 11.5377 12.7958 10.5205 10.8491 10.077Z" fill="white"/>
</g>
<defs>
<clipPath id="clip0_1633_519">
<rect width="19" height="19" fill="white"/>
</clipPath>
</defs>
</svg>
