<svg viewBox="0 0 19 19" fill="none" xmlns="http://www.w3.org/2000/svg">
<path d="M14.0293 13.3425V7.24168C14.0293 5.30989 12.7264 3.68 10.9545 3.17556V0.686248C10.9545 0.666389 10.9464 0.648882 10.9431 0.630075C11.038 0.570499 11.1042 0.470216 11.1042 0.349766V0.146541C11.1042 -0.0395488 10.9538 -0.189941 10.7677 -0.189941H7.79049C7.6044 -0.189941 7.45401 -0.0395488 7.45401 0.146541V0.349766C7.45401 0.470216 7.52064 0.570808 7.61554 0.630075C7.6122 0.648943 7.60409 0.66608 7.60409 0.686248V3.17556C5.83217 3.68031 4.5293 5.3102 4.5293 7.24168V13.3425C4.5293 14.7621 5.23424 16.0176 6.31001 16.7854C6.2114 16.9099 6.14984 17.0654 6.14984 17.2367C6.14984 17.6401 6.27291 17.9672 6.67633 17.9672C7.02153 17.9672 7.30926 17.7269 7.3853 17.4049C7.75747 17.5122 8.35315 17.5731 8.7596 17.5731H9.79831C10.1657 17.5731 10.7248 17.521 11.065 17.4325C11.1511 17.74 11.4307 17.9672 11.7659 17.9672C12.1693 17.9672 12.2924 17.6401 12.2924 17.2367C12.2924 17.0903 12.2483 16.9547 12.1743 16.8403C13.2934 16.0785 14.0293 14.7951 14.0293 13.3425ZM8.07373 3.01106V0.512699H10.4859V3.011H9.79899H8.76028L8.07373 3.01106ZM5.10094 7.24168C5.10094 5.27995 6.79886 3.58202 8.76028 3.58202H9.79899C11.7603 3.58202 13.4583 5.27995 13.4583 7.24168V7.95702H5.10094V7.24168ZM11.3381 16.6472C11.2735 16.668 11.2116 16.695 11.1561 16.732C10.7375 16.9057 10.2795 17.0026 9.79899 17.0026H8.76028C6.79893 17.0026 5.10094 15.3046 5.10094 13.3429V8.52804H13.4583V13.3425C13.4583 14.7524 12.5299 16.0718 11.3381 16.6472Z" fill="white"/>
<path d="M11.271 5.66406H7.28765C7.10157 5.66406 6.95117 5.81446 6.95117 6.00054C6.95117 6.18663 7.10157 6.33703 7.28765 6.33703H11.271C11.4571 6.33703 11.6075 6.18663 11.6075 6.00054C11.6075 5.81446 11.4571 5.66406 11.271 5.66406Z" fill="white"/>
<path d="M11.3437 9.95557H7.21539C7.0293 9.95557 6.87891 10.106 6.87891 10.292V14.7031C6.87891 14.8891 7.0293 15.0395 7.21539 15.0395H11.3437C11.5298 15.0395 11.6802 14.8891 11.6802 14.7031V10.292C11.6802 10.106 11.5298 9.95557 11.3437 9.95557ZM11.2113 14.5705H7.34786V10.4245H11.2113V14.5705Z" fill="white"/>
</svg>
