<svg viewBox="0 0 19 19" fill="none" xmlns="http://www.w3.org/2000/svg">
<path d="M13.3563 2.50244H5.66794C5.4835 2.50244 5.33398 2.65195 5.33398 2.8364V4.03771C5.33398 4.22216 5.4835 4.37167 5.66794 4.37167H13.3563C13.5407 4.37167 13.6903 4.22216 13.6903 4.03771V2.8364C13.6903 2.65195 13.5407 2.50244 13.3563 2.50244ZM13.0224 3.70376H6.0019V3.17036H13.0224V3.70376Z" fill="white"/>
<path d="M5.05606 14.075C5.63781 14.075 6.11113 13.6017 6.11113 13.0199C6.11113 12.4382 5.63785 11.9648 5.05606 11.9648C4.47427 11.9648 4.00098 12.4381 4.00098 13.0199C4.00098 13.6017 4.47427 14.075 5.05606 14.075ZM5.05606 12.6328C5.26953 12.6328 5.44322 12.8065 5.44322 13.0199C5.44322 13.2334 5.26953 13.407 5.05606 13.407C4.84259 13.407 4.6689 13.2334 4.6689 13.0199C4.6689 12.8065 4.84259 12.6328 5.05606 12.6328Z" fill="white"/>
<path d="M13.9437 14.075C14.5255 14.075 14.9988 13.6017 14.9988 13.0199C14.9988 12.4382 14.5255 11.9648 13.9437 11.9648C13.362 11.9648 12.8887 12.4381 12.8887 13.0199C12.8887 13.6017 13.362 14.075 13.9437 14.075ZM13.9437 12.6328C14.1572 12.6328 14.3309 12.8065 14.3309 13.0199C14.3309 13.2334 14.1572 13.407 13.9437 13.407C13.7302 13.407 13.5566 13.2334 13.5566 13.0199C13.5566 12.8065 13.7302 12.6328 13.9437 12.6328Z" fill="white"/>
<path d="M17.5489 7.4043H16.5339V3.10261C16.5339 2.18313 15.7859 1.43506 14.8664 1.43506H4.13467C3.21518 1.43506 2.46711 2.18313 2.46711 3.10261V7.4043H1.45211C1.26767 7.4043 1.11816 7.55381 1.11816 7.73825V10.7564C1.11816 10.9408 1.26767 11.0904 1.45211 11.0904H2.46711V15.2099C2.46711 15.3943 2.61663 15.5439 2.80107 15.5439H3.05992V16.5244C3.05992 17.1391 3.56003 17.6392 4.17474 17.6392H4.37495C4.98967 17.6392 5.48977 17.1391 5.48977 16.5244V15.5439H13.5113V16.5244C13.5113 17.1391 14.0114 17.6392 14.6261 17.6392H14.8263C15.441 17.6392 15.9411 17.1391 15.9411 16.5244V15.5439H16.2C16.3844 15.5439 16.534 15.3943 16.534 15.2099V11.0904H17.5489C17.7333 11.0904 17.8829 10.9408 17.8829 10.7564V7.73825C17.8829 7.55381 17.7333 7.4043 17.5489 7.4043ZM2.45957 10.4224H1.78607V8.07221H2.45957V10.4224ZM4.82182 16.5244C4.82182 16.7708 4.62134 16.9713 4.37492 16.9713H4.17471C3.92828 16.9713 3.72781 16.7708 3.72781 16.5244V15.5439H4.82182V16.5244ZM15.2732 16.5244C15.2732 16.7708 15.0727 16.9713 14.8263 16.9713H14.6261C14.3797 16.9713 14.1792 16.7708 14.1792 16.5244V15.5439H15.2732V16.5244ZM15.866 14.876H3.13503V11.0991H15.866V14.876ZM15.866 10.4312H14.396C14.3783 10.4217 14.3596 10.4134 14.3398 10.4071L10.0952 9.04557C9.91953 8.9892 9.73151 9.08594 9.6752 9.26157C9.6189 9.4372 9.71558 9.62525 9.89121 9.68156L12.2282 10.4311H8.82989L4.52914 9.04557C4.35344 8.9892 4.16546 9.08591 4.10915 9.26157C4.05281 9.4372 4.14953 9.62525 4.32516 9.68156L6.6621 10.4311H3.13503V5.45291H15.866V10.4312ZM15.866 4.78499H3.13503V3.10261C3.13503 2.55141 3.58347 2.10298 4.13467 2.10298H14.8664C15.4176 2.10298 15.866 2.55141 15.866 3.10261V4.78499ZM17.215 10.4224H16.5415V8.07221H17.215V10.4224Z" fill="white"/>
</svg>
