<svg viewBox="0 0 19 19" fill="none" xmlns="http://www.w3.org/2000/svg">
<path d="M16.5833 1.88525H2.41668C1.63428 1.88525 1 2.5195 1 3.3019V13.9269C1 14.7093 1.63428 15.3436 2.41668 15.3436H7.375V16.4915H4.89582C4.70022 16.4915 4.54164 16.5647 4.54164 16.7603C4.54164 16.9559 4.70022 17.1144 4.89582 17.1144H14.1041C14.2997 17.1144 14.4583 16.9559 14.4583 16.7603C14.4583 16.5647 14.2998 16.4915 14.1042 16.4915H11.625V15.3436H16.5833C17.3658 15.3436 18 14.7093 18 13.9269V3.3019C18 2.5195 17.3658 1.88525 16.5833 1.88525ZM11.0021 16.4915H7.99793V15.3436H11.0021V16.4915ZM17.3771 13.9269C17.3771 14.3181 16.9746 14.7206 16.5834 14.7206H2.41668C2.02548 14.7206 1.62293 14.3181 1.62293 13.9269V3.38733C1.6229 2.99613 1.94005 2.50815 2.33125 2.50815L16.5834 2.59358C16.9746 2.59358 17.3771 2.9107 17.3771 3.3019V13.9269Z" fill="white"/>
<path d="M2.41602 3.30225V12.5106H16.5827V3.30225H2.41602ZM15.9598 11.8877H3.03892V3.92517H9.49935H15.9598V11.8877Z" fill="white"/>
<path d="M9.47499 13.9754C9.71089 13.9754 9.90212 13.7841 9.90212 13.5482C9.90212 13.3123 9.71089 13.1211 9.47499 13.1211C9.23909 13.1211 9.04785 13.3123 9.04785 13.5482C9.04785 13.7841 9.23909 13.9754 9.47499 13.9754Z" fill="white"/>
</svg>
