<svg viewBox="0 0 19 19" fill="none" xmlns="http://www.w3.org/2000/svg">
<path d="M17.2323 6.26566L10.7183 0.488067C10.0386 -0.16334 8.96236 -0.16334 8.28264 0.488067L6.10187 2.47056V1.70588H6.38508C6.55501 1.70588 6.66828 1.59261 6.66828 1.42268V0.289827C6.66828 0.119898 6.55501 0.00662251 6.38508 0.00662251H2.98653C2.8166 0.00662251 2.70332 0.119898 2.70332 0.289827V1.42268C2.70332 1.59261 2.8166 1.70588 2.98653 1.70588H3.26973V4.96285L1.76871 6.26566C1.57047 6.4639 1.51382 6.7188 1.59878 6.97369C1.68375 7.20027 1.93864 7.3702 2.19353 7.3702H3.26976V15.3002H2.98653C2.8166 15.3002 2.70332 15.4135 2.70332 15.5834V16.7163C2.70332 16.8862 2.8166 16.9995 2.98653 16.9995H16.0144C16.1561 16.9995 16.2976 16.8862 16.2976 16.6879V15.5551C16.2976 15.4701 16.2693 15.4135 16.2127 15.3568C16.156 15.3002 16.0994 15.2719 16.0144 15.2719H15.7312V7.34189H16.8075C17.0907 7.34189 17.3173 7.20027 17.4022 6.94538C17.4872 6.7188 17.4305 6.43559 17.2323 6.26566ZM16.8641 6.77545C16.8358 6.80376 16.8074 6.80376 16.8074 6.80376H15.448C15.2781 6.80376 15.1648 6.91704 15.1648 7.08697V15.5834C15.1648 15.7534 15.2781 15.8666 15.448 15.8666H15.7312V16.4331H3.26973V15.8667H3.55293C3.72286 15.8667 3.83614 15.7534 3.83614 15.5835V7.087C3.83614 6.91707 3.72286 6.8038 3.55293 6.8038H2.1935C2.16519 6.8038 2.13685 6.80379 2.13685 6.77548C2.13685 6.74717 2.13685 6.71883 2.16516 6.69052L3.75117 5.33109C3.80783 5.27443 3.83614 5.18947 3.83614 5.1045V1.42268C3.83614 1.25275 3.72286 1.13947 3.55293 1.13947H3.26973V0.573031H6.10187V1.13947H5.81867C5.64874 1.13947 5.53547 1.25275 5.53547 1.42268V3.12197C5.53547 3.23525 5.59212 3.34855 5.70539 3.43352C5.81867 3.46183 5.93198 3.46183 6.01694 3.37687L8.67916 0.941201C9.13229 0.488067 9.84035 0.488067 10.3218 0.941201L16.8358 6.7188C16.8641 6.7188 16.8924 6.74714 16.8641 6.77545Z" fill="white"/>
<path d="M11.2005 7.93705H10.0676V6.8042H10.9173C11.0872 6.8042 11.2005 6.69093 11.2005 6.521C11.2005 6.35107 11.0872 6.23779 10.9173 6.23779H8.65151C8.48158 6.23779 8.3683 6.35107 8.3683 6.521C8.3683 6.69093 8.48158 6.8042 8.65151 6.8042H9.50115V7.93705H5.81933C5.6494 7.93705 5.53613 8.05033 5.53613 8.22026V9.91955C5.53613 10.0895 5.6494 10.2028 5.81933 10.2028H10.804C10.8606 10.2028 10.9172 10.2594 10.9172 10.316V11.902C10.9172 12.072 11.0305 12.1853 11.2004 12.1853H12.8997C13.0697 12.1853 13.1829 12.072 13.1829 11.902V9.91955C13.183 8.81501 12.305 7.93705 11.2005 7.93705ZM12.6165 11.6188H11.4837V10.3161C11.4837 9.94789 11.1721 9.63635 10.804 9.63635H6.10257V8.50349H11.2005C11.9935 8.50349 12.6166 9.12656 12.6166 9.91958L12.6165 11.6188Z" fill="white"/>
<path d="M12.2474 12.8364C12.1341 12.7231 11.9642 12.7231 11.8509 12.8364L11.2844 13.4029C10.8596 13.8277 10.8596 14.5074 11.2844 14.9322C11.4827 15.1305 11.7659 15.2438 12.0491 15.2438C12.3323 15.2438 12.6156 15.1588 12.8138 14.9322C13.2386 14.5074 13.2386 13.8277 12.8138 13.4029L12.2474 12.8364ZM12.4173 14.5357C12.2191 14.734 11.8792 14.734 11.681 14.5357C11.4827 14.3375 11.4827 13.9976 11.681 13.7993L12.0491 13.4312L12.4173 13.7994C12.6156 13.9976 12.6156 14.3375 12.4173 14.5357Z" fill="white"/>
</svg>
