<svg viewBox="0 0 19 19" fill="none" xmlns="http://www.w3.org/2000/svg">
<path d="M16.4727 6.56903H13.5372C13.2286 6.14506 12.8549 5.77142 12.431 5.4628V3.86307C12.431 3.71691 12.3125 3.59851 12.1664 3.59851C12.0203 3.59851 11.9018 3.71695 11.9018 3.86307V5.12393C11.4673 4.88467 11.0016 4.7136 10.518 4.6134C10.51 4.61174 10.502 4.61004 10.4939 4.60842C10.461 4.60174 10.428 4.59537 10.3949 4.58939C10.3812 4.58693 10.3675 4.58458 10.3538 4.58222C10.3234 4.57701 10.293 4.57173 10.2625 4.56704C10.2432 4.56406 10.2236 4.56153 10.2041 4.55874C10.1622 4.55283 10.1202 4.54736 10.078 4.54251C10.0501 4.53925 10.0221 4.53607 9.99403 4.53328C9.97397 4.53129 9.95382 4.52966 9.9337 4.52793C9.90478 4.52544 9.87576 4.52315 9.84667 4.52112C9.82768 4.51983 9.80872 4.51857 9.7897 4.51751C9.75759 4.51568 9.72538 4.51422 9.69311 4.51299C9.67711 4.51239 9.6611 4.51163 9.6451 4.51116C9.59689 4.5098 9.54854 4.50891 9.5 4.50891C9.45146 4.50891 9.40315 4.5098 9.3549 4.51116C9.3389 4.51163 9.32286 4.51239 9.30689 4.51299C9.27462 4.51422 9.24241 4.51568 9.2103 4.51751C9.19128 4.5186 9.17232 4.51983 9.15333 4.52112C9.12427 4.52315 9.09525 4.52544 9.0663 4.52793C9.04618 4.52966 9.02606 4.53132 9.00597 4.53328C8.97788 4.53607 8.94992 4.53929 8.92193 4.54251C8.8798 4.54739 8.83783 4.5528 8.79593 4.55874C8.7764 4.5615 8.75688 4.56402 8.73742 4.56704C8.70694 4.57169 8.67656 4.57697 8.64621 4.58222C8.6325 4.58458 8.61876 4.58687 8.60508 4.58939C8.57197 4.5954 8.53897 4.60178 8.50606 4.60842C8.49803 4.61004 8.48999 4.61174 8.48193 4.6134C7.99839 4.71357 7.53275 4.88467 7.09812 5.12393V2.52728C7.09812 1.9769 7.54586 1.52916 8.09624 1.52916H10.9036C11.454 1.52916 11.9017 1.9769 11.9017 2.52728V2.99723C11.9017 3.14339 12.0202 3.2618 12.1663 3.2618C12.3124 3.2618 12.4309 3.14333 12.4309 2.99723V2.52728C12.431 1.68515 11.7458 1 10.9037 1H8.0963C7.25417 1 6.56903 1.68515 6.56903 2.52728V5.4628C6.14506 5.77142 5.77142 6.14509 5.4628 6.56903H2.52728C1.68515 6.56903 1 7.25417 1 8.0963V8.96496C1 9.11112 1.11844 9.22953 1.26456 9.22953C1.41069 9.22953 1.52912 9.11109 1.52912 8.96496V8.0963C1.52912 7.54593 1.97687 7.09819 2.52724 7.09819H5.12389C4.88463 7.53278 4.71357 7.99846 4.61336 8.48199C4.6117 8.49003 4.61001 8.49806 4.60838 8.50613C4.60171 8.53907 4.59537 8.57207 4.58936 8.60514C4.5869 8.61882 4.58461 8.63257 4.58219 8.64628C4.57697 8.67666 4.57169 8.70704 4.56701 8.73752C4.56406 8.75688 4.5615 8.77644 4.55871 8.79586C4.5528 8.8378 4.54732 8.87987 4.54244 8.922C4.53919 8.94992 4.536 8.97788 4.53321 9.00597C4.53122 9.02603 4.52959 9.04618 4.52787 9.0663C4.52537 9.09525 4.52305 9.12424 4.52106 9.15333C4.51976 9.17232 4.51854 9.19128 4.51744 9.21027C4.51561 9.24238 4.51415 9.27458 4.51292 9.30686C4.51233 9.32286 4.51156 9.33887 4.5111 9.35487C4.50974 9.40308 4.50884 9.45142 4.50884 9.49997C4.50884 9.54851 4.50974 9.59682 4.5111 9.64506C4.51156 9.66107 4.51233 9.67711 4.51292 9.69308C4.51415 9.72535 4.51561 9.75756 4.51744 9.78966C4.51854 9.80869 4.51976 9.82765 4.52106 9.84664C4.52308 9.87569 4.52537 9.90471 4.52787 9.93367C4.52959 9.95379 4.53125 9.97391 4.53321 9.994C4.536 10.0221 4.53922 10.05 4.54244 10.078C4.54732 10.1201 4.55273 10.1621 4.55868 10.204C4.56143 10.2235 4.56396 10.2431 4.56698 10.2625C4.57166 10.293 4.57691 10.3234 4.58215 10.3537C4.58451 10.3674 4.5868 10.3812 4.58932 10.3949C4.59533 10.428 4.60171 10.461 4.60835 10.4939C4.60998 10.5019 4.61167 10.5099 4.61333 10.518C4.7135 11.0015 4.8846 11.4672 5.12386 11.9018H2.52728C1.9769 11.9019 1.52916 11.4541 1.52916 10.9038V9.83469C1.52916 9.68853 1.41069 9.57012 1.2646 9.57012C1.11844 9.57012 1.00003 9.68856 1.00003 9.83469V10.9038C1.00003 11.7459 1.68518 12.431 2.52731 12.431H5.46283C5.77146 12.855 6.14512 13.2286 6.56906 13.5373V16.4728C6.56906 17.3149 7.25421 18.0001 8.09634 18.0001H10.9037C11.7459 18.0001 12.431 17.3149 12.431 16.4728V13.5373C12.855 13.2286 13.2286 12.855 13.5372 12.431H16.4728C17.3149 12.431 18 11.7459 18 10.9038V8.09637C18 7.25417 17.3149 6.56903 16.4727 6.56903ZM11.9018 16.4727C11.9018 17.0231 11.4541 17.4708 10.9037 17.4708H8.0963C7.54593 17.4708 7.09819 17.0231 7.09819 16.4727V13.8761C7.53278 14.1153 7.99846 14.2864 8.48199 14.3866C8.49003 14.3883 8.49806 14.39 8.50613 14.3916C8.53907 14.3983 8.57207 14.4046 8.60514 14.4106C8.61882 14.4131 8.63257 14.4154 8.64628 14.4178C8.67666 14.423 8.70704 14.4283 8.73749 14.433C8.75688 14.4359 8.77647 14.4385 8.79599 14.4413C8.8379 14.4472 8.8799 14.4526 8.922 14.4575C8.94992 14.4607 8.97791 14.4639 9.00604 14.4667C9.02612 14.4687 9.04625 14.4703 9.06637 14.4721C9.09529 14.4746 9.12431 14.4768 9.15339 14.4789C9.17239 14.4802 9.19134 14.4814 9.21037 14.4825C9.24248 14.4843 9.27468 14.4858 9.30696 14.487C9.32296 14.4876 9.33897 14.4884 9.35497 14.4888C9.40318 14.4902 9.45152 14.4911 9.50007 14.4911C9.54861 14.4911 9.59692 14.4902 9.64516 14.4888C9.66117 14.4884 9.67721 14.4876 9.69318 14.487C9.72545 14.4858 9.75766 14.4843 9.78976 14.4825C9.80879 14.4814 9.82775 14.4802 9.84674 14.4789C9.87579 14.4768 9.90481 14.4746 9.93377 14.4721C9.95389 14.4703 9.97401 14.4687 9.9941 14.4667C10.0222 14.4639 10.0501 14.4607 10.0781 14.4575C10.1202 14.4526 10.1623 14.4472 10.2042 14.4413C10.2237 14.4385 10.2432 14.436 10.2626 14.433C10.2931 14.4283 10.3234 14.423 10.3538 14.4178C10.3675 14.4154 10.3812 14.4131 10.3949 14.4106C10.428 14.4046 10.461 14.3982 10.4939 14.3916C10.502 14.39 10.51 14.3883 10.5181 14.3866C11.0016 14.2864 11.4672 14.1153 11.9018 13.8761V16.4727ZM13.8639 10.4314C13.8431 10.5288 13.8195 10.6251 13.7924 10.7201C13.3708 12.2012 12.2013 13.3707 10.7202 13.7924C10.6252 13.8194 10.5288 13.8431 10.4314 13.8639C10.4138 13.8676 10.3962 13.8714 10.3785 13.8749C10.3531 13.88 10.3277 13.885 10.3021 13.8896C10.2698 13.8955 10.2375 13.9009 10.205 13.9061C10.1805 13.91 10.1559 13.9136 10.1312 13.9171C10.0987 13.9218 10.066 13.9261 10.0333 13.93C10.0159 13.9321 9.99851 13.9341 9.98105 13.936C9.93463 13.941 9.88808 13.9456 9.8414 13.9491C9.83439 13.9496 9.82728 13.9499 9.82028 13.9504C9.77698 13.9535 9.73365 13.9559 9.69019 13.9577C9.67671 13.9583 9.66326 13.9588 9.64975 13.9592C9.59994 13.9609 9.55004 13.962 9.5 13.962C9.44996 13.962 9.40006 13.9609 9.35025 13.9592C9.33677 13.9588 9.32329 13.9583 9.30981 13.9577C9.26635 13.9559 9.22295 13.9535 9.17972 13.9504C9.17272 13.9499 9.16561 13.9496 9.15861 13.9491C9.11189 13.9456 9.06537 13.941 9.01895 13.936C9.00149 13.9342 8.98406 13.9321 8.96666 13.93C8.93395 13.9261 8.90131 13.9218 8.86878 13.9171C8.84411 13.9137 8.8195 13.91 8.79497 13.9061C8.76253 13.9009 8.73015 13.8955 8.69788 13.8896C8.67231 13.885 8.64688 13.88 8.62148 13.8749C8.60381 13.8714 8.58622 13.8676 8.56859 13.8639C8.4712 13.8431 8.37488 13.8194 8.27992 13.7924C8.27999 13.7924 8.27985 13.7924 8.27992 13.7924C6.7988 13.3708 5.62928 12.2013 5.2076 10.7202C5.20764 10.7202 5.20757 10.7202 5.2076 10.7202C5.18058 10.6253 5.15683 10.5288 5.13605 10.4314C5.1323 10.4138 5.12854 10.3962 5.12499 10.3785C5.11991 10.3531 5.11496 10.3277 5.11031 10.3021C5.10447 10.2698 5.09899 10.2375 5.09385 10.205C5.08993 10.1805 5.08631 10.1559 5.08279 10.1312C5.07817 10.0987 5.07382 10.066 5.06991 10.0333C5.06781 10.0159 5.06579 9.99851 5.0639 9.98105C5.05892 9.93463 5.05437 9.88808 5.05085 9.8414C5.05032 9.83439 5.04998 9.82728 5.04952 9.82028C5.04646 9.77698 5.04404 9.73365 5.04225 9.69019C5.04168 9.67671 5.04115 9.66326 5.04069 9.64975C5.03903 9.59994 5.0379 9.55004 5.0379 9.5C5.0379 9.44996 5.03906 9.40006 5.04069 9.35025C5.04115 9.33677 5.04168 9.32329 5.04225 9.30981C5.04407 9.26635 5.04643 9.22295 5.04952 9.17972C5.05002 9.17272 5.05032 9.16561 5.05085 9.15861C5.05437 9.11189 5.05892 9.06537 5.0639 9.01895C5.06576 9.00149 5.06781 8.98406 5.06991 8.96666C5.07379 8.93395 5.07817 8.90131 5.08279 8.86878C5.08628 8.84411 5.08993 8.8195 5.09385 8.79497C5.09899 8.76256 5.10447 8.73015 5.11031 8.69788C5.11496 8.67235 5.11991 8.64688 5.12499 8.62148C5.12851 8.60381 5.13226 8.58622 5.13605 8.56859C5.15683 8.4712 5.18051 8.37485 5.20753 8.27992C5.2075 8.27999 5.20757 8.27985 5.20753 8.27992C5.62914 6.7988 6.79863 5.62928 8.27975 5.2076C8.27968 5.2076 8.27982 5.2076 8.27975 5.2076C8.37471 5.18057 8.4712 5.15687 8.56859 5.13608C8.58618 5.13233 8.60378 5.12858 8.62148 5.12502C8.64688 5.11994 8.67235 5.115 8.69788 5.11035C8.73015 5.1045 8.76249 5.09903 8.79497 5.09388C8.81947 5.08996 8.84411 5.08634 8.86878 5.08282C8.90135 5.07821 8.93395 5.07386 8.96666 5.06994C8.98406 5.06785 9.00149 5.06582 9.01895 5.06393C9.06537 5.05895 9.11192 5.0544 9.15861 5.05088C9.16561 5.05035 9.17272 5.05005 9.17972 5.04955C9.22302 5.0465 9.26635 5.04407 9.30981 5.04228C9.32329 5.04172 9.33674 5.04119 9.35025 5.04072C9.40006 5.03906 9.44993 5.03793 9.5 5.03793C9.55007 5.03793 9.59994 5.03906 9.64975 5.04072C9.66323 5.04119 9.67671 5.04172 9.69019 5.04228C9.73365 5.04411 9.77705 5.04646 9.82028 5.04955C9.82728 5.05005 9.83439 5.05035 9.8414 5.05088C9.88811 5.0544 9.93463 5.05895 9.98105 5.06393C9.99851 5.06579 10.0159 5.06785 10.0333 5.06994C10.066 5.07382 10.0987 5.07821 10.1312 5.08282C10.1559 5.08631 10.1805 5.08996 10.205 5.09388C10.2375 5.09903 10.2698 5.1045 10.3021 5.11035C10.3277 5.115 10.3531 5.11994 10.3785 5.12502C10.3962 5.12854 10.4138 5.13233 10.4314 5.13608C10.5288 5.15687 10.6251 5.18054 10.7201 5.20757C12.2013 5.62918 13.3707 6.79863 13.7924 8.27975C13.7924 8.27968 13.7924 8.27982 13.7924 8.27975C13.8195 8.37468 13.8431 8.4712 13.8639 8.56859C13.8677 8.58618 13.8714 8.60378 13.875 8.62148C13.8801 8.64688 13.885 8.67235 13.8897 8.69788C13.8955 8.73015 13.901 8.76249 13.9061 8.79497C13.91 8.81947 13.9137 8.84411 13.9172 8.86878C13.9218 8.90135 13.9261 8.93395 13.9301 8.96666C13.9322 8.98406 13.9342 9.00149 13.9361 9.01895C13.9411 9.06537 13.9456 9.11192 13.9491 9.15861C13.9497 9.16561 13.9499 9.17272 13.9504 9.17972C13.9535 9.22302 13.9559 9.26635 13.9577 9.30981C13.9583 9.32329 13.9588 9.33674 13.9593 9.35025C13.9609 9.40006 13.9621 9.44993 13.9621 9.5C13.9621 9.55007 13.9609 9.59994 13.9593 9.64975C13.9588 9.66323 13.9583 9.67671 13.9577 9.69019C13.9559 9.73365 13.9535 9.77705 13.9504 9.82028C13.9499 9.82728 13.9497 9.83439 13.9491 9.8414C13.9456 9.88811 13.9411 9.93463 13.9361 9.98105C13.9342 9.99851 13.9322 10.0159 13.9301 10.0333C13.9261 10.066 13.9218 10.0987 13.9172 10.1312C13.9137 10.1559 13.91 10.1805 13.9061 10.205C13.901 10.2374 13.8955 10.2698 13.8897 10.3021C13.885 10.3277 13.8801 10.3531 13.875 10.3785C13.8714 10.3962 13.8677 10.4138 13.8639 10.4314ZM17.4708 10.9037C17.4708 11.4541 17.0231 11.9018 16.4727 11.9018H13.8761C14.1153 11.4672 14.2864 11.0015 14.3866 10.518C14.3883 10.51 14.39 10.5019 14.3916 10.4939C14.3983 10.4609 14.4046 10.4279 14.4106 10.3949C14.4131 10.3812 14.4154 10.3674 14.4178 10.3537C14.423 10.3233 14.4283 10.293 14.433 10.2625C14.4359 10.2431 14.4385 10.2235 14.4413 10.204C14.4472 10.1621 14.4526 10.1201 14.4575 10.078C14.4607 10.05 14.4639 10.0221 14.4667 9.994C14.4687 9.97391 14.4703 9.95379 14.4721 9.93367C14.4746 9.90475 14.4768 9.87573 14.4789 9.84664C14.4802 9.82765 14.4814 9.80869 14.4825 9.78966C14.4843 9.75756 14.4858 9.72535 14.487 9.69308C14.4876 9.67707 14.4884 9.66107 14.4888 9.64506C14.4902 9.59685 14.4911 9.54851 14.4911 9.49997C14.4911 9.45142 14.4902 9.40311 14.4888 9.35487C14.4884 9.33887 14.4876 9.32283 14.487 9.30686C14.4858 9.27458 14.4843 9.24238 14.4825 9.21027C14.4814 9.19124 14.4802 9.17229 14.4789 9.15333C14.4768 9.12427 14.4746 9.09525 14.4721 9.0663C14.4703 9.04618 14.4687 9.02606 14.4667 9.00597C14.4639 8.97788 14.4607 8.94996 14.4575 8.922C14.4526 8.87983 14.4472 8.8378 14.4413 8.79586C14.4385 8.7764 14.436 8.75688 14.433 8.73752C14.4283 8.70701 14.423 8.67666 14.4178 8.64631C14.4154 8.6326 14.4131 8.61886 14.4106 8.60518C14.4046 8.57207 14.3982 8.53907 14.3916 8.50616C14.39 8.49813 14.3883 8.49009 14.3866 8.48203C14.2864 7.99849 14.1153 7.53285 13.8761 7.09822H16.4727C17.0231 7.09822 17.4708 7.54596 17.4708 8.09634V10.9037Z" fill="white"/>
<path d="M9.94284 9.2653L9.93191 9.25435C9.66519 8.98766 9.25068 8.84668 8.73325 8.84668C7.84314 8.84668 6.83157 9.25694 6.47829 9.76126C6.29292 10.0259 6.31729 10.2556 6.37038 10.4016C6.49805 10.7528 6.75032 11.0426 7.12027 11.263C7.28599 11.3618 7.43952 11.4817 7.57768 11.6207C7.71544 11.7576 7.83543 11.9111 7.93421 12.077C8.15458 12.4469 8.44438 12.6991 8.79557 12.8268C8.8649 12.852 8.93695 12.8648 9.00986 12.8648C9.0098 12.8648 9.0099 12.8648 9.00986 12.8648C9.409 12.8648 9.79545 12.4849 10.0698 11.8225C10.4127 10.9949 10.5192 9.84171 9.94284 9.2653ZM9.58099 11.62C9.38838 12.0848 9.14304 12.3356 9.0099 12.3356C8.99867 12.3356 8.98768 12.3336 8.97633 12.3295C8.74278 12.2446 8.54508 12.0685 8.38876 11.806C8.26727 11.6022 8.11989 11.4135 7.95184 11.2464C7.78354 11.0771 7.59488 10.9297 7.39108 10.8084C7.12867 10.652 6.95263 10.4543 6.8677 10.2208C6.86218 10.2056 6.84542 10.1595 6.91169 10.0648C7.13953 9.73958 7.96695 9.3758 8.73325 9.3758C9.102 9.3758 9.39482 9.46555 9.55775 9.62848L9.5687 9.63944C9.93729 10.0081 9.86441 10.9359 9.58099 11.62Z" fill="white"/>
<path d="M10.4254 6.21099C10.2928 6.16072 10.1542 6.13525 10.0134 6.13525C9.53336 6.13525 9.09644 6.43694 8.92621 6.88591C8.82045 7.16485 8.80236 7.55512 8.87906 7.90432C8.97352 8.33479 9.18954 8.63402 9.48724 8.74691C9.57251 8.77925 9.66371 8.79565 9.75838 8.79565C9.75835 8.79565 9.75841 8.79565 9.75838 8.79565C10.3066 8.79565 10.9057 8.22356 11.1003 7.71014C11.3275 7.1108 11.0247 6.43823 10.4254 6.21099ZM10.6055 7.52251C10.4812 7.85049 10.0574 8.2665 9.75834 8.26646C9.72763 8.26646 9.70027 8.26175 9.67477 8.25212C9.55345 8.2061 9.44919 8.03368 9.39583 7.79083C9.34171 7.54416 9.35177 7.25589 9.42093 7.07344C9.5137 6.82877 9.7518 6.66435 10.0134 6.66435C10.0898 6.66435 10.1653 6.67826 10.2377 6.70572C10.5643 6.82956 10.7293 7.19596 10.6055 7.52251Z" fill="white"/>
<path d="M8.50964 7.29832C8.41259 6.8179 7.98685 6.46924 7.49734 6.46924C7.42878 6.46924 7.35965 6.47614 7.29191 6.48982C6.73334 6.60265 6.37066 7.14894 6.48345 7.70758C6.57722 8.1717 7.06875 8.84585 7.6256 8.84592C7.62557 8.84592 7.62564 8.84592 7.6256 8.84592C7.67093 8.84592 7.71628 8.84144 7.76024 8.83254C8.35066 8.7133 8.61771 7.83336 8.50964 7.29832ZM7.65549 8.3139C7.64583 8.3159 7.6361 8.31679 7.62567 8.31679C7.41061 8.31676 7.06683 7.92307 7.00212 7.60283C6.9471 7.33016 7.12407 7.06357 7.3967 7.00852C7.42997 7.00182 7.46384 6.9984 7.49737 6.9984C7.73607 6.9984 7.94362 7.1686 7.99101 7.40314C8.0598 7.74377 7.8654 8.2715 7.65549 8.3139Z" fill="white"/>
<path d="M12.9866 8.77214C12.8163 8.32313 12.3794 8.02148 11.8993 8.02148C11.7586 8.02148 11.6199 8.04698 11.4874 8.09725C10.9136 8.31477 10.2075 9.06904 10.4506 9.71036C10.6341 10.1941 11.2574 10.3658 11.7354 10.3658C11.9494 10.3658 12.1487 10.3331 12.3116 10.2713C12.911 10.0441 13.2138 9.37159 12.9866 8.77214ZM12.124 9.7766C12.0218 9.81538 11.8838 9.83667 11.7354 9.83667C11.3529 9.83667 11.0133 9.70174 10.9454 9.52277C10.8428 9.25213 11.2927 8.73695 11.675 8.59201C11.7474 8.56455 11.8229 8.55064 11.8993 8.55064C12.1609 8.55064 12.399 8.71506 12.4918 8.95974C12.6156 9.28639 12.4506 9.65275 12.124 9.7766Z" fill="white"/>
<path d="M11.8996 10.6876C11.8224 10.672 11.7377 10.6641 11.6482 10.6641C11.102 10.6641 10.4668 10.935 10.3654 11.437C10.2429 12.0432 10.9614 12.6069 11.4904 12.7138C11.5581 12.7274 11.6272 12.7343 11.6958 12.7343C12.1854 12.7343 12.6111 12.3857 12.7081 11.9052C12.8209 11.3467 12.4582 10.8004 11.8996 10.6876ZM12.1894 11.8006C12.142 12.0351 11.9345 12.2053 11.6958 12.2053C11.6623 12.2053 11.6284 12.2019 11.5952 12.1952C11.2545 12.1264 10.8424 11.7478 10.884 11.5418C10.9196 11.3659 11.2981 11.1933 11.6482 11.1933C11.7026 11.1933 11.752 11.1977 11.7948 11.2063C12.0675 11.2614 12.2445 11.5279 12.1894 11.8006Z" fill="white"/>
</svg>
