<svg viewBox="0 0 19 19" fill="none" xmlns="http://www.w3.org/2000/svg">
<path d="M16.3505 2.85938H2.64953C1.74006 2.85938 1 3.60049 1 4.51147V5.5719V13.426V14.4906C1 15.4003 1.74032 16.1406 2.65004 16.1406H15.2875C15.9957 16.1406 16.5994 15.6911 16.8329 15.0631C17.5746 14.9882 18 14.4055 18 13.426V4.51147C18 3.60049 17.2599 2.85938 16.3505 2.85938ZM15.2875 15.6094H2.65004C2.0332 15.6094 1.53125 15.1075 1.53125 14.4906V13.426V5.5719C1.53125 4.95507 2.0332 4.45312 2.65004 4.45312H15.2875C15.9043 4.45312 16.4062 4.95507 16.4062 5.5719V7.375H13.205C11.8943 7.375 10.8281 8.4702 10.8281 9.81647V10.2463C10.8281 11.5923 11.8943 12.6875 13.205 12.6875H16.4062V14.4906C16.4062 15.1075 15.9043 15.6094 15.2875 15.6094ZM16.4062 12.1562H13.205C12.1874 12.1562 11.3594 11.2994 11.3594 10.2463V9.81647C11.3594 8.76305 12.1874 7.90625 13.205 7.90625H16.4062V12.1562ZM17.4688 13.426C17.4688 14.2051 17.1792 14.4422 16.9363 14.5147C16.9364 14.5066 16.9375 14.4987 16.9375 14.4906V5.5719C16.9375 4.66219 16.1972 3.92188 15.2875 3.92188H2.65004C2.22618 3.92188 1.84033 4.08396 1.54777 4.34767C1.62767 3.80758 2.0889 3.39061 2.64953 3.39061H16.3505C16.9671 3.39061 17.4688 3.89334 17.4688 4.51147V13.426Z" fill="white"/>
<path d="M12.1562 10.0312C12.1562 10.6172 12.6328 11.0938 13.2188 11.0938C13.8047 11.0938 14.2812 10.6172 14.2812 10.0312C14.2812 9.44528 13.8047 8.96875 13.2188 8.96875C12.6328 8.96875 12.1562 9.44528 12.1562 10.0312ZM13.2188 9.5C13.5116 9.5 13.75 9.7384 13.75 10.0312C13.75 10.3241 13.5116 10.5625 13.2188 10.5625C12.9259 10.5625 12.6875 10.3241 12.6875 10.0312C12.6875 9.7384 12.9259 9.5 13.2188 9.5Z" fill="white"/>
</svg>
