<svg viewBox="0 0 19 19" fill="none" xmlns="http://www.w3.org/2000/svg">
<path d="M17.2246 11.3213C17.206 11.3089 17.1579 11.2982 17.138 11.2893L9.91065 8.09476V7.05682C11.2854 6.89149 11.9642 5.98453 11.9642 4.81843C11.9642 3.52722 11.0555 2.55322 9.83125 2.55322C8.5459 2.55322 7.46739 3.61279 7.46739 4.86724C7.46739 5.08306 7.64613 5.25834 7.86195 5.25834C7.92621 5.25834 7.98602 5.23911 8.03928 5.21194C8.16576 5.14696 8.25579 5.01912 8.25579 4.86724C8.25579 4.05131 8.99883 3.33544 9.84498 3.33544C10.6358 3.33544 11.2101 3.95923 11.2101 4.81843C11.2101 5.66386 10.5268 6.30142 9.59545 6.30142C9.37962 6.30142 9.22324 6.4767 9.22324 6.69252V7.45688V8.22432C9.22324 8.23187 9.20811 8.23809 9.20883 8.24563L2.27985 11.5206C1.2581 11.8887 0.908209 12.7263 1.01992 13.3655C1.13471 14.023 1.69215 14.4464 2.41424 14.4464H16.1763C17.0311 14.4464 17.7016 14.0041 17.926 13.2624C18.1477 12.5318 17.859 11.744 17.2246 11.3213ZM17.1775 13.0834C17.0534 13.4941 16.6884 13.7591 16.1767 13.7591H2.41424C2.06471 13.7591 1.83545 13.5652 1.78527 13.2786C1.72824 12.9514 1.93856 12.4868 2.5699 12.2572L9.74118 8.85778L16.8159 12.008C17.1483 12.2455 17.2968 12.6895 17.1775 13.0834Z" fill="white"/>
</svg>
