<svg width="19" height="19" viewBox="0 0 19 19" fill="none" xmlns="http://www.w3.org/2000/svg">
<path d="M14.5606 11.5211C14.5761 11.5068 14.5915 11.4922 14.6066 11.4773C14.974 11.116 15.1764 10.6332 15.1764 10.1179V9.14583C15.1764 8.1694 14.382 7.375 13.4055 7.375H12.3993C11.828 7.375 11.3633 7.83974 11.3633 8.41094V10.0924C11.3633 10.5846 11.7315 11.0368 12.0354 11.3798C11.7926 11.4552 11.3893 11.778 11.2165 11.9713L9.91726 13.1439C9.9105 13.1506 9.99535 13.1574 9.98908 13.1646C9.90815 13.2571 9.69981 13.3102 9.57684 13.3102C9.45387 13.3102 9.33696 13.3485 9.256 13.256C9.2464 13.245 9.14473 13.1433 9.13386 13.1336L7.82542 11.7928C7.64192 11.5925 7.38919 11.4705 7.11956 11.4508C7.29438 11.0949 7.39255 10.695 7.39259 10.2725L7.39266 9.44999C7.39269 8.95306 7.19921 8.48588 6.84784 8.13448C6.49648 7.78307 6.02933 7.58955 5.53236 7.58955H5.4934C4.43795 7.58955 3.76211 8.4448 3.76211 9.49607C3.76211 10.3744 3.36873 11.1929 2.68282 11.7416L2.20373 12.1614C2.01938 12.3089 1.95075 12.3654 2.02888 12.5882C2.10704 12.811 2.31008 12.9549 2.54617 12.9549H3.27859C3.2233 13.079 3.17517 13.2086 3.1343 13.3431L2.18198 16.4785C2.0621 16.8731 2.13134 17.3122 2.36275 17.6243C2.53987 17.863 2.79692 18 3.06818 18H7.51552C7.7867 18 8.04379 17.863 8.22084 17.6243C8.45222 17.3122 8.52149 16.8731 8.40161 16.4785L7.54162 13.6471C7.48478 13.4599 7.28694 13.3543 7.0998 13.4111C6.91266 13.468 6.98977 13.6658 7.04665 13.853L7.90664 16.6843C7.96929 16.8906 7.8242 17.0932 7.7432 17.2024C7.71851 17.2357 7.57651 17.3831 7.51548 17.3831H3.06818C3.00715 17.3831 2.95658 17.3272 2.93186 17.2938C2.85086 17.1846 2.61437 16.8906 2.67706 16.6843L3.62938 13.549C3.69536 13.3317 3.96751 13.1326 4.07854 12.9549L4.70992 12.7721C5.45562 12.7721 6.13119 12.5577 6.61788 12.0649H7.04189C7.14403 12.0649 7.42398 12.2004 7.49123 12.2772C7.50083 12.2882 7.5111 12.2986 7.52194 12.3083L8.73885 13.5574C8.95358 13.7927 9.25756 13.9271 9.57684 13.9271C9.89888 13.9271 10.2055 13.6989 10.4204 13.4598L11.7198 12.287C11.7266 12.2804 11.7331 12.2735 11.7394 12.2664C11.8739 12.1127 12.0682 11.9331 12.2725 11.9331L13.2699 12.0245L13.2705 11.9331L13.8267 12.0245C14.0327 12.0245 14.2213 12.1095 14.3577 12.264C14.4941 12.4185 14.7379 12.6162 14.712 12.8236L14.5026 14.6232L13.3355 15.2982L12.2256 14.6518L12.092 13.531C12.0689 13.3368 12.0754 13.198 11.8813 13.2212C11.6871 13.2444 11.5484 13.4206 11.5715 13.6148L12.0199 17.3795C12.0642 17.7332 12.3663 18 12.7228 18H14.0093C14.3658 18 14.6679 17.7332 14.7124 17.3765L15.2324 12.9085C15.2828 12.5055 15.1575 12.0997 14.8887 11.7952C14.7929 11.6867 14.682 11.5946 14.5606 11.5211ZM6.86709 10.2724C6.86698 11.361 5.79845 12.2466 4.70992 12.2466H4.645C5.13389 11.8561 5.52082 11.3225 5.74168 10.6928C5.80642 10.5082 5.70927 10.3061 5.52468 10.2413C5.3403 10.1767 5.32083 10.2737 5.25605 10.4583C4.92636 11.3983 3.86124 12.1585 2.94675 12.3069C3.74252 11.6248 4.28771 10.5493 4.28771 9.496C4.28771 8.83534 4.8286 8.20642 5.49348 8.20642H5.53243C5.84013 8.20642 6.22081 8.41767 6.43841 8.63527C6.65601 8.85287 6.86719 9.14219 6.86716 9.44985L6.86709 10.2724ZM14.6509 10.1179C14.6508 10.4418 14.4322 10.8366 14.2013 11.0637C13.9704 11.2907 13.5728 11.4122 13.2492 11.4074C12.5999 11.3965 11.9803 10.7562 11.9803 10.0924V9.90242C12.3769 10.1431 12.9436 10.3657 13.4285 10.3657C13.624 10.3657 13.7826 10.2071 13.7826 10.0115C13.7826 9.81592 13.624 9.74875 13.4285 9.74875C13.0301 9.74875 12.5522 9.63007 12.2487 9.4146C12.0806 9.29524 11.9803 9.00516 11.9803 8.79167V8.41094C11.9803 8.23028 12.2186 7.99194 12.3993 7.99194H13.4056C13.9914 7.99194 14.6509 8.55997 14.6509 9.14583V10.1179ZM14.1921 17.2917L12.5403 17.2937L12.3259 15.4939L13.1772 15.8281C13.2768 15.878 13.3942 15.878 13.4939 15.8281L14.4047 15.4641L14.1921 17.2917Z" fill="white"/>
<path d="M13.26 1.09131C12.4276 1.09131 11.6088 1.31093 10.892 1.7264C10.3528 2.03892 9.87911 2.45659 9.5004 2.9504C9.12169 2.45659 8.64796 2.03888 8.10881 1.7264C7.39198 1.31093 6.57314 1.09131 5.74078 1.09131C3.12692 1.09131 1.0918 3.13284 1.0918 5.7546C1.0918 6.83272 1.48616 7.86922 2.20222 8.67311C2.2722 8.7517 2.36928 8.79172 2.46682 8.79172C2.55061 8.79172 2.54333 8.76215 2.61083 8.70201C2.75689 8.57189 2.76982 8.34802 2.6397 8.20196C2.03935 7.52795 1.70873 6.65879 1.70873 5.7546C1.70873 3.52342 3.5175 1.70824 5.74081 1.70824C7.1674 1.70824 8.45933 2.44151 9.19677 3.66973C9.26077 3.77637 9.37605 3.8416 9.5004 3.8416C9.62475 3.8416 9.73999 3.77637 9.80403 3.66973C10.5414 2.44151 11.8334 1.70824 13.26 1.70824C15.4833 1.70824 17.2921 3.52342 17.2921 5.7546C17.2921 6.65875 16.9615 7.52788 16.3612 8.20185C16.2311 8.34791 16.1526 8.57178 16.2987 8.70187C16.4448 8.83199 16.6686 8.81906 16.7987 8.67297C17.5147 7.86912 17.909 6.83265 17.909 5.7546C17.909 3.13284 15.8739 1.09131 13.26 1.09131Z" fill="white"/>
</svg>
