<svg viewBox="0 0 19 19" fill="none" xmlns="http://www.w3.org/2000/svg">
<path d="M9.65653 12.0815C8.61656 12.0815 7.86133 12.8367 7.86133 13.8767C7.86133 14.9168 8.61648 15.672 9.65653 15.672C10.6966 15.672 11.4517 14.9168 11.4517 13.8767C11.4517 12.8367 10.6965 12.0815 9.65653 12.0815ZM9.65653 14.8199C9.1866 14.8199 8.71328 14.3467 8.71328 13.8767C8.71328 13.4066 9.18651 12.9334 9.65653 12.9334C10.1266 12.9334 10.5998 13.4066 10.5998 13.8767C10.5998 14.3467 10.1265 14.8199 9.65653 14.8199Z" fill="white"/>
<path d="M9.65577 3.41895C6.30687 3.41895 3.29624 4.84731 1.29201 7.54571C1.12472 7.7709 0.96435 8.09412 1.18092 8.27245C1.27801 8.35248 1.39448 8.39099 1.50983 8.39099C1.66826 8.39099 1.82462 8.31836 1.92601 8.18122C3.73511 5.73273 6.62484 4.2709 9.65585 4.2709C12.5251 4.2709 15.2676 5.58086 17.0868 7.7976C17.2603 8.00909 17.5706 8.04475 17.7905 7.88219C18.0298 7.70533 17.8874 7.36471 17.6984 7.13487C15.6838 4.68475 12.831 3.41895 9.65577 3.41895Z" fill="white"/>
<path d="M9.65639 6.28076C7.00296 6.28076 4.73096 7.43139 3.2742 9.6633C3.11819 9.90236 3.00365 10.2227 3.24271 10.3787C3.4816 10.5348 3.80207 10.4675 3.95808 10.2283C5.22324 8.29002 7.3535 7.13271 9.65639 7.13271C11.9593 7.13271 14.0895 8.28993 15.3547 10.2283C15.4539 10.3802 15.6193 10.4627 15.788 10.4627C15.8849 10.4627 15.9829 10.4356 16.0701 10.3787C16.3091 10.2227 16.1946 9.90236 16.0386 9.6633C14.5818 7.43139 12.3097 6.28076 9.65639 6.28076Z" fill="white"/>
<path d="M9.65565 8.78906C7.70277 8.78906 6.06835 9.92638 5.21264 11.6819C5.10866 11.8899 4.97483 12.1432 5.14764 12.2988C5.35974 12.4897 5.68658 12.4726 5.87765 12.2604C5.91797 12.2156 5.94898 12.1656 5.97095 12.113C6.66211 10.7207 8.10508 9.64101 9.65565 9.64101C11.2045 9.64101 12.6462 10.7189 13.3404 12.1131C13.3623 12.1657 13.3933 12.2155 13.4336 12.2603C13.5357 12.3737 13.6766 12.4314 13.818 12.4314C13.9412 12.4314 14.0648 12.3876 14.1637 12.2987C14.3351 12.1444 14.202 11.8938 14.101 11.6865C13.2429 9.92638 11.6085 8.78906 9.65565 8.78906Z" fill="white"/>
</svg>
