<svg width="33" height="33" viewBox="0 0 33 33" fill="none" xmlns="http://www.w3.org/2000/svg">
<rect width="33" height="33" rx="5" fill="url(#paint0_linear_1526_243)"/>
<g clip-path="url(#clip0_1526_243)">
<path d="M25.8426 24.7013L21.093 19.7758C23.4221 16.6973 23.1938 12.198 20.4536 9.4037C19.0378 7.93551 17.1197 7.08301 15.0646 7.08301C13.0094 7.08301 11.137 7.88815 9.72121 9.4037C8.25978 10.8719 7.4834 12.8611 7.4834 14.945C7.4834 17.0288 8.25978 19.018 9.72121 20.5336C11.137 22.0018 13.0551 22.8543 15.1102 22.8543C16.8 22.8543 18.4441 22.2859 19.7685 21.1966L24.5182 26.1222C24.7009 26.3116 24.9292 26.4063 25.2032 26.4063C25.4772 26.4063 25.7056 26.3116 25.8883 26.1222C26.208 25.7433 26.208 25.0802 25.8426 24.7013ZM11.0456 19.1127C9.99523 18.0234 9.40152 16.5079 9.40152 14.945C9.40152 13.382 9.99523 11.9138 11.0456 10.7772C12.1417 9.68787 13.5575 9.07217 15.0646 9.07217C16.5717 9.07217 17.9874 9.68787 19.0835 10.7772C21.2756 13.0979 21.2756 16.792 19.0835 19.1127C18.0331 20.202 16.5717 20.8177 15.0646 20.8177C13.5575 20.8651 12.1417 20.2494 11.0456 19.1127Z" fill="white"/>
</g>
<defs>
<linearGradient id="paint0_linear_1526_243" x1="0" y1="0" x2="33" y2="33" gradientUnits="userSpaceOnUse">
<stop stop-color="#D38BFF"/>
<stop offset="1" stop-color="#745EFF"/>
<stop offset="1" stop-color="#6D73FF"/>
</linearGradient>
<clipPath id="clip0_1526_243">
<rect width="19.8" height="19.8" fill="white" transform="translate(6.59961 6.6001)"/>
</clipPath>
</defs>
</svg>
