<svg width="28" height="28" viewBox="0 0 28 28" fill="none" xmlns="http://www.w3.org/2000/svg">
<g clip-path="url(#clip0_2165_6)">
<path d="M10.5903 23.0654H1.3271C0.594178 23.0654 0 23.6596 0 24.3925V26.3369C0 27.0699 0.594178 27.664 1.3271 27.664H14.1924C12.611 26.5625 11.3282 24.99 10.5903 23.0654Z" fill="#D3D3D3"/>
<path d="M10.7905 15.4888H3.7353C3.00238 15.4888 2.4082 16.0829 2.4082 16.8159V18.7603C2.4082 19.4932 3.00238 20.0874 3.7353 20.0874H9.95288C9.86926 18.5988 10.108 17.0966 10.7165 15.6578C10.7405 15.601 10.7655 15.5449 10.7905 15.4888Z" fill="#D3D3D3"/>
<path d="M15.0067 7.9126H1.85054C1.11762 7.9126 0.523438 8.50678 0.523438 9.2397V11.1841C0.523438 11.917 1.11762 12.5112 1.85054 12.5112H12.8363C12.838 12.5095 12.8397 12.5076 12.8415 12.5058C13.8073 11.54 14.9737 10.7623 16.3338 10.2451V9.2397C16.3338 8.50678 15.7397 7.9126 15.0067 7.9126Z" fill="#D3D3D3"/>
<path d="M16.0497 0.335938H2.89351C2.16058 0.335938 1.56641 0.930116 1.56641 1.66304V3.60745C1.56641 4.34031 2.16058 4.93455 2.89351 4.93455H16.0497C16.7826 4.93455 17.3768 4.34037 17.3768 3.60745V1.66304C17.3768 0.930116 16.7827 0.335938 16.0497 0.335938Z" fill="#D3D3D3"/>
<path d="M18.6504 17.3413C18.6504 17.6986 18.9707 17.9203 19.4389 18.1175V16.6514C18.8845 16.7623 18.6504 17.0457 18.6504 17.3413Z" fill="#D3D3D3"/>
<path d="M20.1289 20.397V22.0479C20.5479 21.9494 20.8805 21.7153 20.8805 21.2717C20.8805 20.8652 20.5724 20.6064 20.1289 20.397Z" fill="#D3D3D3"/>
<path d="M19.8556 11.375C15.3574 11.375 11.7109 15.0215 11.7109 19.5196C11.7109 24.0178 15.3574 27.6643 19.8556 27.6643C24.3538 27.6643 28.0002 24.0178 28.0002 19.5196C28.0002 15.0214 24.3537 11.375 19.8556 11.375ZM20.2519 23.7604V24.1178C20.2519 24.2902 20.0178 24.4504 19.7837 24.4504C19.5128 24.4504 19.3156 24.2902 19.3156 24.1178V23.8098C17.8372 23.7604 16.6297 22.9967 16.6297 22.2081C16.6297 21.7892 16.9994 21.1732 17.4676 21.1732C17.985 21.1732 18.4039 21.9001 19.3156 22.0603V20.0644C18.1822 19.6332 16.8515 19.1034 16.8515 17.5264C16.8515 15.9617 18.0096 15.2102 19.3156 15.0254V14.6805C19.3156 14.508 19.5128 14.3479 19.7837 14.3479C20.0178 14.3479 20.2519 14.508 20.2519 14.6805V14.9885C21.0158 15.0131 22.4572 15.2103 22.4572 16.0603C22.4572 16.393 22.2355 17.0706 21.6934 17.0706C21.2868 17.0706 21.0527 16.6764 20.2519 16.6148V18.4135C21.373 18.8325 22.679 19.4115 22.679 21.0747C22.679 22.6024 21.6935 23.5264 20.2519 23.7604Z" fill="#D3D3D3"/>
</g>
<defs>
<clipPath id="clip0_2165_6">
<rect width="28" height="28" fill="white"/>
</clipPath>
</defs>
</svg>
