<svg width="21" height="20" viewBox="0 0 21 20" fill="none" xmlns="http://www.w3.org/2000/svg">
<g clip-path="url(#clip0_2489_2)">
<path d="M9.69819 9.40607C9.88211 9.24782 10.143 9.14517 10.4852 9.1195V11.0827C10.066 10.9501 9.77946 10.7962 9.6212 10.6635C9.46295 10.5053 9.38596 10.3213 9.38596 10.0604C9.41162 9.79957 9.51427 9.58999 9.69819 9.40607ZM17.3671 3.09726C17.025 1.83978 16.0327 1.36929 14.8821 1.6858L4.72385 4.40607H17.7093L17.3671 3.09726ZM20.7461 7.65244V16.395C20.7461 17.5198 19.8564 18.4095 18.7316 18.4095H2.76064C1.63574 18.4095 0.746094 17.5198 0.746094 16.395V7.65244C0.746094 6.52755 1.63574 5.6379 2.76064 5.6379H18.7273C19.8308 5.63785 20.7461 6.55321 20.7461 7.65244ZM13.7829 13.619C13.7829 12.9646 13.5733 12.4685 13.1541 12.1006C12.735 11.7328 12.1062 11.4719 11.2423 11.288H11.2166V9.16647C11.794 9.24346 12.3415 9.4787 12.8376 9.82087L13.569 8.77297C12.8376 8.27682 12.0506 7.98597 11.2123 7.93465V7.35723H10.4809V7.90898C9.74952 7.93465 9.1721 8.16989 8.70161 8.58905C8.25679 9.00821 8.02154 9.53003 8.02154 10.1844C8.02154 10.8388 8.23112 11.335 8.62462 11.6515C9.01812 11.9937 9.64686 12.2547 10.4852 12.4642V14.6626C9.80512 14.56 9.17638 14.2178 8.52197 13.666L7.68365 14.6626C8.49631 15.3683 9.43728 15.7875 10.4595 15.8944V16.7328H11.1909V15.9202C11.9479 15.8944 12.5766 15.6592 13.0515 15.2401C13.5476 14.7996 13.7829 14.2735 13.7829 13.619ZM11.2166 12.6524V14.6926C11.5845 14.6669 11.871 14.56 12.0806 14.3804C12.2901 14.1964 12.3928 13.9869 12.3928 13.7259C12.3928 13.465 12.3158 13.2554 12.1576 13.0972C11.9779 12.939 11.6871 12.785 11.2166 12.6524Z" fill="#D3D3D3"/>
</g>
<defs>
<clipPath id="clip0_2489_2">
<rect width="20" height="20" fill="white" transform="translate(0.746094)"/>
</clipPath>
</defs>
</svg>
