<svg width="30" height="30" viewBox="0 0 30 30" fill="none" xmlns="http://www.w3.org/2000/svg">
<g clip-path="url(#clip0_2120_2)">
<path d="M6.02927 0.0490112C6.44212 0.0490112 6.7768 0.383691 6.7768 0.796549V3.0392H23.2229V0.796549C23.2229 0.383691 23.5576 0.0490112 23.9704 0.0490112C24.3832 0.0490112 24.7179 0.383691 24.7179 0.796549V3.0392H26.9606C28.6121 3.0392 29.9508 4.37795 29.9508 6.02938V26.9607C29.9508 28.6122 28.6121 29.9509 26.9606 29.9509H3.03901C1.38758 29.9509 0.0488281 28.6122 0.0488281 26.9607V6.02938C0.0488281 4.37795 1.38758 3.0392 3.03901 3.0392H5.28166V0.796549C5.28166 0.383691 5.61634 0.0490112 6.0292 0.0490112H6.02927ZM23.2229 4.5343H6.77684V6.77695C6.77684 7.18981 6.44216 7.52449 6.0293 7.52449C5.61644 7.52449 5.28176 7.18981 5.28176 6.77695V4.5343H3.03912C2.2134 4.5343 1.54401 5.2037 1.54401 6.02941V10.5147H28.4558V6.02941C28.4558 5.2037 27.7864 4.5343 26.9607 4.5343H24.718V6.77695C24.718 7.18981 24.3833 7.52449 23.9705 7.52449C23.5577 7.52449 23.2229 7.18981 23.2229 6.77695V4.5343H23.2229ZM1.54397 12.0098V26.9608C1.54397 27.7866 2.21337 28.4559 3.03908 28.4559H26.9607C27.7864 28.4559 28.4558 27.7866 28.4558 26.9608V12.0098H1.54401H1.54397ZM5.28173 16.4951C5.28173 16.9079 5.61641 17.2426 6.02927 17.2426H23.9704C24.3832 17.2426 24.718 16.9079 24.718 16.4951C24.718 16.0823 24.3832 15.7476 23.9704 15.7476H6.02927C5.61641 15.7476 5.28173 16.0823 5.28173 16.4951ZM6.02927 19.4853H17.2425C17.6553 19.4853 17.99 19.82 17.99 20.2328C17.99 20.6456 17.6553 20.9804 17.2425 20.9804H6.02927C5.61641 20.9804 5.28173 20.6456 5.28173 20.2328C5.28173 19.82 5.61641 19.4853 6.02927 19.4853Z" fill="#ADADAD"/>
</g>
<defs>
<clipPath id="clip0_2120_2">
<rect width="30" height="30" fill="white"/>
</clipPath>
</defs>
</svg>
