<svg width="30" height="30" viewBox="0 0 30 30" fill="none" xmlns="http://www.w3.org/2000/svg">
<g clip-path="url(#clip0_2169_2)">
<path d="M15 30C12.0333 30 9.13319 29.1203 6.66645 27.472C4.19972 25.8238 2.27713 23.4811 1.14181 20.7403C0.00649917 17.9994 -0.290551 14.9834 0.288228 12.0737C0.867006 9.16394 2.29562 6.49119 4.3934 4.3934C6.49119 2.29562 9.16394 0.867006 12.0737 0.288228C14.9834 -0.290551 17.9994 0.00649917 20.7403 1.14181C23.4811 2.27713 25.8238 4.19972 27.472 6.66645C29.1203 9.13319 30 12.0333 30 15C30 18.9783 28.4197 22.7936 25.6066 25.6066C22.7936 28.4197 18.9783 30 15 30ZM15 2.82052C12.4897 2.82052 10.5486 3.43671 8.46136 4.83135C6.37412 6.226 4.74731 7.82365 3.78666 10.1429C2.82601 12.4621 2.57466 15.0141 3.0644 17.4762C3.55413 19.9382 4.63475 21.8152 6.40981 23.5902C8.18486 25.3653 10.0618 26.4459 12.5239 26.9356C14.9859 27.4253 17.5379 27.174 19.8571 26.2133C22.1764 25.2527 23.774 24.0105 25.1687 21.9233C26.5633 19.836 27.1795 17.3821 27.1795 14.8718C27.1795 11.5056 25.7141 8.53366 23.3338 6.15339C20.9535 3.77313 18.3662 2.82052 15 2.82052Z" fill="#D3D3D3"/>
<path d="M13.2689 21.6925C13.1172 21.6911 12.9672 21.6598 12.8277 21.6004C12.6881 21.541 12.4134 21.5187 12.3073 21.4104L7.14771 16.0444C6.95944 15.823 6.78231 15.4187 6.79454 15.1283C6.80678 14.838 6.94148 14.4357 7.14771 14.2309C7.35394 14.0261 7.91425 13.9206 8.2047 13.9104C8.49515 13.9002 9.07317 14.2334 9.29322 14.4232L14.0823 19.2123C14.2427 19.3737 14.3518 20.0917 14.396 20.3148C14.4401 20.538 14.4172 20.7693 14.3303 20.9795C14.2434 21.1898 14.0962 21.3696 13.9074 21.4965C13.7185 21.6233 13.4964 21.6915 13.2689 21.6925Z" fill="#D3D3D3"/>
<path d="M13.269 21.6924C13.0403 21.6926 12.8181 21.7275 12.628 21.6004C12.4379 21.4732 12.0101 21.1731 11.9229 20.9617C11.8358 20.7502 11.8776 20.4166 11.9229 20.1924C11.9682 19.9683 12.165 19.3676 12.3274 19.2066L20.7062 10.8335C20.9227 10.4888 21.4885 10.3848 21.7947 10.3848C22.1009 10.3848 22.6038 10.5529 22.8203 10.7694C23.0368 10.9859 23.205 11.4247 23.205 11.7309C23.205 12.0371 23.0682 12.3779 22.8517 12.5944L14.0825 21.3463C13.9763 21.4546 13.8498 21.541 13.7102 21.6004C13.5706 21.6598 13.4207 21.6911 13.269 21.6924Z" fill="#D3D3D3"/>
</g>
<defs>
<clipPath id="clip0_2169_2">
<rect width="30" height="30" fill="white"/>
</clipPath>
</defs>
</svg>
