<svg width="31" height="31" viewBox="0 0 31 31" fill="none" xmlns="http://www.w3.org/2000/svg">
<path d="M3.32129 3.75021C3.32129 3.13875 3.81698 2.64307 4.42843 2.64307H26.5713C27.1828 2.64307 27.6784 3.13875 27.6784 3.75021C27.6784 4.36167 27.1828 4.85735 26.5713 4.85735H4.42843C3.81698 4.85735 3.32129 4.36167 3.32129 3.75021Z" fill="white"/>
<path d="M3.32129 13.5002C3.32129 12.8887 3.81698 12.3931 4.42843 12.3931H26.5713C27.1828 12.3931 27.6784 12.8887 27.6784 13.5002C27.6784 14.1117 27.1828 14.6074 26.5713 14.6074H4.42843C3.81698 14.6074 3.32129 14.1117 3.32129 13.5002Z" fill="white"/>
<path d="M4.42843 22.1431C3.81698 22.1431 3.32129 22.6387 3.32129 23.2502C3.32129 23.8617 3.81698 24.3574 4.42843 24.3574H26.5713C27.1828 24.3574 27.6784 23.8617 27.6784 23.2502C27.6784 22.6387 27.1828 22.1431 26.5713 22.1431H4.42843Z" fill="white"/>
</svg>
