<svg width="29" height="29" viewBox="0 0 29 29" fill="none" xmlns="http://www.w3.org/2000/svg">
<g clip-path="url(#clip0_2040_498)">
<path d="M26.2813 9.0625H21.75V10.875C21.75 10.875 21.75 12.76 21.46 13.92C21.17 15.08 19.9375 16.3125 19.9375 16.3125V18.125H22.6563V20.0662C21.802 20.2868 21.0575 20.8113 20.5623 21.5416C20.0671 22.2718 19.8552 23.1576 19.9664 24.0328C20.0776 24.9081 20.5042 25.7128 21.1662 26.296C21.8282 26.8793 22.6802 27.2011 23.5625 27.2011C24.4448 27.2011 25.2968 26.8793 25.9588 26.296C26.6209 25.7128 27.0474 24.9081 27.1586 24.0328C27.2698 23.1576 27.0579 22.2718 26.5627 21.5416C26.0676 20.8113 25.323 20.2868 24.4688 20.0662V18.125H26.2813C26.7618 18.1244 27.2224 17.9332 27.5622 17.5934C27.9019 17.2536 28.0931 16.793 28.0938 16.3125V10.875C28.0932 10.3945 27.9021 9.93377 27.5623 9.59398C27.2225 9.25419 26.7618 9.06305 26.2813 9.0625Z" fill="#D3D3D3"/>
<path d="M17.2188 5.4375H12.6875V7.25C12.6875 7.25 12.76 9.28 12.18 10.44C11.6 11.6 10.875 12.6875 10.875 12.6875V14.5H13.5938V20.0662C12.7395 20.2868 11.995 20.8113 11.4998 21.5416C11.0046 22.2718 10.7927 23.1576 10.9039 24.0328C11.0151 24.9081 11.4417 25.7128 12.1037 26.296C12.7657 26.8793 13.6177 27.2011 14.5 27.2011C15.3823 27.2011 16.2343 26.8793 16.8963 26.296C17.5584 25.7128 17.9849 24.9081 18.0961 24.0328C18.2073 23.1576 17.9954 22.2718 17.5002 21.5416C17.0051 20.8113 16.2605 20.2868 15.4063 20.0662V14.5H17.2188C17.6993 14.4994 18.16 14.3083 18.4998 13.9685C18.8396 13.6287 19.0307 13.168 19.0313 12.6875V7.25C19.0307 6.76946 18.8396 6.30877 18.4998 5.96898C18.16 5.62919 17.6993 5.43805 17.2188 5.4375Z" fill="#D3D3D3"/>
<path d="M8.15625 1.8125H2.71875C2.23819 1.81298 1.77745 2.00409 1.43765 2.3439C1.09784 2.6837 0.90673 3.14444 0.90625 3.625V9.0625C0.90673 9.54306 1.09784 10.0038 1.43765 10.3436C1.77745 10.6834 2.23819 10.8745 2.71875 10.875H4.53125V20.0662C3.67697 20.2868 2.93245 20.8113 2.43727 21.5416C1.94208 22.2718 1.73022 23.1576 1.84139 24.0328C1.95257 24.9081 2.37914 25.7128 3.04116 26.296C3.70319 26.8793 4.5552 27.2011 5.4375 27.2011C6.3198 27.2011 7.17181 26.8793 7.83384 26.296C8.49586 25.7128 8.92243 24.9081 9.03361 24.0328C9.14478 23.1576 8.93292 22.2718 8.43773 21.5416C7.94255 20.8113 7.19803 20.2868 6.34375 20.0662V10.875H8.15625C8.63681 10.8745 9.09754 10.6834 9.43735 10.3436C9.77716 10.0038 9.96827 9.54306 9.96875 9.0625V3.625C9.96827 3.14444 9.77716 2.6837 9.43735 2.3439C9.09754 2.00409 8.63681 1.81298 8.15625 1.8125Z" fill="#D3D3D3"/>
</g>
<defs>
<clipPath id="clip0_2040_498">
<rect width="29" height="29" fill="white"/>
</clipPath>
</defs>
</svg>
