<svg width="29" height="29" viewBox="0 0 29 29" fill="none" xmlns="http://www.w3.org/2000/svg">
<path d="M27.0423 13.2913L15.4173 1.66625C15.2973 1.54519 15.1544 1.44909 14.997 1.38352C14.8396 1.31794 14.6708 1.28418 14.5003 1.28418C14.3297 1.28418 14.1609 1.31794 14.0035 1.38352C13.8461 1.44909 13.7033 1.54519 13.5832 1.66625L1.95818 13.2913C1.77895 13.4729 1.65754 13.7035 1.60926 13.9541C1.56099 14.2047 1.58801 14.4639 1.68693 14.6992C1.78383 14.9351 1.94838 15.137 2.15986 15.2795C2.37133 15.422 2.62025 15.4987 2.87526 15.5H4.16693V27.125C4.16693 27.4676 4.30301 27.7961 4.54525 28.0384C4.78748 28.2806 5.11602 28.4167 5.45859 28.4167H9.33359C9.67617 28.4167 10.0047 28.2806 10.2469 28.0384C10.4892 27.7961 10.6253 27.4676 10.6253 27.125V19.375C10.6253 19.0324 10.7613 18.7039 11.0036 18.4617C11.2458 18.2194 11.5744 18.0833 11.9169 18.0833H17.0836C17.4262 18.0833 17.7547 18.2194 17.9969 18.4617C18.2392 18.7039 18.3753 19.0324 18.3753 19.375V27.125C18.3753 27.4676 18.5113 27.7961 18.7536 28.0384C18.9958 28.2806 19.3244 28.4167 19.6669 28.4167H23.5419C23.8845 28.4167 24.213 28.2806 24.4553 28.0384C24.6975 27.7961 24.8336 27.4676 24.8336 27.125V15.5H26.1253C26.3803 15.4987 26.6292 15.422 26.8407 15.2795C27.0521 15.137 27.2167 14.9351 27.3136 14.6992C27.4125 14.4639 27.4395 14.2047 27.3913 13.9541C27.343 13.7035 27.2216 13.4729 27.0423 13.2913Z" fill="#D3D3D3"/>
</svg>
