<svg width="131" height="14" viewBox="0 0 131 14" fill="none" xmlns="http://www.w3.org/2000/svg">
<path d="M0.134 13V0.399999H2.618L8.882 8.536V0.399999H11.33V13H9.026L2.6 4.576V13H0.134ZM13.6164 13V0.399999H23.3004V2.668H16.2264V5.548H20.8884V7.744H16.2264V10.732H23.3724V13H13.6164ZM25.218 13V0.399999H27.828V6.034L33.336 0.399999H36.522L30.402 6.394L36.81 13H33.318L27.828 7.15V13H25.218ZM43.6439 13.198C42.7079 13.198 41.8379 13.036 41.0339 12.712C40.2299 12.376 39.5219 11.914 38.9099 11.326C38.3099 10.726 37.8359 10.036 37.4879 9.256C37.1519 8.464 36.9839 7.612 36.9839 6.7C36.9839 5.788 37.1519 4.942 37.4879 4.162C37.8359 3.37 38.3099 2.68 38.9099 2.092C39.5219 1.492 40.2299 1.03 41.0339 0.705999C41.8379 0.37 42.7079 0.202 43.6439 0.202C44.5799 0.202 45.4499 0.37 46.2539 0.705999C47.0699 1.03 47.7779 1.492 48.3779 2.092C48.9899 2.68 49.4639 3.37 49.7999 4.162C50.1359 4.942 50.3039 5.788 50.3039 6.7C50.3039 7.612 50.1359 8.464 49.7999 9.256C49.4639 10.036 48.9899 10.726 48.3779 11.326C47.7779 11.914 47.0699 12.376 46.2539 12.712C45.4499 13.036 44.5799 13.198 43.6439 13.198ZM43.6439 10.804C44.2199 10.804 44.7479 10.702 45.2279 10.498C45.7079 10.282 46.1279 9.994 46.4879 9.634C46.8479 9.262 47.1299 8.824 47.3339 8.32C47.5379 7.816 47.6399 7.276 47.6399 6.7C47.6399 6.112 47.5379 5.572 47.3339 5.08C47.1299 4.576 46.8479 4.144 46.4879 3.784C46.1279 3.412 45.7079 3.124 45.2279 2.92C44.7479 2.704 44.2199 2.596 43.6439 2.596C43.0799 2.596 42.5579 2.704 42.0779 2.92C41.5979 3.124 41.1779 3.412 40.8179 3.784C40.4579 4.144 40.1759 4.576 39.9719 5.08C39.7679 5.572 39.6659 6.106 39.6659 6.682C39.6659 7.27 39.7679 7.816 39.9719 8.32C40.1759 8.824 40.4579 9.262 40.8179 9.634C41.1779 9.994 41.5979 10.282 42.0779 10.498C42.5579 10.702 43.0799 10.804 43.6439 10.804ZM55.7336 13V0.399999H61.6556C62.5076 0.399999 63.2516 0.543999 63.8876 0.831999C64.5236 1.12 65.0216 1.528 65.3816 2.056C65.7416 2.572 65.9216 3.172 65.9216 3.856C65.9216 4.408 65.7776 4.918 65.4896 5.386C65.2136 5.842 64.8356 6.214 64.3556 6.502C64.9676 6.79 65.4536 7.18 65.8136 7.672C66.1736 8.164 66.3536 8.722 66.3536 9.346C66.3536 10.066 66.1676 10.702 65.7956 11.254C65.4356 11.806 64.9196 12.238 64.2476 12.55C63.5876 12.85 62.8196 13 61.9436 13H55.7336ZM58.3436 5.548H61.4936C62.0576 5.548 62.5016 5.416 62.8256 5.152C63.1616 4.876 63.3296 4.51 63.3296 4.054C63.3296 3.598 63.1616 3.238 62.8256 2.974C62.5016 2.698 62.0576 2.56 61.4936 2.56H58.3436V5.548ZM58.3436 10.84H61.7456C62.3456 10.84 62.8256 10.696 63.1856 10.408C63.5456 10.108 63.7256 9.712 63.7256 9.22C63.7256 8.716 63.5456 8.32 63.1856 8.032C62.8256 7.732 62.3456 7.582 61.7456 7.582H58.3436V10.84ZM73.5609 13.18C72.4209 13.18 71.4309 12.952 70.5909 12.496C69.7629 12.04 69.1209 11.392 68.6649 10.552C68.2089 9.7 67.9809 8.704 67.9809 7.564V0.399999H70.5909V7.564C70.5909 8.212 70.7109 8.782 70.9509 9.274C71.2029 9.754 71.5509 10.126 71.9949 10.39C72.4509 10.642 72.9789 10.768 73.5789 10.768C74.1789 10.768 74.7009 10.642 75.1449 10.39C75.5889 10.126 75.9309 9.754 76.1709 9.274C76.4229 8.782 76.5489 8.212 76.5489 7.564V0.399999H79.1409V7.564C79.1409 8.692 78.9129 9.682 78.4569 10.534C78.0009 11.374 77.3529 12.028 76.5129 12.496C75.6849 12.952 74.7009 13.18 73.5609 13.18ZM83.8319 10.678H86.0279C86.5919 10.678 87.1139 10.582 87.5939 10.39C88.0859 10.186 88.5119 9.904 88.8719 9.544C89.2439 9.184 89.5259 8.764 89.7179 8.284C89.9219 7.804 90.0239 7.282 90.0239 6.718C90.0239 6.154 89.9219 5.632 89.7179 5.152C89.5139 4.66 89.2319 4.234 88.8719 3.874C88.5119 3.514 88.0859 3.232 87.5939 3.028C87.1139 2.824 86.5919 2.722 86.0279 2.722H83.8319V10.678ZM81.2219 13V0.399999H86.0639C87.0119 0.399999 87.8879 0.561999 88.6919 0.885999C89.4959 1.198 90.1979 1.642 90.7979 2.218C91.3979 2.794 91.8659 3.466 92.2019 4.234C92.5499 5.002 92.7239 5.83 92.7239 6.718C92.7239 7.618 92.5559 8.446 92.2199 9.202C91.8839 9.958 91.4099 10.624 90.7979 11.2C90.1979 11.764 89.4959 12.208 88.6919 12.532C87.8879 12.844 87.0119 13 86.0639 13H81.2219ZM100.703 13.198C99.767 13.198 98.897 13.036 98.093 12.712C97.289 12.376 96.581 11.914 95.969 11.326C95.357 10.726 94.877 10.036 94.529 9.256C94.193 8.464 94.025 7.612 94.025 6.7C94.025 5.788 94.193 4.942 94.529 4.162C94.877 3.37 95.351 2.68 95.951 2.092C96.551 1.492 97.253 1.03 98.057 0.705999C98.873 0.37 99.743 0.202 100.667 0.202C101.711 0.202 102.695 0.411999 103.619 0.831999C104.543 1.24 105.305 1.816 105.905 2.56L104.087 4.234C103.655 3.694 103.145 3.286 102.557 3.01C101.969 2.734 101.339 2.596 100.667 2.596C100.103 2.596 99.581 2.704 99.101 2.92C98.621 3.124 98.201 3.412 97.841 3.784C97.481 4.144 97.199 4.576 96.995 5.08C96.803 5.572 96.707 6.112 96.707 6.7C96.707 7.288 96.809 7.834 97.013 8.338C97.217 8.842 97.499 9.28 97.859 9.652C98.231 10.012 98.657 10.3 99.137 10.516C99.629 10.72 100.163 10.822 100.739 10.822C101.339 10.822 101.879 10.714 102.359 10.498C102.839 10.27 103.241 9.958 103.565 9.562C103.901 9.154 104.123 8.698 104.231 8.194H100.505V5.926H107.021V6.718C107.021 7.654 106.859 8.518 106.535 9.31C106.223 10.09 105.785 10.774 105.221 11.362C104.657 11.938 103.991 12.388 103.223 12.712C102.455 13.036 101.615 13.198 100.703 13.198ZM108.802 13V0.399999H118.486V2.668H111.412V5.548H116.074V7.744H111.412V10.732H118.558V13H108.802ZM123.842 13V2.704H119.594V0.399999H130.682V2.704H126.452V13H123.842Z" fill="white"/>
</svg>
