<svg width="221" height="60" viewBox="0 0 221 60" fill="none" xmlns="http://www.w3.org/2000/svg">
<path d="M70.008 39V27.8H75.272C76.0293 27.8 76.6907 27.928 77.256 28.184C77.8213 28.44 78.264 28.8027 78.584 29.272C78.904 29.7307 79.064 30.264 79.064 30.872C79.064 31.3627 78.936 31.816 78.68 32.232C78.4347 32.6373 78.0987 32.968 77.672 33.224C78.216 33.48 78.648 33.8267 78.968 34.264C79.288 34.7013 79.448 35.1973 79.448 35.752C79.448 36.392 79.2827 36.9573 78.952 37.448C78.632 37.9387 78.1733 38.3227 77.576 38.6C76.9893 38.8667 76.3067 39 75.528 39H70.008ZM72.328 32.376H75.128C75.6293 32.376 76.024 32.2587 76.312 32.024C76.6107 31.7787 76.76 31.4533 76.76 31.048C76.76 30.6427 76.6107 30.3227 76.312 30.088C76.024 29.8427 75.6293 29.72 75.128 29.72H72.328V32.376ZM72.328 37.08H75.352C75.8853 37.08 76.312 36.952 76.632 36.696C76.952 36.4293 77.112 36.0773 77.112 35.64C77.112 35.192 76.952 34.84 76.632 34.584C76.312 34.3173 75.8853 34.184 75.352 34.184H72.328V37.08ZM85.8545 39.16C84.8412 39.16 83.9612 38.9573 83.2145 38.552C82.4785 38.1467 81.9078 37.5707 81.5025 36.824C81.0972 36.0667 80.8945 35.1813 80.8945 34.168V27.8H83.2145V34.168C83.2145 34.744 83.3212 35.2507 83.5345 35.688C83.7585 36.1147 84.0678 36.4453 84.4625 36.68C84.8678 36.904 85.3372 37.016 85.8705 37.016C86.4038 37.016 86.8678 36.904 87.2625 36.68C87.6572 36.4453 87.9612 36.1147 88.1745 35.688C88.3985 35.2507 88.5105 34.744 88.5105 34.168V27.8H90.8145V34.168C90.8145 35.1707 90.6118 36.0507 90.2065 36.808C89.8012 37.5547 89.2252 38.136 88.4785 38.552C87.7425 38.9573 86.8678 39.16 85.8545 39.16ZM94.9843 36.936H96.9363C97.4376 36.936 97.9016 36.8507 98.3283 36.68C98.7656 36.4987 99.1443 36.248 99.4643 35.928C99.7949 35.608 100.046 35.2347 100.216 34.808C100.398 34.3813 100.488 33.9173 100.488 33.416C100.488 32.9147 100.398 32.4507 100.216 32.024C100.035 31.5867 99.7843 31.208 99.4643 30.888C99.1443 30.568 98.7656 30.3173 98.3283 30.136C97.9016 29.9547 97.4376 29.864 96.9363 29.864H94.9843V36.936ZM92.6643 39V27.8H96.9683C97.8109 27.8 98.5896 27.944 99.3043 28.232C100.019 28.5093 100.643 28.904 101.176 29.416C101.71 29.928 102.126 30.5253 102.424 31.208C102.734 31.8907 102.888 32.6267 102.888 33.416C102.888 34.216 102.739 34.952 102.44 35.624C102.142 36.296 101.72 36.888 101.176 37.4C100.643 37.9013 100.019 38.296 99.3043 38.584C98.5896 38.8613 97.8109 39 96.9683 39H92.6643ZM109.981 39.176C109.149 39.176 108.375 39.032 107.661 38.744C106.946 38.4453 106.317 38.0347 105.773 37.512C105.229 36.9787 104.802 36.3653 104.493 35.672C104.194 34.968 104.045 34.2107 104.045 33.4C104.045 32.5893 104.194 31.8373 104.493 31.144C104.802 30.44 105.223 29.8267 105.757 29.304C106.29 28.7707 106.914 28.36 107.629 28.072C108.354 27.7733 109.127 27.624 109.949 27.624C110.877 27.624 111.751 27.8107 112.573 28.184C113.394 28.5467 114.071 29.0587 114.605 29.72L112.989 31.208C112.605 30.728 112.151 30.3653 111.629 30.12C111.106 29.8747 110.546 29.752 109.949 29.752C109.447 29.752 108.983 29.848 108.557 30.04C108.13 30.2213 107.757 30.4773 107.437 30.808C107.117 31.128 106.866 31.512 106.685 31.96C106.514 32.3973 106.429 32.8773 106.429 33.4C106.429 33.9227 106.519 34.408 106.701 34.856C106.882 35.304 107.133 35.6933 107.453 36.024C107.783 36.344 108.162 36.6 108.589 36.792C109.026 36.9733 109.501 37.064 110.013 37.064C110.546 37.064 111.026 36.968 111.453 36.776C111.879 36.5733 112.237 36.296 112.525 35.944C112.823 35.5813 113.021 35.176 113.117 34.728H109.805V32.712H115.597V33.416C115.597 34.248 115.453 35.016 115.165 35.72C114.887 36.4133 114.498 37.0213 113.997 37.544C113.495 38.056 112.903 38.456 112.221 38.744C111.538 39.032 110.791 39.176 109.981 39.176ZM117.18 39V27.8H125.788V29.816H119.5V32.376H123.644V34.328H119.5V36.984H125.852V39H117.18ZM130.548 39V29.848H126.772V27.8H136.628V29.848H132.868V39H130.548ZM141.149 39V27.8H146.765C147.501 27.8 148.146 27.9493 148.701 28.248C149.266 28.5467 149.709 28.9627 150.029 29.496C150.349 30.0187 150.509 30.6267 150.509 31.32C150.509 31.9813 150.349 32.5733 150.029 33.096C149.709 33.6187 149.266 34.0293 148.701 34.328C148.135 34.6267 147.49 34.776 146.765 34.776H143.469V39H141.149ZM143.469 32.856H146.509C147.01 32.856 147.41 32.7173 147.709 32.44C148.018 32.1627 148.173 31.7947 148.173 31.336C148.173 30.8667 148.018 30.4933 147.709 30.216C147.41 29.9387 147.01 29.8 146.509 29.8H143.469V32.856ZM152.039 39V27.8H154.359V36.952H160.487V39H152.039ZM161.248 39L165.857 27.8H168.529L173.089 39H170.577L169.441 36.056H164.817L163.664 39H161.248ZM165.536 34.2H168.737L167.137 30.072L165.536 34.2ZM174.039 39V27.8H176.247L181.815 35.032V27.8H183.991V39H181.943L176.231 31.512V39H174.039ZM186.024 39V27.8H188.232L193.8 35.032V27.8H195.976V39H193.928L188.216 31.512V39H186.024ZM198.008 39V27.8H206.616V29.816H200.328V32.376H204.472V34.328H200.328V36.984H206.68V39H198.008ZM208.321 39V27.8H213.793C214.55 27.8 215.217 27.9493 215.793 28.248C216.379 28.536 216.833 28.9413 217.153 29.464C217.483 29.9867 217.649 30.5893 217.649 31.272C217.649 31.9867 217.451 32.616 217.057 33.16C216.662 33.704 216.134 34.1093 215.473 34.376L217.953 39H215.361L213.169 34.712H210.641V39H208.321ZM210.641 32.808H213.585C214.107 32.808 214.523 32.6693 214.833 32.392C215.153 32.1147 215.312 31.752 215.312 31.304C215.312 30.856 215.153 30.4933 214.833 30.216C214.523 29.9387 214.107 29.8 213.585 29.8H210.641V32.808Z" fill="white"/>
<path d="M16.1095 46.3027C16.1095 46.3027 18.7707 47.7493 20.1485 48.375C20.8651 48.7005 21.5922 49.0102 22.3426 49.2477C23.9225 49.7479 25.5358 50.1816 27.1781 50.4032C28.3204 50.5573 29.4834 50.5865 30.634 50.5198C31.1234 50.4914 32.0882 50.3007 32.0882 50.3007L33.1205 51.595C33.1205 51.595 32.4198 51.8904 32.0496 51.9652C31.0811 52.1608 30.0793 52.1933 29.0918 52.1597C27.5179 52.1062 25.9449 51.8803 24.4094 51.5302C22.8911 51.1841 21.4058 50.6797 19.9668 50.0843C18.8473 49.6212 17.797 49.0055 16.7263 48.4387C16.389 48.2602 15.7236 47.8861 15.7236 47.8861L16.1095 46.3027Z" fill="white"/>
<path d="M22.448 7.07764C22.448 7.07764 21.9383 7.48223 21.7023 7.70389C21.353 8.03196 21.0212 8.37823 20.7136 8.74235C20.3232 9.20448 19.9582 9.68797 19.6301 10.1923C19.2135 10.8327 18.838 11.5002 18.5116 12.1857C18.0701 13.1126 17.7658 14.1477 17.52 15.1669C17.3031 16.0663 17.1723 16.9543 17.0986 17.9123C17.0467 18.588 17.1999 20.096 17.1999 20.096L18.5821 17.9398C18.5821 17.9398 18.775 16.3748 18.9602 15.6102C19.2036 14.6054 19.496 13.6038 19.9195 12.6605C20.2652 11.8904 20.7416 11.1846 21.1986 10.4749C21.4559 10.0752 21.7301 9.68581 22.021 9.30984C22.1825 9.10111 22.5324 8.70546 22.5324 8.70546C22.5324 8.70546 22.7905 8.89271 22.9059 9.00215C23.1456 9.22964 23.3714 9.47541 23.5624 9.74508C23.8093 10.0935 24.0103 10.4748 24.1867 10.8637C24.4098 11.3558 24.5934 11.8681 24.731 12.3906C24.8656 12.9014 25.0034 13.9518 25.0034 13.9518L26.392 13.5319C26.392 13.5319 26.0061 11.8913 25.7086 11.1023C25.4887 10.5189 25.2306 9.94349 24.8987 9.41056C24.6648 9.03501 24.3778 8.68944 24.0742 8.3625C23.8045 8.0721 23.5105 7.80025 23.194 7.55675C22.9607 7.37722 22.448 7.07764 22.448 7.07764Z" fill="white"/>
<path d="M36.4424 6.96436C36.4424 6.96436 36.9596 7.37019 37.1991 7.59253C37.5535 7.9216 37.8902 8.26893 38.2024 8.63418C38.5985 9.09773 38.9689 9.58269 39.3018 10.0886C39.7244 10.7309 40.1055 11.4004 40.4367 12.088C40.8847 13.0178 41.1291 14.0634 41.3613 15.0784C41.5748 16.0119 41.7141 16.9538 41.7889 17.9148C41.8416 18.5925 41.7677 20.1051 41.7677 20.1051L40.2946 17.8784C40.2946 17.8784 40.0923 16.3381 39.929 15.5796C39.7551 14.7716 39.5669 13.9612 39.2765 13.1874C38.963 12.3521 38.5599 11.5487 38.1081 10.7795C37.8402 10.3235 37.5441 9.87981 37.1986 9.47938C36.9405 9.18028 36.3374 8.66517 36.3374 8.66517C36.3374 8.66517 35.7671 9.10356 35.5421 9.38C35.2009 9.79914 34.9503 10.2892 34.7256 10.7807C34.4431 11.3986 34.2173 12.0468 34.0653 12.709C33.9761 13.0977 33.9203 13.8965 33.9203 13.8965L32.4404 13.4384C32.4404 13.4384 32.832 11.7928 33.1339 11.0014C33.3571 10.4162 33.6189 9.839 33.9557 9.30443C34.193 8.92773 34.4843 8.58111 34.7923 8.25316C35.066 7.96187 35.3643 7.68918 35.6855 7.44494C35.9222 7.26486 36.4424 6.96436 36.4424 6.96436Z" fill="white"/>
<path d="M28.7449 25.116C28.8346 25.0529 28.9613 25.0346 29.0671 25.061C29.154 25.0827 29.2818 25.2258 29.2818 25.2258L29.5503 25.7019L29.783 25.2441C29.783 25.2441 29.9179 25.1033 30.0068 25.0793C30.1141 25.0504 30.249 25.0478 30.3378 25.116C30.4255 25.1833 30.4507 25.3158 30.4631 25.4273C30.4752 25.5379 30.4094 25.7569 30.4094 25.7569L29.8724 26.7824L29.9261 27.6064C29.9261 27.6064 30.2339 28.1044 30.4273 28.3206C30.6186 28.5345 30.8306 28.7356 31.0716 28.8882C31.3466 29.0625 31.6485 29.2111 31.9664 29.2728C32.3475 29.3467 32.7512 29.3337 33.1297 29.2455C33.4733 29.1654 33.7804 29.0131 34.0604 28.815C34.3102 28.6382 34.4965 28.382 34.7047 28.1558C34.8249 28.0251 34.904 27.8895 35.0535 27.7529C35.3177 27.5115 35.4722 27.5696 35.6353 27.6796C35.7339 27.7461 35.7339 28.0276 35.7339 28.0276C35.7339 28.0276 35.7269 28.2414 35.689 28.3389C35.5987 28.5709 35.4247 28.7602 35.2686 28.9522C34.9653 29.3383 34.5919 29.6031 34.2036 29.8588C34.042 29.9652 33.867 30.0536 33.6846 30.1151C33.4712 30.1871 33.2457 30.2189 33.0224 30.2433C32.7909 30.2686 32.5565 30.2782 32.3244 30.2617C32.071 30.2435 31.817 30.2046 31.5727 30.1335C31.3308 30.063 31.0964 29.962 30.8747 29.8405C30.6399 29.7118 30.418 29.5561 30.2125 29.3827C30.0855 29.2755 29.9705 29.1533 29.8634 29.0254C29.755 28.8962 29.5682 28.6136 29.5682 28.6136C29.5682 28.6136 29.3003 28.9622 29.1387 29.108C28.9488 29.2793 28.7296 29.4147 28.5123 29.5475C28.3221 29.6637 28.1297 29.7812 27.9217 29.8588C27.6688 29.9531 27.4001 29.9992 27.1342 30.0419C26.933 30.0742 26.7293 30.0966 26.5257 30.0969C26.3161 30.0973 26.1048 30.084 25.8993 30.0419C25.5737 29.9751 25.2518 29.8739 24.9507 29.7306C24.6761 29.5999 24.4215 29.4249 24.1812 29.2362C24.0003 29.0942 23.8282 28.9373 23.68 28.7601C23.5515 28.6062 23.4263 28.4425 23.3488 28.2563C23.3046 28.1501 23.2705 28.033 23.2772 27.9177C23.2832 27.8145 23.2471 27.7482 23.3758 27.6244C23.5359 27.4705 23.6951 27.4759 23.8948 27.5149C24.0683 27.5487 24.0778 27.7126 24.1633 27.8168C24.2385 27.9085 24.2975 28.014 24.378 28.1008C24.5352 28.2704 24.7051 28.432 24.8971 28.5586C25.1954 28.7554 25.5219 28.9175 25.8635 29.0164C26.0832 29.0801 26.3154 29.0945 26.5436 29.099C26.8069 29.1042 27.0745 29.1098 27.3311 29.0348C27.5963 28.9572 27.8587 28.859 28.1006 28.7235C28.2749 28.6258 28.4367 28.5028 28.5839 28.3662C28.7607 28.2021 29.058 27.8169 29.058 27.8169L29.1924 27.5332L29.2461 26.819L28.6376 25.7203C28.6376 25.7203 28.5519 25.5269 28.566 25.4273C28.5828 25.3081 28.648 25.1841 28.7449 25.116Z" fill="white"/>
<path d="M29.98 12.6359C29.3296 12.6305 28.6782 12.6367 28.0292 12.6818C27.6339 12.7094 27.2401 12.7607 26.848 12.8193C26.3095 12.8999 25.9324 13.2279 25.9324 13.2279C25.7581 13.26 24.9725 13.8639 25.0039 13.9515C25.0239 14.121 25.0035 14.2812 25.0207 14.4494C25.0382 14.6198 24.9614 14.817 25.008 14.9725C25.2681 14.9071 25.8048 14.5701 26.2203 14.4091C26.4528 14.319 26.6909 14.2403 26.9341 14.1848C27.5211 14.0508 28.1218 13.9769 28.7216 13.925C29.1241 13.8901 29.5291 13.8933 29.933 13.8905C30.358 13.8876 30.7844 13.8738 31.2079 13.9094C31.6556 13.947 32.1035 14.0083 32.54 14.1146C32.8922 14.2005 33.2382 14.3173 33.5706 14.4621C33.7366 14.5344 34.0315 14.7356 34.0483 14.721C34.0574 14.7131 33.9489 14.1337 33.9428 14.0932C33.931 14.0148 33.949 13.8162 33.9141 13.6839C33.852 13.4484 33.6771 12.9079 33.5992 13.0244C33.7217 13.0156 33.5696 13.027 33.375 13.0365C33.1802 13.0459 32.9429 13.0537 32.8951 13.0374C32.7995 13.0052 33.5251 12.9037 33.2586 12.868C32.992 12.8322 32.6825 12.7974 32.415 12.769C32.1475 12.7407 31.922 12.7188 31.8234 12.709C31.2115 12.6469 30.595 12.6407 29.9801 12.6357L29.98 12.6359ZM17.1476 17.2818C17.1476 17.2818 17.3677 19.6875 17.2001 20.0957C17.0063 20.568 16.8429 21.0538 16.7001 21.5448C16.4917 22.2614 16.3113 22.9884 16.181 23.7241C16.0739 24.329 15.9974 24.9413 15.9662 25.5552C15.9368 26.1344 15.9668 26.7155 15.9929 27.2948C16.0164 27.8207 16.0462 28.3472 16.1094 28.8697C16.1741 29.4045 16.2692 29.9356 16.3779 30.4629C16.4591 30.8569 16.5448 31.2512 16.6643 31.6349C16.744 31.8908 16.8331 32.1454 16.9506 32.3856C17.0417 32.572 17.1477 32.7523 17.2727 32.9167C17.41 33.0973 17.5731 33.2566 17.7381 33.4111C17.9415 33.6016 18.1523 33.7866 18.3824 33.9422C18.7208 34.171 19.0888 34.3521 19.4562 34.5281C19.8294 34.7069 20.2115 34.8685 20.6016 35.0043C21.1525 35.196 21.7181 35.3421 22.284 35.4803C22.9884 35.6525 23.7006 35.7908 24.4137 35.9199C24.9604 36.0188 25.5082 36.116 26.0602 36.1762C26.928 36.271 27.8012 36.3069 28.6733 36.3411C29.4662 36.3722 30.2607 36.4101 31.0536 36.3777C31.6823 36.3519 32.3078 36.2697 32.9328 36.1945C33.2319 36.1586 33.8276 36.0663 33.8276 36.0663L34.3467 34.6563C34.3467 34.6563 33.5513 34.8505 33.1475 34.9127C32.638 34.9911 32.1225 35.0241 31.6084 35.0592C31.1675 35.0893 30.7258 35.1095 30.284 35.1141C29.6933 35.1202 29.1023 35.1052 28.5122 35.0775C27.9267 35.0501 27.3423 34.9996 26.7583 34.9493C26.173 34.8989 25.5858 34.8604 25.0043 34.7752C24.325 34.6756 23.801 34.5115 23.2086 34.3438C22.6229 34.178 22.0403 33.9962 21.4727 33.7762C21.0015 33.5935 20.5278 33.4063 20.0906 33.1529C19.6852 32.918 19.2923 32.6505 18.9521 32.3283C18.7298 32.1178 18.5267 31.8799 18.3736 31.6148C18.282 31.4563 18.2314 31.2767 18.1767 31.102C18.0493 30.6948 17.9597 30.2762 17.8725 29.8585C17.794 29.4825 17.7314 29.1032 17.6756 28.7232C17.6168 28.323 17.5562 27.9222 17.5304 27.5186C17.5031 27.0924 17.5064 26.6642 17.5203 26.2373C17.5362 25.7531 17.5672 25.2686 17.6267 24.7879C17.6778 24.376 17.7549 23.9674 17.8415 23.5615C17.9337 23.13 18.0373 22.7001 18.1657 22.2779C18.3597 21.6397 18.6671 20.8964 18.8386 20.3933C18.8659 20.3357 18.909 20.1377 18.8633 19.9105C18.802 19.6057 18.6567 19.1389 18.6092 18.7436C18.576 18.4674 18.544 18.1354 18.5886 17.9091C18.7566 17.0582 17.1476 17.2818 17.1476 17.2818ZM40.2945 17.8785C40.2945 17.8785 40.336 18.2114 40.3347 18.3787C40.3328 18.6112 40.3014 18.8368 40.268 19.0732C40.2306 19.338 40.1394 19.4424 40.1375 19.6345C40.1357 19.8106 40.2013 19.9812 40.2467 20.1514C40.2967 20.3388 40.3749 20.5178 40.4261 20.7048C40.5037 20.9886 40.5637 21.2771 40.6191 21.5661C40.6681 21.8212 40.7103 22.0779 40.7423 22.3358C40.7656 22.5231 40.7921 22.9 40.7921 22.9L42.2677 22.8456C42.2677 22.8456 42.2765 21.9849 42.1522 21.4775C42.0544 21.078 41.9104 20.4903 41.7678 20.1052C41.7135 19.7674 40.321 17.8451 40.2945 17.8785Z" fill="white"/>
<path d="M23.5906 24.063C23.4989 24.2168 23.4702 24.4567 23.5727 24.6032C23.6743 24.7485 23.9006 24.7805 24.074 24.7589C24.1824 24.7453 24.2584 24.6383 24.3556 24.5872C24.4699 24.5272 24.5828 24.4544 24.709 24.4294C24.9083 24.3899 25.1246 24.3837 25.3177 24.4477C25.4035 24.4761 25.4807 24.5351 25.5414 24.6034C25.6582 24.7348 25.7269 24.9059 25.792 25.0706C25.8684 25.264 25.8295 25.5083 25.9529 25.6743C26.0412 25.7931 26.1838 25.919 26.3289 25.9034C26.4906 25.886 26.621 25.7394 26.687 25.5646C26.7733 25.3357 26.6869 25.077 26.6333 24.8416C26.5969 24.6814 26.5415 24.5215 26.4541 24.3835C26.3166 24.1661 26.1377 23.9673 25.9262 23.8249C25.729 23.6922 25.4959 23.6136 25.264 23.5686C25.0442 23.5259 24.5928 23.5593 24.5928 23.5593C24.5928 23.5593 24.2666 23.6091 24.1186 23.6785C23.9222 23.7706 23.6955 23.8868 23.5906 24.063Z" fill="white"/>
<path d="M35.387 24.0498C35.4761 24.2037 35.504 24.4435 35.4044 24.59C35.3056 24.7353 35.0856 24.7673 34.9171 24.7457C34.8117 24.7322 34.7379 24.6251 34.6434 24.5741C34.5323 24.514 34.4225 24.4412 34.2999 24.4162C34.1062 24.3768 33.8959 24.3705 33.7082 24.4345C33.6248 24.463 33.5497 24.5219 33.4908 24.5902C33.3773 24.7217 33.3105 24.8927 33.2472 25.0575C33.173 25.2508 33.2107 25.4951 33.0908 25.6611C33.005 25.7799 32.8664 25.9058 32.7254 25.8902C32.5682 25.8728 32.4414 25.7262 32.3773 25.5514C32.2934 25.3226 32.3778 25.0638 32.4295 24.8284C32.4648 24.6682 32.5187 24.5083 32.6036 24.3703C32.7373 24.1529 32.9112 23.9541 33.1168 23.8118C33.3084 23.6791 33.535 23.6004 33.7604 23.5554C33.9741 23.5127 34.4128 23.5461 34.4128 23.5461C34.4128 23.5461 34.7299 23.5959 34.8738 23.6653C35.0646 23.7574 35.285 23.8736 35.387 24.0498Z" fill="white"/>
<path d="M27.2143 36.2302C27.2143 36.2302 26.9187 36.7691 26.8351 37.0622C26.7496 37.362 26.6939 37.6787 26.7156 37.9897C26.7451 38.4115 26.8394 38.8469 27.0511 39.2129C27.2446 39.5475 27.5364 39.8368 27.8674 40.0364C28.3151 40.3064 28.8453 40.4775 29.3679 40.4935C29.8709 40.5088 30.3938 40.3822 30.8362 40.1425C31.2363 39.9257 31.6045 39.6003 31.8271 39.2035C32.089 38.7367 32.1796 38.1681 32.1622 37.6332C32.1463 37.1458 31.7644 36.2253 31.7644 36.2253L32.8962 36.1263C32.8962 36.1263 33.1454 36.6625 33.1962 36.9504C33.2726 37.384 33.2443 37.8337 33.1962 38.2712C33.1487 38.7023 33.0643 39.1348 32.9133 39.5401C32.8138 39.8073 32.6853 40.0699 32.5083 40.2912C32.2854 40.57 31.9977 40.7935 31.7029 40.9904C31.4121 41.1845 31.0951 41.3424 30.7664 41.4565C30.4076 41.5812 30.0302 41.6556 29.6527 41.6896C29.3332 41.7183 29.008 41.7128 28.6909 41.6637C28.3269 41.6073 27.9652 41.5084 27.6279 41.3575C27.2999 41.2108 26.9857 41.0196 26.7122 40.7832C26.4298 40.5391 26.1798 40.2471 25.9827 39.9286C25.767 39.5801 25.5955 39.1961 25.5018 38.7971C25.4043 38.382 25.3906 37.9451 25.4259 37.5202C25.454 37.1816 25.5418 36.8476 25.6533 36.5266C25.7274 36.3132 25.9442 35.9146 25.9442 35.9146L26.7167 36.0181L27.2143 36.2302Z" fill="white"/>
<path d="M23.4202 33.0816C23.308 33.2562 23.3816 33.5283 23.4918 33.7042C23.6464 33.951 23.9661 34.0378 24.2256 34.162C24.628 34.3548 25.0608 34.4747 25.4875 34.6015C25.8529 34.7102 26.2248 34.7956 26.5971 34.8762C26.8581 34.9328 27.1197 34.9897 27.3846 35.0227C28.0017 35.0996 29.2459 35.1419 29.2459 35.1419L30.4987 35.0777C30.4987 35.0777 31.3495 35.0738 31.7694 35.0134C32.1699 34.9557 32.5612 34.8414 32.9506 34.7297C33.2649 34.6396 33.575 34.5338 33.8813 34.4184C34.1173 34.3296 34.3493 34.2296 34.5792 34.1254C34.839 34.0077 35.1235 33.9172 35.3488 33.7505C35.5214 33.6091 35.6821 33.3785 35.5639 33.1538C35.4957 33.0396 35.4041 32.9743 35.2951 32.9532C35.0286 32.9015 34.7673 33.0834 34.5077 33.1639C34.254 33.2425 34.0076 33.3443 33.756 33.4296C33.3995 33.5503 33.0441 33.6754 32.6821 33.7775C32.3808 33.8625 32.0764 33.9373 31.7694 33.9972C31.568 34.0366 31.3642 34.0622 31.1609 34.0888C30.8335 34.1317 30.5052 34.1678 30.1765 34.1987C29.8191 34.2323 29.4617 34.283 29.1027 34.2809C28.7554 34.2788 28.4094 34.2327 28.0647 34.1894C27.6898 34.1422 27.3156 34.0855 26.946 34.0063C26.575 33.9267 26.2076 33.8277 25.8454 33.7133C25.5669 33.6253 25.2922 33.5237 25.0222 33.4113C24.8095 33.3227 24.6066 33.2111 24.3958 33.1183C24.2421 33.0506 24.0975 32.9339 23.9304 32.9258C23.7531 32.9173 23.5178 32.9299 23.4202 33.0816Z" fill="white"/>
<path d="M31.5511 46.9481L38.8822 24.7082C38.8822 24.7082 39.2054 24.1732 39.4295 23.9639C39.5775 23.8257 39.7537 23.7136 39.9409 23.6405C40.2091 23.5356 40.5021 23.4961 40.789 23.486C41.192 23.4719 41.5942 23.5498 41.9917 23.6192C42.3504 23.6819 43.0547 23.8743 43.0547 23.8743L49.8714 26.2222C49.8776 26.15 50.1845 25.7288 50.5921 25.3373L42.9408 22.6094C42.9408 22.6094 42.3859 22.4839 42.1074 22.4267C41.8907 22.3821 41.6758 22.3232 41.4558 22.3016C41.1126 22.268 40.7631 22.2474 40.4215 22.2954C40.0632 22.3459 39.71 22.4536 39.3786 22.6017C39.0977 22.7271 38.845 22.8794 38.5919 23.0883C38.4942 23.1689 38.2668 23.3983 38.1284 23.5752C37.9801 23.7646 37.7395 24.185 37.7395 24.185L30.4374 46.0677C30.4374 46.0677 30.2109 46.8415 30.1625 47.2405C30.1203 47.588 30.1197 47.9422 30.1506 48.2909C30.1735 48.5508 30.2114 48.8133 30.2964 49.0592C30.4147 49.4012 30.5831 49.7297 30.7952 50.0204C31.0006 50.3017 31.2689 50.5305 31.5301 50.7583C31.7904 50.9852 32.0664 51.1949 32.3559 51.3811C32.7011 51.6031 33.4368 51.9666 33.4368 51.9666L41.7552 54.8697C41.7552 54.8697 42.5324 55.0307 42.9259 55.0251C43.4437 55.0177 43.9724 54.954 44.4606 54.7769C44.9195 54.6105 45.3485 54.3447 45.7248 54.0286C46.0453 53.7595 46.3182 53.4272 46.5455 53.0725C46.7733 52.7168 46.9115 52.3084 47.0765 51.918C47.2598 51.4841 47.5857 50.5989 47.5857 50.5989L53.193 33.3288H51.9186L46.0435 51.1567C46.0435 51.1567 45.8511 51.6917 45.7204 51.9424C45.5654 52.2395 45.3968 52.5353 45.1774 52.7864C44.9549 53.0411 44.7034 53.2838 44.4074 53.4421C44.023 53.6477 43.585 53.7555 43.1531 53.7962C42.7877 53.8307 42.0563 53.7002 42.0563 53.7002L33.9055 50.8154C33.9055 50.8154 33.3071 50.5092 33.031 50.3176C32.7012 50.0888 32.3702 49.8486 32.1043 49.5449C31.8427 49.246 31.6006 48.9106 31.4659 48.5338C31.3817 48.2984 31.3615 48.0384 31.3721 47.788C31.3843 47.5017 31.5511 46.9481 31.5511 46.9481Z" fill="white"/>
<path d="M42.371 53.7016C41.93 53.6368 33.9506 50.7907 33.51 50.5411C33.0049 50.2548 32.4725 49.8562 32.199 49.5596C31.8959 49.2308 31.5641 48.7061 31.4925 48.4424C31.4152 48.1578 31.4168 47.6453 31.496 47.3424C31.5306 47.2101 33.2179 42.066 35.2455 35.911C38.6311 25.6338 38.9504 24.6939 39.1563 24.3988C39.79 23.4903 40.6383 23.3358 42.5063 23.7884C42.8575 23.8735 48.5622 25.8024 49.2474 26.0678L49.3894 26.1228L49.2546 26.4566C49.1382 26.7448 49.1229 26.8507 49.1429 27.2316C49.1619 27.5942 49.1957 27.7293 49.3323 27.99L50.122 28.2316L49.6109 28.5474C49.194 28.805 48.918 29.8296 49.2068 30.3953C49.287 30.5523 50.5846 31.0168 50.4146 31.0428L49.901 31.1364L49.9767 31.5134C50.2621 32.9354 49.8391 31.8176 49.8584 32.2086C49.8853 32.7542 49.7496 33.0887 50.187 33.5612C50.5152 33.9157 50.7105 34.0346 51.1909 34.1726C51.3664 34.223 51.5182 34.2715 51.5283 34.2805C51.5384 34.2895 50.281 38.1398 48.734 42.8367C46.5534 49.4573 45.8593 51.5026 45.6456 51.9372C44.9702 53.31 43.8423 53.9178 42.371 53.7016ZM39.9531 48.718C40.073 48.6191 40.1529 48.4169 40.4101 47.5628L40.7217 46.5275L41.4404 46.5142C42.2467 46.4992 42.6577 46.4062 43.3336 46.0854C44.1488 45.6986 44.7177 45.1401 45.074 44.3768C45.3329 43.8224 45.4452 43.3041 45.4452 42.6641C45.4452 41.5072 45.0724 40.8163 43.6439 39.3255L43.08 38.737L43.9887 35.7349C44.4885 34.0837 44.9253 32.7234 44.9594 32.7121C45.0546 32.6803 45.8769 33.5449 46.0786 33.8889C46.5267 34.653 46.6474 35.1966 46.5606 36.0589C46.5183 36.4796 46.5205 36.6496 46.5701 36.7692C46.669 37.0081 46.8664 37.1365 47.1347 37.1365C47.6373 37.1365 47.8497 36.6834 47.8497 35.611C47.8497 34.8566 47.7282 34.3552 47.3685 33.6255C46.9512 32.7789 46.3618 32.0989 45.6019 31.5872L45.3044 31.3868L45.5663 30.5347C45.8523 29.6044 45.869 29.4796 45.7403 29.2308C45.5501 28.863 45.0564 28.8178 44.7268 29.1381C44.5778 29.2828 44.5126 29.4392 44.2939 30.1754C44.0603 30.9619 44.0262 31.0402 43.9259 31.0203C43.3382 30.9037 42.3681 30.9721 41.7278 31.1751C40.4973 31.5654 39.5441 32.5882 39.3525 33.7239C39.2629 34.2555 39.3134 35.181 39.46 35.6926C39.7043 36.5449 40.2884 37.5444 41.1372 38.5626L41.5911 39.107L40.7262 41.969C40.2505 43.5431 39.8457 44.8309 39.8266 44.831C39.8074 44.831 39.648 44.7229 39.4722 44.5908C38.8858 44.1499 38.3537 43.3768 38.1489 42.6682C38.0719 42.4015 38.0635 42.2429 38.0979 41.7064C38.1649 40.6607 38.1631 40.6307 38.0246 40.4833C37.8273 40.2732 37.6217 40.2094 37.3778 40.2825C36.9084 40.4231 36.762 40.8683 36.8017 42.0339C36.821 42.6015 36.8548 42.8609 36.9467 43.1478C37.3364 44.3648 38.1355 45.3796 39.155 45.952C39.3767 46.0765 39.4567 46.1502 39.4382 46.213C39.4241 46.2611 39.2911 46.6999 39.1427 47.1882C38.8155 48.2645 38.8068 48.4092 39.0545 48.6569C39.2159 48.8183 39.268 48.8385 39.522 48.8383C39.7393 48.838 39.8428 48.8092 39.9531 48.718Z" fill="white"/>
<path d="M41.7234 37.2081C41.5838 37.0125 41.3416 36.6217 41.1853 36.3398C40.1448 34.4637 40.5643 32.9427 42.2718 32.4005C42.6766 32.2719 43.5175 32.2004 43.6053 32.287C43.6527 32.3338 42.0801 37.5638 42.0187 37.5638C41.9959 37.5638 41.863 37.4037 41.7234 37.2081Z" fill="white"/>
<path d="M41.0839 45.2532C41.1003 45.2092 41.3792 44.1228 41.8884 42.5456C42.3975 40.9684 42.6846 39.9235 42.7109 39.9233C42.7884 39.9231 43.5881 40.7574 43.8692 41.2819C44.1125 41.7357 44.3457 42.255 44.2934 42.7672C44.2234 43.452 43.8604 44.1507 43.3365 44.5972C42.7774 45.0736 42.3258 45.2062 41.2466 45.2954C40.8892 45.325 41.0606 45.3158 41.0839 45.2532Z" fill="white"/>
<path d="M51.6038 34.4331C51.6038 34.4331 50.8841 34.3052 50.5783 34.1202C50.1394 33.8547 49.6992 33.4966 49.497 33.0251C49.3113 32.5921 49.2859 32.053 49.4529 31.6125C49.5301 31.4086 49.9013 31.1365 49.9013 31.1365C49.9013 31.1365 49.3548 30.8596 49.1754 30.6239C49.005 30.4001 48.9157 30.1099 48.8898 29.8298C48.8548 29.4503 48.8838 29.0319 49.0732 28.7011C49.1805 28.5137 49.5723 28.2879 49.5723 28.2879C49.5723 28.2879 49.1577 27.9898 49.0796 27.7629C48.8986 27.2371 49.0163 26.6146 49.2306 26.1015C49.4388 25.6027 49.8235 25.1579 50.2756 24.8618C50.7759 24.5341 51.3974 24.3693 51.9951 24.3498C52.4663 24.3344 52.9429 24.4734 53.374 24.6644C53.7761 24.8426 54.1484 25.1055 54.4557 25.4203C54.794 25.7667 55.0444 26.1965 55.2592 26.6304C55.5024 27.1216 55.6741 27.6502 55.7973 28.1843C55.9277 28.7489 56.0216 29.3309 56.0061 29.9102C55.9915 30.4521 55.8942 30.997 55.7246 31.5118C55.5684 31.9857 55.3431 32.443 55.0564 32.8514C54.7529 33.2839 54.3871 33.6838 53.9629 33.9988C53.7903 34.1269 53.5901 34.2178 53.3875 34.2896C53.1712 34.3663 52.7147 34.4354 52.7147 34.4354L52.4605 33.3316C52.4605 33.3316 53.2456 33.0861 53.5389 32.8119C54.0262 32.3564 54.3248 31.7025 54.5405 31.0642C54.708 30.5685 54.7613 30.0294 54.7482 29.505C54.7367 29.0396 54.6351 28.5755 54.4951 28.1325C54.3546 27.6879 54.1585 27.2575 53.913 26.8635C53.7327 26.5741 53.5242 26.2946 53.2676 26.0736C53.055 25.8906 52.8111 25.7322 52.5462 25.6463C52.3201 25.573 52.0725 25.5487 51.8375 25.5816C51.5651 25.6197 51.2988 25.7303 51.0656 25.8794C50.7999 26.0494 50.5574 26.274 50.3822 26.5398C50.2656 26.7165 50.1663 26.9226 50.1544 27.1354C50.146 27.287 50.1961 27.443 50.2683 27.5757C50.3191 27.6691 50.4088 27.734 50.4834 27.8088C50.5688 27.8943 50.6828 27.9531 50.7492 28.0548C50.8189 28.1615 50.8905 28.2899 50.8757 28.4173C50.8603 28.5505 50.759 28.6655 50.6606 28.754C50.5515 28.8521 50.3783 28.8511 50.2683 28.9482C50.1717 29.0335 50.0923 29.1478 50.0532 29.2719C50.0052 29.424 50.0097 29.5944 50.0406 29.751C50.0689 29.895 50.135 30.0325 50.2178 30.1524C50.3055 30.2796 50.4282 30.3786 50.5468 30.4762C50.6416 30.5541 50.7686 30.5913 50.8505 30.6833C50.9344 30.7776 51.0163 30.8931 51.0277 31.02C51.0391 31.1464 50.9713 31.2701 50.9138 31.3826C50.8398 31.5271 50.6799 31.6187 50.6227 31.771C50.5651 31.9246 50.5531 32.1018 50.5847 32.2631C50.6174 32.4296 50.709 32.5834 50.8125 32.7163C50.9432 32.8839 51.1066 33.0335 51.2934 33.1306C51.5354 33.2564 52.0842 33.329 52.0842 33.329L51.6038 34.4331Z" fill="white"/>
<path d="M52.7711 34.1894C52.7711 34.1894 52.4801 35.7865 52.3064 36.579C52.1825 37.1438 52.0949 37.7223 51.8947 38.2637C51.6058 39.0451 50.7672 40.4886 50.7672 40.4886L50.1855 42.3015C50.1855 42.3015 51.2005 41.4768 51.5905 40.9556C52.116 40.253 52.5026 39.4395 52.8075 38.6116C53.1684 37.6314 53.5144 35.5535 53.5144 35.5535L53.8813 33.6582L52.7711 34.1894Z" fill="white"/>
<path d="M17.4062 33.1681C17.4062 33.1681 15.7644 32.5374 15.1641 31.9304C14.4682 31.2268 14.0614 30.2577 13.7583 29.3157C13.2771 27.8206 13.2647 26.2098 13.1503 24.6434C13.0722 23.5752 13.0973 21.4307 13.0973 21.4307C13.0973 21.4307 13.7505 21.1216 13.9646 20.8465C14.428 20.2513 14.7376 19.4711 14.7298 18.7168C14.7226 18.0186 14.3915 17.3254 13.981 16.7605C13.703 16.3779 12.8775 15.8688 12.8775 15.8688C12.8775 15.8688 12.2912 15.1688 11.8998 14.9543C11.4862 14.7277 11.0004 14.5858 10.5291 14.6037C9.97573 14.6246 9.43484 14.8588 8.95534 15.1358C8.54657 15.372 7.89216 16.0714 7.89216 16.0714C7.89216 16.0714 7.02219 16.5207 6.72787 16.8936C6.27176 17.4716 5.91421 18.2085 5.90812 18.9447C5.90222 19.6568 6.19937 20.4052 6.66803 20.9414C6.92447 21.2348 7.69509 21.4996 7.69509 21.4996C7.69509 21.4996 7.61801 23.3364 7.59046 24.2552C7.53355 26.1532 7.43154 28.0518 7.46518 29.9503C7.48911 31.3014 7.47464 32.6654 7.69784 33.9973C7.80696 34.6485 7.93212 35.3181 8.23476 35.9017C8.80253 36.9967 9.63787 37.9562 10.5614 38.7584C11.1893 39.3038 11.9524 39.6675 12.6912 40.0402C13.9321 40.6664 15.2215 41.2009 16.539 41.6334C17.509 41.9518 19.51 42.3659 19.51 42.3659C19.51 42.3659 19.9097 42.7149 19.9037 42.9518C19.8978 43.1825 19.4921 43.5012 19.4921 43.5012C19.4921 43.5012 18.8047 44.1682 18.55 44.5687C18.2681 45.0122 18.0909 45.5171 17.9222 46.0148C17.7839 46.4228 17.6098 47.269 17.6098 47.269L16.1095 46.303C16.1095 46.303 16.4415 45.0286 16.7279 44.4405C16.8489 44.192 17.1862 43.7494 17.1862 43.7494C17.1862 43.7494 15.4775 43.2056 14.6435 42.8783C13.2797 42.343 11.8821 41.8493 10.6265 41.0942C9.71107 40.5437 8.82926 39.9018 8.10452 39.1171C7.44136 38.3991 6.88962 37.5626 6.48418 36.6732C6.18271 36.0119 6.02082 35.289 5.90265 34.5718C5.74821 33.6345 5.7658 32.6762 5.74132 31.7266C5.712 30.5893 5.75268 29.4513 5.7587 28.3136C5.76462 27.1961 5.75241 26.0783 5.77711 24.961C5.79588 24.1124 5.87568 22.4165 5.87568 22.4165C5.87568 22.4165 5.08645 21.6206 4.83654 21.129C4.48464 20.4367 4.24978 19.6549 4.23417 18.8784C4.22054 18.2003 4.38875 17.5054 4.68087 16.8933C4.95556 16.3176 5.34902 15.7635 5.86782 15.3924C6.25766 15.1136 7.22333 14.9129 7.22333 14.9129C7.22333 14.9129 7.76406 14.1068 8.16073 13.8505C8.84207 13.4102 9.67481 13.1382 10.486 13.1324C11.2613 13.1269 12.0669 13.366 12.7181 13.7868C13.1432 14.0615 13.2304 14.4802 13.7062 14.9395C13.7062 14.9395 14.5992 15.1312 14.962 15.388C15.3871 15.6889 15.708 16.1381 15.9467 16.6009C16.2658 17.2194 16.5049 17.9169 16.5046 18.6129C16.5041 19.5413 16.2471 20.5071 15.7576 21.2959C15.5363 21.6526 14.8206 22.1373 14.8206 22.1373C14.8206 22.1373 14.8065 22.9216 14.8121 23.3137C14.8264 24.3148 14.7801 25.3239 14.9194 26.3154C15.0722 27.4039 15.1817 28.554 15.7137 29.5159C15.847 29.7568 16.0499 29.9707 16.2871 30.1106C16.4523 30.2081 16.843 30.2597 16.843 30.2597L17.4062 33.1681Z" fill="white"/>
</svg>
