<svg width="149" height="13" viewBox="0 0 149 13" fill="none" xmlns="http://www.w3.org/2000/svg">
<path d="M0.422063 12V0.799999H5.68606C6.4434 0.799999 7.10473 0.927999 7.67006 1.184C8.2354 1.44 8.67806 1.80267 8.99806 2.272C9.31806 2.73067 9.47806 3.264 9.47806 3.872C9.47806 4.36267 9.35006 4.816 9.09406 5.232C8.84873 5.63733 8.51273 5.968 8.08606 6.224C8.63006 6.48 9.06206 6.82667 9.38206 7.264C9.70206 7.70133 9.86206 8.19733 9.86206 8.752C9.86206 9.392 9.69673 9.95733 9.36606 10.448C9.04606 10.9387 8.5874 11.3227 7.99006 11.6C7.4034 11.8667 6.72073 12 5.94206 12H0.422063ZM2.74206 5.376H5.54206C6.0434 5.376 6.43806 5.25867 6.72606 5.024C7.02473 4.77867 7.17406 4.45333 7.17406 4.048C7.17406 3.64267 7.02473 3.32267 6.72606 3.088C6.43806 2.84267 6.0434 2.72 5.54206 2.72H2.74206V5.376ZM2.74206 10.08H5.76606C6.2994 10.08 6.72606 9.952 7.04606 9.696C7.36606 9.42933 7.52606 9.07733 7.52606 8.64C7.52606 8.192 7.36606 7.84 7.04606 7.584C6.72606 7.31733 6.2994 7.184 5.76606 7.184H2.74206V10.08ZM16.2686 12.16C15.2552 12.16 14.3752 11.9573 13.6286 11.552C12.8926 11.1467 12.3219 10.5707 11.9166 9.824C11.5112 9.06667 11.3086 8.18133 11.3086 7.168V0.799999H13.6286V7.168C13.6286 7.744 13.7352 8.25067 13.9486 8.688C14.1726 9.11467 14.4819 9.44533 14.8766 9.68C15.2819 9.904 15.7512 10.016 16.2846 10.016C16.8179 10.016 17.2819 9.904 17.6766 9.68C18.0712 9.44533 18.3752 9.11467 18.5886 8.688C18.8126 8.25067 18.9246 7.744 18.9246 7.168V0.799999H21.2286V7.168C21.2286 8.17067 21.0259 9.05067 20.6206 9.808C20.2152 10.5547 19.6392 11.136 18.8926 11.552C18.1566 11.9573 17.2819 12.16 16.2686 12.16ZM25.3983 9.936H27.3503C27.8516 9.936 28.3156 9.85067 28.7423 9.68C29.1796 9.49867 29.5583 9.248 29.8783 8.928C30.209 8.608 30.4596 8.23467 30.6303 7.808C30.8116 7.38133 30.9023 6.91733 30.9023 6.416C30.9023 5.91467 30.8116 5.45067 30.6303 5.024C30.449 4.58667 30.1983 4.208 29.8783 3.888C29.5583 3.568 29.1796 3.31733 28.7423 3.136C28.3156 2.95467 27.8516 2.864 27.3503 2.864H25.3983V9.936ZM23.0783 12V0.799999H27.3823C28.225 0.799999 29.0036 0.943999 29.7183 1.232C30.433 1.50933 31.057 1.904 31.5903 2.416C32.1236 2.928 32.5396 3.52533 32.8383 4.208C33.1476 4.89067 33.3023 5.62667 33.3023 6.416C33.3023 7.216 33.153 7.952 32.8543 8.624C32.5556 9.296 32.1343 9.888 31.5903 10.4C31.057 10.9013 30.433 11.296 29.7183 11.584C29.0036 11.8613 28.225 12 27.3823 12H23.0783ZM40.3948 12.176C39.5628 12.176 38.7895 12.032 38.0748 11.744C37.3601 11.4453 36.7308 11.0347 36.1868 10.512C35.6428 9.97867 35.2161 9.36533 34.9068 8.672C34.6081 7.968 34.4588 7.21067 34.4588 6.4C34.4588 5.58933 34.6081 4.83733 34.9068 4.144C35.2161 3.44 35.6375 2.82667 36.1708 2.304C36.7041 1.77067 37.3281 1.36 38.0428 1.072C38.7681 0.773333 39.5415 0.624 40.3628 0.624C41.2908 0.624 42.1655 0.810666 42.9868 1.184C43.8081 1.54667 44.4855 2.05867 45.0188 2.72L43.4028 4.208C43.0188 3.728 42.5655 3.36533 42.0428 3.12C41.5201 2.87467 40.9601 2.752 40.3628 2.752C39.8615 2.752 39.3975 2.848 38.9708 3.04C38.5441 3.22133 38.1708 3.47733 37.8508 3.808C37.5308 4.128 37.2801 4.512 37.0988 4.96C36.9281 5.39733 36.8428 5.87733 36.8428 6.4C36.8428 6.92267 36.9335 7.408 37.1148 7.856C37.2961 8.304 37.5468 8.69333 37.8668 9.024C38.1975 9.344 38.5761 9.6 39.0028 9.792C39.4401 9.97333 39.9148 10.064 40.4268 10.064C40.9601 10.064 41.4401 9.968 41.8668 9.776C42.2935 9.57333 42.6508 9.296 42.9388 8.944C43.2375 8.58133 43.4348 8.176 43.5308 7.728H40.2188V5.712H46.0108V6.416C46.0108 7.248 45.8668 8.016 45.5788 8.72C45.3015 9.41333 44.9121 10.0213 44.4108 10.544C43.9095 11.056 43.3175 11.456 42.6348 11.744C41.9521 12.032 41.2055 12.176 40.3948 12.176ZM47.5939 12V0.799999H56.2019V2.816H49.9139V5.376H54.0579V7.328H49.9139V9.984H56.2659V12H47.5939ZM60.9624 12V2.848H57.1864V0.799999H67.0424V2.848H63.2824V12H60.9624ZM71.5627 12V0.799999H77.1787C77.9147 0.799999 78.56 0.949333 79.1147 1.248C79.68 1.54667 80.1227 1.96267 80.4427 2.496C80.7627 3.01867 80.9227 3.62667 80.9227 4.32C80.9227 4.98133 80.7627 5.57333 80.4427 6.096C80.1227 6.61867 79.68 7.02933 79.1147 7.328C78.5494 7.62667 77.904 7.776 77.1787 7.776H73.8827V12H71.5627ZM73.8827 5.856H76.9227C77.424 5.856 77.824 5.71733 78.1227 5.44C78.432 5.16267 78.5867 4.79467 78.5867 4.336C78.5867 3.86667 78.432 3.49333 78.1227 3.216C77.824 2.93867 77.424 2.8 76.9227 2.8H73.8827V5.856ZM82.4533 12V0.799999H84.7733V9.952H90.9013V12H82.4533ZM91.6626 12L96.2706 0.799999H98.9426L103.503 12H100.991L99.8546 9.056H95.2306L94.0786 12H91.6626ZM95.9506 7.2H99.1506L97.5506 3.072L95.9506 7.2ZM104.453 12V0.799999H106.661L112.229 8.032V0.799999H114.405V12H112.357L106.645 4.512V12H104.453ZM116.438 12V0.799999H118.646L124.214 8.032V0.799999H126.39V12H124.342L118.63 4.512V12H116.438ZM128.422 12V0.799999H137.03V2.816H130.742V5.376H134.886V7.328H130.742V9.984H137.094V12H128.422ZM138.735 12V0.799999H144.207C144.964 0.799999 145.631 0.949333 146.207 1.248C146.793 1.536 147.247 1.94133 147.567 2.464C147.897 2.98667 148.063 3.58933 148.063 4.272C148.063 4.98667 147.865 5.616 147.471 6.16C147.076 6.704 146.548 7.10933 145.887 7.376L148.367 12H145.775L143.583 7.712H141.055V12H138.735ZM141.055 5.808H143.999C144.521 5.808 144.937 5.66933 145.247 5.392C145.567 5.11467 145.727 4.752 145.727 4.304C145.727 3.856 145.567 3.49333 145.247 3.216C144.937 2.93867 144.521 2.8 143.999 2.8H141.055V5.808Z" fill="white"/>
</svg>
