<svg width="88" height="88" viewBox="0 0 88 88" fill="none" xmlns="http://www.w3.org/2000/svg">
<path d="M32.0947 11.705C32.0947 11.705 28.9485 12.9364 27.549 13.8602C26.4138 14.6096 25.4041 15.5544 24.4925 16.564C23.5013 17.6617 22.5884 18.8569 21.9061 20.169C21.14 21.6424 20.6138 23.2487 20.2603 24.8712C19.9587 26.2555 19.818 27.6874 19.8684 29.1032C19.9141 30.3865 20.1531 31.6665 20.4954 32.9042C20.7987 34.0006 21.209 35.0771 21.7494 36.0782C22.4174 37.3155 24.179 39.5265 24.179 39.5265C24.179 39.5265 26.8287 40.3754 28.1808 40.6973C30.1583 41.168 32.1593 41.563 34.1775 41.8059C37.4214 42.1964 40.6963 42.3568 43.9635 42.362C47.6571 42.368 51.3845 42.3729 55.0285 41.7691C57.5558 41.3504 62.4252 39.6832 62.4252 39.6832C62.4252 39.6832 64.7713 36.7923 65.4818 35.0985C66.3697 32.9819 66.8431 30.6535 66.8925 28.3587C66.941 26.1088 66.5314 23.8239 65.7953 21.6972C65.2637 20.1615 64.4437 18.7075 63.4441 17.4261C62.347 16.0196 60.9946 14.7935 59.5254 13.7818C58.0868 12.7912 54.823 11.4699 54.823 11.4699C54.823 11.4699 51.4106 10.3877 49.6504 10.0984C47.9064 9.81187 46.1273 9.77041 44.3602 9.74578C42.3342 9.71754 40.288 9.66781 38.2862 9.98089C36.1696 10.3119 32.0947 11.705 32.0947 11.705Z" fill="white"/>
<path d="M19.918 29.617C19.918 29.617 20.7818 31.6311 21.4395 32.4937C22.2558 33.5643 23.2423 34.5437 24.3821 35.2602C25.3844 35.8901 26.5563 36.2169 27.696 36.537C29.4735 37.0363 31.3144 37.293 33.1457 37.528C35.2482 37.7978 37.37 37.8959 39.4868 38.0069C41.3133 38.1027 43.1425 38.1856 44.9714 38.1684C47.2003 38.1475 49.4328 38.0694 51.6506 37.8462C53.3923 37.671 55.1373 37.45 56.8414 37.0492C58.2204 36.7249 59.5944 36.3291 60.8891 35.7542C61.761 35.3669 62.6188 34.9124 63.3638 34.3166C64.1459 33.6911 64.8173 32.9233 65.4071 32.1138C65.9881 31.3163 66.8558 29.5322 66.8558 29.5322C66.7661 30.3923 66.3574 32.7303 65.8132 34.2441C65.4144 35.3534 64.8392 36.4003 64.2038 37.3932C63.731 38.1319 63.248 38.896 62.5779 39.4618C62.1641 39.8111 61.6534 40.0371 61.1503 40.2374C59.6203 40.8468 57.9932 41.1976 56.3759 41.5087C53.9045 41.9843 51.3913 42.2493 48.8798 42.412C47.0946 42.5276 45.3017 42.5017 43.5132 42.4626C41.0823 42.4096 38.6493 42.3092 36.2292 42.0755C34.0609 41.8662 31.8944 41.5904 29.7574 41.1676C28.8065 40.9794 27.8691 40.7227 26.9405 40.4445C26.1203 40.1987 25.2444 40.0518 24.5112 39.6097C23.9814 39.2902 23.5577 38.8115 23.1587 38.3388C22.6445 37.7296 22.223 37.0433 21.837 36.3458C21.3319 35.4334 20.8469 34.4944 20.5458 33.496C20.1675 32.2419 19.918 29.617 19.918 29.617Z" fill="#F3F1EC"/>
<path d="M34.0381 11.1532C34.0381 11.1532 31.9222 7.7463 30.3791 6.52852C29.1374 5.54853 27.6519 4.40372 26.075 4.52955C25.0277 4.61311 24.1119 5.46733 23.4632 6.29363C22.3706 7.68511 21.9434 9.53154 21.6208 11.271C21.1801 13.6473 21.2431 16.1215 21.5321 18.521C21.5959 19.0501 21.9307 20.0692 21.9307 20.0692C21.9307 20.0692 23.0685 18.1403 24.6446 16.3901C25.5705 15.3619 26.5992 14.5013 27.7285 13.7594C28.7447 13.0919 29.8771 12.6115 31.0029 12.1525C31.9893 11.7504 34.0381 11.1532 34.0381 11.1532Z" fill="white"/>
<path d="M32.7466 11.5618C32.7466 11.5618 30.8286 8.65869 29.4348 7.68682C28.4834 7.02344 27.3239 6.35085 26.1713 6.4799C25.4495 6.56071 24.8127 7.11293 24.3454 7.66892C23.5127 8.65968 23.0822 9.97157 22.8179 11.2385C22.4047 13.2198 22.473 15.3091 22.7761 17.3102C22.8368 17.7107 23.144 18.4685 23.144 18.4685C23.144 18.4685 24.4347 16.4368 25.2716 15.5842C25.9993 14.8429 26.8548 14.2239 27.7447 13.6881C28.76 13.0768 29.8805 12.6568 30.9768 12.2067C31.5576 11.9682 32.7466 11.5618 32.7466 11.5618Z" fill="#F3F1EC"/>
<path d="M24.028 17.0897C24.028 16.8957 23.907 16.1472 23.8894 15.1778C23.8229 12.7858 24.461 8.34061 26.411 7.90444C26.8994 7.82975 27.4032 8.0713 27.838 8.30621C28.9208 8.89128 29.8163 9.80093 30.6228 10.7307C30.9564 11.1154 31.453 12.0132 31.453 12.0132C31.453 12.0132 29.9467 12.5922 29.2234 12.9473C28.5514 13.2773 27.8878 13.6329 27.2699 14.0556C26.6306 14.4931 26.0328 14.9931 25.4688 15.5242C24.9525 16.0104 24.028 17.0897 24.028 17.0897Z" fill="#FF8080"/>
<path d="M52.4287 10.7615C52.4287 10.7615 54.6452 7.29664 56.2381 6.05869C57.4964 5.0808 58.9899 3.93399 60.581 4.0598C61.6377 4.14337 62.5617 4.99754 63.2163 5.8238C64.3187 7.21523 64.7497 9.06157 65.0752 10.801C65.5199 13.1772 65.4574 15.6517 65.1647 18.0506C65.1066 18.5264 64.8017 19.442 64.8017 19.442C64.8017 19.442 64.3786 18.4145 62.7884 16.6643C61.8542 15.6362 60.7184 14.5453 59.5004 13.7203C58.2713 12.8878 56.8871 12.2975 55.5107 11.7412C54.5113 11.3372 52.4287 10.7615 52.4287 10.7615Z" fill="white"/>
<path d="M53.9453 11.1936C53.9453 11.1936 55.7807 8.24947 57.1394 7.24749C58.0668 6.56356 59.2001 5.86589 60.3442 5.96981C61.0607 6.03489 61.7034 6.57311 62.1783 7.11879C63.0247 8.09119 63.4798 9.39339 63.7692 10.6543C64.222 12.6261 64.2002 14.7164 63.9441 16.7236C63.8928 17.1253 63.6053 17.8896 63.6053 17.8896C63.6053 17.8896 62.2827 15.8865 61.4352 15.0523C60.6984 14.3271 59.8377 13.7268 58.9448 13.2105C57.926 12.6215 56.8074 12.226 55.7119 11.7998C55.1316 11.574 53.9453 11.1936 53.9453 11.1936Z" fill="#F3F1EC"/>
<path d="M62.7505 16.6156C62.7505 16.4217 62.8813 15.8228 62.8988 14.8537C62.9653 12.4631 62.3273 8.00419 60.3773 7.52594C59.8888 7.44071 59.385 7.67138 58.9503 7.89691C57.8674 8.45861 56.9768 9.3532 56.1655 10.2613C55.8036 10.6663 55.2568 11.614 55.2568 11.614C55.2568 11.614 56.8078 12.2954 57.5648 12.6746C58.1909 12.9883 58.8248 13.2944 59.4105 13.6782C60.0853 14.1203 60.7166 14.6298 61.3194 15.166C61.8268 15.6173 62.7505 16.6156 62.7505 16.6156Z" fill="#FF8080"/>
<path d="M43.4834 27.3792C43.4834 27.3792 41.4266 26.3959 41.4092 25.4524C41.4038 25.1569 41.7626 24.9371 42.0362 24.8254C42.8796 24.4811 43.9191 24.5251 44.769 24.8531C45.0625 24.9664 45.4688 25.1656 45.4743 25.4801C45.4905 26.3971 43.4834 27.3792 43.4834 27.3792Z" fill="#FF8080"/>
<path d="M43.4838 27.3794C43.4838 27.3794 43.6565 28.8773 44.086 29.4562C44.6016 30.1513 45.4134 30.7056 46.2628 30.8714C47.0504 31.0252 47.9438 30.8364 48.6265 30.4146C49.0646 30.144 49.3885 29.6958 49.5675 29.1893L50.0912 29.2285C49.9804 29.8771 49.592 30.4096 49.1272 30.8206C48.6909 31.2063 48.109 31.4482 47.5332 31.5358C46.796 31.6479 46.0015 31.5528 45.3122 31.2682C44.6236 30.9839 43.551 29.8924 43.551 29.8924C43.551 29.8924 42.6457 30.9037 42.0455 31.178C41.4861 31.4336 40.8325 31.5225 40.2212 31.4546C39.3583 31.3589 38.421 31.1099 37.7944 30.509C37.3953 30.1263 37.2487 29.702 37.1279 28.99L37.7138 29.0096C37.6676 29.2107 37.8144 29.5383 37.9612 29.7551C38.1832 30.0829 38.5032 30.3697 38.8691 30.5208C39.681 30.856 40.657 31.0005 41.4952 30.7379C42.1289 30.5394 42.6869 30.0375 43.0323 29.4703C43.4031 28.8612 43.4838 27.3794 43.4838 27.3794Z" fill="#FF8080"/>
<path d="M27.2363 22.1936C27.2363 22.1936 28.1057 20.4618 28.7354 19.7387C29.2787 19.1149 29.9084 18.5213 30.6558 18.1667C31.456 17.7869 32.3744 17.6216 33.26 17.6384C34.0939 17.6542 34.9486 17.8493 35.6914 18.2283C36.3961 18.5879 36.9894 19.1614 37.498 19.7673C38.1011 20.4858 38.9238 22.1936 38.9238 22.1936H38.22C38.22 22.1936 37.5142 20.8508 37.0354 20.2694C36.6022 19.7433 36.1327 19.206 35.5323 18.8836C34.8437 18.5138 34.0366 18.3319 33.255 18.3242C32.4316 18.3162 31.5771 18.4896 30.845 18.8664C30.1278 19.2354 29.5529 19.8555 29.0407 20.4786C28.6169 20.9942 28.0209 22.2017 28.0209 22.2017L27.2363 22.1936Z" fill="black"/>
<path d="M47.3672 22.5203C47.3672 22.5203 48.2366 20.7884 48.8663 20.0654C49.4096 19.4416 50.0393 18.848 50.7866 18.4933C51.5869 18.1136 52.5053 17.9482 53.3909 17.965C54.2247 17.9808 55.0794 18.1759 55.8223 18.555C56.527 18.9145 57.1203 19.488 57.6288 20.0939C58.2319 20.8125 59.0546 22.5203 59.0546 22.5203L58.3508 22.5203C58.3508 22.5203 57.6451 21.1775 57.1663 20.596C56.7331 20.07 56.2636 19.5327 55.6632 19.2103C54.9745 18.8404 54.1675 18.6585 53.3858 18.6509C52.5625 18.6428 51.708 18.8163 50.9759 19.193C50.2587 19.5621 49.6837 20.1822 49.1716 20.8052C48.7478 21.3209 48.1517 22.5284 48.1517 22.5284L47.3672 22.5203Z" fill="black"/>
<path d="M24.2171 43.5626C24.2171 43.5626 21.4098 47.4328 20.3376 49.5579C19.3694 51.477 18.6193 53.5158 18.0648 55.5925C17.4366 57.9451 17.0191 60.3709 16.8892 62.8025C16.7622 65.1799 16.9117 67.5822 17.2811 69.9342C17.5764 71.8152 18.0841 73.6685 18.731 75.4593C19.3921 77.2895 21.1997 80.7493 21.1997 80.7493L66.448 81.1411C66.448 81.1411 67.7645 77.2743 68.3423 75.3159C69.0556 72.8986 69.9657 70.5083 70.2821 68.0079C70.601 65.4874 70.5054 62.9113 70.2233 60.3864C69.9784 58.1942 69.4603 56.0295 68.8126 53.9209C68.3229 52.3268 67.7313 50.7512 66.9512 49.2774C65.8401 47.1784 64.7986 45.0707 62.9728 43.3667C62.9728 43.3667 60.8497 44.1599 59.7595 44.4639C58.3429 44.8589 56.8989 45.1582 55.449 45.4043C53.9081 45.6659 52.3525 45.846 50.7947 45.9725C48.5506 46.1548 46.2971 46.26 44.0456 46.2468C41.9231 46.2344 39.8015 46.0957 37.6868 45.9137C35.8291 45.7538 33.9722 45.553 32.1328 45.2476C29.4716 44.8057 24.2171 43.5626 24.2171 43.5626Z" fill="white"/>
<path d="M24.1784 39.5269C24.1784 39.5269 23.9982 40.8173 24.002 41.4665C24.0062 42.169 24.2175 43.5629 24.2175 43.5629C24.2175 43.5629 30.0221 44.9852 32.9758 45.4046C36.6071 45.9203 40.2804 46.2249 43.9481 46.2275C47.8642 46.2304 51.8053 46.0287 55.6649 45.3654C58.154 44.9377 60.5625 44.3129 62.9732 43.367C62.9732 43.367 63.0293 42.0864 62.9341 41.4567C62.8421 40.8487 62.4246 39.6836 62.4246 39.6836C62.4246 39.6836 57.2188 41.4037 54.5246 41.8455C51.0305 42.4184 47.4607 42.5006 43.9201 42.4605C39.7949 42.4138 35.651 42.1554 31.5837 41.4645C29.0682 41.0373 24.1784 39.5269 24.1784 39.5269Z" fill="#FF8080"/>
<path d="M43.2445 57.6682C47.0449 57.6682 50.1258 54.5874 50.1258 50.7872C50.1258 46.987 47.0449 43.9062 43.2445 43.9062C39.4441 43.9062 36.3633 46.987 36.3633 50.7872C36.3633 54.5874 39.4441 57.6682 43.2445 57.6682Z" fill="#FFE680"/>
<path d="M36.5738 52.0889L49.9295 52.172L50.3729 52.1443C50.3729 52.1443 50.87 51.1703 50.8439 50.6481C50.8193 50.1563 50.262 49.2904 50.262 49.2904L36.2967 49.041C36.2967 49.041 35.675 49.9836 35.6317 50.5234C35.5889 51.0571 36.0474 52.0751 36.0474 52.0751L36.5738 52.0889Z" fill="#FFD42A"/>
<path d="M23.7453 76.4781C22.9099 76.8828 22.1937 77.7296 21.9819 78.6333C21.7952 79.4301 22.0625 80.355 22.5305 81.0264C22.9414 81.6159 23.6624 81.9533 24.3353 82.2053C26.4738 83.0062 28.8373 83.1633 31.1208 83.148C33.4912 83.132 35.9532 82.9634 38.1509 82.0749C38.8135 81.807 39.4989 81.4261 39.8997 80.8344C40.3475 80.1734 40.6475 79.2827 40.4618 78.5062C40.2293 77.5337 39.4264 76.6351 38.5148 76.224C34.0262 74.1999 28.1766 74.3315 23.7453 76.4781Z" fill="white"/>
<path d="M23.1772 76.7832C23.1772 76.7832 22.638 77.9062 22.6785 78.5011C22.7155 79.0456 22.9664 79.6027 23.3435 79.9973C23.8144 80.4901 24.5252 80.6977 25.1723 80.9117C26.1786 81.2445 27.249 81.3583 28.3034 81.4659C29.6088 81.599 30.9276 81.641 32.2382 81.5767C33.4843 81.5156 34.7416 81.4112 35.9512 81.1057C36.796 80.8922 37.6718 80.6575 38.3896 80.1636C38.8098 79.8744 39.1903 79.4855 39.4148 79.0275C39.576 78.699 39.6303 78.3123 39.6088 77.9469C39.5826 77.5036 39.2209 76.6724 39.2209 76.6724C39.2209 76.6724 40.1416 77.517 40.3292 78.0855C40.5407 78.726 40.5001 79.4728 40.2738 80.1082C40.0861 80.6355 39.6924 81.0971 39.2486 81.4381C38.4705 82.036 37.48 82.3173 36.5331 82.5742C35.3278 82.9011 34.0653 82.979 32.82 83.0729C31.7423 83.1542 30.6568 83.1948 29.5781 83.1283C28.1257 83.0389 26.6566 82.9114 25.2554 82.5188C24.4905 82.3044 23.6861 82.0736 23.0664 81.5767C22.5864 81.1918 22.1621 80.6699 21.9857 80.0805C21.8055 79.4782 21.8506 78.7859 22.0689 78.1963C22.2767 77.6349 23.1772 76.7832 23.1772 76.7832Z" fill="#F3F1EC"/>
<path d="M48.9621 76.9483C48.1267 77.353 47.4105 78.1998 47.1987 79.1035C47.0119 79.9003 47.2793 80.8252 47.7473 81.4966C48.1582 82.0861 48.8792 82.4235 49.5521 82.6755C51.6906 83.4764 54.0541 83.6335 56.3376 83.6182C58.708 83.6022 61.17 83.4336 63.3677 82.5451C64.0303 82.2772 64.7157 81.8963 65.1165 81.3046C65.5643 80.6436 65.8643 79.7529 65.6786 78.9765C65.4461 78.0039 64.6432 77.1053 63.7316 76.6942C59.243 74.6701 53.3933 74.8017 48.9621 76.9483Z" fill="white"/>
<path d="M48.4331 77.2754C48.4331 77.2754 47.8939 78.3984 47.9343 78.9933C47.9713 79.5378 48.2223 80.0949 48.5993 80.4895C49.0702 80.9823 49.7811 81.1899 50.4282 81.4039C51.4345 81.7367 52.5048 81.8505 53.5593 81.958C54.8646 82.0912 56.1835 82.1332 57.494 82.0689C58.7401 82.0078 59.9974 81.9034 61.2071 81.5978C62.0519 81.3844 62.9276 81.1497 63.6455 80.6558C64.0657 80.3666 64.4461 79.9777 64.6707 79.5197C64.8318 79.1911 64.8862 78.8045 64.8647 78.4391C64.8385 77.9958 64.4767 77.1646 64.4767 77.1646C64.4767 77.1646 65.3974 78.0092 65.5851 78.5777C65.7965 79.2181 65.7559 79.9649 65.5297 80.6004C65.3419 81.1277 64.9483 81.5893 64.5044 81.9303C63.7264 82.5281 62.7359 82.8095 61.7889 83.0664C60.5837 83.3933 59.3211 83.4712 58.0759 83.5651C56.9981 83.6464 55.9127 83.687 54.8339 83.6205C53.3815 83.5311 51.9124 83.4036 50.5113 83.0109C49.7464 82.7966 48.942 82.5658 48.3222 82.0689C47.8423 81.684 47.4179 81.1621 47.2416 80.5726C47.0614 79.9704 47.1064 79.278 47.3247 78.6885C47.5326 78.1271 48.4331 77.2754 48.4331 77.2754Z" fill="#F3F1EC"/>
<path d="M11.0998 23.343C11.6401 23.3285 12.1854 23.1698 12.7189 23.256C13.4136 23.3683 14.0824 23.6626 14.684 24.0276C15.1693 24.3221 15.6535 24.6738 15.9681 25.1463C16.312 25.6631 16.4265 26.3064 16.5548 26.9137C16.6497 27.3629 16.6551 27.8267 16.6865 28.2848C16.7221 28.8033 16.7255 29.3234 16.7508 29.8425C16.7747 30.3323 16.8002 30.822 16.8335 31.3112C16.8673 31.8076 16.9097 32.3032 16.9522 32.7989C17.0595 34.0493 17.2961 36.5482 17.2961 36.5482C17.2961 36.5482 17.438 38.3387 17.7275 39.1788C17.9404 39.7967 18.2821 40.3719 18.6694 40.8983C19.0763 41.4514 19.547 41.9733 20.0998 42.3807C20.6369 42.7765 21.2485 43.0886 21.8872 43.2816C22.6363 43.5079 23.5044 43.4735 24.218 43.5626C24.218 43.5626 22.719 45.658 22.0248 46.7425C21.3982 47.7215 20.7573 48.698 20.2471 49.7424C19.4536 51.3667 18.7982 53.0632 18.2663 54.7908C17.9005 55.9789 17.4401 58.4274 17.4401 58.4274C16.2121 58.3989 15.0791 58.088 13.9851 57.6433C12.7878 57.1567 11.5969 56.5287 10.6776 55.6204C9.40103 54.3592 8.47154 52.7315 7.81358 51.062C7.39144 49.9909 7.31451 48.8113 7.16171 47.6702C7.00891 46.5291 6.97057 45.3755 6.89825 44.2264C6.67264 40.642 6.36658 33.4651 6.36658 33.4651C6.36658 33.4651 6.11837 29.6128 6.42812 27.7243C6.54537 27.0094 6.71441 26.2707 7.10024 25.6576C7.47873 25.0561 8.03552 24.555 8.64278 24.1859C9.38266 23.7362 10.2474 23.495 11.0998 23.343Z" fill="#F3F1EC"/>
<path d="M6.38789 27.34C6.68443 28.1174 7.35299 28.7645 8.07292 29.1817C8.97634 29.7053 10.0872 29.8048 11.1295 29.8675C11.8437 29.9104 12.5665 29.8063 13.2652 29.6519C13.9065 29.5102 14.5843 29.3761 15.1265 29.0054C15.7499 28.5792 16.384 28.006 16.596 27.2812C16.7441 26.7751 16.6003 26.1932 16.3805 25.7138C16.072 25.0408 15.5221 24.4663 14.911 24.0485C14.285 23.6205 13.5208 23.4037 12.7753 23.2648C12.0143 23.1229 11.2233 23.1475 10.4531 23.2255C9.88411 23.2831 9.30992 23.3871 8.77828 23.5978C8.29098 23.791 7.81799 24.0527 7.42634 24.4011C7.00862 24.7727 6.58998 25.205 6.40748 25.7334C6.23265 26.2397 6.19701 26.8396 6.38789 27.34Z" fill="white"/>
<path d="M62.3071 80.5811C62.3071 80.5811 62.7616 79.3691 62.6326 78.7162C62.5662 78.3799 62.0879 77.7676 62.0879 77.7676L61.6094 78.4392L62.3071 80.5811Z" fill="#DEAA87"/>
<path d="M54.9071 81.1377C54.9071 81.1377 55.6479 80.0357 55.6522 79.4289C55.6547 79.0714 55.2272 78.4229 55.2272 78.4229L54.5967 79.1046L54.9071 81.1377Z" fill="#DEAA87"/>
<path d="M58.5435 81.0696C58.5435 81.0696 59.0627 79.8604 58.9492 79.2531C58.8857 78.9135 58.3642 78.354 58.3642 78.354L57.8633 79.0963L58.5435 81.0696Z" fill="#DEAA87"/>
<path d="M51.1888 80.8233C51.1888 80.8233 52.001 79.5167 51.9953 78.8476C51.9923 78.527 51.5935 78.0015 51.5935 78.0015L50.9531 78.7761L51.1888 80.8233Z" fill="#DEAA87"/>
<path d="M14.9628 28.6597C14.9628 28.6597 15.0945 27.4562 14.8803 26.9146C14.77 26.6358 14.2966 26.23 14.2966 26.23L14.0508 26.9617L14.9628 28.6597Z" fill="#DEAA87"/>
<path d="M9.99413 28.9011C9.99413 28.9011 10.6273 27.9211 10.6576 27.3639C10.6755 27.0355 10.3673 26.4209 10.3673 26.4209L9.83984 27.0195L9.99413 28.9011Z" fill="#DEAA87"/>
<path d="M12.3402 28.9481C12.3402 28.9481 12.8033 27.8599 12.7408 27.2971C12.7059 26.9823 12.3196 26.4453 12.3196 26.4453L11.8916 27.1053L12.3402 28.9481Z" fill="#DEAA87"/>
<path d="M7.71973 28.3839C7.71973 28.3839 8.60831 27.471 8.74531 26.8798C8.81094 26.5966 8.62102 26.0166 8.62102 26.0166L7.97444 26.5113L7.71973 28.3839Z" fill="#DEAA87"/>
<path d="M60.3887 23.818L78.172 31.7261C78.172 31.7261 79.6116 32.565 80.1393 33.189C80.8387 34.0161 81.4011 35.0213 81.6182 36.0825C81.8102 37.0209 81.4204 38.9491 81.4204 38.9491L64.0579 77.7733C64.0579 77.7733 63.0654 79.1144 62.3577 79.5076C61.4179 80.03 60.2834 80.1639 59.2091 80.2089C58.2012 80.2512 56.2105 79.8005 56.2105 79.8005L38.9306 72.1564C38.9306 72.1564 37.0007 70.8561 36.2984 69.9527C35.6574 69.1282 35.1753 68.1466 34.9416 67.1287C34.7467 66.28 34.9325 64.5164 34.9325 64.5164L52.2122 26.0546C52.2122 26.0546 53.7233 24.3107 54.7278 23.8034C55.6779 23.3236 56.7899 23.125 57.854 23.1524C58.7272 23.1749 60.3887 23.818 60.3887 23.818Z" fill="#D4AA00"/>
<path d="M60.8266 25.7515L76.5064 32.7213C76.5064 32.7213 77.7716 33.4699 78.2288 34.0382C78.8347 34.7914 79.3148 35.7128 79.486 36.6934C79.6375 37.5605 79.25 39.3586 79.25 39.3586L62.9689 75.7621C62.9689 75.7621 62.0565 77.0278 61.4178 77.4077C60.5695 77.9122 59.5559 78.0602 58.5977 78.1245C57.6988 78.1847 55.9344 77.808 55.9344 77.808L40.6976 71.0727C40.6976 71.0727 39.0053 69.906 38.3984 69.082C37.8445 68.33 37.4354 67.4288 37.2485 66.4888C37.0926 65.7051 37.2949 64.064 37.2949 64.064L53.4946 27.9986C53.4946 27.9986 54.8775 26.3481 55.783 25.8562C56.6396 25.391 57.6345 25.1834 58.5821 25.1866C59.3597 25.1892 60.8266 25.7515 60.8266 25.7515Z" fill="url(#paint0_linear_2307_2)"/>
<path d="M66.1982 33.9496C66.6466 33.94 67.1818 34.1159 67.4308 34.4889C67.6271 34.7828 67.451 35.5491 67.451 35.5491L51.6749 69.1848C51.6749 69.1848 51.0465 69.7051 50.6688 69.7064C50.2323 69.7077 49.7475 69.473 49.5021 69.1122C49.3136 68.8349 49.4069 68.1108 49.4069 68.1108L65.3542 34.3629C65.3542 34.3629 65.885 33.9563 66.1982 33.9496Z" fill="#FFEEAA"/>
<path d="M59.3743 39.5181C59.9028 39.3903 60.4643 39.357 61.0032 39.4301C61.5983 39.5108 62.1514 39.7859 62.7113 40.0029C63.4587 40.2926 64.2259 40.5583 64.9111 40.9742C65.4613 41.3082 66.0104 41.6835 66.4181 42.1815C66.8942 42.7629 67.271 43.4553 67.4527 44.1845C67.6052 44.7968 67.5463 45.4505 67.4747 46.0774C67.4044 46.6927 67.0345 47.8823 67.0345 47.8823L66.8666 48.5712C66.8666 48.5712 66.9445 49.4339 67.2326 49.7092C67.414 49.8827 67.7089 49.9283 67.959 49.9073C68.2822 49.8803 68.8421 49.4988 68.8421 49.4988L69.4558 48.2125C69.4558 48.2125 70.0671 46.6417 70.1381 45.8133C70.1974 45.1223 70.0741 44.42 69.918 43.7443C69.7582 43.0523 69.5085 42.3769 69.1916 41.7413C68.9456 41.2477 68.6418 40.7786 68.2891 40.3546C67.8942 39.8798 67.4347 39.456 66.9464 39.0779C66.6672 38.8617 66.3572 38.6867 66.0474 38.5172C65.3557 38.139 64.6507 37.7755 63.911 37.5027C63.2116 37.2448 62.4874 37.0408 61.7516 36.9209C61.0261 36.8026 60.283 36.729 59.5504 36.7888C58.7556 36.8536 57.9433 36.9875 57.2171 37.317C56.3658 37.7034 55.5769 38.2744 54.9499 38.9679C54.3744 39.6045 53.9732 40.3955 53.6512 41.191C53.3508 41.9333 53.1482 42.7264 53.0789 43.5241C53.0127 44.2861 53.0965 45.0608 53.233 45.8133C53.3696 46.567 53.5793 47.3157 53.8933 48.0144C54.1337 48.5493 54.4805 49.0315 54.8178 49.5111C55.1363 49.9638 55.4862 50.3948 55.8524 50.8098C56.2021 51.2061 56.5893 51.5677 56.9601 51.9444C57.5489 52.5427 58.1737 53.1069 58.734 53.732C59.1007 54.1412 59.4524 54.5658 59.7705 55.0139C60.1253 55.5136 60.4865 56.0182 60.7391 56.5767C61.0202 57.1984 61.268 57.8564 61.3334 58.5356C61.4019 59.2478 61.2962 59.979 61.1133 60.6707C60.9595 61.2519 60.737 61.8328 60.3869 62.3215C60.1086 62.7099 59.7514 63.0644 59.3303 63.29C58.8174 63.5649 58.213 63.638 57.6354 63.7082C57.1838 63.7631 56.721 63.7721 56.2706 63.7082C55.6317 63.6177 55.0088 63.4133 54.411 63.1702C53.6366 62.8554 52.8906 62.458 52.199 61.9884C51.6739 61.632 51.1393 61.2565 50.7456 60.7588C50.4139 60.3393 50.2001 59.8314 50.0192 59.328C49.8032 58.7266 49.6579 58.0936 49.601 57.4571C49.5539 56.9305 49.5933 56.3959 49.6671 55.8723C49.7408 55.349 49.9519 54.8525 50.0413 54.3315C50.1024 53.9754 50.1512 53.253 50.1512 53.253C50.1512 53.253 49.8578 52.5793 49.557 52.4166C49.2212 52.2349 48.7421 52.1801 48.4124 52.3726C48.1771 52.5099 48.038 53.099 48.038 53.099C48.038 53.099 47.5402 54.2096 47.3778 54.7938C47.2044 55.4179 47.1029 56.0634 47.0476 56.7087C46.9832 57.4617 46.9128 58.2323 47.0476 58.9759C47.193 59.7777 47.5156 60.5497 47.9061 61.265C48.1473 61.7068 48.4794 62.0949 48.8086 62.4756C49.1615 62.8837 49.5416 63.2713 49.9532 63.6202C50.3303 63.9398 50.7337 64.2318 51.1597 64.4826C51.8591 64.8946 52.6074 65.2214 53.3587 65.5285C53.9068 65.7525 54.4632 65.9654 55.038 66.1074C55.5064 66.2232 55.9866 66.3092 56.4687 66.3275C57.0423 66.3493 57.6204 66.2955 58.1857 66.1955C58.801 66.0866 59.4168 65.9365 59.9906 65.6892C60.4228 65.503 60.8226 65.2423 61.2013 64.9629C61.6612 64.6235 62.1215 64.265 62.478 63.8183C62.8549 63.3459 63.1255 62.7911 63.3585 62.2335C63.55 61.775 63.6535 61.2841 63.7767 60.8028C63.8698 60.4389 63.9829 60.0761 64.0188 59.7022C64.075 59.1178 64.0743 58.52 63.9748 57.9414C63.8466 57.1959 63.5686 56.4794 63.2704 55.7843C63.0207 55.202 62.6926 54.6555 62.3679 54.1114C62.0666 53.6064 61.7624 53.0994 61.3994 52.6367C61.0072 52.1368 60.535 51.7053 60.101 51.2412C59.4906 50.5884 58.8621 49.9523 58.2646 49.2876C57.8388 48.8138 57.3776 48.3648 57.019 47.8383C56.6033 47.228 56.1697 46.5942 55.9845 45.8793C55.8114 45.2116 55.8507 44.4943 55.9405 43.8103C56.0399 43.0529 56.2197 42.2835 56.5788 41.6092C56.853 41.0943 57.2361 40.6184 57.7014 40.2665C58.1886 39.898 58.7805 39.6618 59.3743 39.5181Z" fill="#FFEEAA"/>
<path d="M79.7717 43.8503C79.1412 43.5636 78.3545 43.6557 77.6938 43.8637C76.7356 44.1654 75.8792 44.8228 75.2126 45.5745C74.3119 46.5901 73.7534 47.8937 73.3183 49.1795C72.8952 50.4297 72.4757 51.7749 72.6531 53.0828C72.7454 53.764 72.9696 54.5499 73.5285 54.9503C74.1055 55.3635 74.9413 55.2803 75.6446 55.1854C76.5547 55.0626 77.5383 54.7989 78.2042 54.1666C79.9512 52.5077 80.858 49.9804 81.2206 47.5987C81.3436 46.7915 81.2398 45.915 80.9072 45.1692C80.6708 44.6394 80.2998 44.0905 79.7717 43.8503Z" fill="white"/>
<path d="M72.679 51.7424C72.679 51.7424 72.9322 52.825 73.3163 53.1832C73.7041 53.5448 74.2828 53.7003 74.8126 53.7235C75.5333 53.7551 76.2658 53.5045 76.9046 53.1693C77.7225 52.7401 78.4244 52.0822 79.0105 51.3683C79.5852 50.6684 80.0209 49.8466 80.3406 48.9993C80.6222 48.2527 80.791 47.4544 80.8393 46.6579C80.8803 45.9823 80.6592 44.6353 80.6592 44.6353C80.6592 44.6353 81.0971 45.5624 81.1718 46.0622C81.3284 47.1093 81.2336 48.1979 81.0194 49.2348C80.8547 50.0319 80.5375 50.7993 80.1605 51.5207C79.7083 52.3858 79.2035 53.2569 78.4979 53.9313C77.9625 54.4431 77.3189 54.8826 76.6137 55.1089C75.9087 55.3351 75.1177 55.4168 74.3969 55.2474C73.9296 55.1377 73.458 54.8952 73.15 54.527C72.8097 54.1203 72.6871 53.5554 72.6097 53.0308C72.5469 52.6053 72.679 51.7424 72.679 51.7424Z" fill="#F3F1EC"/>
<path d="M73.5205 51.2961C73.5205 51.2961 74.5282 51.9673 75.1076 52.0266C75.4059 52.0571 75.9842 51.8237 75.9842 51.8237L75.4478 51.2686L73.5205 51.2961Z" fill="#DEAA87"/>
<path d="M75.5947 46.7739C75.5947 46.7739 76.173 47.7872 76.6537 48.0708C76.937 48.2379 77.6245 48.2474 77.6245 48.2474L77.336 47.5035L75.5947 46.7739Z" fill="#DEAA87"/>
<path d="M74.4727 48.8345C74.4727 48.8345 75.2254 49.7467 75.7538 49.9504C76.0493 50.0644 76.7038 49.9688 76.7038 49.9688L76.3151 49.285L74.4727 48.8345Z" fill="#DEAA87"/>
<path d="M77.1016 44.9937C77.1016 44.9937 77.5027 46.2028 77.9644 46.5966C78.1855 46.7853 78.7879 46.8839 78.7879 46.8839L78.6466 46.0821L77.1016 44.9937Z" fill="#DEAA87"/>
<path d="M36.7642 80.3203C36.7642 80.3203 37.2471 79.1194 37.1336 78.4636C37.0751 78.1259 36.6114 77.5024 36.6114 77.5024L36.1172 78.1626L36.7642 80.3203Z" fill="#DEAA87"/>
<path d="M29.3522 80.7021C29.3522 80.7021 30.1188 79.6179 30.1374 79.0114C30.1484 78.654 29.7363 77.9956 29.7363 77.9956L29.0898 78.6623L29.3522 80.7021Z" fill="#DEAA87"/>
<path d="M32.989 80.7201C32.989 80.7201 33.5365 79.5234 33.4374 78.9137C33.3819 78.5727 32.8738 78.001 32.8738 78.001L32.3555 78.7313L32.989 80.7201Z" fill="#DEAA87"/>
<path d="M25.6423 80.3002C25.6423 80.3002 26.4852 79.0132 26.4952 78.3441C26.5001 78.0236 26.1136 77.4888 26.1136 77.4888L25.4551 78.2481L25.6423 80.3002Z" fill="#DEAA87"/>
<defs>
<linearGradient id="paint0_linear_2307_2" x1="37.1895" y1="51.6588" x2="79.5212" y2="51.6588" gradientUnits="userSpaceOnUse">
<stop stop-color="#FFDD55"/>
<stop offset="1" stop-color="#FFDD55" stop-opacity="0"/>
</linearGradient>
</defs>
</svg>
