<svg width="28" height="28" viewBox="0 0 28 28" fill="none" xmlns="http://www.w3.org/2000/svg">
<g clip-path="url(#clip0_2123_2)">
<path fill-rule="evenodd" clip-rule="evenodd" d="M4.49559 0.855592L4.39381 0.855531C3.93184 0.85509 3.5336 0.85471 3.1808 0.939413C2.07168 1.20568 1.20568 2.07168 0.939413 3.1808C0.85471 3.5336 0.85509 3.93184 0.855531 4.39381L0.855592 4.49559V9.34893L0.855531 9.4507C0.85509 9.91268 0.85471 10.3109 0.939413 10.6637C1.20568 11.7728 2.07168 12.6388 3.1808 12.9051C3.5336 12.9898 3.93184 12.9894 4.39381 12.989L4.49559 12.9889H9.34893L9.4507 12.989C9.91268 12.9894 10.3109 12.9898 10.6637 12.9051C11.7728 12.6388 12.6388 11.7728 12.9051 10.6637C12.9898 10.3109 12.9894 9.91268 12.989 9.4507L12.9889 9.34893V4.49559L12.989 4.39381C12.9894 3.93184 12.9898 3.5336 12.9051 3.1808C12.6388 2.07168 11.7728 1.20568 10.6637 0.939413C10.3109 0.85471 9.91268 0.85509 9.4507 0.855531L9.34893 0.855592H4.49559ZM3.65289 2.90576C3.73993 2.88485 3.87319 2.87781 4.49559 2.87781H9.34893C9.97134 2.87781 10.1046 2.88485 10.1916 2.90576C10.5613 2.99452 10.85 3.28317 10.9388 3.65289C10.9597 3.73993 10.9667 3.87319 10.9667 4.49559V9.34893C10.9667 9.97134 10.9597 10.1046 10.9388 10.1916C10.85 10.5613 10.5613 10.85 10.1916 10.9388C10.1046 10.9597 9.97134 10.9667 9.34893 10.9667H4.49559C3.87319 10.9667 3.73993 10.9597 3.65289 10.9388C3.28317 10.85 2.99452 10.5613 2.90576 10.1916C2.88485 10.1046 2.87781 9.97134 2.87781 9.34893V4.49559C2.87781 3.87319 2.88485 3.73993 2.90576 3.65289C2.99452 3.28317 3.28317 2.99452 3.65289 2.90576ZM18.6511 0.855592L18.5494 0.855531C18.0874 0.85509 17.6892 0.85471 17.3364 0.939413C16.2272 1.20568 15.3612 2.07168 15.095 3.1808C15.0103 3.5336 15.0106 3.93184 15.0111 4.39381L15.0111 4.49559V9.34893L15.0111 9.4507C15.0106 9.91268 15.0103 10.3109 15.095 10.6637C15.3612 11.7728 16.2272 12.6388 17.3364 12.9051C17.6892 12.9898 18.0874 12.9894 18.5494 12.989L18.6511 12.9889H23.5045L23.6062 12.989C24.0683 12.9894 24.4665 12.9898 24.8193 12.9051C25.9283 12.6388 26.7944 11.7728 27.0608 10.6637C27.1453 10.3109 27.1451 9.91268 27.1445 9.4507V9.34893V4.49559V4.39381C27.1451 3.93184 27.1453 3.5336 27.0608 3.1808C26.7944 2.07168 25.9283 1.20568 24.8193 0.939413C24.4665 0.85471 24.0683 0.85509 23.6062 0.855531L23.5045 0.855592H18.6511ZM17.8084 2.90576C17.8955 2.88485 18.0287 2.87781 18.6511 2.87781H23.5045C24.1269 2.87781 24.2602 2.88485 24.3471 2.90576C24.7168 2.99452 25.0056 3.28317 25.0944 3.65289C25.1152 3.73993 25.1223 3.87319 25.1223 4.49559V9.34893C25.1223 9.97134 25.1152 10.1046 25.0944 10.1916C25.0056 10.5613 24.7168 10.85 24.3471 10.9388C24.2602 10.9597 24.1269 10.9667 23.5045 10.9667H18.6511C18.0287 10.9667 17.8955 10.9597 17.8084 10.9388C17.4387 10.85 17.1501 10.5613 17.0613 10.1916C17.0404 10.1046 17.0334 9.97134 17.0334 9.34893V4.49559C17.0334 3.87319 17.0404 3.73993 17.0613 3.65289C17.1501 3.28317 17.4387 2.99452 17.8084 2.90576ZM4.39381 15.0111L4.49559 15.0111H9.34893L9.4507 15.0111C9.91268 15.0106 10.3109 15.0103 10.6637 15.095C11.7728 15.3612 12.6388 16.2272 12.9051 17.3364C12.9898 17.6892 12.9894 18.0874 12.989 18.5494L12.9889 18.6511V23.5045L12.989 23.6062C12.9894 24.0683 12.9898 24.4665 12.9051 24.8193C12.6388 25.9283 11.7728 26.7944 10.6637 27.0608C10.3109 27.1453 9.91268 27.1451 9.4507 27.1445H9.34893H4.49559H4.39381C3.93184 27.1451 3.5336 27.1453 3.1808 27.0608C2.07168 26.7944 1.20568 25.9283 0.939413 24.8193C0.85471 24.4665 0.85509 24.0683 0.855531 23.6062L0.855592 23.5045V18.6511L0.855531 18.5494C0.85509 18.0874 0.85471 17.6892 0.939413 17.3364C1.20568 16.2272 2.07168 15.3612 3.1808 15.095C3.5336 15.0103 3.93184 15.0106 4.39381 15.0111ZM4.49559 17.0334C3.87319 17.0334 3.73993 17.0404 3.65289 17.0613C3.28317 17.1501 2.99452 17.4387 2.90576 17.8084C2.88485 17.8955 2.87781 18.0287 2.87781 18.6511V23.5045C2.87781 24.1269 2.88485 24.2602 2.90576 24.3471C2.99452 24.7168 3.28317 25.0056 3.65289 25.0944C3.73993 25.1152 3.87319 25.1223 4.49559 25.1223H9.34893C9.97134 25.1223 10.1046 25.1152 10.1916 25.0944C10.5613 25.0056 10.85 24.7168 10.9388 24.3471C10.9597 24.2602 10.9667 24.1269 10.9667 23.5045V18.6511C10.9667 18.0287 10.9597 17.8955 10.9388 17.8084C10.85 17.4387 10.5613 17.1501 10.1916 17.0613C10.1046 17.0404 9.97134 17.0334 9.34893 17.0334H4.49559ZM18.6511 15.0111L18.5494 15.0111C18.0874 15.0106 17.6892 15.0103 17.3364 15.095C16.2272 15.3612 15.3612 16.2272 15.095 17.3364C15.0103 17.6892 15.0106 18.0874 15.0111 18.5494L15.0111 18.6511V23.5045L15.0111 23.6062C15.0106 24.0683 15.0103 24.4665 15.095 24.8193C15.3612 25.9283 16.2272 26.7944 17.3364 27.0608C17.6892 27.1453 18.0874 27.1451 18.5494 27.1445H18.6511H23.5045H23.6062C24.0683 27.1451 24.4665 27.1453 24.8193 27.0608C25.9283 26.7944 26.7944 25.9283 27.0608 24.8193C27.1453 24.4665 27.1451 24.0683 27.1445 23.6062V23.5045V18.6511V18.5494C27.1451 18.0874 27.1453 17.6892 27.0608 17.3364C26.7944 16.2272 25.9283 15.3612 24.8193 15.095C24.4665 15.0103 24.0683 15.0106 23.6062 15.0111L23.5045 15.0111H18.6511ZM17.8084 17.0613C17.8955 17.0404 18.0287 17.0334 18.6511 17.0334H23.5045C24.1269 17.0334 24.2602 17.0404 24.3471 17.0613C24.7168 17.1501 25.0056 17.4387 25.0944 17.8084C25.1152 17.8955 25.1223 18.0287 25.1223 18.6511V23.5045C25.1223 24.1269 25.1152 24.2602 25.0944 24.3471C25.0056 24.7168 24.7168 25.0056 24.3471 25.0944C24.2602 25.1152 24.1269 25.1223 23.5045 25.1223H18.6511C18.0287 25.1223 17.8955 25.1152 17.8084 25.0944C17.4387 25.0056 17.1501 24.7168 17.0613 24.3471C17.0404 24.2602 17.0334 24.1269 17.0334 23.5045V18.6511C17.0334 18.0287 17.0404 17.8955 17.0613 17.8084C17.1501 17.4387 17.4387 17.1501 17.8084 17.0613Z" fill="#ADADAD"/>
</g>
<defs>
<clipPath id="clip0_2123_2">
<rect width="28" height="28" fill="white"/>
</clipPath>
</defs>
</svg>
