<svg width="41" height="40" viewBox="0 0 41 40" fill="none" xmlns="http://www.w3.org/2000/svg">
<circle cx="20.0664" cy="20.0015" r="20" fill="#6D73FF"/>
<g clip-path="url(#clip0_2480_42)">
<path d="M19.0185 19.4075C19.2024 19.2493 19.4633 19.1466 19.8055 19.121V21.0841C19.3863 20.9516 19.0998 20.7976 18.9415 20.665C18.7833 20.5067 18.7063 20.3228 18.7063 20.0619C18.7319 19.801 18.8346 19.5915 19.0185 19.4075ZM26.6875 13.0987C26.3453 11.8412 25.353 11.3708 24.2024 11.6873L14.0442 14.4075H27.0296L26.6875 13.0987ZM30.0664 17.6539V26.3964C30.0664 27.5213 29.1768 28.411 28.0519 28.411H12.0809C10.9561 28.411 10.0664 27.5213 10.0664 26.3964V17.6539C10.0664 16.529 10.9561 15.6394 12.0809 15.6394H28.0476C29.1511 15.6393 30.0664 16.5547 30.0664 17.6539ZM23.1032 23.6205C23.1032 22.9661 22.8937 22.47 22.4744 22.1021C22.0553 21.7342 21.4265 21.4734 20.5626 21.2894H20.5369V19.1679C21.1143 19.2449 21.6618 19.4802 22.1579 19.8223L22.8893 18.7744C22.1579 18.2783 21.3709 17.9874 20.5326 17.9361V17.3587H19.8012V17.9104C19.0698 17.9361 18.4924 18.1714 18.0219 18.5905C17.5771 19.0097 17.3419 19.5315 17.3419 20.1859C17.3419 20.8403 17.5514 21.3365 17.9449 21.653C18.3384 21.9951 18.9672 22.2561 19.8055 22.4656V24.6641C19.1254 24.5614 18.4967 24.2193 17.8423 23.6675L17.004 24.6641C17.8166 25.3698 18.7576 25.789 19.7798 25.8959V26.7343H20.5112V25.9217C21.2682 25.8959 21.8969 25.6607 22.3718 25.2416C22.8679 24.801 23.1032 24.2749 23.1032 23.6205ZM20.5369 22.6539V24.6941C20.9048 24.6684 21.1913 24.5614 21.4009 24.3818C21.6104 24.1979 21.7131 23.9883 21.7131 23.7274C21.7131 23.4664 21.6361 23.2569 21.4779 23.0987C21.2982 22.9405 21.0074 22.7865 20.5369 22.6539Z" fill="white"/>
</g>
<defs>
<clipPath id="clip0_2480_42">
<rect width="20" height="20" fill="white" transform="translate(10.0664 10.0015)"/>
</clipPath>
</defs>
</svg>
