<svg width="30" height="31" viewBox="0 0 30 31" fill="none" xmlns="http://www.w3.org/2000/svg">
<path d="M15.4057 9.89258C13.8385 9.89258 12.5679 9.89258 12.5679 12.2323V27.8275C12.5679 30.1672 13.8385 30.1672 15.4057 30.1672C16.973 30.1672 18.2435 30.1672 18.2435 27.8275V12.2323C18.2435 9.89258 16.973 9.89258 15.4057 9.89258Z" fill="url(#paint0_linear_1252_162)"/>
<path d="M15.5 1C14.5783 1 13.6774 1.37333 13.0243 2.02433C12.3733 2.67533 12 3.57833 12 4.5C12 5.42167 12.3733 6.32233 13.0243 6.97567C13.6753 7.62667 14.5783 8 15.5 8C16.4217 8 17.3223 7.62667 17.9754 6.97567C18.6264 6.32233 19 5.42167 19 4.5C19 3.57833 18.6264 2.67533 17.9754 2.02433C17.3223 1.3731 16.4217 1 15.5 1Z" fill="url(#paint1_linear_1252_162)"/>
<defs>
<linearGradient id="paint0_linear_1252_162" x1="15.4057" y1="9.89258" x2="15.4057" y2="30.1672" gradientUnits="userSpaceOnUse">
<stop stop-color="#FFAEE8"/>
<stop offset="1" stop-color="#F53939"/>
</linearGradient>
<linearGradient id="paint1_linear_1252_162" x1="15.5" y1="1" x2="15.5" y2="8" gradientUnits="userSpaceOnUse">
<stop stop-color="#FFAEE8"/>
<stop offset="1" stop-color="#F53939"/>
</linearGradient>
</defs>
</svg>
