<svg width="35" height="35" viewBox="0 0 35 35" fill="none" xmlns="http://www.w3.org/2000/svg">
<path d="M25.458 6.4165C20.7117 6.4165 16.9936 7.93542 16.9936 10.4506V11.0687C15.9591 11.1301 15.455 11.0836 13.6203 12.0803C12.3182 11.6507 11.2203 11.7051 9.54216 11.7051C4.79598 11.7051 1.07812 13.6753 1.07812 16.1903V18.8095V21.4787V24.0981C1.07812 26.6131 4.79598 28.7338 9.54225 28.7338C11.2485 28.7338 12.2199 28.6296 13.5355 28.1868C14.5668 28.635 16.3058 29.0346 17.5002 29.0346C18.6947 29.0346 19.8317 28.7854 20.8632 28.3372C22.1787 28.78 23.7518 29.1851 25.458 29.1851C30.2038 29.1851 33.9215 26.6131 33.9215 24.0981V21.4787V18.8095V16.1903V13.521V10.9019C33.9215 8.38674 30.2038 6.4165 25.458 6.4165ZM20.0574 8.9925C21.4913 8.27559 23.4093 7.88069 25.458 7.88069C27.5064 7.88069 29.4241 8.27559 30.858 8.9925C32.1613 9.64415 32.4573 10.0533 32.4573 10.9019C32.4573 11.7502 32.1613 12.1593 30.858 12.8109C29.4239 13.528 27.5062 13.9229 25.458 13.9229C24.8247 13.9229 24.5046 13.8851 23.9067 13.8116C21.9378 12.0803 21.3145 11.7051 18.6667 10.9331C18.5295 10.6751 18.4578 10.7127 18.4578 10.4505C18.4578 9.60187 18.7541 9.64415 20.0574 8.9925ZM17.5001 27.5704C16.8141 27.5704 16.1495 27.4767 15.5183 27.3024C15.0538 27.1741 14.6077 27.0018 14.1841 26.7905C13.5899 26.4939 13.0405 26.1205 12.5493 25.6827C12.2446 25.4114 11.9624 25.1154 11.7057 24.7982C11.3241 24.3266 10.9988 23.8077 10.7402 23.2519C10.5919 22.9329 10.4654 22.6018 10.3628 22.2604C10.2094 21.75 10.1091 21.2167 10.0689 20.6671C10.0558 20.4861 10.0488 20.3035 10.0488 20.119C10.0488 19.9629 10.0542 19.8078 10.0637 19.654C10.2306 16.9561 11.8394 14.6422 14.1272 13.4758C14.5484 13.2611 14.9926 13.0853 15.455 12.953C15.949 12.8118 16.4639 12.7209 16.9937 12.6852C17.1612 12.674 17.33 12.6677 17.5002 12.6677C17.5515 12.6677 17.6026 12.6686 17.6536 12.6697C17.772 12.672 17.8896 12.6774 18.0066 12.6853C18.5112 12.7194 19.0023 12.8038 19.4749 12.9338C20.1912 13.1309 20.8647 13.4324 21.4779 13.821C22.0867 14.2069 22.6361 14.6784 23.1087 15.2188C23.5616 15.7365 23.9441 16.3172 24.2412 16.9459C24.3991 17.2799 24.5327 17.6275 24.6402 17.9863C24.7997 18.5199 24.901 19.0782 24.9367 19.6542C24.9462 19.808 24.9518 19.9629 24.9518 20.1192C24.9518 20.3037 24.9448 20.4863 24.9315 20.6673C24.8913 21.2169 24.7911 21.7502 24.6377 22.2606C24.5351 22.602 24.4087 22.9331 24.2602 23.2521C24.0015 23.8079 23.6763 24.3268 23.2947 24.7984C23.038 25.1156 22.7557 25.4116 22.4513 25.6829C21.96 26.1205 21.4107 26.4941 20.8162 26.7906C20.3927 27.002 19.9465 27.1743 19.482 27.3026C18.8507 27.4769 18.1861 27.5704 17.5001 27.5704ZM4.2922 14.281C5.72618 13.5641 7.4937 13.1693 9.54225 13.1693C10.6926 13.1693 10.4479 13.1434 11.4533 13.3794C9.54216 15.2188 8.86464 17.4998 8.59749 19.2036C6.73593 19.1453 5.46015 18.7587 4.14193 18.0995C2.83863 17.4478 2.54239 17.0387 2.54239 16.1904C2.54232 15.3417 2.98897 14.9327 4.2922 14.281ZM8.60282 20.6684C8.63853 21.2218 8.72734 21.3093 8.86464 21.829C6.90157 21.801 5.52301 21.4092 4.14185 20.7187C2.83853 20.067 2.091 19.2065 2.091 18.3582V18.3507C3.43829 19.6766 5.5565 20.5807 8.60282 20.6684ZM9.09093 23.295C9.12849 23.295 9.16576 23.2944 9.20312 23.2942C9.43714 23.8703 9.43187 23.9634 9.78092 24.4686C9.45515 24.4893 9.8766 24.4999 9.54225 24.4999C7.49389 24.4999 5.57593 24.105 4.14185 23.3879C2.83853 22.7362 2.091 21.8757 2.091 21.0274V20.9698C3.5097 22.3659 5.83221 23.295 9.09093 23.295ZM9.54225 27.2695C7.49389 27.2695 5.57593 26.7242 4.14185 26.007C2.83853 25.3554 2.091 24.4951 2.091 23.6468V23.6392C3.5097 25.0355 6.28353 25.9643 9.54225 25.9643C10.1458 25.9643 10.2811 26.0827 10.8457 26.0219C11.3115 26.5238 11.2354 26.6684 11.8098 27.0459C10.7895 27.2907 10.7139 27.2695 9.54225 27.2695ZM32.9086 23.6468C32.9086 24.4951 32.1613 25.6563 30.858 26.3079C29.4239 27.0251 27.5062 27.5704 25.458 27.5704C24.2864 27.5704 23.9098 27.5916 22.8897 27.3468C23.4639 26.9691 23.6887 26.3733 24.1547 25.8714C24.7192 25.9323 24.8546 25.9643 25.458 25.9643C28.7164 25.9643 31.4901 25.0355 32.9086 23.6392V23.6468ZM32.9086 21.0274C32.9086 21.8759 32.1613 22.7362 30.858 23.3879C29.4239 24.105 27.8071 24.4999 25.7588 24.4999C25.4246 24.4999 25.5452 24.4893 25.2193 24.4686C25.5684 23.9634 25.5633 23.8703 25.7972 23.2942C25.8345 23.2944 25.8718 23.295 25.9093 23.295C29.1677 23.295 31.4901 22.3661 32.9086 20.9698V21.0274ZM32.9086 18.3582C32.9086 19.2065 32.1613 20.0668 30.858 20.7187C29.477 21.4092 28.249 21.6505 26.2862 21.6785C26.4235 21.1588 26.3619 21.2216 26.3975 20.6683C29.4434 20.5807 31.5616 19.6766 32.9086 18.3505V18.3582ZM32.9086 15.739C32.9086 16.5874 32.1613 17.4477 30.858 18.0995C29.54 18.7585 28.2642 19.1453 26.4029 19.2034C26.3722 18.637 26.2858 18.5363 26.1483 18.0045C29.3032 17.9603 31.5249 17.0432 32.9086 15.6813V15.739ZM32.9086 13.0697C32.9086 13.9181 32.1613 14.7784 30.858 15.4301C29.4239 16.1472 27.9576 16.3918 25.9093 16.3918C25.8786 16.3918 25.6974 16.5417 25.6667 16.5416C25.436 15.9631 25.4442 15.8673 25.0974 15.3595C25.4129 15.3775 25.132 15.3872 25.458 15.3872C28.7164 15.3872 31.4901 14.4584 32.9086 13.0622V13.0697Z" fill="url(#paint0_linear_1252_190)"/>
<path d="M21.1453 22.389C21.1453 22.0532 21.0731 21.7309 20.9409 21.4326C20.5571 20.5658 19.6664 19.6003 18.569 19.3853C18.483 19.3683 18.3963 19.3536 18.3078 19.3424V18.8094V18.3505V16.1902V16.1272C19.3504 16.3026 19.8315 17.0075 19.8315 17.8486C19.8315 18.1283 20.2088 18.6559 20.4883 18.6559C20.7681 18.6559 21.1452 18.1283 21.1452 17.8486C21.1452 17.6529 21.1204 17.4618 21.0737 17.2773C20.7897 16.154 19.8364 14.9774 18.4583 14.8029L18.3078 14.1427C18.3078 13.863 17.7803 13.6362 17.5006 13.6362C17.3366 13.6362 17.1913 13.7146 17.0987 13.8354C17.0914 13.8449 17.0844 13.8543 17.0776 13.8642C17.025 13.9442 16.9941 14.0397 16.9941 14.1426V14.8028C16.8731 14.8181 16.7542 14.8392 16.6377 14.8652C15.2108 15.1819 13.856 16.5652 13.856 17.8485C13.856 18.1871 13.9296 18.8124 14.0639 19.1126C14.2037 19.4252 14.7108 19.8614 14.9685 20.1094C15.2881 20.4172 15.4883 20.5748 15.9405 20.7427C16.2088 20.8424 16.6942 20.855 16.9942 20.8931V20.9695V21.4786V23.6389V23.7158V23.7969V23.8079C16.8495 23.7834 16.7094 23.749 16.5763 23.7055C16.2001 23.5819 16.0253 23.386 15.7827 23.1404C15.4923 22.8464 15.4707 22.7829 15.4707 22.3886C15.4707 22.3229 15.4577 22.2603 15.435 22.2029C15.3608 22.0151 14.8773 21.8822 14.6633 21.8822C14.3836 21.8822 14.1569 22.1088 14.1569 22.3886C14.1569 22.4554 14.1607 22.5213 14.1664 22.587C14.2092 23.0862 14.4106 23.5493 14.7304 23.9411C14.9572 24.2189 15.2435 24.4606 15.5733 24.6544C15.9001 24.8464 16.2694 24.9917 16.668 25.0767C16.7748 25.0997 16.8837 25.118 16.9943 25.1321V25.7938C16.9943 25.9221 16.8919 26.0388 16.9705 26.1281C17.0633 26.2334 17.3492 26.6011 17.5008 26.6011C17.6523 26.6011 18.0887 26.5342 18.1815 26.429C18.2601 26.3397 18.308 26.223 18.308 26.0947V25.433C18.4187 25.4191 18.5275 25.4006 18.6343 25.3776C19.0327 25.2926 19.4023 25.2977 19.729 25.1057C20.059 24.9119 20.4958 24.3695 20.7224 24.0915C21.0423 23.6997 21.0932 23.0862 21.1359 22.5872C21.1415 22.5219 21.1453 22.4558 21.1453 22.389ZM16.8158 19.5337C16.4874 19.4572 16.1896 19.3272 15.9405 19.1572C15.6341 18.9479 15.4013 18.6784 15.2752 18.3734C15.2066 18.2076 15.1698 18.0314 15.1698 17.8488C15.1698 17.0083 15.9509 16.3037 16.9926 16.1277C16.9921 16.1277 16.9932 16.1276 16.9926 16.1277L16.9943 16.1904V18.3507V18.8096V19.5691C16.9339 19.559 16.8744 19.5474 16.8158 19.5337ZM19.8315 22.389C19.8315 22.7831 19.6594 23.1476 19.3692 23.4417C19.1266 23.6872 18.8014 23.8833 18.4251 24.0068C18.2918 24.0504 18.4529 24.0848 18.3083 24.1092L18.3079 24.0982V24.017V23.6393V21.479V20.9699V20.6668C19.2621 20.8275 19.6965 21.432 19.8145 22.1786C19.8254 22.2475 19.8315 22.3177 19.8315 22.389Z" fill="url(#paint1_linear_1252_190)"/>
<defs>
<linearGradient id="paint0_linear_1252_190" x1="1.10185" y1="6.36729" x2="33.8977" y2="29.2341" gradientUnits="userSpaceOnUse">
<stop offset="0.0176605" stop-color="#FAE638"/>
<stop offset="1" stop-color="#FA7E38"/>
</linearGradient>
<linearGradient id="paint1_linear_1252_190" x1="17.5007" y1="13.6362" x2="17.5007" y2="26.6011" gradientUnits="userSpaceOnUse">
<stop stop-color="#FAE638"/>
<stop offset="1" stop-color="#FA7E38"/>
</linearGradient>
</defs>
</svg>
