<svg width="41" height="41" viewBox="0 0 41 41" fill="none" xmlns="http://www.w3.org/2000/svg">
<circle cx="20.9336" cy="20.4541" r="20" fill="#6D73FF"/>
<path d="M21.2044 17.3176C20.1596 17.3176 19.3125 17.3176 19.3125 18.8774V29.2742C19.3125 30.834 20.1596 30.834 21.2044 30.834C22.2492 30.834 23.0962 30.834 23.0962 29.2742V18.8774C23.0962 17.3176 22.2492 17.3176 21.2044 17.3176Z" fill="white"/>
<path d="M21.2669 11.3894C20.6525 11.3894 20.0519 11.6383 19.6165 12.0723C19.1825 12.5063 18.9336 13.1083 18.9336 13.7227C18.9336 14.3372 19.1825 14.9376 19.6165 15.3732C20.0505 15.8072 20.6525 16.0561 21.2669 16.0561C21.8814 16.0561 22.4818 15.8072 22.9172 15.3732C23.3512 14.9376 23.6003 14.3372 23.6003 13.7227C23.6003 13.1083 23.3512 12.5063 22.9172 12.0723C22.4818 11.6381 21.8814 11.3894 21.2669 11.3894Z" fill="white"/>
</svg>
