<svg width="41" height="41" viewBox="0 0 41 41" fill="none" xmlns="http://www.w3.org/2000/svg">
<circle cx="20.3125" cy="20.9844" r="20" fill="#6D73FF"/>
<g clip-path="url(#clip0_2480_54)">
<path d="M20.3125 30.9844C18.3347 30.9844 16.4013 30.3979 14.7568 29.2991C13.1123 28.2003 11.8306 26.6385 11.0737 24.8112C10.3168 22.984 10.1188 20.9733 10.5047 19.0335C10.8905 17.0937 11.8429 15.3118 13.2414 13.9133C14.64 12.5148 16.4218 11.5624 18.3616 11.1765C20.3014 10.7907 22.3121 10.9887 24.1393 11.7456C25.9666 12.5025 27.5284 13.7842 28.6272 15.4287C29.726 17.0732 30.3125 19.0066 30.3125 20.9844C30.3125 23.6365 29.2589 26.1801 27.3836 28.0554C25.5082 29.9308 22.9647 30.9844 20.3125 30.9844ZM20.3125 12.5228C18.639 12.5228 17.003 13.0191 15.6115 13.9489C14.22 14.8786 13.1355 16.2001 12.4951 17.7463C11.8546 19.2924 11.6871 20.9938 12.0136 22.6351C12.34 24.2765 13.1459 25.7842 14.3293 26.9676C15.5127 28.151 17.0204 28.9568 18.6617 29.2833C20.3031 29.6098 22.0045 29.4423 23.5506 28.8018C25.0967 28.1614 26.4182 27.0769 27.348 25.6854C28.2778 24.2939 28.774 22.6579 28.774 20.9844C28.774 18.7402 27.8826 16.588 26.2957 15.0012C24.7089 13.4143 22.5566 12.5228 20.3125 12.5228Z" fill="white"/>
<path d="M19.1585 25.446C19.0574 25.4451 18.9575 25.4242 18.8644 25.3846C18.7714 25.345 18.687 25.2875 18.6162 25.2153L15.0778 21.6806C14.9523 21.533 14.8871 21.3435 14.8952 21.1499C14.9034 20.9564 14.9843 20.773 15.1218 20.6365C15.2593 20.4999 15.4432 20.4203 15.6368 20.4136C15.8305 20.4068 16.0195 20.4733 16.1662 20.5999L19.7008 24.1345C19.8078 24.2421 19.8805 24.3788 19.9099 24.5276C19.9393 24.6764 19.9241 24.8306 19.8662 24.9707C19.8082 25.1109 19.7101 25.2308 19.5842 25.3154C19.4583 25.3999 19.3102 25.4454 19.1585 25.446Z" fill="white"/>
<path d="M19.1585 25.4459C19.0061 25.446 18.857 25.4009 18.7303 25.3161C18.6035 25.2313 18.5049 25.1108 18.4467 24.9699C18.3886 24.8289 18.3737 24.6739 18.4039 24.5245C18.4341 24.375 18.508 24.2379 18.6162 24.1305L24.4585 18.2921C24.6029 18.1477 24.7986 18.0667 25.0027 18.0667C25.2069 18.0667 25.4026 18.1477 25.547 18.2921C25.6913 18.4364 25.7724 18.6322 25.7724 18.8363C25.7724 19.0404 25.6913 19.2362 25.547 19.3805L19.7008 25.2152C19.63 25.2874 19.5457 25.3449 19.4526 25.3845C19.3596 25.4241 19.2596 25.445 19.1585 25.4459Z" fill="white"/>
</g>
<defs>
<clipPath id="clip0_2480_54">
<rect width="20" height="20" fill="white" transform="translate(10.3125 10.9844)"/>
</clipPath>
</defs>
</svg>
