<svg width="38" height="38" viewBox="0 0 38 38" fill="none" xmlns="http://www.w3.org/2000/svg">
<path d="M32.306 5.00812L18.8251 4.88965L5.34418 5.00812C3.55444 5.00812 1.63184 7.20116 1.63184 9.02313V11.144V26.8522L1.7484 28.9813C1.7484 30.8008 3.55496 32.7553 5.34517 32.7553H30.2141C31.6078 32.7553 32.7959 31.5008 33.2555 30.2449C34.7149 30.0951 36.0183 28.8111 36.0183 26.8522L36.1349 9.02313C36.1349 7.20116 34.0957 5.00812 32.306 5.00812ZM29.7479 30.6266L5.81143 30.5081C4.59757 30.5081 3.72635 29.9781 3.72635 28.7444V26.8522V11.4994C3.72635 10.2657 4.36444 9.73568 5.5783 9.73568H11.5624H17.7796H29.7479C30.9618 9.73568 31.5998 9.91032 31.5998 11.144V14.7502H26.1161C23.5367 14.7502 21.2056 16.9406 21.2056 19.6331V20.4928C21.2056 23.1848 23.5367 25.3752 26.1161 25.3752H31.5998V28.9813C31.5998 30.2151 30.9618 30.6266 29.7479 30.6266ZM31.5998 23.4834H26.1161C24.3467 23.2465 23.0669 22.3621 23.0669 20.4928V19.6331C23.0669 17.6378 24.6964 16.9973 26.1161 16.6419H31.5998V23.4834ZM34.2735 26.8522C34.2735 28.4103 33.9368 28.5292 33.4588 28.6741C33.4591 28.6579 33.4612 28.6422 33.4612 28.6259V11.144C33.4612 9.32456 32.0043 7.84392 30.2141 7.84392H5.34517C4.51107 7.84392 3.9849 7.93115 3.40917 8.45858C3.56641 7.37839 4.35749 7.01835 5.46074 7.01835H32.306C33.5194 7.01835 34.2735 7.78686 34.2735 9.02313V26.8522Z" fill="url(#paint0_linear_1253_193)"/>
<path d="M24.0522 20.0625C24.0522 21.2345 24.99 22.1875 26.1431 22.1875C27.2963 22.1875 28.234 21.2345 28.234 20.0625C28.234 18.8906 27.2963 17.9375 26.1431 17.9375C24.99 17.9375 24.0522 18.8906 24.0522 20.0625ZM26.1431 19C26.7195 19 27.1886 19.4768 27.1886 20.0625C27.1886 20.6483 26.7195 21.125 26.1431 21.125C25.5668 21.125 25.0977 20.6483 25.0977 20.0625C25.0977 19.4768 25.5668 19 26.1431 19Z" fill="url(#paint1_linear_1253_193)"/>
<defs>
<linearGradient id="paint0_linear_1253_193" x1="10.1762" y1="12.0694" x2="35.9807" y2="31.922" gradientUnits="userSpaceOnUse">
<stop stop-color="#FFEB3B"/>
<stop offset="1" stop-color="#43CB40"/>
</linearGradient>
<linearGradient id="paint1_linear_1253_193" x1="24.0122" y1="17.993" x2="28.2745" y2="22.0704" gradientUnits="userSpaceOnUse">
<stop stop-color="#FFEB3B"/>
<stop offset="1" stop-color="#43CB40"/>
</linearGradient>
</defs>
</svg>
