<svg width="30" height="30" viewBox="0 0 30 30" fill="none" xmlns="http://www.w3.org/2000/svg">
<g clip-path="url(#clip0_2120_6)">
<path d="M6.02975 0.0488281C6.44261 0.0488281 6.77729 0.383508 6.77729 0.796365V3.03901H23.2234V0.796365C23.2234 0.383508 23.5581 0.0488281 23.9709 0.0488281C24.3837 0.0488281 24.7184 0.383508 24.7184 0.796365V3.03901H26.9611C28.6126 3.03901 29.9513 4.37777 29.9513 6.0292V26.9606C29.9513 28.6121 28.6125 29.9507 26.9611 29.9507H3.0395C1.38807 29.9507 0.0493164 28.612 0.0493164 26.9606V6.0292C0.0493164 4.37777 1.38807 3.03901 3.0395 3.03901H5.28215V0.796365C5.28215 0.383508 5.61683 0.0488281 6.02968 0.0488281H6.02975ZM23.2234 4.53412H6.77733V6.77677C6.77733 7.18963 6.44265 7.52431 6.02979 7.52431C5.61693 7.52431 5.28225 7.18963 5.28225 6.77677V4.53412H3.03961C2.21389 4.53412 1.5445 5.20352 1.5445 6.02923V10.5145H28.4563V6.02923C28.4563 5.20352 27.7869 4.53412 26.9611 4.53412H24.7185V6.77677C24.7185 7.18963 24.3838 7.52431 23.971 7.52431C23.5582 7.52431 23.2234 7.18963 23.2234 6.77677V4.53412H23.2234ZM1.54446 12.0096V26.9606C1.54446 27.7864 2.21386 28.4557 3.03957 28.4557H26.9611C27.7869 28.4557 28.4563 27.7864 28.4563 26.9606V12.0096H1.5445H1.54446ZM5.28222 16.4949C5.28222 16.9077 5.6169 17.2425 6.02975 17.2425H23.9709C24.3837 17.2425 24.7185 16.9077 24.7185 16.4949C24.7185 16.0821 24.3837 15.7474 23.9709 15.7474H6.02975C5.6169 15.7474 5.28222 16.0821 5.28222 16.4949ZM6.02975 19.4851H17.243C17.6558 19.4851 17.9905 19.8199 17.9905 20.2327C17.9905 20.6454 17.6558 20.9802 17.243 20.9802H6.02975C5.6169 20.9802 5.28222 20.6454 5.28222 20.2327C5.28222 19.8199 5.6169 19.4851 6.02975 19.4851Z" fill="url(#paint0_linear_2120_6)"/>
</g>
<defs>
<linearGradient id="paint0_linear_2120_6" x1="15.0003" y1="0.0488281" x2="15.0003" y2="29.9507" gradientUnits="userSpaceOnUse">
<stop stop-color="#FFEB3B"/>
<stop offset="1" stop-color="#43CB40"/>
</linearGradient>
<clipPath id="clip0_2120_6">
<rect width="30" height="30" fill="white"/>
</clipPath>
</defs>
</svg>
