<svg width="18" height="33" viewBox="0 0 18 33" fill="none" xmlns="http://www.w3.org/2000/svg">
<path d="M10.6757 33V28.8926C13.0903 28.4787 14.9035 27.6017 16.1153 26.2617C17.327 24.9217 17.9333 23.329 17.934 21.4836C17.958 19.6456 17.4494 18.1165 16.408 16.8959C15.3667 15.6755 13.6484 14.6463 11.2532 13.8086C9.47192 13.192 8.18708 12.6188 7.39886 12.0889C6.61065 11.559 6.22433 10.9756 6.24009 10.3385C6.22131 9.74144 6.47288 9.21061 6.9948 8.74595C7.51681 8.2813 8.42194 8.03621 9.71036 8.01067C11.2839 8.03963 12.5555 8.21671 13.5248 8.54183C14.4942 8.86703 15.2191 9.16653 15.6996 9.44042L16.8758 4.871C16.2156 4.53896 15.4127 4.24709 14.467 3.99555C13.5214 3.74394 12.3871 3.59303 11.064 3.54267V0H7.11196V3.82444C4.88355 4.25035 3.18368 5.09915 2.01225 6.37075C0.840905 7.64236 0.250775 9.19629 0.242021 11.0325C0.273059 12.9845 0.92646 14.5409 2.20222 15.7019C3.47791 16.8627 5.18964 17.7967 7.33726 18.5034C8.84868 19.001 9.99217 19.5266 10.7678 20.0802C11.5434 20.634 11.9327 21.2922 11.9358 22.0551C11.9068 22.8572 11.499 23.478 10.7125 23.9177C9.92596 24.3575 8.93495 24.5803 7.73949 24.5862C6.43317 24.5701 5.22163 24.3881 4.10496 24.0402C2.98821 23.6923 2.01424 23.2756 1.18297 22.79L0 27.4969C0.709747 27.9273 1.65897 28.3027 2.84774 28.6235C4.03644 28.9442 5.31849 29.1402 6.69365 29.2116V33H10.6757Z" fill="url(#paint0_linear_1252_186)"/>
<defs>
<linearGradient id="paint0_linear_1252_186" x1="-0.154104" y1="0.0834489" x2="18.0806" y2="31.164" gradientUnits="userSpaceOnUse">
<stop stop-color="#8AF305"/>
<stop offset="1" stop-color="#39DAFD"/>
</linearGradient>
</defs>
</svg>
