<svg width="36" height="36" viewBox="0 0 36 36" fill="none" xmlns="http://www.w3.org/2000/svg">
<g clip-path="url(#clip0_1252_118)">
<path d="M32.625 11.25H27V13.5H32.625V20.25H24.75V22.5H28.125V24.9097C27.0645 25.1836 26.1403 25.8348 25.5256 26.7413C24.9109 27.6478 24.6479 28.7473 24.7859 29.8339C24.9239 30.9204 25.4534 31.9193 26.2753 32.6434C27.0971 33.3674 28.1547 33.7669 29.25 33.7669C30.3453 33.7669 31.403 33.3674 32.2248 32.6434C33.0466 31.9193 33.5761 30.9204 33.7141 29.8339C33.8522 28.7473 33.5892 27.6478 32.9744 26.7413C32.3597 25.8348 31.4355 25.1836 30.375 24.9097V22.5H32.625C33.2215 22.4992 33.7933 22.2619 34.2151 21.8401C34.6369 21.4183 34.8742 20.8465 34.875 20.25V13.5C34.8743 12.9035 34.6371 12.3316 34.2152 11.9098C33.7934 11.488 33.2215 11.2507 32.625 11.25ZM31.5 29.25C31.5 29.695 31.3681 30.13 31.1208 30.5C30.8736 30.87 30.5222 31.1584 30.111 31.3287C29.6999 31.499 29.2475 31.5436 28.8111 31.4568C28.3746 31.37 27.9737 31.1557 27.659 30.841C27.3444 30.5263 27.1301 30.1254 27.0432 29.689C26.9564 29.2525 27.001 28.8001 27.1713 28.389C27.3416 27.9778 27.63 27.6264 28 27.3792C28.37 27.132 28.805 27 29.25 27C29.8465 27.0008 30.4183 27.2381 30.8401 27.6599C31.2619 28.0817 31.4992 28.6535 31.5 29.25Z" fill="url(#paint0_linear_1252_118)"/>
<path d="M21.375 6.75H15.75V9H21.375V15.75H13.5V18H16.875V24.9098C15.8145 25.1836 14.8903 25.8348 14.2756 26.7413C13.6609 27.6478 13.3979 28.7473 13.5359 29.8339C13.6739 30.9204 14.2034 31.9193 15.0252 32.6434C15.8471 33.3674 16.9047 33.7669 18 33.7669C19.0953 33.7669 20.153 33.3674 20.9748 32.6434C21.7966 31.9193 22.3261 30.9204 22.4641 29.8339C22.6022 28.7473 22.3392 27.6478 21.7244 26.7413C21.1097 25.8348 20.1855 25.1836 19.125 24.9098V18H21.375C21.9715 17.9993 22.5434 17.762 22.9652 17.3402C23.3871 16.9184 23.6243 16.3465 23.625 15.75V9C23.6243 8.40347 23.3871 7.83157 22.9652 7.40977C22.5434 6.98796 21.9715 6.75068 21.375 6.75ZM20.25 29.25C20.25 29.695 20.1181 30.13 19.8708 30.5C19.6236 30.87 19.2722 31.1584 18.861 31.3287C18.4499 31.499 17.9975 31.5436 17.5611 31.4568C17.1246 31.37 16.7237 31.1557 16.409 30.841C16.0944 30.5263 15.8801 30.1254 15.7932 29.689C15.7064 29.2525 15.751 28.8001 15.9213 28.389C16.0916 27.9778 16.38 27.6264 16.75 27.3792C17.12 27.132 17.555 27 18 27C18.5965 27.0008 19.1683 27.2381 19.5901 27.6599C20.0119 28.0817 20.2492 28.6535 20.25 29.25Z" fill="url(#paint1_linear_1252_118)"/>
<path d="M10.125 2.25H3.375C2.77845 2.2506 2.2065 2.48784 1.78467 2.90967C1.36284 3.3315 1.1256 3.90345 1.125 4.5V11.25C1.1256 11.8466 1.36284 12.4185 1.78467 12.8403C2.2065 13.2622 2.77845 13.4994 3.375 13.5H5.625V24.9097C4.56451 25.1836 3.64029 25.8348 3.02557 26.7413C2.41086 27.6478 2.14786 28.7473 2.28587 29.8339C2.42388 30.9204 2.95342 31.9193 3.77524 32.6434C4.59706 33.3674 5.65473 33.7669 6.75 33.7669C7.84527 33.7669 8.90294 33.3674 9.72476 32.6434C10.5466 31.9193 11.0761 30.9204 11.2141 29.8339C11.3521 28.7473 11.0891 27.6478 10.4744 26.7413C9.85971 25.8348 8.93549 25.1836 7.875 24.9097V13.5H10.125C10.7216 13.4994 11.2935 13.2622 11.7153 12.8403C12.1372 12.4185 12.3744 11.8466 12.375 11.25V4.5C12.3744 3.90345 12.1372 3.3315 11.7153 2.90967C11.2935 2.48784 10.7216 2.2506 10.125 2.25ZM9 29.25C9 29.695 8.86804 30.13 8.62081 30.5C8.37357 30.87 8.02217 31.1584 7.61104 31.3287C7.1999 31.499 6.7475 31.5436 6.31105 31.4568C5.87459 31.37 5.47368 31.1557 5.15901 30.841C4.84434 30.5263 4.63005 30.1254 4.54323 29.689C4.45642 29.2525 4.50097 28.8001 4.67127 28.389C4.84157 27.9778 5.12996 27.6264 5.49997 27.3792C5.86998 27.132 6.30499 27 6.75 27C7.34653 27.0007 7.91843 27.238 8.34023 27.6598C8.76204 28.0816 8.99932 28.6535 9 29.25ZM3.375 11.25V4.5H10.125L10.1267 11.25H3.375Z" fill="url(#paint2_linear_1252_118)"/>
</g>
<defs>
<linearGradient id="paint0_linear_1252_118" x1="24.7229" y1="11.2771" x2="34.8434" y2="33.8313" gradientUnits="userSpaceOnUse">
<stop stop-color="#FE46A3"/>
<stop offset="1" stop-color="#FF8946"/>
</linearGradient>
<linearGradient id="paint1_linear_1252_118" x1="13.4458" y1="6.79518" x2="23.5663" y2="33.8313" gradientUnits="userSpaceOnUse">
<stop stop-color="#FE46A3"/>
<stop offset="1" stop-color="#FF8946"/>
</linearGradient>
<linearGradient id="paint2_linear_1252_118" x1="1.15663" y1="2.31325" x2="12.4337" y2="33.8313" gradientUnits="userSpaceOnUse">
<stop stop-color="#FE46A3"/>
<stop offset="1" stop-color="#FF8946"/>
</linearGradient>
<clipPath id="clip0_1252_118">
<rect width="36" height="36" fill="white"/>
</clipPath>
</defs>
</svg>
