<svg width="40" height="41" viewBox="0 0 40 41" fill="none" xmlns="http://www.w3.org/2000/svg">
<circle cx="19.9922" cy="20.1147" r="20" fill="#6D73FF"/>
<g clip-path="url(#clip0_2480_78)">
<mask id="mask0_2480_78" style="mask-type:luminance" maskUnits="userSpaceOnUse" x="9" y="10" width="21" height="21">
<path d="M29.9922 10.1147H9.99219V30.1147H29.9922V10.1147Z" fill="white"/>
</mask>
<g mask="url(#mask0_2480_78)">
<path d="M28.1172 16.3647H24.9922V17.6147C24.9922 17.6147 24.9922 18.9147 24.7922 19.7147C24.5922 20.5147 23.7422 21.3647 23.7422 21.3647V22.6147H25.6172V23.9535C25.0281 24.1056 24.5146 24.4674 24.1731 24.971C23.8316 25.4746 23.6854 26.0855 23.7621 26.6891C23.8388 27.2927 24.133 27.8477 24.5896 28.2499C25.0461 28.6522 25.6337 28.8741 26.2422 28.8741C26.8507 28.8741 27.4383 28.6522 27.8948 28.2499C28.3514 27.8477 28.6456 27.2927 28.7223 26.6891C28.799 26.0855 28.6528 25.4746 28.3113 24.971C27.9698 24.4674 27.4563 24.1056 26.8672 23.9535V22.6147H28.1172C28.4486 22.6143 28.7663 22.4825 29.0006 22.2481C29.2349 22.0138 29.3667 21.6961 29.3672 21.3647V17.6147C29.3668 17.2834 29.235 16.9656 29.0007 16.7313C28.7663 16.4969 28.4486 16.3651 28.1172 16.3647Z" fill="white"/>
<path d="M21.8672 13.8647H18.7422V15.1147C18.7422 15.1147 18.7922 16.5147 18.3922 17.3147C17.9922 18.1147 17.4922 18.8647 17.4922 18.8647V20.1147H19.3672V23.9535C18.7781 24.1056 18.2646 24.4674 17.9231 24.971C17.5816 25.4746 17.4354 26.0855 17.5121 26.6891C17.5888 27.2927 17.883 27.8477 18.3396 28.2499C18.7961 28.6522 19.3837 28.8741 19.9922 28.8741C20.6007 28.8741 21.1883 28.6522 21.6448 28.2499C22.1014 27.8477 22.3956 27.2927 22.4723 26.6891C22.549 26.0855 22.4028 25.4746 22.0613 24.971C21.7198 24.4674 21.2063 24.1056 20.6172 23.9535V20.1147H21.8672C22.1986 20.1143 22.5163 19.9825 22.7507 19.7482C22.985 19.5138 23.1168 19.1961 23.1172 18.8647V15.1147C23.1168 14.7833 22.985 14.4656 22.7507 14.2313C22.5163 13.9969 22.1986 13.8651 21.8672 13.8647Z" fill="white"/>
<path d="M15.6172 11.3647H11.8672C11.5358 11.3651 11.218 11.4969 10.9837 11.7312C10.7493 11.9656 10.6175 12.2833 10.6172 12.6147V16.3647C10.6175 16.6962 10.7493 17.0139 10.9837 17.2483C11.218 17.4826 11.5358 17.6144 11.8672 17.6147H13.1172V23.9535C12.528 24.1056 12.0146 24.4674 11.6731 24.971C11.3316 25.4746 11.1854 26.0855 11.2621 26.6891C11.3388 27.2927 11.633 27.8477 12.0895 28.2499C12.5461 28.6522 13.1337 28.8741 13.7422 28.8741C14.3507 28.8741 14.9383 28.6522 15.3948 28.2499C15.8514 27.8477 16.1456 27.2927 16.2223 26.6891C16.2989 26.0855 16.1528 25.4746 15.8113 24.971C15.4698 24.4674 14.9563 24.1056 14.3672 23.9535V17.6147H15.6172C15.9486 17.6144 16.2664 17.4826 16.5007 17.2483C16.7351 17.0139 16.8669 16.6962 16.8672 16.3647V12.6147C16.8669 12.2833 16.7351 11.9656 16.5007 11.7312C16.2664 11.4969 15.9486 11.3651 15.6172 11.3647Z" fill="white"/>
</g>
</g>
<defs>
<clipPath id="clip0_2480_78">
<rect width="20" height="20" fill="white" transform="translate(9.99219 10.1147)"/>
</clipPath>
</defs>
</svg>
