<svg width="41" height="41" viewBox="0 0 41 41" fill="none" xmlns="http://www.w3.org/2000/svg">
<circle cx="20.8203" cy="20.0181" r="20" fill="#6D73FF"/>
<g clip-path="url(#clip0_2480_18)">
<path d="M21.8354 30.0181V27.5287C23.2987 27.2779 24.3977 26.7464 25.1321 25.9342C25.8664 25.1221 26.2339 24.1569 26.2343 23.0384C26.2489 21.9245 25.9406 20.9978 25.3095 20.258C24.6784 19.5184 23.637 18.8946 22.1854 18.3869C21.1058 18.0132 20.3271 17.6658 19.8494 17.3447C19.3717 17.0235 19.1376 16.6699 19.1471 16.2838C19.1357 15.922 19.2882 15.6003 19.6045 15.3186C19.9209 15.037 20.4694 14.8885 21.2503 14.873C22.204 14.8906 22.9746 14.9979 23.5621 15.1949C24.1496 15.392 24.5889 15.5735 24.8801 15.7395L25.593 12.9702C25.1929 12.769 24.7063 12.5921 24.1331 12.4396C23.56 12.2871 22.8726 12.1957 22.0707 12.1651V10.0181H19.6755V12.3359C18.325 12.594 17.2947 13.1085 16.5848 13.8791C15.8749 14.6498 15.5172 15.5916 15.5119 16.7044C15.5307 17.8875 15.9267 18.8307 16.6999 19.5344C17.4731 20.2379 18.5105 20.8039 19.8121 21.2322C20.7281 21.5338 21.4211 21.8524 21.8912 22.1879C22.3612 22.5235 22.5972 22.9224 22.5991 23.3848C22.5815 23.8709 22.3343 24.2472 21.8577 24.5136C21.381 24.7802 20.7804 24.9152 20.0558 24.9188C19.2641 24.909 18.5299 24.7987 17.8531 24.5879C17.1763 24.377 16.586 24.1245 16.0822 23.8302L15.3652 26.6829C15.7954 26.9437 16.3707 27.1712 17.0911 27.3656C17.8116 27.56 18.5886 27.6788 19.422 27.7221V30.0181H21.8354Z" fill="white"/>
</g>
<defs>
<clipPath id="clip0_2480_18">
<rect width="10.9091" height="20" fill="white" transform="translate(15.3652 10.0181)"/>
</clipPath>
</defs>
</svg>
