<svg width="34" height="34" viewBox="0 0 34 34" fill="none" xmlns="http://www.w3.org/2000/svg">
<path fill-rule="evenodd" clip-rule="evenodd" d="M15.0165 5.76553C16.1831 4.88018 17.8169 4.88018 18.9835 5.76553L27.5989 12.3036C28.3858 12.9008 28.8462 13.819 28.8462 14.7919V28.1472C28.8462 28.6117 28.657 29.0572 28.3205 29.3856C27.9839 29.714 27.5273 29.8985 27.0513 29.8985H22.3846V21.1422C22.3846 18.2406 19.9739 15.8884 17 15.8884C14.0262 15.8884 11.6154 18.2406 11.6154 21.1422V29.8985H6.94872C6.47269 29.8985 6.01616 29.714 5.67956 29.3856C5.34295 29.0572 5.15385 28.6117 5.15385 28.1472V14.7919C5.15385 13.819 5.61414 12.9008 6.40111 12.3036L15.0165 5.76553ZM12.6948 32H12.6923H12.6899H6.94872C5.90145 32 4.89708 31.5941 4.15656 30.8715C3.41602 30.149 3 29.169 3 28.1472V14.7919C3 13.1705 3.76716 11.6401 5.07878 10.6447L13.6942 4.1067C15.6386 2.6311 18.3614 2.6311 20.3059 4.1067L28.9213 10.6447C30.2328 11.6401 31 13.1705 31 14.7919V28.1472C31 29.169 30.584 30.149 29.8434 30.8715C29.1029 31.5941 28.0985 32 27.0513 32H21.3101H21.3077H21.3053H12.6948ZM20.2308 29.8985H13.7692V21.1422C13.7692 19.4013 15.2158 17.9899 17 17.9899C18.7842 17.9899 20.2308 19.4013 20.2308 21.1422V29.8985Z" fill="url(#dashboard_linear)"/>
<defs>
<linearGradient id="dashboard_linear" x1="17" y1="3" x2="17" y2="32" gradientUnits="userSpaceOnUse">
<stop stop-color="#F261FF"/>
<stop offset="1" stop-color="#FF5F98"/>
</linearGradient>
</defs>
</svg>
