<svg width="50" height="50" viewBox="0 0 50 50" fill="none" xmlns="http://www.w3.org/2000/svg">
<circle cx="25" cy="25" r="25" fill="url(#paint0_linear_2151_1061)"/>
<g clip-path="url(#clip0_2151_106)">
<path fill-rule="evenodd" clip-rule="evenodd" d="M30.6901 35.6614C30.6901 35.8051 30.8064 35.9214 30.9501 35.9214H33.0301C33.1737 35.9214 33.2901 35.8051 33.2901 35.6614V23.683C33.2901 23.5395 33.1736 23.423 33.0301 23.423H30.9501C30.8066 23.423 30.6901 23.5395 30.6901 23.683V35.6614ZM33.0301 36.9614H30.9501C30.2321 36.9614 29.6501 36.3794 29.6501 35.6614V23.683C29.6501 22.9652 30.2321 22.383 30.9501 22.383H33.0301C33.748 22.383 34.3301 22.9652 34.3301 23.683V35.6614C34.3301 36.3794 33.7481 36.9614 33.0301 36.9614ZM23.6961 35.6614C23.6961 35.8051 23.8124 35.9214 23.9561 35.9214H26.0361C26.1797 35.9214 26.2961 35.8051 26.2961 35.6614V21.3791C26.2961 21.345 26.2894 21.3111 26.2763 21.2796C26.2632 21.2481 26.2441 21.2194 26.2199 21.1952C26.1958 21.1711 26.1671 21.1519 26.1356 21.1389C26.104 21.1258 26.0702 21.1191 26.0361 21.1191H23.9561C23.8124 21.1191 23.6961 21.2355 23.6961 21.3791V35.6614ZM26.0361 36.9614H23.9561C23.2381 36.9614 22.6561 36.3794 22.6561 35.6614V21.3791C22.6561 20.6611 23.2381 20.0791 23.9561 20.0791H26.0361C26.7541 20.0791 27.3361 20.6611 27.3361 21.3791V35.6614C27.3361 36.3794 26.7541 36.9614 26.0361 36.9614ZM16.7021 35.6854C16.7021 35.829 16.8184 35.9454 16.9621 35.9454H19.0421C19.1857 35.9454 19.3021 35.829 19.3021 35.6854V19.099C19.3021 18.9555 19.1856 18.839 19.0421 18.839H16.9621C16.8186 18.839 16.7021 18.9555 16.7021 19.099V35.6854ZM19.0421 36.9854H16.9621C16.2441 36.9854 15.6621 36.4034 15.6621 35.6854V19.099C15.6621 18.3811 16.2441 17.799 16.9621 17.799H19.0421C19.76 17.799 20.3421 18.3811 20.3421 19.099V35.6854C20.3421 36.4034 19.7601 36.9854 19.0421 36.9854Z" fill="white"/>
<path d="M32.9929 19.0789L32.6628 16.5146C32.6261 16.2297 32.8273 15.9691 33.1122 15.9324C33.397 15.8958 33.6576 16.0969 33.6943 16.3818L34.0244 18.9461C34.0611 19.2309 33.8599 19.4916 33.575 19.5282C33.2902 19.5649 33.0296 19.3637 32.9929 19.0789Z" fill="white"/>
<path d="M33.547 19.7959L30.9631 19.8863C30.6761 19.8964 30.4353 19.6719 30.4253 19.3848C30.4152 19.0978 30.6397 18.857 30.9267 18.847L33.5106 18.7565C33.7976 18.7465 34.0385 18.971 34.0485 19.258C34.0585 19.545 33.834 19.7858 33.547 19.7959Z" fill="white"/>
<path d="M16.5603 13.5408L20.4446 13.0527C20.614 13.0314 20.786 13.0437 20.9507 13.0889C21.1153 13.134 21.2695 13.2112 21.4043 13.3159L24.3245 15.5841C24.3789 15.6264 24.4479 15.6453 24.5163 15.6368L28.5409 15.1311C28.8829 15.0881 29.2279 15.1826 29.5002 15.3938L33.5024 18.5024C33.7292 18.6786 33.7703 19.0053 33.5941 19.2321C33.418 19.4589 33.0913 19.4999 32.8645 19.3238L28.8626 16.2154C28.8081 16.1732 28.739 16.1544 28.6706 16.163L24.646 16.6687C24.3039 16.7116 23.9588 16.6169 23.6865 16.4055L20.7664 14.1373C20.7394 14.1163 20.7085 14.1009 20.6756 14.0918C20.6426 14.0828 20.6082 14.0803 20.5743 14.0846L16.69 14.5727C16.405 14.6085 16.145 14.4066 16.1092 14.1216C16.0734 13.8367 16.2754 13.5766 16.5603 13.5408Z" fill="white"/>
</g>
<defs>
<linearGradient id="paint0_linear_2151_1061" x1="0" y1="0" x2="50" y2="50" gradientUnits="userSpaceOnUse">
<stop stop-color="#FE54A7"/>
<stop offset="1" stop-color="#F83D62"/>
</linearGradient>
<clipPath id="clip0_2151_106">
<rect width="26" height="26" fill="white" transform="matrix(-1 0 0 1 38 11)"/>
</clipPath>
</defs>
</svg>
