<svg width="35" height="35" viewBox="0 0 35 35" fill="none" xmlns="http://www.w3.org/2000/svg">
<path d="M33.5418 17.5002C33.5418 26.3597 26.3597 33.5418 17.5002 33.5418C8.6406 33.5418 1.4585 26.3597 1.4585 17.5002C1.4585 8.6406 8.6406 1.4585 17.5002 1.4585C26.3597 1.4585 33.5418 8.6406 33.5418 17.5002ZM4.38512 17.5002C4.38512 24.7434 10.2569 30.6152 17.5002 30.6152C24.7434 30.6152 30.6152 24.7434 30.6152 17.5002C30.6152 10.2569 24.7434 4.38512 17.5002 4.38512C10.2569 4.38512 4.38512 10.2569 4.38512 17.5002Z" fill="url(#paint0_linear_2103_17)"/>
<path d="M19.6875 26.25C19.6875 27.4581 18.7081 28.4375 17.5 28.4375C16.2919 28.4375 15.3125 27.4581 15.3125 26.25C15.3125 25.0419 16.2919 24.0625 17.5 24.0625C18.7081 24.0625 19.6875 25.0419 19.6875 26.25Z" fill="url(#paint1_linear_2103_17)"/>
<path d="M16.0418 17.5002V20.4168C16.0418 20.4168 16.0418 21.8752 17.5002 21.8752C18.9585 21.8752 18.9585 20.4168 18.9585 20.4168V17.5002C18.9585 17.5002 19.6573 17.3002 19.9252 17.1914C19.9252 17.1914 20.4123 17.0176 20.7533 16.7558C21.0944 16.4942 21.4028 16.1833 21.6789 15.8235C21.9711 15.4636 22.1985 15.0465 22.3608 14.5721C22.5231 14.0978 22.6043 13.714 22.6043 13.1252C22.6043 12.1437 22.3851 11.1371 21.9468 10.401C21.5246 9.64855 20.9238 9.06788 20.1444 8.65894C19.3651 8.23365 18.4558 8.021 17.4166 8.021C16.7672 8.021 16.1907 8.10278 15.6875 8.26636C15.184 8.41358 14.7376 8.61804 14.3479 8.87976C13.9744 9.12513 13.6578 9.4032 13.398 9.71399C13.1545 10.0084 12.9596 10.2947 12.8135 10.5728C12.6674 10.8508 12.57 11.0962 12.5213 11.3088C12.4238 11.6196 12.3832 11.8732 12.3995 12.0695C12.432 12.2658 12.5294 12.4293 12.6917 12.5602C12.8541 12.691 13.1058 12.8301 13.4467 12.9773C13.804 13.0918 14.08 13.1327 14.2748 13.1C14.4859 13.0673 14.6564 12.9691 14.7864 12.8055C14.7864 12.8055 15.4786 11.821 15.6735 11.6247C15.8846 11.412 16.1444 11.2485 16.4529 11.134C16.7614 11.0031 17.1105 10.9377 17.5002 10.9377C18.3445 10.9377 18.9696 11.1421 19.3756 11.5511C19.7976 11.9437 19.9252 12.2739 19.9252 13.0264C19.9252 13.5334 19.836 13.9424 19.6573 14.2532C19.4787 14.564 19.2433 14.8176 18.9511 15.0139C18.9511 15.0139 18.5541 15.1655 18.2293 15.3127C17.9209 15.4435 17.3545 15.6599 17.0622 15.8235C16.7862 15.9707 16.6314 16.1254 16.4529 16.3545C16.2743 16.5835 16.0418 17.1076 16.0418 17.5002Z" fill="url(#paint2_linear_2103_17)"/>
<defs>
<linearGradient id="paint0_linear_2103_17" x1="17.5002" y1="1.4585" x2="17.5002" y2="33.5418" gradientUnits="userSpaceOnUse">
<stop stop-color="#FFB904"/>
<stop offset="1" stop-color="#F25523"/>
</linearGradient>
<linearGradient id="paint1_linear_2103_17" x1="17.5" y1="24.0625" x2="17.5" y2="28.4375" gradientUnits="userSpaceOnUse">
<stop stop-color="#FFB904"/>
<stop offset="1" stop-color="#F25523"/>
</linearGradient>
<linearGradient id="paint2_linear_2103_17" x1="17.5002" y1="8.021" x2="17.5002" y2="21.8752" gradientUnits="userSpaceOnUse">
<stop stop-color="#FFB904"/>
<stop offset="1" stop-color="#F25523"/>
</linearGradient>
</defs>
</svg>
