<svg width="41" height="41" viewBox="0 0 41 41" fill="none" xmlns="http://www.w3.org/2000/svg">
<circle cx="20.9062" cy="20.0806" r="20" fill="#6D73FF"/>
<g clip-path="url(#clip0_2480_102)">
<path d="M30.0735 20.0807C30.0735 25.1433 25.9695 29.2474 20.9069 29.2474C15.8443 29.2474 11.7402 25.1433 11.7402 20.0807C11.7402 15.0181 15.8443 10.9141 20.9069 10.9141C25.9695 10.9141 30.0735 15.0181 30.0735 20.0807ZM13.4126 20.0807C13.4126 24.2197 16.7679 27.575 20.9069 27.575C25.0459 27.575 28.4012 24.2197 28.4012 20.0807C28.4012 15.9417 25.0459 12.5864 20.9069 12.5864C16.7679 12.5864 13.4126 15.9417 13.4126 20.0807Z" fill="white"/>
<path d="M22.1562 25.0806C22.1562 25.7709 21.5966 26.3306 20.9062 26.3306C20.2159 26.3306 19.6562 25.7709 19.6562 25.0806C19.6562 24.3902 20.2159 23.8306 20.9062 23.8306C21.5966 23.8306 22.1562 24.3902 22.1562 25.0806Z" fill="white"/>
<path d="M20.0735 20.0807V21.7474C20.0735 21.7474 20.0735 22.5807 20.9069 22.5807C21.7402 22.5807 21.7402 21.7474 21.7402 21.7474V20.0807C21.7402 20.0807 22.1395 19.9665 22.2926 19.9043C22.2926 19.9043 22.571 19.805 22.7658 19.6554C22.9608 19.5059 23.137 19.3282 23.2947 19.1226C23.4617 18.917 23.5917 18.6786 23.6844 18.4075C23.7772 18.1365 23.8235 17.9172 23.8235 17.5807C23.8235 17.0199 23.6983 16.4447 23.4478 16.0241C23.2066 15.5941 22.8633 15.2623 22.4179 15.0286C21.9726 14.7856 21.453 14.6641 20.8591 14.6641C20.4881 14.6641 20.1586 14.7108 19.8711 14.8043C19.5834 14.8884 19.3283 15.0052 19.1056 15.1548C18.8922 15.295 18.7113 15.4539 18.5628 15.6315C18.4237 15.7997 18.3123 15.9633 18.2288 16.1222C18.1453 16.2811 18.0897 16.4213 18.0618 16.5428C18.0061 16.7204 17.9829 16.8653 17.9922 16.9775C18.0108 17.0897 18.0665 17.1831 18.1592 17.2579C18.252 17.3326 18.3958 17.4121 18.5906 17.4962C18.7948 17.5617 18.9525 17.585 19.0638 17.5663C19.1845 17.5477 19.2819 17.4915 19.3562 17.3981C19.3562 17.3981 19.7517 16.8355 19.8631 16.7233C19.9837 16.6018 20.1322 16.5083 20.3085 16.4429C20.4847 16.3681 20.6842 16.3307 20.9069 16.3307C21.3894 16.3307 21.7466 16.4475 21.9786 16.6813C22.2197 16.9056 22.2926 17.0943 22.2926 17.5243C22.2926 17.814 22.2417 18.0477 22.1396 18.2253C22.0375 18.4029 21.903 18.5478 21.736 18.66C21.736 18.66 21.5091 18.7466 21.3235 18.8307C21.1473 18.9055 20.8237 19.0291 20.6566 19.1226C20.4989 19.2067 20.4105 19.2951 20.3085 19.4261C20.2064 19.5569 20.0735 19.8564 20.0735 20.0807Z" fill="white"/>
</g>
<defs>
<clipPath id="clip0_2480_102">
<rect width="20" height="20" fill="white" transform="translate(10.9062 10.0806)"/>
</clipPath>
</defs>
</svg>
