<svg width="50" height="50" viewBox="0 0 50 50" fill="none" xmlns="http://www.w3.org/2000/svg">
<circle cx="25" cy="25" r="25" fill="url(#paint0_linear_2151_1071)"/>
<g clip-path="url(#clip0_2151_107)">
<path d="M19.1677 36.9841C19.3157 36.9841 19.4355 36.8642 19.4355 36.7163V24.3758C19.4355 24.228 19.3155 24.108 19.1677 24.108H17.0248C16.877 24.108 16.757 24.228 16.757 24.3758V36.7163C16.757 36.8642 16.8769 36.9841 17.0248 36.9841H19.1677ZM19.1677 38.0556H17.0248C16.2851 38.0556 15.6855 37.456 15.6855 36.7163V24.3758C15.6855 23.6363 16.2852 23.0365 17.0248 23.0365H19.1677C19.9073 23.0365 20.507 23.6363 20.507 24.3758V36.7163C20.507 37.456 19.9074 38.0556 19.1677 38.0556ZM26.373 36.9841C26.521 36.9841 26.6409 36.8642 26.6409 36.7163V22.0023C26.6409 21.8544 26.521 21.7345 26.373 21.7345H24.2302C24.195 21.7345 24.1602 21.7414 24.1277 21.7548C24.0952 21.7683 24.0656 21.788 24.0408 21.8129C24.0159 21.8378 23.9962 21.8673 23.9827 21.8998C23.9692 21.9323 23.9623 21.9672 23.9623 22.0023V36.7163C23.9623 36.8642 24.0822 36.9841 24.2302 36.9841H26.373ZM26.373 38.0556H24.2302C23.4905 38.0556 22.8909 37.456 22.8909 36.7163V22.0023C22.8909 21.2626 23.4905 20.663 24.2302 20.663H26.373C27.1127 20.663 27.7123 21.2626 27.7123 22.0023V36.7163C27.7123 37.456 27.1127 38.0556 26.373 38.0556ZM33.5784 37.0088C33.7264 37.0088 33.8463 36.8889 33.8463 36.741V19.6533C33.8463 19.5055 33.7262 19.3854 33.5784 19.3854H31.4355C31.2877 19.3854 31.1677 19.5055 31.1677 19.6533V36.741C31.1677 36.8889 31.2876 37.0088 31.4355 37.0088H33.5784ZM33.5784 38.0802H31.4355C30.6959 38.0802 30.0963 37.4807 30.0963 36.741V19.6533C30.0963 18.9138 30.6959 18.314 31.4355 18.314H33.5784C34.318 18.314 34.9177 18.9138 34.9177 19.6533V36.741C34.9177 37.4807 34.3181 38.0802 33.5784 38.0802ZM30.1324 12.381L32.8107 12.385C33.1066 12.3855 33.3468 12.146 33.3472 11.8501C33.3477 11.5543 33.1082 11.314 32.8123 11.3136L30.134 11.3096C29.8381 11.3091 29.5979 11.5486 29.5975 11.8445C29.597 12.1403 29.8365 12.3806 30.1324 12.381Z" fill="white"/>
<path d="M32.2756 11.8476L32.2676 14.5112C32.2667 14.807 32.5058 15.0476 32.8017 15.0485C33.0975 15.0494 33.3381 14.8103 33.339 14.5144L33.347 11.8508C33.3479 11.5549 33.1088 11.3144 32.8129 11.3135C32.5171 11.3126 32.2765 11.5517 32.2756 11.8476Z" fill="white"/>
<path d="M16.19 19.6194H20.2232C20.3991 19.6194 20.5733 19.5848 20.7358 19.5175C20.8983 19.4501 21.046 19.3515 21.1704 19.2271L23.8639 16.5335C23.9142 16.4833 23.9822 16.4551 24.0532 16.455H28.2321C28.5871 16.455 28.9277 16.3141 29.1789 16.0632L32.8706 12.3716C33.0798 12.1623 33.0798 11.8232 32.8706 11.6139C32.6614 11.4047 32.3222 11.4047 32.113 11.6139L28.4217 15.3053C28.3713 15.3554 28.3031 15.3836 28.2321 15.3835H24.0532C23.6981 15.3836 23.3575 15.5248 23.1063 15.7759L20.4127 18.4694C20.3878 18.4943 20.3583 18.5141 20.3258 18.5276C20.2932 18.5411 20.2584 18.548 20.2231 18.548H16.19C15.8941 18.548 15.6543 18.7878 15.6543 19.0837C15.6543 19.3796 15.8942 19.6194 16.19 19.6194Z" fill="white"/>
</g>
<defs>
<linearGradient id="paint0_linear_2151_1071" x1="0" y1="0" x2="50" y2="50" gradientUnits="userSpaceOnUse">
<stop stop-color="#ADED5C"/>
<stop offset="1" stop-color="#7AC619"/>
</linearGradient>
<clipPath id="clip0_2151_107">
<rect width="26.7857" height="26.7857" fill="white" transform="translate(11.9043 11.3096)"/>
</clipPath>
</defs>
</svg>
