<svg width="34" height="34" viewBox="0 0 34 34" fill="none" xmlns="http://www.w3.org/2000/svg">
<g clip-path="url(#clip0_1252_180)">
<path d="M17.0002 33.6671C26.2049 33.6671 33.6668 26.2052 33.6668 17.0004C33.6668 7.79566 26.2049 0.33374 17.0002 0.33374C7.79542 0.33374 0.333496 7.79566 0.333496 17.0004C0.333496 26.2052 7.79542 33.6671 17.0002 33.6671Z" fill="url(#paint0_linear_1252_180)" stroke="white" stroke-linecap="square"/>
<path d="M17.0002 33.6671C21.4446 29.6267 23.6668 24.0711 23.6668 17.0004C23.6668 9.9297 21.4446 4.37415 17.0002 0.33374C12.5557 4.37415 10.3335 9.9297 10.3335 17.0004C10.3335 24.0711 12.5557 29.6267 17.0002 33.6671Z" fill="url(#paint1_linear_1252_180)" stroke="white" stroke-linecap="round"/>
<path d="M1.1665 12H32.8332H1.1665ZM1.1665 22H32.8332H1.1665Z" fill="url(#paint2_linear_1252_180)"/>
<path d="M1.1665 12H32.8332M1.1665 22H32.8332" stroke="white" stroke-linecap="round"/>
</g>
<defs>
<linearGradient id="paint0_linear_1252_180" x1="17.0002" y1="0.33374" x2="17.0002" y2="33.6671" gradientUnits="userSpaceOnUse">
<stop stop-color="#F346D2"/>
<stop offset="1" stop-color="#40D8BD"/>
</linearGradient>
<linearGradient id="paint1_linear_1252_180" x1="17.0002" y1="0.33374" x2="17.0002" y2="33.6671" gradientUnits="userSpaceOnUse">
<stop stop-color="#F346D2"/>
<stop offset="1" stop-color="#40D8BD"/>
</linearGradient>
<linearGradient id="paint2_linear_1252_180" x1="16.9998" y1="12" x2="16.9998" y2="22" gradientUnits="userSpaceOnUse">
<stop stop-color="#F346D2"/>
<stop offset="1" stop-color="#40D8BD"/>
</linearGradient>
<clipPath id="clip0_1252_180">
<rect width="34" height="34" fill="white"/>
</clipPath>
</defs>
</svg>
