<svg width="34" height="34" viewBox="0 0 34 34" fill="none" xmlns="http://www.w3.org/2000/svg">
<g clip-path="url(#clip0_1260_11)">
<path d="M34 16.983C34 7.6075 26.384 0 17 0C7.616 0 0 7.6075 0 16.983C0 22.1467 2.346 26.8005 6.018 29.9242C6.052 29.9582 6.086 29.9583 6.086 29.9922C6.392 30.2302 6.698 30.4682 7.038 30.7062C7.208 30.8082 7.344 30.9421 7.514 31.0781C10.3234 32.9829 13.6398 34.0008 17.034 34C20.4282 34.0008 23.7446 32.9829 26.554 31.0781C26.724 30.9761 26.86 30.8422 27.03 30.7381C27.336 30.5022 27.676 30.2642 27.982 30.0262C28.016 29.9922 28.05 29.9922 28.05 29.9582C31.654 26.7984 34 22.1467 34 16.983ZM17 31.5294C13.804 31.5294 11.2107 30.6417 8.79674 28.9438C8.83074 28.6718 8.89874 28.6004 8.96674 28.3284C9.16933 27.5912 9.46647 26.8834 9.85074 26.2225C10.2247 25.5765 10.6667 24.9985 11.2107 24.4885C11.7207 23.9785 12.3327 23.5046 12.9447 23.1306C13.5907 22.7566 13.94 22.4846 14.688 22.2806C15.4418 22.0774 16.2193 22.1075 17 22.109C19.3176 22.0926 21.2194 22.8494 22.8913 24.4545C23.6733 25.2365 24.2853 26.1545 24.7273 27.2064C24.9653 27.8184 25.1353 28.1336 25.2373 28.8115C22.728 30.5756 20.0673 31.5245 17 31.5294ZM12.1287 16.1351C11.8292 15.4492 11.6785 14.7076 11.6867 13.9591C11.6867 13.2132 11.8227 12.4652 12.1287 11.7852C12.4347 11.1052 12.8427 10.4954 13.3527 9.98537C13.8627 9.47537 14.0779 9.26794 14.6917 8.8958C15.3717 8.5898 16.252 8.4538 17 8.4538C17.782 8.4538 18.1653 8.4575 18.8453 8.7635C19.5253 9.0695 20.1373 9.4775 20.6473 9.98537C21.1573 10.4954 21.5653 11.1074 21.8713 11.7852C22.1773 12.4652 22.3133 13.2132 22.3133 13.9591C22.3133 14.7411 22.1773 15.4551 21.8713 16.133C21.5759 16.8029 21.4919 17.0828 20.978 17.6043C20.4564 18.1174 19.5136 18.9584 18.7791 19.0907C17.3741 19.5358 16.5257 19.4697 15.1207 19.0246C14.451 18.7299 13.8404 18.4482 13.3187 17.935C12.8041 17.4211 12.3992 16.8102 12.1287 16.1351ZM27.574 27.0796C27.574 27.0116 27.54 26.9776 27.54 26.9096C27.2056 25.8459 26.7127 25.1694 26.078 24.2526C25.4427 23.3291 24.6619 22.5145 23.766 21.8407C23.0818 21.326 22.3402 20.8925 21.556 20.5487C21.9127 20.3134 22.2433 20.0406 22.542 19.7349C23.0489 19.2344 23.4941 18.6751 23.868 18.0689C24.621 16.8317 25.0099 15.4073 24.99 13.9591C25.0005 12.8871 24.7923 11.8242 24.378 10.8354C23.969 9.88261 23.3803 9.01756 22.644 8.2875C21.9088 7.56507 21.0436 6.98825 20.094 6.5875C19.1035 6.17396 18.0393 5.96645 16.966 5.97762C15.8926 5.96713 14.8283 6.17536 13.838 6.58962C12.8802 6.98952 12.0129 7.57857 11.288 8.3215C10.5656 9.05587 9.98876 9.92039 9.588 10.8694C9.17373 11.8582 8.96548 12.9211 8.976 13.9931C8.976 14.7411 9.078 15.4551 9.282 16.133C9.486 16.847 9.758 17.493 10.132 18.1029C10.472 18.7149 10.948 19.2589 11.458 19.7689C11.764 20.0749 12.104 20.3447 12.478 20.5827C11.6914 20.9356 10.9495 21.3808 10.268 21.9088C9.384 22.5888 8.602 23.4026 7.956 24.2866C7.3148 25.1996 6.82142 25.8771 6.494 26.9436C6.46 27.0116 6.46 27.0796 6.46 27.1136C3.774 24.3958 2.43874 21.0588 2.43874 16.983C2.43874 8.7975 8.806 2.43661 17 2.43661C25.194 2.43661 31.5613 8.7975 31.5613 16.983C31.5568 20.8929 30.3351 24.3112 27.574 27.0796Z" fill="url(#paint0_linear_1260_11)"/>
</g>
<defs>
<linearGradient id="paint0_linear_1260_11" x1="0" y1="0" x2="34" y2="34" gradientUnits="userSpaceOnUse">
<stop stop-color="#1DEBAD"/>
<stop offset="1" stop-color="#4D54FF"/>
</linearGradient>
<clipPath id="clip0_1260_11">
<rect width="34" height="34" fill="white"/>
</clipPath>
</defs>
</svg>
