<svg width="40" height="41" viewBox="0 0 40 41" fill="none" xmlns="http://www.w3.org/2000/svg">
<circle cx="19.9922" cy="20.8887" r="20" fill="#6D73FF"/>
<g clip-path="url(#clip0_2480_9)">
<mask id="mask0_2480_9" style="mask-type:luminance" maskUnits="userSpaceOnUse" x="9" y="10" width="21" height="21">
<path d="M29.9922 10.8887H9.99219V30.8887H29.9922V10.8887Z" fill="white"/>
</mask>
<g mask="url(#mask0_2480_9)">
<path d="M29.9922 20.8787C29.9922 15.3637 25.5122 10.8887 19.9922 10.8887C14.4722 10.8887 9.99219 15.3637 9.99219 20.8787C9.99219 23.9161 11.3722 26.6537 13.5322 28.4911C13.5522 28.5111 13.5722 28.5112 13.5722 28.5311C13.7522 28.6711 13.9322 28.8111 14.1322 28.9511C14.2322 29.0111 14.3122 29.0899 14.4122 29.1699C16.0648 30.2904 18.0156 30.8891 20.0122 30.8887C22.0088 30.8891 23.9596 30.2904 25.6122 29.1699C25.7122 29.1099 25.7922 29.0311 25.8922 28.9699C26.0722 28.8311 26.2722 28.6911 26.4522 28.5511C26.4722 28.5311 26.4922 28.5311 26.4922 28.5111C28.6122 26.6524 29.9922 23.9161 29.9922 20.8787ZM19.9922 29.4354C18.1122 29.4354 16.5867 28.9132 15.1667 27.9144C15.1867 27.7544 15.2267 27.7124 15.2667 27.5524C15.3859 27.1188 15.5607 26.7024 15.7867 26.3137C16.0067 25.9337 16.2667 25.5937 16.5867 25.2937C16.8867 24.9937 17.2467 24.7149 17.6067 24.4949C17.9867 24.2749 18.1922 24.1149 18.6322 23.9949C19.0756 23.8754 19.533 23.8931 19.9922 23.894C21.3555 23.8843 22.4742 24.3295 23.4577 25.2737C23.9177 25.7337 24.2777 26.2737 24.5377 26.8924C24.6777 27.2524 24.7777 27.4378 24.8377 27.8366C23.3616 28.8743 21.7965 29.4325 19.9922 29.4354ZM17.1267 20.3799C16.9505 19.9764 16.8619 19.5402 16.8667 19.0999C16.8667 18.6611 16.9467 18.2211 17.1267 17.8211C17.3067 17.4211 17.5467 17.0624 17.8467 16.7624C18.1467 16.4624 18.2733 16.3404 18.6344 16.1215C19.0344 15.9415 19.5522 15.8615 19.9922 15.8615C20.4522 15.8615 20.6777 15.8637 21.0777 16.0437C21.4777 16.2237 21.8377 16.4637 22.1377 16.7624C22.4377 17.0624 22.6777 17.4224 22.8577 17.8211C23.0377 18.2211 23.1177 18.6611 23.1177 19.0999C23.1177 19.5599 23.0377 19.9799 22.8577 20.3787C22.6839 20.7727 22.6345 20.9374 22.3322 21.2441C22.0254 21.546 21.4708 22.0407 21.0387 22.1185C20.2122 22.3803 19.7132 22.3414 18.8867 22.0796C18.4928 21.9063 18.1336 21.7406 17.8267 21.4387C17.524 21.1364 17.2858 20.777 17.1267 20.3799ZM26.2122 26.8178C26.2122 26.7778 26.1922 26.7578 26.1922 26.7178C25.9955 26.0921 25.7055 25.6942 25.3322 25.1549C24.9585 24.6117 24.4992 24.1325 23.9722 23.7361C23.5697 23.4334 23.1335 23.1784 22.6722 22.9761C22.882 22.8377 23.0765 22.6773 23.2522 22.4974C23.5504 22.203 23.8122 21.874 24.0322 21.5174C24.4751 20.7897 24.7039 19.9518 24.6922 19.0999C24.6984 18.4693 24.5759 17.8441 24.3322 17.2624C24.0916 16.702 23.7453 16.1931 23.3122 15.7637C22.8797 15.3387 22.3708 14.9994 21.8122 14.7637C21.2295 14.5204 20.6035 14.3983 19.9722 14.4049C19.3408 14.3987 18.7147 14.5212 18.1322 14.7649C17.5688 15.0002 17.0586 15.3467 16.6322 15.7837C16.2072 16.2157 15.8679 16.7242 15.6322 17.2824C15.3885 17.8641 15.266 18.4893 15.2722 19.1199C15.2722 19.5599 15.3322 19.9799 15.4522 20.3787C15.5722 20.7987 15.7322 21.1787 15.9522 21.5374C16.1522 21.8974 16.4322 22.2174 16.7322 22.5174C16.9122 22.6974 17.1122 22.8561 17.3322 22.9961C16.8695 23.2037 16.4331 23.4656 16.0322 23.7762C15.5122 24.1762 15.0522 24.6549 14.6722 25.1749C14.295 25.712 14.0048 26.1105 13.8122 26.7378C13.7922 26.7778 13.7922 26.8178 13.7922 26.8378C12.2122 25.2391 11.4267 23.2762 11.4267 20.8787C11.4267 16.0637 15.1722 12.322 19.9922 12.322C24.8122 12.322 28.5577 16.0637 28.5577 20.8787C28.555 23.1786 27.8364 25.1894 26.2122 26.8178Z" fill="white"/>
</g>
</g>
<defs>
<clipPath id="clip0_2480_9">
<rect width="20" height="20" fill="white" transform="translate(9.99219 10.8887)"/>
</clipPath>
</defs>
</svg>
