<svg width="34" height="34" viewBox="0 0 34 34" fill="none" xmlns="http://www.w3.org/2000/svg">
<path d="M18.2566 32H15.7371C14.8157 31.999 13.9322 31.6309 13.2805 30.9764C12.6287 30.322 12.2619 29.4346 12.2604 28.5087V27.335C12.2601 27.2748 12.2443 27.2157 12.2145 27.1635C12.1848 27.1113 12.1421 27.0676 12.0905 27.0369L10.829 26.2981C10.777 26.2682 10.7181 26.2524 10.6582 26.2524C10.5983 26.2524 10.5394 26.2682 10.4874 26.2981L9.48152 26.8812C9.08671 27.1124 8.65006 27.2623 8.197 27.3222C7.74395 27.382 7.28354 27.3507 6.84266 27.23C6.40056 27.1122 5.98605 26.9076 5.62312 26.6279C5.2602 26.3482 4.95606 25.9991 4.72822 25.6006L3.46102 23.3881C3.00398 22.5865 2.88095 21.6357 3.11867 20.7432C3.35639 19.8508 3.93562 19.0889 4.7301 18.6237L5.75281 18.0312C5.80493 18.0006 5.84816 17.9568 5.87827 17.9041C5.90839 17.8515 5.9243 17.792 5.92446 17.7313V16.2687C5.9243 16.208 5.90839 16.1485 5.87827 16.0959C5.84816 16.0432 5.80493 15.9994 5.75281 15.9688L4.73198 15.3763C3.9368 14.9117 3.35684 14.15 3.11873 13.2573C2.88061 12.3647 3.00363 11.4136 3.46102 10.6118L4.72822 8.39936C4.95606 8.0009 5.2602 7.65175 5.62312 7.37208C5.98605 7.09242 6.40056 6.8878 6.84266 6.77001C7.28357 6.64874 7.74416 6.61727 8.19735 6.67749C8.65053 6.7377 9.08715 6.88835 9.48152 7.1206L10.4855 7.70185C10.5376 7.73269 10.5969 7.749 10.6573 7.749C10.7177 7.749 10.777 7.73269 10.829 7.70185L12.0905 6.96313C12.1421 6.93239 12.1848 6.88874 12.2145 6.8365C12.2443 6.78426 12.2601 6.7252 12.2604 6.66501V5.49125C12.2619 4.56544 12.6287 3.67803 13.2805 3.02356C13.9322 2.36909 14.8157 2.00099 15.7371 2H18.2622C19.184 2.0005 20.068 2.36835 20.7201 3.02287C21.3723 3.67739 21.7394 4.56512 21.7408 5.49125V6.66501C21.7411 6.72499 21.7567 6.78391 21.7861 6.8361C21.8155 6.8883 21.8578 6.93202 21.9088 6.96313L23.1722 7.70185C23.2239 7.73272 23.2829 7.74905 23.343 7.74905C23.4031 7.74905 23.4621 7.73272 23.5138 7.70185L24.5178 7.11877C24.9127 6.88698 25.3497 6.73669 25.8032 6.6768C26.2566 6.61691 26.7174 6.64863 27.1586 6.77001C27.6005 6.88754 28.0148 7.09209 28.3775 7.3718C28.7401 7.6515 29.0439 8.00077 29.2711 8.39936L30.5383 10.6118C30.9958 11.4134 31.1192 12.3643 30.8814 13.2569C30.6437 14.1495 30.0641 14.9114 29.2692 15.3763L28.2465 15.9688C28.1944 15.9994 28.1512 16.0432 28.1211 16.0959C28.091 16.1485 28.075 16.208 28.0749 16.2687V17.7313C28.075 17.792 28.091 17.8515 28.1211 17.9041C28.1512 17.9568 28.1944 18.0006 28.2465 18.0312L29.2674 18.6237C30.0629 19.0879 30.6432 19.8497 30.8814 20.7424C31.1195 21.6352 30.9961 22.5865 30.5383 23.3881L29.2711 25.6006C29.0439 25.9992 28.7401 26.3485 28.3775 26.6282C28.0148 26.9079 27.6005 27.1125 27.1586 27.23C26.7173 27.351 26.2565 27.3823 25.803 27.3221C25.3496 27.2619 24.9126 27.1114 24.5178 26.8794L23.5156 26.2981C23.4633 26.2682 23.4042 26.2525 23.344 26.2525C23.2838 26.2525 23.2246 26.2682 23.1722 26.2981L21.9088 27.0369C21.8578 27.068 21.8155 27.1117 21.7861 27.1639C21.7567 27.2161 21.7411 27.275 21.7408 27.335V28.5087C21.7394 29.4359 21.3715 30.3244 20.7181 30.9791C20.0648 31.6338 19.1793 32.001 18.2566 32ZM10.6498 24.3819C11.0431 24.3807 11.4297 24.4849 11.7696 24.6837L13.0311 25.4337C13.3636 25.6285 13.6394 25.9074 13.8313 26.2426C14.0232 26.5779 14.1244 26.9577 14.1247 27.3444V28.5181C14.1252 28.9485 14.2957 29.361 14.5988 29.6651C14.9018 29.9692 15.3126 30.14 15.7409 30.14H18.2659C18.6944 30.14 19.1054 29.9692 19.4087 29.6652C19.7121 29.3611 19.883 28.9486 19.8839 28.5181V27.3444C19.8845 26.9579 19.9855 26.5784 20.177 26.2433C20.3685 25.9082 20.6438 25.6291 20.9757 25.4337L22.2372 24.6837C22.5737 24.4884 22.9554 24.3856 23.344 24.3856C23.7325 24.3856 24.1142 24.4884 24.4506 24.6837L25.4528 25.265C25.6361 25.3736 25.8393 25.4441 26.0503 25.4721C26.2612 25.5001 26.4757 25.4852 26.6808 25.4281C26.8854 25.3747 27.0775 25.2808 27.2457 25.1521C27.4139 25.0233 27.5549 24.8622 27.6605 24.6781L28.9296 22.4675C29.1417 22.0946 29.1986 21.6526 29.0878 21.2379C28.977 20.8231 28.7075 20.4691 28.338 20.2531L27.3191 19.6587C26.9846 19.4641 26.7069 19.1847 26.5137 18.8484C26.3205 18.5121 26.2185 18.1308 26.2179 17.7425V16.28C26.2185 15.8917 26.3205 15.5104 26.5137 15.1741C26.7069 14.8378 26.9846 14.5584 27.3191 14.3637L28.3399 13.7694C28.709 13.5531 28.9781 13.1989 29.0886 12.7842C29.199 12.3694 29.1419 11.9276 28.9296 11.555L27.6605 9.34436C27.5549 9.16029 27.4139 8.99922 27.2457 8.87046C27.0775 8.7417 26.8854 8.64782 26.6808 8.59437C26.2663 8.48322 25.8249 8.54118 25.4528 8.75562L24.4487 9.33875C24.1131 9.53543 23.7315 9.63904 23.343 9.63904C22.9544 9.63904 22.5729 9.53543 22.2372 9.33875L20.9757 8.58876C20.6438 8.39343 20.3685 8.11439 20.177 7.77927C19.9855 7.44414 19.8845 7.06454 19.8839 6.67812V5.50435C19.883 5.07386 19.7121 4.66136 19.4087 4.35731C19.1054 4.05326 18.6944 3.88249 18.2659 3.8825H15.7371C15.3088 3.8825 14.898 4.05332 14.595 4.35743C14.292 4.66153 14.1215 5.07403 14.121 5.50435V6.67812C14.1206 7.06479 14.0195 7.44463 13.8276 7.77984C13.6357 8.11504 13.3598 8.39395 13.0274 8.58876L11.7658 9.33875C11.4296 9.53485 11.0479 9.63813 10.6591 9.63813C10.2704 9.63813 9.88859 9.53485 9.55243 9.33875L8.55216 8.75751C8.36836 8.65014 8.16516 8.58043 7.95438 8.55243C7.74361 8.52443 7.5294 8.53868 7.32414 8.59437C7.11922 8.64779 6.92689 8.74159 6.75837 8.87035C6.58985 8.9991 6.44849 9.16023 6.3425 9.34436L5.07347 11.555C4.86133 11.9279 4.8045 12.3698 4.91531 12.7846C5.02613 13.1994 5.29564 13.5534 5.6651 13.7694L6.68405 14.3637C7.01846 14.5584 7.29614 14.8378 7.48936 15.1741C7.68259 15.5104 7.78458 15.8917 7.78512 16.28V17.7425C7.78458 18.1308 7.68259 18.5121 7.48936 18.8484C7.29614 19.1847 7.01846 19.4641 6.68405 19.6587L5.66322 20.2531C5.29407 20.4694 5.02497 20.8236 4.91451 21.2383C4.80406 21.6531 4.86117 22.0948 5.07347 22.4675L6.3425 24.6781C6.44849 24.8623 6.58985 25.0234 6.75837 25.1521C6.92689 25.2809 7.11922 25.3747 7.32414 25.4281C7.52917 25.485 7.74347 25.5001 7.95438 25.4724C8.1653 25.4447 8.36858 25.3748 8.55216 25.2669L9.55431 24.6837C9.88664 24.4879 10.2646 24.3838 10.6498 24.3819ZM17.0267 23.0488C15.4306 23.0468 13.9004 22.4089 12.7718 21.2749C11.6431 20.141 11.0082 18.6036 11.0063 17C11.0082 15.3964 11.6431 13.859 12.7718 12.7251C13.9004 11.5911 15.4306 10.9532 17.0267 10.9512C18.6232 10.9527 20.1538 11.5904 21.2829 12.7244C22.4119 13.8584 23.0471 15.3961 23.0491 17C23.0471 18.6039 22.4119 20.1416 21.2829 21.2756C20.1538 22.4096 18.6232 23.0473 17.0267 23.0488ZM17.0267 12.8206C15.9239 12.8221 14.8667 13.2629 14.0869 14.0464C13.3071 14.8299 12.8684 15.892 12.8669 17C12.8684 18.108 13.3071 19.1701 14.0869 19.9536C14.8667 20.7371 15.9239 21.1779 17.0267 21.1794C18.13 21.1784 19.1879 20.7379 19.9684 19.9544C20.7489 19.1709 21.1883 18.1085 21.1903 17C21.1883 15.8915 20.7489 14.8291 19.9684 14.0456C19.1879 13.2621 18.13 12.8216 17.0267 12.8206Z" fill="url(#paint0_linear_2105_2)"/>
<defs>
<linearGradient id="paint0_linear_2105_2" x1="2.93954" y1="2" x2="31.1825" y2="31.868" gradientUnits="userSpaceOnUse">
<stop stop-color="#E543FF"/>
<stop offset="1" stop-color="#7545FF"/>
</linearGradient>
</defs>
</svg>
