<svg width="41" height="41" viewBox="0 0 41 41" fill="none" xmlns="http://www.w3.org/2000/svg">
<circle cx="20.5586" cy="20.9673" r="20" fill="#6D73FF"/>
<g clip-path="url(#clip0_2480_66)">
<path fill-rule="evenodd" clip-rule="evenodd" d="M21.7759 11.7397C21.4175 11.5923 20.9629 11.5923 20.0539 11.5923C19.1449 11.5923 18.6904 11.5923 18.332 11.7397C17.8539 11.9362 17.4742 12.3131 17.2762 12.7875C17.1858 13.004 17.1504 13.2559 17.1365 13.6233C17.1162 14.1631 16.8372 14.6629 16.3658 14.933C15.8944 15.2031 15.3188 15.193 14.8376 14.9406C14.5101 14.7688 14.2726 14.6732 14.0384 14.6426C13.5255 14.5756 13.0067 14.7136 12.5962 15.0262C12.2883 15.2606 12.0611 15.6512 11.6066 16.4325C11.1521 17.2138 10.9249 17.6043 10.8742 17.9862C10.8067 18.4953 10.9457 19.0102 11.2607 19.4175C11.4044 19.6035 11.6065 19.7598 11.9201 19.9553C12.3811 20.2428 12.6777 20.7326 12.6776 21.2728C12.6776 21.8131 12.381 22.3028 11.9201 22.5902C11.6064 22.7858 11.4043 22.9422 11.2606 23.1281C10.9456 23.5355 10.8066 24.0503 10.8741 24.5594C10.9248 24.9412 11.152 25.3319 11.6065 26.1131C12.061 26.8943 12.2882 27.285 12.5961 27.5194C13.0066 27.832 13.5254 27.97 14.0383 27.903C14.2725 27.8723 14.5099 27.7768 14.8374 27.6051C15.3187 27.3526 15.8943 27.3425 16.3658 27.6127C16.8372 27.8828 17.1162 28.3825 17.1365 28.9225C17.1504 29.2898 17.1858 29.5417 17.2762 29.7582C17.4742 30.2326 17.8539 30.6095 18.332 30.806C18.6904 30.9534 19.1449 30.9534 20.0539 30.9534C20.9629 30.9534 21.4175 30.9534 21.7759 30.806C22.2539 30.6095 22.6337 30.2326 22.8317 29.7582C22.9221 29.5417 22.9575 29.2898 22.9714 28.9224C22.9917 28.3825 23.2706 27.8828 23.742 27.6127C24.2135 27.3425 24.7891 27.3526 25.2704 27.6051C25.5979 27.7768 25.8353 27.8723 26.0694 27.9028C26.5824 27.97 27.1012 27.832 27.5117 27.5194C27.8196 27.285 28.0468 26.8943 28.5013 26.113C28.9558 25.3318 29.183 24.9412 29.2337 24.5594C29.3012 24.0503 29.1622 23.5354 28.8473 23.128C28.7034 22.942 28.5014 22.7857 28.1877 22.5902C27.7269 22.3028 27.4302 21.813 27.4302 21.2727C27.4302 20.7325 27.7269 20.2429 28.1877 19.9555C28.5015 19.7598 28.7035 19.6036 28.8474 19.4175C29.1623 19.0102 29.3013 18.4953 29.2338 17.9863C29.1831 17.6045 28.9559 17.2138 28.5014 16.4326C28.0469 15.6513 27.8197 15.2607 27.5117 15.0262C27.1013 14.7136 26.5825 14.5757 26.0695 14.6427C25.8354 14.6733 25.5979 14.7688 25.2705 14.9406C24.7892 15.1931 24.2136 15.2032 23.7422 14.933C23.2707 14.6629 22.9917 14.1631 22.9713 13.6232C22.9574 13.2559 22.9221 13.004 22.8317 12.7875C22.6337 12.3131 22.2539 11.9362 21.7759 11.7397ZM20.0539 24.177C21.6701 24.177 22.9802 22.8768 22.9802 21.2728C22.9802 19.6688 21.6701 18.3687 20.0539 18.3687C18.4378 18.3687 17.1277 19.6688 17.1277 21.2728C17.1277 22.8768 18.4378 24.177 20.0539 24.177Z" fill="white"/>
</g>
<defs>
<clipPath id="clip0_2480_66">
<rect width="20" height="20" fill="white" transform="translate(10.2324 10.9673)"/>
</clipPath>
</defs>
</svg>
