<svg width="32" height="33" viewBox="0 0 32 33" fill="none" xmlns="http://www.w3.org/2000/svg">
<path d="M15.6862 0.12754C7.27114 0.0579057 0.368225 7.20487 0.144522 15.59C0.139168 15.7513 0.267783 15.8853 0.429169 15.8866L3.1255 15.9089C3.21999 12.6389 4.96498 9.62422 6.65765 7.55053C7.83357 6.39391 8.98446 5.19534 10.5005 4.56908C12.3189 3.81794 13.7511 3.36028 15.4629 3.37445C17.1782 3.38864 19.1692 3.83536 20.7241 4.58669C22.279 5.33803 23.333 6.21768 24.4896 7.3936C24.8455 7.75543 25.1077 7.93703 25.413 8.33074L23.7828 9.63084C23.5914 9.77643 23.6531 10.0788 23.8863 10.1377L29.5017 11.5586C29.6807 11.6032 29.8577 11.4683 29.8592 11.2853L29.9359 5.49004C29.9379 5.24961 29.6627 5.11094 29.4749 5.26011L27.8202 6.4802C25.0366 2.85763 20.6061 0.168252 15.6862 0.12754ZM28.2504 16.1168C28.2552 15.9625 28.0961 16.1155 28.2504 16.1168C28.1559 19.3868 27.0215 22.3169 24.6867 24.6084C23.5216 25.7592 22.3339 26.7558 20.8205 27.3816C19.2505 28.0289 17.2459 28.681 15.5342 28.6668C13.8225 28.6527 11.754 28.1196 10.1985 27.4428C8.69563 26.792 7.85605 25.9903 6.71009 24.8204C6.35421 24.4586 5.97972 23.9309 5.67434 23.5372L7.35548 22.3929C7.54692 22.2473 7.4852 21.9449 7.25201 21.886L1.63656 20.4651C1.45749 20.4205 1.28058 20.5554 1.27906 20.7384L1.20231 26.5408C1.20032 26.7812 1.47552 26.9199 1.66337 26.7707L3.21408 25.4721C6.00494 29.0876 10.5394 31.8555 15.4592 31.8962C23.8743 31.9659 30.7772 24.8189 31.0009 16.4338C31.0063 16.2725 30.8777 16.1385 30.7163 16.1372L28.2504 16.1168Z" fill="url(#transactions_linear)"/>
<defs>
<linearGradient id="transactions_linear" x1="0.205979" y1="0.307202" x2="30.7904" y2="31.7153" gradientUnits="userSpaceOnUse">
<stop stop-color="#883FFF"/>
<stop offset="1" stop-color="#54F5FF"/>
</linearGradient>
</defs>
</svg>
