<svg width="40" height="40" viewBox="0 0 40 40" fill="none" xmlns="http://www.w3.org/2000/svg">
<circle cx="19.9922" cy="20.0015" r="20" fill="#6D73FF"/>
<g clip-path="url(#clip0_2480_30)">
<mask id="mask0_2480_30" style="mask-type:luminance" maskUnits="userSpaceOnUse" x="9" y="10" width="21" height="21">
<path d="M29.9922 10.0015H9.99219V30.0015H29.9922V10.0015Z" fill="white"/>
</mask>
<g mask="url(#mask0_2480_30)">
<path fill-rule="evenodd" clip-rule="evenodd" d="M28.7019 23.8725H16.4438C15.7315 23.8725 15.1535 24.4506 15.1535 25.1629C15.1535 25.8751 15.7315 26.4532 16.4438 26.4532H28.7019C29.4141 26.4532 29.9922 25.8751 29.9922 25.1629C29.9922 24.4506 29.4141 23.8725 28.7019 23.8725ZM28.7019 18.7113H16.4438C15.7315 18.7113 15.1535 19.2893 15.1535 20.0015C15.1535 20.7138 15.7315 21.2919 16.4438 21.2919H28.7019C29.4141 21.2919 29.9922 20.7138 29.9922 20.0015C29.9922 19.2893 29.4141 18.7113 28.7019 18.7113ZM16.4438 16.1306H28.7019C29.4141 16.1306 29.9922 15.5525 29.9922 14.8403C29.9922 14.128 29.4141 13.5499 28.7019 13.5499H16.4438C15.7315 13.5499 15.1535 14.128 15.1535 14.8403C15.1535 15.5525 15.7315 16.1306 16.4438 16.1306ZM11.9277 23.2274C10.8586 23.2274 9.99219 24.0938 9.99219 25.1629C9.99219 26.2319 10.8586 27.0983 11.9277 27.0983C12.9967 27.0983 13.8632 26.2319 13.8632 25.1629C13.8632 24.0938 12.9967 23.2274 11.9277 23.2274ZM11.9277 18.0661C10.8586 18.0661 9.99219 18.9325 9.99219 20.0015C9.99219 21.0706 10.8586 21.9371 11.9277 21.9371C12.9967 21.9371 13.8632 21.0706 13.8632 20.0015C13.8632 18.9325 12.9967 18.0661 11.9277 18.0661ZM11.9277 12.9048C10.8586 12.9048 9.99219 13.7712 9.99219 14.8403C9.99219 15.9093 10.8586 16.7757 11.9277 16.7757C12.9967 16.7757 13.8632 15.9093 13.8632 14.8403C13.8632 13.7712 12.9967 12.9048 11.9277 12.9048Z" fill="white"/>
</g>
</g>
<defs>
<clipPath id="clip0_2480_30">
<rect width="20" height="20" fill="white" transform="translate(9.99219 10.0015)"/>
</clipPath>
</defs>
</svg>
