<svg width="23" height="22" viewBox="0 0 23 22" fill="none" xmlns="http://www.w3.org/2000/svg">
<path d="M9.4963 14.3879L5.54881 19.5816C5.38206 19.7888 4.90819 19.7592 4.71762 19.5224L0.389579 14.432C0.199009 14.1952 0.27281 13.6123 0.46338 13.3459C0.65395 13.1091 1.20027 12.944 1.41466 13.1808L4.307 16.6227L4.307 2.96145C4.307 2.60626 4.73558 2.33987 5.02143 2.33987C5.30729 2.33987 5.80244 2.60626 5.80244 2.96145L5.80244 16.5898L8.45814 13.2137C8.55343 13.0953 8.8426 13.0802 8.98552 13.0802C9.10463 13.0802 9.32136 13.2605 9.41664 13.3789C9.60721 13.6157 9.71069 14.1215 9.4963 14.3879Z" fill="#0DC3B4"/>
<path d="M13.5037 7.61209L17.4512 2.4184C17.6179 2.21121 18.0918 2.24081 18.2824 2.4776L22.6104 7.56802C22.801 7.80481 22.7272 8.38768 22.5366 8.65407C22.3461 8.89086 21.7997 9.056 21.5853 8.81921L18.693 5.37726L18.693 19.0385C18.693 19.3937 18.2644 19.6601 17.9786 19.6601C17.6927 19.6601 17.1976 19.3937 17.1976 19.0385L17.1976 5.41019L14.5419 8.78627C14.4466 8.90467 14.1574 8.9198 14.0145 8.9198C13.8954 8.9198 13.6786 8.73953 13.5834 8.62114C13.3928 8.38434 13.2893 7.87848 13.5037 7.61209Z" fill="#0DC3B4"/>
</svg>
