<svg width="28" height="4" viewBox="0 0 28 4" fill="none" xmlns="http://www.w3.org/2000/svg">
<g clip-path="url(#clip0_1567_3)">
<path d="M5.96875 0C7.05944 0 7.9375 0.895982 7.9375 2.00893C7.9375 3.12188 7.05944 4.01786 5.96875 4.01786C4.87806 4.01786 4 3.12188 4 2.00893C4 0.895982 4.87806 0 5.96875 0Z" fill="#ADADAD"/>
<path d="M23.0312 0C24.1219 0 25 0.895982 25 2.00893C25 3.12188 24.1219 4.01786 23.0312 4.01786C21.9406 4.01786 21.0625 3.12188 21.0625 2.00893C21.0625 0.895982 21.9406 0 23.0312 0Z" fill="#ADADAD"/>
<path d="M14.5 0C15.5907 0 16.4688 0.895982 16.4688 2.00893C16.4688 3.12188 15.5907 4.01786 14.5 4.01786C13.4093 4.01786 12.5312 3.12188 12.5312 2.00893C12.5312 0.895982 13.4093 0 14.5 0Z" fill="#ADADAD"/>
</g>
<defs>
<clipPath id="clip0_1567_3">
<rect width="28" height="4" fill="white"/>
</clipPath>
</defs>
</svg>
