<svg width="28" height="28" viewBox="0 0 28 28" fill="none" xmlns="http://www.w3.org/2000/svg">
<g clip-path="url(#clip0_2299_14)">
<path fill-rule="evenodd" clip-rule="evenodd" d="M23.8 15.3332H19.6C17.2802 15.3332 15.4 17.1238 15.4 19.3332V23.3332C15.4 25.5425 17.2802 27.3332 19.6 27.3332H23.8C26.1198 27.3332 28 25.5425 28 23.3332V19.3332C28 17.1238 26.1198 15.3332 23.8 15.3332ZM8.4 15.3332H4.2C1.8802 15.3332 0 17.1238 0 19.3332V23.3332C0 25.5425 1.8802 27.3332 4.2 27.3332H8.4C10.7198 27.3332 12.6 25.5425 12.6 23.3332V19.3332C12.6 17.1238 10.7198 15.3332 8.4 15.3332ZM23.8 0.666504H19.6C17.2802 0.666504 15.4 2.45717 15.4 4.6665V8.6665C15.4 10.8758 17.2802 12.6665 19.6 12.6665H23.8C26.1198 12.6665 28 10.8758 28 8.6665V4.6665C28 2.45717 26.1198 0.666504 23.8 0.666504ZM12.6 4.6665V8.6665C12.6 10.8758 10.7198 12.6665 8.4 12.6665H4.2C1.8802 12.6665 0 10.8758 0 8.6665V4.6665C0 2.45717 1.8802 0.666504 4.2 0.666504H8.4C10.7198 0.666504 12.6 2.45717 12.6 4.6665Z" fill="#D3D3D3"/>
</g>
<defs>
<clipPath id="clip0_2299_14">
<rect width="28" height="28" fill="white"/>
</clipPath>
</defs>
</svg>
