<svg width="32" height="32" viewBox="0 0 32 32" fill="none" xmlns="http://www.w3.org/2000/svg">
<path fill-rule="evenodd" clip-rule="evenodd" d="M18.4696 1.2358C17.8961 1 17.1688 1 15.7144 1C14.26 1 13.5328 1 12.9593 1.2358C12.1944 1.55021 11.5868 2.15327 11.27 2.9123C11.1254 3.25881 11.0688 3.66177 11.0466 4.24955C11.0141 5.11335 10.5677 5.91291 9.81344 6.34511C9.05914 6.77729 8.13827 6.76115 7.36824 6.35723C6.84423 6.08237 6.46431 5.92952 6.08963 5.88058C5.26887 5.77333 4.43881 5.99407 3.78205 6.49422C3.28947 6.86933 2.92587 7.49434 2.19868 8.74434C1.47149 9.99435 1.10791 10.6193 1.02687 11.2303C0.918804 12.0448 1.14122 12.8686 1.64519 13.5204C1.87521 13.818 2.19848 14.068 2.70021 14.3809C3.43781 14.8409 3.9124 15.6245 3.91236 16.4889C3.91231 17.3533 3.43773 18.1368 2.70021 18.5966C2.1984 18.9096 1.87507 19.1598 1.64503 19.4573C1.14107 20.1091 0.918664 20.9328 1.02671 21.7474C1.10775 22.3582 1.47135 22.9834 2.19853 24.2333C2.92571 25.4833 3.28932 26.1084 3.78189 26.4834C4.43865 26.9835 5.26872 27.2043 6.08948 27.0971C6.46414 27.0481 6.84403 26.8953 7.36799 26.6205C8.13808 26.2165 9.05902 26.2004 9.81336 26.6326C10.5677 27.0649 11.0141 27.8644 11.0466 28.7284C11.0688 29.316 11.1254 29.719 11.27 30.0655C11.5868 30.8245 12.1944 31.4276 12.9593 31.742C13.5328 31.9778 14.26 31.9778 15.7144 31.9778C17.1688 31.9778 17.8961 31.9778 18.4696 31.742C19.2344 31.4276 19.8421 30.8245 20.1588 30.0655C20.3035 29.719 20.3602 29.316 20.3823 28.7282C20.4149 27.8644 20.8611 27.0649 21.6154 26.6326C22.3697 26.2003 23.2907 26.2165 24.0608 26.6205C24.5848 26.8953 24.9646 27.048 25.3392 27.0969C26.16 27.2043 26.99 26.9835 27.6468 26.4834C28.1395 26.1083 28.503 25.4833 29.2302 24.2332C29.9574 22.9832 30.3209 22.3582 30.4021 21.7474C30.51 20.9328 30.2876 20.109 29.7838 19.4572C29.5536 19.1596 29.2304 18.9095 28.7285 18.5966C27.9911 18.1368 27.5165 17.3532 27.5165 16.4887C27.5165 15.6243 27.9911 14.841 28.7285 14.3812C29.2305 14.0681 29.5538 13.8181 29.7839 13.5204C30.2878 12.8687 30.5102 12.0449 30.4022 11.2304C30.3211 10.6195 29.9576 9.99444 29.2304 8.74444C28.5032 7.49444 28.1396 6.86944 27.6469 6.49433C26.9902 5.99418 26.1601 5.77344 25.3394 5.88069C24.9647 5.92963 24.5848 6.08246 24.0609 6.3573C23.2908 6.76123 22.3699 6.77739 21.6156 6.34515C20.8612 5.91294 20.4149 5.11332 20.3822 4.24948C20.36 3.66173 20.3035 3.25879 20.1588 2.9123C19.8421 2.15327 19.2344 1.55021 18.4696 1.2358ZM15.7144 21.1356C18.3003 21.1356 20.3964 19.0552 20.3964 16.4889C20.3964 13.9225 18.3003 11.8422 15.7144 11.8422C13.1286 11.8422 11.0324 13.9225 11.0324 16.4889C11.0324 19.0552 13.1286 21.1356 15.7144 21.1356Z" fill="#D3D3D3"/>
</svg>
