<svg width="34" height="34" viewBox="0 0 34 34" fill="none" xmlns="http://www.w3.org/2000/svg">
<path d="M18.4361 34H15.5567C14.5036 33.9989 13.494 33.5817 12.7491 32.84C12.0042 32.0982 11.585 31.0925 11.5833 30.0432V28.713C11.583 28.6448 11.5649 28.5778 11.5309 28.5186C11.4969 28.4594 11.4481 28.41 11.3892 28.3751L9.9474 27.5379C9.888 27.504 9.82067 27.4861 9.7522 27.4861C9.68373 27.4861 9.61647 27.504 9.55706 27.5379L8.40746 28.1987C7.95624 28.4607 7.45721 28.6306 6.93943 28.6985C6.42166 28.7663 5.89548 28.7308 5.39161 28.594C4.88635 28.4605 4.41263 28.2286 3.99786 27.9116C3.58308 27.5947 3.23549 27.199 2.97511 26.7474L1.52688 24.2399C1.00454 23.3313 0.863945 22.2538 1.13562 21.2423C1.4073 20.2309 2.06928 19.3675 2.97726 18.8402L4.14607 18.1687C4.20564 18.134 4.25504 18.0843 4.28946 18.0247C4.32387 17.9651 4.34206 17.8976 4.34224 17.8288V16.1712C4.34206 16.1024 4.32387 16.0349 4.28946 15.9753C4.25504 15.9157 4.20564 15.866 4.14607 15.8313L2.97941 15.1598C2.07063 14.6333 1.40782 13.77 1.13569 12.7583C0.863559 11.7466 1.00415 10.6688 1.52688 9.7601L2.97511 7.25261C3.23549 6.80102 3.58308 6.40532 3.99786 6.08836C4.41263 5.77141 4.88635 5.53951 5.39161 5.40601C5.89551 5.26858 6.4219 5.23291 6.93982 5.30115C7.45775 5.36939 7.95674 5.54013 8.40746 5.80335L9.55491 6.46209C9.61435 6.49705 9.68214 6.51553 9.75116 6.51553C9.82018 6.51553 9.88796 6.49705 9.9474 6.46209L11.3892 5.62488C11.4481 5.59004 11.4969 5.54058 11.5309 5.48137C11.5649 5.42216 11.583 5.35523 11.5833 5.28701V3.95675C11.585 2.9075 12.0042 1.90176 12.7491 1.16003C13.494 0.418304 14.5036 0.00112384 15.5567 0H18.4425C19.496 0.000561438 20.5062 0.417465 21.2516 1.15926C21.9969 1.90105 22.4164 2.90714 22.4181 3.95675V5.28701C22.4184 5.35499 22.4362 5.42176 22.4698 5.48091C22.5035 5.54007 22.5517 5.58962 22.6101 5.62488L24.054 6.46209C24.113 6.49708 24.1804 6.51559 24.2491 6.51559C24.3178 6.51559 24.3853 6.49708 24.4443 6.46209L25.5918 5.80127C26.0431 5.53857 26.5425 5.36824 27.0608 5.30037C27.579 5.2325 28.1056 5.26844 28.6098 5.40601C29.1149 5.53921 29.5884 5.77104 30.0028 6.08804C30.4173 6.40504 30.7645 6.80087 31.0241 7.25261L32.4723 9.7601C32.9952 10.6685 33.1362 11.7462 32.8645 12.7578C32.5927 13.7695 31.9304 14.6329 31.022 15.1598L29.8532 15.8313C29.7936 15.866 29.7442 15.9157 29.7098 15.9753C29.6754 16.0349 29.6572 16.1024 29.657 16.1712V17.8288C29.6572 17.8976 29.6754 17.9651 29.7098 18.0247C29.7442 18.0843 29.7936 18.134 29.8532 18.1687L31.0198 18.8402C31.929 19.3663 32.5922 20.2296 32.8644 21.2414C33.1366 22.2533 32.9956 23.3313 32.4723 24.2399L31.0241 26.7474C30.7645 27.1991 30.4173 27.595 30.0028 27.912C29.5884 28.229 29.1149 28.4608 28.6098 28.594C28.1055 28.7311 27.5788 28.7666 27.0606 28.6984C26.5424 28.6302 26.043 28.4596 25.5918 28.1966L24.4464 27.5379C24.3866 27.504 24.319 27.4862 24.2502 27.4862C24.1814 27.4862 24.1138 27.504 24.054 27.5379L22.6101 28.3751C22.5517 28.4104 22.5035 28.4599 22.4698 28.5191C22.4362 28.5782 22.4184 28.645 22.4181 28.713V30.0432C22.4164 31.094 21.996 32.101 21.2493 32.843C20.5026 33.585 19.4907 34.0011 18.4361 34ZM9.74263 25.3661C10.1921 25.3648 10.6339 25.4828 11.0223 25.7082L12.4641 26.5582C12.8441 26.779 13.1594 27.0951 13.3786 27.475C13.5979 27.8549 13.7135 28.2854 13.714 28.7236V30.0539C13.7145 30.5416 13.9094 31.0091 14.2557 31.3537C14.602 31.6984 15.0715 31.892 15.561 31.892H18.4468C18.9364 31.892 19.4062 31.6985 19.7528 31.3539C20.0995 31.0093 20.2948 30.5418 20.2959 30.0539V28.7236C20.2966 28.2857 20.412 27.8555 20.6309 27.4757C20.8497 27.0959 21.1644 26.7796 21.5436 26.5582L22.9854 25.7082C23.3699 25.4868 23.8062 25.3703 24.2502 25.3703C24.6943 25.3703 25.1305 25.4868 25.515 25.7082L26.6604 26.367C26.8698 26.4901 27.102 26.57 27.3431 26.6017C27.5843 26.6335 27.8293 26.6165 28.0637 26.5519C28.2977 26.4913 28.5171 26.385 28.7094 26.239C28.9016 26.0931 29.0628 25.9105 29.1835 25.7019L30.6338 23.1965C30.8762 22.7739 30.9413 22.273 30.8146 21.8029C30.688 21.3328 30.38 20.9316 29.9577 20.6868L28.7932 20.0132C28.411 19.7927 28.0936 19.476 27.8728 19.0948C27.6519 18.7137 27.5354 18.2816 27.5348 17.8415V16.184C27.5354 15.7439 27.6519 15.3118 27.8728 14.9306C28.0936 14.5495 28.411 14.2328 28.7932 14.0122L29.9599 13.3386C30.3817 13.0935 30.6893 12.6921 30.8155 12.2221C30.9418 11.752 30.8764 11.2513 30.6338 10.829L29.1835 8.32361C29.0628 8.115 28.9016 7.93245 28.7094 7.78652C28.5171 7.64059 28.2977 7.5342 28.0637 7.47362C27.5901 7.34765 27.0856 7.41333 26.6604 7.65637L25.5128 8.31725C25.1293 8.54015 24.6932 8.65758 24.2491 8.65758C23.8051 8.65758 23.369 8.54015 22.9854 8.31725L21.5436 7.46727C21.1644 7.24589 20.8497 6.92964 20.6309 6.54983C20.412 6.17003 20.2966 5.73981 20.2959 5.30186V3.9716C20.2948 3.48371 20.0995 3.01621 19.7528 2.67162C19.4062 2.32703 18.9364 2.13349 18.4468 2.1335H15.5567C15.0672 2.13349 14.5978 2.32709 14.2514 2.67175C13.9051 3.0164 13.7103 3.4839 13.7097 3.9716V5.30186C13.7093 5.7401 13.5937 6.17058 13.3744 6.55048C13.1551 6.93038 12.8398 7.24648 12.4598 7.46727L11.0181 8.31725C10.6339 8.5395 10.1976 8.65655 9.7533 8.65655C9.30906 8.65655 8.87268 8.5395 8.48849 8.31725L7.34533 7.65851C7.13527 7.53682 6.90304 7.45782 6.66215 7.42609C6.42127 7.39435 6.17646 7.41051 5.94188 7.47362C5.70768 7.53417 5.48788 7.64047 5.29528 7.78639C5.10269 7.93231 4.94114 8.11493 4.82 8.32361L3.36968 10.829C3.12723 11.2516 3.06228 11.7525 3.18893 12.2226C3.31557 12.6927 3.62359 13.0938 4.04583 13.3386L5.21034 14.0122C5.59253 14.2328 5.90987 14.5495 6.1307 14.9306C6.35153 15.3118 6.4681 15.7439 6.46871 16.184V17.8415C6.4681 18.2816 6.35153 18.7137 6.1307 19.0948C5.90987 19.476 5.59253 19.7927 5.21034 20.0132L4.04368 20.6868C3.6218 20.932 3.31426 21.3334 3.18802 21.8034C3.06178 22.2735 3.12705 22.7742 3.36968 23.1965L4.82 25.7019C4.94114 25.9106 5.10269 26.0932 5.29528 26.2391C5.48788 26.385 5.70768 26.4913 5.94188 26.5519C6.17619 26.6164 6.42111 26.6334 6.66215 26.6021C6.9032 26.5707 7.13552 26.4914 7.34533 26.3691L8.49064 25.7082C8.87044 25.4863 9.30234 25.3683 9.74263 25.3661ZM17.0305 23.8553C15.2064 23.853 13.4576 23.1301 12.1677 21.8449C10.8779 20.5598 10.1523 18.8174 10.15 17C10.1523 15.1826 10.8779 13.4402 12.1677 12.1551C13.4576 10.8699 15.2064 10.147 17.0305 10.1447C18.8551 10.1464 20.6044 10.8692 21.8947 12.1544C23.185 13.4395 23.9109 15.1822 23.9132 17C23.9109 18.8178 23.185 20.5605 21.8947 21.8456C20.6044 23.1308 18.8551 23.8536 17.0305 23.8553ZM17.0305 12.2634C15.7702 12.2651 14.562 12.7647 13.6708 13.6526C12.7796 14.5405 12.2781 15.7443 12.2764 17C12.2781 18.2557 12.7796 19.4595 13.6708 20.3474C14.562 21.2353 15.7702 21.7349 17.0305 21.7366C18.2915 21.7355 19.5005 21.2362 20.3925 20.3483C21.2845 19.4604 21.7866 18.2563 21.7889 17C21.7866 15.7437 21.2845 14.5396 20.3925 13.6517C19.5005 12.7637 18.2915 12.2645 17.0305 12.2634Z" fill="#ADADAD"/>
</svg>
