<svg width="27" height="27" viewBox="0 0 27 27" fill="none" xmlns="http://www.w3.org/2000/svg">
<path d="M6.21 5.81H26.19C26.6373 5.81 27 6.17265 27 6.62C27 7.06735 26.6373 7.43 26.19 7.43H6.21C5.76265 7.43 5.4 7.06735 5.4 6.62C5.4 6.17265 5.76265 5.81 6.21 5.81ZM6.21 12.628H26.19C26.6373 12.628 27 12.9907 27 13.438C27 13.8854 26.6373 14.248 26.19 14.248H6.21C5.76265 14.248 5.4 13.8854 5.4 13.438C5.4 12.9907 5.76265 12.628 6.21 12.628ZM6.21 19.7161H26.19C26.6373 19.7161 27 20.0788 27 20.5261C27 20.9734 26.6373 21.3361 26.19 21.3361H6.21C5.76265 21.3361 5.4 20.9734 5.4 20.5261C5.4 20.0788 5.76265 19.7161 6.21 19.7161ZM1.62 8.24C0.725309 8.24 0 7.51469 0 6.62C0 5.72531 0.725309 5 1.62 5C2.51469 5 3.24 5.72531 3.24 6.62C3.24 7.51469 2.51469 8.24 1.62 8.24ZM1.62 15.058C0.725309 15.058 0 14.3327 0 13.438C0 12.5434 0.725309 11.818 1.62 11.818C2.51469 11.818 3.24 12.5434 3.24 13.438C3.24 14.3327 2.51469 15.058 1.62 15.058ZM1.62 22.1461C0.725309 22.1461 0 21.4208 0 20.5261C0 19.6314 0.725309 18.9061 1.62 18.9061C2.51469 18.9061 3.24 19.6314 3.24 20.5261C3.24 21.4208 2.51469 22.1461 1.62 22.1461Z" fill="#ADADAD"/>
</svg>
