<svg width="30" height="30" viewBox="0 0 30 30" fill="none" xmlns="http://www.w3.org/2000/svg">
<g clip-path="url(#clip0_2299_2)">
<path fill-rule="evenodd" clip-rule="evenodd" d="M28.0645 20.8066H9.67742C8.60903 20.8066 7.74194 21.6737 7.74194 22.7421C7.74194 23.8105 8.60903 24.6776 9.67742 24.6776H28.0645C29.1329 24.6776 30 23.8105 30 22.7421C30 21.6737 29.1329 20.8066 28.0645 20.8066ZM28.0645 13.0647H9.67742C8.60903 13.0647 7.74194 13.9318 7.74194 15.0001C7.74194 16.0685 8.60903 16.9356 9.67742 16.9356H28.0645C29.1329 16.9356 30 16.0685 30 15.0001C30 13.9318 29.1329 13.0647 28.0645 13.0647ZM9.67742 9.19369H28.0645C29.1329 9.19369 30 8.32659 30 7.25821C30 6.18982 29.1329 5.32272 28.0645 5.32272H9.67742C8.60903 5.32272 7.74194 6.18982 7.74194 7.25821C7.74194 8.32659 8.60903 9.19369 9.67742 9.19369ZM2.90323 19.8389C1.29968 19.8389 0 21.1385 0 22.7421C0 24.3456 1.29968 25.6453 2.90323 25.6453C4.50677 25.6453 5.80645 24.3456 5.80645 22.7421C5.80645 21.1385 4.50677 19.8389 2.90323 19.8389ZM2.90323 12.0969C1.29968 12.0969 0 13.3966 0 15.0001C0 16.6037 1.29968 17.9034 2.90323 17.9034C4.50677 17.9034 5.80645 16.6037 5.80645 15.0001C5.80645 13.3966 4.50677 12.0969 2.90323 12.0969ZM2.90323 4.35498C1.29968 4.35498 0 5.65466 0 7.25821C0 8.86175 1.29968 10.1614 2.90323 10.1614C4.50677 10.1614 5.80645 8.86175 5.80645 7.25821C5.80645 5.65466 4.50677 4.35498 2.90323 4.35498Z" fill="#D3D3D3"/>
</g>
<defs>
<clipPath id="clip0_2299_2">
<rect width="30" height="30" fill="white"/>
</clipPath>
</defs>
</svg>
