<svg width="26" height="26" viewBox="0 0 26 26" fill="none" xmlns="http://www.w3.org/2000/svg">
<path d="M2.60096 13.2263C2.65542 15.8686 3.73082 18.3872 5.60164 20.254C6.54388 21.1962 7.63978 21.9384 8.86035 22.4545C10.1244 22.988 11.4667 23.2605 12.8497 23.2605C14.2355 23.2605 15.5778 22.9909 16.839 22.4545C18.0595 21.9384 19.1554 21.1962 20.0977 20.254C20.3876 19.9641 20.6572 19.6596 20.9066 19.3436L19.457 18.21C19.4224 18.1833 19.3961 18.1474 19.3811 18.1064C19.3661 18.0654 19.3629 18.021 19.372 17.9783C19.3811 17.9356 19.402 17.8963 19.4325 17.865C19.4629 17.8337 19.5015 17.8116 19.5439 17.8012L24.0899 16.6908C24.2348 16.6561 24.3769 16.7662 24.3769 16.9141L24.4001 21.5963C24.4001 21.7906 24.1769 21.9008 24.0261 21.779L22.6403 20.6947C20.3673 23.6026 16.8274 25.4668 12.8526 25.4668C6.05392 25.4668 0.525129 20.0134 0.400463 13.2379C0.399689 13.2069 0.405117 13.1761 0.416426 13.1473C0.427735 13.1185 0.444696 13.0923 0.466311 13.0701C0.487926 13.0479 0.513757 13.0303 0.542281 13.0183C0.570806 13.0063 0.601447 13.0001 0.6324 13.0001H2.37192C2.49659 13.0001 2.59806 13.1016 2.60096 13.2263ZM25.1017 13.0001H23.3622C23.2375 13.0001 23.1332 12.8987 23.1303 12.774C23.0758 10.1317 22.0004 7.61304 20.1296 5.74627C19.196 4.80878 18.0893 4.06145 16.8709 3.54576C15.6068 3.0123 14.2645 2.73977 12.8816 2.73977C11.4986 2.73977 10.1534 3.0094 8.89224 3.54576C7.67383 4.06145 6.56712 4.80878 5.63353 5.74627C5.34361 6.03619 5.07399 6.34061 4.82465 6.65662L6.27136 7.79022C6.30589 7.81694 6.33218 7.85285 6.34721 7.89385C6.36224 7.93484 6.36539 7.97924 6.3563 8.02194C6.34722 8.06465 6.32626 8.10392 6.29585 8.13524C6.26544 8.16657 6.2268 8.18867 6.18438 8.19901L1.63842 9.30941C1.49346 9.34421 1.3514 9.23404 1.3514 9.08618L1.32821 4.39813C1.32821 4.20388 1.55145 4.09371 1.70221 4.21548L3.08803 5.29979C5.36681 2.39766 8.90674 0.533461 12.8816 0.533461C19.6802 0.533461 25.209 5.9869 25.3336 12.7624C25.3344 12.7933 25.329 12.8241 25.3177 12.8529C25.3064 12.8817 25.2894 12.908 25.2678 12.9302C25.2462 12.9523 25.2204 12.9699 25.1918 12.9819C25.1633 12.994 25.1327 13.0001 25.1017 13.0001Z" fill="#ADADAD"/>
</svg>
