<svg width="28" height="28" viewBox="0 0 28 28" fill="none" xmlns="http://www.w3.org/2000/svg">
<path fill-rule="evenodd" clip-rule="evenodd" d="M1 6C1 3.79087 2.7461 2 4.9 2H23.1C25.254 2 27 3.79087 27 6V8.66667C27 9.40304 26.418 10 25.7 10V22C25.7 24.2092 23.954 26 21.8 26H6.2C4.0461 26 2.3 24.2092 2.3 22V10C1.58204 10 1 9.40304 1 8.66667V6ZM4.60286 9.84762V22C4.60286 22.7364 5.18489 23.6381 5.90286 23.6381H22.0971C22.8151 23.6381 23.3971 22.7364 23.3971 22V9.84762H14H4.60286ZM3.30286 7.48571V5.69524C3.30286 4.95886 3.88489 4.3619 4.60286 4.3619L14 4.32381L23.3971 4.3619C24.1151 4.3619 24.6971 4.95886 24.6971 5.69524V7.48571H3.30286ZM8.8 15.3333C8.8 14.5969 9.38204 14.1524 10.1 14.1524H17.9C18.618 14.1524 19.2 14.5969 19.2 15.3333C19.2 16.0697 18.618 16.5143 17.9 16.5143H10.1C9.38204 16.5143 8.8 16.0697 8.8 15.3333Z" fill="#D3D3D3"/>
</svg>
