<svg width="16" height="17" viewBox="0 0 16 17" fill="none" xmlns="http://www.w3.org/2000/svg">
<path d="M14.1595 1.26077L8.12703 7.29327L2.11425 1.28049C1.71561 0.881854 1.11833 0.881187 0.720578 1.27893C0.32283 1.67668 0.323497 2.27397 0.722135 2.67261L6.76814 8.71861L0.768776 14.718C0.337809 15.0825 0.338476 15.6798 0.737114 16.0784C1.13575 16.4771 1.73304 16.4777 2.13079 16.08L8.16329 10.0475L14.2093 16.0935C14.6079 16.4921 15.2052 16.4928 15.603 16.095C16.0007 15.6973 16 15.1 15.6014 14.7014L9.52219 8.62214L15.5547 2.58963C15.9524 2.19188 15.9518 1.5946 15.5531 1.19596C15.1545 0.797322 14.5241 0.896165 14.1595 1.26077Z" fill="#D3D3D3"/>
</svg>
