<svg width="31" height="31" viewBox="0 0 31 31" fill="none" xmlns="http://www.w3.org/2000/svg">
<path d="M23.2496 19.2394V29.0625H25.1871V19.2394C26.008 19.0163 26.7327 18.5293 27.2493 17.8535C27.766 17.1777 28.0459 16.3507 28.0459 15.5C28.0459 14.6493 27.766 13.8223 27.2493 13.1465C26.7327 12.4707 26.008 11.9837 25.1871 11.7606V1.9375H23.2496V11.7606C22.4287 11.9837 21.7041 12.4707 21.1874 13.1465C20.6708 13.8223 20.3908 14.6493 20.3908 15.5C20.3908 16.3507 20.6708 17.1777 21.1874 17.8535C21.7041 18.5293 22.4287 19.0163 23.2496 19.2394ZM24.2184 13.5625C24.6016 13.5625 24.9762 13.6761 25.2948 13.889C25.6134 14.1019 25.8617 14.4045 26.0084 14.7586C26.155 15.1126 26.1934 15.5021 26.1186 15.878C26.0439 16.2538 25.8594 16.5991 25.5884 16.87C25.3174 17.141 24.9722 17.3255 24.5964 17.4003C24.2205 17.475 23.8309 17.4367 23.4769 17.29C23.1229 17.1434 22.8203 16.895 22.6074 16.5764C22.3945 16.2578 22.2809 15.8832 22.2809 15.5C22.2809 14.9861 22.485 14.4933 22.8483 14.13C23.2117 13.7666 23.7045 13.5625 24.2184 13.5625Z" fill="white"/>
<path d="M14.5309 11.4894V29.0625H16.4684V11.4894C17.2893 11.2663 18.0139 10.7793 18.5306 10.1035C19.0472 9.42769 19.3271 8.60066 19.3271 7.75C19.3271 6.89934 19.0472 6.07231 18.5306 5.39652C18.0139 4.72072 17.2893 4.23371 16.4684 4.01062V1.9375H14.5309V4.01062C13.71 4.23371 12.9853 4.72072 12.4687 5.39652C11.952 6.07231 11.6721 6.89934 11.6721 7.75C11.6721 8.60066 11.952 9.42769 12.4687 10.1035C12.9853 10.7793 13.71 11.2663 14.5309 11.4894ZM15.4996 5.8125C15.8828 5.8125 16.2574 5.92613 16.576 6.13903C16.8947 6.35192 17.143 6.65452 17.2896 7.00855C17.4363 7.36258 17.4746 7.75215 17.3999 8.12799C17.3251 8.50383 17.1406 8.84905 16.8696 9.12002C16.5987 9.39098 16.2534 9.57551 15.8776 9.65027C15.5018 9.72503 15.1122 9.68666 14.7582 9.54002C14.4041 9.39337 14.1015 9.14504 13.8886 8.82642C13.6757 8.5078 13.5621 8.1332 13.5621 7.75C13.5621 7.23614 13.7662 6.74333 14.1296 6.37998C14.4929 6.01663 14.9858 5.8125 15.4996 5.8125Z" fill="white"/>
<path d="M2.90587 23.25C2.90865 24.1069 3.1954 24.9387 3.72125 25.6153C4.24711 26.2919 4.98241 26.7751 5.81212 26.9894V29.0625H7.74962V26.9894C8.57051 26.7663 9.29518 26.2793 9.81183 25.6035C10.3285 24.9277 10.6084 24.1007 10.6084 23.25C10.6084 22.3993 10.3285 21.5723 9.81183 20.8965C9.29518 20.2207 8.57051 19.7337 7.74962 19.5106V1.9375H5.81212V19.5106C4.98241 19.7249 4.24711 20.2081 3.72125 20.8847C3.1954 21.5613 2.90865 22.3931 2.90587 23.25ZM6.78087 21.3125C7.16407 21.3125 7.53866 21.4261 7.85728 21.639C8.17591 21.8519 8.42424 22.1545 8.57088 22.5086C8.71753 22.8626 8.7559 23.2521 8.68114 23.628C8.60638 24.0038 8.42185 24.3491 8.15089 24.62C7.87992 24.891 7.53469 25.0755 7.15885 25.1503C6.78302 25.225 6.39345 25.1867 6.03942 25.04C5.68539 24.8934 5.38279 24.645 5.16989 24.3264C4.957 24.0078 4.84337 23.6332 4.84337 23.25C4.84337 22.7361 5.0475 22.2433 5.41085 21.88C5.7742 21.5166 6.26701 21.3125 6.78087 21.3125Z" fill="white"/>
</svg>
