<svg width="64" height="64" viewBox="0 0 64 64" fill="none" xmlns="http://www.w3.org/2000/svg">
<path d="M32 62C48.5685 62 62 48.5685 62 32C62 15.4315 48.5685 2 32 2C15.4315 2 2 15.4315 2 32C2 48.5685 15.4315 62 32 62Z" fill="#FF8475"/>
<path opacity="0.4" d="M32 56C45.2548 56 56 45.2548 56 32C56 18.7452 45.2548 8 32 8C18.7452 8 8 18.7452 8 32C8 45.2548 18.7452 56 32 56Z" fill="#F85565"/>
<path d="M32 19.96C36.1201 19.96 39.46 16.6201 39.46 12.5C39.46 8.37999 36.1201 5.04004 32 5.04004C27.88 5.04004 24.54 8.37999 24.54 12.5C24.54 16.6201 27.88 19.96 32 19.96Z" fill="white"/>
<path opacity="0.1" d="M32 19.96C36.1201 19.96 39.46 16.6201 39.46 12.5C39.46 8.37999 36.1201 5.04004 32 5.04004C27.88 5.04004 24.54 8.37999 24.54 12.5C24.54 16.6201 27.88 19.96 32 19.96Z" fill="#356CB6"/>
<path d="M32 9.69995C36.022 9.69995 39.8792 11.2977 42.7232 14.1417C45.5672 16.9857 47.165 20.8429 47.165 24.865V27.095C47.165 29.8081 46.0872 32.4102 44.1687 34.3287C42.2502 36.2471 39.6481 37.325 36.935 37.325H27.065C24.3518 37.325 21.7498 36.2471 19.8313 34.3287C17.9128 32.4102 16.835 29.8081 16.835 27.095V24.865C16.835 20.8429 18.4327 16.9857 21.2767 14.1417C24.1207 11.2977 27.978 9.69995 32 9.69995Z" fill="white"/>
<path d="M44.5 36C46.433 36 48 34.433 48 32.5C48 30.567 46.433 29 44.5 29C42.567 29 41 30.567 41 32.5C41 34.433 42.567 36 44.5 36Z" fill="#FBC0AA"/>
<path d="M31.9999 62C38.2186 62.0073 44.2843 60.0722 49.3499 56.465L47.6849 51.32C47.3397 50.3523 46.7048 49.5145 45.8665 48.9204C45.0282 48.3264 44.0273 48.005 42.9999 48H21.0249C19.9932 47.9999 18.9868 48.3189 18.1435 48.9132C17.3003 49.5076 16.6615 50.3483 16.3149 51.32L14.6499 56.465C19.7155 60.0722 25.7812 62.0073 31.9999 62Z" fill="#00ADFE"/>
<path d="M23.27 60.705C28.962 62.4316 35.0381 62.4316 40.73 60.705L39.5 48H24.5L23.27 60.705Z" fill="#356CB6"/>
<path d="M28 50.5C28.8284 50.5 29.5 49.8284 29.5 49C29.5 48.1716 28.8284 47.5 28 47.5C27.1716 47.5 26.5 48.1716 26.5 49C26.5 49.8284 27.1716 50.5 28 50.5Z" fill="white"/>
<path d="M28.5 52.5C29.3284 52.5 30 51.8284 30 51C30 50.1716 29.3284 49.5 28.5 49.5C27.6716 49.5 27 50.1716 27 51C27 51.8284 27.6716 52.5 28.5 52.5Z" fill="white"/>
<path d="M36 50.5C36.8284 50.5 37.5 49.8284 37.5 49C37.5 48.1716 36.8284 47.5 36 47.5C35.1716 47.5 34.5 48.1716 34.5 49C34.5 49.8284 35.1716 50.5 36 50.5Z" fill="white"/>
<path d="M35.5 52.5C36.3284 52.5 37 51.8284 37 51C37 50.1716 36.3284 49.5 35.5 49.5C34.6716 49.5 34 50.1716 34 51C34 51.8284 34.6716 52.5 35.5 52.5Z" fill="white"/>
<path d="M30 54C30.8284 54 31.5 53.3284 31.5 52.5C31.5 51.6716 30.8284 51 30 51C29.1716 51 28.5 51.6716 28.5 52.5C28.5 53.3284 29.1716 54 30 54Z" fill="white"/>
<path d="M32 54.5C32.8284 54.5 33.5 53.8284 33.5 53C33.5 52.1716 32.8284 51.5 32 51.5C31.1716 51.5 30.5 52.1716 30.5 53C30.5 53.8284 31.1716 54.5 32 54.5Z" fill="white"/>
<path d="M34 54C34.8284 54 35.5 53.3284 35.5 52.5C35.5 51.6716 34.8284 51 34 51C33.1716 51 32.5 51.6716 32.5 52.5C32.5 53.3284 33.1716 54 34 54Z" fill="white"/>
<path d="M32 44V49" stroke="#FBC0AA" stroke-width="7" stroke-linecap="round" stroke-linejoin="round"/>
<path d="M19.5 36C21.433 36 23 34.433 23 32.5C23 30.567 21.433 29 19.5 29C17.567 29 16 30.567 16 32.5C16 34.433 17.567 36 19.5 36Z" fill="#FBC0AA"/>
<path d="M32 47.5C28.6848 47.5 25.5054 46.1831 23.1612 43.8388C20.817 41.4946 19.5 38.3152 19.5 35V26.76C19.5 23.4448 20.817 20.2654 23.1612 17.9212C25.5054 15.577 28.6848 14.26 32 14.26C35.3152 14.26 38.4946 15.577 40.8388 17.9212C43.183 20.2654 44.5 23.4448 44.5 26.76V35C44.5 38.3152 43.183 41.4946 40.8388 43.8388C38.4946 46.1831 35.3152 47.5 32 47.5Z" fill="#FFD8C9"/>
<path d="M45.7449 26.5601V25.7001C45.7449 18.2251 39.8899 11.8951 32.4149 11.7001C30.5785 11.646 28.75 11.9603 27.0371 12.6244C25.3242 13.2886 23.7617 14.2892 22.4419 15.5671C21.122 16.845 20.0715 18.3744 19.3524 20.0649C18.6333 21.7555 18.2601 23.5729 18.2549 25.4101V25.2901C18.2549 25.5553 18.3602 25.8096 18.5478 25.9972C18.7353 26.1847 18.9897 26.2901 19.2549 26.2901H24.1899C25.0266 26.2897 25.8492 26.0748 26.5792 25.6661C27.3092 25.2573 27.9223 24.6682 28.3599 23.9551C29.3599 26.0301 31.3849 26.9551 32.5649 27.3301C33.0503 27.4826 33.5561 27.5602 34.0649 27.5601H44.7249C44.8579 27.5627 44.9901 27.5388 45.1137 27.4898C45.2374 27.4407 45.35 27.3675 45.445 27.2743C45.5399 27.1812 45.6154 27.0701 45.6669 26.9474C45.7184 26.8248 45.7449 26.6931 45.7449 26.5601Z" fill="white"/>
<path opacity="0.1" d="M45.7449 26.5601V25.7001C45.7449 18.2251 39.8899 11.8951 32.4149 11.7001C30.5785 11.646 28.75 11.9603 27.0371 12.6244C25.3242 13.2886 23.7617 14.2892 22.4419 15.5671C21.122 16.845 20.0715 18.3744 19.3524 20.0649C18.6333 21.7555 18.2601 23.5729 18.2549 25.4101V25.2901C18.2549 25.5553 18.3602 25.8096 18.5478 25.9972C18.7353 26.1847 18.9897 26.2901 19.2549 26.2901H24.1899C25.0266 26.2897 25.8492 26.0748 26.5792 25.6661C27.3092 25.2573 27.9223 24.6682 28.3599 23.9551C29.3599 26.0301 31.3849 26.9551 32.5649 27.3301C33.0503 27.4826 33.5561 27.5602 34.0649 27.5601H44.7249C44.8579 27.5627 44.9901 27.5388 45.1137 27.4898C45.2374 27.4407 45.35 27.3675 45.445 27.2743C45.5399 27.1812 45.6154 27.0701 45.6669 26.9474C45.7184 26.8248 45.7449 26.6931 45.7449 26.5601Z" fill="#356CB6"/>
<path d="M31.5 21.5C32.76 24.11 34.695 24.545 36.3 24.545H42.3" stroke="white" stroke-miterlimit="10" stroke-linecap="round"/>
<path d="M32 34.875V38.125" stroke="#FBC0AA" stroke-width="2.5" stroke-linecap="round" stroke-linejoin="round"/>
<path opacity="0.2" d="M26.8149 28.5H22.1899" stroke="#515570" stroke-linecap="round" stroke-linejoin="round"/>
<path opacity="0.2" d="M41.8149 28.5H37.1899" stroke="#515570" stroke-linecap="round" stroke-linejoin="round"/>
<path d="M32 43C34.5 43 35.5 41.5 35.5 41.5H28.5C28.5 41.5 29.5 43 32 43Z" fill="#F85565"/>
<path opacity="0.7" d="M37 34H39" stroke="#515570" stroke-width="1.165" stroke-linecap="round" stroke-linejoin="round"/>
<path opacity="0.7" d="M25 34H27" stroke="#515570" stroke-width="1.165" stroke-linecap="round" stroke-linejoin="round"/>
<path opacity="0.2" d="M26 36C27.933 36 29.5 34.433 29.5 32.5C29.5 30.567 27.933 29 26 29C24.067 29 22.5 30.567 22.5 32.5C22.5 34.433 24.067 36 26 36Z" fill="#00ADFE"/>
<path d="M26 36C27.933 36 29.5 34.433 29.5 32.5C29.5 30.567 27.933 29 26 29C24.067 29 22.5 30.567 22.5 32.5C22.5 34.433 24.067 36 26 36Z" stroke="#515570" stroke-width="1.165" stroke-linecap="round" stroke-linejoin="round"/>
<path opacity="0.2" d="M38 36C39.933 36 41.5 34.433 41.5 32.5C41.5 30.567 39.933 29 38 29C36.067 29 34.5 30.567 34.5 32.5C34.5 34.433 36.067 36 38 36Z" fill="#00ADFE"/>
<path d="M38 36C39.933 36 41.5 34.433 41.5 32.5C41.5 30.567 39.933 29 38 29C36.067 29 34.5 30.567 34.5 32.5C34.5 34.433 36.067 36 38 36Z" stroke="#515570" stroke-width="1.165" stroke-linecap="round" stroke-linejoin="round"/>
<path d="M29.5 32.5H34.5" stroke="#515570" stroke-width="1.165" stroke-linecap="round" stroke-linejoin="round"/>
<path opacity="0.1" d="M26 42L28.5 38.5" stroke="#515570" stroke-linecap="round" stroke-linejoin="round"/>
<path opacity="0.1" d="M37.5 42L35 38.5" stroke="#515570" stroke-linecap="round" stroke-linejoin="round"/>
</svg>
