<svg width="118" height="48" viewBox="0 0 118 48" fill="none" xmlns="http://www.w3.org/2000/svg">
<g clip-path="url(#clip0_2143_2)">
<path d="M2.29616 43.7475C1.45217 43.7475 0.765625 43.0626 0.765625 42.2209C0.765625 41.3791 1.45217 40.6943 2.29616 40.6943C3.14015 40.6943 3.8267 41.3791 3.8267 42.2209C3.8267 43.0626 3.14015 43.7475 2.29616 43.7475Z" fill="#6EBD0A"/>
<path d="M13.3167 35.3515C12.4727 35.3515 11.7861 34.6666 11.7861 33.8249C11.7861 32.9831 12.4727 32.2983 13.3167 32.2983C14.1607 32.2983 14.8472 32.9831 14.8472 33.8249C14.8472 34.6666 14.1607 35.3515 13.3167 35.3515Z" fill="#6EBD0A"/>
<path d="M26.1712 39.1674C25.3272 39.1674 24.6406 38.4825 24.6406 37.6408C24.6406 36.799 25.3272 36.1143 26.1712 36.1143C27.0152 36.1143 27.7017 36.799 27.7017 37.6408C27.7017 38.4825 27.0152 39.1674 26.1712 39.1674Z" fill="#6EBD0A"/>
<path d="M36.427 30.0087C35.583 30.0087 34.8965 29.3239 34.8965 28.4821C34.8965 27.6403 35.583 26.9556 36.427 26.9556C37.271 26.9556 37.9576 27.6403 37.9576 28.4821C37.9576 29.3239 37.271 30.0087 36.427 30.0087Z" fill="#6EBD0A"/>
<path d="M2.50301 41.2614C2.44695 41.2614 2.39183 41.2471 2.34295 41.2198C2.30513 41.1988 2.27183 41.1707 2.24496 41.137C2.21809 41.1032 2.19817 41.0645 2.18635 41.0231C2.17453 40.9817 2.17103 40.9384 2.17606 40.8956C2.18109 40.8529 2.19454 40.8115 2.21565 40.7739C2.38865 40.465 5.94076 33.2441 11.9914 33.2441C12.0346 33.2441 12.0774 33.2526 12.1174 33.269C12.1574 33.2855 12.1937 33.3096 12.2242 33.34C12.2548 33.3704 12.2956 33.4463 12.2956 33.4463C12.2956 33.4463 12.3207 33.5286 12.3206 33.5716C12.3207 33.6146 12.3122 33.6572 12.2956 33.697C12.2791 33.7367 12.2548 33.7729 12.2242 33.8033C12.1937 33.8337 12.1574 33.8578 12.1174 33.8743C12.0774 33.8907 11.9914 34.0314 11.9914 34.359C6.32396 34.359 3.25448 41.0793 3.21397 41.1522C3.18538 41.2031 2.72023 41.187 2.66968 41.2165C2.61913 41.2459 2.5616 41.2614 2.50301 41.2614Z" fill="#6EBD0A"/>
<path d="M25.2543 38.1179C22.2982 38.1179 20.7395 37.443 18.9029 36.4201C17.0662 35.3971 16.0038 34.467 14.052 34.467C14.0088 34.467 13.966 34.1532 13.926 34.1368C13.8861 34.1203 13.8497 34.0962 13.8192 34.0658C13.7886 34.0354 13.9174 33.9993 13.9008 33.9595C13.8843 33.9198 13.8758 33.8771 13.8758 33.8341C13.8758 33.7911 13.8843 33.7485 13.9009 33.7088C13.9174 33.669 13.9416 33.6329 13.9722 33.6025C14.0028 33.5721 13.8861 33.548 13.926 33.5315C13.966 33.5151 14.0088 33.354 14.052 33.354C16.2636 33.354 17.908 34.467 19.8212 35.5804C21.2639 36.4201 23.3012 37.0049 25.2543 37.0049C25.2975 37.0049 25.3403 37.3556 25.3803 37.372C25.4202 37.3885 25.4565 37.4126 25.4871 37.443C25.5177 37.4734 25.5419 37.5095 25.5585 37.5493C25.575 37.589 25.5835 37.6316 25.5835 37.6746C25.5835 37.7176 25.575 37.7602 25.5585 37.8C25.5419 37.8397 25.5177 37.8759 25.4871 37.9063C25.4565 37.9367 25.4202 37.9608 25.3803 37.9773C25.3403 37.9937 25.2975 38.1179 25.2543 38.1179Z" fill="#6EBD0A"/>
<path d="M27.3518 37.8938C27.2787 37.8939 27.2076 37.8697 27.1498 37.8251C27.092 37.7805 27.0508 37.718 27.0327 37.6475C27.022 37.6058 27.0197 37.5624 27.0258 37.5199C27.0319 37.4773 27.0464 37.4363 27.0684 37.3993C27.0905 37.3623 27.1196 37.3299 27.1543 37.3041C27.1889 37.2783 27.0388 36.8016 27.0807 36.7909C29.6466 36.138 33.4353 34.033 35.5028 29.1394C35.5504 28.9651 36.1903 29.0161 36.3672 29.0637C36.4088 29.0752 36.4478 29.0948 36.4818 29.1212C36.5159 29.1477 36.5443 29.028 36.5656 29.0654C36.5868 29.1028 36.6004 29.1441 36.6057 29.1867C36.6109 29.2294 36.6076 29.2727 36.596 29.3141C34.0984 34.507 32.2987 36.0238 27.4333 37.8835C27.4067 37.8904 27.3793 37.8938 27.3518 37.8938Z" fill="#6EBD0A"/>
<path d="M72.1464 31.1389C72.0738 31.1484 72.0002 31.1335 71.9371 31.0966C71.8741 31.0597 71.8252 31.0029 71.7982 30.9353C71.7822 30.8953 71.7743 30.8526 71.7749 30.8096C71.7755 30.7666 71.7846 30.7241 71.8017 30.6846C71.8188 30.6451 71.8436 30.6093 71.8746 30.5793C71.9056 30.5493 71.7528 30.5257 71.793 30.5098C75.1039 28.8998 77.3749 24.0285 79.2647 19.8089C79.2285 19.6263 79.8956 19.5097 80.0772 19.5344C80.1199 19.5405 80.1611 19.555 80.1982 19.5769C80.2354 19.5989 80.2679 19.6279 80.2937 19.6623C80.3196 19.6967 80.3385 19.7359 80.3491 19.7775C80.3598 19.8192 80.3621 19.8625 80.3559 19.9051C77.9483 25.3796 75.5503 29.8422 72.2796 31.6226C72.2555 31.6357 72.1736 31.1355 72.1464 31.1389Z" fill="#6EBD0A"/>
<path d="M58.1956 28.6505C58.1757 28.5805 58.1799 28.5059 58.2074 28.4385C58.2349 28.371 58.2843 28.3147 58.3477 28.2783C58.3851 28.2568 58.4264 28.2428 58.4693 28.2371C58.5122 28.2315 58.5557 28.2343 58.5975 28.2453C58.6393 28.2564 58.6785 28.2756 58.7128 28.3018C58.7471 28.3279 58.9577 28.1767 58.987 28.2082C62.5885 32.0732 66.6811 32.4776 70.323 31.4439C70.5045 31.4423 70.6518 31.5879 70.6536 31.7702C70.6537 31.8132 70.6454 31.8558 70.6289 31.8955C70.6125 31.9353 70.5884 31.9715 70.5579 32.0019C70.5274 32.0324 70.4912 32.0566 70.4513 32.0732C70.4114 32.0897 70.3687 32.6671 70.3255 32.4776C66.2075 33.938 61.6611 32.99 58.0382 28.7258C58.0243 28.7022 58.203 28.6769 58.1956 28.6505Z" fill="#6EBD0A"/>
<path fill-rule="evenodd" clip-rule="evenodd" d="M45.6104 19.0167C45.6104 19.8585 46.297 20.5434 47.1409 20.5434C47.9847 20.5434 48.6713 19.8585 48.6714 19.0167C48.6714 18.1751 47.9848 17.4902 47.1409 17.4902C46.2968 17.4902 45.6104 18.1751 45.6104 19.0167Z" fill="#6EBD0A"/>
<path fill-rule="evenodd" clip-rule="evenodd" d="M56.7822 27.5656C56.7822 28.4073 57.4688 29.0922 58.3128 29.0922C59.1566 29.0922 59.8432 28.4073 59.8433 27.5656C59.8433 26.7239 59.1567 26.0391 58.3128 26.0391C57.4687 26.0391 56.7822 26.7239 56.7822 27.5656Z" fill="#6EBD0A"/>
<path fill-rule="evenodd" clip-rule="evenodd" d="M89.3877 4.45327C89.3877 5.29504 90.0743 5.97992 90.9182 5.97992C91.762 5.97992 92.4486 5.29504 92.4488 4.45327C92.4488 3.61163 91.7622 2.92676 90.9182 2.92676C90.0742 2.92676 89.3877 3.61163 89.3877 4.45327Z" fill="#6EBD0A"/>
<path fill-rule="evenodd" clip-rule="evenodd" d="M78.542 19.0934C78.542 19.9352 79.2286 20.6201 80.0725 20.6201C80.9163 20.6201 81.6029 19.9352 81.6031 19.0934C81.6031 18.2518 80.9164 17.5669 80.0725 17.5669C79.2285 17.5669 78.542 18.2518 78.542 19.0934Z" fill="#6EBD0A"/>
<path fill-rule="evenodd" clip-rule="evenodd" d="M69.6104 31.5221C69.6104 32.3639 70.297 33.0488 71.1409 33.0488C71.9847 33.0488 72.6713 32.3639 72.6714 31.5221C72.6714 30.6805 71.9848 29.9956 71.1409 29.9956C70.2968 29.9956 69.6104 30.6805 69.6104 31.5221Z" fill="#6EBD0A"/>
<path d="M36.6968 27.7878C36.6411 27.7938 36.5847 27.7854 36.5332 27.7635C36.4933 27.7468 36.4572 27.7223 36.4268 27.6917C36.3965 27.661 36.3725 27.6246 36.3563 27.5847C36.3401 27.5448 36.3319 27.5021 36.3323 27.4591C36.3327 27.416 36.1885 27.3735 36.2055 27.3339C36.3441 27.0082 39.8312 19.3439 45.8469 18.6977C45.8898 18.693 45.9333 18.8495 45.9748 18.8616C46.0163 18.8737 46.055 18.8938 46.0887 18.9207C46.1224 18.9477 46.1504 18.981 46.1712 19.0188C46.1919 19.0565 46.205 19.098 46.2096 19.1407C46.2142 19.1835 46.2104 19.2268 46.1982 19.2681C46.1861 19.3093 46.1659 19.3478 46.1387 19.3814C46.1116 19.4149 46.0781 19.4427 46.0402 19.4634C46.0022 19.484 45.9606 19.8023 45.9176 19.8069C40.2829 20.4122 37.3031 27.5137 37.2707 27.5905C37.2478 27.6441 36.9048 27.6907 36.8577 27.7254C36.8106 27.76 36.7551 27.7816 36.6968 27.7878Z" fill="#6EBD0A"/>
<path d="M80.6644 18.3775C80.61 18.3909 80.5531 18.3903 80.499 18.3755C80.4572 18.3643 80.4181 18.3449 80.3838 18.3186C80.3496 18.2924 80.3209 18.2596 80.2993 18.2222C80.2778 18.1849 80.2639 18.1437 80.2584 18.101C80.2529 18.0583 79.8771 18.0149 79.8885 17.9734C79.9814 17.6321 82.7754 5.40546 89.8455 3.87254C89.8875 3.86212 89.3628 4.23924 89.4056 4.24561C89.4483 4.25198 89.4894 4.26667 89.5265 4.28884C89.5635 4.31102 89.5958 4.34024 89.6215 4.37484C89.6472 4.40944 89.6658 4.44874 89.6762 4.49049C89.6867 4.53223 89.6887 4.57562 89.6823 4.61817C89.6759 4.66071 89.6611 4.70158 89.6388 4.73844C89.6165 4.7753 89.5872 4.80743 89.5524 4.83299C89.5176 4.85855 89.667 5.06477 89.6255 5.07699C84.0069 6.73259 81.1139 18.0653 81.0923 18.1458C81.0768 18.202 80.8572 18.2532 80.8153 18.2939C80.7734 18.3346 80.7213 18.3634 80.6644 18.3775Z" fill="#6EBD0A"/>
<path d="M57.5636 26.8807C57.6197 26.8815 57.675 26.8679 57.7242 26.8413C57.7624 26.8209 57.796 26.7932 57.8234 26.7599C57.8507 26.7265 57.8712 26.6881 57.8836 26.6468C57.896 26.6056 57.9001 26.5623 57.8957 26.5195C57.8912 26.4767 57.8784 26.4352 57.8578 26.3973C57.6891 26.086 54.2176 18.7653 48.1676 18.6814C48.1244 18.6808 48.0814 18.6886 48.0413 18.7045C48.0011 18.7204 47.9644 18.744 47.9334 18.774C47.9024 18.804 47.8777 18.8397 47.8606 18.8793C47.8435 18.9188 47.8344 18.9612 47.8338 19.0043C47.8332 19.0473 47.8411 19.09 47.8571 19.13C47.873 19.1699 47.8968 19.2064 47.9269 19.2372C47.9571 19.2681 47.993 19.2927 48.0328 19.3097C48.0725 19.3267 48.1152 19.715 48.1584 19.7155C53.8253 19.7942 56.8601 26.8253 56.8996 26.8987C56.9275 26.95 57.3475 27.1825 57.3976 27.2127C57.4477 27.2428 57.505 26.8799 57.5636 26.8807Z" fill="#6EBD0A"/>
<path d="M101.844 15.1394C101.9 15.1402 101.955 15.1266 102.004 15.1C102.042 15.0796 102.076 15.0519 102.103 15.0186C102.131 14.9852 102.151 14.9468 102.164 14.9056C102.176 14.8643 102.18 14.8211 102.176 14.7782C102.171 14.7354 102.158 14.6939 102.138 14.656C101.969 14.3447 98.0699 3.93652 92.0199 3.8526C91.9767 3.85197 91.9337 3.85982 91.8936 3.87571C91.8534 3.89159 91.8167 3.91521 91.7857 3.94519C91.7547 3.97518 91.73 4.01095 91.7129 4.05046C91.6958 4.08998 91.6867 4.13245 91.6861 4.17546C91.6855 4.21848 91.6934 4.2612 91.7094 4.30117C91.7253 4.34115 91.7491 4.3776 91.7792 4.40844C91.8094 4.43928 91.8453 4.46391 91.8851 4.48091C91.9248 4.49792 91.9675 4.88617 92.0107 4.88675C97.6776 4.96536 101.14 15.084 101.18 15.1575C101.208 15.2087 101.628 15.4412 101.678 15.4714C101.728 15.5016 101.785 15.1387 101.844 15.1394Z" fill="#6EBD0A"/>
<path fill-rule="evenodd" clip-rule="evenodd" d="M100.889 16.0343C100.889 16.8761 101.575 17.561 102.419 17.561C103.263 17.561 103.95 16.8761 103.95 16.0343C103.95 15.1927 103.263 14.5078 102.419 14.5078C101.575 14.5078 100.889 15.1927 100.889 16.0343Z" fill="#6EBD0A"/>
<path d="M102.768 17.5954C102.745 17.5257 102.746 17.4505 102.771 17.3817C102.796 17.3129 102.843 17.2545 102.904 17.2157C102.94 17.1927 102.981 17.1772 103.023 17.1701C103.066 17.1629 103.109 17.1642 103.151 17.1739C103.193 17.1836 103.232 17.2016 103.267 17.2267C103.303 17.2519 103.71 16.9629 103.733 16.9997C105.137 19.2486 111.5 23.9998 116.5 22.5595C116.673 22.5096 115.5 23.0597 115.5 23.0597C115.5 23.0597 116.015 23.5191 116.001 23.5597C116.03 23.5279 115.608 23.5597 116.001 23.5597C115.971 23.5914 115.539 24.0416 115.501 24.0597C115.543 24.0581 115.462 24.0777 115.501 24.0597C110 24 106.056 21.7445 102.802 17.6701C102.788 17.6468 102.776 17.6217 102.768 17.5954Z" fill="#6EBD0A"/>
<path d="M4.3861 38.0624L2.43652 41.945V51.166H114.537V22.5324L113.563 23.0177L110.151 22.5324L107.714 21.5617L105.277 19.6205L102.84 17.6792L101.865 15.2526L100.403 12.826L98.4533 9.42884L96.9911 7.00226L94.0668 5.061L91.1424 4.57568L88.7054 5.061L85.2937 7.97289L83.3441 11.3701L81.8819 14.7673L80.9071 18.1645L78.9575 22.5324L76.5206 26.9002L73.5962 30.2974L70.6718 32.2387L66.7727 32.724L63.3609 32.2387L60.9239 30.7827L58.4869 28.8415L56.5374 25.9296L54.5878 22.5324L52.6382 20.5911L49.2264 19.1351H45.3273L42.4029 20.5911L39.4785 23.503L37.0416 26.9002L36.0668 29.3268L34.1172 33.2093L31.1928 35.6359L27.2937 37.0918L25.3441 38.0624L21.4449 37.0918L19.008 35.6359L16.0836 34.1799L13.1592 33.6946L9.74745 34.1799L7.31047 35.1506L4.3861 38.0624Z" fill="url(#paint0_linear_2143_2)"/>
<path d="M113.057 19.5633L117.516 22.2313C117.694 22.3451 117.713 22.7228 117.542 22.8945L113.893 26.7681C113.722 26.9398 113.255 26.9326 113.027 26.8052C112.823 26.6751 112.644 26.2572 112.813 26.0667L115.283 23.4745L115.628 22.627L115.125 22.2936L112.219 20.4883C112.117 20.4233 112.08 20.1958 112.067 20.0826C112.057 19.9883 112.18 19.8009 112.266 19.7151C112.436 19.5434 112.828 19.417 113.057 19.5633Z" fill="#6EBD0A"/>
</g>
<defs>
<linearGradient id="paint0_linear_2143_2" x1="52.1508" y1="4.09036" x2="55.618" y2="36.3939" gradientUnits="userSpaceOnUse">
<stop stop-color="#6EBD0A" stop-opacity="0.25"/>
<stop offset="1" stop-color="#6EBD0A" stop-opacity="0"/>
</linearGradient>
<clipPath id="clip0_2143_2">
<rect width="118" height="48" fill="white"/>
</clipPath>
</defs>
</svg>
