<svg width="116" height="48" viewBox="0 0 116 48" fill="none" xmlns="http://www.w3.org/2000/svg">
<g clip-path="url(#clip0_2145_33)">
<path d="M102.683 35.3515C103.527 35.3515 104.214 34.6666 104.214 33.8249C104.214 32.9831 103.527 32.2983 102.683 32.2983C101.839 32.2983 101.153 32.9831 101.153 33.8249C101.153 34.6666 101.839 35.3515 102.683 35.3515Z" fill="#F4395B"/>
<path d="M89.8288 39.1674C90.6728 39.1674 91.3594 38.4825 91.3594 37.6408C91.3594 36.799 90.6728 36.1143 89.8288 36.1143C88.9848 36.1143 88.2983 36.799 88.2983 37.6408C88.2983 38.4825 88.9848 39.1674 89.8288 39.1674Z" fill="#F4395B"/>
<path d="M79.573 30.0087C80.417 30.0087 81.1035 29.3239 81.1035 28.4821C81.1035 27.6403 80.417 26.9556 79.573 26.9556C78.729 26.9556 78.0424 27.6403 78.0424 28.4821C78.0424 29.3239 78.729 30.0087 79.573 30.0087Z" fill="#F4395B"/>
<path d="M113.497 41.2614C113.553 41.2614 113.608 41.2471 113.657 41.2198C113.695 41.1988 113.728 41.1707 113.755 41.137C113.782 41.1032 113.802 41.0645 113.814 41.0231C113.825 40.9817 113.829 40.9384 113.824 40.8956C113.819 40.8529 113.805 40.8115 113.784 40.7739C113.611 40.465 110.059 33.2441 104.009 33.2441C103.965 33.2441 103.923 33.2526 103.883 33.269C103.843 33.2855 103.806 33.3096 103.776 33.34C103.745 33.3704 103.704 33.4463 103.704 33.4463C103.704 33.4463 103.679 33.5286 103.679 33.5716C103.679 33.6146 103.688 33.6572 103.704 33.697C103.721 33.7367 103.745 33.7729 103.776 33.8033C103.806 33.8337 103.843 33.8578 103.883 33.8743C103.923 33.8907 104.009 34.0314 104.009 34.359C109.676 34.359 112.746 41.0793 112.786 41.1522C112.815 41.2031 113.28 41.187 113.33 41.2165C113.381 41.2459 113.438 41.2614 113.497 41.2614Z" fill="#F4395B"/>
<path d="M90.7457 38.1179C93.7018 38.1179 95.2605 37.443 97.0971 36.4201C98.9338 35.3971 99.9962 34.467 101.948 34.467C101.991 34.467 102.034 34.1532 102.074 34.1368C102.114 34.1203 102.15 34.0962 102.181 34.0658C102.211 34.0354 102.083 33.9993 102.099 33.9595C102.116 33.9198 102.124 33.8771 102.124 33.8341C102.124 33.7911 102.116 33.7485 102.099 33.7088C102.083 33.669 102.058 33.6329 102.028 33.6025C101.997 33.5721 102.114 33.548 102.074 33.5315C102.034 33.5151 101.991 33.354 101.948 33.354C99.7364 33.354 98.092 34.467 96.1788 35.5804C94.7361 36.4201 92.6988 37.0049 90.7457 37.0049C90.7025 37.0049 90.6597 37.3556 90.6197 37.372C90.5798 37.3885 90.5435 37.4126 90.5129 37.443C90.4823 37.4734 90.4581 37.5095 90.4415 37.5493C90.425 37.589 90.4165 37.6316 90.4165 37.6746C90.4165 37.7176 90.425 37.7602 90.4415 37.8C90.4581 37.8397 90.4823 37.8759 90.5129 37.9063C90.5435 37.9367 90.5798 37.9608 90.6197 37.9773C90.6597 37.9937 90.7025 38.1179 90.7457 38.1179Z" fill="#F4395B"/>
<path d="M88.6482 37.8938C88.7213 37.8939 88.7924 37.8697 88.8502 37.8251C88.908 37.7805 88.9492 37.718 88.9673 37.6475C88.978 37.6058 88.9803 37.5624 88.9742 37.5199C88.9681 37.4773 88.9536 37.4363 88.9316 37.3993C88.9095 37.3623 88.8804 37.3299 88.8457 37.3041C88.8111 37.2783 88.9612 36.8016 88.9193 36.7909C86.3534 36.138 82.5647 34.033 80.4972 29.1394C80.4496 28.9651 79.8097 29.0161 79.6328 29.0637C79.5912 29.0752 79.5522 29.0948 79.5182 29.1212C79.4841 29.1477 79.4557 29.028 79.4344 29.0654C79.4132 29.1028 79.3996 29.1441 79.3943 29.1867C79.3891 29.2294 79.3924 29.2727 79.404 29.3141C81.9016 34.507 83.7013 36.0238 88.5667 37.8835C88.5933 37.8904 88.6207 37.8938 88.6482 37.8938Z" fill="#F4395B"/>
<path d="M43.8536 31.1389C43.9262 31.1484 43.9998 31.1335 44.0629 31.0966C44.1259 31.0597 44.1748 31.0029 44.2018 30.9353C44.2178 30.8953 44.2257 30.8526 44.2251 30.8096C44.2245 30.7666 44.2154 30.7241 44.1983 30.6846C44.1812 30.6451 44.1564 30.6093 44.1254 30.5793C44.0944 30.5493 44.2472 30.5257 44.207 30.5098C40.8961 28.8998 38.6251 24.0285 36.7353 19.8089C36.7715 19.6263 36.1044 19.5097 35.9228 19.5344C35.8801 19.5405 35.8389 19.555 35.8018 19.5769C35.7646 19.5989 35.7321 19.6279 35.7063 19.6623C35.6804 19.6967 35.6615 19.7359 35.6509 19.7775C35.6402 19.8192 35.6379 19.8625 35.6441 19.9051C38.0517 25.3796 40.4497 29.8422 43.7204 31.6226C43.7445 31.6357 43.8264 31.1355 43.8536 31.1389Z" fill="#F4395B"/>
<path d="M57.8044 28.6505C57.8243 28.5805 57.8201 28.5059 57.7926 28.4385C57.7651 28.371 57.7157 28.3147 57.6523 28.2783C57.6149 28.2568 57.5736 28.2428 57.5307 28.2371C57.4878 28.2315 57.4443 28.2343 57.4025 28.2453C57.3607 28.2564 57.3215 28.2756 57.2872 28.3018C57.2529 28.3279 57.0423 28.1767 57.013 28.2082C53.4115 32.0732 49.3189 32.4776 45.677 31.4439C45.4955 31.4423 45.3482 31.5879 45.3464 31.7702C45.3463 31.8132 45.3546 31.8558 45.3711 31.8955C45.3875 31.9353 45.4116 31.9715 45.4421 32.0019C45.4726 32.0324 45.5088 32.0566 45.5487 32.0732C45.5886 32.0897 45.6313 32.6671 45.6745 32.4776C49.7925 33.938 54.3389 32.99 57.9618 28.7258C57.9757 28.7022 57.797 28.6769 57.8044 28.6505Z" fill="#F4395B"/>
<path fill-rule="evenodd" clip-rule="evenodd" d="M70.3896 19.0167C70.3896 19.8585 69.703 20.5434 68.8591 20.5434C68.0153 20.5434 67.3287 19.8585 67.3286 19.0167C67.3286 18.1751 68.0152 17.4902 68.8591 17.4902C69.7032 17.4902 70.3896 18.1751 70.3896 19.0167Z" fill="#F4395B"/>
<path fill-rule="evenodd" clip-rule="evenodd" d="M59.2178 27.5656C59.2178 28.4073 58.5312 29.0922 57.6872 29.0922C56.8434 29.0922 56.1568 28.4073 56.1567 27.5656C56.1567 26.7239 56.8433 26.0391 57.6872 26.0391C58.5313 26.0391 59.2178 26.7239 59.2178 27.5656Z" fill="#F4395B"/>
<path fill-rule="evenodd" clip-rule="evenodd" d="M26.6123 4.45327C26.6123 5.29504 25.9257 5.97992 25.0818 5.97992C24.238 5.97992 23.5514 5.29504 23.5512 4.45327C23.5512 3.61163 24.2378 2.92676 25.0818 2.92676C25.9258 2.92676 26.6123 3.61163 26.6123 4.45327Z" fill="#F4395B"/>
<path fill-rule="evenodd" clip-rule="evenodd" d="M37.458 19.0934C37.458 19.9352 36.7714 20.6201 35.9275 20.6201C35.0837 20.6201 34.3971 19.9352 34.3969 19.0934C34.3969 18.2518 35.0836 17.5669 35.9275 17.5669C36.7715 17.5669 37.458 18.2518 37.458 19.0934Z" fill="#F4395B"/>
<path fill-rule="evenodd" clip-rule="evenodd" d="M46.3896 31.5221C46.3896 32.3639 45.703 33.0488 44.8591 33.0488C44.0153 33.0488 43.3287 32.3639 43.3286 31.5221C43.3286 30.6805 44.0152 29.9956 44.8591 29.9956C45.7032 29.9956 46.3896 30.6805 46.3896 31.5221Z" fill="#F4395B"/>
<path d="M79.3032 27.7878C79.3589 27.7938 79.4153 27.7854 79.4668 27.7635C79.5067 27.7468 79.5428 27.7223 79.5732 27.6917C79.6035 27.661 79.6275 27.6246 79.6437 27.5847C79.6599 27.5448 79.6681 27.5021 79.6677 27.4591C79.6673 27.416 79.8115 27.3735 79.7945 27.3339C79.6559 27.0082 76.1688 19.3439 70.1531 18.6977C70.1102 18.693 70.0667 18.8495 70.0252 18.8616C69.9837 18.8737 69.945 18.8938 69.9113 18.9207C69.8776 18.9477 69.8496 18.981 69.8288 19.0188C69.8081 19.0565 69.795 19.098 69.7904 19.1407C69.7858 19.1835 69.7896 19.2268 69.8018 19.2681C69.8139 19.3093 69.8341 19.3478 69.8613 19.3814C69.8884 19.4149 69.9219 19.4427 69.9598 19.4634C69.9978 19.484 70.0394 19.8023 70.0824 19.8069C75.7171 20.4122 78.6969 27.5137 78.7293 27.5905C78.7522 27.6441 79.0952 27.6907 79.1423 27.7254C79.1894 27.76 79.2449 27.7816 79.3032 27.7878Z" fill="#F4395B"/>
<path d="M35.3356 18.3775C35.39 18.3909 35.4469 18.3903 35.501 18.3755C35.5428 18.3643 35.5819 18.3449 35.6162 18.3186C35.6504 18.2924 35.6791 18.2596 35.7007 18.2222C35.7222 18.1849 35.7361 18.1437 35.7416 18.101C35.7471 18.0583 36.1229 18.0149 36.1115 17.9734C36.0186 17.6321 33.2246 5.40546 26.1545 3.87254C26.1125 3.86212 26.6372 4.23924 26.5944 4.24561C26.5517 4.25198 26.5106 4.26667 26.4735 4.28884C26.4365 4.31102 26.4042 4.34024 26.3785 4.37484C26.3528 4.40944 26.3342 4.44874 26.3238 4.49049C26.3133 4.53223 26.3113 4.57562 26.3177 4.61817C26.3241 4.66071 26.3389 4.70158 26.3612 4.73844C26.3835 4.7753 26.4128 4.80743 26.4476 4.83299C26.4824 4.85855 26.333 5.06477 26.3745 5.07699C31.9931 6.73259 34.8861 18.0653 34.9077 18.1458C34.9232 18.202 35.1428 18.2532 35.1847 18.2939C35.2266 18.3346 35.2787 18.3634 35.3356 18.3775Z" fill="#F4395B"/>
<path d="M58.4364 26.8807C58.3803 26.8815 58.325 26.8679 58.2758 26.8413C58.2376 26.8209 58.204 26.7932 58.1766 26.7599C58.1493 26.7265 58.1288 26.6881 58.1164 26.6468C58.104 26.6056 58.0999 26.5623 58.1043 26.5195C58.1088 26.4767 58.1216 26.4352 58.1422 26.3973C58.3109 26.086 61.7824 18.7653 67.8324 18.6814C67.8756 18.6808 67.9186 18.6886 67.9587 18.7045C67.9989 18.7204 68.0356 18.744 68.0666 18.774C68.0976 18.804 68.1223 18.8397 68.1394 18.8793C68.1565 18.9188 68.1656 18.9612 68.1662 19.0043C68.1668 19.0473 68.1589 19.09 68.1429 19.13C68.127 19.1699 68.1032 19.2064 68.0731 19.2372C68.0429 19.2681 68.007 19.2927 67.9672 19.3097C67.9275 19.3267 67.8848 19.715 67.8416 19.7155C62.1747 19.7942 59.1399 26.8253 59.1004 26.8987C59.0725 26.95 58.6525 27.1825 58.6024 27.2127C58.5523 27.2428 58.495 26.8799 58.4364 26.8807Z" fill="#F4395B"/>
<path d="M14.1563 15.1394C14.1003 15.1402 14.045 15.1266 13.9957 15.1C13.9576 15.0796 13.9239 15.0519 13.8966 15.0186C13.8692 14.9852 13.8488 14.9468 13.8364 14.9056C13.824 14.8643 13.8199 14.8211 13.8243 14.7782C13.8287 14.7354 13.8416 14.6939 13.8622 14.656C14.0308 14.3447 17.9301 3.93652 23.9801 3.8526C24.0233 3.85197 24.0663 3.85982 24.1064 3.87571C24.1466 3.89159 24.1833 3.91521 24.2143 3.94519C24.2453 3.97518 24.27 4.01095 24.2871 4.05046C24.3042 4.08998 24.3133 4.13245 24.3139 4.17546C24.3145 4.21848 24.3066 4.2612 24.2906 4.30117C24.2747 4.34115 24.2509 4.3776 24.2208 4.40844C24.1906 4.43928 24.1547 4.46391 24.1149 4.48091C24.0752 4.49792 24.0325 4.88617 23.9893 4.88675C18.3224 4.96536 14.8598 15.084 14.8203 15.1575C14.7925 15.2087 14.3725 15.4412 14.3224 15.4714C14.2722 15.5016 14.2149 15.1387 14.1563 15.1394Z" fill="#F4395B"/>
<path fill-rule="evenodd" clip-rule="evenodd" d="M15.1113 16.0343C15.1113 16.8761 14.4247 17.561 13.5808 17.561C12.737 17.561 12.0504 16.8761 12.0503 16.0343C12.0503 15.1927 12.7369 14.5078 13.5808 14.5078C14.4248 14.5078 15.1113 15.1927 15.1113 16.0343Z" fill="#F4395B"/>
<path d="M13.2325 17.5356C13.255 17.4658 13.2537 17.3906 13.229 17.3218C13.2043 17.253 13.1575 17.1946 13.096 17.1558C13.0597 17.1328 13.0192 17.1173 12.9769 17.1102C12.9346 17.103 12.8912 17.1043 12.8493 17.114C12.8074 17.1237 12.7678 17.1417 12.7327 17.1668C12.6976 17.192 12.2905 16.903 12.2676 16.9398C10.863 19.1887 7.37404 22.4084 2.42407 22.1924C2.24394 22.1845 2.09681 22.8107 2.08794 22.9941C2.08615 23.0374 2.09283 23.0805 2.10759 23.1211C2.12235 23.1617 1.99987 23.1522 2.02894 23.1839C2.05801 23.2157 2.09301 23.2413 2.13196 23.2593C2.1709 23.2773 2.21302 23.2874 2.2559 23.289C7.11089 23.2593 9.94387 21.6846 13.1978 17.6102C13.2125 17.5869 13.2241 17.5618 13.2325 17.5356Z" fill="#F4395B"/>
<path fill-rule="evenodd" clip-rule="evenodd" d="M3.11133 22.2711C3.11133 23.1129 2.42471 23.7978 1.58079 23.7978C0.737 23.7978 0.0503814 23.1129 0.0502539 22.2711C0.0502539 21.4295 0.736873 20.7446 1.58079 20.7446C2.42484 20.7446 3.11133 21.4295 3.11133 22.2711Z" fill="#F4395B"/>
<path d="M111.614 38.0624L113.563 41.945V51.166H1.46264V22.5324L2.43743 23.0177L5.84919 22.5324L8.28617 21.5617L10.7231 19.6205L13.1601 17.6792L14.1349 15.2526L15.5971 12.826L17.5467 9.42884L19.0089 7.00226L21.9332 5.061L24.8576 4.57568L27.2946 5.061L30.7063 7.97289L32.6559 11.3701L34.1181 14.7673L35.0929 18.1645L37.0425 22.5324L39.4794 26.9002L42.4038 30.2974L45.3282 32.2387L49.2273 32.724L52.6391 32.2387L55.0761 30.7827L57.5131 28.8415L59.4626 25.9296L61.4122 22.5324L63.3618 20.5911L66.7736 19.1351H70.6727L73.5971 20.5911L76.5215 23.503L78.9584 26.9002L79.9332 29.3268L81.8828 33.2093L84.8072 35.6359L88.7063 37.0918L90.6559 38.0624L94.5551 37.0918L96.992 35.6359L99.9164 34.1799L102.841 33.6946L106.253 34.1799L108.69 35.1506L111.614 38.0624Z" fill="url(#paint0_linear_2145_33)"/>
<path d="M114.802 36.4403L115.039 41.6306C115.043 41.8423 114.738 42.0661 114.501 42.0186L109.257 41.1152C109.019 41.0677 108.767 40.6737 108.748 40.4135C108.743 40.1715 108.993 39.7917 109.245 39.827L112.77 40.4553L113.667 40.2749L113.668 39.6719L113.568 36.2523C113.566 36.1312 113.735 35.9744 113.822 35.9014C113.895 35.8407 114.12 35.8403 114.238 35.864C114.476 35.9115 114.797 36.168 114.802 36.4403Z" fill="#F4395B"/>
</g>
<defs>
<linearGradient id="paint0_linear_2145_33" x1="63.8492" y1="4.09036" x2="60.382" y2="36.3939" gradientUnits="userSpaceOnUse">
<stop stop-color="#F4395B" stop-opacity="0.25"/>
<stop offset="1" stop-color="#F4395B" stop-opacity="0"/>
</linearGradient>
<clipPath id="clip0_2145_33">
<rect width="116" height="48" fill="white" transform="matrix(-1 0 0 1 116 0)"/>
</clipPath>
</defs>
</svg>
