<svg width="45" height="45" viewBox="0 0 45 45" fill="none" xmlns="http://www.w3.org/2000/svg">
<g clip-path="url(#clip0_1802_13)">
<path fill-rule="evenodd" clip-rule="evenodd" d="M44.8438 12.1875C44.8438 11.2388 44.0737 10.4688 43.125 10.4688H36.25C35.3013 10.4688 34.5312 11.2388 34.5312 12.1875V43.125C34.5312 44.0737 35.3013 44.8438 36.25 44.8438H43.125C44.0737 44.8438 44.8438 44.0737 44.8438 43.125V12.1875ZM10.4688 22.5C10.4688 21.5513 9.69875 20.7812 8.75 20.7812H1.875C0.92625 20.7812 0.15625 21.5513 0.15625 22.5V43.125C0.15625 44.0737 0.92625 44.8438 1.875 44.8438H8.75C9.69875 44.8438 10.4688 44.0737 10.4688 43.125V22.5ZM27.6562 1.875C27.6562 0.92625 26.8862 0.15625 25.9375 0.15625H19.0625C18.1138 0.15625 17.3438 0.92625 17.3438 1.875V43.125C17.3438 44.0737 18.1138 44.8438 19.0625 44.8438H25.9375C26.8862 44.8438 27.6562 44.0737 27.6562 43.125V1.875Z" fill="url(#paint0_linear_1802_13)"/>
</g>
<defs>
<linearGradient id="paint0_linear_1802_13" x1="0.15625" y1="0.15625" x2="44.8438" y2="47.25" gradientUnits="userSpaceOnUse">
<stop stop-color="#CA89FF"/>
<stop offset="1" stop-color="#6E73FF"/>
</linearGradient>
<clipPath id="clip0_1802_13">
<rect width="45" height="45" fill="white"/>
</clipPath>
</defs>
</svg>
