<svg width="17" height="17" viewBox="0 0 17 17" fill="none" xmlns="http://www.w3.org/2000/svg">
<path d="M4.13771 2.96494C4.45254 2.96494 4.70801 2.70974 4.70801 2.39487V0.570031C4.70801 0.255199 4.45254 0 4.13771 0C3.82288 0 3.56738 0.255199 3.56738 0.570064V2.39491C3.56738 2.70974 3.82288 2.96494 4.13771 2.96494Z" fill="#6D73FF"/>
<path d="M8.69995 2.96494C9.01478 2.96494 9.27024 2.70974 9.27024 2.39487V0.570031C9.27021 0.255199 9.01475 0 8.69995 0C8.38508 0 8.12988 0.255199 8.12988 0.570064V2.39491C8.12988 2.70974 8.38508 2.96494 8.69995 2.96494Z" fill="#6D73FF"/>
<path d="M14.3775 1.49084H14.2874V2.39493C14.2874 2.96065 13.8272 3.42111 13.2609 3.42111C12.6952 3.42111 12.2345 2.96061 12.2345 2.39493V1.49084H9.72594V2.39493C9.72594 2.96065 9.26541 3.42111 8.6995 3.42111C8.13378 3.42111 7.67329 2.96061 7.67329 2.39493V1.49084H5.16446V2.39493C5.16446 2.96065 4.70396 3.42111 4.13802 3.42111C3.5723 3.42111 3.11158 2.96061 3.11158 2.39493V1.49084H3.02199C1.79102 1.49084 0.792969 2.48886 0.792969 3.71987V14.771C0.792969 16.002 1.79099 17.0001 3.02199 17.0001H14.3775C15.6082 17.0001 16.6066 16.002 16.6066 14.771V3.71987C16.6065 2.4889 15.6082 1.49084 14.3775 1.49084ZM15.6937 14.6018C15.6937 15.4225 15.0287 16.0878 14.2081 16.0878H3.19143C2.37078 16.0878 1.70526 15.4225 1.70526 14.6018V6.32466H15.6937V14.6018Z" fill="#6D73FF"/>
<path d="M13.2608 2.96494C13.5756 2.96494 13.8311 2.70974 13.8311 2.39487V0.570031C13.8311 0.255199 13.5756 0 13.2608 0C12.9459 0 12.6904 0.255199 12.6904 0.570064V2.39491C12.6904 2.70974 12.9459 2.96494 13.2608 2.96494Z" fill="#6D73FF"/>
</svg>
