<svg width="30" height="30" viewBox="0 0 30 30" fill="none" xmlns="http://www.w3.org/2000/svg">
<circle cx="15.5" cy="15.5" r="10.5" fill="#A4A7FF"/>
<path d="M16.1255 15.2L19.2663 12.059C19.3527 11.9726 19.4004 11.8572 19.4005 11.7342C19.4005 11.6111 19.3529 11.4956 19.2663 11.4093L18.9911 11.1341C18.9046 11.0475 18.7892 11 18.6661 11C18.5431 11 18.4278 11.0475 18.3413 11.1341L15.2004 14.2749L12.0594 11.1341C11.973 11.0475 11.8576 11 11.7345 11C11.6116 11 11.4962 11.0475 11.4098 11.1341L11.1344 11.4093C10.9552 11.5885 10.9552 11.88 11.1344 12.059L14.2753 15.2L11.1344 18.3408C11.0479 18.4274 11.0003 18.5428 11.0003 18.6658C11.0003 18.7888 11.0479 18.9042 11.1344 18.9907L11.4097 19.2659C11.4961 19.3525 11.6116 19.4 11.7345 19.4C11.8575 19.4 11.973 19.3525 12.0594 19.2659L15.2003 16.125L18.3412 19.2659C18.4277 19.3525 18.5431 19.4 18.666 19.4H18.6661C18.7891 19.4 18.9045 19.3525 18.991 19.2659L19.2663 18.9907C19.3527 18.9042 19.4003 18.7888 19.4003 18.6658C19.4003 18.5428 19.3527 18.4274 19.2663 18.3409L16.1255 15.2Z" fill="white"/>
</svg>
