<?xml version="1.0" encoding="utf-8"?>
<!-- Generator: Adobe Illustrator 23.1.0, SVG Export Plug-In . SVG Version: 6.00 Build 0)  -->
<svg version="1.1" id="Слой_1" xmlns="http://www.w3.org/2000/svg" xmlns:xlink="http://www.w3.org/1999/xlink" x="0px" y="0px"
	 viewBox="0 0 244.4 149.8" style="enable-background:new 0 0 244.4 149.8;" xml:space="preserve">
<style type="text/css">
	.st0{opacity:0.1;fill:#FFFFFF;enable-background:new    ;}
</style>
<title>cardBackground</title>
<g>
	<path class="st0" d="M0.2,150.7c0,0,4.9-23.9,8.1-32.6S14.5,98,20.5,88.8S39.2,70,51.4,68.9S74,69.3,81,74.5s10.7,9.9,16.7,15.1
		s17.2,11.6,26.2,13c9,1.5,13.5,0.9,24.2-0.2s20.8-6,27.3-9.7s15.2-7.8,20.2-12.1c5.1-4.3,18.2-8.6,22.5-9.9
		c5.4-1.6,10.9-2.7,16.5-3.2c3.5-0.2,7,0.3,10.3,1.3l0.4,81.6L0.2,150.7z"/>
</g>
<g>
	<path class="st0" d="M-0.3,150.5c0,0,17.9-7.6,31-20.2c7.7-7.4,12-13.5,16.8-26.1c3.6-9.5,6.3-18.8,9.1-23.9
		C64.3,66.8,81.4,61.7,95.3,69c7.7,3.8,9.6,4.9,17.3,8.9c9.3,4.8,12.9,5.3,20.5,5.1c8.6-0.3,13.2-1.9,20.6-7.5
		c7.1-5.4,9.7-9.5,12.9-18.6c4.5-12.8,5-15.4,5.3-25.7c0.5-14.2,0.3-18.5,3.7-24.2c2.3-4,6.6-6.5,11.2-6.6c0,0,8.5,1.8,14.7,6.9
		c3.7,3.2,7.6,9.4,13.6,18c6.5,9.4,7.3,9.2,12.4,16.3c3.9,5.8,8.3,11.4,13.1,16.6c4.3,4.8,3.7,6.2,3.7,6.2l0.6,85.4L-0.3,150.5z"/>
</g>
<g id="Слой_3">
	<path class="st0" d="M0.2,150.1c0,0,22-2.5,37.2-6.5c7.7-2,22.1-3.2,35.5-16.1c9.8-9.4,12.3-14,16.7-25.8c3.2-8.4,3.1-8.9,5.3-18.4
		C96.6,76,99,68.2,101,60.6c2.8-10.7,5.9-14.6,11.3-13.6c4.7,0.9,6.7,4,10.6,9.2c2.9,3.7,5.3,7.9,6.9,12.4c2.3,5.9,4.7,12.3,7.1,19
		c2.4,6.7,7.1,13.2,9.2,14.9c2,1.7,4.4,4.8,13.5,5.5c9,0.7,11.2,0.7,18.4-4.7c7.5-5.7,9-11.9,11.1-16.6c3.4-7.8,4.9-12.8,5.4-22
		c0.4-7.6,0.5-12,0.6-17.2c0.2-7.3-0.7-14.6-0.3-23.1c0.4-8.6,4.1-13.9,5.3-14.4c2.4-1.5,5.2-2,8-1.6c5.3,0.6,11.1,1.7,15.8,7.1
		c4.9,5.6,6.2,6.6,11.6,15.7c4.5,7.4,6.5,11.1,8.2,14s1.4,3.2,1.4,3.2l0.4,102.1L0.2,150.1z"/>
</g>
</svg>
