<svg width="52" height="52" viewBox="0 0 52 52" fill="none" xmlns="http://www.w3.org/2000/svg">
<g clip-path="url(#clip0_2132_128)">
<path d="M14.1008 49.8429C14.3881 49.8429 14.6208 49.6101 14.6208 49.3229V25.3659C14.6208 25.079 14.3878 24.8459 14.1008 24.8459H9.94082C9.65381 24.8459 9.42082 25.079 9.42082 25.3659V49.3229C9.42082 49.6101 9.65355 49.8429 9.94082 49.8429H14.1008ZM14.1008 51.9229H9.94082C8.50483 51.9229 7.34082 50.7589 7.34082 49.3229V25.3659C7.34082 23.9303 8.50493 22.7659 9.94082 22.7659H14.1008C15.5367 22.7659 16.7008 23.9303 16.7008 25.3659V49.3229C16.7008 50.7589 15.5368 51.9229 14.1008 51.9229ZM28.0888 49.8429C28.3761 49.8429 28.6088 49.6101 28.6088 49.3229V20.7582C28.6088 20.4709 28.3761 20.2382 28.0888 20.2382H23.9288C23.8605 20.2382 23.7929 20.2516 23.7298 20.2778C23.6667 20.3039 23.6094 20.3422 23.5611 20.3905C23.5128 20.4388 23.4745 20.4961 23.4484 20.5592C23.4222 20.6223 23.4088 20.6899 23.4088 20.7582V49.3229C23.4088 49.6101 23.6416 49.8429 23.9288 49.8429H28.0888ZM28.0888 51.9229H23.9288C22.4928 51.9229 21.3288 50.7589 21.3288 49.3229V20.7582C21.3288 19.3222 22.4928 18.1582 23.9288 18.1582H28.0888C29.5248 18.1582 30.6888 19.3222 30.6888 20.7582V49.3229C30.6888 50.7589 29.5248 51.9229 28.0888 51.9229ZM42.0768 49.8908C42.3641 49.8908 42.5968 49.6581 42.5968 49.3708V16.1979C42.5968 15.9109 42.3638 15.6779 42.0768 15.6779H37.9168C37.6298 15.6779 37.3968 15.9109 37.3968 16.1979V49.3708C37.3968 49.6581 37.6296 49.8908 37.9168 49.8908H42.0768ZM42.0768 51.9708H37.9168C36.4808 51.9708 35.3168 50.8068 35.3168 49.3708V16.1979C35.3168 14.7623 36.4809 13.5979 37.9168 13.5979H42.0768C43.5127 13.5979 44.6768 14.7623 44.6768 16.1979V49.3708C44.6768 50.8068 43.5128 51.9708 42.0768 51.9708ZM35.387 2.08L40.5864 2.08782C41.1608 2.08868 41.6272 1.62378 41.628 1.0494C41.6289 0.475009 41.164 0.00868479 40.5896 0.00782151L35.3901 1.20033e-06C34.8157 -0.000862081 34.3494 0.46404 34.3485 1.03843C34.3477 1.61281 34.8126 2.07914 35.387 2.08Z" fill="white"/>
<path d="M39.5478 1.04467L39.5322 6.21557C39.5305 6.78996 39.9947 7.25699 40.5691 7.25872C41.1435 7.26045 41.6105 6.79625 41.6122 6.22187L41.6278 1.05097C41.6295 0.476579 41.1654 0.00954386 40.591 0.0078173C40.0166 0.00609074 39.5495 0.470282 39.5478 1.04467Z" fill="white"/>
<path d="M8.32032 16.1325H16.15C16.4915 16.1325 16.8296 16.0653 17.1452 15.9346C17.4607 15.8039 17.7473 15.6123 17.9888 15.3709L23.2179 10.1418C23.3154 10.0443 23.4476 9.9895 23.5854 9.98927H31.6979C32.3872 9.98927 33.0483 9.71575 33.5361 9.22877L40.7029 2.06201C41.109 1.65586 41.109 0.997381 40.7029 0.591232C40.2967 0.185084 39.6382 0.185084 39.2321 0.591232L32.066 7.75733C31.9682 7.85469 31.8359 7.90932 31.6979 7.90927H23.5854C22.8959 7.90949 22.2347 8.18345 21.7471 8.67094L16.518 13.9C16.4697 13.9484 16.4123 13.9867 16.3491 14.0129C16.286 14.0391 16.2183 14.0525 16.1499 14.0525H8.32027C7.74589 14.0525 7.28027 14.5181 7.28027 15.0925C7.28027 15.6669 7.74594 16.1325 8.32032 16.1325Z" fill="white"/>
</g>
<defs>
<clipPath id="clip0_2132_128">
<rect width="52" height="52" fill="white"/>
</clipPath>
</defs>
</svg>
