<svg width="52" height="52" viewBox="0 0 52 52" fill="none" xmlns="http://www.w3.org/2000/svg">
<g clip-path="url(#clip0_2132_139)">
<path fill-rule="evenodd" clip-rule="evenodd" d="M37.3792 49.3229C37.3792 49.6101 37.6119 49.8429 37.8992 49.8429H42.0592C42.3464 49.8429 42.5792 49.6101 42.5792 49.3229V25.3659C42.5792 25.079 42.3462 24.8459 42.0592 24.8459H37.8992C37.6122 24.8459 37.3792 25.079 37.3792 25.3659V49.3229ZM42.0592 51.9229H37.8992C36.4632 51.9229 35.2992 50.7589 35.2992 49.3229V25.3659C35.2992 23.9303 36.4633 22.7659 37.8992 22.7659H42.0592C43.4951 22.7659 44.6592 23.9303 44.6592 25.3659V49.3229C44.6592 50.7589 43.4952 51.9229 42.0592 51.9229ZM23.3912 49.3229C23.3912 49.6101 23.6239 49.8429 23.9112 49.8429H28.0712C28.3584 49.8429 28.5912 49.6101 28.5912 49.3229V20.7582C28.5912 20.6899 28.5778 20.6223 28.5516 20.5592C28.5255 20.4961 28.4872 20.4388 28.4389 20.3905C28.3906 20.3422 28.3333 20.3039 28.2702 20.2778C28.2071 20.2516 28.1395 20.2382 28.0712 20.2382H23.9112C23.6239 20.2382 23.3912 20.4709 23.3912 20.7582V49.3229ZM28.0712 51.9229H23.9112C22.4752 51.9229 21.3112 50.7589 21.3112 49.3229V20.7582C21.3112 19.3222 22.4752 18.1582 23.9112 18.1582H28.0712C29.5072 18.1582 30.6712 19.3222 30.6712 20.7582V49.3229C30.6712 50.7589 29.5072 51.9229 28.0712 51.9229ZM9.40318 49.3708C9.40318 49.6581 9.63591 49.8908 9.92318 49.8908H14.0832C14.3704 49.8908 14.6032 49.6581 14.6032 49.3708V16.1979C14.6032 15.9109 14.3702 15.6779 14.0832 15.6779H9.92318C9.63616 15.6779 9.40318 15.9109 9.40318 16.1979V49.3708ZM14.0832 51.9708H9.92318C8.48719 51.9708 7.32318 50.8068 7.32318 49.3708V16.1979C7.32318 14.7623 8.48729 13.5979 9.92318 13.5979H14.0832C15.5191 13.5979 16.6832 14.7623 16.6832 16.1979V49.3708C16.6832 50.8068 15.5192 51.9708 14.0832 51.9708Z" fill="white"/>
<path d="M41.9858 16.1578L41.3256 11.0292C41.2523 10.4595 41.6546 9.9382 42.2243 9.86487C42.794 9.79154 43.3153 10.1939 43.3886 10.7636L44.0488 15.8922C44.1221 16.4619 43.7198 16.9831 43.1501 17.0565C42.5804 17.1298 42.0591 16.7275 41.9858 16.1578Z" fill="white"/>
<path d="M43.095 17.5913L37.9272 17.7722C37.3532 17.7923 36.8716 17.3432 36.8515 16.7692C36.8314 16.1952 37.2804 15.7135 37.8545 15.6934L43.0222 15.5126C43.5963 15.4925 44.0779 15.9415 44.098 16.5155C44.1181 17.0896 43.669 17.5712 43.095 17.5913Z" fill="white"/>
<path d="M9.12068 5.08117L16.8892 4.10495C17.2281 4.06236 17.572 4.08693 17.9013 4.17726C18.2307 4.26759 18.539 4.42191 18.8087 4.6314L24.649 9.16772C24.7579 9.25224 24.8958 9.29016 25.0326 9.27321L33.0818 8.26172C33.7657 8.17578 34.4558 8.36473 35.0005 8.78709L43.0049 15.0044C43.4585 15.3567 43.5406 16.01 43.1883 16.4637C42.8359 16.9173 42.1826 16.9994 41.729 16.647L33.7253 10.4303C33.6162 10.3459 33.478 10.3082 33.3412 10.3255L25.292 11.337C24.6078 11.4227 23.9176 11.2333 23.373 10.8105L17.5327 6.27414C17.4788 6.23219 17.417 6.20128 17.3511 6.1832C17.2852 6.16511 17.2164 6.16019 17.1485 6.16873L9.37997 7.14495C8.81007 7.21656 8.29003 6.81264 8.21842 6.24273C8.1468 5.67283 8.55078 5.15279 9.12068 5.08117Z" fill="white"/>
</g>
<defs>
<clipPath id="clip0_2132_139">
<rect width="52" height="52" fill="white" transform="matrix(-1 0 0 1 52 0)"/>
</clipPath>
</defs>
</svg>
