<svg width="38" height="38" viewBox="0 0 38 38" fill="none" xmlns="http://www.w3.org/2000/svg">
<g clip-path="url(#clip0_2023_2)">
<path fill-rule="evenodd" clip-rule="evenodd" d="M20.1667 9.17895C20.1667 8.52784 19.6443 8 19 8C18.3556 8 17.8333 8.52784 17.8333 9.17895V9.83821C16.4683 10.0035 15.2123 10.4582 14.2122 11.1563C12.9281 12.0526 12 13.4117 12 15.0737C12 16.5757 12.5736 17.9705 13.8408 18.9555C14.8401 19.7323 16.1856 20.1885 17.8333 20.3306V26.1816C16.9188 26.0335 16.1305 25.7171 15.5383 25.3036C14.7111 24.7262 14.3333 24.0222 14.3333 23.3263C14.3333 22.6752 13.811 22.1474 13.1667 22.1474C12.5223 22.1474 12 22.6752 12 23.3263C12 24.9883 12.9281 26.3475 14.2122 27.2437C15.2123 27.9418 16.4683 28.3965 17.8333 28.5618V29.2211C17.8333 29.8722 18.3556 30.4 19 30.4C19.6443 30.4 20.1667 29.8722 20.1667 29.2211V28.565C21.5226 28.4077 22.7772 27.9743 23.7803 27.2858C25.0809 26.3931 26 25.0282 26 23.3263C26 21.7859 25.4335 20.3815 24.1518 19.4018C23.1498 18.636 21.8045 18.2019 20.1667 18.067V12.2184C21.0812 12.3664 21.8695 12.6829 22.4617 13.0963C23.2889 13.6737 23.6667 14.3778 23.6667 15.0737C23.6667 15.7248 24.189 16.2526 24.8333 16.2526C25.4777 16.2526 26 15.7248 26 15.0737C26 13.4117 25.0719 12.0526 23.7879 11.1563C22.7878 10.4582 21.5318 10.0035 20.1667 9.83821V9.17895ZM17.8333 12.2184C16.9188 12.3664 16.1305 12.683 15.5383 13.0964C14.7111 13.6737 14.3333 14.3778 14.3333 15.0737C14.3333 15.9296 14.6347 16.5979 15.2634 17.0866C15.7835 17.4909 16.6047 17.8305 17.8333 17.9623V12.2184ZM20.1667 20.4344V26.1868C21.0896 26.0454 21.8796 25.7401 22.4693 25.3352C23.2799 24.7789 23.6667 24.0806 23.6667 23.3263C23.6667 22.4105 23.3582 21.7517 22.7442 21.2824C22.2268 20.887 21.4052 20.5602 20.1667 20.4344Z" fill="#6D73FF"/>
</g>
<defs>
<clipPath id="clip0_2023_2">
<rect width="38" height="38" fill="white"/>
</clipPath>
</defs>
</svg>
