<svg width="34" height="34" viewBox="0 0 34 34" fill="none" xmlns="http://www.w3.org/2000/svg">
<path fill-rule="evenodd" clip-rule="evenodd" d="M18.433 4.82016C18.433 4.02877 17.7915 3.38721 17 3.38721C16.2086 3.38721 15.5671 4.02877 15.5671 4.82016V5.62146C13.8905 5.82239 12.3478 6.37504 11.1194 7.2235C9.54228 8.3129 8.40234 9.96484 8.40234 11.9849C8.40234 13.8105 9.10688 15.5058 10.6633 16.703C11.8907 17.6472 13.5433 18.2018 15.5671 18.3744V25.486C14.4438 25.306 13.4756 24.9214 12.7482 24.4189C11.7322 23.717 11.2682 22.8614 11.2682 22.0156C11.2682 21.2241 10.6267 20.5826 9.83529 20.5826C9.0439 20.5826 8.40234 21.2241 8.40234 22.0156C8.40234 24.0356 9.54228 25.6876 11.1194 26.777C12.3478 27.6254 13.8905 28.1781 15.5671 28.379V29.1803C15.5671 29.9717 16.2086 30.6133 17 30.6133C17.7915 30.6133 18.433 29.9717 18.433 29.1803V28.3829C20.0984 28.1917 21.6394 27.665 22.8714 26.8281C24.4689 25.7431 25.5977 24.0842 25.5977 22.0156C25.5977 20.1433 24.9019 18.4363 23.3277 17.2456C22.097 16.3147 20.4447 15.7871 18.433 15.6232V8.51449C19.5563 8.69437 20.5245 9.07909 21.2519 9.58155C22.2679 10.2834 22.7318 11.1391 22.7318 11.9849C22.7318 12.7763 23.3734 13.4179 24.1648 13.4179C24.9562 13.4179 25.5977 12.7763 25.5977 11.9849C25.5977 9.96484 24.4578 8.3129 22.8807 7.22352C21.6524 6.37502 20.1097 5.82238 18.433 5.62146V4.82016ZM15.5671 8.5145C14.4438 8.69438 13.4756 9.0791 12.7482 9.58156C11.7322 10.2834 11.2682 11.1391 11.2682 11.9849C11.2682 13.0252 11.6384 13.8375 12.4106 14.4315C13.0494 14.9229 14.0581 15.3357 15.5671 15.4959V8.5145ZM18.433 18.5005V25.4923C19.5666 25.3205 20.5369 24.9494 21.2612 24.4573C22.2568 23.7811 22.7318 22.9324 22.7318 22.0156C22.7318 20.9024 22.353 20.1017 21.5988 19.5313C20.9633 19.0506 19.9542 18.6534 18.433 18.5005Z" fill="#6D73FF"/>
</svg>
