<svg width="38" height="38" viewBox="0 0 38 38" fill="none" xmlns="http://www.w3.org/2000/svg">
<circle cx="19" cy="19" r="19" fill="none"/>
<g clip-path="url(#clip0_2020_12)">
<path d="M16.9449 10.1143C15.8861 11.9118 15.7145 13.3741 15.8861 14.629C16.0577 15.8839 16.4989 17.0868 17.1796 18.1552C17.8603 19.2237 18.7643 20.1324 19.8296 20.8189C20.8949 21.5055 22.0962 21.9537 23.3512 22.1327C23.7637 22.1905 24.1797 22.2195 24.5962 22.2198C26.0458 22.1327 27.3926 21.6929 28.0554 21.1893C28.0554 22.8272 26.5984 25.2433 25.1918 26.4311C23.8987 27.523 21.5079 28.5529 19.8296 28.7763C19.4585 28.8214 19.0851 28.8441 18.7113 28.8443C16.6005 28.8489 14.245 28.0659 12.6453 26.6902C11.0455 25.3146 9.69066 22.9049 9.381 20.8189C9.07134 18.733 9.28767 16.4093 10.4189 14.629C11.8594 12.3621 14.2868 10.6246 16.9449 10.1143ZM17.8054 8C17.2635 8.00026 17.2039 8.02604 16.6686 8.10975C13.3371 8.63071 11.7029 9.81543 9.62274 11.9118C7.74975 14.2153 6.82236 17.1435 7.02818 20.1042C7.23399 23.0649 8.55764 25.8369 10.7314 27.8597C12.9051 29.8824 15.7667 31.0049 18.7373 31C19.2293 30.9999 19.7209 30.9699 20.2093 30.91C22.7618 30.5827 25.136 29.427 26.9672 27.6207C28.7984 25.8143 29.9853 23.4572 30.3453 20.9116C30.3453 20.3276 30.3453 20.1724 30.2481 19.8448C30.0997 19.3448 30.0008 19.2537 29.9262 19.079C29.8517 18.9043 29.7086 18.7462 29.5723 18.6138C29.4359 18.4814 29.2746 18.3775 29.0977 18.308C28.9208 18.2385 28.7318 18.2394 28.5418 18.2435C28.2166 18.2439 27.9005 18.5227 27.6409 18.7184C26.633 19.4731 25.1999 20.0533 23.9403 20.0522C23.6586 20.0521 23.3772 20.0326 23.0981 19.9937C22.093 19.8491 21.1427 19.4457 20.3407 18.8233C19.5388 18.2009 18.809 17.3808 18.3856 16.4435C17.9968 15.5063 17.6514 14.346 17.7775 13.3392C17.9036 12.3325 18.3932 11.3413 19.4501 10.356C19.599 10.1381 19.6881 9.88494 19.7086 9.62187C19.7291 9.3588 19.6802 9.09496 19.5669 8.85663C19.4535 8.6183 19.2796 8.4138 19.0625 8.2635C18.8455 8.11321 18.5928 8.02235 18.3296 8H17.8054Z" fill="#727272"/>
</g>
<defs>
<clipPath id="clip0_2020_12">
<rect width="38" height="38" fill="white"/>
</clipPath>
</defs>
</svg>
