<svg width="22" height="22" viewBox="0 0 22 22" fill="none" xmlns="http://www.w3.org/2000/svg">
<path d="M19.0282 1.95407C19.5164 1.46592 20.3078 1.46592 20.796 1.95407V1.95407C21.2841 2.44223 21.2841 3.23369 20.796 3.72184L3.47188 21.046C2.98372 21.5341 2.19227 21.5341 1.70411 21.046V21.046C1.21595 20.5578 1.21595 19.7663 1.70411 19.2782L19.0282 1.95407Z" fill="#F4395B"/>
<path d="M1.9542 3.4719C1.46604 2.98374 1.46604 2.19228 1.9542 1.70413V1.70413C2.44235 1.21597 3.23381 1.21597 3.72196 1.70413L21.0461 19.0282C21.5342 19.5164 21.5342 20.3079 21.0461 20.796V20.796C20.5579 21.2842 19.7665 21.2842 19.2783 20.796L1.9542 3.4719Z" fill="#F4395B"/>
</svg>
