<svg width="40" height="40" viewBox="0 0 40 40" fill="none" xmlns="http://www.w3.org/2000/svg">
<circle cx="20" cy="20" r="20" fill="#F7F7F7"/>
<path d="M26.1596 12.2607L20.1272 18.2932L14.1144 12.2804C13.7158 11.8818 13.1185 11.8811 12.7207 12.2789C12.323 12.6766 12.3236 13.2739 12.7223 13.6726L18.7683 19.7186L12.7689 25.7179C12.3379 26.0824 12.3386 26.6797 12.7373 27.0783C13.1359 27.477 13.7332 27.4776 14.1309 27.0799L20.1634 21.0474L26.2094 27.0934C26.608 27.492 27.2053 27.4927 27.6031 27.0949C28.0008 26.6972 28.0001 26.0999 27.6015 25.7013L21.5223 19.6221L27.5548 13.5896C27.9525 13.1918 27.9519 12.5945 27.5532 12.1959C27.1546 11.7973 26.5242 11.8961 26.1596 12.2607Z" fill="#D3D3D3"/>

</svg>
