<svg width="16" height="17" viewBox="0 0 16 17" fill="none" xmlns="http://www.w3.org/2000/svg">
<path d="M13.425 2.27076L7.96859 7.34534L2.53 2.28735C2.16943 1.95202 1.62919 1.95146 1.26942 2.28604C0.909657 2.62063 0.91026 3.12307 1.27083 3.45841L6.73946 8.54434L1.31302 13.5911C0.923206 13.8977 0.923809 14.4001 1.28438 14.7354C1.64495 15.0708 2.1852 15.0713 2.54496 14.7368L8.00138 9.66221L13.47 14.7481C13.8306 15.0834 14.3708 15.084 14.7306 14.7494C15.0903 14.4149 15.0897 13.9124 14.7292 13.5771L9.23051 8.46319L14.6869 3.38861C15.0467 3.05402 15.0461 2.55158 14.6855 2.21625C14.325 1.88091 13.7548 1.96406 13.425 2.27076Z" fill="#D3D3D3"/>
</svg>
