<svg width="100" height="100" viewBox="0 0 100 100" fill="none" xmlns="http://www.w3.org/2000/svg">
<g clip-path="url(#clip0_2230_2)">
<circle cx="50" cy="50" r="50" fill="#D9D9D9"/>
<path d="M63.9062 34H37.0312C35.9625 34.0012 34.9378 34.4263 34.1821 35.1821C33.4263 35.9378 33.0012 36.9625 33 38.0312V56.8438C33.0012 57.9125 33.4263 58.9372 34.1821 59.6929C34.9378 60.4487 35.9625 60.8738 37.0312 60.875H49.125V63.5625H45.0938C44.7374 63.5625 44.3956 63.7041 44.1436 63.9561C43.8916 64.2081 43.75 64.5499 43.75 64.9062C43.75 65.2626 43.8916 65.6044 44.1436 65.8564C44.3956 66.1084 44.7374 66.25 45.0938 66.25H55.8438C56.2001 66.25 56.5419 66.1084 56.7939 65.8564C57.0459 65.6044 57.1875 65.2626 57.1875 64.9062C57.1875 64.5499 57.0459 64.2081 56.7939 63.9561C56.5419 63.7041 56.2001 63.5625 55.8438 63.5625H51.8125V60.875H63.9062C64.975 60.8738 65.9997 60.4487 66.7554 59.6929C67.5112 58.9372 67.9363 57.9125 67.9375 56.8438V38.0312C67.9363 36.9625 67.5112 35.9378 66.7554 35.1821C65.9997 34.4263 64.975 34.0012 63.9062 34ZM65.25 56.8438C65.2496 57.2 65.1079 57.5416 64.856 57.7935C64.6041 58.0454 64.2625 58.1871 63.9062 58.1875H37.0312C36.675 58.1871 36.3334 58.0454 36.0815 57.7935C35.8296 57.5416 35.6879 57.2 35.6875 56.8438V54.1562H65.25V56.8438Z" fill="#5F5C5C"/>
</g>
<defs>
<clipPath id="clip0_2230_2">
<rect width="100" height="100" fill="white"/>
</clipPath>
</defs>
</svg>
