<svg width="40" height="40" viewBox="0 0 40 40" fill="none" xmlns="http://www.w3.org/2000/svg">
<circle cx="20" cy="20" r="20" fill="#F7F7F7"/>
<path fill-rule="evenodd" clip-rule="evenodd" d="M12.441 24.3335L12.051 27.9225C12.0168 28.2376 12.2822 28.5036 12.5965 28.4694L16.1765 28.0785C16.5127 28.0417 16.8263 27.891 17.0654 27.6513L27.9422 16.7473C28.5219 16.1662 28.5219 15.224 27.9422 14.6428L25.843 12.5383C25.2632 11.9572 24.3235 11.9572 23.7438 12.5383L12.867 23.4423C12.6279 23.6821 12.4776 23.9964 12.441 24.3335ZM26.8927 11.4861L28.9918 13.5906C30.1513 14.7528 30.1513 16.6373 28.9918 17.7995L18.115 28.7036C17.6368 29.183 17.0096 29.4843 16.3373 29.5577L12.7572 29.9486C11.4999 30.0859 10.4385 29.0218 10.5754 27.7614L10.9653 24.1723C11.0385 23.4983 11.3391 22.8696 11.8174 22.3901L22.6941 11.4861C23.8535 10.3238 25.7332 10.3238 26.8927 11.4861Z" fill="#D3D3D3"/>
<path fill-rule="evenodd" clip-rule="evenodd" d="M27.9428 14.6428L25.8437 12.5383C25.264 11.9572 24.3242 11.9572 23.7444 12.5383L22.4849 13.801L26.6833 18.01L27.9428 16.7473C28.5226 16.1662 28.5226 15.224 27.9428 14.6428ZM26.6833 20.1145L20.3857 13.801L22.6948 11.4861C23.8542 10.3238 25.7339 10.3238 26.8933 11.4861L28.9925 13.5906C30.1519 14.7528 30.1519 16.6373 28.9925 17.7995L26.6833 20.1145Z" fill="#D3D3D3"/>

</svg>
