<svg width="40" height="40" viewBox="0 0 40 40" fill="none" xmlns="http://www.w3.org/2000/svg">
<mask id="mask0_2420_15" style="mask-type:luminance" maskUnits="userSpaceOnUse" x="7" y="6" width="26" height="26">
<path d="M7 6H33V32H7V6Z" fill="white"/>
</mask>
<g mask="url(#mask0_2420_15)">
<path fill-rule="evenodd" clip-rule="evenodd" d="M25.6901 30.6612C25.6901 30.8049 25.8064 30.9212 25.9501 30.9212H28.0301C28.1737 30.9212 28.2901 30.8049 28.2901 30.6612V18.6828C28.2901 18.5393 28.1736 18.4228 28.0301 18.4228H25.9501C25.8066 18.4228 25.6901 18.5393 25.6901 18.6828V30.6612ZM28.0301 31.9612H25.9501C25.2321 31.9612 24.6501 31.3792 24.6501 30.6612V18.6828C24.6501 17.965 25.2321 17.3828 25.9501 17.3828H28.0301C28.748 17.3828 29.3301 17.965 29.3301 18.6828V30.6612C29.3301 31.3792 28.7481 31.9612 28.0301 31.9612ZM18.6961 30.6612C18.6961 30.8049 18.8124 30.9212 18.9561 30.9212H21.0361C21.1797 30.9212 21.2961 30.8049 21.2961 30.6612V16.3789C21.2961 16.3448 21.2894 16.3109 21.2763 16.2794C21.2632 16.2479 21.2441 16.2192 21.2199 16.195C21.1958 16.1709 21.1671 16.1517 21.1356 16.1387C21.104 16.1256 21.0702 16.1189 21.0361 16.1189H18.9561C18.8124 16.1189 18.6961 16.2353 18.6961 16.3789V30.6612ZM21.0361 31.9612H18.9561C18.2381 31.9612 17.6561 31.3792 17.6561 30.6612V16.3789C17.6561 15.6609 18.2381 15.0789 18.9561 15.0789H21.0361C21.7541 15.0789 22.3361 15.6609 22.3361 16.3789V30.6612C22.3361 31.3792 21.7541 31.9612 21.0361 31.9612ZM11.7021 30.6852C11.7021 30.8288 11.8184 30.9452 11.9621 30.9452H14.0421C14.1857 30.9452 14.3021 30.8288 14.3021 30.6852V14.0988C14.3021 13.9553 14.1856 13.8388 14.0421 13.8388H11.9621C11.8186 13.8388 11.7021 13.9553 11.7021 14.0988V30.6852ZM14.0421 31.9852H11.9621C11.2441 31.9852 10.6621 31.4032 10.6621 30.6852V14.0988C10.6621 13.3809 11.2441 12.7988 11.9621 12.7988H14.0421C14.76 12.7988 15.3421 13.3809 15.3421 14.0988V30.6852C15.3421 31.4032 14.7601 31.9852 14.0421 31.9852Z" fill="url(#paint0_linear_2420_15)"/>
<path d="M27.9926 14.079L27.6625 11.5147C27.6258 11.2298 27.827 10.9692 28.1119 10.9325C28.3967 10.8959 28.6573 11.097 28.694 11.3819L29.0241 13.9462C29.0608 14.231 28.8596 14.4917 28.5747 14.5283C28.2899 14.565 28.0293 14.3638 27.9926 14.079Z" fill="url(#paint1_linear_2420_15)"/>
<path d="M28.5478 14.7961L25.9639 14.8865C25.6769 14.8966 25.4361 14.6721 25.4261 14.385C25.416 14.098 25.6405 13.8572 25.9275 13.8472L28.5114 13.7567C28.7984 13.7467 29.0393 13.9712 29.0493 14.2582C29.0593 14.5452 28.8348 14.786 28.5478 14.7961Z" fill="url(#paint2_linear_2420_15)"/>
<path d="M11.5607 8.54073L15.445 8.05263C15.6144 8.03133 15.7864 8.04363 15.9511 8.08883C16.1157 8.13393 16.2699 8.21113 16.4047 8.31583L19.3249 10.584C19.3793 10.6263 19.4483 10.6452 19.5167 10.6367L23.5413 10.131C23.8833 10.088 24.2283 10.1825 24.5006 10.3937L28.5028 13.5023C28.7296 13.6785 28.7707 14.0052 28.5945 14.232C28.4184 14.4588 28.0917 14.4998 27.8649 14.3237L23.863 11.2153C23.8085 11.1731 23.7394 11.1543 23.671 11.1629L19.6464 11.6686C19.3043 11.7115 18.9592 11.6168 18.6869 11.4054L15.7668 9.13723C15.7398 9.11623 15.7089 9.10083 15.676 9.09173C15.643 9.08273 15.6086 9.08023 15.5747 9.08453L11.6904 9.57263C11.4054 9.60843 11.1454 9.40653 11.1096 9.12153C11.0738 8.83663 11.2758 8.57653 11.5607 8.54073Z" fill="url(#paint3_linear_2420_15)"/>
</g>
<defs>
<linearGradient id="paint0_linear_2420_15" x1="19.9961" y1="12.7988" x2="19.9961" y2="31.9852" gradientUnits="userSpaceOnUse">
<stop stop-color="#FE54A7"/>
<stop offset="1" stop-color="#F83D62"/>
</linearGradient>
<linearGradient id="paint1_linear_2420_15" x1="28.3433" y1="10.9282" x2="28.3433" y2="14.5326" gradientUnits="userSpaceOnUse">
<stop stop-color="#FE54A7"/>
<stop offset="1" stop-color="#F83D62"/>
</linearGradient>
<linearGradient id="paint2_linear_2420_15" x1="27.2377" y1="13.7563" x2="27.2377" y2="14.8868" gradientUnits="userSpaceOnUse">
<stop stop-color="#FE54A7"/>
<stop offset="1" stop-color="#F83D62"/>
</linearGradient>
<linearGradient id="paint3_linear_2420_15" x1="19.9047" y1="8.04248" x2="19.9047" y2="14.433" gradientUnits="userSpaceOnUse">
<stop stop-color="#FE54A7"/>
<stop offset="1" stop-color="#F83D62"/>
</linearGradient>
</defs>
</svg>
