<svg width="45" height="45" viewBox="0 0 45 45" fill="none" xmlns="http://www.w3.org/2000/svg">
<path d="M18.072 43C17.7516 43 17.4312 42.9175 17.1909 42.7526C16.7102 42.4227 16.3898 41.8454 16.3898 41.268V23.2887L1.41075 5.80412C1.01024 5.30928 0.85004 4.56701 1.17045 3.98969C1.49086 3.41237 2.05157 3 2.69239 3H42.3429C42.9837 3 43.6245 3.41237 43.8648 3.98969C44.1051 4.64948 44.025 5.30928 43.6245 5.8866L28.0046 24.0309V37.0619C28.0046 37.7217 27.6041 38.299 27.0434 38.6289L18.873 42.7526C18.7128 42.9175 18.3924 43 18.072 43ZM6.37708 6.38144L19.3536 21.4742C19.5939 21.8041 19.7541 22.2165 19.7541 22.6289V38.3814L24.5602 35.9072V23.3711C24.5602 22.9588 24.7204 22.5464 24.9607 22.2165L38.5781 6.38144C38.6582 6.38144 6.37708 6.38144 6.37708 6.38144Z" fill="#6D73FF"/>
</svg>
