<svg width="34" height="34" viewBox="0 0 34 34" fill="none" xmlns="http://www.w3.org/2000/svg">
<path d="M31.96 17.354C31.96 16.249 31.8608 15.1865 31.6767 14.1665H17V20.2015H25.3867C25.0183 22.1423 23.9133 23.7857 22.2558 24.8907V28.8148H27.3133C30.26 26.0948 31.96 22.0998 31.96 17.354Z" fill="#4285F4"/>
<path d="M16.9996 32.5834C21.2071 32.5834 24.7346 31.1951 27.3129 28.8151L22.2554 24.8909C20.8671 25.8259 19.0962 26.3926 16.9996 26.3926C12.9479 26.3926 9.50539 23.6584 8.27289 19.9751H3.08789V23.9984C5.65206 29.0843 10.9079 32.5834 16.9996 32.5834Z" fill="#34A853"/>
<path d="M8.27366 19.9606C7.96199 19.0256 7.77783 18.034 7.77783 16.9998C7.77783 15.9656 7.96199 14.974 8.27366 14.039V10.0156H3.08866C2.02616 12.1123 1.41699 14.4781 1.41699 16.9998C1.41699 19.5215 2.02616 21.8873 3.08866 23.984L7.12616 20.839L8.27366 19.9606Z" fill="#FBBC05"/>
<path d="M16.9996 7.6215C19.2946 7.6215 21.3346 8.41484 22.9637 9.94484L27.4262 5.48234C24.7204 2.96067 21.2071 1.4165 16.9996 1.4165C10.9079 1.4165 5.65206 4.91567 3.08789 10.0157L8.27289 14.039C9.50539 10.3557 12.9479 7.6215 16.9996 7.6215Z" fill="#EA4335"/>
</svg>
