<svg width="38" height="38" viewBox="0 0 38 38" fill="none" xmlns="http://www.w3.org/2000/svg">
<circle cx="19" cy="19" r="19" fill="none"/>
<g clip-path="url(#clip0_2199_11)">
<path d="M20.6937 8C22.9076 8 24.7023 9.79469 24.7023 12.0085H28.7108C29.0798 12.0085 29.3789 12.3077 29.3789 12.6766C29.3789 13.0456 29.0798 13.3447 28.7108 13.3447L26.7065 13.3441V25.3704C26.7065 27.5842 24.9119 29.3789 22.698 29.3789H14.6809C12.467 29.3789 10.6724 27.5842 10.6724 25.3704V13.3447H8.66809C8.29911 13.3447 8 13.0456 8 12.6766C8 12.3077 8.29911 12.0085 8.66809 12.0085H12.6766C12.6766 9.79469 14.4713 8 16.6852 8H20.6937ZM25.3704 13.3447H12.0085V25.3704C12.0085 26.8015 13.1336 27.97 14.5475 28.0395L14.6809 28.0427H22.698C24.1292 28.0427 25.2976 26.9177 25.3671 25.5037L25.3704 25.3704V13.3447ZM16.6852 17.3533C17.0542 17.3533 17.3533 17.6524 17.3533 18.0214V22.698C17.3533 23.067 17.0542 23.3661 16.6852 23.3661C16.3162 23.3661 16.0171 23.067 16.0171 22.698V18.0214C16.0171 17.6524 16.3162 17.3533 16.6852 17.3533ZM20.6937 17.3533C21.0627 17.3533 21.3618 17.6524 21.3618 18.0214V22.698C21.3618 23.067 21.0627 23.3661 20.6937 23.3661C20.3247 23.3661 20.0256 23.067 20.0256 22.698V18.0214C20.0256 17.6524 20.3247 17.3533 20.6937 17.3533ZM20.6937 9.33618H16.6852C15.254 9.33618 14.0856 10.4612 14.0161 11.8752L14.0128 12.0085H18.6895H23.3661C23.3661 10.5774 22.241 9.40895 20.8271 9.33945L20.6937 9.33618Z" fill="black"/>
</g>
<defs>
<clipPath id="clip0_2199_11">
<rect width="38" height="38" fill="white"/>
</clipPath>
</defs>
</svg>
