<svg width="38" height="38" viewBox="0 0 38 38" fill="none" xmlns="http://www.w3.org/2000/svg">
<circle cx="19" cy="19" r="19" fill="none"/>
<g clip-path="url(#clip0_2200_3)">
<path fill-rule="evenodd" clip-rule="evenodd" d="M8 12.3333C8 10.4924 9.47747 9 11.3 9H26.7C28.5226 9 30 10.4924 30 12.3333V14.5556C30 15.1692 29.5075 15.6667 28.9 15.6667V25.6667C28.9 27.5077 27.4226 29 25.6 29H12.4C10.5775 29 9.1 27.5077 9.1 25.6667V15.6667C8.4925 15.6667 8 15.1692 8 14.5556V12.3333ZM11.0486 15.5397V25.6667C11.0486 26.2803 11.5411 27.0317 12.1486 27.0317H25.8514C26.4589 27.0317 26.9514 26.2803 26.9514 25.6667V15.5397H19H11.0486ZM9.94857 13.5714V12.0794C9.94857 11.4657 10.4411 10.9682 11.0486 10.9682L19 10.9365L26.9514 10.9682C27.5589 10.9682 28.0514 11.4657 28.0514 12.0794V13.5714H9.94857ZM14.6 20.1111C14.6 19.4974 15.0925 19.127 15.7 19.127H22.3C22.9075 19.127 23.4 19.4974 23.4 20.1111C23.4 20.7247 22.9075 21.0952 22.3 21.0952H15.7C15.0925 21.0952 14.6 20.7247 14.6 20.1111Z" fill="black"/>
</g>
<defs>
<clipPath id="clip0_2200_3">
<rect width="38" height="38" fill="white"/>
</clipPath>
</defs>
</svg>
