<svg width="40" height="40" viewBox="0 0 40 40" fill="none" xmlns="http://www.w3.org/2000/svg">
<mask id="mask0_2420_6" style="mask-type:luminance" maskUnits="userSpaceOnUse" x="6" y="6" width="28" height="28">
<path d="M33.69 6.30957H6.9043V33.0953H33.69V6.30957Z" fill="white"/>
</mask>
<g mask="url(#mask0_2420_6)">
<path d="M14.1677 31.9841C14.3157 31.9841 14.4355 31.8642 14.4355 31.7163V19.3758C14.4355 19.228 14.3155 19.108 14.1677 19.108H12.0248C11.877 19.108 11.757 19.228 11.757 19.3758V31.7163C11.757 31.8642 11.8769 31.9841 12.0248 31.9841H14.1677ZM14.1677 33.0556H12.0248C11.2851 33.0556 10.6855 32.456 10.6855 31.7163V19.3758C10.6855 18.6363 11.2852 18.0365 12.0248 18.0365H14.1677C14.9073 18.0365 15.507 18.6363 15.507 19.3758V31.7163C15.507 32.456 14.9074 33.0556 14.1677 33.0556ZM21.373 31.9841C21.521 31.9841 21.6409 31.8642 21.6409 31.7163V17.0023C21.6409 16.8544 21.521 16.7345 21.373 16.7345H19.2302C19.195 16.7345 19.1602 16.7414 19.1277 16.7548C19.0952 16.7683 19.0656 16.788 19.0408 16.8129C19.0159 16.8378 18.9962 16.8673 18.9827 16.8998C18.9692 16.9323 18.9623 16.9672 18.9623 17.0023V31.7163C18.9623 31.8642 19.0822 31.9841 19.2302 31.9841H21.373ZM21.373 33.0556H19.2302C18.4905 33.0556 17.8909 32.456 17.8909 31.7163V17.0023C17.8909 16.2626 18.4905 15.663 19.2302 15.663H21.373C22.1127 15.663 22.7123 16.2626 22.7123 17.0023V31.7163C22.7123 32.456 22.1127 33.0556 21.373 33.0556ZM28.5784 32.0088C28.7264 32.0088 28.8463 31.8889 28.8463 31.741V14.6533C28.8463 14.5055 28.7262 14.3854 28.5784 14.3854H26.4355C26.2877 14.3854 26.1677 14.5055 26.1677 14.6533V31.741C26.1677 31.8889 26.2876 32.0088 26.4355 32.0088H28.5784ZM28.5784 33.0802H26.4355C25.6959 33.0802 25.0963 32.4807 25.0963 31.741V14.6533C25.0963 13.9138 25.6959 13.314 26.4355 13.314H28.5784C29.318 13.314 29.9177 13.9138 29.9177 14.6533V31.741C29.9177 32.4807 29.3181 33.0802 28.5784 33.0802ZM25.1324 7.38097L27.8107 7.38497C28.1066 7.38547 28.3468 7.14597 28.3472 6.85007C28.3477 6.55427 28.1082 6.31397 27.8123 6.31357L25.134 6.30957C24.8381 6.30907 24.5979 6.54857 24.5975 6.84447C24.597 7.14027 24.8365 7.38057 25.1324 7.38097Z" fill="url(#paint0_linear_2420_6)"/>
<path d="M27.2756 6.84758L27.2676 9.51118C27.2667 9.80698 27.5058 10.0476 27.8017 10.0485C28.0975 10.0494 28.3381 9.81028 28.339 9.51438L28.347 6.85078C28.3479 6.55488 28.1088 6.31438 27.8129 6.31348C27.5171 6.31258 27.2765 6.55168 27.2756 6.84758Z" fill="url(#paint1_linear_2420_6)"/>
<path d="M11.19 14.6194H15.2232C15.3991 14.6194 15.5733 14.5848 15.7358 14.5175C15.8983 14.4501 16.046 14.3515 16.1704 14.2271L18.8639 11.5335C18.9142 11.4833 18.9822 11.4551 19.0532 11.455H23.2321C23.5871 11.455 23.9277 11.3141 24.1789 11.0632L27.8706 7.37163C28.0798 7.16233 28.0798 6.82323 27.8706 6.61393C27.6614 6.40473 27.3222 6.40473 27.113 6.61393L23.4217 10.3053C23.3713 10.3554 23.3031 10.3836 23.2321 10.3835H19.0532C18.6981 10.3836 18.3575 10.5248 18.1063 10.7759L15.4127 13.4694C15.3878 13.4943 15.3583 13.5141 15.3258 13.5276C15.2932 13.5411 15.2584 13.548 15.2231 13.548H11.19C10.8941 13.548 10.6543 13.7878 10.6543 14.0837C10.6543 14.3796 10.8942 14.6194 11.19 14.6194Z" fill="url(#paint2_linear_2420_6)"/>
</g>
<defs>
<linearGradient id="paint0_linear_2420_6" x1="10.7543" y1="6.49989" x2="36.4498" y2="26.3529" gradientUnits="userSpaceOnUse">
<stop stop-color="#ADED5C"/>
<stop offset="1" stop-color="#7AC619"/>
</linearGradient>
<linearGradient id="paint1_linear_2420_6" x1="27.2714" y1="6.34003" x2="29.3716" y2="6.99278" gradientUnits="userSpaceOnUse">
<stop stop-color="#ADED5C"/>
<stop offset="1" stop-color="#7AC619"/>
</linearGradient>
<linearGradient id="paint2_linear_2420_6" x1="10.7164" y1="6.51506" x2="16.6569" y2="20.1134" gradientUnits="userSpaceOnUse">
<stop stop-color="#ADED5C"/>
<stop offset="1" stop-color="#7AC619"/>
</linearGradient>
</defs>
</svg>
