<svg width="38" height="38" viewBox="0 0 38 38" fill="none" xmlns="http://www.w3.org/2000/svg">
<circle cx="19" cy="19" r="19" fill="none"/>
<g clip-path="url(#clip0_2020_2)">
<path d="M18.9996 25.9C17.635 25.9 16.3009 25.4954 15.1662 24.7372C14.0315 23.979 13.1471 22.9014 12.6248 21.6405C12.1026 20.3798 11.966 18.9924 12.2322 17.6539C12.4984 16.3155 13.1556 15.086 14.1206 14.1211C15.0856 13.1561 16.315 12.4989 17.6534 12.2327C18.9919 11.9664 20.3794 12.1031 21.6401 12.6253C22.9009 13.1476 23.9785 14.032 24.7368 15.1667C25.495 16.3014 25.8996 17.6354 25.8996 19.0001C25.8965 20.8291 25.1684 22.5823 23.8751 23.8755C22.5818 25.1689 20.8286 25.8969 18.9996 25.9ZM18.9996 13.9001C17.9909 13.9001 17.0048 14.1992 16.1662 14.7596C15.3275 15.32 14.6738 16.1165 14.2878 17.0484C13.9018 17.9803 13.8008 19.0057 13.9976 19.995C14.1944 20.9844 14.6801 21.893 15.3934 22.6063C16.1066 23.3196 17.0153 23.8053 18.0047 24.002C18.994 24.1988 20.0194 24.0979 20.9513 23.7119C21.8832 23.3258 22.6798 22.6722 23.24 21.8335C23.8004 20.9948 24.0996 20.0088 24.0996 19.0001C24.0965 17.6484 23.558 16.3531 22.6024 15.3973C21.6466 14.4416 20.3513 13.9033 18.9996 13.9001Z" fill="#fff"/>
<path d="M18.9996 10.6C18.7619 10.5969 18.5347 10.5011 18.3666 10.333C18.1985 10.1648 18.1027 9.93772 18.0996 9.69999V7.9C18.0996 7.66131 18.1944 7.43238 18.3632 7.2636C18.532 7.09482 18.7609 7 18.9996 7C19.2383 7 19.4672 7.09482 19.636 7.2636C19.8048 7.43238 19.8996 7.66131 19.8996 7.9V9.69999C19.8965 9.93772 19.8007 10.1648 19.6326 10.333C19.4645 10.5011 19.2373 10.5969 18.9996 10.6Z" fill="#fff"/>
<path d="M18.9996 30.9999C18.7619 30.9968 18.5347 30.901 18.3666 30.7329C18.1985 30.5648 18.1027 30.3376 18.0996 30.0999V28.2999C18.0996 28.0612 18.1944 27.8323 18.3632 27.6635C18.532 27.4947 18.7609 27.3999 18.9996 27.3999C19.2383 27.3999 19.4672 27.4947 19.636 27.6635C19.8048 27.8323 19.8996 28.0612 19.8996 28.2999V30.0999C19.8965 30.3376 19.8007 30.5648 19.6326 30.7329C19.4645 30.901 19.2373 30.9968 18.9996 30.9999Z" fill="#fff"/>
<path d="M30.1004 19.9001H28.3004C28.0617 19.9001 27.8328 19.8053 27.664 19.6365C27.4952 19.4677 27.4004 19.2388 27.4004 19.0001C27.4004 18.7614 27.4952 18.5325 27.664 18.3637C27.8328 18.1949 28.0617 18.1001 28.3004 18.1001H30.1004C30.3391 18.1001 30.568 18.1949 30.7368 18.3637C30.9056 18.5325 31.0004 18.7614 31.0004 19.0001C31.0004 19.2388 30.9056 19.4677 30.7368 19.6365C30.568 19.8053 30.3391 19.9001 30.1004 19.9001Z" fill="#fff"/>
<path d="M9.7 19.9001H7.9C7.66131 19.9001 7.43238 19.8053 7.2636 19.6365C7.09482 19.4677 7 19.2388 7 19.0001C7 18.7614 7.09482 18.5325 7.2636 18.3637C7.43238 18.1949 7.66131 18.1001 7.9 18.1001H9.7C9.93869 18.1001 10.1676 18.1949 10.3364 18.3637C10.5052 18.5325 10.6 18.7614 10.6 19.0001C10.6 19.2388 10.5052 19.4677 10.3364 19.6365C10.1676 19.8053 9.93869 19.9001 9.7 19.9001Z" fill="#fff"/>
<path d="M12.4006 13.3001C12.169 13.2824 11.9537 13.1747 11.8006 13.0001L10.4926 11.8001C10.4067 11.7142 10.3386 11.6122 10.2921 11.5C10.2456 11.3878 10.2217 11.2676 10.2217 11.1461C10.2217 11.0246 10.2456 10.9044 10.2921 10.7921C10.3386 10.6799 10.4067 10.578 10.4926 10.4921C10.5785 10.4062 10.6804 10.3381 10.7926 10.2916C10.9048 10.2451 11.0251 10.2212 11.1466 10.2212C11.268 10.2212 11.3883 10.2451 11.5005 10.2916C11.6127 10.3381 11.7147 10.4062 11.8006 10.4921L13.0006 11.8001C13.1482 11.9651 13.2297 12.1787 13.2297 12.4001C13.2297 12.6215 13.1482 12.8351 13.0006 13.0001C12.8475 13.1747 12.6321 13.2824 12.4006 13.3001Z" fill="#fff"/>
<path d="M26.8729 27.772C26.7547 27.7725 26.6375 27.7494 26.5283 27.7041C26.4191 27.6588 26.3201 27.5921 26.2369 27.508L25.0009 26.2C24.9208 26.032 24.8946 25.8434 24.926 25.6599C24.9575 25.4765 25.0451 25.3073 25.1767 25.1757C25.3082 25.0442 25.4774 24.9566 25.6609 24.9251C25.8443 24.8936 26.033 24.9197 26.2009 25L27.5089 26.2C27.6775 26.3687 27.7722 26.5974 27.7722 26.836C27.7722 27.0744 27.6775 27.3033 27.5089 27.472C27.4289 27.5626 27.3312 27.636 27.2219 27.6876C27.1126 27.7392 26.9938 27.7679 26.8729 27.772Z" fill="#fff"/>
<path d="M25.6007 13.3001C25.3692 13.2824 25.1538 13.1747 25.0007 13.0001C24.8531 12.8351 24.7715 12.6215 24.7715 12.4001C24.7715 12.1787 24.8531 11.9651 25.0007 11.8001L26.2007 10.4921C26.3741 10.3186 26.6094 10.2212 26.8547 10.2212C27.1 10.2212 27.3353 10.3186 27.5087 10.4921C27.6821 10.6655 27.7796 10.9008 27.7796 11.1461C27.7796 11.3914 27.6821 11.6266 27.5087 11.8001L26.2007 13.0001C26.0476 13.1747 25.8322 13.2824 25.6007 13.3001Z" fill="#fff"/>
<path d="M11.1277 27.772C11.0095 27.7725 10.8923 27.7494 10.7831 27.7041C10.6739 27.6588 10.5748 27.5921 10.4917 27.508C10.3232 27.3393 10.2285 27.1104 10.2285 26.872C10.2285 26.6334 10.3232 26.4047 10.4917 26.236L11.7997 25C11.9677 24.9197 12.1564 24.8936 12.3398 24.9251C12.5232 24.9566 12.6924 25.0442 12.824 25.1757C12.9556 25.3073 13.0432 25.4765 13.0746 25.6599C13.1061 25.8434 13.0799 26.032 12.9997 26.2L11.7997 27.508C11.7124 27.5966 11.6075 27.6659 11.4918 27.7114C11.376 27.7569 11.252 27.7775 11.1277 27.772Z" fill="#fff"/>
</g>
<defs>
<clipPath id="clip0_2020_2">
<rect width="38" height="38" fill="white"/>
</clipPath>
</defs>
</svg>
