<svg width="45" height="45" viewBox="0 0 45 45" fill="none" xmlns="http://www.w3.org/2000/svg">
<path d="M43.2023 16.0118C43.8148 16.4011 44.2623 16.1298 44.2035 15.3984L43.1669 4.06217C43.164 3.90329 43.1215 3.74766 43.0433 3.60936C42.9651 3.47106 42.8538 3.35447 42.7193 3.27015C42.5848 3.18582 42.4314 3.13641 42.2731 3.12641C42.1147 3.1164 41.9564 3.14611 41.8123 3.21284L31.2114 7.19999C30.5282 7.45951 30.4811 7.97854 31.0936 8.37962L33.0724 9.55925C33.2188 9.65148 33.3451 9.7721 33.4442 9.914C33.5432 10.0559 33.6129 10.2162 33.6491 10.3855C33.6854 10.5548 33.6874 10.7296 33.6551 10.8997C33.6228 11.0698 33.5569 11.2317 33.4611 11.3759L25.3691 23.6676C25.1504 23.968 24.8417 24.1906 24.4878 24.3031C24.134 24.4155 23.7536 24.4119 23.402 24.2928L10.8929 19.5743C10.5307 19.4573 10.1425 19.4474 9.77479 19.5457C9.4071 19.644 9.07553 19.8465 8.8198 20.1287L0.96331 29.6483C0.455044 30.3341 0.160044 31.1548 0.115234 32.0076V39.7814C0.115234 40.5127 0.492157 40.6543 0.96331 40.0999L11.0813 28.3036C11.3442 28.0246 11.6811 27.8265 12.0525 27.7324C12.4238 27.6384 12.8143 27.6524 13.178 27.7727L25.7931 32.5148C26.1447 32.6339 26.5252 32.6375 26.879 32.5251C27.2328 32.4126 27.5415 32.19 27.7602 31.8896L38.9854 14.9266C39.1843 14.636 39.4867 14.4325 39.8305 14.358C40.1743 14.2834 40.5336 14.3433 40.8347 14.5255L43.2023 16.0118Z" fill="url(#paint0_linear_1802_9)"/>
<defs>
<linearGradient id="paint0_linear_1802_9" x1="-1.85231" y1="1.36899" x2="42.3784" y2="47.3869" gradientUnits="userSpaceOnUse">
<stop stop-color="#C387FF"/>
<stop offset="1" stop-color="#6D73FF"/>
</linearGradient>
</defs>
</svg>
