<svg width="39" height="39" viewBox="0 0 39 39" fill="none" xmlns="http://www.w3.org/2000/svg">
<path d="M3.25 9.75C3.25 8.88805 3.59241 8.0614 4.2019 7.4519C4.8114 6.84241 5.63805 6.5 6.5 6.5H21.125C21.987 6.5 22.8136 6.84241 23.4231 7.4519C24.0326 8.0614 24.375 8.88805 24.375 9.75V13C24.375 13.431 24.2038 13.8443 23.899 14.149C23.5943 14.4538 23.181 14.625 22.75 14.625C22.319 14.625 21.9057 14.4538 21.601 14.149C21.2962 13.8443 21.125 13.431 21.125 13V9.75H6.5V29.25H21.125V26C21.125 25.569 21.2962 25.1557 21.601 24.851C21.9057 24.5462 22.319 24.375 22.75 24.375C23.181 24.375 23.5943 24.5462 23.899 24.851C24.2038 25.1557 24.375 25.569 24.375 26V29.25C24.375 30.112 24.0326 30.9386 23.4231 31.5481C22.8136 32.1576 21.987 32.5 21.125 32.5H6.5C5.63805 32.5 4.8114 32.1576 4.2019 31.5481C3.59241 30.9386 3.25 30.112 3.25 29.25V9.75ZM28.1011 13.4761C28.4059 13.1715 28.8191 13.0003 29.25 13.0003C29.6809 13.0003 30.0941 13.1715 30.3989 13.4761L35.2739 18.3511C35.5785 18.6559 35.7497 19.0691 35.7497 19.5C35.7497 19.9309 35.5785 20.3441 35.2739 20.6489L30.3989 25.5239C30.0924 25.8199 29.6819 25.9837 29.2558 25.98C28.8298 25.9763 28.4222 25.8054 28.1209 25.5041C27.8196 25.2028 27.6487 24.7952 27.645 24.3692C27.6413 23.9431 27.8051 23.5326 28.1011 23.2261L30.2023 21.125H14.625C14.194 21.125 13.7807 20.9538 13.476 20.649C13.1712 20.3443 13 19.931 13 19.5C13 19.069 13.1712 18.6557 13.476 18.351C13.7807 18.0462 14.194 17.875 14.625 17.875H30.2023L28.1011 15.7739C27.7965 15.4691 27.6253 15.0559 27.6253 14.625C27.6253 14.1941 27.7965 13.7809 28.1011 13.4761Z" fill="#ADADAD"/>
</svg>
