<svg width="30" height="30" viewBox="0 0 30 30" fill="none" xmlns="http://www.w3.org/2000/svg">
<path d="M15 22.5C16.6569 22.5 18 23.8431 18 25.5C18 27.1569 16.6569 28.5 15 28.5C13.3431 28.5 12 27.1569 12 25.5C12 23.8431 13.3431 22.5 15 22.5Z" fill="#2A2A2A"/>
<path d="M15 12C16.6569 12 18 13.3431 18 15C18 16.6569 16.6569 18 15 18C13.3431 18 12 16.6569 12 15C12 13.3431 13.3431 12 15 12Z" fill="#2A2A2A"/>
<path d="M15 1.5C16.6569 1.5 18 2.8431 18 4.5C18 6.1569 16.6569 7.5 15 7.5C13.3431 7.5 12 6.1569 12 4.5C12 2.8431 13.3431 1.5 15 1.5Z" fill="#2A2A2A"/>
</svg>
