<svg width="100" height="100" viewBox="0 0 100 100" fill="none" xmlns="http://www.w3.org/2000/svg">
<g clip-path="url(#clip0_2230_5)">
<circle cx="50" cy="50" r="50" fill="#D9D9D9"/>
<path d="M57.2188 32H41.8438C40.8247 32.0012 39.8477 32.4065 39.1271 33.1271C38.4065 33.8477 38.0012 34.8247 38 35.8438V64.0312C38.0012 65.0503 38.4065 66.0273 39.1271 66.7479C39.8477 67.4685 40.8247 67.8738 41.8438 67.875H57.2188C58.2378 67.8738 59.2148 67.4685 59.9354 66.7479C60.656 66.0273 61.0613 65.0503 61.0625 64.0312V35.8438C61.0613 34.8247 60.656 33.8477 59.9354 33.1271C59.2148 32.4065 58.2378 32.0012 57.2188 32ZM41.8438 34.5625H57.2188C57.5584 34.5629 57.8841 34.698 58.1243 34.9382C58.3645 35.1784 58.4996 35.5041 58.5 35.8438V37.125H40.5625V35.8438C40.5629 35.5041 40.698 35.1784 40.9382 34.9382C41.1784 34.698 41.5041 34.5629 41.8438 34.5625ZM57.2188 65.3125H41.8438C41.5041 65.3121 41.1784 65.177 40.9382 64.9368C40.698 64.6966 40.5629 64.3709 40.5625 64.0312V62.75H58.5V64.0312C58.4996 64.3709 58.3645 64.6966 58.1243 64.9368C57.8841 65.177 57.5584 65.3121 57.2188 65.3125Z" fill="#5F5C5C"/>
</g>
<defs>
<clipPath id="clip0_2230_5">
<rect width="100" height="100" fill="white"/>
</clipPath>
</defs>
</svg>
