<svg width="19" height="19" viewBox="0 0 19 19" fill="none" xmlns="http://www.w3.org/2000/svg">
<g clip-path="url(#clip0_2040_474)">
<path d="M11.4517 18.4128C11.5934 18.4128 11.7351 18.3762 11.8413 18.3028C12.0538 18.1561 12.1955 17.8993 12.1955 17.6426V9.64657L18.8193 1.87062C18.9964 1.65055 19.0673 1.32044 18.9256 1.06368C18.7839 0.80693 18.536 0.623535 18.2526 0.623535H0.718987C0.435614 0.623535 0.152243 0.80693 0.0459785 1.06368C-0.0602856 1.35712 -0.0248642 1.65055 0.152243 1.9073L7.05942 9.97668V15.772C7.05942 16.0654 7.23653 16.3221 7.48448 16.4689L11.0975 18.3028C11.1683 18.3762 11.31 18.4128 11.4517 18.4128ZM16.6232 2.12737L10.8849 8.83963C10.7787 8.98635 10.7078 9.16974 10.7078 9.35314V16.3588L8.58255 15.2585V9.68325C8.58255 9.49985 8.5117 9.31646 8.40544 9.16974L2.38379 2.12737C2.34837 2.12737 16.6232 2.12737 16.6232 2.12737Z" fill="#6D73FF"/>
</g>
<defs>
<clipPath id="clip0_2040_474">
<rect width="19" height="19" fill="white" transform="matrix(-1 0 0 1 19 0)"/>
</clipPath>
</defs>
</svg>
