<svg width="55" height="55" viewBox="0 0 55 55" fill="none" xmlns="http://www.w3.org/2000/svg">
<circle cx="27.5" cy="27.5" r="27.5" fill="url(#paint0_linear_2151_106)"/>
<g clip-path="url(#clip0_2151_106)">
<path fill-rule="evenodd" clip-rule="evenodd" d="M33.7587 39.2272C33.7587 39.3852 33.8867 39.5132 34.0447 39.5132H36.3327C36.4907 39.5132 36.6187 39.3852 36.6187 39.2272V26.0509C36.6187 25.8931 36.4906 25.7649 36.3327 25.7649H34.0447C33.8868 25.7649 33.7587 25.8931 33.7587 26.0509V39.2272ZM36.3327 40.6572H34.0447C33.2549 40.6572 32.6147 40.017 32.6147 39.2272V26.0509C32.6147 25.2613 33.255 24.6209 34.0447 24.6209H36.3327C37.1224 24.6209 37.7627 25.2613 37.7627 26.0509V39.2272C37.7627 40.017 37.1225 40.6572 36.3327 40.6572ZM26.0653 39.2272C26.0653 39.3852 26.1933 39.5132 26.3513 39.5132H28.6393C28.7973 39.5132 28.9253 39.3852 28.9253 39.2272V23.5166C28.9253 23.4791 28.9179 23.4419 28.9035 23.4072C28.8892 23.3725 28.8681 23.3409 28.8415 23.3144C28.815 23.2878 28.7835 23.2668 28.7488 23.2524C28.714 23.238 28.6769 23.2306 28.6393 23.2306H26.3513C26.1933 23.2306 26.0653 23.3586 26.0653 23.5166V39.2272ZM28.6393 40.6572H26.3513C25.5615 40.6572 24.9213 40.017 24.9213 39.2272V23.5166C24.9213 22.7268 25.5615 22.0866 26.3513 22.0866H28.6393C29.4291 22.0866 30.0693 22.7268 30.0693 23.5166V39.2272C30.0693 40.017 29.4291 40.6572 28.6393 40.6572ZM18.3719 39.2536C18.3719 39.4116 18.4999 39.5396 18.6579 39.5396H20.9459C21.1039 39.5396 21.2319 39.4116 21.2319 39.2536V21.0085C21.2319 20.8506 21.1038 20.7225 20.9459 20.7225H18.6579C18.5 20.7225 18.3719 20.8506 18.3719 21.0085V39.2536ZM20.9459 40.6836H18.6579C17.8681 40.6836 17.2279 40.0433 17.2279 39.2536V21.0085C17.2279 20.2189 17.8682 19.5785 18.6579 19.5785H20.9459C21.7356 19.5785 22.3759 20.2189 22.3759 21.0085V39.2536C22.3759 40.0433 21.7357 40.6836 20.9459 40.6836Z" fill="white"/>
<path d="M36.2919 20.9868L35.9288 18.1661C35.8885 17.8528 36.1098 17.5661 36.4231 17.5257C36.7364 17.4854 37.0231 17.7067 37.0634 18.02L37.4265 20.8407C37.4669 21.1541 37.2456 21.4408 36.9323 21.4811C36.6189 21.5214 36.3322 21.3001 36.2919 20.9868Z" fill="white"/>
<path d="M36.9024 21.7753L34.0601 21.8748C33.7444 21.8858 33.4795 21.6389 33.4685 21.3231C33.4574 21.0074 33.7044 20.7425 34.0201 20.7315L36.8624 20.632C37.1781 20.6209 37.443 20.8679 37.454 21.1836C37.4651 21.4993 37.2181 21.7642 36.9024 21.7753Z" fill="white"/>
<path d="M18.2163 14.8947L22.489 14.3578C22.6753 14.3344 22.8645 14.3479 23.0456 14.3976C23.2268 14.4472 23.3964 14.5321 23.5447 14.6473L26.7568 17.1423C26.8167 17.1888 26.8926 17.2097 26.9678 17.2003L31.3949 16.644C31.771 16.5968 32.1506 16.7007 32.4502 16.933L36.8526 20.3525C37.1021 20.5463 37.1472 20.9056 36.9534 21.1551C36.7597 21.4046 36.4003 21.4497 36.1508 21.2559L31.7488 17.8368C31.6888 17.7903 31.6128 17.7696 31.5375 17.7791L27.1105 18.3354C26.7342 18.3826 26.3546 18.2784 26.0551 18.0458L22.8429 15.5509C22.8132 15.5278 22.7793 15.5108 22.743 15.5008C22.7068 15.4909 22.6689 15.4882 22.6316 15.4929L18.3589 16.0298C18.0454 16.0692 17.7594 15.847 17.72 15.5336C17.6806 15.2201 17.9028 14.9341 18.2163 14.8947Z" fill="white"/>
</g>
<defs>
<linearGradient id="paint0_linear_2151_106" x1="0" y1="0" x2="55" y2="55" gradientUnits="userSpaceOnUse">
<stop stop-color="#53FFFF"/>
<stop offset="1" stop-color="#419FFF"/>
</linearGradient>
<clipPath id="clip0_2151_106">
<rect width="28.6" height="28.6" fill="white" transform="matrix(-1 0 0 1 41.7998 12.0996)"/>
</clipPath>
</defs>
</svg>
