<svg width="45" height="45" viewBox="0 0 45 45" fill="none" xmlns="http://www.w3.org/2000/svg">
<mask id="mask0_2422_2" style="mask-type:luminance" maskUnits="userSpaceOnUse" x="8" y="7" width="29" height="29">
<path d="M8.19883 7.09961H36.7988V35.6996H8.19883V7.09961Z" fill="white"/>
</mask>
<g mask="url(#mask0_2422_2)">
<path fill-rule="evenodd" clip-rule="evenodd" d="M28.7574 34.2273C28.7574 34.3853 28.8854 34.5133 29.0434 34.5133H31.3314C31.4894 34.5133 31.6174 34.3853 31.6174 34.2273V21.051C31.6174 20.8932 31.4893 20.765 31.3314 20.765H29.0434C28.8855 20.765 28.7574 20.8932 28.7574 21.051V34.2273ZM31.3314 35.6573H29.0434C28.2536 35.6573 27.6134 35.0171 27.6134 34.2273V21.051C27.6134 20.2614 28.2537 19.621 29.0434 19.621H31.3314C32.1211 19.621 32.7614 20.2614 32.7614 21.051V34.2273C32.7614 35.0171 32.1212 35.6573 31.3314 35.6573ZM21.064 34.2273C21.064 34.3853 21.192 34.5133 21.35 34.5133H23.638C23.796 34.5133 23.924 34.3853 23.924 34.2273V18.5167C23.924 18.4792 23.9166 18.442 23.9022 18.4073C23.8879 18.3726 23.8668 18.341 23.8402 18.3145C23.8137 18.2879 23.7822 18.2669 23.7475 18.2525C23.7127 18.2381 23.6756 18.2307 23.638 18.2307H21.35C21.192 18.2307 21.064 18.3587 21.064 18.5167V34.2273ZM23.638 35.6573H21.35C20.5602 35.6573 19.92 35.0171 19.92 34.2273V18.5167C19.92 17.7269 20.5602 17.0867 21.35 17.0867H23.638C24.4278 17.0867 25.068 17.7269 25.068 18.5167V34.2273C25.068 35.0171 24.4278 35.6573 23.638 35.6573ZM13.3706 34.2537C13.3706 34.4117 13.4986 34.5397 13.6566 34.5397H15.9446C16.1026 34.5397 16.2306 34.4117 16.2306 34.2537V16.0086C16.2306 15.8507 16.1025 15.7226 15.9446 15.7226H13.6566C13.4987 15.7226 13.3706 15.8507 13.3706 16.0086V34.2537ZM15.9446 35.6837H13.6566C12.8668 35.6837 12.2266 35.0434 12.2266 34.2537V16.0086C12.2266 15.219 12.8669 14.5786 13.6566 14.5786H15.9446C16.7343 14.5786 17.3746 15.219 17.3746 16.0086V34.2537C17.3746 35.0434 16.7344 35.6837 15.9446 35.6837Z" fill="url(#paint0_linear_2422_2)"/>
<path d="M31.2897 15.9868L30.9266 13.1661C30.8863 12.8528 31.1076 12.5661 31.4209 12.5257C31.7342 12.4854 32.0209 12.7067 32.0612 13.02L32.4243 15.8407C32.4647 16.1541 32.2434 16.4408 31.9301 16.4811C31.6167 16.5214 31.33 16.3001 31.2897 15.9868Z" fill="url(#paint1_linear_2422_2)"/>
<path d="M31.9011 16.7755L29.0588 16.875C28.7431 16.886 28.4782 16.6391 28.4672 16.3233C28.4561 16.0076 28.7031 15.7427 29.0188 15.7317L31.8611 15.6322C32.1768 15.6211 32.4417 15.8681 32.4527 16.1838C32.4638 16.4995 32.2168 16.7644 31.9011 16.7755Z" fill="url(#paint2_linear_2422_2)"/>
<path d="M13.2157 9.89473L17.4884 9.35783C17.6747 9.33443 17.8639 9.34793 18.045 9.39763C18.2262 9.44723 18.3958 9.53213 18.5441 9.64733L21.7562 12.1423C21.8161 12.1888 21.892 12.2097 21.9672 12.2003L26.3943 11.644C26.7704 11.5968 27.15 11.7007 27.4496 11.933L31.852 15.3525C32.1015 15.5463 32.1466 15.9056 31.9528 16.1551C31.7591 16.4046 31.3997 16.4497 31.1502 16.2559L26.7482 12.8368C26.6882 12.7903 26.6122 12.7696 26.5369 12.7791L22.1099 13.3354C21.7336 13.3826 21.354 13.2784 21.0545 13.0458L17.8423 10.5509C17.8126 10.5278 17.7787 10.5108 17.7424 10.5008C17.7062 10.4909 17.6683 10.4882 17.631 10.4929L13.3583 11.0298C13.0448 11.0692 12.7588 10.847 12.7194 10.5336C12.68 10.2201 12.9022 9.93413 13.2157 9.89473Z" fill="url(#paint3_linear_2422_2)"/>
</g>
<defs>
<linearGradient id="paint0_linear_2422_2" x1="7.77552" y1="15.243" x2="32.8252" y2="38.5405" gradientUnits="userSpaceOnUse">
<stop stop-color="#53FFFF"/>
<stop offset="1" stop-color="#419FFF"/>
</linearGradient>
<linearGradient id="paint1_linear_2422_2" x1="30.5952" y1="12.6458" x2="33.6242" y2="13.7465" gradientUnits="userSpaceOnUse">
<stop stop-color="#53FFFF"/>
<stop offset="1" stop-color="#419FFF"/>
</linearGradient>
<linearGradient id="paint2_linear_2422_2" x1="27.6028" y1="15.671" x2="28.4757" y2="18.3457" gradientUnits="userSpaceOnUse">
<stop stop-color="#53FFFF"/>
<stop offset="1" stop-color="#419FFF"/>
</linearGradient>
<linearGradient id="paint3_linear_2422_2" x1="8.51883" y1="9.56799" x2="14.0731" y2="24.1887" gradientUnits="userSpaceOnUse">
<stop stop-color="#53FFFF"/>
<stop offset="1" stop-color="#419FFF"/>
</linearGradient>
</defs>
</svg>
