<svg width="50" height="50" viewBox="0 0 50 50" fill="none" xmlns="http://www.w3.org/2000/svg">
<circle cx="25" cy="25" r="25" fill="url(#transfer_active)"/>
<g clip-path="url(#clip0_2153_9)">
<path d="M19.1715 12.7641C20.0865 11.8491 20.878 12.4347 20.9996 13.6755L20.9996 24.5L20.9996 35.3357C20.9996 36.0953 20.7593 37 19.9996 37C19.2942 37 19.0921 36.3537 19.0127 35.6697L19.0034 35.5093V16L15.4996 19.5C14.9625 20.0371 14.3274 20.2921 13.7903 19.7549C13.2944 19.2591 13.3705 18.7003 13.79 18.1607L13.9044 18.0312L19.1715 12.7641ZM29 12C29.7054 12 29.9184 12.6575 29.9978 13.3415L30.0071 13.5019V33L33.4999 29.5C34.037 28.9629 34.6833 28.9629 35.2205 29.5C35.7163 29.9958 35.64 30.3109 35.2205 30.8504L35.106 30.98L29.839 36.247C28.9239 37.1621 28.1215 36.5766 27.9999 35.3357V35V13.6755C27.9999 12.9159 28.2403 12 29 12Z" fill="white"/>
</g>
<defs>
<linearGradient id="transfer_active" x1="0" y1="0" x2="50" y2="50" gradientUnits="userSpaceOnUse">
<stop stop-color="#31FFB5"/>
<stop offset="1" stop-color="#07C8BD"/>
</linearGradient>
<linearGradient id="not_active" x1="0" y1="0" x2="50" y2="50" gradientUnits="userSpaceOnUse">
<stop stop-color="#ADADAD"/>
<stop offset="1" stop-color="#F0F0F0"/>
</linearGradient>
<clipPath id="clip0_2153_9">
<rect width="33.011" height="33.011" fill="white" transform="translate(8 8)"/>
</clipPath>
</defs>
</svg>
