<svg width="68" height="68" viewBox="0 0 68 68" fill="none" xmlns="http://www.w3.org/2000/svg">
<path d="M26.4794 35.243C28.6969 33.4558 31.1687 33.4558 33.3861 35.243C33.4364 35.2881 33.4905 35.3126 33.5455 35.315C33.6004 35.3174 33.6551 35.2977 33.7062 35.2569C33.7573 35.2162 33.804 35.1553 33.8434 35.0778C33.8828 35.0003 33.9141 34.9077 33.9357 34.8054C33.9572 34.7031 33.9684 34.5932 33.9687 34.4821C33.9691 34.3709 33.9584 34.2607 33.9375 34.158C33.9166 34.0551 33.8857 33.9617 33.8468 33.8834C33.8078 33.805 33.7616 33.743 33.7106 33.701C32.5133 32.6972 31.2289 32.1872 29.9328 32.2011C28.6367 32.1872 27.3523 32.6972 26.1549 33.701C26.104 33.743 26.0577 33.805 26.0189 33.8834C25.9799 33.9617 25.9491 34.0551 25.928 34.158C25.9071 34.2607 25.8966 34.3709 25.8968 34.4821C25.8971 34.5932 25.9085 34.7031 25.9299 34.8054C25.9514 34.9077 25.9828 35.0003 26.0222 35.0778C26.0616 35.1553 26.1082 35.2162 26.1594 35.2569C26.2106 35.2977 26.2652 35.3174 26.3201 35.315C26.3751 35.3126 26.4293 35.2881 26.4794 35.243Z" fill="#989393"/>
<path d="M22.8435 30.227C23.7861 30.227 24.5503 29.4605 24.5503 28.5149C24.5503 27.5693 23.7861 26.8027 22.8435 26.8027C21.9009 26.8027 21.1367 27.5693 21.1367 28.5149C21.1367 29.4605 21.9009 30.227 22.8435 30.227Z" fill="#989393"/>
<path d="M37.1249 30.227C38.0675 30.227 38.8316 29.4605 38.8316 28.5149C38.8316 27.5693 38.0675 26.8027 37.1249 26.8027C36.1821 26.8027 35.418 27.5693 35.418 28.5149C35.418 29.4605 36.1821 30.227 37.1249 30.227Z" fill="#989393"/>
<path fill-rule="evenodd" clip-rule="evenodd" d="M30.0853 47.3003C20.1968 47.3003 12.1807 39.399 12.1807 29.6366C12.1807 19.8742 20.1968 11.9571 30.0853 11.9571C39.9738 11.9571 47.9916 19.8742 47.9916 29.6366C47.9916 39.399 39.9738 47.3003 30.0853 47.3003ZM58.7416 56.4476L45.7576 43.6256C49.1565 39.9194 51.2459 35.0303 51.2459 29.6366C51.2459 18.0921 41.7723 8.73975 30.0853 8.73975C18.3983 8.73975 8.9248 18.0921 8.9248 29.6366C8.9248 41.1653 18.3983 50.5177 30.0853 50.5177C35.1349 50.5177 39.7663 48.7671 43.4042 45.8494L56.4401 58.7186C57.0768 59.3494 58.1065 59.3494 58.7416 58.7186C59.3783 58.1035 59.3783 57.0785 58.7416 56.4476Z" fill="#989393"/>
</svg>
