<svg width="24" height="24" viewBox="0 0 24 24" fill="none" xmlns="http://www.w3.org/2000/svg">
<g clip-path="url(#clip0_1903_2)">
<path d="M11.3923 15.2298L13.1614 16.9984C13.3545 17.1794 13.4348 17.2106 13.5841 17.2615C14.1578 17.4551 14.7889 17.1887 14.9929 16.5019L15.6513 13.9835L19.2301 10.4047L21.248 10.139C21.4838 10.1001 21.6259 10.0646 21.8786 9.82834L23.2294 8.47756C23.3798 8.31678 23.3923 8.27795 23.4366 8.18772C23.6401 7.77537 23.6171 7.34498 23.2294 6.93045C21.1496 4.85123 19.136 2.70475 16.9895 0.694433C16.8195 0.55498 16.7801 0.545136 16.6871 0.506308C16.2857 0.340058 15.892 0.371777 15.4949 0.743652L14.1441 2.09443C13.979 2.27107 13.8866 2.38811 13.8324 2.73428L13.5825 4.76482L10.0109 8.33647L7.47883 8.9774C6.97352 9.12342 6.95273 9.26178 6.84336 9.42201C6.55461 9.84639 6.55352 10.3621 6.97406 10.8111L8.7432 12.5802L1.56055 22.4125L11.3923 15.2298ZM9.9168 13.7544L10.2181 14.0557L9.10031 14.8722L9.9168 13.7544ZM16.2688 3.0635L20.909 7.70428L20.594 8.01873C19.9213 8.10732 19.2492 8.19592 18.5766 8.28451C18.1943 8.34795 18.1112 8.44092 17.946 8.59568L13.8953 12.6464C13.7668 12.7837 13.6946 12.8591 13.6104 13.143L13.3594 14.1027L9.8818 10.6257L10.8399 10.3829C11.0253 10.3298 11.1325 10.2959 11.3447 10.0963L15.3954 6.04506C15.665 5.75686 15.6727 5.63107 15.7077 5.40521L15.9576 3.37467L16.2688 3.0635Z" fill="#989393"/>
</g>
<defs>
<clipPath id="clip0_1903_2">
<rect width="24" height="24" fill="white"/>
</clipPath>
</defs>
</svg>
