<svg width="337" height="196" viewBox="0 0 337 196" fill="none" xmlns="http://www.w3.org/2000/svg">
<rect x="1.42285" y="0.5" width="334.607" height="195" rx="4.5" stroke="#0ABB71" stroke-dasharray="30 30"/>
<g clip-path="url(#clip0_1587_8)">
<path d="M182.493 96.4554L170.369 96.6847L170.121 85.6197C170.104 84.8862 169.493 84.3473 168.693 84.3624C167.894 84.3775 167.307 84.9391 167.323 85.6727L167.573 96.7987L155.516 97.0267C154.716 96.9807 154.128 97.5423 154.145 98.2758C154.161 99.0094 154.773 99.5483 155.573 99.5332L167.696 99.3039L167.946 110.43C167.962 111.164 168.574 111.702 169.373 111.687C170.173 111.672 170.76 111.111 170.743 110.377L170.492 99.1899L182.616 98.9606C183.415 98.9455 184.002 98.3839 183.986 97.6504C183.969 96.9168 183.225 96.4416 182.493 96.4554Z" fill="#0ABB71"/>
</g>
<defs>
<clipPath id="clip0_1587_8">
<rect width="30.7348" height="27.9608" fill="white" transform="matrix(1 0 0.044881 0.998992 153 84)"/>
</clipPath>
</defs>
</svg>
