<svg width="25" height="25" viewBox="0 0 25 25" fill="none" xmlns="http://www.w3.org/2000/svg">
<path fill-rule="evenodd" clip-rule="evenodd" d="M7.91471 4.6736C8.19264 3.30915 9.40684 2.34375 10.7979 2.34375H14.2014C15.5925 2.34375 16.8067 3.30915 17.0847 4.6736C17.1488 4.98858 17.4342 5.21965 17.7309 5.21965H17.748L17.7651 5.22039C19.227 5.28431 20.3499 5.46372 21.2874 6.07873C21.878 6.46622 22.386 6.96476 22.782 7.5465C23.2746 8.27028 23.4918 9.10098 23.5959 10.1057C23.6976 11.0873 23.6976 12.3177 23.6976 13.8761V13.9648C23.6976 15.5232 23.6976 16.7536 23.5959 17.7352C23.4918 18.7399 23.2746 19.5706 22.782 20.2944C22.386 20.8761 21.878 21.3747 21.2874 21.7622C20.5546 22.2429 19.7145 22.4549 18.6955 22.5567C17.6979 22.6562 16.4465 22.6562 14.8574 22.6562H10.1419C8.55278 22.6562 7.30141 22.6562 6.3038 22.5567C5.28487 22.4549 4.44479 22.2429 3.71202 21.7622C3.12136 21.3747 2.61327 20.8761 2.21737 20.2944C1.7248 19.5706 1.50755 18.7399 1.40345 17.7352C1.30174 16.7536 1.30175 15.5232 1.30176 13.9648V13.8761C1.30175 12.3177 1.30174 11.0873 1.40345 10.1057C1.50755 9.10098 1.7248 8.27028 2.21737 7.5465C2.61327 6.96476 3.12136 6.46622 3.71202 6.07873C4.6495 5.46372 5.77238 5.28431 7.23429 5.22039L7.25135 5.21965H7.26842C7.56517 5.21965 7.85054 4.98859 7.91471 4.6736ZM10.7979 3.90625C10.1301 3.90625 9.5716 4.3677 9.44576 4.98549C9.24195 5.98603 8.35488 6.77277 7.28752 6.78206C5.88272 6.84447 5.13026 7.01704 4.56909 7.38519C4.14873 7.66096 3.78876 8.01469 3.50911 8.42559C3.22146 8.84828 3.04859 9.3888 2.95762 10.2667C2.86524 11.1584 2.86426 12.3079 2.86426 13.9204C2.86426 15.533 2.86524 16.6825 2.95762 17.5742C3.04859 18.4521 3.22146 18.9926 3.50911 19.4153C3.78876 19.8263 4.14873 20.18 4.56909 20.4557C5.00402 20.741 5.56055 20.9121 6.45909 21.0019C7.36998 21.0928 8.54335 21.0938 10.1849 21.0938H14.8145C16.456 21.0938 17.6294 21.0928 18.5403 21.0019C19.4388 20.9121 19.9953 20.741 20.4303 20.4557C20.8506 20.18 21.2106 19.8263 21.4902 19.4153C21.7779 18.9926 21.9507 18.4521 22.0418 17.5742C22.1342 16.6825 22.1351 15.533 22.1351 13.9204C22.1351 12.3079 22.1342 11.1584 22.0418 10.2667C21.9507 9.3888 21.7779 8.84828 21.4902 8.42559C21.2106 8.01469 20.8506 7.66096 20.4303 7.38519C19.869 7.01704 19.1167 6.84447 17.7119 6.78206C16.6445 6.77277 15.7574 5.98603 15.5536 4.98549C15.4277 4.3677 14.8693 3.90625 14.2014 3.90625H10.7979ZM12.4997 11.1979C11.2053 11.1979 10.1559 12.2473 10.1559 13.5417C10.1559 14.836 11.2053 15.8854 12.4997 15.8854C13.794 15.8854 14.8434 14.836 14.8434 13.5417C14.8434 12.2473 13.794 11.1979 12.4997 11.1979ZM8.59342 13.5417C8.59342 11.3843 10.3423 9.63542 12.4997 9.63542C14.6571 9.63542 16.4059 11.3843 16.4059 13.5417C16.4059 15.6991 14.6571 17.4479 12.4997 17.4479C10.3423 17.4479 8.59342 15.6991 8.59342 13.5417Z" fill="#6D73FF"/>
</svg>
