<svg width="56" height="56" viewBox="0 0 56 56" fill="none" xmlns="http://www.w3.org/2000/svg">
<g clip-path="url(#clip0_1802_35)">
<path fill-rule="evenodd" clip-rule="evenodd" d="M28 7.2485V28H48.7515C49.2504 31.4769 48.9964 35.0204 48.0068 38.3906C47.0171 41.7608 45.3148 44.879 43.0152 47.534C40.7155 50.1891 37.8723 52.3191 34.6779 53.7797C31.4835 55.2403 28.0125 55.9975 24.5 56C10.969 56 0 45.003 0 31.5C0.00249414 27.9875 0.759689 24.5165 2.22032 21.3221C3.68094 18.1277 5.8109 15.2845 8.46597 12.9848C11.121 10.6852 14.2392 8.98293 17.6094 7.99324C20.9796 7.00356 24.5231 6.74958 28 7.2485ZM21 14.3535C17.0496 15.1639 13.4997 17.3122 10.9493 20.4358C8.3988 23.5595 7.00393 27.4674 7 31.5C7 41.146 14.8365 49 24.5 49C28.5332 48.9969 32.4419 47.6024 35.5663 45.0518C38.6907 42.5013 40.8395 38.951 41.65 35H21V14.3535ZM31.5 0C45.031 0 56 10.997 56 24.5H31.5V0Z" fill="url(#paint0_linear_1802_35)"/>
</g>
<defs>
<linearGradient id="paint0_linear_1802_35" x1="0" y1="0" x2="56" y2="56" gradientUnits="userSpaceOnUse">
<stop stop-color="#C989FF"/>
<stop offset="1" stop-color="#6D73FF"/>
</linearGradient>
<clipPath id="clip0_1802_35">
<rect width="56" height="56" fill="white"/>
</clipPath>
</defs>
</svg>
