<svg width="45" height="45" viewBox="0 0 45 45" fill="none" xmlns="http://www.w3.org/2000/svg">
<mask id="mask0_2422_12" style="mask-type:luminance" maskUnits="userSpaceOnUse" x="9" y="9" width="27" height="27">
<path d="M35.7857 9H9V35.7857H35.7857V9Z" fill="url(#paint0_linear_2422_12)"/>
</mask>
<g mask="url(#mask0_2422_12)">
<path d="M16.2634 34.6745C16.4114 34.6745 16.5312 34.5546 16.5312 34.4067V22.0662C16.5312 21.9184 16.4112 21.7984 16.2634 21.7984H14.1205C13.9727 21.7984 13.8527 21.9184 13.8527 22.0662V34.4067C13.8527 34.5546 13.9726 34.6745 14.1205 34.6745H16.2634ZM16.2634 35.746H14.1205C13.3808 35.746 12.7812 35.1464 12.7812 34.4067V22.0662C12.7812 21.3267 13.3809 20.7269 14.1205 20.7269H16.2634C17.003 20.7269 17.6027 21.3267 17.6027 22.0662V34.4067C17.6027 35.1464 17.0031 35.746 16.2634 35.746ZM23.4687 34.6745C23.6167 34.6745 23.7366 34.5546 23.7366 34.4067V19.6927C23.7366 19.5448 23.6167 19.4249 23.4687 19.4249H21.3259C21.2907 19.4249 21.256 19.4318 21.2235 19.4452C21.191 19.4587 21.1613 19.4784 21.1365 19.5033C21.1116 19.5282 21.092 19.5577 21.0785 19.5902C21.065 19.6227 21.058 19.6576 21.058 19.6927V34.4067C21.058 34.5546 21.1779 34.6745 21.3259 34.6745H23.4687ZM23.4687 35.746H21.3259C20.5862 35.746 19.9866 35.1464 19.9866 34.4067V19.6927C19.9866 18.953 20.5862 18.3534 21.3259 18.3534H23.4687C24.2084 18.3534 24.808 18.953 24.808 19.6927V34.4067C24.808 35.1464 24.2084 35.746 23.4687 35.746ZM30.6741 34.6992C30.8221 34.6992 30.942 34.5793 30.942 34.4314V17.3437C30.942 17.1959 30.8219 17.0758 30.6741 17.0758H28.5312C28.3834 17.0758 28.2634 17.1959 28.2634 17.3437V34.4314C28.2634 34.5793 28.3833 34.6992 28.5312 34.6992H30.6741ZM30.6741 35.7706H28.5312C27.7916 35.7706 27.192 35.1711 27.192 34.4314V17.3437C27.192 16.6042 27.7916 16.0044 28.5312 16.0044H30.6741C31.4137 16.0044 32.0135 16.6042 32.0135 17.3437V34.4314C32.0135 35.1711 31.4138 35.7706 30.6741 35.7706ZM27.2282 10.0714L29.9064 10.0754C30.2023 10.0759 30.4425 9.8364 30.4429 9.5405C30.4434 9.2447 30.204 9.0044 29.9081 9.004L27.2298 9C26.9339 8.9995 26.6936 9.239 26.6932 9.5349C26.6927 9.8307 26.9323 10.071 27.2282 10.0714Z" fill="url(#paint1_linear_2422_12)"/>
<path d="M29.3713 9.53801L29.3633 12.2016C29.3624 12.4974 29.6015 12.738 29.8974 12.7389C30.1932 12.7398 30.4338 12.5007 30.4347 12.2048L30.4427 9.54121C30.4436 9.24531 30.2045 9.00481 29.9086 9.00391C29.6128 9.00301 29.3722 9.24211 29.3713 9.53801Z" fill="url(#paint2_linear_2422_12)"/>
<path d="M13.2857 17.3099H17.3189C17.4948 17.3099 17.669 17.2753 17.8315 17.208C17.994 17.1406 18.1417 17.042 18.2661 16.9176L20.9596 14.224C21.0099 14.1738 21.0779 14.1456 21.1489 14.1455H25.3278C25.6828 14.1455 26.0234 14.0046 26.2746 13.7537L29.9663 10.0621C30.1755 9.85276 30.1755 9.51366 29.9663 9.30436C29.7571 9.09516 29.4179 9.09516 29.2087 9.30436L25.5174 12.9958C25.467 13.0459 25.3988 13.0741 25.3278 13.074H21.1489C20.7938 13.0741 20.4532 13.2153 20.202 13.4664L17.5084 16.1599C17.4835 16.1848 17.454 16.2046 17.4215 16.2181C17.3889 16.2316 17.3541 16.2385 17.3188 16.2385H13.2857C12.9898 16.2385 12.75 16.4783 12.75 16.7742C12.75 17.0701 12.9899 17.3099 13.2857 17.3099Z" fill="url(#paint3_linear_2422_12)"/>
</g>
<defs>
<linearGradient id="paint0_linear_2422_12" x1="14.0893" y1="13.5536" x2="30.4286" y2="32.5714" gradientUnits="userSpaceOnUse">
<stop stop-color="#50EFFF"/>
<stop offset="1" stop-color="#419FFF"/>
</linearGradient>
<linearGradient id="paint1_linear_2422_12" x1="16.4354" y1="13.551" x2="32.6931" y2="27.1453" gradientUnits="userSpaceOnUse">
<stop stop-color="#50EFFF"/>
<stop offset="1" stop-color="#419FFF"/>
</linearGradient>
<linearGradient id="paint2_linear_2422_12" x1="29.5684" y1="9.63886" x2="30.9612" y2="10.1074" gradientUnits="userSpaceOnUse">
<stop stop-color="#50EFFF"/>
<stop offset="1" stop-color="#419FFF"/>
</linearGradient>
<linearGradient id="paint3_linear_2422_12" x1="16.0509" y1="10.5351" x2="19.5473" y2="19.1968" gradientUnits="userSpaceOnUse">
<stop stop-color="#50EFFF"/>
<stop offset="1" stop-color="#419FFF"/>
</linearGradient>
</defs>
</svg>
