<svg width="27" height="29" viewBox="0 0 27 29" fill="none" xmlns="http://www.w3.org/2000/svg">
<path fill-rule="evenodd" clip-rule="evenodd" d="M10.5658 0.485467C11.3189 1.23805 11.1978 2.00085 10.4447 2.75343L5.02879 8.39768H16.3929C22.2511 8.39768 27 12.5473 27 18.401C27 24.2547 22.2511 29 16.3929 29H11.5714C10.5063 29 9.6083 28.7329 9.6083 27.6686C9.6083 26.6042 10.5063 26.3371 11.5714 26.3371H16.3929C20.1208 26.3371 24.3356 22.1261 24.3356 18.401C24.3356 14.676 20.1208 11.1555 16.3929 11.1555H5.02879L10.4447 16.8603C11.1978 17.6128 11.2411 18.2202 10.488 18.9728C9.73486 19.7253 9.03231 19.5526 8.27914 18.8001L0.564859 11.0918C-0.188286 10.3392 -0.188286 9.11904 0.564859 8.36646L8.27914 0.658106C9.03231 -0.0944606 9.81265 -0.267099 10.5658 0.485467Z" fill="#D3D3D3"/>
</svg>
