<svg width="26" height="24" viewBox="0 0 26 24" fill="none" xmlns="http://www.w3.org/2000/svg">
<g clip-path="url(#clip0_2040_634)">
<path d="M23.6857 21.9405L17.8993 15.9701C20.7369 12.2387 20.4587 6.78496 17.1204 3.39792C15.3957 1.61829 13.0589 0.584961 10.5552 0.584961C8.05149 0.584961 5.77034 1.56089 4.04558 3.39792C2.26518 5.17755 1.31934 7.58866 1.31934 10.1146C1.31934 12.6405 2.26518 15.0516 4.04558 16.8887C5.77034 18.6683 8.10712 19.7016 10.6108 19.7016C12.6694 19.7016 14.6724 19.0127 16.2859 17.6924L22.0722 23.6627C22.2947 23.8924 22.5729 24.0072 22.9067 24.0072C23.2406 24.0072 23.5187 23.8924 23.7413 23.6627C24.1308 23.2035 24.1308 22.3998 23.6857 21.9405ZM5.65907 15.1664C4.3794 13.8461 3.65612 12.009 3.65612 10.1146C3.65612 8.22015 4.3794 6.44052 5.65907 5.06274C6.99437 3.74237 8.71914 2.99607 10.5552 2.99607C12.3912 2.99607 14.116 3.74237 15.4513 5.06274C18.1219 7.8757 18.1219 12.3535 15.4513 15.1664C14.1716 16.4868 12.3912 17.2331 10.5552 17.2331C8.71914 17.2905 6.99437 16.5442 5.65907 15.1664Z" fill="#A4A7FF"/>
</g>
<defs>
<clipPath id="clip0_2040_634">
<rect width="25.9198" height="24" fill="white"/>
</clipPath>
</defs>
</svg>
