<svg width="23" height="23" viewBox="0 0 23 23" fill="none" xmlns="http://www.w3.org/2000/svg">
<path d="M10.7259 5.42119C11.1001 5.04694 11.1001 4.44015 10.7259 4.0659L8.01533 1.35532C7.95954 1.29954 7.90117 1.2479 7.8406 1.20044C7.1901 0.690593 6.28601 0.660354 5.60543 1.10972C5.49915 1.17989 5.39831 1.26176 5.30475 1.35532L2.59417 4.0659C2.21991 4.44015 2.21991 5.04694 2.59417 5.42119C2.96842 5.79544 3.57521 5.79544 3.94945 5.42119L5.74988 3.62076V17.25C5.74988 17.7793 6.17895 18.2084 6.70822 18.2084C7.2375 18.2084 7.66655 17.7793 7.66655 17.25V3.71713L9.37061 5.42119C9.74486 5.79544 10.3517 5.79544 10.7259 5.42119Z" fill="#6D73FF"/>
<path d="M12.1772 17.5787C11.8029 17.953 11.8029 18.5597 12.1772 18.934L14.8877 21.6446C14.9813 21.7381 15.0822 21.82 15.1884 21.8902C15.9324 22.3813 16.9433 22.2995 17.5984 21.6446L20.3089 18.934C20.6831 18.5597 20.6831 17.953 20.3089 17.5787C19.9347 17.2044 19.3279 17.2044 18.9536 17.5787L17.2495 19.2827V5.74984C17.2495 5.22056 16.8205 4.7915 16.2912 4.7915C15.7619 4.7915 15.3329 5.22056 15.3329 5.74984V19.3791L13.5324 17.5787C13.1582 17.2044 12.5514 17.2044 12.1772 17.5787Z" fill="#6D73FF"/>
</svg>
