<svg width="70" height="70" viewBox="0 0 70 70" fill="none" xmlns="http://www.w3.org/2000/svg">
<g clip-path="url(#clip0_2242_88)">
<path d="M37.967 70H32.0607C29.9005 69.9977 27.8295 69.1388 26.3015 67.6117C24.7736 66.0846 23.9136 64.014 23.9102 61.8538V59.115C23.9095 58.9745 23.8725 58.8367 23.8027 58.7148C23.7329 58.5929 23.6328 58.4911 23.512 58.4194L20.5546 56.6957C20.4327 56.6259 20.2946 56.589 20.1541 56.589C20.0137 56.589 19.8757 56.6259 19.7539 56.6957L17.3957 58.0562C16.4702 58.5956 15.4465 58.9454 14.3844 59.0851C13.3224 59.2248 12.243 59.1516 11.2095 58.87C10.1731 58.5951 9.20134 58.1177 8.35053 57.4651C7.49973 56.8126 6.78673 55.9979 6.25262 55.0682L3.28193 49.9057C2.21049 48.0351 1.92209 45.8167 2.47937 43.7342C3.03665 41.6518 4.39453 39.8742 6.25703 38.7887L8.65455 37.4062C8.77675 37.3346 8.87809 37.2324 8.94868 37.1097C9.01927 36.9869 9.05658 36.8479 9.05696 36.7063V33.2937C9.05658 33.1521 9.01927 33.0131 8.94868 32.8903C8.87809 32.7676 8.77675 32.6654 8.65455 32.5938L6.26143 31.2113C4.39731 30.1274 3.03771 28.3499 2.4795 26.2671C1.9213 24.1843 2.20969 21.9652 3.28193 20.0943L6.25262 14.9319C6.78673 14.0021 7.49973 13.1874 8.35053 12.5349C9.20134 11.8823 10.1731 11.4049 11.2095 11.13C12.2431 10.8471 13.3229 10.7736 14.3853 10.9141C15.4476 11.0546 16.4712 11.4062 17.3957 11.9481L19.7495 13.3043C19.8714 13.3763 20.0104 13.4143 20.152 13.4143C20.2936 13.4143 20.4326 13.3763 20.5546 13.3043L23.512 11.5806C23.6328 11.5089 23.7329 11.4071 23.8027 11.2852C23.8725 11.1633 23.9095 11.0255 23.9102 10.885V8.14625C23.9136 5.98604 24.7736 3.9154 26.3015 2.38831C27.8295 0.861214 29.9005 0.00231379 32.0607 0H37.9802C40.1412 0.0011559 42.2134 0.859487 43.7423 2.3867C45.2711 3.91392 46.1316 5.98528 46.1351 8.14625V10.885C46.1358 11.025 46.1723 11.1624 46.2413 11.2842C46.3102 11.406 46.4092 11.508 46.5288 11.5806L49.4907 13.3043C49.6118 13.3763 49.7501 13.4145 49.891 13.4145C50.0319 13.4145 50.1703 13.3763 50.2914 13.3043L52.6451 11.9438C53.5709 11.4029 54.5954 11.0523 55.6584 10.9125C56.7215 10.7728 57.8017 10.8468 58.8358 11.13C59.8719 11.4043 60.8431 11.8816 61.6933 12.5342C62.5434 13.1868 63.2556 14.0018 63.7882 14.9319L66.7588 20.0943C67.8314 21.9646 68.1206 24.1834 67.5632 26.2662C67.0059 28.3489 65.6472 30.1266 63.7838 31.2113L61.3863 32.5938C61.2641 32.6654 61.1628 32.7676 61.0922 32.8903C61.0216 33.0131 60.9843 33.1521 60.9839 33.2937V36.7063C60.9843 36.8479 61.0216 36.9869 61.0922 37.1097C61.1628 37.2324 61.2641 37.3346 61.3863 37.4062L63.7794 38.7887C65.6444 39.8718 67.0048 41.6492 67.5631 43.7324C68.1214 45.8155 67.8322 48.0351 66.7588 49.9057L63.7882 55.0682C63.2556 55.9982 62.5434 56.8132 61.6933 57.4658C60.8431 58.1185 59.8719 58.5957 58.8358 58.87C57.8014 59.1523 56.721 59.2254 55.658 59.0849C54.595 58.9445 53.5707 58.5933 52.6451 58.0519L50.2957 56.6957C50.173 56.6259 50.0344 56.5892 49.8933 56.5892C49.7521 56.5892 49.6134 56.6259 49.4907 56.6957L46.5288 58.4194C46.4092 58.492 46.3102 58.594 46.2413 58.7158C46.1723 58.8376 46.1358 58.975 46.1351 59.115V61.8538C46.1316 64.017 45.2693 66.0904 43.7376 67.618C42.2059 69.1456 40.1302 70.0023 37.967 70ZM20.1345 52.2244C21.0566 52.2216 21.9627 52.4647 22.7595 52.9287L25.717 54.6787C26.4964 55.1333 27.1431 55.784 27.5929 56.5662C28.0427 57.3483 28.2799 58.2346 28.2808 59.1369V61.8757C28.2819 62.8797 28.6816 63.8422 29.392 64.5518C30.1024 65.2614 31.0654 65.66 32.0695 65.66H37.9889C38.9933 65.66 39.9569 65.2615 40.668 64.5521C41.3791 63.8426 41.7797 62.8801 41.782 61.8757V59.1369C41.7833 58.2352 42.0202 57.3496 42.4691 56.5677C42.918 55.7857 43.5634 55.1345 44.3413 54.6787L47.2988 52.9287C48.0875 52.4729 48.9824 52.233 49.8933 52.233C50.8042 52.233 51.6989 52.4729 52.4876 52.9287L54.837 54.285C55.2667 54.5385 55.743 54.7029 56.2376 54.7683C56.7322 54.8337 57.2349 54.7987 57.7157 54.6656C58.1956 54.5409 58.6457 54.322 59.0401 54.0215C59.4344 53.7211 59.765 53.3451 60.0126 52.9156L62.9876 47.7574C63.4849 46.8875 63.6183 45.8562 63.3585 44.8883C63.0987 43.9205 62.4669 43.0946 61.6007 42.5906L59.212 41.2038C58.4281 40.7496 57.777 40.0976 57.324 39.3129C56.871 38.5283 56.6319 37.6385 56.6307 36.7325V33.32C56.6319 32.414 56.871 31.5242 57.324 30.7396C57.777 29.9549 58.4281 29.3029 59.212 28.8487L61.6052 27.4619C62.4705 26.9572 63.1014 26.1308 63.3603 25.1631C63.6193 24.1953 63.4853 23.1645 62.9876 22.295L60.0126 17.1368C59.765 16.7074 59.4344 16.3315 59.0401 16.0311C58.6457 15.7306 58.1956 15.5116 57.7157 15.3869C56.7441 15.1275 55.7094 15.2627 54.837 15.7631L52.4832 17.1238C51.6964 17.5827 50.8019 17.8244 49.891 17.8244C48.9801 17.8244 48.0856 17.5827 47.2988 17.1238L44.3413 15.3738C43.5634 14.918 42.918 14.2669 42.4691 13.485C42.0202 12.703 41.7833 11.8173 41.782 10.9156V8.17682C41.7797 7.17234 41.3791 6.20985 40.668 5.50039C39.9569 4.79094 38.9933 4.39249 37.9889 4.39249H32.0607C31.0566 4.39249 30.0936 4.79108 29.3832 5.50066C28.6728 6.21024 28.2731 7.17274 28.2719 8.17682V10.9156C28.2711 11.8179 28.034 12.7041 27.5842 13.4863C27.1344 14.2684 26.4876 14.9192 25.7082 15.3738L22.7507 17.1238C21.9627 17.5813 21.0677 17.8223 20.1564 17.8223C19.2451 17.8223 18.35 17.5813 17.562 17.1238L15.217 15.7675C14.7862 15.517 14.3098 15.3543 13.8157 15.289C13.3216 15.2237 12.8194 15.2569 12.3382 15.3869C11.8578 15.5115 11.4069 15.7304 11.0119 16.0308C10.6168 16.3312 10.2854 16.7072 10.037 17.1368L7.06199 22.295C6.56466 23.165 6.43143 24.1963 6.69122 25.1641C6.951 26.132 7.58281 26.9579 8.44893 27.4619L10.8376 28.8487C11.6216 29.3029 12.2726 29.9549 12.7255 30.7396C13.1785 31.5242 13.4176 32.414 13.4189 33.32V36.7325C13.4176 37.6385 13.1785 38.5283 12.7255 39.3129C12.2726 40.0976 11.6216 40.7496 10.8376 41.2038L8.44453 42.5906C7.57914 43.0953 6.94829 43.9216 6.68935 44.8894C6.4304 45.8572 6.56429 46.888 7.06199 47.7574L10.037 52.9156C10.2854 53.3453 10.6168 53.7212 11.0119 54.0217C11.4069 54.3221 11.8578 54.541 12.3382 54.6656C12.8188 54.7984 13.3212 54.8336 13.8157 54.769C14.3101 54.7043 14.7867 54.5412 15.217 54.2894L17.5664 52.9287C18.3454 52.4719 19.2314 52.229 20.1345 52.2244ZM35.0839 49.1138C31.3421 49.1092 27.7548 47.6207 25.109 44.9749C22.4632 42.329 20.9748 38.7418 20.9702 35C20.9748 31.2582 22.4632 27.671 25.109 25.0251C27.7548 22.3793 31.3421 20.8908 35.0839 20.8862C38.8264 20.8897 42.4147 22.3777 45.0615 25.0237C47.7083 27.6696 49.1973 31.2575 49.2019 35C49.1973 38.7425 47.7083 42.3304 45.0615 44.9763C42.4147 47.6223 38.8264 49.1103 35.0839 49.1138ZM35.0839 25.2481C32.4986 25.2516 30.0202 26.2802 28.1921 28.1083C26.364 29.9363 25.3354 32.4147 25.332 35C25.3354 37.5853 26.364 40.0637 28.1921 41.8918C30.0202 43.7198 32.4986 44.7484 35.0839 44.7519C37.6703 44.7496 40.1503 43.7217 41.98 41.8936C43.8097 40.0655 44.8398 37.5865 44.8444 35C44.8398 32.4136 43.8097 29.9345 41.98 28.1064C40.1503 26.2783 37.6703 25.2504 35.0839 25.2481Z" fill="#989393"/>
</g>
<defs>
<clipPath id="clip0_2242_88">
<rect width="70" height="70" fill="white"/>
</clipPath>
</defs>
</svg>
