<svg width="91" height="90" viewBox="0 0 91 90" fill="none" xmlns="http://www.w3.org/2000/svg">
<g clip-path="url(#clip0_1807_2)">
<path fill-rule="evenodd" clip-rule="evenodd" d="M5.64308 14.3223C4.13297 14.3223 2.68472 14.9551 1.61691 16.0816C0.549106 17.2081 -0.0507812 18.7359 -0.0507812 20.329C-0.0507812 21.9221 0.549106 23.4499 1.61691 24.5764C2.68472 25.7028 4.13297 26.3357 5.64308 26.3357C7.15319 26.3357 8.60144 25.7028 9.66925 24.5764C10.7371 23.4499 11.3369 21.9221 11.3369 20.329C11.3369 18.7359 10.7371 17.2081 9.66925 16.0816C8.60144 14.9551 7.15319 14.3223 5.64308 14.3223ZM22.7247 14.5236C21.5166 14.5236 20.358 16.0299 19.5037 16.9311C18.6495 17.8323 18.1696 19.0545 18.1696 20.329C18.1696 21.6034 18.6495 22.8257 19.5037 23.7269C20.358 24.6281 21.5166 26.1343 22.7247 26.1343H77.3857C78.5938 26.1343 79.7524 24.6281 80.6067 23.7269C81.4609 22.8257 81.9408 21.6034 81.9408 20.329C81.9408 19.0545 81.4609 17.8323 80.6067 16.9311C79.7524 16.0299 78.5938 14.5236 77.3857 14.5236H22.7247ZM22.7247 38.5505C21.5166 38.5505 20.358 40.0567 19.5037 40.9579C18.6495 41.8591 18.1696 43.0814 18.1696 44.3558C18.1696 45.6303 18.6495 46.8525 19.5037 47.7537C20.358 48.6549 21.5166 50.1612 22.7247 50.1612H86.4959C87.704 50.1612 88.8626 48.6549 89.7169 47.7537C90.5711 46.8525 91.051 45.6303 91.051 44.3558C91.051 43.0814 90.5711 41.8591 89.7169 40.9579C88.8626 40.0567 87.704 38.5505 86.4959 38.5505H22.7247ZM18.1696 68.3827C18.1696 67.1082 18.6495 65.8859 19.5037 64.9848C20.358 64.0836 21.5166 62.5773 22.7247 62.5773H68.2756C69.4836 62.5773 70.6423 64.0836 71.4965 64.9848C72.3507 65.8859 72.8306 67.1082 72.8306 68.3827C72.8306 69.6571 72.3507 70.8794 71.4965 71.7806C70.6423 72.6818 69.4836 74.188 68.2756 74.188H22.7247C21.5166 74.188 20.358 72.6818 19.5037 71.7806C18.6495 70.8794 18.1696 69.6571 18.1696 68.3827ZM-0.0507812 44.3558C-0.0507812 42.7627 0.549106 41.2349 1.61691 40.1084C2.68472 38.982 4.13297 38.3491 5.64308 38.3491C7.15319 38.3491 8.60144 38.982 9.66925 40.1084C10.7371 41.2349 11.3369 42.7627 11.3369 44.3558C11.3369 45.9489 10.7371 47.4767 9.66925 48.6032C8.60144 49.7297 7.15319 50.3625 5.64308 50.3625C4.13297 50.3625 2.68472 49.7297 1.61691 48.6032C0.549106 47.4767 -0.0507812 45.9489 -0.0507812 44.3558ZM5.64308 62.376C4.13297 62.376 2.68472 63.0088 1.61691 64.1353C0.549106 65.2618 -0.0507812 66.7896 -0.0507812 68.3827C-0.0507812 69.9757 0.549106 71.5036 1.61691 72.6301C2.68472 73.7565 4.13297 74.3894 5.64308 74.3894C7.15319 74.3894 8.60144 73.7565 9.66925 72.6301C10.7371 71.5036 11.3369 69.9757 11.3369 68.3827C11.3369 66.7896 10.7371 65.2618 9.66925 64.1353C8.60144 63.0088 7.15319 62.376 5.64308 62.376Z" fill="url(#paint0_linear_1807_2)"/>
</g>
<defs>
<linearGradient id="paint0_linear_1807_2" x1="-8.57837e-05" y1="14.396" x2="93.664" y2="69.8127" gradientUnits="userSpaceOnUse">
<stop stop-color="#CA89FF"/>
<stop offset="1" stop-color="#6D73FF"/>
</linearGradient>
<clipPath id="clip0_1807_2">
<rect width="91" height="90" fill="white"/>
</clipPath>
</defs>
</svg>
