<svg width="22" height="22" viewBox="0 0 22 22" fill="none" xmlns="http://www.w3.org/2000/svg">
<path d="M9 17.4531C9 16.5962 9.70399 15.9062 10.5784 15.9062C11.4529 15.9062 12.1569 16.5962 12.1569 17.4531C12.1569 18.3101 11.4529 19 10.5784 19C9.70399 19 9 18.3101 9 17.4531Z" fill="#ADADAD"/>
<path d="M9 4.04688C9 3.18991 9.70399 2.5 10.5784 2.5C11.4529 2.5 12.1569 3.18991 12.1569 4.04688C12.1569 4.90384 11.4529 5.59375 10.5784 5.59375C9.70399 5.59375 9 4.90384 9 4.04688Z" fill="#ADADAD"/>
<path d="M9 10.75C9 9.89303 9.70399 9.20312 10.5784 9.20312C11.4529 9.20312 12.1569 9.89303 12.1569 10.75C12.1569 11.607 11.4529 12.2969 10.5784 12.2969C9.70399 12.2969 9 11.607 9 10.75Z" fill="#ADADAD"/>
</svg>
