<svg width="22" height="22" viewBox="0 0 22 22" fill="none" xmlns="http://www.w3.org/2000/svg">
<g clip-path="url(#clip0_2118_2)">
<circle cx="11" cy="11" r="11" fill="none"/>
<path d="M10 15.875C10 15.2518 10.512 14.7499 11.1479 14.7499C11.7839 14.7499 12.2959 15.2518 12.2959 15.875C12.2959 16.4982 11.7839 17 11.1479 17C10.512 17 10 16.4982 10 15.875Z" fill="#ADADAD"/>
<path d="M10 6.125C10 5.50175 10.512 5 11.1479 5C11.7839 5 12.2959 5.50175 12.2959 6.125C12.2959 6.74825 11.7839 7.25 11.1479 7.25C10.512 7.25 10 6.74825 10 6.125Z" fill="#ADADAD"/>
<path d="M10 11C10 10.3768 10.512 9.875 11.1479 9.875C11.7839 9.875 12.2959 10.3768 12.2959 11C12.2959 11.6233 11.7839 12.125 11.1479 12.125C10.512 12.125 10 11.6233 10 11Z" fill="#ADADAD"/>
</g>
<defs>
<clipPath id="clip0_2118_2">
<rect width="22" height="22" fill="white"/>
</clipPath>
</defs>
</svg>
