<svg width="40" height="40" viewBox="0 0 40 40" fill="none" xmlns="http://www.w3.org/2000/svg">
<mask id="mask0_2420_39" style="mask-type:luminance" maskUnits="userSpaceOnUse" x="3" y="3" width="34" height="34">
<path d="M36.011 3H3V36.011H36.011V3Z" fill="white"/>
</mask>
<g mask="url(#mask0_2420_39)">
<path d="M14.1705 7.7641C15.0855 6.8491 15.877 7.4347 15.9986 8.6755V19.5V30.3357C15.9986 31.0953 15.7583 32 14.9986 32C14.2932 32 14.0911 31.3537 14.0117 30.6697L14.0024 30.5093V11L10.4986 14.5C9.96152 15.0371 9.32642 15.2921 8.78932 14.7549C8.29342 14.2591 8.36952 13.7003 8.78902 13.1607L8.90342 13.0312L14.1705 7.7641ZM23.999 7C24.7044 7 24.9174 7.6575 24.9968 8.3415L25.0061 8.5019V28L28.4989 24.5C29.036 23.9629 29.6823 23.9629 30.2195 24.5C30.7153 24.9958 30.639 25.3109 30.2195 25.8504L30.105 25.98L24.838 31.247C23.9229 32.1621 23.1205 31.5766 22.9989 30.3357V30V8.6755C22.9989 7.9159 23.2393 7 23.999 7Z" fill="url(#paint0_linear_2420_39)"/>
</g>
<defs>
<linearGradient id="paint0_linear_2420_39" x1="19.5043" y1="7" x2="19.5043" y2="32" gradientUnits="userSpaceOnUse">
<stop stop-color="#31FFB5"/>
<stop offset="1" stop-color="#07C8BD"/>
</linearGradient>
</defs>
</svg>
