<svg width="25" height="26" viewBox="0 0 25 26" fill="none" xmlns="http://www.w3.org/2000/svg">
<g clip-path="url(#clip0_1477_6)">
<path d="M0.137695 11.4032L0.137695 15.2704C0.137695 15.8708 0.314972 16.3564 0.953765 16.3564C1.59256 16.3564 1.76044 15.8708 1.76044 15.2704L1.76044 11.4032C1.76044 7.92452 6.98198 4.77599 10.6832 4.77599L16.8375 4.77599L14.9763 6.52069C14.5254 6.94449 14.5254 7.62433 14.9763 8.04813C15.4272 8.47193 15.8111 8.15756 16.2621 7.73376L19.7472 4.77251C19.7936 4.56944 20.0854 4.29573 20.0854 4.00437C20.0854 3.72184 19.7936 3.59649 19.5775 3.39342L16.0924 0.274983C15.6414 -0.148818 15.2575 -0.463188 14.8066 -0.0393878C14.3557 0.384413 14.5254 1.06426 14.9763 1.48806L16.8375 3.23275L10.6832 3.23275C5.71379 3.24158 0.137695 6.73258 0.137695 11.4032Z" fill="#D3D3D3"/>
<path d="M24.0278 14.156V10.2888C24.0278 9.6884 23.8505 9.2028 23.2117 9.2028C22.5729 9.2028 22.4051 9.6884 22.4051 10.2888V14.156C22.4051 17.6347 17.3532 20.7832 13.652 20.7832H7.49769L9.01952 19.0385C9.24497 18.8266 9.3577 18.5529 9.3577 18.2704C9.3577 17.9878 9.41467 17.8713 9.18921 17.6594C8.7383 17.2356 8.35436 17.3928 7.90344 17.8166L4.58796 20.7778C4.3719 20.9809 4.08008 21.2546 4.08008 21.546C4.08008 21.8285 4.3719 22.111 4.58796 22.3141L8.07314 25.2754C8.52405 25.6992 8.908 26.0135 9.35891 25.5897C9.80982 25.1659 9.64013 24.4861 9.18921 24.0623L7.32799 22.4748L13.652 22.3176C18.6214 22.3176 24.0278 18.8266 24.0278 14.156Z" fill="#D3D3D3"/>
</g>
<defs>
<clipPath id="clip0_1477_6">
<rect width="26" height="25" fill="white" transform="matrix(0 -1 1 0 0 26)"/>
</clipPath>
</defs>
</svg>
