<svg width="32" height="32" viewBox="0 0 32 32" fill="none" xmlns="http://www.w3.org/2000/svg">
<rect width="32" height="32" rx="3" fill="url(#paint0_linear_1580_12)"/>
<g clip-path="url(#clip0_1580_12)">
<path d="M14.4963 16.3879L10.5488 21.5816C10.3821 21.7888 9.90819 21.7592 9.71762 21.5224L5.38958 16.432C5.19901 16.1952 5.27281 15.6123 5.46338 15.3459C5.65395 15.1091 6.20027 14.944 6.41466 15.1808L9.307 18.6227V9.96145C9.307 9.60626 9.73558 9.33987 10.0214 9.33987C10.3073 9.33987 10.8024 9.60626 10.8024 9.96145V18.5898L13.4581 15.2137C13.5534 15.0953 13.8426 15.0802 13.9855 15.0802C14.1046 15.0802 14.3214 15.2605 14.4166 15.3789C14.6072 15.6157 14.7107 16.1215 14.4963 16.3879Z" fill="white"/>
</g>
<g clip-path="url(#clip1_1580_12)">
<path d="M18.5037 14.6121L22.4512 9.4184C22.6179 9.21121 23.0918 9.24081 23.2824 9.4776L27.6104 14.568C27.801 14.8048 27.7272 15.3877 27.5366 15.6541C27.3461 15.8909 26.7997 16.056 26.5853 15.8192L23.693 12.3773L23.693 21.0385C23.693 21.3937 23.2644 21.6601 22.9786 21.6601C22.6927 21.6601 22.1976 21.3937 22.1976 21.0385L22.1976 12.4102L19.5419 15.7863C19.4466 15.9047 19.1574 15.9198 19.0145 15.9198C18.8954 15.9198 18.6786 15.7395 18.5834 15.6211C18.3928 15.3843 18.2893 14.8785 18.5037 14.6121Z" fill="white"/>
</g>
<defs>
<linearGradient id="paint0_linear_1580_12" x1="0" y1="0" x2="32" y2="32" gradientUnits="userSpaceOnUse">
<stop stop-color="#07DDB7"/>
<stop offset="1" stop-color="#B4FFDB"/>
</linearGradient>
<clipPath id="clip0_1580_12">
<rect width="10" height="13" fill="white" transform="matrix(1 0 0 -1 5 22)"/>
</clipPath>
<clipPath id="clip1_1580_12">
<rect width="10" height="13" fill="white" transform="matrix(-1 0 0 1 28 9)"/>
</clipPath>
</defs>
</svg>
