<svg width="40" height="40" viewBox="0 0 40 40" fill="none" xmlns="http://www.w3.org/2000/svg">
<mask id="mask0_1590_2" style="mask-type:luminance" maskUnits="userSpaceOnUse" x="0" y="4" width="40" height="29">
<path d="M40 4H0V32.2352H40V4Z" fill="white"/>
</mask>
<g mask="url(#mask0_1590_2)">
<path d="M3.52279 20.4705H32.309L24.8919 28.2185C24.0124 29.1373 24.0124 30.6272 24.8919 31.546C25.3318 32.0053 25.9083 32.2352 26.4848 32.2352C27.0612 32.2352 27.6377 32.0053 28.0774 31.5459L39.3393 19.7812C40.219 18.8625 40.219 17.3727 39.3393 16.4537L28.0774 4.68905C27.1978 3.77032 25.7716 3.77032 24.8919 4.68905C24.0124 5.60776 24.0124 7.09763 24.8919 8.01657L32.309 15.7647H3.52279C2.27886 15.7647 0.6875 16.8181 0.6875 18.1176C0.6875 19.417 2.27886 20.4705 3.52279 20.4705Z" fill="#D3D3D3"/>
</g>
</svg>
