<svg width="40" height="40" viewBox="0 0 40 40" fill="none" xmlns="http://www.w3.org/2000/svg">
<circle cx="20" cy="20" r="20" fill="white"/>
<path fill-rule="evenodd" clip-rule="evenodd" d="M9 13.3333C9 11.4924 10.5446 10 12.45 10H28.55C30.4554 10 32 11.4924 32 13.3333V15.5556C32 16.1692 31.4851 16.6667 30.85 16.6667V26.6667C30.85 28.5077 29.3054 30 27.4 30H13.6C11.6946 30 10.15 28.5077 10.15 26.6667V16.6667C9.51488 16.6667 9 16.1692 9 15.5556V13.3333ZM12.45 16.6667V26.6667C12.45 27.2803 12.9649 27.7778 13.6 27.7778H27.4C28.0351 27.7778 28.55 27.2803 28.55 26.6667V16.6667H12.45ZM11.3 14.4444V13.3333C11.3 12.7197 11.8149 12.2222 12.45 12.2222H28.55C29.1851 12.2222 29.7 12.7197 29.7 13.3333V14.4444H11.3ZM15.9 21.1111C15.9 20.4974 16.4149 20 17.05 20H23.95C24.5851 20 25.1 20.4974 25.1 21.1111C25.1 21.7248 24.5851 22.2222 23.95 22.2222H17.05C16.4149 22.2222 15.9 21.7248 15.9 21.1111Z" fill="url(#paint0_linear_1944_3)"/>
<defs>
<linearGradient id="paint0_linear_1944_3" x1="9.01151" y1="10" x2="31.278" y2="30.762" gradientUnits="userSpaceOnUse">
<stop stop-color="#CD89FF"/>
<stop offset="1" stop-color="#6D73FF"/>
</linearGradient>
</defs>
</svg>
