<svg width="20" height="19" viewBox="0 0 20 19" fill="none" xmlns="http://www.w3.org/2000/svg">
<path d="M17.4948 0.428629L10.145 7.77849L2.83551 0.469011C2.3509 -0.0155949 1.62399 -0.0155949 1.13939 0.469011C0.654781 0.953617 0.654781 1.68053 1.13939 2.16513L8.48925 9.51499L1.17977 16.8245C0.654783 17.2687 0.654783 17.9956 1.13939 18.4802C1.624 18.9648 2.3509 18.9648 2.83551 18.4802L10.1854 11.1303L17.5352 18.4802C18.0198 18.9648 18.7467 18.9648 19.2314 18.4802C19.716 17.9956 19.716 17.2687 19.2314 16.7841L11.8411 9.39384L19.191 2.04398C19.6756 1.55938 19.6756 0.832469 19.191 0.347863C18.7064 -0.136744 17.9391 -0.0155936 17.4948 0.428629Z" fill="#D3D3D3"/>
</svg>
