<svg width="19" height="19" viewBox="0 0 19 19" fill="none" xmlns="http://www.w3.org/2000/svg">
<path d="M16.3203 2.67495C14.8883 1.39282 13.3185 2.22819 12.8779 2.80347L11.8252 4.04582L3.24816 3.08805C3.17166 3.07275 3.03702 3.09417 2.99418 3.15231L2.10067 4.04582C1.95991 4.17433 1.95685 4.45279 2.16493 4.55683L8.41339 7.80652L6.43665 10.1321L3.05538 9.65474C2.96052 9.65474 2.86566 9.68534 2.8014 9.7496L2.22613 10.3218C2.06395 10.4932 2.10985 10.7318 2.29039 10.8328L5.00152 12.17C4.93726 12.6474 5.09638 13.1584 5.47888 13.5409C5.83077 13.9234 6.33873 14.0825 6.84974 14.0183L8.19001 16.7263C8.30323 16.9956 8.57251 16.9191 8.70103 16.7906L9.2763 16.2184C9.34056 16.1541 9.37116 16.0593 9.37116 15.9644L8.8938 12.5862L11.2194 10.6125L14.4415 16.8273C14.5639 17.0354 14.7812 17.0537 14.9525 16.8916L15.846 15.9981C15.9103 15.9338 15.9409 15.8389 15.9409 15.7441L14.9831 7.17004L16.1918 6.08682C16.764 5.69208 17.6116 4.00298 16.3203 2.67495ZM15.7757 5.54214L14.4354 6.75389C14.3711 6.85181 14.3405 6.94667 14.3405 7.04153L15.2983 15.6156L14.821 16.0929L11.6019 9.94238C11.4795 9.74654 11.253 9.75266 11.0878 9.87506L8.31241 12.2006C8.24815 12.2649 8.21756 12.3934 8.21756 12.4883L8.69491 15.8665L8.53579 16.0256L7.29344 13.5072C7.22918 13.3787 7.07006 13.3175 6.91094 13.3481C6.56211 13.446 6.14595 13.3481 5.89197 13.0941C5.6074 12.8096 5.50948 12.4271 5.638 12.0752C5.70226 11.9161 5.6074 11.7569 5.47888 11.6927L2.96052 10.4503L3.11964 10.2912L6.49785 10.7686C6.59271 10.8022 6.72123 10.7686 6.78549 10.6737L9.11412 7.90138C9.17838 7.83712 9.23346 7.56172 9.01926 7.42402L2.86566 4.20493L3.31242 3.59906L11.8834 4.55377C12.0119 4.58743 12.1068 4.52317 12.171 4.45891L13.3828 3.12171C13.6398 2.77287 14.8148 2.0752 15.8705 3.05745C16.9415 4.05194 16.0786 5.38302 15.7757 5.54214Z" fill="white"/>
</svg>
