<svg width="19" height="19" viewBox="0 0 19 19" fill="none" xmlns="http://www.w3.org/2000/svg">
<path d="M13.2075 4.33809C13.349 4.05534 13.6502 3.5033 13.9586 2.95423C14.0059 2.96237 14.0536 2.9672 14.1016 2.96866C14.3479 2.97135 14.5873 2.88741 14.778 2.73152C14.9686 2.57563 15.0985 2.3577 15.1448 2.11579C15.1912 1.87388 15.1511 1.62339 15.0315 1.40806C14.9119 1.19273 14.7204 1.02627 14.4906 0.937752C14.2607 0.849233 14.0071 0.844285 13.774 0.923775C13.5408 1.00326 13.3431 1.16214 13.2152 1.37263C13.0873 1.58313 13.0374 1.83188 13.0743 2.0754C13.1111 2.31893 13.2324 2.54177 13.4169 2.70498C13.0428 3.36719 12.8197 3.7758 12.692 4.03794C11.6075 3.50528 10.4111 3.24041 9.20312 3.26554C8.01729 3.24166 6.84232 3.49559 5.77217 4.00701C5.64232 3.74389 5.42284 3.34272 5.06264 2.70498C5.27221 2.52901 5.41082 2.28298 5.45272 2.01255C5.49462 1.74213 5.43696 1.46569 5.29046 1.23455C5.14397 1.00342 4.91856 0.833296 4.65612 0.75577C4.39368 0.678245 4.11203 0.698584 3.86346 0.813011C3.61488 0.927438 3.41626 1.12818 3.30449 1.37796C3.19272 1.62775 3.17538 1.9096 3.2557 2.1712C3.33602 2.4328 3.50852 2.65637 3.74121 2.8004C3.97389 2.94443 4.25093 2.99913 4.52089 2.95435C4.81643 3.48041 5.10515 4.00885 5.25329 4.30101C3.60914 5.35055 2.67188 7.15163 2.67188 9.49991C2.67188 13.2306 8.22047 18.4062 9.20312 18.4062C10.1858 18.4062 15.7344 13.2306 15.7344 9.49991C15.7344 7.17817 14.817 5.39273 13.2075 4.33809ZM14.1016 1.48429C14.1896 1.48429 14.2757 1.5104 14.349 1.55933C14.4222 1.60827 14.4793 1.67781 14.513 1.75918C14.5467 1.84055 14.5555 1.93009 14.5383 2.01647C14.5211 2.10286 14.4787 2.1822 14.4164 2.24448C14.3542 2.30676 14.2748 2.34917 14.1884 2.36635C14.1021 2.38354 14.0125 2.37472 13.9311 2.34101C13.8498 2.30731 13.7802 2.25023 13.7313 2.177C13.6824 2.10377 13.6562 2.01767 13.6562 1.9296C13.6564 1.81153 13.7033 1.69835 13.7868 1.61486C13.8703 1.53138 13.9835 1.48442 14.1016 1.48429ZM3.93272 1.9296C3.93272 1.84152 3.95885 1.75543 4.00778 1.6822C4.05671 1.60896 4.12626 1.55189 4.20763 1.51818C4.289 1.48448 4.37854 1.47566 4.46492 1.49284C4.5513 1.51002 4.63065 1.55244 4.69293 1.61471C4.75521 1.67699 4.79761 1.75634 4.81479 1.84272C4.83197 1.9291 4.82317 2.01864 4.78946 2.10001C4.75576 2.18138 4.69868 2.25093 4.62545 2.29986C4.55222 2.34879 4.46611 2.37491 4.37804 2.37491C4.25997 2.37478 4.14679 2.32783 4.0633 2.24434C3.97982 2.16086 3.93285 2.04766 3.93272 1.9296ZM9.20312 17.8065C8.45542 17.5352 3.26561 13.0499 3.26561 9.49991C3.26561 7.3191 4.11399 5.68323 5.63655 4.74905L5.81367 4.64799C6.85719 4.09885 8.02437 3.82725 9.20312 3.85929C12.921 3.85929 15.1406 5.96784 15.1406 9.49991C15.1406 13.0499 9.95083 17.5352 9.20312 17.8065Z" fill="white"/>
<path d="M12.0641 7.01462C11.7016 7.04689 11.35 7.15482 11.0318 7.33145C10.7136 7.50808 10.4361 7.74948 10.217 8.04006C9.505 9.06549 9.82708 10.4841 10.3837 10.9036C10.603 11.0484 10.8628 11.1196 11.1253 11.1068C11.2454 11.1064 11.3652 11.0964 11.4837 11.0769C11.8129 11.027 12.1291 10.9125 12.4139 10.7399C12.6988 10.5674 12.9467 10.3402 13.1434 10.0715C13.8422 9.06493 13.3902 7.6049 13.0051 7.23179C12.8708 7.1345 12.7183 7.06516 12.5566 7.02786C12.395 6.99056 12.2275 6.98606 12.0641 7.01462Z" fill="white"/>
<path d="M8.34808 8.03997C8.12901 7.74938 7.85142 7.50797 7.53325 7.33134C7.21507 7.15471 6.86338 7.04679 6.5009 7.01454C6.33748 6.98606 6.17001 6.9906 6.00838 7.0279C5.84674 7.0652 5.69422 7.13449 5.5598 7.2317C5.17479 7.60481 4.72279 9.06485 5.42149 10.0714C5.61823 10.3401 5.86615 10.5673 6.151 10.7399C6.43586 10.9124 6.75201 11.0269 7.08129 11.0769C7.19975 11.0963 7.31957 11.1063 7.43962 11.1067C7.70213 11.1195 7.96189 11.0483 8.18121 10.9035C8.738 10.484 9.06011 9.06541 8.34808 8.03997Z" fill="white"/>
<path d="M9.20312 12.7656C8.88827 12.7659 8.58641 12.8911 8.36377 13.1138C8.14114 13.3364 8.01594 13.6383 8.01562 13.9531C8.01562 14.5439 8.48936 15.4375 9.20312 15.4375C9.9169 15.4375 10.3906 14.5439 10.3906 13.9531C10.3903 13.6383 10.2651 13.3364 10.0425 13.1138C9.81984 12.8911 9.51798 12.7659 9.20312 12.7656Z" fill="white"/>
</svg>
