<svg width="19" height="19" viewBox="0 0 19 19" fill="none" xmlns="http://www.w3.org/2000/svg">
<path d="M16.0398 18C16.04 18 16.0397 18 16.0398 18L9.7212 17.9879H2.96023C2.82684 17.9879 2.71875 17.8798 2.71875 17.7464V6.88277C2.71875 6.74938 2.82684 6.6413 2.96023 6.6413H6.33231V1.24148C6.33231 1.10809 6.4404 1 6.57379 1H16.0397C16.1731 1 16.2812 1.10809 16.2812 1.24148V17.7585C16.2812 17.8227 16.2557 17.8841 16.2103 17.9295C16.1651 17.9746 16.1037 18 16.0398 18ZM9.96307 17.5055L15.7982 17.5166V1.48295H6.81527V6.6413H9.72159C9.85498 6.6413 9.96307 6.74938 9.96307 6.88277V17.5055ZM3.2017 17.505H9.48011V7.12425H3.2017V17.505ZM8.73462 15.9362H6.82415C6.69076 15.9362 6.58268 15.8282 6.58268 15.6948V14.5767C6.58268 14.4433 6.69076 14.3352 6.82415 14.3352H8.73462C8.86802 14.3352 8.9761 14.4433 8.9761 14.5767V15.6948C8.9761 15.8282 8.86802 15.9362 8.73462 15.9362ZM7.06563 15.4533H8.49315V14.8182H7.06563V15.4533ZM5.85776 15.9362H3.94729C3.8139 15.9362 3.70581 15.8282 3.70581 15.6948V14.5767C3.70581 14.4433 3.8139 14.3352 3.94729 14.3352H5.85776C5.99115 14.3352 6.09924 14.4433 6.09924 14.5767V15.6948C6.09924 15.8282 5.99115 15.9362 5.85776 15.9362ZM4.18877 15.4533H5.61628V14.8182H4.18877V15.4533ZM14.3985 15.8122H13.4748C13.3414 15.8122 13.2333 15.7041 13.2333 15.5707V14.567C13.2333 14.4336 13.3414 14.3255 13.4748 14.3255H14.3985C14.5319 14.3255 14.64 14.4336 14.64 14.567V15.5707C14.64 15.7041 14.5319 15.8122 14.3985 15.8122ZM13.7164 15.3293H14.1571V14.8084H13.7164V15.3293ZM11.7346 15.8122H10.8109C10.6776 15.8122 10.5695 15.7041 10.5695 15.5707V14.567C10.5695 14.4336 10.6776 14.3255 10.8109 14.3255H11.7346C11.868 14.3255 11.9761 14.4336 11.9761 14.567V15.5707C11.9761 15.7041 11.868 15.8122 11.7346 15.8122ZM11.0524 15.3293H11.4932V14.8084H11.0524V15.3293ZM8.73462 13.7516H6.82415C6.69076 13.7516 6.58268 13.6436 6.58268 13.5102V12.3921C6.58268 12.2587 6.69076 12.1506 6.82415 12.1506H8.73462C8.86802 12.1506 8.9761 12.2587 8.9761 12.3921V13.5102C8.9761 13.6435 8.86802 13.7516 8.73462 13.7516ZM7.06563 13.2687H8.49315V12.6336H7.06563V13.2687ZM5.85776 13.7516H3.94729C3.8139 13.7516 3.70581 13.6436 3.70581 13.5102V12.3921C3.70581 12.2587 3.8139 12.1506 3.94729 12.1506H5.85776C5.99115 12.1506 6.09924 12.2587 6.09924 12.3921V13.5102C6.09924 13.6435 5.99115 13.7516 5.85776 13.7516ZM4.18877 13.2687H5.61628V12.6336H4.18877V13.2687ZM14.3985 13.406H13.4748C13.3414 13.406 13.2333 13.298 13.2333 13.1646V12.1609C13.2333 12.0275 13.3414 11.9194 13.4748 11.9194H14.3985C14.5319 11.9194 14.64 12.0275 14.64 12.1609V13.1646C14.64 13.298 14.5319 13.406 14.3985 13.406ZM13.7164 12.9231H14.1571V12.4024H13.7164V12.9231ZM11.7346 13.406H10.8109C10.6776 13.406 10.5695 13.298 10.5695 13.1646V12.1609C10.5695 12.0275 10.6776 11.9194 10.8109 11.9194H11.7346C11.868 11.9194 11.9761 12.0275 11.9761 12.1609V13.1646C11.9761 13.298 11.868 13.406 11.7346 13.406ZM11.0524 12.9231H11.4932V12.4024H11.0524V12.9231ZM8.73462 11.5669H6.82415C6.69076 11.5669 6.58268 11.4589 6.58268 11.3255V10.2074C6.58268 10.074 6.69076 9.96595 6.82415 9.96595H8.73462C8.86802 9.96595 8.9761 10.074 8.9761 10.2074V11.3255C8.9761 11.4589 8.86802 11.5669 8.73462 11.5669ZM7.06563 11.084H8.49315V10.4489H7.06563V11.084ZM5.85776 11.5669H3.94729C3.8139 11.5669 3.70581 11.4589 3.70581 11.3255V10.2074C3.70581 10.074 3.8139 9.96595 3.94729 9.96595H5.85776C5.99115 9.96595 6.09924 10.074 6.09924 10.2074V11.3255C6.09924 11.4589 5.99115 11.5669 5.85776 11.5669ZM4.18877 11.084H5.61628V10.4489H4.18877V11.084ZM14.3985 10.9999H13.4748C13.3414 10.9999 13.2333 10.8918 13.2333 10.7584V9.75471C13.2333 9.62132 13.3414 9.51323 13.4748 9.51323H14.3985C14.5319 9.51323 14.64 9.62132 14.64 9.75471V10.7585C14.64 10.8918 14.5319 10.9999 14.3985 10.9999ZM13.7164 10.5169H14.1571V9.99609H13.7164V10.5169ZM11.7346 10.9999H10.8109C10.6776 10.9999 10.5695 10.8918 10.5695 10.7584V9.75471C10.5695 9.62132 10.6776 9.51323 10.8109 9.51323H11.7346C11.868 9.51323 11.9761 9.62132 11.9761 9.75471V10.7585C11.9761 10.8918 11.868 10.9999 11.7346 10.9999ZM11.0524 10.5169H11.4932V9.99609H11.0524V10.5169ZM8.73462 9.38226H6.82415C6.69076 9.38226 6.58268 9.27417 6.58268 9.14078V8.02274C6.58268 7.88935 6.69076 7.78126 6.82415 7.78126H8.73462C8.86802 7.78126 8.9761 7.88935 8.9761 8.02274V9.14087C8.9761 9.27417 8.86802 9.38226 8.73462 9.38226ZM7.06563 8.8993H8.49315V8.26412H7.06563V8.8993ZM5.85776 9.38226H3.94729C3.8139 9.38226 3.70581 9.27417 3.70581 9.14078V8.02274C3.70581 7.88935 3.8139 7.78126 3.94729 7.78126H5.85776C5.99115 7.78126 6.09924 7.88935 6.09924 8.02274V9.14087C6.09924 9.27417 5.99115 9.38226 5.85776 9.38226ZM4.18877 8.8993H5.61628V8.26412H4.18877V8.8993ZM14.3985 8.59369H13.4748C13.3414 8.59369 13.2333 8.4856 13.2333 8.35221V7.34853C13.2333 7.21514 13.3414 7.10706 13.4748 7.10706H14.3985C14.5319 7.10706 14.64 7.21514 14.64 7.34853V8.35221C14.64 8.4856 14.5319 8.59369 14.3985 8.59369ZM13.7164 8.11073H14.1571V7.59001H13.7164V8.11073ZM11.7346 8.59369H10.8109C10.6776 8.59369 10.5695 8.4856 10.5695 8.35221V7.34853C10.5695 7.21514 10.6776 7.10706 10.8109 7.10706H11.7346C11.868 7.10706 11.9761 7.21514 11.9761 7.34853V8.35221C11.9761 8.4856 11.868 8.59369 11.7346 8.59369ZM11.0524 8.11073H11.4932V7.59001H11.0524V8.11073ZM14.3985 6.18761H13.4748C13.3414 6.18761 13.2333 6.07952 13.2333 5.94613V4.94236C13.2333 4.80897 13.3414 4.70088 13.4748 4.70088H14.3985C14.5319 4.70088 14.64 4.80897 14.64 4.94236V5.94613C14.64 6.07943 14.5319 6.18761 14.3985 6.18761ZM13.7164 5.70465H14.1571V5.18384H13.7164V5.70465ZM11.7346 6.18761H10.8109C10.6776 6.18761 10.5695 6.07952 10.5695 5.94613V4.94236C10.5695 4.80897 10.6776 4.70088 10.8109 4.70088H11.7346C11.868 4.70088 11.9761 4.80897 11.9761 4.94236V5.94613C11.9761 6.07943 11.868 6.18761 11.7346 6.18761ZM11.0524 5.70465H11.4932V5.18384H11.0524V5.70465ZM9.07066 6.18761H8.14697C8.01357 6.18761 7.90549 6.07952 7.90549 5.94613V4.94236C7.90549 4.80897 8.01357 4.70088 8.14697 4.70088H9.07066C9.20406 4.70088 9.31214 4.80897 9.31214 4.94236V5.94613C9.31214 6.07943 9.20406 6.18761 9.07066 6.18761ZM8.38854 5.70465H8.82928V5.18384H8.38854V5.70465ZM14.3985 3.78134H13.4748C13.3414 3.78134 13.2333 3.67325 13.2333 3.53986V2.53618C13.2333 2.40279 13.3414 2.2947 13.4748 2.2947H14.3985C14.5319 2.2947 14.64 2.40279 14.64 2.53618V3.53995C14.64 3.67325 14.5319 3.78134 14.3985 3.78134ZM13.7164 3.29838H14.1571V2.77756H13.7164V3.29838ZM11.7346 3.78134H10.8109C10.6776 3.78134 10.5695 3.67325 10.5695 3.53986V2.53618C10.5695 2.40279 10.6776 2.2947 10.8109 2.2947H11.7346C11.868 2.2947 11.9761 2.40279 11.9761 2.53618V3.53995C11.9761 3.67325 11.868 3.78134 11.7346 3.78134ZM11.0524 3.29838H11.4932V2.77756H11.0524V3.29838ZM9.07066 3.78134H8.14697C8.01357 3.78134 7.90549 3.67325 7.90549 3.53986V2.53618C7.90549 2.40279 8.01357 2.2947 8.14697 2.2947H9.07066C9.20406 2.2947 9.31214 2.40279 9.31214 2.53618V3.53995C9.31214 3.67325 9.20406 3.78134 9.07066 3.78134ZM8.38854 3.29838H8.82928V2.77756H8.38854V3.29838Z" fill="white"/>
</svg>
