<svg width="19" height="19" viewBox="0 0 19 19" fill="none" xmlns="http://www.w3.org/2000/svg">
<path d="M3.34639 11.9292C2.74563 11.9292 2.25684 12.4179 2.25684 13.0187C2.25684 13.6195 2.74559 14.1083 3.34639 14.1083C3.94718 14.1083 4.43598 13.6195 4.43598 13.0187C4.43598 12.4179 3.94714 11.9292 3.34639 11.9292ZM3.34639 13.4556C3.10553 13.4556 2.90955 13.2596 2.90955 13.0187C2.90955 12.7779 3.10549 12.5819 3.34639 12.5819C3.58728 12.5819 3.78327 12.7779 3.78327 13.0187C3.78327 13.2596 3.58724 13.4556 3.34639 13.4556Z" fill="white"/>
<path d="M14.6794 11.9292C14.0786 11.9292 13.5898 12.4179 13.5898 13.0187C13.5898 13.6195 14.0786 14.1083 14.6794 14.1083C15.2802 14.1083 15.769 13.6195 15.769 13.0187C15.769 12.4179 15.2802 11.9292 14.6794 11.9292ZM14.6794 13.4556C14.4385 13.4556 14.2425 13.2596 14.2425 13.0187C14.2425 12.7779 14.4385 12.5819 14.6794 12.5819C14.9203 12.5819 15.1163 12.7779 15.1163 13.0187C15.1163 13.2596 14.9203 13.4556 14.6794 13.4556Z" fill="white"/>
<path d="M17.3935 3.79443H1.60698C0.720898 3.79443 0 4.51511 0 5.40097V13.1395C0 13.3198 0.14612 13.4659 0.326356 13.4659H1.20586C1.4129 14.4578 2.29402 15.2053 3.34654 15.2053C4.39906 15.2053 5.28013 14.4578 5.48717 13.4659H12.5392C12.7463 14.4578 13.6274 15.2053 14.6799 15.2053C15.7324 15.2053 16.6135 14.4578 16.8205 13.4659H18.6736C18.8539 13.4659 19 13.3198 19 13.1395V5.40097C19 4.51511 18.2793 3.79443 17.3935 3.79443ZM1.16962 12.8132H0.652712V12.4698H1.22945C1.2006 12.5811 1.18062 12.6959 1.16962 12.8132ZM3.3465 14.5526C2.50058 14.5526 1.81236 13.8644 1.81236 13.0185C1.81236 12.1726 2.50058 11.4844 3.3465 11.4844C4.19241 11.4844 4.88059 12.1726 4.88059 13.0185C4.88059 13.8644 4.19241 14.5526 3.3465 14.5526ZM14.6799 14.5526C13.834 14.5526 13.1458 13.8644 13.1458 13.0185C13.1458 12.1726 13.834 11.4844 14.6799 11.4844C15.5258 11.4844 16.214 12.1726 16.214 13.0185C16.214 13.8644 15.5258 14.5526 14.6799 14.5526ZM18.3473 12.8132H16.8568C16.8458 12.6959 16.8258 12.5811 16.7969 12.4698H18.3473V12.8132ZM18.3473 10.6161H17.8034C17.6231 10.6161 17.477 10.7622 17.477 10.9425C17.477 11.1227 17.6231 11.2688 17.8034 11.2688H18.3473V11.8171H16.5058C16.1143 11.224 15.4422 10.8317 14.6799 10.8317C13.9176 10.8317 13.2455 11.224 12.8539 11.8171H6.72902C6.54879 11.8171 6.40267 11.9632 6.40267 12.1435C6.40267 12.3237 6.54879 12.4698 6.72902 12.4698H12.5628C12.534 12.5811 12.514 12.6959 12.503 12.8132H5.52338C5.41951 11.7033 4.48304 10.8317 3.3465 10.8317C2.58417 10.8317 1.91205 11.224 1.52051 11.8171H0.652712V5.40093C0.652712 4.87498 1.0808 4.4471 1.60698 4.4471H17.3935C17.8048 4.4471 18.1562 4.70888 18.2898 5.07458H16.5832C16.0203 5.07458 15.5624 5.53252 15.5624 6.09542V9.20363C15.5624 9.76653 16.0203 10.2245 16.5832 10.2245H18.3473V10.6161ZM18.3473 9.5718H16.5832C16.3802 9.5718 16.2151 9.40667 16.2151 9.20367V6.09546C16.2151 5.89247 16.3802 5.72733 16.5832 5.72733H18.3473V9.5718Z" fill="white"/>
<path d="M14.1498 5.07471H2.41537C1.85247 5.07471 1.39453 5.53265 1.39453 6.09555V9.20376C1.39453 9.76666 1.85247 10.2246 2.41537 10.2246H14.1498C14.7127 10.2246 15.1707 9.76666 15.1707 9.20376V6.09555C15.1707 5.53265 14.7127 5.07471 14.1498 5.07471ZM5.81513 9.57189H2.41537C2.21238 9.57189 2.04724 9.40675 2.04724 9.20376V6.09555C2.04724 5.89255 2.21238 5.72742 2.41537 5.72742H5.81513V9.57189ZM10.2536 9.57189H6.46784V5.72742H10.2536V9.57189ZM14.518 9.20376C14.518 9.40675 14.3528 9.57189 14.1498 9.57189H10.9063V5.72742H14.1498C14.3528 5.72742 14.518 5.89255 14.518 6.09555V9.20376Z" fill="white"/>
<path d="M6.08787 11.8724C5.96551 11.7917 5.79994 11.8019 5.68989 11.8996C5.59068 11.9877 5.55508 12.1315 5.60064 12.2559C5.64925 12.3886 5.78149 12.4763 5.92282 12.4694C6.05972 12.4627 6.18021 12.3678 6.21946 12.2367C6.25988 12.1018 6.20584 11.95 6.08787 11.8724Z" fill="white"/>
<path d="M6.0918 11.875C6.0943 11.8767 6.09367 11.8763 6.0918 11.875Z" fill="white"/>
<path d="M6.08848 11.8729C6.08287 11.8692 6.07732 11.8656 6.08848 11.8729Z" fill="white"/>
</svg>
