<svg width="19" height="19" viewBox="0 0 19 19" fill="none" xmlns="http://www.w3.org/2000/svg">
<path d="M16.8619 10.9503H14.5431V6.94995C14.5431 6.79523 14.4176 6.66982 14.2629 6.66982H12.4514C12.4514 6.66982 12.4547 4.08071 12.4547 4.02095C12.6026 3.8176 12.6963 3.52752 12.6963 3.04097C12.6963 2.17171 11.9776 1.16052 11.947 1.11794C11.8944 1.04465 11.8096 1.00116 11.7194 1.00116C11.6292 1.00116 11.5444 1.04465 11.4919 1.11803C11.4613 1.16061 10.743 2.17171 10.743 3.04097C10.743 3.54628 10.8561 3.85753 11.0126 4.05988C11.0126 4.1106 11.0111 6.66982 11.0111 6.66982H10.2209C10.2209 6.66982 10.224 4.07955 10.224 4.01979C10.372 3.81644 10.4655 3.52636 10.4655 3.03981C10.4655 2.17055 9.7469 1.15936 9.71627 1.11678C9.66348 1.04349 9.57882 1 9.4886 1C9.39838 1 9.31364 1.04349 9.26101 1.11686C9.23047 1.15944 8.5121 2.17055 8.5121 3.03981C8.5121 3.54512 8.62515 3.85637 8.78169 4.05872C8.78169 4.10993 8.78069 6.66982 8.78069 6.66982H7.99028C7.99028 6.66982 7.99261 4.07955 7.99261 4.01979C8.14051 3.81644 8.23422 3.52636 8.23422 3.03981C8.23422 2.17055 7.51552 1.15936 7.48489 1.11678C7.43227 1.04349 7.34753 1 7.25731 1C7.16709 1 7.08234 1.04349 7.02972 1.11686C6.99918 1.15944 6.28081 2.17055 6.28081 3.03981C6.28081 3.54512 6.39394 3.85637 6.5504 4.05872C6.5504 4.10993 6.54956 6.66982 6.54956 6.66982H4.73867C4.58396 6.66982 4.45854 6.79523 4.45854 6.94995V10.9503H2.13852C1.98381 10.9503 1.8584 11.0758 1.8584 11.2304V12.0624V15.8464V17.7199C1.8584 17.8746 1.98381 18 2.13852 18H16.8618C17.0165 18 17.142 17.8746 17.142 17.7199V11.2303C17.142 11.0756 17.0166 10.9503 16.8619 10.9503ZM11.7193 1.80884C11.9047 2.13586 12.1359 2.62664 12.1359 3.04097C12.1359 3.33778 12.0842 3.83819 11.7374 3.85421C11.7314 3.85446 11.7255 3.85495 11.7196 3.85562C11.7137 3.85495 11.7079 3.85454 11.7018 3.85421C11.3548 3.83819 11.3029 3.33778 11.3029 3.04097C11.303 2.62664 11.5341 2.13586 11.7193 1.80884ZM11.8912 4.41421L11.891 6.66982H11.5711L11.5716 4.41421H11.8912ZM9.48868 1.80767C9.6741 2.13469 9.90526 2.62547 9.90526 3.03981C9.90526 3.33662 9.85355 3.83703 9.50678 3.85313C9.5008 3.85338 9.49491 3.85388 9.48901 3.85454C9.4832 3.85388 9.47723 3.85346 9.47125 3.85313C9.12415 3.83711 9.07235 3.3367 9.07235 3.03981C9.07235 2.62547 9.30343 2.13469 9.48868 1.80767ZM9.66058 4.41305V6.66982H9.34102V4.41305H9.66058ZM7.25739 1.80767C7.44281 2.13469 7.67397 2.62547 7.67397 3.03981C7.67397 3.33662 7.62218 3.83703 7.2754 3.85313C7.26942 3.85338 7.26353 3.85388 7.25764 3.85454C7.25183 3.85388 7.24585 3.85346 7.23988 3.85313C6.89285 3.83711 6.84098 3.3367 6.84098 3.03981C6.84106 2.62547 7.07213 2.13469 7.25739 1.80767ZM7.43003 6.66982H7.10982L7.10973 4.41305H7.42937L7.43003 6.66982ZM5.01879 7.23007H13.9828V8.45034C13.3508 9.61823 12.0161 9.6526 11.8637 9.6526C11.8558 9.6526 11.8501 9.65251 11.8501 9.65251C11.8471 9.65243 11.8441 9.65235 11.8412 9.65235C10.3627 9.65235 9.78184 8.37863 9.7581 8.32526C9.71403 8.22383 9.61451 8.15785 9.50395 8.15677H9.50121C9.39174 8.15677 9.29222 8.22059 9.24657 8.32019C8.66549 9.58835 7.32354 9.65268 7.06043 9.65268C7.04873 9.65268 7.04043 9.65243 7.04043 9.65243C7.03694 9.65235 7.03346 9.65226 7.02997 9.65226C5.82556 9.65226 5.21667 8.80483 5.01896 8.45972L5.01879 7.23007ZM16.5818 15.9619V17.4397H2.41865V15.8464V15.0724C2.84718 15.4555 3.48254 15.8105 4.36575 15.8118C4.37421 15.812 4.38882 15.8124 4.40891 15.8124C4.6985 15.8124 6.13274 15.7484 6.96648 14.5235C7.33201 15.0396 8.09735 15.8101 9.40859 15.8119C9.53923 15.8159 11.1171 15.8334 12.0088 14.5237C12.3728 15.0384 13.1379 15.8106 14.453 15.8119C14.5491 15.814 15.6885 15.8183 16.5816 15.026L16.5818 15.9619ZM16.5818 12.178V14.0794V14.1828C15.8428 15.2676 14.4772 15.251 14.4635 15.2515C14.4611 15.2515 14.4586 15.2515 14.4561 15.2515C12.8968 15.2515 12.2848 13.9086 12.26 13.8522C12.2159 13.7508 12.1164 13.6848 12.0057 13.6838H12.003C11.8935 13.6838 11.7939 13.7477 11.7483 13.8474C11.0883 15.289 9.49109 15.2535 9.42394 15.2518C9.42037 15.2516 9.41689 15.2515 9.41332 15.2515C7.90114 15.2515 7.28038 13.9904 7.22104 13.8614C7.18012 13.7575 7.07877 13.6842 6.96025 13.6842C6.84471 13.6842 6.74553 13.7543 6.7027 13.8542C6.04094 15.289 4.448 15.2537 4.38119 15.2518C4.37762 15.2516 4.37405 15.2515 4.37056 15.2515C3.37929 15.2515 2.76742 14.7191 2.41873 14.2434V14.1873V12.0624V11.5106H10.7416C10.8962 11.5106 11.0217 11.3851 11.0217 11.2304C11.0217 11.0758 10.8962 10.9503 10.7416 10.9503H5.01879V9.37537C5.43006 9.7917 6.0792 10.2114 7.02549 10.2127C7.03204 10.2128 7.04375 10.2131 7.06026 10.2131C7.35043 10.2131 8.70831 10.1487 9.50669 8.99333C9.85961 9.48643 10.5905 10.2112 11.8374 10.2127C11.8426 10.2128 11.8514 10.2129 11.8636 10.2129C12.017 10.2129 13.1477 10.184 13.9826 9.37147V10.9502H13.1194C12.9647 10.9502 12.8392 11.0757 12.8392 11.2303C12.8392 11.3851 12.9647 11.5105 13.1194 11.5105H14.2627H14.8624H16.5817L16.5818 12.178Z" fill="white"/>
</svg>
