<svg width="19" height="19" viewBox="0 0 19 19" fill="none" xmlns="http://www.w3.org/2000/svg">
<path d="M18.9214 7.98923L16.5589 5.42491L15.5193 2.09665C15.4813 1.9746 15.3694 1.89082 15.2418 1.88821C15.1093 1.88646 14.9988 1.96504 14.9562 2.08563L13.6376 5.79672C13.3299 5.56014 12.9755 5.38421 12.5891 5.28081C11.8185 5.0741 11.0148 5.17993 10.3245 5.57828L5.69137 8.25303C4.61505 8.87472 4.07334 10.0703 4.22656 11.2322L0.3505 10.5185C0.224121 10.4967 0.098869 10.5556 0.0368221 10.6669C-0.024631 10.7788 -0.00812471 10.9177 0.0785628 11.0116L2.44139 13.5756L3.48105 16.9036C3.51902 17.0256 3.63064 17.1094 3.75848 17.1121C3.76052 17.1121 3.76225 17.1121 3.7643 17.1121C3.88952 17.1121 4.00174 17.0332 4.04404 16.9149L5.36609 13.2066C5.67296 13.4419 6.02622 13.6169 6.41123 13.72C6.66868 13.7887 6.92961 13.8229 7.18907 13.8229C7.66758 13.8229 8.65837 13.4321 8.67547 13.4223L13.3089 10.7472C13.9989 10.3489 14.4927 9.70523 14.6988 8.93493C14.802 8.55003 14.8271 8.15658 14.7767 7.77314L18.6498 8.48237C18.6675 8.48584 18.6854 8.4873 18.7031 8.4873C18.8098 8.4873 18.9104 8.42962 18.9632 8.33364C19.0246 8.22201 19.0081 8.08316 18.9214 7.98923ZM7.96133 7.62826L10.1685 6.35401L10.8959 11.4546L8.68859 12.729L7.96133 7.62826ZM3.78285 15.879L2.98817 13.335C2.97514 13.293 2.95309 13.2544 2.92325 13.2222L1.11822 11.2636L4.32411 11.8538L4.5981 12.3285L4.59896 12.3301L4.60003 12.3318L4.87669 12.8111L3.78285 15.879ZM6.56489 13.1463C5.94778 12.981 5.43247 12.5861 5.11356 12.0337L5.11306 12.0328C4.45444 10.8915 4.84697 9.42655 5.98824 8.76737L7.40701 7.94826L8.13165 13.0306C7.63872 13.2447 7.09188 13.2875 6.56489 13.1463ZM14.1254 8.78126C13.9601 9.3985 13.5646 9.91399 13.0121 10.2329L11.4503 11.1345L10.724 6.04191C11.065 5.86586 11.4353 5.77163 11.8121 5.77163C12.02 5.77163 12.229 5.79889 12.4354 5.85428C13.0524 6.01952 13.5678 6.41496 13.8867 6.96756C14.2059 7.52014 14.2906 8.16433 14.1254 8.78126ZM14.6788 7.15166L14.1262 6.19462L15.2177 3.12268L16.0121 5.66553C16.0252 5.70757 16.0472 5.74584 16.0771 5.77831L17.883 7.73843L14.6788 7.15166Z" fill="white"/>
</svg>
