<svg width="19" height="19" viewBox="0 0 19 19" fill="none" xmlns="http://www.w3.org/2000/svg">
<path d="M16.8052 3.2666H2.19482C1.53607 3.2666 1 3.80267 1 4.46142V14.5385C1 15.1972 1.53607 15.7333 2.19482 15.7333H16.8052C17.4639 15.7333 18 15.1972 18 14.5385V4.46142C18 3.80267 17.4639 3.2666 16.8052 3.2666ZM17.4333 14.5385C17.4333 14.8847 17.1517 15.1666 16.8052 15.1666H2.19482C1.8483 15.1666 1.56667 14.8847 1.56667 14.5385V4.46142C1.56667 4.11518 1.8483 3.83327 2.19482 3.83327H16.8052C17.1517 3.83327 17.4333 4.11518 17.4333 4.46142V14.5385Z" fill="white"/>
<path d="M2.69936 6.09987H5.24936C5.40604 6.09987 5.53269 5.97294 5.53269 5.81654C5.53269 5.66014 5.40604 5.5332 5.24936 5.5332H2.69936C2.54267 5.5332 2.41602 5.66014 2.41602 5.81654C2.41602 5.97294 2.54267 6.09987 2.69936 6.09987Z" fill="white"/>
<path d="M8.93392 5.5332H6.38392C6.22724 5.5332 6.10059 5.66014 6.10059 5.81654C6.10059 5.97294 6.22724 6.09987 6.38392 6.09987H8.93392C9.0906 6.09987 9.21725 5.97294 9.21725 5.81654C9.21725 5.66014 9.0906 5.5332 8.93392 5.5332Z" fill="white"/>
<path d="M2.69936 7.51637H2.98269C3.13937 7.51637 3.26602 7.38944 3.26602 7.23304C3.26602 7.07664 3.13937 6.94971 2.98269 6.94971H2.69936C2.54267 6.94971 2.41602 7.07664 2.41602 7.23304C2.41602 7.38944 2.54267 7.51637 2.69936 7.51637Z" fill="white"/>
<path d="M4.11731 6.94971C3.96063 6.94971 3.83398 7.07664 3.83398 7.23304C3.83398 7.38944 3.96063 7.51637 4.11731 7.51637H4.68398C4.84066 7.51637 4.96731 7.38944 4.96731 7.23304C4.96731 7.07664 4.84066 6.94971 4.68398 6.94971H4.11731Z" fill="white"/>
<path d="M6.3832 7.23304C6.3832 7.07664 6.25655 6.94971 6.09987 6.94971H5.81654C5.65985 6.94971 5.5332 7.07664 5.5332 7.23304C5.5332 7.38944 5.65985 7.51637 5.81654 7.51637H6.09987C6.25655 7.51637 6.3832 7.38944 6.3832 7.23304Z" fill="white"/>
<path d="M7.8002 7.51637C7.95688 7.51637 8.08353 7.38944 8.08353 7.23304C8.08353 7.07664 7.95688 6.94971 7.8002 6.94971H7.23353C7.07685 6.94971 6.9502 7.07664 6.9502 7.23304C6.9502 7.38944 7.07685 7.51637 7.23353 7.51637H7.8002Z" fill="white"/>
<path d="M8.73158 7.03224C8.6803 7.08607 8.64941 7.15974 8.64941 7.2334C8.64941 7.30707 8.6803 7.38074 8.73158 7.43457C8.78513 7.48557 8.85908 7.51674 8.93275 7.51674C9.00925 7.51674 9.08008 7.48557 9.13391 7.43457C9.18491 7.38074 9.21608 7.30707 9.21608 7.2334C9.21608 7.15974 9.18491 7.08607 9.13391 7.03224C9.02625 6.9274 8.83641 6.9274 8.73158 7.03224Z" fill="white"/>
<path d="M11.4834 8.65H16.5834V5.25H11.4834V8.65ZM12.0501 5.81667H16.0167V8.08333H12.0501V5.81667Z" fill="white"/>
<path d="M2.41602 13.7501H5.53269V11.4834H2.41602V13.7501ZM2.98269 12.0501H4.96602V13.1834H2.98269V12.0501Z" fill="white"/>
<path d="M6.10059 13.7501H9.21725V11.4834H6.10059V13.7501ZM6.66725 12.0501H8.65059V13.1834H6.66725V12.0501Z" fill="white"/>
<path d="M9.7832 13.7501H12.8999V11.4834H9.7832V13.7501ZM10.3499 12.0501H12.3332V13.1834H10.3499V12.0501Z" fill="white"/>
<path d="M13.4668 13.7501H16.5835V11.4834H13.4668V13.7501ZM14.0335 12.0501H16.0168V13.1834H14.0335V12.0501Z" fill="white"/>
</svg>
