<svg width="19" height="19" viewBox="0 0 19 19" fill="none" xmlns="http://www.w3.org/2000/svg">
<path d="M5.9375 6.53125C5.40905 6.53125 4.89247 6.68795 4.45309 6.98154C4.0137 7.27513 3.67124 7.69242 3.46901 8.18064C3.26678 8.66886 3.21387 9.20609 3.31697 9.72438C3.42006 10.2427 3.67453 10.7188 4.0482 11.0924C4.42187 11.4661 4.89795 11.7206 5.41624 11.8237C5.93454 11.9268 6.47176 11.8738 6.95998 11.6716C7.44821 11.4694 7.8655 11.1269 8.15908 10.6875C8.45267 10.2482 8.60938 9.73157 8.60938 9.20313C8.60859 8.49474 8.32684 7.8156 7.82593 7.31469C7.32503 6.81379 6.64589 6.53204 5.9375 6.53125ZM5.9375 11.2813C5.60474 11.2822 5.27665 11.203 4.98098 11.0503C4.6853 10.8977 4.43074 10.676 4.23881 10.4042C4.04688 10.1324 3.92323 9.81832 3.87832 9.48861C3.83341 9.15889 3.86856 8.82321 3.9808 8.50995C5.27252 8.25206 6.60248 8.25206 7.8942 8.50995C8.00644 8.82321 8.04159 9.15889 7.99668 9.48861C7.95177 9.81832 7.82812 10.1324 7.63619 10.4042C7.44426 10.676 7.1897 10.8977 6.89402 11.0503C6.59835 11.203 6.27026 11.2822 5.9375 11.2813Z" fill="white"/>
<path d="M9.5 11.875H8.90625C8.67004 11.875 8.44351 11.9688 8.27648 12.1359C8.10946 12.3029 8.01563 12.5294 8.01562 12.7656C8.01563 13.0018 8.10946 13.2284 8.27648 13.3954C8.44351 13.5624 8.67004 13.6562 8.90625 13.6562H9.5C9.73621 13.6562 9.96274 13.5624 10.1298 13.3954C10.2968 13.2284 10.3906 13.0018 10.3906 12.7656C10.3906 12.5294 10.2968 12.3029 10.1298 12.1359C9.96274 11.9688 9.73621 11.875 9.5 11.875Z" fill="white"/>
<path d="M5.9375 9.5C6.10146 9.5 6.23438 9.36708 6.23438 9.20312C6.23438 9.03917 6.10146 8.90625 5.9375 8.90625C5.77354 8.90625 5.64062 9.03917 5.64062 9.20312C5.64062 9.36708 5.77354 9.5 5.9375 9.5Z" fill="white"/>
<path d="M15.1406 9.20313C15.1406 8.67468 14.9839 8.1581 14.6903 7.71871C14.3967 7.27932 13.9795 6.93686 13.4912 6.73464C13.003 6.53241 12.4658 6.4795 11.9475 6.58259C11.4292 6.68569 10.9531 6.94016 10.5795 7.31383C10.2058 7.68749 9.95131 8.16358 9.84822 8.68187C9.74512 9.20016 9.79803 9.73739 10.0003 10.2256C10.2025 10.7138 10.5449 11.1311 10.9843 11.4247C11.4237 11.7183 11.9403 11.875 12.4688 11.875C13.1771 11.8742 13.8563 11.5925 14.3572 11.0916C14.8581 10.5907 15.1398 9.91151 15.1406 9.20313ZM12.4688 11.2813C12.136 11.2822 11.8079 11.203 11.5122 11.0503C11.2166 10.8977 10.962 10.676 10.7701 10.4042C10.5781 10.1324 10.4545 9.81832 10.4096 9.48861C10.3647 9.15889 10.3998 8.82321 10.512 8.50995C11.8038 8.25206 13.1337 8.25206 14.4255 8.50995C14.5377 8.82321 14.5728 9.15889 14.5279 9.48861C14.483 9.81832 14.3594 10.1324 14.1674 10.4042C13.9755 10.676 13.7209 10.8977 13.4253 11.0503C13.1296 11.203 12.8015 11.2822 12.4688 11.2813Z" fill="white"/>
<path d="M12.4688 9.5C12.6327 9.5 12.7656 9.36708 12.7656 9.20312C12.7656 9.03917 12.6327 8.90625 12.4688 8.90625C12.3048 8.90625 12.1719 9.03917 12.1719 9.20312C12.1719 9.36708 12.3048 9.5 12.4688 9.5Z" fill="white"/>
<path d="M17.5452 13.064L15.8719 12.8967C15.9384 12.7203 15.9973 12.5402 16.0498 12.3575L17.5524 12.1697C17.6298 12.159 17.6998 12.1183 17.7473 12.0563C17.7949 11.9944 17.8161 11.9162 17.8064 11.8387C17.7967 11.7613 17.7569 11.6907 17.6956 11.6424C17.6343 11.5941 17.5564 11.5718 17.4788 11.5805L16.1982 11.7406C16.436 10.5131 16.3462 9.2446 15.9377 8.06285C15.5293 6.88111 14.8167 5.82786 13.8716 5.00918C13.7448 4.14753 13.4639 2.59068 13.0125 1.91354C12.9764 1.85931 12.9234 1.81847 12.8618 1.79733C12.8002 1.77619 12.7333 1.77592 12.6716 1.79657C12.5766 1.82828 11.8021 2.12943 11.1941 3.55286C9.8931 3.17835 8.51286 3.17835 7.21187 3.55286C6.60387 2.12943 5.82944 1.82828 5.73441 1.79657C5.67263 1.7759 5.60575 1.77615 5.54413 1.79729C5.4825 1.81844 5.42956 1.85929 5.39348 1.91354C4.94193 2.59077 4.66106 4.14797 4.53424 5.00959L4.52996 5.01203C3.58634 5.83104 2.87496 6.88405 2.46734 8.06518C2.05973 9.24631 1.97025 10.5139 2.20789 11.7406L0.927294 11.5805C0.888358 11.5752 0.848742 11.5776 0.810746 11.5876C0.772749 11.5977 0.737128 11.6152 0.70595 11.6391C0.674771 11.6631 0.648655 11.6929 0.629118 11.7271C0.60958 11.7612 0.59701 11.7988 0.592135 11.8378C0.587261 11.8768 0.59018 11.9164 0.600723 11.9543C0.611266 11.9921 0.629224 12.0275 0.653553 12.0584C0.677883 12.0893 0.7081 12.115 0.742453 12.1341C0.776805 12.1532 0.814608 12.1653 0.853669 12.1697L2.35624 12.3575C2.40882 12.5402 2.46769 12.7203 2.53422 12.8967L0.860794 13.064C0.782888 13.0724 0.711455 13.1113 0.662069 13.1721C0.612682 13.2329 0.589347 13.3108 0.597152 13.3888C0.604956 13.4668 0.643267 13.5385 0.703731 13.5883C0.764196 13.6381 0.84191 13.6621 0.919932 13.6548L2.77798 13.469C2.87676 13.6744 2.98497 13.8741 3.10262 14.0682L2.56738 14.2689C2.53087 14.2826 2.49741 14.3033 2.46892 14.3299C2.44043 14.3566 2.41745 14.3885 2.40132 14.424C2.38518 14.4595 2.37619 14.4978 2.37486 14.5368C2.37354 14.5758 2.3799 14.6146 2.39359 14.6511C2.40728 14.6877 2.42802 14.7211 2.45464 14.7496C2.48126 14.7781 2.51323 14.8011 2.54872 14.8172C2.62041 14.8498 2.70211 14.8526 2.77585 14.8249L3.44141 14.5753C4.10111 15.4858 4.9672 16.227 5.96868 16.7381C6.97016 17.2492 8.07851 17.5157 9.20286 17.5157C10.3272 17.5157 11.4356 17.2492 12.437 16.7381C13.4385 16.227 14.3046 15.4858 14.9643 14.5753L15.6299 14.8249C15.6664 14.8386 15.7052 14.845 15.7442 14.8437C15.7832 14.8423 15.8215 14.8333 15.857 14.8172C15.8925 14.8011 15.9245 14.7781 15.9511 14.7496C15.9777 14.7211 15.9984 14.6877 16.0121 14.6511C16.0258 14.6146 16.0322 14.5758 16.0309 14.5368C16.0295 14.4978 16.0205 14.4595 16.0044 14.424C15.9883 14.3885 15.9653 14.3566 15.9368 14.3299C15.9083 14.3033 15.8749 14.2826 15.8383 14.2689L15.3031 14.0682C15.4204 13.8742 15.5286 13.6745 15.6277 13.469L17.4858 13.6548C17.4959 13.6558 17.5058 13.6563 17.5157 13.6563C17.5918 13.6562 17.6649 13.6268 17.72 13.5743C17.7751 13.5218 17.8079 13.4502 17.8117 13.3742C17.8155 13.2982 17.79 13.2236 17.7404 13.1659C17.6908 13.1082 17.6209 13.0717 17.5452 13.064ZM14.7358 13.8554L13.4636 13.3783C13.4271 13.3646 13.3882 13.3583 13.3493 13.3596C13.3103 13.3609 13.272 13.3699 13.2365 13.386C13.201 13.4022 13.169 13.4252 13.1424 13.4536C13.1158 13.4821 13.095 13.5156 13.0813 13.5521C13.0537 13.6258 13.0565 13.7075 13.0891 13.7792C13.1216 13.8509 13.1814 13.9067 13.2551 13.9344L14.386 14.3585C13.7774 15.1555 12.9931 15.8014 12.0942 16.2461C11.1953 16.6907 10.206 16.922 9.2031 16.922C8.20024 16.922 7.21089 16.6907 6.31198 16.2461C5.41306 15.8014 4.6288 15.1555 4.02017 14.3585L5.15108 13.9344C5.22482 13.9067 5.28455 13.8509 5.31715 13.7792C5.34974 13.7075 5.35252 13.6258 5.32487 13.5521C5.29723 13.4784 5.24143 13.4186 5.16974 13.386C5.09805 13.3535 5.01635 13.3507 4.94262 13.3783L3.67042 13.8554C3.57857 13.7092 3.49247 13.5593 3.41214 13.4057L3.88892 13.358C3.96683 13.3496 4.03826 13.3108 4.08764 13.25C4.13703 13.1891 4.16037 13.1112 4.15256 13.0333C4.14476 12.9553 4.10645 12.8836 4.04598 12.8338C3.98552 12.7839 3.9078 12.76 3.82978 12.7672L3.14831 12.8355C3.09548 12.7052 3.04685 12.5728 3.00242 12.4384L5.60379 12.7636C5.61611 12.7651 5.62851 12.7658 5.64093 12.7657C5.7164 12.7656 5.78898 12.7367 5.8439 12.6849C5.89883 12.6331 5.93198 12.5624 5.93661 12.4871C5.94124 12.4117 5.91701 12.3375 5.86884 12.2794C5.82067 12.2213 5.75218 12.1837 5.67729 12.1743L2.83083 11.8185C2.5922 10.7586 2.62241 9.6559 2.91868 8.61068C3.21496 7.56546 3.7679 6.61092 4.5272 5.83392C4.5646 5.87784 4.61406 5.90983 4.66946 5.92591C4.72486 5.94199 4.78376 5.94147 4.83886 5.9244C4.89397 5.90734 4.94285 5.87448 4.97946 5.8299C5.01607 5.78532 5.0388 5.73098 5.04483 5.67361C5.11715 5.0236 5.37344 3.3215 5.75395 2.489C6.02039 2.6921 6.48571 3.17775 6.84318 4.25039C6.85544 4.28743 6.87489 4.32169 6.90042 4.35119C6.92595 4.38069 6.95706 4.40485 6.99196 4.4223C7.02686 4.43974 7.06486 4.45011 7.10378 4.45283C7.1427 4.45554 7.18178 4.45054 7.21876 4.43811C7.28433 4.41563 7.33981 4.37062 7.37532 4.31109C7.41084 4.25155 7.42408 4.18135 7.41271 4.11297C8.58344 3.78332 9.82246 3.78332 10.9932 4.11297C10.9818 4.18135 10.9951 4.25155 11.0306 4.31109C11.0661 4.37062 11.1216 4.41563 11.1871 4.43811C11.2241 4.45052 11.2632 4.45551 11.3021 4.45279C11.341 4.45007 11.379 4.43969 11.4139 4.42225C11.4488 4.40481 11.4799 4.38065 11.5055 4.35116C11.531 4.32167 11.5505 4.28742 11.5627 4.25039C11.9208 3.17597 12.3871 2.69049 12.6518 2.48841C13.0323 3.32079 13.2886 5.02346 13.3611 5.67361C13.3691 5.74616 13.4036 5.81321 13.4579 5.86195C13.5123 5.91069 13.5826 5.9377 13.6556 5.93783C13.6981 5.93787 13.7401 5.9286 13.7787 5.91068C13.8172 5.89275 13.8514 5.8666 13.8788 5.83407C14.638 6.6111 15.191 7.56565 15.4872 8.61088C15.7835 9.65611 15.8137 10.7588 15.5751 11.8187L12.7287 12.1743C12.6538 12.1837 12.5853 12.2213 12.5371 12.2794C12.489 12.3375 12.4647 12.4117 12.4694 12.4871C12.474 12.5624 12.5071 12.6331 12.5621 12.6849C12.617 12.7367 12.6896 12.7656 12.765 12.7657C12.7775 12.7657 12.7899 12.765 12.8023 12.7634L15.4037 12.4382C15.3592 12.5726 15.3106 12.7049 15.2578 12.8353L14.5763 12.767C14.5374 12.7628 14.498 12.7664 14.4604 12.7775C14.4228 12.7886 14.3878 12.807 14.3574 12.8317C14.327 12.8564 14.3018 12.8869 14.2832 12.9213C14.2646 12.9558 14.253 12.9936 14.2491 13.0326C14.2452 13.0716 14.2491 13.111 14.2605 13.1484C14.2719 13.1859 14.2905 13.2208 14.3155 13.251C14.3404 13.2812 14.371 13.3062 14.4056 13.3246C14.4403 13.3429 14.4782 13.3542 14.5172 13.3578L14.9939 13.4055C14.9136 13.5592 14.8276 13.7092 14.7358 13.8554Z" fill="white"/>
</svg>
