<svg width="19" height="19" viewBox="0 0 19 19" fill="none" xmlns="http://www.w3.org/2000/svg">
<path d="M15.4198 2H3.58024C2.70743 2 2 2.71049 2 3.58024V15.4198C2 16.2926 2.71049 17 3.58024 17H15.4198C16.2926 17 17 16.2895 17 15.4198V3.58024C17 2.71049 16.2895 2 15.4198 2ZM16.2497 15.4198C16.2497 15.8761 15.8761 16.2497 15.4198 16.2497H3.58024C3.12393 16.2497 2.75031 15.8761 2.75031 15.4198V3.58024C2.75031 3.12393 3.12393 2.75031 3.58024 2.75031H15.4198C15.8761 2.75031 16.2497 3.12393 16.2497 3.58024V15.4198Z" fill="white"/>
<path d="M11.7845 7.44814L8.45555 10.7556L7.21525 9.50919C7.06825 9.36219 6.83244 9.36219 6.68544 9.50919C6.53845 9.65618 6.53845 9.89199 6.68544 10.039L8.18912 11.5519C8.25956 11.6223 8.35449 11.6621 8.45555 11.6621C8.55355 11.6621 8.64849 11.6223 8.71893 11.5519L12.3143 7.97795C12.4613 7.83095 12.4613 7.59514 12.3143 7.44814C12.1673 7.30114 11.9315 7.30114 11.7845 7.44814Z" fill="white"/>
</svg>
