<svg width="19" height="19" viewBox="0 0 19 19" fill="none" xmlns="http://www.w3.org/2000/svg">
<path d="M18.8075 6.23667L15.2538 2.68303C14.8571 2.28633 14.3297 2.06787 13.7686 2.06787H5.23329C4.67227 2.06787 4.14476 2.28637 3.7481 2.68303L0.194493 6.23667C-0.063529 6.49477 -0.063529 6.91466 0.194493 7.17272L2.11064 9.08887C2.2357 9.21393 2.40188 9.28276 2.5787 9.28276C2.75553 9.28276 2.9217 9.21393 3.04676 9.08887L4.18762 7.94801V16.0971C4.18762 16.5577 4.56235 16.9324 5.02295 16.9324H13.9791C14.4397 16.9324 14.8144 16.5577 14.8144 16.0971V7.94801L15.9553 9.08887C16.0803 9.21393 16.2465 9.28276 16.4233 9.28276C16.6001 9.28276 16.7663 9.21393 16.8914 9.08887L18.8075 7.17268C19.0655 6.91463 19.0655 6.49473 18.8075 6.23667ZM10.8181 2.66786C10.6812 3.26884 10.1429 3.71887 9.50103 3.71887C8.85922 3.71887 8.32087 3.26884 8.18401 2.66786H10.8181ZM7.57315 2.66786C7.71792 3.60172 8.52727 4.31889 9.5011 4.31889C10.4749 4.31889 11.2843 3.60175 11.4291 2.66786H11.8949C11.7466 3.85725 10.73 4.78094 9.50114 4.78094C8.27226 4.78094 7.25564 3.85733 7.10743 2.66786H7.57315ZM14.2143 16.0971C14.2143 16.2269 14.1088 16.3324 13.979 16.3324H5.02292C4.89314 16.3324 4.78761 16.2268 4.78761 16.0971V14.2067H14.2143V16.0971ZM14.2143 13.6067H4.78761V12.3952H14.2143V13.6067ZM14.2143 11.7951H4.78761V10.8808H14.2143V11.7951ZM14.2143 10.2807H4.78761V9.06924H14.2143V10.2807ZM18.3832 6.74845L16.467 8.6646C16.4521 8.67955 16.4349 8.6827 16.4233 8.6827C16.4116 8.6827 16.3945 8.67955 16.3795 8.6646L15.0939 7.37901C14.946 7.23113 14.7256 7.18727 14.5324 7.26731C14.3392 7.34732 14.2143 7.5342 14.2143 7.74332V8.46918H4.78761V7.74332C4.78761 7.5342 4.66277 7.34736 4.46954 7.26731C4.40538 7.24074 4.33828 7.22783 4.27182 7.22783C4.138 7.22783 4.00686 7.28019 3.908 7.37898L2.62242 8.66456C2.60746 8.67951 2.59032 8.68267 2.57867 8.68267C2.56701 8.68267 2.54987 8.67951 2.53491 8.66456L0.618765 6.74841C0.594607 6.72425 0.594607 6.68499 0.618765 6.66087L4.1724 3.10727C4.45577 2.8239 4.83254 2.66782 5.23329 2.66782H6.50299C6.65406 4.1889 7.94087 5.38093 9.50106 5.38093C11.0613 5.38093 12.3481 4.18894 12.4991 2.66782H13.7686C14.1694 2.66782 14.5462 2.82386 14.8295 3.10727L18.3832 6.66087C18.4073 6.68503 18.4073 6.72433 18.3832 6.74845Z" fill="white"/>
</svg>
