<svg width="19" height="19" viewBox="0 0 19 19" fill="none" xmlns="http://www.w3.org/2000/svg">
<path d="M14.9306 4.30566H5.95833C5.77047 4.30566 5.5903 4.38029 5.45747 4.51313C5.32463 4.64597 5.25 4.82614 5.25 5.014V16.3473C5.25 16.5352 5.32463 16.7154 5.45747 16.8482C5.5903 16.981 5.77047 17.0557 5.95833 17.0557H14.9306C15.1184 17.0557 15.2986 16.981 15.4314 16.8482C15.5643 16.7154 15.6389 16.5352 15.6389 16.3473V5.014C15.6389 4.82614 15.5643 4.64597 15.4314 4.51313C15.2986 4.38029 15.1184 4.30566 14.9306 4.30566ZM14.9191 16.3359H5.96977V5.02544H14.9191V16.3359Z" fill="white"/>
<path d="M13.2776 2.65267C13.2776 2.46481 13.2029 2.28464 13.0701 2.1518C12.9373 2.01896 12.7571 1.94434 12.5692 1.94434H3.59701C3.40914 1.94434 3.22898 2.01896 3.09614 2.1518C2.9633 2.28464 2.88867 2.46481 2.88867 2.65267V13.986C2.88867 14.1739 2.9633 14.354 3.09614 14.4869C3.22898 14.6197 3.40914 14.6943 3.59701 14.6943H3.60845V2.66411H13.2776V2.65267Z" fill="white"/>
</svg>
