<svg width="19" height="19" viewBox="0 0 19 19" fill="none" xmlns="http://www.w3.org/2000/svg">
<path d="M5.31055 12.8386C5.73953 14.8906 6.84798 15.9879 9.15281 16.3685V17.8125H10.0899L10.0537 16.3866C12.5865 15.9389 13.8636 14.5524 13.8636 12.3412C13.8636 10.4531 11.7231 9.03503 10.9654 8.81784L10.0537 8.57468L10.066 3.62614C11.3984 3.75676 12.6227 4.96496 12.8495 6.03608L13.7389 6.05417C13.2162 4.09991 11.669 2.82108 10.0537 2.7788L10.0718 1.16943L9.15281 1.18752V2.7904C7.33863 2.95499 5.52606 4.33645 5.55611 6.32785C5.58259 8.08202 6.65145 8.5938 8.33867 9.25388L9.17208 9.46711L9.13591 15.2707C7.77147 15.0688 6.50353 13.8926 6.27672 12.8025L5.31055 12.8386ZM8.77662 8.3859C7.53806 8.07358 6.59749 7.18939 6.59749 6.25007C6.59749 5.12908 7.90557 3.76774 9.15281 3.70847V8.44646L8.77662 8.38708V8.3859ZM13.0039 12.5709C13.0039 13.8736 11.7635 14.9295 10.0718 15.2835L10.0537 9.6313C11.5662 9.90178 12.9708 11.1746 13.0039 12.5709Z" fill="white"/>
</svg>
