<svg width="19" height="19" viewBox="0 0 19 19" fill="none" xmlns="http://www.w3.org/2000/svg">
<path d="M14.2281 7.47699L14.6312 7.05368C16.0733 5.53944 16.0738 3.08933 14.6322 1.57565C13.934 0.84265 13.0059 0.452148 12.0186 0.452148H12.0172C11.0295 0.452148 10.1007 0.843626 9.402 1.57725L2.08501 9.25357C1.38526 9.98828 0.999967 10.9606 1 11.9975C1.0001 13.0337 1.38486 14.0102 2.08345 14.7437C2.78182 15.477 3.71011 15.8833 4.69727 15.8833H4.69857C5.68517 15.8833 6.61277 15.4765 7.3103 14.7441L8.5006 13.4925C8.97517 15.7547 10.8986 17.4521 13.1936 17.4521C15.8439 17.4521 18 15.1878 18 12.4051C18 9.99525 16.3826 7.97525 14.2281 7.47699ZM9.92495 2.12627C10.4841 1.53918 11.2272 1.22855 12.0175 1.22855H12.0186C12.8084 1.22855 13.5509 1.53834 14.1094 2.12467C15.2626 3.33553 15.2622 5.29972 14.1083 6.51121L13.2931 7.36393C13.2599 7.36319 13.227 7.35967 13.1937 7.35967C11.7196 7.35967 10.3991 8.05983 9.51669 9.16028L6.36544 5.85767L9.92495 2.12627ZM8.38728 12.4047C8.38728 12.4398 8.38914 12.476 8.3898 12.5108L6.78738 14.195C6.22947 14.7808 5.48768 15.1068 4.69847 15.1068H4.69744C3.90774 15.1068 3.16508 14.7798 2.6063 14.193C2.04733 13.6062 1.7395 12.8247 1.7394 11.9959C1.73937 11.1664 2.04773 10.3848 2.60783 9.79685L5.84252 6.40007L9.07937 9.79852C8.64039 10.5598 8.38728 11.4517 8.38728 12.4047ZM13.1937 16.6749C10.9512 16.6749 9.12675 14.7593 9.12675 12.4046C9.12675 11.3668 9.48152 10.4146 10.07 9.67374L15.7945 15.6845C15.089 16.3024 14.1821 16.6749 13.1937 16.6749ZM16.3174 15.1355L10.5928 9.12476C11.2983 8.50691 12.2053 8.1344 13.1937 8.1344C15.4362 8.1344 17.2606 10.05 17.2606 12.4046C17.2606 13.4425 16.9059 14.3947 16.3174 15.1355Z" fill="white"/>
</svg>
