<svg width="19" height="19" viewBox="0 0 19 19" fill="none" xmlns="http://www.w3.org/2000/svg">
<path d="M10.2156 13.5264H8.06822C7.91997 13.5264 7.7998 13.6465 7.7998 13.7948C7.7998 13.9431 7.92 14.0632 8.06822 14.0632H10.2156C10.3638 14.0632 10.484 13.9431 10.484 13.7948C10.484 13.6465 10.3638 13.5264 10.2156 13.5264Z" fill="white"/>
<path d="M12.3636 13.5264H11.2899C11.1417 13.5264 11.0215 13.6465 11.0215 13.7948C11.0215 13.9431 11.1417 14.0632 11.2899 14.0632H12.3636C12.5119 14.0632 12.632 13.9431 12.632 13.7948C12.632 13.6465 12.5118 13.5264 12.3636 13.5264Z" fill="white"/>
<path d="M12.3631 14.958H10.2157C10.0674 14.958 9.94727 15.0781 9.94727 15.2264C9.94727 15.3747 10.0675 15.4948 10.2157 15.4948H12.3631C12.5113 15.4948 12.6315 15.3747 12.6315 15.2264C12.6315 15.0782 12.5113 14.958 12.3631 14.958Z" fill="white"/>
<path d="M9.14191 14.958H8.06822C7.91997 14.958 7.7998 15.0781 7.7998 15.2264C7.7998 15.3747 7.92 15.4948 8.06822 15.4948H9.14191C9.29016 15.4948 9.41033 15.3747 9.41033 15.2264C9.41033 15.0782 9.29016 14.958 9.14191 14.958Z" fill="white"/>
<path d="M13.1687 12.4526H11.8304C11.6821 12.4526 11.562 12.5728 11.562 12.7211C11.562 12.8693 11.6822 12.9895 11.8304 12.9895H13.1687C13.3661 12.9895 13.526 13.1495 13.526 13.3468V15.6742C13.526 15.8716 13.366 16.0315 13.1687 16.0315H7.26236C7.06496 16.0315 6.90499 15.8715 6.90499 15.6742V13.3468C6.90499 13.1494 7.065 12.9895 7.26236 12.9895H10.6468C10.7951 12.9895 10.9153 12.8693 10.9153 12.7211C10.9153 12.5728 10.7951 12.4526 10.6468 12.4526H7.26236C6.76849 12.4526 6.36816 12.853 6.36816 13.3468V15.6742C6.36816 16.168 6.76849 16.5684 7.26236 16.5684H13.1686C13.6625 16.5684 14.0629 16.168 14.0629 15.6742V13.3469C14.0629 12.853 13.6625 12.4526 13.1687 12.4526Z" fill="white"/>
<path d="M10.2156 5.29492C8.48881 5.29492 7.08398 6.69975 7.08398 8.42651C7.08398 10.1533 8.48884 11.5581 10.2156 11.5581C11.9423 11.5581 13.3472 10.1533 13.3472 8.42651C13.3472 6.69975 11.9423 5.29492 10.2156 5.29492ZM10.2156 6.18968C10.8569 6.18968 11.3787 6.71147 11.3787 7.35285C11.3787 7.99424 10.8569 8.51602 10.2156 8.51602C9.57422 8.51602 9.0524 7.99424 9.0524 7.35285C9.0524 6.71147 9.57422 6.18968 10.2156 6.18968ZM7.88205 9.56016C7.71488 9.21747 7.62081 8.83281 7.62081 8.42654C7.62081 7.4079 8.2111 6.52493 9.06731 6.1005C8.7284 6.41151 8.51554 6.85773 8.51554 7.35285C8.51554 7.89781 8.77362 8.38334 9.17359 8.69466C8.68062 8.86877 8.2356 9.16501 7.88205 9.56016ZM10.2156 11.0213C9.39237 11.0213 8.65804 10.6355 8.18238 10.0357C8.67335 9.41699 9.42009 9.05285 10.2156 9.05285C11.0111 9.05285 11.7578 9.41702 12.2488 10.0357C11.7731 10.6355 11.0388 11.0213 10.2156 11.0213ZM11.2574 8.69472C11.6575 8.38338 11.9155 7.89785 11.9155 7.35282C11.9155 6.85769 11.7027 6.41148 11.3638 6.10046C12.22 6.5249 12.8103 7.40784 12.8103 8.42651C12.8103 8.83278 12.7162 9.21744 12.549 9.56016C12.1955 9.16501 11.7504 8.86884 11.2574 8.69472Z" fill="white"/>
<path d="M17.7316 12.6316C17.8306 12.6316 17.9215 12.5771 17.9683 12.4898C18.015 12.4026 18.0099 12.2967 17.9549 12.2143L17.3384 11.2894L17.9549 10.3646C18.0098 10.2823 18.0149 10.1763 17.9683 10.0891C17.9215 10.0018 17.8306 9.94731 17.7316 9.94731H16.2106V9.05259H17.7316C17.8306 9.05259 17.9215 8.9981 17.9683 8.91081C18.015 8.82355 18.0099 8.71767 17.9549 8.63526L17.3384 7.71045L17.9549 6.78564C18.0098 6.70327 18.0149 6.59735 17.9683 6.51009C17.9215 6.42283 17.8306 6.36831 17.7316 6.36831H16.1952C16.1323 5.80154 15.8726 5.29353 15.486 4.91395C15.4915 4.89257 15.4947 4.87032 15.4947 4.84728V3.62411C15.4947 3.23543 15.3506 2.87996 15.1135 2.6076C15.5267 2.57379 15.8526 2.22702 15.8526 1.80528C15.8526 1.36125 15.4914 1 15.0474 1H3.41579C2.76458 1 2.15397 1.25527 1.69647 1.71878C1.24653 2.17456 1.00053 2.77617 1.00056 3.41579L1 15.5842C1 16.9163 2.08372 18 3.41579 18H13.7947C14.9102 18 15.8511 17.2399 16.1277 16.2105H17.7316C17.8306 16.2105 17.9215 16.156 17.9683 16.0687C18.015 15.9815 18.0099 15.8756 17.9549 15.7932L17.3384 14.8684L17.9549 13.9436C18.0098 13.8612 18.0149 13.7553 17.9683 13.668C17.9215 13.5808 17.8306 13.5262 17.7316 13.5262H16.2106V12.6315L17.7316 12.6316ZM16.2105 6.90528H17.23L16.7924 7.56167C16.7323 7.65185 16.7323 7.76929 16.7924 7.85943L17.23 8.51583H16.2105V6.90528ZM16.2105 10.4842H17.23L16.7924 11.1406C16.7323 11.2308 16.7323 11.3482 16.7924 11.4384L17.23 12.0948H16.2105V10.4842ZM4.93683 17.4632H3.41579C2.37972 17.4632 1.53686 16.6202 1.53686 15.5842V4.91933C1.98693 5.47422 2.67799 5.83155 3.44783 5.83155H4.93686L4.93683 17.4632ZM4.93683 5.29472H3.44783C2.40748 5.29472 1.55031 4.46309 1.53703 3.44079C1.53045 2.93395 1.72273 2.45629 2.07854 2.09587C2.43438 1.73542 2.90931 1.53686 3.41579 1.53686H15.0474C15.1954 1.53686 15.3158 1.65726 15.3158 1.80528C15.3158 1.95329 15.1954 2.07369 15.0474 2.07369H13.9443H11.2895H3.43814C2.70578 2.07369 2.09391 2.65896 2.07422 3.37824C2.06419 3.74404 2.199 4.08975 2.4538 4.35159C2.7087 4.6136 3.05033 4.75786 3.41579 4.75786H4.93683V5.29472ZM14.9579 3.62411V4.52026C14.6126 4.32978 14.2162 4.22104 13.7947 4.22104H3.41579C3.19655 4.22104 2.99156 4.13447 2.83859 3.97722C2.68572 3.82011 2.60484 3.61259 2.61085 3.39292C2.62267 2.96151 2.99381 2.61048 3.43814 2.61048H11.2895H13.9443C14.5032 2.61052 14.9579 3.06523 14.9579 3.62411ZM15.6737 8.78421V10.2158V12.3632V13.7948V15.5842C15.6737 16.6203 14.8308 17.4632 13.7948 17.4632H5.47372V4.7579H13.7948C14.8308 4.7579 15.6737 5.60082 15.6737 6.63683V8.78421ZM17.23 14.0632L16.7924 14.7195C16.7323 14.8097 16.7323 14.9272 16.7924 15.0173L17.23 15.6737H16.2105V15.5842V14.0631L17.23 14.0632Z" fill="white"/>
</svg>
