<svg width="19" height="19" viewBox="0 0 19 19" fill="none" xmlns="http://www.w3.org/2000/svg">
<path d="M3.40625 7.89307C4.18531 7.89307 4.8125 8.60985 4.8125 9.50021C4.8125 10.3906 4.18531 11.1074 3.40625 11.1074C2.62719 11.1074 2 10.3906 2 9.50021C2 8.60985 2.62719 7.89307 3.40625 7.89307Z" fill="white"/>
<path d="M15.5938 7.89307C16.3728 7.89307 17 8.60985 17 9.50021C17 10.3906 16.3728 11.1074 15.5938 11.1074C14.8147 11.1074 14.1875 10.3906 14.1875 9.50021C14.1875 8.60985 14.8147 7.89307 15.5938 7.89307Z" fill="white"/>
<path d="M9.5 7.89307C10.2791 7.89307 10.9062 8.60985 10.9062 9.50021C10.9062 10.3906 10.2791 11.1074 9.5 11.1074C8.72094 11.1074 8.09375 10.3906 8.09375 9.50021C8.09375 8.60985 8.72094 7.89307 9.5 7.89307Z" fill="white"/>
</svg>
