<svg width="19" height="19" viewBox="0 0 19 19" fill="none" xmlns="http://www.w3.org/2000/svg">
<path d="M15.3691 7.42969C15.1287 7.42969 14.9336 7.62481 14.9336 7.86524C14.9336 8.10567 15.1287 8.30079 15.3691 8.30079C15.6096 8.30079 15.8047 8.10567 15.8047 7.86524C15.8047 7.62481 15.6096 7.42969 15.3691 7.42969Z" fill="white"/>
<path d="M14.5419 6.60205C14.3015 6.60205 14.1064 6.79717 14.1064 7.0376C14.1064 7.27804 14.3015 7.47316 14.5419 7.47316C14.7823 7.47316 14.9775 7.27804 14.9775 7.0376C14.9775 6.79721 14.7823 6.60205 14.5419 6.60205Z" fill="white"/>
<path d="M14.5419 8.25732C14.3015 8.25732 14.1064 8.45245 14.1064 8.69288C14.1064 8.93331 14.3015 9.12843 14.5419 9.12843C14.7823 9.12843 14.9775 8.93331 14.9775 8.69288C14.9775 8.45245 14.7823 8.25732 14.5419 8.25732Z" fill="white"/>
<path d="M13.7139 7.42969C13.4734 7.42969 13.2783 7.62481 13.2783 7.86524C13.2783 8.10567 13.4734 8.30079 13.7139 8.30079C13.9543 8.30079 14.1494 8.10567 14.1494 7.86524C14.1494 7.62481 13.9543 7.42969 13.7139 7.42969Z" fill="white"/>
<path d="M18.9577 12.4501C18.839 11.335 18.5965 10.1229 18.2371 8.84757C18.1719 8.61608 17.9314 8.48115 17.6997 8.5465C17.4682 8.61174 17.511 8.85232 17.5762 9.08388C17.9223 10.3122 18.1555 11.4759 18.2691 12.5424C18.3948 13.7215 18.1041 14.7073 17.5963 15.2255C17.4588 15.3657 17.1871 15.4409 16.9879 15.4371C16.7877 15.4334 16.5146 15.3497 16.3801 15.2016C14.7827 13.4437 13.6259 12.6412 12.7666 12.6412H6.23335C5.37404 12.6412 4.30604 13.355 2.70863 15.113C2.57414 15.261 2.21229 15.4334 2.01208 15.4372C1.81399 15.4407 1.45236 15.3657 1.31479 15.2254C0.807027 14.7073 0.605115 13.7216 0.730804 12.5424C0.979845 10.2046 1.74304 7.94251 2.17584 6.80218C2.30654 6.45765 2.72818 5.98399 3.0415 5.79039C3.09371 5.75795 3.14904 5.72786 3.20578 5.70103C3.93579 5.35624 5.24234 4.90392 7.32091 4.70728C8.00714 4.64237 8.74023 4.60946 9.4999 4.60946C10.2596 4.60946 10.9927 4.64237 11.6789 4.70724C13.7575 4.90399 15.064 5.35624 15.794 5.70103C15.8508 5.72786 15.9061 5.75795 15.9592 5.79091C16.2717 5.98399 16.6933 6.45762 16.824 6.80218C16.8901 6.97622 16.8779 7.08332 17.0537 7.08332C17.1051 7.08332 17.1573 7.07419 17.2082 7.05489C17.4331 6.96958 17.5462 6.71809 17.4609 6.49317C17.293 6.05067 17.0014 5.66114 16.6286 5.37424V4.55313C16.6286 3.91655 16.1768 3.35817 15.5544 3.22557L13.6089 2.81058C13.1569 2.71395 12.6921 2.85155 12.3657 3.17867L11.5464 3.99871C10.8957 3.9439 10.2086 3.91596 9.49994 3.91596C8.7913 3.91596 8.10422 3.94398 7.4535 3.99875L6.63435 3.17871C6.30779 2.85159 5.84292 2.71402 5.39115 2.81051L3.44562 3.2255C2.82307 3.35817 2.3713 3.91651 2.3713 4.55305V5.37424C1.99824 5.66143 1.70682 6.05082 1.53901 6.49309C1.09132 7.67265 0.301636 10.0151 0.0422416 12.4501C-0.114211 13.9172 0.164406 15.0262 0.870226 15.7463C1.17723 16.0597 1.58978 16.2266 2.0286 16.2194C2.46467 16.2111 2.88285 16.0213 3.17591 15.6987C4.75962 13.9557 5.79375 13.3348 6.23338 13.3348H12.7667C13.2064 13.3348 14.2405 13.9558 15.8241 15.6986C16.1172 16.0213 16.5354 16.2111 16.9715 16.2194C16.9819 16.2196 16.9923 16.2197 17.0026 16.2197C17.4308 16.2196 17.8301 16.0522 18.1297 15.7464C18.8356 15.0261 19.1142 13.9172 18.9577 12.4501ZM12.8933 3.70527C13.0101 3.58826 13.2651 3.4502 13.4271 3.48482L15.3728 3.89985C15.5957 3.94739 15.9351 4.32498 15.9351 4.55305V5.00083C15.2408 4.71858 13.8719 4.32052 12.4762 4.12273L12.8933 3.70527ZM3.06484 4.55305C3.06484 4.32498 3.40424 3.94739 3.62727 3.89985L5.66185 3.48478C5.82364 3.45016 6.0786 3.67708 6.19557 3.7942L6.5238 4.03395C5.12812 4.2317 3.75923 4.71854 3.06484 5.0008V4.55305Z" fill="white"/>
<path d="M17.8775 7.67085L17.85 7.58762C17.7743 7.35925 17.5278 7.2356 17.2995 7.31134C17.0712 7.38708 16.9475 7.63356 17.0232 7.86189L17.0502 7.94324C17.1105 8.12652 17.2808 8.24271 17.4638 8.24271C17.5089 8.24271 17.5548 8.23562 17.6 8.2207C17.8286 8.14552 17.9528 7.89934 17.8775 7.67085Z" fill="white"/>
<path d="M11.8016 8.82324C10.889 8.82324 10.1465 9.56573 10.1465 10.4784C10.1465 11.391 10.889 12.1335 11.8016 12.1335C12.7142 12.1335 13.4567 11.391 13.4567 10.4784C13.4567 9.56573 12.7142 8.82324 11.8016 8.82324ZM11.8016 11.4399C11.3693 11.4399 10.84 10.9106 10.84 10.4783C10.84 10.046 11.3694 9.51674 11.8016 9.51674C12.2339 9.51674 12.7632 10.046 12.7632 10.4783C12.7632 10.9106 12.2339 11.4399 11.8016 11.4399Z" fill="white"/>
<path d="M7.85333 10.1317H7.37256V9.65088C7.37256 9.41038 7.2663 9.21533 7.0258 9.21533C6.78529 9.21533 6.67903 9.41038 6.67903 9.65088V10.1317H6.19826C5.95775 10.1317 5.7627 10.2379 5.7627 10.4784C5.7627 10.7189 5.95775 10.8252 6.19826 10.8252H6.67903V11.306C6.67903 11.5465 6.78525 11.7415 7.0258 11.7415C7.2663 11.7415 7.37256 11.5465 7.37256 11.306V10.8252H7.85333C8.09384 10.8252 8.28889 10.7189 8.28889 10.4784C8.28889 10.2379 8.09388 10.1317 7.85333 10.1317Z" fill="white"/>
<path d="M4.63461 6.20996C3.72198 6.20996 2.97949 6.95245 2.97949 7.86508C2.97949 8.77771 3.72198 9.52019 4.63461 9.52019C5.54724 9.52019 6.28972 8.77771 6.28972 7.86508C6.28972 6.95245 5.54724 6.20996 4.63461 6.20996ZM4.63461 8.82662C4.20232 8.82662 3.67303 8.29733 3.67303 7.86504C3.67303 7.43275 4.20232 6.90346 4.63461 6.90346C5.06689 6.90346 5.59619 7.43275 5.59619 7.86504C5.59619 8.29733 5.06689 8.82662 4.63461 8.82662Z" fill="white"/>
<path d="M8.6289 7.04102H7.97559C7.73509 7.04102 7.54004 7.05849 7.54004 7.299C7.54004 7.5395 7.73509 7.73455 7.97559 7.73455H8.6289C8.86944 7.73455 9.06445 7.53954 9.06445 7.299C9.06445 7.05849 8.86941 7.04102 8.6289 7.04102Z" fill="white"/>
<path d="M11.0244 7.04102H10.3711C10.1306 7.04102 9.93555 7.05849 9.93555 7.299C9.93555 7.5395 10.1306 7.73455 10.3711 7.73455H11.0244C11.265 7.73455 11.46 7.53954 11.46 7.299C11.46 7.05849 11.265 7.04102 11.0244 7.04102Z" fill="white"/>
</svg>
