<svg width="19" height="19" viewBox="0 0 19 19" fill="none" xmlns="http://www.w3.org/2000/svg">
<path d="M11.4688 17.375H7.53125C7.18328 17.3746 6.84967 17.2362 6.60361 16.9901C6.35756 16.7441 6.21915 16.4105 6.21875 16.0625V12.7812H2.9375C2.58953 12.7809 2.25592 12.6424 2.00986 12.3964C1.76381 12.1503 1.6254 11.8167 1.625 11.4688V7.53125C1.62535 7.18326 1.76374 6.84962 2.00981 6.60356C2.25587 6.35749 2.58951 6.2191 2.9375 6.21875H6.21875V2.9375C6.2191 2.58951 6.35749 2.25587 6.60356 2.00981C6.84962 1.76374 7.18326 1.62535 7.53125 1.625H11.4688C11.8167 1.6254 12.1503 1.76381 12.3964 2.00986C12.6424 2.25592 12.7809 2.58953 12.7812 2.9375V6.21875H16.0625C16.4105 6.21915 16.7441 6.35756 16.9901 6.60361C17.2362 6.84967 17.3746 7.18328 17.375 7.53125V11.4688C17.3745 11.8167 17.2361 12.1503 16.9901 12.3963C16.744 12.6423 16.4105 12.7808 16.0625 12.7812H12.7812V16.0625C12.7808 16.4105 12.6423 16.744 12.3963 16.9901C12.1503 17.2361 11.8167 17.3745 11.4688 17.375ZM2.58604 7.17979V11.8202H7.17979V16.414H11.8202V11.8202H16.414V7.17979H11.8202V2.58604H7.17979V7.17979H2.58604Z" fill="white"/>
</svg>
