<svg width="19" height="19" viewBox="0 0 19 19" fill="none" xmlns="http://www.w3.org/2000/svg">
<path d="M18.3862 7.3327L17.7151 6.82911C17.6787 6.80221 17.6527 6.76359 17.6415 6.71977C17.6302 6.67595 17.6344 6.62959 17.6533 6.58849L17.822 6.21654C17.8717 6.10705 17.8958 5.98769 17.8925 5.86751C17.8892 5.74733 17.8586 5.62948 17.803 5.52288C17.7474 5.41628 17.6683 5.32373 17.5716 5.25223C17.475 5.18073 17.3633 5.13216 17.2451 5.1102L16.4957 4.97067C16.4659 4.96503 16.4377 4.95274 16.4133 4.93472L15.3525 4.14468C15.2038 4.03387 15.0209 3.97873 14.8357 3.98885C14.6505 3.99897 14.4748 4.07372 14.339 4.20007L13.8081 4.69437C13.7929 4.70854 13.7756 4.72027 13.7568 4.72916L13.0926 5.03833C12.0497 4.27562 10.792 3.86294 9.49998 3.8595C8.5459 3.86028 7.60557 4.08703 6.75599 4.52117L5.88006 3.93865C5.80104 3.88592 5.71314 3.84792 5.6206 3.82646L4.74968 3.62351C4.63495 3.5969 4.51572 3.59621 4.40068 3.62149C4.28565 3.64676 4.17769 3.69737 4.08468 3.76963L2.89659 4.69128C2.87551 4.70767 2.85133 4.71964 2.82552 4.72646C2.7997 4.73328 2.77277 4.73481 2.74634 4.73096C2.71992 4.72712 2.69454 4.71797 2.67174 4.70408C2.64893 4.69018 2.62917 4.67183 2.61364 4.65011C2.55233 4.56444 2.47455 4.49185 2.38485 4.4366C2.29516 4.38135 2.19535 4.34453 2.09126 4.32831C1.98717 4.31208 1.88089 4.31678 1.77863 4.34212C1.67638 4.36745 1.5802 4.41292 1.49573 4.47587L0.416347 5.27981C0.367238 5.31637 0.330648 5.36724 0.311598 5.42543C0.292548 5.48361 0.291971 5.54627 0.309947 5.6048L0.850259 7.36604C0.864032 7.41101 0.861359 7.45942 0.842719 7.5026L0.510812 8.27581C0.428484 8.46499 0.423601 8.67891 0.497209 8.87165C0.570818 9.06439 0.717053 9.2206 0.904528 9.30674L1.36985 9.52346C1.40406 9.53946 1.433 9.56489 1.45328 9.59675C1.47356 9.62861 1.48434 9.66559 1.48435 9.70336V10.6809C1.48381 10.8502 1.53771 11.0151 1.6381 11.1514C1.73849 11.2877 1.88005 11.388 2.04186 11.4376L3.00539 11.7368C3.3511 15.3131 6.13155 18.1095 9.49998 18.1095C13.1013 18.1095 16.0312 14.9132 16.0312 10.9845C16.0312 10.9442 16.0291 10.9043 16.0284 10.8642L16.3269 10.9752C16.4153 11.0082 16.5089 11.025 16.6032 11.0248C16.7189 11.0249 16.8332 10.9998 16.9381 10.9512L17.2266 10.8169C17.3499 10.7592 17.4563 10.6708 17.5356 10.5601L17.9783 9.94256C17.9981 9.91468 18.0249 9.89248 18.056 9.87819L18.2448 9.79008C18.3815 9.72622 18.4972 9.62473 18.5784 9.4975C18.6596 9.37026 18.7028 9.22254 18.7031 9.07161V7.96676C18.7028 7.84379 18.6741 7.72255 18.6191 7.61254C18.5641 7.50253 18.4844 7.40675 18.3862 7.3327ZM9.49998 17.5157C6.22595 17.5157 3.56248 14.5859 3.56248 10.9845C3.56248 7.38314 6.22595 4.45325 9.49998 4.45325C12.774 4.45325 15.4375 7.38314 15.4375 10.9845C15.4375 14.5859 12.774 17.5157 9.49998 17.5157Z" fill="white"/>
<path d="M7.27344 9.5C7.59638 9.5 7.91206 9.40424 8.18058 9.22482C8.44909 9.04541 8.65838 8.7904 8.78196 8.49204C8.90554 8.19368 8.93788 7.86538 8.87488 7.54864C8.81187 7.23191 8.65636 6.94097 8.42801 6.71262C8.19966 6.48426 7.90872 6.32875 7.59198 6.26575C7.27525 6.20275 6.94694 6.23508 6.64859 6.35867C6.35023 6.48225 6.09522 6.69153 5.9158 6.96005C5.73639 7.22856 5.64062 7.54425 5.64062 7.86719C5.64117 8.30007 5.81337 8.71507 6.11946 9.02116C6.42556 9.32726 6.84056 9.49946 7.27344 9.5ZM7.27344 6.82813C7.47812 6.82785 7.67831 6.88811 7.84883 7.00133C8.01934 7.11454 8.15258 7.27566 8.23174 7.46441C8.31091 7.65317 8.33248 7.86111 8.29375 8.0621C8.25502 8.26308 8.15772 8.44812 8.01408 8.59394C8.01231 8.50716 7.9915 8.42183 7.95314 8.34397C7.91479 8.26612 7.8598 8.19763 7.79208 8.14334C7.72436 8.08906 7.64554 8.0503 7.5612 8.0298C7.47686 8.00931 7.38905 8.00758 7.30397 8.02473C7.21889 8.04188 7.13861 8.0775 7.0688 8.12907C6.99898 8.18065 6.94134 8.24691 6.89994 8.3232C6.85854 8.39948 6.83439 8.48392 6.82919 8.57056C6.824 8.6572 6.83788 8.74392 6.86987 8.82461C6.6489 8.73143 6.46696 8.56469 6.35491 8.35266C6.24287 8.14063 6.20761 7.89637 6.25513 7.66132C6.30264 7.42626 6.43 7.21487 6.6156 7.06301C6.80121 6.91115 7.03362 6.82816 7.27344 6.82813Z" fill="white"/>
<path d="M11.7266 9.5C12.0495 9.5 12.3652 9.40424 12.6337 9.22482C12.9022 9.04541 13.1115 8.7904 13.2351 8.49204C13.3587 8.19368 13.391 7.86538 13.328 7.54864C13.265 7.23191 13.1095 6.94097 12.8811 6.71262C12.6528 6.48426 12.3618 6.32875 12.0451 6.26575C11.7284 6.20275 11.4001 6.23508 11.1017 6.35867C10.8034 6.48225 10.5483 6.69153 10.3689 6.96005C10.1895 7.22856 10.0938 7.54425 10.0938 7.86719C10.0943 8.30007 10.2665 8.71507 10.5726 9.02116C10.8787 9.32726 11.2937 9.49946 11.7266 9.5ZM11.7266 6.82813C11.9664 6.82816 12.1988 6.91115 12.3844 7.06301C12.57 7.21487 12.6974 7.42626 12.7449 7.66132C12.7924 7.89637 12.7571 8.14063 12.6451 8.35266C12.533 8.56469 12.3511 8.73143 12.1301 8.82461C12.1617 8.74403 12.1753 8.65751 12.1699 8.57112C12.1645 8.48473 12.1402 8.40058 12.0988 8.32458C12.0573 8.24858 11.9998 8.18258 11.9301 8.13122C11.8604 8.07985 11.7804 8.04437 11.6955 8.02726C11.6107 8.01016 11.5231 8.01184 11.439 8.0322C11.3549 8.05257 11.2762 8.09111 11.2086 8.14512C11.1409 8.19913 11.086 8.26731 11.0475 8.34485C11.009 8.42238 10.988 8.50741 10.9859 8.59394C10.8423 8.44812 10.745 8.26308 10.7062 8.0621C10.6675 7.86111 10.6891 7.65317 10.7683 7.46441C10.8474 7.27566 10.9807 7.11454 11.1512 7.00133C11.3217 6.88811 11.5219 6.82785 11.7266 6.82813Z" fill="white"/>
<path d="M13.2695 9.51397C13.2046 9.50901 13.1399 9.52633 13.0861 9.56307C13.0324 9.5998 12.9927 9.65377 12.9738 9.71605C12.7559 10.3645 12.1151 10.9303 11.2574 11.2619C11.2995 11.0069 11.2857 10.7458 11.2167 10.4967C11.1478 10.2476 11.0255 10.0165 10.8584 9.81942C10.6912 9.62233 10.4831 9.46399 10.2486 9.35537C10.0141 9.24676 9.75874 9.19047 9.50029 9.19043C9.24185 9.19039 8.98649 9.24658 8.75194 9.35512C8.51739 9.46366 8.30927 9.62193 8.14202 9.81896C7.97477 10.016 7.85239 10.2471 7.78339 10.4961C7.7144 10.7452 7.70042 11.0063 7.74244 11.2613C6.88447 10.9299 6.24441 10.3659 6.02621 9.71605C6.00706 9.65388 5.96738 9.60003 5.91367 9.56333C5.85995 9.52662 5.79537 9.50922 5.73049 9.51397C5.66597 9.51709 5.60423 9.54118 5.55463 9.58256C5.50504 9.62395 5.47029 9.68039 5.45567 9.74331C5.31108 10.3537 5.30653 10.9889 5.44235 11.6013C5.57817 12.2137 5.85084 12.7874 6.23992 13.2794C6.62901 13.7714 7.12441 14.169 7.689 14.4423C8.25359 14.7156 8.87273 14.8576 9.5 14.8576C10.1273 14.8576 10.7464 14.7156 11.311 14.4423C11.8756 14.169 12.371 13.7714 12.7601 13.2794C13.1492 12.7874 13.4218 12.2137 13.5577 11.6013C13.6935 10.9889 13.6889 10.3537 13.5443 9.74331C13.5297 9.68038 13.495 9.62394 13.4454 9.58256C13.3958 9.54117 13.334 9.51709 13.2695 9.51397ZM12.6732 11.1237C12.538 11.3904 12.3696 11.6389 12.1718 11.8631V11.4809C12.3484 11.3756 12.516 11.2561 12.6732 11.1237ZM11.5781 13.5753C11.3918 13.7097 11.193 13.8259 10.9843 13.922V13.3837C11.1894 13.3064 11.3879 13.2128 11.5781 13.1039V13.5753ZM10.3906 12.525V12.9513C10.1958 13.0009 9.99718 13.034 9.79685 13.0503V12.7393C10.006 12.704 10.2071 12.6315 10.3906 12.525ZM10.9843 11.9773C11.1862 11.9231 11.3845 11.8564 11.5781 11.7776V12.3973C11.3919 12.5315 11.193 12.6472 10.9843 12.7429V11.9773ZM9.2031 13.0497C9.00264 13.0327 8.804 12.9987 8.60935 12.9479V12.525C8.7928 12.6314 8.99392 12.704 9.2031 12.7392V13.0497ZM8.0156 12.7367C7.80695 12.6397 7.60811 12.5228 7.42185 12.3877V11.7772C7.61548 11.8557 7.81377 11.9222 8.0156 11.9764V12.7367ZM7.42185 13.095C7.61201 13.2047 7.81054 13.2993 8.0156 13.3779V13.9221C7.80695 13.8259 7.60811 13.7098 7.42185 13.5753V13.095ZM8.60935 13.5557C8.80486 13.5993 9.00331 13.6287 9.2031 13.6436V14.2355C9.00263 14.2184 8.80399 14.1842 8.60935 14.1333V13.5557ZM9.79685 13.6441C9.99656 13.6298 10.195 13.6011 10.3906 13.5584V14.1333C10.1959 14.1842 9.99731 14.2184 9.79685 14.2355V13.6441ZM6.8281 11.4809V11.8534C6.634 11.6336 6.46781 11.3907 6.33332 11.1302C6.48862 11.2601 6.65407 11.3774 6.8281 11.4809ZM6.19893 12.0192C6.38413 12.2607 6.5951 12.4813 6.8281 12.6771V13.0373C6.56249 12.7358 6.34977 12.3916 6.19893 12.0192ZM12.1718 13.0371V12.6885C12.4006 12.4978 12.6079 12.2828 12.7903 12.0473C12.6399 12.4089 12.431 12.7434 12.1718 13.0371Z" fill="white"/>
</svg>
