<svg width="19" height="19" viewBox="0 0 19 19" fill="none" xmlns="http://www.w3.org/2000/svg">
<path d="M4.41555 9.76074C3.90108 9.76074 3.48242 10.1794 3.48242 10.6939C3.48242 11.2083 3.90108 11.627 4.41555 11.627C4.93001 11.627 5.34867 11.2083 5.34867 10.6939C5.34867 10.1791 4.93001 9.76074 4.41555 9.76074ZM4.41555 11.0049C4.24385 11.0049 4.10451 10.8656 4.10451 10.6939C4.10451 10.5222 4.24385 10.3828 4.41555 10.3828C4.58724 10.3828 4.72659 10.5222 4.72659 10.6939C4.72659 10.8656 4.58724 11.0049 4.41555 11.0049Z" fill="white"/>
<path d="M17.7449 2.94727C17.5508 2.65552 17.2733 2.44338 16.9427 2.33483C16.8817 2.31492 16.8385 2.27169 16.8186 2.2101C16.71 1.87978 16.4982 1.60264 16.2058 1.40824C15.65 1.03965 14.8991 1.07293 14.3791 1.48911C13.9853 1.80482 13.7735 2.27324 13.7974 2.77464C13.8152 3.1451 13.7029 3.47107 13.4817 3.69222L11.5679 5.60606L11.2245 5.61135C10.6929 5.61912 10.1965 5.8269 9.82667 6.19673C8.62573 7.39797 7.03257 8.13919 5.2192 8.34012C4.14082 8.45987 3.1262 8.951 2.36135 9.72301C0.603646 11.4981 0.540815 14.4431 2.222 16.2872C3.11065 17.2624 4.32433 17.816 5.63942 17.8465C5.67768 17.8474 5.71562 17.8481 5.75388 17.8481C7.02698 17.8481 8.21982 17.3544 9.12309 16.4512C9.81516 15.7591 10.2718 14.886 10.4438 13.9255C10.7483 12.2272 11.6093 10.6291 12.934 9.30466C13.0201 9.2185 13.0979 9.12208 13.1791 9.00108L13.5035 8.51679H12.5533C12.6478 8.45956 12.7386 8.39486 12.8189 8.31461L15.4615 5.67231C15.6824 5.45116 16.0027 5.34136 16.3794 5.3566C16.8845 5.3762 17.3489 5.16873 17.6646 4.77464C18.0811 4.25427 18.1138 3.5031 17.7449 2.94727ZM9.83102 13.8151C9.68172 14.6502 9.28452 15.4092 8.68296 16.011C7.87363 16.8201 6.80676 17.2487 5.65341 17.2244C4.51002 17.198 3.45466 16.7162 2.68141 15.868C1.21982 14.2645 1.27425 11.7043 2.80303 10.1606C3.47736 9.47978 4.33646 9.06391 5.28701 8.95847C7.24222 8.74167 8.96384 7.93887 10.2659 6.63654C10.4139 6.4888 10.5918 6.37869 10.7872 6.31088L10.1666 8.37869L11.259 8.01477V8.61819V9.13825H12.2292C10.9638 10.4981 10.1374 12.1075 9.83102 13.8151ZM17.1788 4.38522C16.9894 4.62192 16.7072 4.75132 16.4086 4.73452C15.8575 4.70901 15.3673 4.88506 15.0211 5.23188L12.3788 7.87418C12.245 8.00824 12.0687 8.08413 11.8811 8.09408V7.15163L11.1072 7.40979L11.306 6.74758L13.9215 4.13203C14.268 3.78584 14.445 3.29315 14.4189 2.74478C14.4043 2.44463 14.5315 2.16407 14.7679 1.97433C15.074 1.72892 15.534 1.70839 15.8615 1.92643C16.017 2.0297 16.1312 2.17309 16.2009 2.34074C15.8867 2.41632 15.5981 2.5846 15.3794 2.82845C15.2646 2.95629 15.2752 3.15318 15.403 3.26765C15.4624 3.32115 15.5368 3.34727 15.6108 3.34727C15.6957 3.34727 15.781 3.31244 15.8422 3.24401C16.0236 3.04183 16.2827 2.9227 16.5533 2.91741C16.5959 2.91648 16.6363 2.90715 16.673 2.89066C16.6988 2.90217 16.7222 2.91679 16.7492 2.92581C16.9458 2.9902 17.111 3.11679 17.227 3.2916C17.4444 3.61912 17.4239 4.07915 17.1788 4.38522Z" fill="white"/>
<path d="M9.25799 12.6305C9.08536 12.5981 8.92704 12.7132 8.89718 12.8821C8.83901 13.2081 8.73699 13.5259 8.5936 13.828C8.51988 13.9832 8.58614 14.1686 8.74135 14.2423C8.78458 14.2625 8.82968 14.2724 8.87447 14.2724C8.9908 14.2724 9.10247 14.2068 9.15565 14.0948C9.32268 13.7431 9.44181 13.372 9.50962 12.9916C9.53979 12.8221 9.42688 12.6606 9.25799 12.6305Z" fill="white"/>
<path d="M8.06467 14.6593C7.40184 15.463 6.43076 16.0226 5.40059 16.1946C5.23107 16.2229 5.11661 16.3831 5.14492 16.5523C5.17011 16.7044 5.30199 16.8123 5.45129 16.8123C5.4684 16.8123 5.4852 16.811 5.50261 16.8079C6.67897 16.6117 7.78815 15.9725 8.5446 15.0546C8.65409 14.9221 8.63512 14.7261 8.5023 14.617C8.37011 14.5075 8.17353 14.5268 8.06467 14.6593Z" fill="white"/>
</svg>
