<svg width="19" height="19" viewBox="0 0 19 19" fill="none" xmlns="http://www.w3.org/2000/svg">
<path d="M15.6335 16.8173C15.799 16.8173 15.9331 16.6832 15.9331 16.5178C15.9331 16.3524 15.799 16.2183 15.6335 16.2183C15.4681 16.2183 15.334 16.3524 15.334 16.5178C15.334 16.6832 15.4681 16.8173 15.6335 16.8173Z" fill="white"/>
<path d="M6.3481 9.62835C6.67897 9.62835 6.94719 9.36013 6.94719 9.02926C6.94719 8.6984 6.67897 8.43018 6.3481 8.43018C6.01724 8.43018 5.74902 8.6984 5.74902 9.02926C5.74902 9.36013 6.01724 9.62835 6.3481 9.62835Z" fill="white"/>
<path d="M10.5405 9.62835C10.8713 9.62835 11.1396 9.36013 11.1396 9.02926C11.1396 8.6984 10.8713 8.43018 10.5405 8.43018C10.2096 8.43018 9.94141 8.6984 9.94141 9.02926C9.94141 9.36013 10.2096 9.62835 10.5405 9.62835Z" fill="white"/>
<path d="M16.8312 6.03359C17.009 6.03359 17.1827 5.98089 17.3305 5.88215C17.4783 5.7834 17.5935 5.64306 17.6615 5.47885C17.7295 5.31465 17.7473 5.13396 17.7126 4.95965C17.6779 4.78533 17.5924 4.62521 17.4667 4.49953C17.341 4.37386 17.1809 4.28827 17.0066 4.2536C16.8322 4.21892 16.6516 4.23672 16.4874 4.30473C16.3232 4.37275 16.1828 4.48793 16.0841 4.63571C15.9853 4.78349 15.9326 4.95723 15.9326 5.13496C15.9329 5.37321 16.0276 5.60163 16.1961 5.7701C16.3646 5.93857 16.593 6.03333 16.8312 6.03359ZM16.8312 4.83542C16.8905 4.83542 16.9484 4.85298 16.9977 4.8859C17.0469 4.91881 17.0853 4.9656 17.108 5.02033C17.1307 5.07506 17.1366 5.13529 17.125 5.1934C17.1135 5.2515 17.085 5.30488 17.0431 5.34677C17.0012 5.38866 16.9478 5.41719 16.8897 5.42875C16.8316 5.44031 16.7714 5.43437 16.7166 5.4117C16.6619 5.38903 16.6151 5.35064 16.5822 5.30138C16.5493 5.25212 16.5317 5.1942 16.5317 5.13496C16.5318 5.05554 16.5634 4.97939 16.6195 4.92323C16.6757 4.86707 16.7518 4.83549 16.8312 4.83542Z" fill="white"/>
<path d="M1.8552 2.73896C1.93464 2.73896 2.01083 2.7074 2.06701 2.65123C2.12318 2.59505 2.15474 2.51886 2.15474 2.43942V2.13988C2.15474 2.06043 2.12318 1.98424 2.06701 1.92807C2.01083 1.87189 1.93464 1.84033 1.8552 1.84033C1.77576 1.84033 1.69957 1.87189 1.64339 1.92807C1.58721 1.98424 1.55566 2.06043 1.55566 2.13988V2.43942C1.55566 2.51886 1.58721 2.59505 1.64339 2.65123C1.69957 2.7074 1.77576 2.73896 1.8552 2.73896Z" fill="white"/>
<path d="M1.8552 3.33838C1.77576 3.33838 1.69957 3.36994 1.64339 3.42611C1.58721 3.48229 1.55566 3.55848 1.55566 3.63792V3.93747C1.55566 4.01691 1.58721 4.0931 1.64339 4.14928C1.69957 4.20545 1.77576 4.23701 1.8552 4.23701C1.93464 4.23701 2.01083 4.20545 2.06701 4.14928C2.12318 4.0931 2.15474 4.01691 2.15474 3.93747V3.63792C2.15474 3.55848 2.12318 3.48229 2.06701 3.42611C2.01083 3.36994 1.93464 3.33838 1.8552 3.33838Z" fill="white"/>
<path d="M1.55488 3.03831C1.55488 2.95887 1.52332 2.88268 1.46715 2.8265C1.41097 2.77033 1.33478 2.73877 1.25534 2.73877H0.955794C0.87635 2.73877 0.80016 2.77033 0.743984 2.8265C0.687809 2.88268 0.65625 2.95887 0.65625 3.03831C0.65625 3.11776 0.687809 3.19395 0.743984 3.25012C0.80016 3.3063 0.87635 3.33786 0.955794 3.33786H1.25534C1.33478 3.33786 1.41097 3.3063 1.46715 3.25012C1.52332 3.19395 1.55488 3.11776 1.55488 3.03831Z" fill="white"/>
<path d="M2.45384 3.33786H2.75338C2.83283 3.33786 2.90902 3.3063 2.96519 3.25012C3.02137 3.19395 3.05293 3.11776 3.05293 3.03831C3.05293 2.95887 3.02137 2.88268 2.96519 2.8265C2.90902 2.77033 2.83283 2.73877 2.75338 2.73877H2.45384C2.3744 2.73877 2.29821 2.77033 2.24203 2.8265C2.18586 2.88268 2.1543 2.95887 2.1543 3.03831C2.1543 3.11776 2.18586 3.19395 2.24203 3.25012C2.29821 3.3063 2.3744 3.33786 2.45384 3.33786Z" fill="white"/>
<path d="M16.9808 9.32869H16.5315C16.452 9.32869 16.3758 9.36025 16.3196 9.41642C16.2635 9.4726 16.2319 9.54879 16.2319 9.62823V10.8264C16.2319 10.9058 16.2635 10.982 16.3196 11.0382C16.3758 11.0944 16.452 11.1259 16.5315 11.1259H16.9808C17.0999 11.1259 17.2142 11.1733 17.2985 11.2576C17.3827 11.3418 17.4301 11.4561 17.4301 11.5753C17.4301 11.6944 17.3827 11.8087 17.2985 11.893C17.2142 11.9772 17.0999 12.0246 16.9808 12.0246H15.5316C15.8071 10.4016 15.5164 8.73332 14.7081 7.29925C14.8672 6.26504 15.136 4.47413 15.605 1.34398C15.6133 1.28907 15.6061 1.23293 15.5843 1.18185C15.5625 1.13077 15.527 1.08676 15.4816 1.05475C15.4362 1.02273 15.3828 1.00397 15.3274 1.00056C15.2719 0.99716 15.2166 1.00924 15.1677 1.03545C12.5083 2.45571 10.9309 3.29887 9.99107 3.80468C8.66601 3.51262 7.28535 3.6015 6.00867 4.06102C4.73199 4.52054 3.6114 5.33196 2.77642 6.40149C1.94144 7.47102 1.42616 8.75499 1.29013 10.105C1.1541 11.455 1.40287 12.816 2.0077 14.0306C2.61252 15.2452 3.54871 16.2639 4.70806 16.9689C5.8674 17.6738 7.20257 18.0364 8.55926 18.0145C9.91595 17.9927 11.2388 17.5874 12.3748 16.8455C13.5109 16.1035 14.4138 15.0553 14.9792 13.8218H16.9808C17.5766 13.8218 18.148 13.5852 18.5693 13.1638C18.9907 12.7425 19.2273 12.1711 19.2273 11.5753C19.2273 10.9794 18.9907 10.408 18.5693 9.98669C18.148 9.56538 17.5766 9.32869 16.9808 9.32869ZM10.1568 4.39759C10.7336 4.96893 11.3595 5.48832 12.0275 5.94974C12.6862 6.42428 13.3855 6.8399 14.1171 7.1918C14.0376 7.71283 13.9748 8.12024 13.9398 8.33905C13.6002 8.27645 12.6676 7.86778 11.3368 6.9285C10.0059 5.98922 9.30814 5.24824 9.13542 4.94929C9.32992 4.84299 9.69266 4.6472 10.1568 4.39759ZM14.3995 5.33019C13.9401 5.06989 13.4943 4.78646 13.0636 4.48099C12.6315 4.17776 12.2151 3.85277 11.8161 3.50726C12.8158 2.97155 13.9353 2.37286 14.9242 1.84446C14.7579 2.95328 14.569 4.20864 14.3995 5.33019ZM16.9808 13.2228H8.74332C8.66388 13.2228 8.58769 13.2543 8.53151 13.3105C8.47534 13.3667 8.44378 13.4429 8.44378 13.5223C8.44378 13.6017 8.47534 13.6779 8.53151 13.7341C8.58769 13.7903 8.66388 13.8218 8.74332 13.8218H14.311C13.7655 14.8918 12.9382 15.7924 11.9182 16.4263C10.8982 17.0603 9.72443 17.4036 8.52358 17.4191C7.32273 17.4346 6.14047 17.1218 5.10447 16.5143C4.06847 15.9069 3.2181 15.028 2.64521 13.9725C2.07231 12.917 1.79867 11.725 1.85382 10.5254C1.90897 9.32567 2.29082 8.16385 2.95813 7.16537C3.62545 6.16689 4.55287 5.36969 5.64023 4.85987C6.72759 4.35005 7.93357 4.14698 9.12793 4.27259C8.61329 4.55521 8.59687 4.57693 8.57264 4.61147C8.37123 4.89696 8.54323 5.28134 9.14776 5.89681C9.71783 6.45551 10.3346 6.96449 10.9912 7.41823C11.6389 7.88485 12.3252 8.29529 13.0427 8.64507C13.3502 8.81149 13.6881 8.91416 14.0363 8.94695C14.1152 8.95287 14.1943 8.93848 14.2661 8.90514C14.3379 8.8718 14.4 8.82063 14.4464 8.7565C14.4675 8.72654 14.4815 8.70557 14.5446 8.33228C15.0224 9.50124 15.1537 10.783 14.9229 12.0246H6.77055L6.2592 11.5133C6.20271 11.4587 6.12704 11.4285 6.0485 11.4292C5.96996 11.4299 5.89483 11.4614 5.8393 11.5169C5.78376 11.5724 5.75226 11.6476 5.75157 11.7261C5.75089 11.8047 5.78108 11.8803 5.83565 11.9368L6.43473 12.5359C6.4909 12.5921 6.56708 12.6237 6.64651 12.6237H16.9808C17.2588 12.6237 17.5255 12.5132 17.7221 12.3166C17.9187 12.12 18.0292 11.8533 18.0292 11.5753C18.0292 11.2972 17.9187 11.0305 17.7221 10.8339C17.5255 10.6373 17.2588 10.5269 16.9808 10.5269H16.831V9.92777H16.9808C17.4177 9.92777 17.8368 10.1013 18.1457 10.4103C18.4547 10.7193 18.6283 11.1383 18.6283 11.5753C18.6283 12.0122 18.4547 12.4313 18.1457 12.7402C17.8368 13.0492 17.4177 13.2228 16.9808 13.2228Z" fill="white"/>
</svg>
