<svg width="19" height="19" viewBox="0 0 19 19" fill="none" xmlns="http://www.w3.org/2000/svg">
<path d="M4.5947 10.688C4.53667 10.7345 4.46715 10.7571 4.39814 10.7571C4.30597 10.7571 4.21462 10.7169 4.1525 10.6393L4.10928 10.5854C4.06281 10.5274 4.0402 10.4581 4.04016 10.3891C4.04012 10.2969 4.08042 10.2054 4.158 10.1432C4.29354 10.0347 4.49153 10.0564 4.60021 10.1919L4.64342 10.2458C4.6899 10.3038 4.71251 10.3732 4.71259 10.4421C4.71259 10.5344 4.67225 10.6258 4.5947 10.688ZM5.48907 12.3072C5.55119 12.3849 5.64262 12.4253 5.73486 12.4253C5.80379 12.4253 5.87323 12.4027 5.93123 12.3563C6.00885 12.2942 6.04924 12.2028 6.04928 12.1105C6.04928 12.0416 6.02675 11.9722 5.98031 11.9142L5.93717 11.8603C5.82861 11.7246 5.63062 11.7026 5.495 11.8112C5.41738 11.8733 5.377 11.9647 5.37696 12.0569C5.37696 12.1259 5.39949 12.1953 5.44593 12.2533L5.48907 12.3072ZM5.36347 10.84C5.43256 10.84 5.50216 10.8173 5.56024 10.7707C5.63778 10.7085 5.678 10.617 5.67789 10.5248C5.67777 10.4558 5.65512 10.3864 5.60856 10.3285L5.56531 10.2746C5.45655 10.1391 5.25853 10.1175 5.12306 10.2263C5.0458 10.2883 5.00557 10.3794 5.00541 10.4713C5.00534 10.5405 5.02799 10.6103 5.0747 10.6685L5.11795 10.7224C5.18012 10.7998 5.27138 10.84 5.36347 10.84ZM4.5662 11.6957C4.62832 11.7732 4.71963 11.8134 4.81176 11.8134C4.88081 11.8134 4.95033 11.7908 5.0084 11.7442C5.08594 11.682 5.12625 11.5906 5.12617 11.4983C5.12609 11.4294 5.10344 11.3599 5.05697 11.302L5.01375 11.2482C4.90503 11.1127 4.70705 11.0909 4.57154 11.1996C4.494 11.2618 4.4537 11.3533 4.45378 11.4455C4.45386 11.5145 4.4765 11.5839 4.52298 11.6418L4.5662 11.6957ZM1.19628 8.37259C0.769298 7.83971 0.855412 7.05878 1.38825 6.63176C1.6519 6.42044 1.98082 6.33083 2.30058 6.36673C2.33523 6.04697 2.49432 5.74538 2.75793 5.53406C3.29081 5.10703 4.07177 5.19307 4.4988 5.72599C4.85788 6.1741 4.77954 6.79757 4.45247 7.23856L5.00745 8.00561L5.33143 7.80574C5.40012 7.75073 5.48871 7.72698 5.57561 7.74023C5.69818 7.75895 5.82247 7.78596 5.94511 7.82064C6.11231 7.86783 6.20955 7.96711 6.16233 8.1343C6.1151 8.30145 5.9413 8.39889 5.77407 8.35147C5.72051 8.33637 5.66672 8.32304 5.61301 8.31172L3.40267 9.94873C3.3989 10.2974 3.47082 10.7397 3.61308 11.0951C3.67765 11.2564 3.67376 11.4395 3.51246 11.504C3.47413 11.5194 3.43457 11.5266 3.39568 11.5266C3.27087 11.5266 3.15275 11.4518 3.10352 11.3289C2.90794 10.8402 2.8219 10.3274 2.85482 9.84603C2.86079 9.75827 2.9033 9.67699 2.97195 9.62198L3.22133 9.42215L2.66635 8.72962C2.16465 8.95281 1.55537 8.82057 1.19628 8.37259ZM2.54371 8.14807C2.60174 8.10155 2.67123 8.07898 2.74023 8.07898C2.8324 8.07898 2.84919 8.11929 2.91135 8.19683L3.63777 9.10326L4.59113 8.32446L3.93927 7.41806C3.88709 7.35299 3.86294 7.26978 3.87207 7.18685C3.88119 7.10396 3.92291 7.02804 3.98802 6.9759C4.25018 6.76576 4.29257 6.30699 4.08243 6.04484C3.87234 5.78272 3.33901 5.74026 3.07686 5.95043C2.87101 6.11538 2.86921 6.46665 2.96146 6.71354C3.009 6.84075 2.96952 6.98415 2.86351 7.06909C2.75754 7.15406 2.60898 7.08685 2.49514 7.01269C2.27428 6.86901 1.98759 6.88317 1.7817 7.04812C1.51954 7.25821 1.4026 7.71698 1.61265 7.97914C1.82278 8.24125 2.28155 8.35824 2.54371 8.14807ZM7.69 8.60871V9.15319C7.69 9.32691 7.83084 9.46776 8.00457 9.46776C8.17829 9.46776 8.31914 9.32691 8.31914 9.15319V8.60871C8.31914 8.43499 8.17829 8.29414 8.00457 8.29414C7.83084 8.29414 7.69 8.43499 7.69 8.60871ZM11.222 8.90316C10.9927 8.72672 10.752 8.5607 10.5067 8.55665C10.5033 8.55653 10.4998 8.63109 10.4964 8.63121C10.0799 8.63805 9.74002 8.83284 9.40402 9.31516C8.89701 10.0429 8.55877 11.2785 8.89327 12.232C8.93869 12.3615 8.98567 12.4425 9.11555 12.4425C9.15007 12.4425 9.18523 12.4368 9.21967 12.4247C9.3836 12.3672 9.46991 12.1877 9.41239 12.0238C9.16018 11.3048 9.43464 10.2649 9.84571 9.67483C10.0581 9.36997 10.2968 9.19212 10.5017 9.18587C10.6073 9.18905 10.7206 9.23659 10.8384 9.32731C10.9761 9.43324 11.1737 9.40744 11.2796 9.26978C11.3855 9.13204 11.3597 9.00913 11.222 8.90316ZM13.4224 12.1243C13.597 12.128 13.7402 11.991 13.7444 11.8173C13.7663 10.8964 13.4584 9.85512 12.7209 9.6046C12.7176 9.6035 12.7143 9.60244 12.7111 9.60146C12.3816 9.50154 12.0021 9.57016 11.6138 9.80007C10.8852 10.2315 10.2239 11.1756 10.0414 12.0449C10.0058 12.2149 10.1147 12.3817 10.2847 12.4174C10.3065 12.4219 10.3282 12.4242 10.3496 12.4242C10.4953 12.4242 10.5515 12.3224 10.5826 12.1742C10.7297 11.4734 11.2788 10.6855 11.8598 10.3414C12.0864 10.2072 12.3699 10.1578 12.5234 10.2021C12.88 10.3286 13.2088 11.0147 13.19 11.8024C13.1858 11.976 13.2487 12.1201 13.4224 12.1243ZM4.04637 4.78511C4.09061 4.80658 4.0628 4.81676 4.10888 4.81676C4.22559 4.81676 4.33773 4.75153 4.39211 4.63943C4.40501 4.61284 4.56084 4.21318 4.57433 4.18232C5.31188 2.76946 6.79937 1.75839 8.52632 1.53799C10.3266 1.30839 12.132 1.92774 13.2381 3.15473C13.3544 3.28374 13.5533 3.29404 13.6823 3.17777C13.8114 3.06142 13.8217 2.93705 13.7053 2.80804C13.0738 2.10753 12.2396 1.57146 11.2928 1.2578C10.391 0.959034 9.40692 0.866 8.44666 0.988446C6.51 1.23562 4.92135 2.29584 4.08797 3.89735C4.07212 3.92783 3.90863 4.34609 3.89887 4.36862C3.82589 4.52418 3.89132 4.70989 4.04637 4.78511ZM10.5841 7.51007C10.7036 7.63622 10.6981 7.76074 10.572 7.88024C10.4459 7.99969 10.2468 7.99427 10.1273 7.86813C10.015 7.74957 9.87209 7.67002 9.7141 7.63814C9.56731 7.60853 9.46177 7.47955 9.46177 7.32978V6.92237H8.07644V7.32978C8.07644 7.47955 7.97087 7.53397 7.82412 7.56357C7.4604 7.63695 7.12191 8.10819 7.12191 8.47856V12.0323C7.12191 12.206 6.98106 12.3468 6.80734 12.3468C6.63362 12.3468 6.56733 12.206 6.56733 12.0323V8.47856C6.56733 7.89908 6.92492 7.38511 7.44734 7.17211V6.82801C7.29757 6.69939 7.27705 6.50872 7.27705 6.29631V5.88151C7.27705 5.49521 7.51678 5.25548 7.90312 5.25548H9.63518C10.0215 5.25548 10.2612 5.49521 10.2612 5.88151V6.29631C10.2612 6.50876 10.2407 6.69943 10.0909 6.82801V7.17195C10.2761 7.24733 10.4436 7.36175 10.5841 7.51007ZM9.70667 5.88151C9.70667 5.84277 9.67395 5.81006 9.63522 5.81006H7.90316C7.86439 5.81006 7.83167 5.84277 7.83167 5.88151V6.29631C7.83167 6.3256 7.85043 6.35147 7.8763 6.36237L7.87901 6.36343C7.8866 6.36626 7.89474 6.36779 7.90316 6.36779H9.63522C9.64344 6.36779 9.65142 6.36634 9.65885 6.36362L9.66259 6.36217C9.68818 6.3512 9.70671 6.3254 9.70671 6.29631L9.70667 5.88151ZM16.4917 12.2275C16.4755 12.9331 15.9432 13.8398 15.1613 14.7149C14.4003 15.5666 13.4212 16.2991 12.3864 16.7935V17.5258C12.3864 17.6995 12.3201 17.8404 12.1464 17.8404H6.40085C6.22713 17.8404 6.16084 17.6995 6.16084 17.5258V16.7189C5.1261 16.2245 4.14692 15.5666 3.38602 14.7149C2.60407 13.8398 2.07177 12.9332 2.05557 12.2275C2.05278 12.1047 2.12167 12.066 2.23205 12.0121C2.34246 11.9583 2.47411 11.9736 2.56919 12.0513C2.70579 12.163 3.21398 12.4458 4.97781 12.6577C6.17349 12.8014 7.69912 12.8806 9.27366 12.8806C10.8482 12.8806 12.3738 12.8014 13.5695 12.6577C15.3333 12.4458 15.8414 12.163 15.978 12.0513C16.0731 11.9736 16.2048 11.9583 16.3152 12.0121C16.4256 12.066 16.4945 12.1047 16.4917 12.2275ZM11.8318 16.8324H6.71542V17.2858H11.8318V16.8324ZM15.7401 12.7877C13.9918 13.3999 10.1301 13.4352 9.27362 13.4352C8.41712 13.4352 4.55538 13.3999 2.80712 12.7877C2.90896 13.0638 3.07163 13.3639 3.28554 13.6717C3.29105 13.6777 3.29635 13.6839 3.30151 13.6904C3.34724 13.7485 3.44479 13.8459 3.58458 13.8459C3.70899 13.8459 3.82723 13.7673 3.90898 13.6304C3.99804 13.4812 4.19111 13.4326 4.34033 13.5215C4.48948 13.6106 4.53824 13.8038 4.44918 13.9529C4.31438 14.1787 4.11856 14.3416 3.89624 14.4208C4.12552 14.6655 4.38202 14.907 4.66116 15.1374C4.75942 15.0256 4.92634 14.9962 5.05862 15.0753C5.20776 15.1644 5.25644 15.3575 5.16734 15.5067C5.16486 15.5109 5.16235 15.515 5.15979 15.5191C5.56425 15.806 6.00429 16.0651 6.46872 16.2779H12.0785C12.5143 16.0782 12.9286 15.8378 13.3122 15.5719C13.2977 15.5508 13.2838 15.529 13.2705 15.5067C13.1813 15.3576 13.23 15.1644 13.3791 15.0753C13.5282 14.9861 13.7214 15.0348 13.8105 15.1839C13.8125 15.1874 13.8146 15.1907 13.8167 15.194C14.1242 14.9456 14.4055 14.6832 14.6545 14.4171C14.4365 14.3365 14.2447 14.1752 14.112 13.9529C14.0229 13.8038 14.0717 13.6107 14.2208 13.5216C14.37 13.4325 14.5631 13.4812 14.6522 13.6304C14.734 13.7673 14.8522 13.8459 14.9765 13.8459C15.0793 13.8459 15.1587 13.7931 15.2097 13.7452C15.4493 13.4118 15.6301 13.0858 15.7401 12.7877ZM16.0757 5.41712C15.9261 5.32873 15.7332 5.37835 15.6449 5.52793L15.6049 5.59548C15.5752 5.64574 15.5611 5.7009 15.5611 5.75528C15.5612 5.86287 15.6164 5.96762 15.7157 6.02637C15.7659 6.05605 15.8211 6.07013 15.8755 6.07013C15.9831 6.07013 16.0879 6.01492 16.1466 5.91556L16.1865 5.84796C16.2162 5.79771 16.2303 5.74254 16.2303 5.68816C16.2303 5.58058 16.175 5.47583 16.0757 5.41712ZM15.2129 6.02841C15.0631 5.94041 14.8703 5.99047 14.7823 6.14024L14.7425 6.20787C14.7131 6.25789 14.6991 6.3127 14.6991 6.36685C14.6991 6.47475 14.7546 6.57985 14.8544 6.63848C14.9044 6.66789 14.9593 6.68189 15.0135 6.68189C15.1213 6.68189 15.2264 6.62637 15.285 6.52669L15.3247 6.45906C15.3541 6.40904 15.3681 6.35423 15.3681 6.30008C15.3682 6.19214 15.3126 6.08704 15.2129 6.02841ZM15.3313 4.9783C15.1817 4.8899 14.9888 4.93964 14.9005 5.08922L14.8606 5.15678C14.831 5.20703 14.8168 5.2622 14.8169 5.31658C14.817 5.42416 14.8722 5.52891 14.9716 5.58758C15.0218 5.61723 15.0768 5.6313 15.1312 5.6313C15.2388 5.6313 15.3437 5.57602 15.4024 5.47661L15.4423 5.40906C15.4719 5.35881 15.486 5.30364 15.486 5.24926C15.4859 5.14172 15.4307 5.03696 15.3313 4.9783ZM17.8346 6.20182C17.4534 7.36388 16.9409 8.63219 16.2115 9.86955C15.9005 10.397 15.57 10.9081 15.2291 11.3887C15.1678 11.4752 15.0708 11.5214 14.9723 11.5214C14.9093 11.5214 14.8458 11.5025 14.7906 11.4633C14.6489 11.3628 14.69 11.1664 14.7905 11.0248C15.1212 10.5585 15.442 10.0623 15.7441 9.55006C16.3379 8.54277 16.759 7.44212 17.1201 6.47584C17.034 6.50765 16.9451 6.61917 16.8537 6.66101C16.8436 6.66632 16.8333 6.59652 16.8227 6.60072C15.9517 7.00727 14.857 7.8524 13.7691 8.97836C13.7377 9.06935 13.631 9.23518 13.598 9.32699C13.5391 9.49045 13.4336 9.57542 13.27 9.51648C13.1066 9.4577 13.0963 9.27749 13.1551 9.11403C13.1941 9.00558 13.2319 8.89772 13.2686 8.79041C13.2701 8.78562 13.2718 8.78082 13.2735 8.77606C13.8057 7.21548 14.0915 5.78206 14.0812 4.77607C14.0804 4.764 13.8565 4.67732 13.857 4.66525C13.8567 4.64516 13.9308 4.69978 13.9302 4.68004C13.3075 5.45322 12.6929 6.3479 12.13 7.30254C11.9612 7.58891 11.7971 7.80608 11.6425 8.09505C11.5605 8.24825 11.4444 8.38049 11.2912 8.29847C11.138 8.21648 11.0803 8.02585 11.1623 7.87269C11.3211 7.57613 11.4894 7.27682 11.6626 6.98301C12.3823 5.76221 13.2611 4.70907 14.0628 3.7965C14.1397 3.70897 14.2588 3.59655 14.3721 3.6236C14.4855 3.65065 14.5 3.73814 14.5292 3.851C14.5487 3.92653 14.5654 4.08072 14.5794 4.16432C15.4978 3.38705 16.2512 3.13992 16.7772 3.45004C17.454 3.849 17.3273 4.8599 17.0926 5.87498C17.2349 5.83424 17.4453 5.88069 17.574 5.86579C17.6805 5.85336 17.7861 5.89622 17.8539 5.97934C17.9218 6.06247 17.868 6.09986 17.8346 6.20182ZM16.4578 3.91749C16.2235 3.77939 15.6084 3.95575 14.6343 4.88739C14.6265 5.6893 14.3887 6.76451 14.0842 7.87314C14.8925 7.1409 15.7514 6.50585 16.4429 6.16313C16.8219 4.8308 16.7274 4.0765 16.4578 3.91749ZM16.1492 4.44081C15.9995 4.35262 15.8067 4.40248 15.7185 4.55213L15.6787 4.61973C15.6491 4.67002 15.635 4.72519 15.6351 4.77957C15.6352 4.88715 15.6906 4.99186 15.79 5.05045C15.8401 5.07998 15.8951 5.09402 15.9494 5.09402C16.0571 5.09402 16.1621 5.03865 16.2207 4.93913L16.2605 4.87154C16.2901 4.82125 16.3042 4.76608 16.3041 4.7117C16.304 4.60412 16.2487 4.4994 16.1492 4.44081ZM6.53623 14.1989C6.62529 14.0497 6.57657 13.8566 6.42743 13.7675C6.27832 13.6784 6.08514 13.7271 5.99607 13.8763C5.91429 14.0132 5.79609 14.0917 5.67167 14.0917C5.5473 14.0917 5.42914 14.0132 5.34739 13.8763C5.25833 13.7272 5.0653 13.6784 4.91604 13.7674C4.76689 13.8565 4.71813 14.0496 4.8072 14.1988C5.00235 14.5257 5.32553 14.7208 5.67167 14.7208C6.01782 14.7209 6.341 14.5257 6.53623 14.1989ZM8.90101 14.1989C8.99011 14.0498 8.94139 13.8566 8.79225 13.7675C8.64314 13.6785 8.44996 13.7271 8.36086 13.8763C8.27903 14.0132 8.16083 14.1663 8.03645 14.1663C7.91208 14.1663 7.79388 14.0132 7.71209 13.8763C7.62303 13.7272 7.42992 13.6784 7.28074 13.7675C7.13159 13.8566 7.08287 14.0497 7.17194 14.1989C7.36717 14.5257 7.69035 14.7209 8.03645 14.7209C8.38256 14.7209 8.70574 14.5257 8.90101 14.1989ZM12.766 14.7209C13.1121 14.7209 13.4353 14.5257 13.6305 14.1989C13.7196 14.0497 13.6709 13.8566 13.5217 13.7675C13.3726 13.6784 13.1795 13.7271 13.0904 13.8763C13.0086 14.0132 12.8904 14.0917 12.766 14.0917C12.6416 14.0917 12.5234 14.0132 12.4416 13.8763C12.3525 13.7271 12.1594 13.6784 12.0103 13.7675C11.8611 13.8566 11.8124 14.0497 11.9015 14.1989C12.0967 14.5257 12.4199 14.7209 12.766 14.7209ZM7.51663 15.0753C7.36748 14.9862 7.17438 15.0349 7.08527 15.184C7.00345 15.3209 6.88521 15.3995 6.76083 15.3995C6.6365 15.3995 6.5183 15.3209 6.43643 15.184C6.34733 15.0349 6.15419 14.9861 6.00508 15.0753C5.85593 15.1644 5.80725 15.3575 5.89632 15.5066C6.09159 15.8335 6.41477 16.0286 6.76079 16.0286C7.1069 16.0286 7.43008 15.8335 7.62535 15.5066C7.71449 15.3575 7.66577 15.1643 7.51663 15.0753ZM8.89449 15.184C8.80542 15.0349 8.61232 14.9861 8.46313 15.0752C8.31399 15.1643 8.26527 15.3574 8.35433 15.5066C8.54956 15.8334 8.87274 16.0286 9.21885 16.0286C9.56503 16.0286 9.88821 15.8334 10.0834 15.5066C10.1725 15.3574 10.1237 15.1643 9.9746 15.0752C9.82546 14.9862 9.63231 15.0349 9.54325 15.184C9.4615 15.3209 9.34326 15.3995 9.21885 15.3995C9.09447 15.3995 8.97623 15.321 8.89449 15.184ZM10.4012 14.7209C10.7473 14.7209 11.0706 14.5257 11.2658 14.1989C11.3548 14.0497 11.3061 13.8566 11.157 13.7675C11.0078 13.6784 10.8147 13.7271 10.7256 13.8763C10.6438 14.0132 10.5256 14.0917 10.4012 14.0917C10.2769 14.0917 10.1587 14.0132 10.0769 13.8763C9.98781 13.7272 9.79471 13.6784 9.64552 13.7675C9.49638 13.8566 9.44766 14.0497 9.53672 14.1989C9.73191 14.5257 10.055 14.7209 10.4012 14.7209ZM10.9211 15.0753C10.7719 15.1643 10.7232 15.3575 10.8123 15.5066C11.0075 15.8335 11.3307 16.0286 11.6768 16.0286C12.0229 16.0286 12.3461 15.8335 12.5414 15.5066C12.6305 15.3575 12.5817 15.1644 12.4326 15.0753C12.2835 14.9862 12.0903 15.0349 12.0012 15.184C11.9194 15.3209 11.8012 15.3995 11.6768 15.3995C11.5524 15.3995 11.4342 15.321 11.3524 15.1841C11.2634 15.0349 11.0703 14.9861 10.9211 15.0753Z" fill="white"/>
</svg>
