<svg width="19" height="19" viewBox="0 0 19 19" fill="none" xmlns="http://www.w3.org/2000/svg">
<path d="M11.9187 13.2429C11.7399 13.1354 11.5565 13.0275 11.373 12.9216C11.4162 12.5541 11.4163 12.1822 11.3732 11.8154C11.5574 11.7092 11.7407 11.6013 11.9186 11.4943C12.2181 11.3144 12.3429 10.9346 12.2089 10.611L11.8181 9.66741C11.684 9.34388 11.3274 9.16355 10.9882 9.24805C10.7866 9.29822 10.5807 9.35158 10.3754 9.40663C10.1463 9.1167 9.88338 8.85383 9.59308 8.62456C9.64813 8.4193 9.70152 8.21324 9.75172 8.0116C9.83623 7.67256 9.65593 7.31583 9.3324 7.18179L8.38883 6.79096C8.0653 6.65688 7.68549 6.78163 7.50547 7.08118C7.39825 7.25962 7.29024 7.44306 7.18426 7.62681C6.8168 7.58368 6.44506 7.58358 6.07806 7.62658C5.97175 7.44227 5.8638 7.25889 5.75699 7.08118C5.5769 6.78169 5.19718 6.65691 4.87362 6.79096L3.93005 7.18179C3.60659 7.3158 3.42623 7.67256 3.51073 8.0116C3.56103 8.21364 3.61436 8.41963 3.66931 8.62436C3.37941 8.85343 3.11651 9.11644 2.88728 9.40673C2.68155 9.35151 2.47549 9.29819 2.27425 9.24805C1.93511 9.16348 1.57844 9.34394 1.4444 9.66744L1.05363 10.611C0.91966 10.9345 1.04447 11.3143 1.3439 11.4942C1.52236 11.6015 1.70581 11.7095 1.88952 11.8155C1.84642 12.1829 1.84633 12.5547 1.88932 12.9217C1.70544 13.0278 1.5221 13.1357 1.34383 13.2428C1.0444 13.4228 0.919594 13.8025 1.0536 14.1261L1.44447 15.0697C1.57848 15.3932 1.93504 15.5736 2.27431 15.489C2.47566 15.4389 2.68165 15.3856 2.88701 15.3305C3.11615 15.6204 3.37908 15.8832 3.66938 16.1125C3.61426 16.318 3.5609 16.5241 3.51073 16.7255C3.42623 17.0645 3.60652 17.4213 3.93005 17.5553L4.87365 17.9461C4.96131 17.9824 5.05305 17.9998 5.14383 17.9998C5.38827 17.9998 5.62574 17.8743 5.75712 17.6559C5.86354 17.4789 5.97148 17.2955 6.07833 17.1104C6.44572 17.1534 6.81756 17.1535 7.18452 17.1106C7.29008 17.2936 7.39802 17.4769 7.5056 17.656C7.68563 17.9555 8.06534 18.0802 8.38897 17.9462L9.33253 17.5554C9.656 17.4214 9.83636 17.0646 9.75186 16.7256C9.70195 16.5252 9.64863 16.3193 9.59328 16.1128C9.88311 15.8837 10.146 15.6208 10.3753 15.3305C10.5805 15.3855 10.7865 15.4388 10.9883 15.4891C11.3273 15.5736 11.6841 15.3933 11.8181 15.0697L12.209 14.1261C12.3429 13.8026 12.2181 13.4228 11.9187 13.2429ZM11.1308 14.7403C10.937 14.6918 10.7395 14.6405 10.543 14.5875C10.2649 14.5127 9.97143 14.6105 9.79532 14.8368C9.59291 15.0968 9.35866 15.3311 9.09912 15.5332C8.8731 15.7092 8.77545 16.0026 8.85033 16.2805C8.90355 16.4782 8.95485 16.6757 9.00309 16.8681L8.13576 17.2273C8.0326 17.0552 7.9293 16.8793 7.82833 16.7039C7.68466 16.4544 7.40815 16.3161 7.1239 16.3513C6.79748 16.3919 6.46614 16.3918 6.13929 16.3512C5.85424 16.3158 5.57796 16.454 5.43432 16.7036C5.33212 16.881 5.22879 17.057 5.12676 17.2273L4.25943 16.868C4.30794 16.6746 4.35927 16.477 4.41226 16.2803C4.48714 16.0022 4.38929 15.7087 4.16301 15.5326C3.90303 15.3302 3.66878 15.096 3.46664 14.8365C3.29066 14.6104 2.99728 14.5128 2.71924 14.5876C2.52257 14.6406 2.32511 14.6919 2.13171 14.7404L1.77245 13.8731C1.94378 13.7704 2.11972 13.6671 2.2959 13.5656C2.54542 13.422 2.68381 13.1455 2.64848 12.8612C2.60787 12.5348 2.60797 12.2035 2.64858 11.8766C2.68404 11.592 2.54575 11.3153 2.29609 11.1716C2.11999 11.0702 1.94401 10.9668 1.77242 10.8639L2.13167 9.99665C2.32492 10.0451 2.52241 10.0964 2.71943 10.1495C2.99741 10.2244 3.29093 10.1265 3.46717 9.9002C3.66954 9.64021 3.90379 9.40593 4.16327 9.20386C4.38932 9.02785 4.48697 8.73443 4.4121 8.45639C4.3593 8.26036 4.30797 8.06293 4.25933 7.86889L5.12666 7.50967C5.22906 7.68053 5.33239 7.85644 5.43409 8.03312C5.57779 8.28264 5.85454 8.42123 6.13853 8.38567C6.46481 8.34506 6.79608 8.34506 7.12323 8.38583C7.40795 8.4213 7.68453 8.28284 7.82817 8.03332C7.92954 7.85721 8.0329 7.68123 8.13569 7.50967L9.00303 7.86889C8.95448 8.06257 8.90315 8.26009 8.85019 8.45669C8.77532 8.73473 8.87317 9.02825 9.09945 9.20439C9.3594 9.40676 9.59368 9.64098 9.79582 9.90049C9.97179 10.1265 10.2651 10.2242 10.5433 10.1493C10.7398 10.0964 10.9372 10.0451 11.1307 9.99655L11.49 10.8638C11.3189 10.9664 11.143 11.0697 10.9665 11.1713C10.717 11.315 10.5786 11.5915 10.6139 11.8757C10.6546 12.202 10.6545 12.5334 10.6138 12.8605C10.5784 13.145 10.7167 13.4217 10.9663 13.5654C11.1421 13.6666 11.3181 13.77 11.49 13.8729L11.1308 14.7403Z" fill="white"/>
<path d="M9.02746 11.3764C8.48027 10.0553 6.96034 9.4256 5.63902 9.97282C4.31793 10.5201 3.68827 12.0401 4.23552 13.3612C4.50058 14.0012 4.9991 14.4997 5.63905 14.7648C5.95903 14.8973 6.29525 14.9636 6.63146 14.9636C6.96768 14.9636 7.30389 14.8973 7.62394 14.7648C8.94502 14.2175 9.57465 12.6975 9.02746 11.3764ZM7.33271 14.0617C6.88055 14.249 6.38254 14.249 5.93024 14.0617C5.47808 13.8744 5.1259 13.5222 4.93857 13.07C4.55185 12.1366 4.99677 11.0625 5.93028 10.6759C6.15888 10.5812 6.39582 10.5363 6.6291 10.5363C7.34852 10.5363 8.03243 10.9627 8.32446 11.6676C8.71111 12.601 8.26618 13.6751 7.33271 14.0617Z" fill="white"/>
<path d="M17.4873 4.35139C17.356 4.33173 17.2211 4.31264 17.0852 4.29451C17.0167 4.06684 16.9253 3.84611 16.8125 3.63646C16.8956 3.52772 16.9775 3.41878 17.0567 3.31177C17.2325 3.074 17.2071 2.73679 16.9976 2.52741L16.4728 2.0026C16.2633 1.79309 15.9261 1.76769 15.6884 1.94357C15.581 2.02302 15.4721 2.10493 15.3637 2.18778C15.1541 2.07495 14.9334 1.98351 14.7056 1.91501C14.6875 1.77914 14.6684 1.64424 14.6488 1.51292C14.605 1.22054 14.3486 1 14.0524 1H13.3101C13.0139 1 12.7575 1.22054 12.7138 1.51289C12.6941 1.64414 12.6751 1.77908 12.6569 1.91498C12.4292 1.98348 12.2084 2.07492 11.9989 2.18774C11.8905 2.10487 11.7816 2.02292 11.6742 1.94353C11.4364 1.76766 11.0992 1.79306 10.8898 2.00254L10.365 2.52731C10.1555 2.73676 10.13 3.074 10.3059 3.3118C10.385 3.41878 10.467 3.52775 10.5501 3.63646C10.4373 3.84607 10.3458 4.06677 10.2773 4.29451C10.1415 4.31268 10.0066 4.33173 9.87527 4.35139C9.58285 4.39515 9.3623 4.65151 9.3623 4.94779V5.69004C9.3623 5.98628 9.58277 6.24267 9.87519 6.28644C10.0065 6.30609 10.1414 6.32518 10.2773 6.34331C10.3458 6.57102 10.4373 6.79172 10.55 7.00137C10.467 7.11001 10.3851 7.21891 10.3058 7.32606C10.13 7.56376 10.1554 7.90104 10.3649 8.11038L10.8897 8.63526C11.0992 8.84477 11.4364 8.87014 11.6741 8.69429C11.7815 8.6149 11.8904 8.53293 11.9988 8.45012C12.2085 8.56294 12.4292 8.65438 12.6569 8.72285C12.675 8.85868 12.6941 8.99362 12.7137 9.12497C12.7575 9.41736 13.0139 9.63789 13.3101 9.63789H14.0524C14.3486 9.63789 14.605 9.41742 14.6488 9.12494C14.6684 8.99359 14.6875 8.85868 14.7056 8.72281C14.9333 8.65438 15.154 8.56288 15.3637 8.45005C15.472 8.53293 15.581 8.61487 15.6883 8.69429C15.926 8.87017 16.2633 8.84477 16.4727 8.63529L16.9976 8.11048C17.2071 7.90104 17.2325 7.56379 17.0566 7.32603C16.9774 7.21891 16.8955 7.10994 16.8125 7.0014C16.9252 6.79179 17.0167 6.57112 17.0852 6.34335C17.221 6.32518 17.356 6.30613 17.4873 6.28647C17.7797 6.24271 18.0002 5.98635 18.0002 5.69007V4.94782C18.0002 4.65155 17.7797 4.39515 17.4873 4.35139ZM17.2773 5.58675C17.158 5.60404 17.0363 5.62085 16.9143 5.63675C16.6728 5.66826 16.4751 5.83965 16.4107 6.07334C16.3491 6.29709 16.2596 6.51301 16.1448 6.71509C16.0249 6.92603 16.0434 7.18707 16.1919 7.38021C16.2668 7.47756 16.3411 7.57555 16.4134 7.67237L16.0347 8.05105C15.9376 7.97857 15.8396 7.90432 15.7425 7.82962C15.5494 7.68103 15.2883 7.66267 15.0773 7.78244C14.8752 7.89725 14.6593 7.98673 14.4357 8.04839C14.2019 8.11281 14.0305 8.3105 13.9991 8.55192C13.9832 8.67401 13.9664 8.79573 13.9491 8.91499H13.4135C13.3962 8.79573 13.3794 8.67404 13.3635 8.55205C13.332 8.31053 13.1606 8.11284 12.9269 8.04843C12.7032 7.9868 12.4873 7.89732 12.2851 7.7825C12.0742 7.66264 11.8131 7.68107 11.6201 7.82962C11.5229 7.90436 11.4249 7.97857 11.3278 8.05105L10.9491 7.67237C11.0214 7.57545 11.0956 7.47753 11.1706 7.38008C11.319 7.187 11.3375 6.92596 11.2177 6.71502C11.1029 6.51295 11.0134 6.29699 10.9517 6.0733C10.8874 5.83955 10.6897 5.66819 10.4482 5.63668C10.3261 5.62075 10.2044 5.60401 10.0851 5.58665V5.05115C10.2044 5.03385 10.3261 5.01705 10.4482 5.00114C10.6897 4.96963 10.8874 4.79824 10.9517 4.56455C11.0134 4.34083 11.1028 4.12491 11.2176 3.9228C11.3375 3.71187 11.319 3.45079 11.1706 3.25771C11.0956 3.16023 11.0213 3.06228 10.9491 2.96553L11.3278 2.58684C11.4249 2.65933 11.5228 2.73357 11.62 2.80824C11.8129 2.95683 12.074 2.97535 12.2851 2.85546C12.4872 2.74067 12.7031 2.65119 12.9268 2.5895C13.1606 2.52509 13.332 2.32739 13.3634 2.08597C13.3794 1.96389 13.3962 1.8422 13.4135 1.72293H13.949C13.9663 1.84216 13.9831 1.96385 13.999 2.08587C14.0305 2.32739 14.2019 2.52509 14.4356 2.58947C14.6593 2.65112 14.8753 2.74064 15.0774 2.85542C15.2884 2.97532 15.5494 2.95669 15.7424 2.80828C15.8396 2.73357 15.9375 2.65933 16.0347 2.58684L16.4134 2.96553C16.3411 3.06231 16.2669 3.1603 16.1919 3.25781C16.0434 3.45086 16.025 3.7119 16.1448 3.92284C16.2596 4.12498 16.349 4.34093 16.4107 4.56459C16.4751 4.79834 16.6727 4.9697 16.9142 5.00121C17.0363 5.01715 17.158 5.03391 17.2773 5.05125V5.58675Z" fill="white"/>
<path d="M13.6813 3.77832C12.8318 3.77832 12.1406 4.46944 12.1406 5.31898C12.1406 6.16855 12.8317 6.85967 13.6813 6.85967C14.5308 6.85967 15.2219 6.16855 15.2219 5.31898C15.2219 4.46944 14.5308 3.77832 13.6813 3.77832ZM13.6813 6.17479C13.2094 6.17479 12.8255 5.79086 12.8255 5.31895C12.8255 4.84703 13.2094 4.46313 13.6813 4.46313C14.1532 4.46313 14.5371 4.84706 14.5371 5.31895C14.5371 5.79086 14.1532 6.17479 13.6813 6.17479Z" fill="white"/>
</svg>
