<svg width="19" height="19" viewBox="0 0 19 19" fill="none" xmlns="http://www.w3.org/2000/svg">
<path d="M3.15852 12.6021C3.3008 12.4883 3.1715 12.2808 3.05775 12.1385C2.14664 10.9988 1.65215 9.57312 1.65961 8.11314C3.55617 8.48918 5.91085 8.68724 8.20963 8.68724C9.69786 8.68724 11.2984 8.60417 12.6493 8.44354C12.6519 8.54431 12.6522 8.64532 12.6501 8.74665C12.6442 9.02495 12.6203 9.30439 12.5789 9.57729C12.5517 9.75737 12.5231 9.92546 12.7032 9.95275C12.8833 9.98013 13.0514 9.85611 13.0787 9.67603C13.1242 9.37514 13.1506 9.06717 13.1571 8.76059C13.1599 8.62602 13.1589 8.49174 13.1541 8.35816C13.6549 8.28745 14.2928 8.2057 14.7597 8.11314C14.76 8.169 14.7595 8.22503 14.7584 8.28119C14.7524 8.55977 14.7285 8.83921 14.6872 9.11177C14.6599 9.2919 14.6313 9.45999 14.8114 9.48728C14.992 9.51507 15.1596 9.39069 15.1869 9.21064C15.2325 8.91009 15.2589 8.60207 15.2654 8.29516C15.3475 4.40459 12.2491 1.17261 8.35863 1.09052C4.46996 1.00691 1.23599 4.10676 1.15391 7.99733C1.11911 9.64692 1.66642 11.2639 2.69495 12.5504C2.76009 12.6319 2.85598 12.6743 2.95279 12.6743C3.02502 12.6743 3.09771 12.6507 3.15852 12.6021ZM13.5653 4.46037C14.1467 5.30836 14.6053 6.45456 14.722 7.52423C14.2508 7.61959 13.6073 7.70362 13.0995 7.77597C12.9602 6.70828 12.5787 5.61597 11.9923 4.7265C12.5056 4.67385 13.0824 4.53417 13.5653 4.46037ZM8.3447 1.67378C10.2136 1.71323 12.0334 2.63078 13.1769 3.9378C12.695 4.00496 12.0442 4.13809 11.5345 4.18431C11.1585 3.73047 10.7231 3.24421 10.2347 2.89068C10.087 2.78377 9.88083 2.81696 9.77409 2.96448C9.66726 3.11204 9.8528 3.31826 10.0004 3.42504C10.3118 3.65044 10.5993 3.97734 10.8611 4.24933C10.0441 4.30395 9.05251 4.33195 8.20963 4.33195C6.54218 4.33195 4.7379 4.22249 3.24221 4.01408C4.446 2.63898 6.37958 1.63263 8.3447 1.67378ZM2.77732 4.53656C4.39962 4.78459 6.37249 4.91537 8.20963 4.91537C9.23371 4.91537 10.4055 4.87468 11.3883 4.79568C12.0368 5.66886 12.456 6.77391 12.5979 7.86177C11.2657 8.02136 9.68227 8.1039 8.20963 8.1039C5.91621 8.1039 3.5722 7.98005 1.69746 7.60051C1.81451 6.52696 2.19727 5.38216 2.77732 4.53656ZM16.9849 12.8465H16.9095V11.1828C16.9095 10.5952 16.4314 10.1171 15.8437 10.1171C15.5585 10.1171 15.2992 10.2296 15.1077 10.4126C14.9163 10.2296 14.6569 10.1171 14.3717 10.1171C13.784 10.1171 13.3059 10.5952 13.3059 11.1828V12.9228H7.60922V11.1828C7.60922 10.5952 7.20732 10.1171 6.61965 10.1171C6.33448 10.1171 6.07511 10.2296 5.8836 10.4127C5.69214 10.2296 5.43277 10.1171 5.14763 10.1171C4.55996 10.1171 4.08187 10.5952 4.08187 11.1828V12.8465H4.00634C3.36264 12.8465 2.83892 13.3702 2.83892 14.0139C2.83892 14.6576 3.36264 15.1814 4.00634 15.1814H4.08187V16.845C4.08187 17.4326 4.55996 17.9108 5.14763 17.9108C5.43277 17.9108 5.69214 17.7982 5.8836 17.6152C6.07511 17.7982 6.33448 17.9108 6.61965 17.9108C7.20732 17.9108 7.60922 17.4326 7.60922 16.845V15.1814H13.306V16.845C13.306 17.4326 13.7841 17.9108 14.3718 17.9108C14.657 17.9108 14.9164 17.7983 15.1078 17.6152C15.2993 17.7982 15.5586 17.9108 15.8438 17.9108C16.4315 17.9108 16.9096 17.4326 16.9096 16.845V15.1814H16.985C17.6287 15.1814 17.9999 14.6576 17.9999 14.0139C17.9999 13.3702 17.6287 12.8465 16.9849 12.8465ZM4.08191 14.598H3.77768C3.4977 14.598 3.42238 14.294 3.42238 14.014C3.42238 13.734 3.57393 13.43 3.85392 13.43H4.08191V14.598ZM5.63005 16.845C5.63005 17.069 5.29539 17.3274 5.07144 17.3274C4.84753 17.3274 4.5891 17.069 4.5891 16.845V14.8516V11.1829C4.5891 10.9589 4.84753 10.7005 5.07144 10.7005C5.29539 10.7005 5.63005 10.9589 5.63005 11.1829V16.845ZM7.10203 16.845C7.10203 17.069 6.84361 17.3274 6.61965 17.3274C6.39566 17.3274 6.1372 17.069 6.1372 16.845V11.1829C6.1372 10.9589 6.39566 10.7005 6.61965 10.7005C6.84361 10.7005 7.10203 10.9589 7.10203 11.1829V16.845ZM13.306 14.598H7.60922V13.5062H13.306V14.598ZM14.8542 16.845C14.8542 17.069 14.5958 17.3274 14.3718 17.3274C14.1478 17.3274 13.8131 17.069 13.8131 16.845V14.8516V11.1829C13.8131 10.9589 14.0715 10.7005 14.2955 10.7005C14.5195 10.7005 14.8542 10.9589 14.8542 11.1829V16.845ZM16.4023 16.845C16.4023 17.069 16.0677 17.3274 15.8437 17.3274C15.6198 17.3274 15.3614 17.069 15.3614 16.845V11.1829C15.3614 10.9589 15.6198 10.7005 15.8437 10.7005C16.0677 10.7005 16.4023 10.9589 16.4023 11.1829V16.845ZM16.9849 14.598H16.9095V13.43H16.9849C17.2649 13.43 17.4926 13.7339 17.4926 14.0139C17.4926 14.2939 17.2649 14.598 16.9849 14.598Z" fill="white"/>
</svg>
