<svg width="19" height="19" viewBox="0 0 19 19" fill="none" xmlns="http://www.w3.org/2000/svg">
<path d="M14.8031 3.09973C13.9652 2.23518 12.8013 1.80418 11.6011 1.91327C11.5923 1.9135 11.583 1.91372 11.5742 1.91443C11.1845 1.95272 10.8224 2.11055 10.4722 2.26349C10.1118 2.42085 9.77127 2.56939 9.44334 2.56939C9.11446 2.56939 8.77491 2.42063 8.41539 2.26304C8.06793 2.11077 7.70865 1.95341 7.32128 1.91443C6.14411 1.79536 4.99688 2.21474 4.17294 3.06237C3.34901 3.90998 2.96325 5.06812 3.11412 6.2374C3.73787 11.6324 4.17838 14.9481 4.42325 16.0921C4.50018 16.4526 4.87757 17.0175 5.35905 17.0964C5.39119 17.1017 5.42833 17.1054 5.4694 17.1054C5.6631 17.1054 5.94195 17.0228 6.17405 16.6311C6.50757 16.0678 6.79723 15.29 7.10406 14.4663C7.73211 12.7804 8.44415 10.8693 9.58097 10.8512C10.7096 10.874 11.2813 12.48 11.8344 14.0332C12.1294 14.8625 12.4083 15.6458 12.7774 16.2383C13.0229 16.6331 13.4145 16.8281 13.8273 16.7571C14.2001 16.694 14.5116 16.4215 14.5849 16.0944C14.8985 14.6991 15.4641 10.031 15.8835 6.35997C16.0401 5.15841 15.6465 3.97009 14.8031 3.09973ZM15.2787 6.30031L15.2782 6.30426C14.86 9.96391 14.3634 14.4819 14.0545 15.857C14.0231 15.9961 13.9295 16.1244 13.748 16.155C13.6201 16.1773 13.5091 16.2999 13.3142 15.9872C12.9723 15.4381 12.7019 14.6782 12.4155 13.874C11.8751 12.1686 11.0473 10.2719 9.58211 10.2425C8.11204 10.2659 7.20644 12.4719 6.52525 14.3004C6.22608 15.1036 6.01009 15.7287 5.69839 16.2553C5.54056 16.5222 5.47846 16.5006 5.43587 16.4939C5.20971 16.4568 5.07459 16.2416 5.02155 15.9928C4.7832 14.8792 4.33294 11.4869 3.71929 6.17963C3.58674 5.15213 3.92492 4.27016 4.6472 3.52722C5.28904 2.86668 6.02157 2.50367 6.93044 2.50367C7.0444 2.50367 7.15905 2.50926 7.27394 2.52086C7.58659 2.55218 7.89643 2.68796 8.2246 2.83186C8.37204 2.89644 8.52142 2.96172 8.6734 3.01807C8.68508 3.02703 8.69425 3.03832 8.70782 3.04517L11.078 4.243C11.1123 4.26039 11.149 4.26852 11.185 4.26852C11.2718 4.26852 11.4223 4.08752 11.464 4.00467C11.5232 3.88745 11.4096 3.74449 11.2924 3.68529L10.0356 3.04956C10.2963 2.98347 10.4821 2.94036 10.7292 2.83255C11.056 2.68981 11.298 2.5552 11.5867 2.52318C11.5983 2.52387 11.6097 2.52342 11.6213 2.52226C12.685 2.4178 13.5858 2.79797 14.3285 3.56413C15.0705 4.33003 15.417 5.24266 15.2787 6.30031Z" fill="white"/>
</svg>
