<svg width="19" height="19" viewBox="0 0 19 19" fill="none" xmlns="http://www.w3.org/2000/svg">
<path d="M17.4711 5.3374H1.53103L1.05466 8.85478L1 9.24262L1.38948 9.2836C1.39803 9.28459 2.254 9.39186 3.40532 10.1934C5.34582 11.5442 6.61551 13.7895 7.33893 15.4352L7.43879 15.6624H11.5632L11.6631 15.4352C12.3865 13.7895 13.6562 11.5442 15.5967 10.1934C16.748 9.39189 17.604 9.28458 17.6105 9.28382L18 9.24285L17.4711 5.3374ZM16.908 5.99646L17.0096 6.84802H1.99247L2.09411 5.99646H16.908ZM15.2166 9.63312C13.1919 11.0185 11.957 13.2737 11.1699 15.0033H7.83214C7.04505 13.2737 5.81018 11.0185 3.78548 9.63312C2.95803 9.06693 2.16094 8.81635 1.75428 8.7079L1.88953 7.50708H17.1126L17.2479 8.7079C16.8412 8.81635 16.0441 9.06696 15.2166 9.63312Z" fill="white"/>
</svg>
