<svg width="19" height="19" viewBox="0 0 19 19" fill="none" xmlns="http://www.w3.org/2000/svg">
<path d="M9.5 1C4.8129 1 1 4.8129 1 9.5C1 11.099 1.44429 12.6512 2.2871 13.9991C1.95135 15.1754 1.3449 17.4004 1.33837 17.4236C1.30698 17.5387 1.34065 17.6616 1.42663 17.7443C1.51262 17.8271 1.63685 17.8565 1.74996 17.8218L5.11923 16.7855C6.43902 17.5806 7.95038 18 9.5 18C14.1871 18 18 14.1871 18 9.5C18 4.8129 14.1871 1 9.5 1ZM9.5 17.3462C8.02263 17.3462 6.58352 16.9332 5.33794 16.1526C5.28531 16.1195 5.22483 16.1029 5.16435 16.1029C5.13198 16.1029 5.09962 16.1078 5.06823 16.1173L2.12625 17.0228C2.34235 16.234 2.73073 14.823 2.95598 14.038C2.98213 13.9471 2.96742 13.8491 2.9161 13.7696C2.09029 12.4989 1.65385 11.0225 1.65385 9.5C1.65385 5.17383 5.17383 1.65385 9.5 1.65385C13.8262 1.65385 17.3462 5.17383 17.3462 9.5C17.3462 13.8262 13.8262 17.3462 9.5 17.3462Z" fill="white"/>
<path d="M15.0523 11.5027C14.4488 11.1676 13.9348 10.8315 13.5598 10.5863C13.2735 10.3993 13.0665 10.2643 12.9148 10.1881C12.4908 9.97658 12.1694 10.126 12.0472 10.2496C12.0318 10.2649 12.0181 10.2816 12.0063 10.2993C11.5659 10.96 10.9909 11.5919 10.8225 11.6259C10.628 11.5955 9.71753 11.078 8.81261 10.3244C7.88872 9.55453 7.30745 8.81732 7.22213 8.31516C7.81484 7.70512 8.02832 7.32132 8.02832 6.88455C8.02832 6.43437 6.97824 4.55489 6.7883 4.36495C6.5977 4.17468 6.16845 4.14493 5.51232 4.2757C5.44922 4.28845 5.39103 4.31951 5.34526 4.36495C5.26582 4.44439 3.40693 6.33957 4.29028 8.63653C5.25993 11.1574 7.7488 14.0876 10.9219 14.5636C11.2825 14.6176 11.6205 14.6444 11.937 14.6444C13.8037 14.6444 14.9055 13.7051 15.2157 11.842C15.2389 11.7057 15.1732 11.5697 15.0523 11.5027ZM11.019 13.917C7.66347 13.4139 5.54991 10.0894 4.90064 8.4018C4.25661 6.72795 5.44432 5.23555 5.74247 4.89816C5.98505 4.85697 6.24038 4.83964 6.34695 4.85632C6.56959 5.16591 7.34047 6.62235 7.37447 6.88455C7.37447 7.05618 7.31857 7.29516 6.65295 7.9611C6.59149 8.02224 6.55716 8.10528 6.55716 8.19224C6.55716 9.90401 10.1677 12.2788 10.8072 12.2788C11.3633 12.2788 12.0884 11.3441 12.5013 10.735C12.5251 10.736 12.5653 10.7442 12.6226 10.773C12.7403 10.8321 12.9443 10.9652 13.2022 11.1339C13.5428 11.3565 13.9953 11.6521 14.5295 11.9584C14.2869 13.1255 13.6089 14.306 11.019 13.917Z" fill="white"/>
</svg>
