<svg width="19" height="18" viewBox="0 0 19 18" fill="none" xmlns="http://www.w3.org/2000/svg">
<path d="M16.3646 9.53771C16.3646 4.50572 14.7014 2.41329 14.5122 2.19181C12.5448 -0.71016 10.0974 0.0208479 9.49927 0.258148C8.90079 0.0208479 6.45375 -0.709861 4.4864 2.19177C4.29715 2.41329 2.63396 4.50542 2.63425 9.52608C2.63126 9.60071 2.56889 11.3761 3.03306 13.2208C3.33007 14.3993 4.0121 15.3968 4.95385 16.0299C5.32757 16.281 5.64276 16.4031 5.91738 16.4031C6.08213 16.4031 6.21585 16.2693 6.21585 16.1046V14.5452C6.22237 14.5503 6.22865 14.5554 6.23526 14.5606C6.42308 14.7081 6.61768 14.8473 6.81284 14.9817V16.7016C6.81284 16.8664 6.94656 17.0001 7.11132 17.0001C7.27608 17.0001 7.4098 16.8664 7.4098 16.7016V15.3847L7.49846 15.4444C7.61128 15.5211 7.72173 15.6029 7.83186 15.6841C8.30975 16.0375 8.80376 16.4032 9.49924 16.4032C10.1947 16.4032 10.6887 16.0375 11.1666 15.6841C11.2768 15.6029 11.3872 15.5211 11.5 15.4444L11.5887 15.3849V16.7016C11.5887 16.8663 11.7224 17 11.8871 17C12.0519 17 12.1856 16.8663 12.1856 16.7016V14.9828C12.3873 14.8443 12.5881 14.7006 12.7826 14.5468V16.1046C12.7826 16.2693 12.9163 16.4031 13.0811 16.4031C13.3557 16.4031 13.6709 16.281 14.0446 16.0299C14.9864 15.3968 15.6684 14.3993 15.9654 13.2208C16.4297 11.3761 16.3673 9.60068 16.3646 9.53771ZM11.4532 14.7566L11.1648 14.9504C11.0451 15.0316 10.9284 15.1178 10.8117 15.2041C10.3933 15.5136 9.99777 15.8062 9.49927 15.8062C9.00078 15.8062 8.6053 15.5136 8.1868 15.2041C8.07009 15.1178 7.95338 15.0316 7.83339 14.9504L7.55907 14.7659C7.23879 14.5513 6.90715 14.3292 6.60419 14.0913C6.43973 13.9621 6.30837 13.8495 6.19017 13.7376C4.83682 12.4526 4.72337 10.4512 4.72337 8.6761C4.72337 7.99972 5.04424 7.3505 5.58155 6.93977L9.49927 3.94379L13.417 6.93977C13.9543 7.3505 14.2752 7.99972 14.2752 8.6761C14.2752 10.4512 14.1617 12.4526 12.8084 13.7376C12.4033 14.1217 11.9203 14.4447 11.4532 14.7566ZM15.3864 13.0751C15.1258 14.11 14.5306 14.9837 13.7113 15.5344C13.5793 15.6231 13.4698 15.6833 13.3797 15.7243V14.0151L13.3794 14.0095C14.6862 12.6331 14.8721 10.637 14.8721 8.676C14.8721 7.81486 14.4638 6.98832 13.7796 6.46537L9.73837 3.37478C9.59777 3.26702 9.40108 3.26702 9.26078 3.37448L5.2189 6.46537C4.53475 6.98832 4.12641 7.81486 4.12641 8.676C4.12641 10.637 4.31234 12.6331 5.61916 14.0095L5.61887 14.0151V15.7243C5.52871 15.6833 5.41918 15.6231 5.28722 15.5344C4.46786 14.9837 3.87266 14.11 3.61207 13.0751C3.1691 11.3161 3.23001 9.56665 3.23088 9.53771C3.23088 4.57198 4.929 2.59177 4.94541 2.57326C4.95468 2.56313 4.96303 2.55206 4.9708 2.54073C6.91639 -0.343327 9.26463 0.799309 9.36283 0.848258C9.4476 0.892122 9.54939 0.891524 9.63476 0.848856C9.73385 0.79901 12.0818 -0.343626 14.0277 2.54073C14.0354 2.55206 14.0438 2.56313 14.053 2.57326C14.07 2.59237 15.7676 4.54211 15.7679 9.54934C15.7685 9.56665 15.8294 11.3161 15.3864 13.0751Z" fill="white"/>
</svg>
